<?xml version="1.0" encoding="utf-8"?>
<!-- Generator: Adobe Illustrator 26.0.3, SVG Export Plug-In . SVG Version: 6.00 Build 0)  -->
<svg version="1.1" id="Calque_1" xmlns="http://www.w3.org/2000/svg" xmlns:xlink="http://www.w3.org/1999/xlink" x="0px" y="0px"
	 viewBox="0 0 409.9 409.9" style="enable-background:new 0 0 409.9 409.9;" xml:space="preserve">
<style type="text/css">
	.st0{fill:#FECDBF;}
	.st1{fill:#FCAF9F;}
	.st2{fill:#A7E204;}
	.st3{fill:#7986BE;}
	.st4{fill:#4EB0FB;}
	.st5{fill:#FE4D4D;}
	.st6{fill:#FCC62E;}
	.st7{fill:#98D000;}
	.st8{fill:#2B93FB;}
	.st9{fill:#F8AB00;}
	.st10{fill:#E7333C;}
	.st11{fill:#FCB6A7;}
	.st12{fill:#D6DAEB;}
	.st13{fill:#CEE7FE;}
	.st14{fill:#9BCBFB;}
	.st15{fill:#BDCEEA;}
	.st16{fill:#7986BF;}
</style>
<g>
	<path class="st0" d="M282.7,236.7c-0.3,0.1-0.7,0.2-1.1,0.4c-8.3,3-8.9,4-7.1,12.5c0.6,2.6,0.4,5.1-1.8,6.8
		c-1.7,1.3-1.9,2.3-0.4,3.9c2.1,2.4,2.3,5.2,1.3,8.1c-0.9,2.5-1,4.9-0.4,7.4c0.4,1.9,0.4,3.7,0.2,5.6c-0.6,5.1-2.5,7.2-7.5,8.2
		c-7.2,0-14.2-1.9-21.2-3.1c-1.7-0.3-3.4-0.5-5.2-0.6c-10.4-2.2-20.3-5.8-29.9-10.4c-1.7-0.8-3.3-1.8-5.2-1.8
		c-1.2,0.1-2.2,0.5-2.7,1.6c-0.6,1.2,0,2.2,0.8,3c1,1.1,2.3,1.8,3.7,2.5c2.9,1.4,5.7,3.1,8.5,4.8c6.3,3.7,9.5,9.4,10.1,16.5
		c0.3,3.6,1.1,7.2,0.9,10.8c-0.1,2.6,1.1,3.5,3.6,3.5c2.7,0,3.4-1.3,3.4-3.7c-0.1-4.5-0.1-9,0-13.5c0-1.4-0.4-3.1,1.6-3.6
		c0,6.4,0,12.7,0.1,19.1c0.1,2.5-0.6,3.5-3.3,3.5c-25.8-0.1-51.6-0.1-77.4,0c-2.3,0-3.3-0.5-3.3-3.1c0.2-9.2,0.1-18.5,0.1-27.7
		c2.4,0.8,1.7,2.8,1.7,4.4c0.1,6.7,0,13.5,0.1,20.2c0,3.9,0.4,4.2,4.3,4.3c2.5,0,5,0,7.5,0c2.1,0,3.2-0.7,3.3-3
		c0.4-18.2,0.6-36.4-3.3-54.4c-1.9-8.7-6.8-16.1-10.8-23.8c-6.7-12.8-14-25.4-17.6-39.6c-0.5-1.9-1.4-3.8-0.7-5.8
		c0.2-0.2,0.4-0.3,0.6-0.4l0,0c1.2-0.5,1.4,0.9,1.8,1.7c1.1,2.5,1.9,5.2,3.1,7.6c9,17.4,23,28.2,42.3,32c2.7,0.5,5.5,0.3,8.2,0.3
		c1.1,0.1,2.2,0.1,3.3,0.1c1.7,0,3.5-0.1,5.2-0.3c22-2.4,43-18.9,48.8-43.7c4.6-20-0.2-37.7-14.3-52.9
		c-9.8-10.5-21.8-15.9-35.7-17.7c-0.3,0-0.5-0.1-0.8-0.1c-1.2-0.2-2.4-0.3-3.6-0.4c-0.1,0-0.2,0-0.3,0l0,0c-0.8,0-1.6,0-2.4,0
		c-1.4,0-2.9,0.2-4.3,0.4c-15.3,1.6-28,8.2-38.2,19.8c-0.7,0.8-1.4,1.7-2.7,1.4h-0.1l0,0c-0.9-1.7,0.1-2.9,1-4.1
		c15.2-22.1,36.4-33.5,62.9-35.2c0.1,0,0.2,0,0.3,0h0.1c2.8,0,5.6,0,8.4,0.4c0.1,0,0.3,0,0.4,0.1c0.2,0,0.4,0.1,0.5,0.1
		c17,2.5,32.6,8.5,46,19.6c3.1,2.6,5.8,5.4,8.1,8.8c2.3,3.3,3,6.9,0.9,10.6c-3,5-2.7,10.1-1.3,15.5c2,7.7,4.5,15.3,6.1,23.2
		c1,5.1,0.4,9.7-3,13.7c-3,3.6-3.4,7.5-1.9,11.9c2,6,5.2,11.3,8.6,16.6c1.6,2.5,3.4,4.9,4.6,7.7
		C289.3,231.1,287.6,234.8,282.7,236.7z"/>
	<path class="st1" d="M209.7,98.1C209.7,98.2,209.7,98.2,209.7,98.1c-0.1,0.3-0.2,0.3-0.3,0.3c-17,2.3-33,7-46.5,18.3
		c-6,5-11,10.7-15.5,17c-0.8,1.1-1.6,2.2-1.8,3.6v0.1c0.3,1.6-0.6,2.8-1.4,4c-8.3,13.2-11.5,27.5-8.8,43c0.3,1.5,1,3.2-0.3,4.6
		c0,0.1,0,0.1,0,0.2c0.8,7.4,3.6,14.3,6.4,21.1c5.8,13.7,13.8,26.2,20.2,39.6c2.8,5.8,3.8,12,4.7,18.3c1.5,10.2,1.2,20.6,1.8,30.9
		c0.3,5.1-0.7,10.1-0.2,15.2c0.2,2.2-0.6,3.2-2.9,3.1c-3.7-0.2-7.5-0.2-11.2,0c-2.5,0.1-3.2-0.9-3.1-3.3c0.1-8,0-16,0-24
		c0-1,0.2-2-0.7-2.8c-0.3-9.6-1.1-19.2-3.2-28.5c-2.3-10-7.9-18.5-12.7-27.4c-7.2-13.5-14.5-27-17.2-42.4c-3.3-18.2,0.6-35,9.5-50.7
		c13.1-22.9,33.7-34.9,59.3-39.2c7.8-1.3,15.6-1.7,23.5-1.4C209.7,97.9,209.8,98,209.7,98.1z"/>
	<path class="st2" d="M66.6,220c0,2.8-1,4.7-3.4,6.1c-5.4,3.1-10.9,6.1-16.2,9.4c-1,0.6-2,1-3.2,0.9c-7.3-3.4-14-8-21.1-11.8
		c-1.4-0.8-1.4-1.9-1.4-3.2c0-9.2,0-18.5,0-27.7c0-1.3,0-2.4,1.4-3.1c7.1-3.9,14.1-7.9,21.1-11.9c5.4,1.5,9.7,5,14.5,7.7
		c9.2,5.2,8.2,3.2,8.3,14.5C66.6,207.3,66.5,213.7,66.6,220z"/>
	<path class="st1" d="M291.8,235.8c-1.2,0.4-2.4,0.8-3.5,1.2c-5.7,2-7.4,5.1-5.6,10.9c1.7,5.7,1.3,6.6-4,9.8
		c1.1,1.3,2.3,2.5,3.3,3.9c1.2,1.8,1.3,3.8,0.4,5.7c-1.4,2.9-1.1,5.9-0.7,8.8c1.3,9.2-2.2,13.5-11.4,13.5c-1.5,0-3-0.1-4.5-0.1
		c5.6-2.7,7.8-7,6.5-13.3c-0.6-2.9-0.7-5.5,0.5-8.4c1.2-2.8,0.6-5.7-1.8-7.8c-1.5-1.3-2.6-2.3,0.2-3.5c3.2-1.5,3.4-4.4,2.4-7.4
		c-2.4-7-0.9-10.1,6.1-12.5c0.7-0.2,1.4-0.5,2.1-0.7c5.7-1.9,7-5.4,4-10.6c-3.5-6.2-8-11.8-10.8-18.4c-1.6-4-3.8-7.9-2.6-12.5
		c0.4-1.5,1-2.9,2-4c4.7-5.1,4.5-10.9,3-17.1c-2.2-8.8-5.4-17.3-6.7-26.4c-0.4-2.7,0.1-5,1.3-7.1c4.2-7.6,3.2-9.8-2.9-16.5
		c-8.2-9-18.8-14.7-30.1-18.9c-6.7-2.5-13.6-4.1-20.6-5.3c0-0.3,0.1-0.5,0.2-0.7c0.2-0.6,0.7-0.5,1.2-0.4c0.3,0.1,0.6,0.2,0.9,0.3
		c20.9,1.8,39.8,8.5,55.7,22.6c1.9,1.7,3.6,3.8,5.2,5.9c2.4,3.2,3.1,6.9,0.9,10.5c-2.9,4.6-2.8,9.3-1.5,14.3
		c2.1,8.6,4.9,17,6.7,25.6c0.9,4.3,0.1,8.1-2.5,11.2c-4.3,5.1-4.3,10.2-1.7,16c3,6.4,6.4,12.4,10.3,18.2c0.8,1.2,1.7,2.5,2.2,3.9
		C297.7,231.2,296.2,234.3,291.8,235.8z"/>
	<path class="st3" d="M361.9,252.2c-15.5,50.5-47.7,85.9-96.5,106.2c-2.1,0.9-4.8,1.2-1.9,4.4c1.2,1.3,0.7,3.1-0.4,4.5
		c-1.2,1.5-2.8,2.3-4.6,1.6c-4.6-1.6-9.2-3.2-13.7-5.1c-2.9-1.2-3.4-4.4-1.4-7.2c2.3-3.2,4.7-6.4,7.2-9.6c2.8-3.5,5-3.6,8.3-0.3
		c0.7,3.3,0.7,3.3,1.6,3.8c24.2-8.9,44.5-23.5,61.4-42.8c14.8-17,25.2-36.4,31.5-58.1c1.2-3.9,3.3-5.5,6-4.5
		C362.2,246,363.1,248.3,361.9,252.2z"/>
	<path class="st3" d="M365.5,152.8c-1.3,3.6-2.4,7.3-3.8,11c-1.5,4.1-4.2,4.9-7.9,2.5c-2.9-1.9-5.7-4-8.6-6
		c-2.1-1.4-4.4-2.8-3.6-5.9c0.8-3.2,3.2-3.8,6.5-3.4c-3-8.3-6.9-15.8-11.4-23c-21.4-34.2-51.4-56.8-90.2-67.8
		c-3.5-1-5.2-3.2-4.4-5.8c0.8-2.9,3.1-3.9,7-2.8c23.5,6.4,44.4,17.6,62.9,33.5c19.7,17,34.5,37.6,44.3,61.7c0.2,0.5,0.4,0.9,0.9,1.8
		c1.9-2.7,4-3.8,6.6-2.4C366.5,147.8,366.5,150.2,365.5,152.8z"/>
	<path class="st3" d="M170.3,360.9c-0.8,2.8-3.3,3.9-7.1,2.8c-21.9-6.1-41.8-16.3-59.3-30.8c-20.1-16.5-35.4-36.7-46.2-61.2
		c-1.8,2.9-4.1,4-6.8,2.6c-2.9-1.5-2.5-4.2-1.7-6.9c1.2-3.7,2.2-7.4,3.5-11.1c1.2-3.5,3.8-4.5,7.1-2.6c3.1,1.8,6.1,3.9,9.1,5.9
		c2.2,1.4,4.7,2.8,4,6s-3.3,3.8-6.4,3.7c6.6,14.7,15,27.8,25.5,39.6c20.1,22.5,44.7,38,73.9,46.1C169.4,356,171,358.3,170.3,360.9z"
		/>
	<path class="st3" d="M167.3,58.5c-2.6,4.1-5.5,8-8.5,11.9c-1.1,1.4-2.8,2-4.7,1.3c-2.8-1-3.1-3.3-3.2-6c-1.9,0-3.4,0.9-4.9,1.6
		c-41.2,18.6-69.5,49-84.5,91.7c-0.2,0.7-0.5,1.4-0.7,2.1c-1,2.5-2.9,4-5.6,3.2c-2.9-0.9-3.9-3.2-2.9-6c1.9-5.4,3.8-10.9,6.1-16.1
		c18-39.6,47.2-67.8,87.4-84.6c0.9-0.4,1.8-0.8,2.9-1.3c-0.5-0.6-0.9-1-1.3-1.4c-1.5-1.6-2-3.5-0.8-5.5s3.2-2.5,5.2-1.9
		c4.5,1.4,9,2.9,13.4,4.7C167.9,53.4,169,55.9,167.3,58.5z"/>
	<path class="st4" d="M221.9,57.9c-0.1,6.9-2.5,9.4-9.6,9.5c-7.4,0.1-14.7,0.1-22.1,0c-2.5,0-4.7,0.5-6.2,2.6c-1-1-0.8-2.3-0.8-3.5
		c0-10.7,0-21.4,0-32.1c0-5.1,1.9-7.1,6.9-7.1c10.2,0,20.4,0.1,30.6,0.1c1.3,1.3,1.1,3,1.1,4.6C221.9,40.6,221.9,49.2,221.9,57.9z"
		/>
	<path class="st5" d="M366,229.7c-2,1.3-4.2,2.2-6.6,2.2c-8.4-0.3-16.7-7.5-19.7-17c-4.2-13.3,3.7-27.8,17.1-31.5
		c0.8-0.2,1.7-0.2,2.6-0.2c11.5,1.4,18.2,13.5,18.9,21.4C379.2,215.4,375.3,223.9,366,229.7z"/>
	<path class="st6" d="M221.5,382.5c-13.4,0-26.7,0.1-40.1,0.1c-3.8,0-5.8-3.2-3.9-6.4c6.9-11.9,13.3-23.9,20.7-35.5
		c2.9-0.5,4.8,0.8,6.2,3.2c6.1,10.4,12.2,20.9,18.1,31.4C224,377.9,224.4,380.5,221.5,382.5z"/>
	<path class="st7" d="M76.8,220.8c0,2.2-0.6,3.4-2.5,4.4c-6.9,3.8-13.8,7.6-20.4,11.8c-3.9,2.5-6.9,2.6-10.1-0.6
		c6.1-4.3,12.8-7.6,19.2-11.4c1.9-1.1,2.5-2.4,2.5-4.5c-0.1-8.4-0.2-16.7,0-25.1c0.1-3-1.2-4.5-3.6-5.8c-5.7-3.1-11.3-6.3-16.9-9.6
		c-0.5-0.3-0.9-0.9-1.3-1.3c3.3-2.9,6.2-3.1,10.2-0.5c6.4,4.3,13.3,7.9,20,11.7c1.9,1.1,2.9,2.2,2.8,4.6
		C76.7,203.3,76.7,212.1,76.8,220.8z"/>
	<path class="st8" d="M229.5,65.7c0,5.8-1.9,7.7-7.6,7.8c-10.5,0.1-21,0-31.5,0c-2.7,0-5.3-0.5-6.4-3.5c-0.4-2.9,0.6-3.9,3.7-3.8
		c8.4,0.2,16.7,0.1,25.1,0.1c6.2,0,7.9-1.9,8-8.1c0-10.2,0-20.5,0-30.7c6.9-0.3,8.7,1.4,8.7,8.3C229.5,45.7,229.5,55.7,229.5,65.7z"
		/>
	<path class="st9" d="M231.2,382.6c-3.2,0.1-6.5,0-9.7-0.1c2-2.8,1.2-5.4-0.4-8.2c-5.8-9.8-11.5-19.7-17-29.6
		c-1.4-2.4-3.6-3.2-5.8-4.1c1.4-2.5,2.7-5,4.2-7.5c2.2-3.5,5.7-3.6,7.7-0.2c8.4,14.3,16.6,28.6,24.8,43
		C236.9,379.4,235.1,382.4,231.2,382.6z"/>
	<path class="st1" d="M239.4,285.9c-3.6,2.3-5,5.8-5.3,9.8c-1.5,4.5-0.3,9.1-0.7,13.6c-0.1,1.1-0.2,2.3,0,3.4c0.5,3.7-0.7,5-4.6,4.9
		c-3.6-0.1-4.6-1.1-4.5-4.7c0.1-4.1-0.4-8.2-0.9-12.2c-1.1-9.2-7.8-13.7-15.1-17.6c-2.2-1.2-4.6-1.9-6.5-3.6c-1.3-1.3-3-2.6-1.7-4.8
		c1.4-2.2,3.5-2.9,5.8-2c3.4,1.3,6.6,3,9.9,4.5c6.8,3.2,13.9,5.3,21.1,7.2C238,284.6,239,284.8,239.4,285.9z"/>
	<path class="st10" d="M379.6,226.7c-5.9,4.7-12.6,7-20.2,5.2c5.1-2.1,9.9-4.7,13.2-9.3c9.3-12.7,4.9-30.4-9.3-37.4
		c-1.3-0.7-2.6-1.3-4-2c10.2-2.5,21.7,3.3,26.7,13.3C391.1,206.9,388.5,219.7,379.6,226.7z"/>
	<path class="st11" d="M220.8,98.5c-0.5,0-1.1,0-1.6,0.2c-0.3,0.1-0.5,0.3-0.7,0.6c-3-0.7-6-0.9-9-0.8c0-0.1,0-0.2,0-0.3
		c0-0.1,0-0.3,0-0.4c3.5,0.2,7-0.6,10.4,0.4C220.2,98.3,220.5,98.4,220.8,98.5z"/>
	<path class="st12" d="M260.5,350.5c-0.6,0.5-1.3,0.9-1.5-0.3c-0.2-1.2,0-2.4-0.1-3.6C260.4,347.6,259.1,349.6,260.5,350.5z"/>
	<path class="st13" d="M135.3,189.2c-0.8-5.3-1.6-10.5-1.6-15.9c0-12.1,3.9-22.9,10.3-33c0.6-0.9,1.1-1.9,1.7-2.8
		c4.6-5,9.4-9.9,15.3-13.4c7.8-4.6,15.9-8.2,25.2-8.4c2.2-0.7,4.4-0.2,6.6,0c10.5,0.9,19.4,5.6,27.3,12.1
		c14.5,12,21.8,27.8,21.8,46.6c0.1,25.4-18,49.2-42.4,56.2c-2.9,0.8-5.9,0.5-8.8,1.3c-22.4,1-45.3-15.9-53.3-37.3
		C136.8,192.8,136,191,135.3,189.2z"/>
	<path class="st14" d="M190.7,231.9c5.9-1.7,12-2.8,17.6-5.8c18.3-9.7,28.9-24.7,32-45.3c3.5-23.3-10-48.6-30.8-58.9
		c-5.3-2.6-10.6-4.9-16.5-5.6c1.2-2.2,3-0.8,4.5-0.8c22.8,2.3,39.1,14.1,48.2,34.7c15,34.1-4.6,71.9-40.9,80.4
		C200.2,231.9,195.5,232.2,190.7,231.9z"/>
	<path class="st15" d="M197.5,115.7c-1.5,0.4-3.2-0.6-4.5,0.8c-2.2-0.7-4.5-0.8-6.8-0.7C190,114.5,193.8,114.6,197.5,115.7z"/>
	<path class="st3" d="M196.7,148c0,21.5,0,42.9,0,64.4c0,3.8-1.8,6.2-4.7,5.9c-3.4-0.4-4.3-2.8-4.3-5.9c0.1-21.5,0.1-42.9,0.1-64.4
		C190.7,147.3,193.7,147.3,196.7,148z"/>
	<path class="st16" d="M214.6,186.8c0-13.3,0-26.7,0-40c0-4.1,1.4-6.2,4.2-6.2c2.9-0.1,4.8,2.3,4.8,6.4c0,13.3,0,26.7,0,40
		C220.6,187.4,217.6,187.8,214.6,186.8z"/>
	<path class="st4" d="M196.7,148c-3,1-5.9,1-8.9,0c-6.5-5-7.2-11.3-1.8-16c3.8-3.4,9-3.3,12.8,0.2c3.9,3.7,4.3,9,1,13.1
		C198.9,146.3,197.7,147.1,196.7,148z"/>
	<path class="st5" d="M214.6,186.8c3-1,6-1,8.9,0.1c3.4,2.3,5.5,5.4,5,9.7c-0.5,4.4-3.6,7.8-7.7,8.5c-4.7,0.8-8.9-1.3-10.8-5.5
		c-1.8-4-0.8-8.4,2.7-11.4C213.4,187.6,214,187.2,214.6,186.8z"/>
	<path class="st6" d="M169.8,165c7.2,5.3,7.2,11.8,0,17.6c-3,2.3-5.7,2.3-8.9-0.1c-6.9-5.6-6.9-11.9,0-17.4
		C163.8,162.7,166.5,162.7,169.8,165z"/>
	<path class="st3" d="M169.8,165c-3-1.1-5.9-1.1-8.9,0.1c0-6.4-0.1-12.7,0-19.1c0-2.1,0.7-3.9,2.7-5c1.7-0.9,3.1-0.4,4.6,0.6
		s1.7,2.6,1.7,4.3C169.8,152.3,169.8,158.6,169.8,165z"/>
	<path class="st16" d="M160.9,182.5c3,1,5.9,1.1,8.9,0.1c0,6.2,0,12.5,0,18.7c0,3.7-1.7,6-4.4,5.7c-3.3-0.4-4.6-2.6-4.6-5.8
		C160.8,195,160.9,188.7,160.9,182.5z"/>
</g>
</svg>
