<?xml version="1.0" encoding="utf-8"?>
<!-- Generator: Adobe Illustrator 26.0.3, SVG Export Plug-In . SVG Version: 6.00 Build 0)  -->
<svg version="1.1" id="Calque_1" xmlns="http://www.w3.org/2000/svg" xmlns:xlink="http://www.w3.org/1999/xlink" x="0px" y="0px"
	 viewBox="0 0 409.9 409.9" style="enable-background:new 0 0 409.9 409.9;" xml:space="preserve">
<style type="text/css">
	.st0{fill:#FFFFFF;stroke:#FFFFFF;stroke-width:2;stroke-miterlimit:10;}
</style>
<g>
	<path class="st0" d="M112,230.7c-10.1-20.7-20.6-41.3-30.9-62c-2.4-4.8-6.6-7.2-11.9-7.2c-5.9,0.1-9.7,3.3-12.3,8.4
		c-10.5,21.2-21.2,42.3-31.7,63.4v6.3c3,7.8,8.8,10.7,17,10.3c7.3-0.4,14.7-0.1,22.1-0.1c11.8,0,23.6,0.1,35.4,0
		C110.4,249.7,116.7,240.1,112,230.7z M98,239.4c-9.6,0-19.1,0-28.7,0c-9.7,0-19.4,0-29.1,0c-4.6,0-5.4-1.5-3.4-5.6
		c9.7-19.5,19.5-39,29.3-58.5c0.6-1.3,2.2-2.9,3.3-2.9c1.1,0,2.6,1.7,3.2,3c9.8,19.4,19.4,38.8,29.1,58.2
		C104,238,103.2,239.3,98,239.4z"/>
	<path class="st0" d="M259.2,232.7c-0.2-11.5-8.3-22-19.4-25.3c-2.5-0.7-5.1-1.1-8.1-1.8c7.9-8.1,12.2-17.5,12-28.7
		c-0.2-11.3-4.5-20.9-12.8-28.5c-14.5-13.3-36.7-13.8-51.5-1.1c-7.9,6.7-12.6,15.3-13.8,25.5c-1.5,12.7,2.9,23.5,11.8,33
		c-1.5,0.2-2.5,0.3-3.5,0.5c-14.6,2.5-24,13.4-24.1,28.2c-0.1,10.9,0,21.7,0,32.6c0,4.1,1.9,6.1,5.9,6.1c32.6,0,65.1,0,97.7,0
		c3.9,0,5.8-2,5.8-5.9C259.4,255.8,259.5,244.3,259.2,232.7z M175.9,177.3c0-15.7,13-28.7,28.7-28.7c15.8,0,28.7,13,28.7,28.8
		s-12.9,28.7-28.7,28.7C188.7,206,175.9,193.1,175.9,177.3z M248.8,262.6h-88.3c0-10.7-0.5-21.2,0.2-31.6c0.5-7.9,8-14.2,16.2-14.3
		c18.4-0.2,36.9-0.2,55.4,0c9.2,0.1,16.3,7.6,16.5,16.7C248.9,243.1,248.8,252.7,248.8,262.6z"/>
	<path class="st0" d="M248.7,101.9c-0.1,7.2-5,12.6-12.2,12.7c-21.2,0.2-42.5,0.2-63.7,0c-7.4-0.1-12.3-5.5-12.4-12.9
		c-0.1-10.5,0-21,0-31.5c0-10.2,0-20.3,0-30.5c0-8.3,5-13.4,13.3-13.4c20.6-0.1,41.1-0.1,61.6,0c8.5,0,13.4,5.1,13.4,13.6
		c0,5.1,0,10.3,0,15.4c0,3.8-2,6.2-5.1,6.3c-3.2,0.1-5.3-2.4-5.4-6.4c0-5-0.1-10,0-15.1c0.1-2.4-0.9-3.4-3.3-3.3
		c-20.3,0-40.6,0-61,0c-2.2,0-3.1,0.8-3.1,3.1c0,20.3,0,40.6,0,60.9c0,2.5,1.1,3.3,3.4,3.3c20.2,0,40.4,0,60.6,0
		c2.6,0,3.5-1.1,3.4-3.6c-0.1-6.2-0.1-12.4,0-18.6c0-4,2.1-6.4,5.4-6.3c3.1,0.1,5.1,2.4,5.1,6.3C248.8,88.6,248.8,95.2,248.7,101.9z
		"/>
	<path class="st0" d="M248.7,351.9c-0.1,6-2.7,10.9-7.8,14c-9.4,5.6-18.9,11.1-28.5,16.5c-5.3,2.9-10.8,2.8-16.1-0.2
		c-9.2-5.2-18.5-10.5-27.6-15.9c-6.5-3.9-9.8-11.8-8.2-19c0.6-2.7,2.5-4.3,5.3-4.2c2.8,0.1,5.2,1.9,4.9,4.5
		c-1,7.5,3.8,10.2,9.2,13.1c6.9,3.7,13.6,7.7,20.3,11.7c3.1,1.8,5.8,1.8,8.8,0c8.3-4.9,16.8-9.7,25.2-14.5c2.8-1.6,4.1-3.8,4.1-7.1
		c-0.1-9.8-0.1-19.6,0-29.4c0-3.3-1.3-5.5-4.1-7.1c-8.5-4.9-17-9.7-25.5-14.7c-2.9-1.7-5.6-1.6-8.5,0.1c-8,4.8-16.1,9.5-24.3,14
		c-3.6,2-5.5,4.5-5,8.7c0.3,2.8-0.6,5.2-3.3,6.3c-3.1,1.3-6.5-0.8-7.1-4.2c-1.3-7.9,2-15,8.9-19.1c8.8-5.1,17.6-10.1,26.4-15.2
		c5.7-3.3,11.6-3.5,17.3-0.2c9.2,5.2,18.5,10.5,27.6,15.9c5.4,3.2,8.1,8.2,8.1,14.6c0,5.3,0,10.5,0,15.8
		C248.7,341.4,248.8,346.6,248.7,351.9z"/>
	<path class="st0" d="M380,223.9c-9.3,19.8-30.7,30.1-51.4,24.5c-20.8-5.6-34.5-25-32.8-46.6c1.7-22.3,21.6-40.6,45.2-40.3
		c1.5,0.2,4.2,0.3,6.8,0.8c3.1,0.6,4.7,3,4.3,5.8c-0.4,2.9-2.5,4.4-5.7,4.4c-4.8,0.1-9.7-0.4-14.2,0.6c-17.4,3.8-28.6,21-25.4,38.3
		c3.4,18.3,19.4,29.9,38.1,27.6c17-2.1,29.9-18.2,28.6-35.8c-0.6-7.4-3.3-14-8.3-19.7c-1.7-2-2.9-4-1.6-6.6c1.8-3.8,6-4.1,9.2-0.7
		C384.3,188.7,387.3,208.3,380,223.9z"/>
	<path class="st0" d="M359.8,131.5c-5.2,5.3-10.4,10.5-15.6,15.6c-3.1,3.1-5.7,3.1-8.8,0c-5.3-5.1-10.4-10.4-15.6-15.6
		c-2.8-2.8-3-5.7-0.8-8c2.2-2.4,5.4-2.1,8.3,0.7c2.2,2.1,4.2,4.3,6.9,7c0.1-1.9,0.3-3,0.3-4c0-13.4,0-26.9,0-40.3
		c0-8.1-3.1-11.2-11.3-11.2c-18.1,0-36.2,0-54.3,0c-0.9,0-1.9,0-2.8,0c-3.1-0.2-5.1-2.3-5.2-5.1c-0.1-2.8,2-5.1,5-5.3
		c2.1-0.2,4.2-0.1,6.3-0.1c17.2,0,34.3,0,51.5,0c13.4,0,21.3,7.9,21.3,21.4c0,13.4,0,26.9,0,40.3v3.4c0.3,0.1,0.6,0.3,0.9,0.5
		c2.2-2.2,4.3-4.5,6.6-6.7c2.7-2.6,5.8-2.8,8-0.6C362.7,125.7,362.6,128.7,359.8,131.5z"/>
	<path class="st0" d="M148.1,340.8c0.1,2.9-1.7,4.9-4.6,5.3c-1.9,0.3-4,0.1-5.9,0.1c-17.4,0-34.8,0-52.2,0
		c-13.4,0-21.3-7.9-21.3-21.3s0-26.9,0-40.3v-3.4c-0.3-0.2-0.6-0.3-0.9-0.5c-2.2,2.2-4.3,4.5-6.6,6.7c-2.7,2.6-5.8,2.8-8,0.6
		c-2.3-2.3-2.1-5.3,0.7-8c5.2-5.2,10.4-10.4,15.6-15.6c3.2-3.1,5.7-3.1,8.8-0.1c5.3,5.1,10.4,10.4,15.6,15.6c2.8,2.8,3,5.7,0.8,8
		c-2.2,2.4-5.4,2.2-8.3-0.7c-2.1-2.1-4.1-4.3-6.9-7.3c-0.1,2.1-0.3,3.2-0.3,4.3c0,13.4,0,26.9,0,40.3c0,8.1,3.1,11.2,11.3,11.2h54.3
		c1.1,0,2.1-0.1,3.2,0C146.3,336.1,148.1,337.9,148.1,340.8z"/>
	<path class="st0" d="M145.8,75.1c-5,5.1-10,10.1-15.1,15.1c-2.9,2.8-6,3.2-8.3,1c-2.4-2.4-2.1-5.4,1-8.5c2.1-2.1,4.3-4.2,7.1-7
		h-3.4c-14,0-28,0-42,0c-7,0-10.4,3.3-10.4,10.3c-0.1,18.2,0,36.4,0,54.7c0,1,0,2.1,0,3.1c-0.3,3.4-2.2,5.4-5.2,5.5
		c-3.1,0-5.3-2.1-5.3-5.7c0-20-0.2-40,0.1-59.9C64.5,73,73,65.3,83.8,65.2c13.9-0.1,27.8,0,41.7,0h4.8c-2.8-2.8-5-4.9-7.1-7.1
		c-2.9-3-3.2-6-0.8-8.3c2.3-2.3,5.4-2,8.3,0.9c5.1,5,10.1,10,15.1,15.1C149.1,69.1,149.1,71.8,145.8,75.1z"/>
	<path class="st0" d="M345,324.6c0,13.7-7.8,21.5-21.5,21.5c-13.4,0-26.9,0-40.3,0h-3.4c-0.2,0.3-0.3,0.5-0.5,0.8
		c2.2,2.1,4.5,4.2,6.6,6.4c2.9,2.9,3.1,6,0.7,8.3c-2.2,2.1-5.3,1.9-8-0.8c-5.2-5.2-10.4-10.4-15.6-15.6c-3-3-3-5.7,0-8.8
		c5.2-5.2,10.4-10.4,15.6-15.6c2.7-2.6,5.9-2.8,8.1-0.7c2.3,2.2,2.1,5.3-0.6,8c-2.1,2.2-4.2,4.4-6.3,6.5c-0.1,0.1-0.1,0.2-0.4,0.9
		h3.1c13.8,0,27.5,0,41.3,0c7.2,0,10.5-3.3,10.6-10.5c0-18.3,0-36.7,0-55c0-5.7,1.6-8.2,5.4-8.1c3.6,0,5.1,2.4,5.1,7.9
		C345,288.2,345,306.4,345,324.6z"/>
</g>
</svg>
