<?xml version="1.0" encoding="utf-8"?>
<!-- Generator: Adobe Illustrator 26.0.3, SVG Export Plug-In . SVG Version: 6.00 Build 0)  -->
<svg version="1.1" id="Calque_1" xmlns="http://www.w3.org/2000/svg" xmlns:xlink="http://www.w3.org/1999/xlink" x="0px" y="0px"
	 viewBox="0 0 409.9 410.1" style="enable-background:new 0 0 409.9 410.1;" xml:space="preserve">
<style type="text/css">
	.st0{fill:#0A9642;}
</style>
<g>
	<path class="st0" d="M409.2,42.2c0-16.8-7.3-29.6-22.5-37c-5.4-2.6-11.9-4-18-4.2c-16.6-0.5-33.3-0.2-49.9-0.2
		c-92.2,0-184.5,0-276.7,0C25,0.8,12.2,8.3,4.4,23.6c-1.8,3.6-2.8,7.7-4.1,11.5V329c2.4,4.7,4.1,9.8,7.2,13.9
		c5.4,7.1,13.4,9.6,22.2,9.6c2.3,0,4.5,0,7,0v41.1c-8.5,0-16.8,0.2-25.2-0.1c-5-0.2-8.8,1.2-11.3,5.7v10.4h403.3
		c0.8-0.6,1.7-1.2,2.5-1.9c2.6-2.3,3.7-5.1,2.5-8.6c-1.3-3.7-4.2-5.4-8-5.5c-7.8-0.1-15.7,0-23.6,0h-4.5v-40.9
		c3.5-0.2,6.9-0.2,10.3-0.5c15.2-1.3,25.6-12.3,26.2-27.5c0-0.8,0-1.6,0-2.4C409.2,229,409.3,135.6,409.2,42.2z M87.9,393.5H53.2
		v-71.4h34.7V393.5z M177.3,393.5h-34.6V233.7h34.6L177.3,393.5L177.3,393.5z M266.8,393.4h-34.7v-92.1h34.7V393.4z M393.3,320.4
		c0,12.4-3.8,16.2-16.2,16.1c-1.3,0-2.6,0-4.5,0V216.7c0-8.4-2.6-11.1-10.9-11.1c-15.2,0-30.3,0-45.5,0c-8.1,0-10.7,2.7-10.7,10.9
		c0,12.2-0.1,24.5,0,36.7c0,5.1,3.6,8.7,8,8.6s7.6-3.5,7.9-8.4c0.1-0.9,0-1.9,0-2.8v-28.8h34.9v171.6h-34.9v-82c0-1.1,0-2.1,0-3.2
		c-0.3-4.9-3.5-8.4-7.9-8.4c-4.3-0.1-7.7,3.4-8,8.2c-0.1,1.2,0,2.4,0,3.6v81.9H283v-97.2c0-8.7-2.5-11.2-11.2-11.2
		c-15.2,0-30.4,0-45.5,0c-7.6,0-10.4,2.8-10.4,10.4c0,31.1,0,62.3,0,93.4v4.7h-22.4V228.8c0-8.8-2.5-11.4-11.4-11.4
		c-14.9,0-29.8,0-44.7,0c-8.3,0-10.9,2.7-10.9,11.1c0,53.2,0,106.5,0,159.7v5.1h-22.4v-75.6c0-9.7-2.2-11.9-12.1-11.9
		c-9.8,0-19.7,0-29.5,0c-27.6-0.1-25.5-2.2-25.5,25.3v5.2c-4,0-7.6,0.3-11.1-0.1c-5.1-0.6-9-5.1-9.6-10.3c-0.1-1.3-0.1-2.7-0.1-4
		c0-81,0-162.1,0-243.1v-4.2h377L393.3,320.4L393.3,320.4z M393.2,58.1H16.4c0.3-8.8-1.6-17.7,1.7-26.2c3.5-8.7,10.3-13.6,19.7-14.9
		c1.7-0.2,3.4-0.2,5.2-0.2c107.9,0,215.8,0,323.7,0c10.6,0,19,3.7,23.9,13.4c1.5,3,2.3,6.6,2.5,9.9
		C393.5,45.9,393.2,51.8,393.2,58.1z"/>
	<path class="st0" d="M343.5,109.8c-13.8-2.2-27.4,6-31.7,19.1c-3,9.2-1.5,17.8,3.6,25.8c-0.3,0.5-0.5,0.9-0.7,1.2
		c-16.7,16.8-33.5,33.5-50.3,50.2c-0.8,0.8-3.1,1.1-4.3,0.6c-6.9-2.7-13.8-3-20.6-0.4c-2.5,1-4,0.5-5.9-1.4
		c-15.7-15.9-31.6-31.7-47.4-47.4c-1.8-1.8-3.8-3.3-5.5-4.8c0.6-1.5,0.9-2.2,1.2-3c5.4-12.7,1.6-26.5-9.5-34.8
		c-10-7.5-24.6-7.1-34.5,0.9c-10.6,8.5-13.9,22.4-8,34.8c1.1,2.3,0.6,3.5-1,5.1c-14.4,14.2-28.6,28.6-42.9,42.9
		c-0.7,0.6-1.4,1.2-2,1.7c-1.5-0.6-2.8-1.2-4.2-1.7c-10.9-3.4-20.9-1.5-29.2,6.4c-7.9,7.4-10.6,16.9-8.1,27.3
		c3.9,16.7,20.8,25.8,37.2,20.4c15.6-5.1,23.5-22.7,17-38.2c-0.9-2.1-0.7-3.2,0.9-4.8c14.6-14.4,29.1-28.9,43.5-43.5
		c1.7-1.7,3.1-1.9,5.3-1.1c7,2.6,14,2.3,21-0.5c1.2-0.5,3.4-0.1,4.3,0.8c17,16.8,33.9,33.8,50.9,50.7c1.7,1.7,1.4,2.8,0.7,4.8
		c-1.3,4.1-2.9,8.5-2.8,12.7c0.3,12.2,6.3,21.2,17.7,26.1c10.7,4.6,23.4,2,31.3-6.3c8.5-9.1,10.6-19.7,6-31.3
		c-0.8-2.1-0.6-3.2,0.9-4.8c16.8-16.7,33.5-33.5,50.3-50.1c1-1,3.2-1.3,4.8-1.3c4.2,0,8.5,1,12.6,0.5c13.6-1.8,24-14.4,23.9-28.2
		C367.6,124,357.3,112,343.5,109.8z M70,238.2c-7,0-12.7-5.7-12.7-12.6c0-7,6-12.9,13-12.8c7,0.2,12.5,5.8,12.4,12.9
		C82.7,232.7,77.1,238.2,70,238.2z M155.5,150.8c-6.9,0-12.7-5.8-12.7-12.7c0-7.1,5.9-12.9,13-12.8c7,0.1,12.5,5.8,12.4,12.9
		C168.1,145.2,162.4,150.9,155.5,150.8z M248.7,245.9c-6.9,0-12.7-5.8-12.8-12.7c0-7.1,5.9-13,13-12.8c6.9,0.1,12.6,5.9,12.5,12.9
		C261.4,240.2,255.7,245.9,248.7,245.9z M339.2,150.8c-7,0.2-13-5.7-13-12.8c0-6.9,5.7-12.6,12.7-12.7c7,0,12.7,5.6,12.8,12.6
		C351.8,144.8,346.1,150.7,339.2,150.8z"/>
	<path class="st0" d="M91.3,109.4c0,4.6-3.6,7.9-9.1,8c-6.1,0.1-12.2,0-18.4,0c-5.9,0-11.7,0-17.6,0c-5.5-0.1-9.1-3.3-9.2-7.9
		c0-4.6,3.6-8,9.1-8c12-0.1,23.9-0.1,35.9,0C87.7,101.5,91.3,104.7,91.3,109.4z"/>
	<path class="st0" d="M91.3,147.7c0,4.8-3.7,8-9.5,8c-11.7,0-23.4,0-35.1,0c-5.8,0-9.5-3.2-9.5-8s3.7-7.9,9.5-8s11.7,0,17.6,0
		s11.7,0,17.6,0C87.6,139.8,91.3,143,91.3,147.7z"/>
	<path class="st0" d="M121,109.3c0,4.3-3.5,8-7.7,8c-4.1,0.1-8-3.6-8-7.8c-0.1-4.2,3.6-8,7.8-8C117.3,101.4,120.9,105,121,109.3z"/>
	<path class="st0" d="M321.3,282.4c0,4.2-3.7,7.8-8,7.8s-7.9-3.7-7.9-7.9c0-4.2,3.7-7.8,8-7.8C317.7,274.6,321.4,278.2,321.3,282.4z
		"/>
	<path class="st0" d="M366,37.5c0,3.9-3,7.2-7.1,7.8c-1.3,0.2-2.7,0.1-4,0.1H180.5c-6.8,0-10.7-2.9-10.8-8c0-5.1,3.9-8,10.7-8
		c29.3,0,58.5,0,87.8,0c28.7,0,57.5,0,86.2,0c1.5,0,3-0.1,4.4,0.1C363.1,30.3,366,33.6,366,37.5z"/>
	<path class="st0" d="M59.4,37.5c0,4.1-3.8,7.9-7.9,7.9s-7.9-3.8-7.9-7.9s3.8-7.9,7.9-7.9S59.4,33.4,59.4,37.5z"/>
	<path class="st0" d="M91.3,37.4c0.1,4.1-3.7,8-7.8,8c-4.1,0-7.9-3.7-8-7.8c0-4.1,3.7-7.9,7.8-8C87.4,29.5,91.3,33.3,91.3,37.4z"/>
	<path class="st0" d="M123.2,37.8c-0.2,4.2-4.1,7.8-8.2,7.6c-4.2-0.2-7.8-4.1-7.6-8.2c0.2-4.2,4.1-7.8,8.2-7.6
		C119.8,29.8,123.4,33.7,123.2,37.8z"/>
</g>
</svg>
