<?xml version="1.0" encoding="utf-8"?>
<!-- Generator: Adobe Illustrator 26.0.3, SVG Export Plug-In . SVG Version: 6.00 Build 0)  -->
<svg version="1.1" id="Calque_1" xmlns="http://www.w3.org/2000/svg" xmlns:xlink="http://www.w3.org/1999/xlink" x="0px" y="0px"
	 viewBox="0 0 384 384.1" style="enable-background:new 0 0 384 384.1;" xml:space="preserve">
<style type="text/css">
	.st0{fill:#0A9642;}
</style>
<g>
	<path class="st0" d="M277.3,75.6c2.1,2.6,1.4,5.5-2,8.3c-9.8,8-19.5,15.9-29.3,23.8c-4.1,3.3-6.7,2.9-9.6-1.3
		c-3.4-4.9-6.8-9.9-10-14.9c-2.6-4-0.5-8.4,4.3-8.5c1.8-0.1,3.3,1.1,4.4,2.8c1.9,2.9,4.1,5.7,5.8,8.7c1.4,2.4,2.4,1.9,4.1,0.5
		c7.9-6.5,15.8-12.9,23.8-19.3C272.2,72.9,275.2,72.9,277.3,75.6z"/>
	<path class="st0" d="M253.1,41.1c-27,0-48.8,22-48.8,49c0,26.9,22.2,49,49.1,48.8c26.9-0.2,48.9-22.3,48.8-49.1
		C302.1,62.9,280.1,41.1,253.1,41.1z M253.4,128.5c-21,0.2-38.5-17.2-38.6-38.4c0-21.3,17.2-38.5,38.5-38.5
		c21.2,0,38.6,17.4,38.5,38.5C291.6,111.1,274.5,128.3,253.4,128.5z"/>
	<path class="st0" d="M313.1,151.2c-1.3-2.3-1-3.4,0.7-5.3c14.5-15.8,21.8-34.6,21.9-56.6c-0.1-2.5-0.2-5.6-0.5-8.7
		C329.7,34.3,287.1,1.3,241,8.6c-32,5.1-54.5,23.5-65.3,54c-10.9,30.6-4.4,58.6,16.9,83.1c1.8,2,2.1,3.3,0.7,5.6
		c-6.5,11-12.9,22.2-19.3,33.2c-1.4,2.4-2.4,4.7-0.6,7.3c1.8,2.6,4.5,2.3,7.1,1.8c6.3-1.3,12.7-2.5,19-3.9c2-0.4,2.6,0.2,3.1,1.9
		c2,6,4.1,12,6,18.1c0.9,2.8,2,5.3,5.2,5.6c3.3,0.3,4.8-2,6.2-4.5c6.9-12,13.9-23.9,20.7-35.9c1.2-2.1,2.3-3.1,4.9-2.8
		c5.1,0.6,10.2,0.6,15.3,0c2.4-0.3,3.5,0.5,4.7,2.5c6.9,12.1,13.9,24.1,20.8,36.2c1.4,2.5,2.9,4.8,6.2,4.4c3.3-0.4,4.3-3,5.2-5.7
		c2-5.9,4.1-11.8,5.9-17.7c0.7-2.2,1.6-2.5,3.7-2c6.1,1.4,12.2,2.5,18.3,3.8c2.6,0.5,5.3,1,7.2-1.5c2-2.6,1-5.1-0.5-7.6
		C325.9,173.3,319.6,162.2,313.1,151.2z M230.6,171.5c-4.9,8.4-9.7,16.8-14.9,25.8c-1.7-5.2-3.2-9.6-4.7-14.1
		c-1.6-4.8-3.5-5.9-8.4-4.9c-4.6,0.9-9.2,1.9-14.5,3c5-8.6,9.6-16.7,14.2-24.7c0.7-1.3,1.4-0.9,2.3-0.3c7.6,5.7,16.1,9.9,25.2,12.6
		C231.7,169.5,231.3,170.3,230.6,171.5z M253.6,161.9c-39.7,0.2-72.2-32-72.4-71.6C181.1,50.6,213.4,18.1,253,18
		c39.7-0.1,72,32.1,72.2,71.9C325.3,129.4,293.2,161.7,253.6,161.9z M304.1,178.4c-5-1-6.8,0-8.5,4.8c-1.5,4.5-3,8.9-4.8,14.1
		c-5.5-9.5-10.6-18.4-15.9-27.6c5.6-2,11-3.6,15.9-6.4c2.9-1.7,5.8-3.3,8.7-5.1c4.1-2.7,4.1-2.7,6.6,1.7c4,7,8,14,12.4,21.5
		C313.3,180.3,308.7,179.4,304.1,178.4z"/>
	<path class="st0" d="M350.6,234.2c-8.9-0.8-17.7,0.3-26.2,2.7c-23,6.6-45.9,13.3-68.8,20c-1.8,0.5-2.8,0.6-3.9-1.3
		c-4.1-7.1-10.4-11.2-18.2-13.2c-11.4-3-22.8-6.3-34.3-9c-8.1-1.9-15.4-5.3-22.4-9.7c-18.5-11.8-38-13.2-58-3.8
		c-15.8,7.3-31.5,14.9-47.2,22.3c-5,2.4-5,2.4-7.1-2.5c-4.5-10.4-12.9-13.9-23.4-9.5c-7.6,3.1-15.2,6.2-22.7,9.4
		c-10.7,4.4-14.2,13-9.8,23.6c7.4,17.8,14.8,35.6,22.2,53.4c6.9,16.6,13.8,33.3,20.8,49.9c3.7,8.7,12,12.9,20.3,9.9
		c9.7-3.6,19.2-7.6,28.6-11.9c7.2-3.3,10.3-11.4,8-19c-0.7-2.2-1.6-4.5-2.6-6.6c-0.8-1.7-0.4-2.4,1.2-3.1c4.6-2.1,9.2-4.3,13.8-6.7
		c7-3.7,14.2-4,21.7-1.8c13.9,4.2,27.9,8.2,41.9,12.2c7.5,2.1,14.9,5,19.7,4.8c13.6-0.3,23.5-2.8,33-6.4
		c38.8-14.8,77.5-29.7,116.2-44.7c10.8-4.2,17.8-12.2,21.3-23.1C380.9,251.6,370.2,235.9,350.6,234.2z M98.9,349.5
		c-0.2,3.3-1.5,5.1-3.9,6.1c-8.5,3.5-17,7.1-25.5,10.5c-4,1.6-6.5,0.1-8.5-4.7c-9.1-21.8-18.1-43.6-27.2-65.4
		c-5.1-12.3-10.2-24.5-15.3-36.8c-2.2-5.3-1.2-7.7,4.1-10c7.6-3.1,15.1-6.3,22.7-9.4c5.2-2.1,7.7-1.2,9.8,3.8
		c14.3,34.3,28.6,68.6,42.9,102.8C98.3,347.7,99,348.8,98.9,349.5z M365.6,263.9c-2.1,9.5-7.5,16.4-16.8,19.9
		c-39.1,15-78.1,30.1-117.3,44.9c-11.2,4.2-22.9,7-35.1,3.4c-13.1-3.9-26.2-7.7-39.4-11.5c-4.1-1.2-8.2-2.2-12.2-3.5
		c-9.9-3.1-19.4-2.1-28.6,2.5c-4.2,2.1-8.5,4.1-12.7,6.2c-1.7,0.9-2.5,1.2-3.5-1.1c-9.4-22.8-18.8-45.5-28.4-68.1
		c-0.7-1.6-0.9-2.5,1.1-3.4c16.9-7.9,33.6-16.1,50.6-23.9c6.8-3.1,14-5.2,21.2-4.9c10-0.1,18.8,2.8,26.4,8.1
		c9.2,6.4,19.5,9.5,30.1,12.2c10.2,2.6,20.4,5.4,30.6,8.2c10.1,2.8,15.5,12.1,12.9,21.9c-2.5,9.5-12.3,14.9-22.3,12.2
		c-20.5-5.5-41.1-11-61.6-16.5c-0.8-0.2-1.7-0.5-2.5-0.6c-3.3-0.7-6,0.7-6.6,3.8c-0.7,3.2,0.8,5.4,3.9,6.2c7.2,2,14.4,4,21.6,5.9
		c13.7,3.7,27.5,7,41.1,11c20.2,6,37.8-8.5,37.7-27.1c0-1.5,0.4-2.2,1.9-2.6c24.8-7,49.2-15,74.2-21.2c7.3-1.8,14.8-2.3,22.2-0.4
		C363.2,247.8,367.6,254.9,365.6,263.9z"/>
	<path class="st0" d="M350.6,234.2c-8.9-0.8-17.7,0.3-26.2,2.7c-23,6.6-45.9,13.3-68.8,20c-1.8,0.5-2.8,0.6-3.9-1.3
		c-4.1-7.1-10.4-11.2-18.2-13.2c-11.4-3-22.8-6.3-34.3-9c-8.1-1.9-15.4-5.3-22.4-9.7c-18.5-11.8-38-13.2-58-3.8
		c-15.8,7.3-31.5,14.9-47.2,22.3c-5,2.4-5,2.4-7.1-2.5c-4.5-10.4-12.9-13.9-23.4-9.5c-7.6,3.1-15.2,6.2-22.7,9.4
		c-10.7,4.4-14.2,13-9.8,23.6c7.4,17.8,14.8,35.6,22.2,53.4c6.9,16.6,13.8,33.3,20.8,49.9c3.7,8.7,12,12.9,20.3,9.9
		c9.7-3.6,19.2-7.6,28.6-11.9c7.2-3.3,10.3-11.4,8-19c-0.7-2.2-1.6-4.5-2.6-6.6c-0.8-1.7-0.4-2.4,1.2-3.1c4.6-2.1,9.2-4.3,13.8-6.7
		c7-3.7,14.2-4,21.7-1.8c13.9,4.2,27.9,8.2,41.9,12.2c7.5,2.1,14.9,5,19.7,4.8c13.6-0.3,23.5-2.8,33-6.4
		c38.8-14.8,77.5-29.7,116.2-44.7c10.8-4.2,17.8-12.2,21.3-23.1C380.9,251.6,370.2,235.9,350.6,234.2z M98.9,349.5
		c-0.2,3.3-1.5,5.1-3.9,6.1c-8.5,3.5-17,7.1-25.5,10.5c-4,1.6-6.5,0.1-8.5-4.7c-9.1-21.8-18.1-43.6-27.2-65.4
		c-5.1-12.3-10.2-24.5-15.3-36.8c-2.2-5.3-1.2-7.7,4.1-10c7.6-3.1,15.1-6.3,22.7-9.4c5.2-2.1,7.7-1.2,9.8,3.8
		c14.3,34.3,28.6,68.6,42.9,102.8C98.3,347.7,99,348.8,98.9,349.5z M365.6,263.9c-2.1,9.5-7.5,16.4-16.8,19.9
		c-39.1,15-78.1,30.1-117.3,44.9c-11.2,4.2-22.9,7-35.1,3.4c-13.1-3.9-26.2-7.7-39.4-11.5c-4.1-1.2-8.2-2.2-12.2-3.5
		c-9.9-3.1-19.4-2.1-28.6,2.5c-4.2,2.1-8.5,4.1-12.7,6.2c-1.7,0.9-2.5,1.2-3.5-1.1c-9.4-22.8-18.8-45.5-28.4-68.1
		c-0.7-1.6-0.9-2.5,1.1-3.4c16.9-7.9,33.6-16.1,50.6-23.9c6.8-3.1,14-5.2,21.2-4.9c10-0.1,18.8,2.8,26.4,8.1
		c9.2,6.4,19.5,9.5,30.1,12.2c10.2,2.6,20.4,5.4,30.6,8.2c10.1,2.8,15.5,12.1,12.9,21.9c-2.5,9.5-12.3,14.9-22.3,12.2
		c-20.5-5.5-41.1-11-61.6-16.5c-0.8-0.2-1.7-0.5-2.5-0.6c-3.3-0.7-6,0.7-6.6,3.8c-0.7,3.2,0.8,5.4,3.9,6.2c7.2,2,14.4,4,21.6,5.9
		c13.7,3.7,27.5,7,41.1,11c20.2,6,37.8-8.5,37.7-27.1c0-1.5,0.4-2.2,1.9-2.6c24.8-7,49.2-15,74.2-21.2c7.3-1.8,14.8-2.3,22.2-0.4
		C363.2,247.8,367.6,254.9,365.6,263.9z"/>
	<path class="st0" d="M277.3,75.6c2.1,2.6,1.4,5.5-2,8.3c-9.8,8-19.5,15.9-29.3,23.8c-4.1,3.3-6.7,2.9-9.6-1.3
		c-3.4-4.9-6.8-9.9-10-14.9c-2.6-4-0.5-8.4,4.3-8.5c1.8-0.1,3.3,1.1,4.4,2.8c1.9,2.9,4.1,5.7,5.8,8.7c1.4,2.4,2.4,1.9,4.1,0.5
		c7.9-6.5,15.8-12.9,23.8-19.3C272.2,72.9,275.2,72.9,277.3,75.6z"/>
	<path class="st0" d="M253.1,41.1c-27,0-48.8,22-48.8,49c0,26.9,22.2,49,49.1,48.8c26.9-0.2,48.9-22.3,48.8-49.1
		C302.1,62.9,280.1,41.1,253.1,41.1z M253.4,128.5c-21,0.2-38.5-17.2-38.6-38.4c0-21.3,17.2-38.5,38.5-38.5
		c21.2,0,38.6,17.4,38.5,38.5C291.6,111.1,274.5,128.3,253.4,128.5z"/>
	<path class="st0" d="M313.1,151.2c-1.3-2.3-1-3.4,0.7-5.3c14.5-15.8,21.8-34.6,21.9-56.6c-0.1-2.5-0.2-5.6-0.5-8.7
		C329.7,34.3,287.1,1.3,241,8.6c-32,5.1-54.5,23.5-65.3,54c-10.9,30.6-4.4,58.6,16.9,83.1c1.8,2,2.1,3.3,0.7,5.6
		c-6.5,11-12.9,22.2-19.3,33.2c-1.4,2.4-2.4,4.7-0.6,7.3c1.8,2.6,4.5,2.3,7.1,1.8c6.3-1.3,12.7-2.5,19-3.9c2-0.4,2.6,0.2,3.1,1.9
		c2,6,4.1,12,6,18.1c0.9,2.8,2,5.3,5.2,5.6c3.3,0.3,4.8-2,6.2-4.5c6.9-12,13.9-23.9,20.7-35.9c1.2-2.1,2.3-3.1,4.9-2.8
		c5.1,0.6,10.2,0.6,15.3,0c2.4-0.3,3.5,0.5,4.7,2.5c6.9,12.1,13.9,24.1,20.8,36.2c1.4,2.5,2.9,4.8,6.2,4.4c3.3-0.4,4.3-3,5.2-5.7
		c2-5.9,4.1-11.8,5.9-17.7c0.7-2.2,1.6-2.5,3.7-2c6.1,1.4,12.2,2.5,18.3,3.8c2.6,0.5,5.3,1,7.2-1.5c2-2.6,1-5.1-0.5-7.6
		C325.9,173.3,319.6,162.2,313.1,151.2z M230.6,171.5c-4.9,8.4-9.7,16.8-14.9,25.8c-1.7-5.2-3.2-9.6-4.7-14.1
		c-1.6-4.8-3.5-5.9-8.4-4.9c-4.6,0.9-9.2,1.9-14.5,3c5-8.6,9.6-16.7,14.2-24.7c0.7-1.3,1.4-0.9,2.3-0.3c7.6,5.7,16.1,9.9,25.2,12.6
		C231.7,169.5,231.3,170.3,230.6,171.5z M253.6,161.9c-39.7,0.2-72.2-32-72.4-71.6C181.1,50.6,213.4,18.1,253,18
		c39.7-0.1,72,32.1,72.2,71.9C325.3,129.4,293.2,161.7,253.6,161.9z M304.1,178.4c-5-1-6.8,0-8.5,4.8c-1.5,4.5-3,8.9-4.8,14.1
		c-5.5-9.5-10.6-18.4-15.9-27.6c5.6-2,11-3.6,15.9-6.4c2.9-1.7,5.8-3.3,8.7-5.1c4.1-2.7,4.1-2.7,6.6,1.7c4,7,8,14,12.4,21.5
		C313.3,180.3,308.7,179.4,304.1,178.4z"/>
	<path class="st0" d="M277.3,75.6c2.1,2.6,1.4,5.5-2,8.3c-9.8,8-19.5,15.9-29.3,23.8c-4.1,3.3-6.7,2.9-9.6-1.3
		c-3.4-4.9-6.8-9.9-10-14.9c-2.6-4-0.5-8.4,4.3-8.5c1.8-0.1,3.3,1.1,4.4,2.8c1.9,2.9,4.1,5.7,5.8,8.7c1.4,2.4,2.4,1.9,4.1,0.5
		c7.9-6.5,15.8-12.9,23.8-19.3C272.2,72.9,275.2,72.9,277.3,75.6z"/>
	<path class="st0" d="M253.1,41.1c-27,0-48.8,22-48.8,49c0,26.9,22.2,49,49.1,48.8c26.9-0.2,48.9-22.3,48.8-49.1
		C302.1,62.9,280.1,41.1,253.1,41.1z M253.4,128.5c-21,0.2-38.5-17.2-38.6-38.4c0-21.3,17.2-38.5,38.5-38.5
		c21.2,0,38.6,17.4,38.5,38.5C291.6,111.1,274.5,128.3,253.4,128.5z"/>
	<path class="st0" d="M277.3,75.6c2.1,2.6,1.4,5.5-2,8.3c-9.8,8-19.5,15.9-29.3,23.8c-4.1,3.3-6.7,2.9-9.6-1.3
		c-3.4-4.9-6.8-9.9-10-14.9c-2.6-4-0.5-8.4,4.3-8.5c1.8-0.1,3.3,1.1,4.4,2.8c1.9,2.9,4.1,5.7,5.8,8.7c1.4,2.4,2.4,1.9,4.1,0.5
		c7.9-6.5,15.8-12.9,23.8-19.3C272.2,72.9,275.2,72.9,277.3,75.6z"/>
	<path class="st0" d="M253.1,41.1c-27,0-48.8,22-48.8,49c0,26.9,22.2,49,49.1,48.8c26.9-0.2,48.9-22.3,48.8-49.1
		C302.1,62.9,280.1,41.1,253.1,41.1z M253.4,128.5c-21,0.2-38.5-17.2-38.6-38.4c0-21.3,17.2-38.5,38.5-38.5
		c21.2,0,38.6,17.4,38.5,38.5C291.6,111.1,274.5,128.3,253.4,128.5z"/>
	<path class="st0" d="M275.2,83.9c-9.8,8-19.5,15.9-29.3,23.8c-4.1,3.3-6.7,2.9-9.6-1.3c-3.4-4.9-6.8-9.9-10-14.9
		c-2.6-4-0.5-8.4,4.3-8.5c1.8-0.1,3.3,1.1,4.4,2.8c1.9,2.9,4.1,5.7,5.8,8.7c1.4,2.4,2.4,1.9,4.1,0.5c7.9-6.5,15.8-12.9,23.8-19.3
		c3.4-2.8,6.4-2.8,8.5-0.1C279.3,78.2,278.7,81.1,275.2,83.9z"/>
	<path class="st0" d="M275.2,83.9c-9.8,8-19.5,15.9-29.3,23.8c-4.1,3.3-6.7,2.9-9.6-1.3c-3.4-4.9-6.8-9.9-10-14.9
		c-2.6-4-0.5-8.4,4.3-8.5c1.8-0.1,3.3,1.1,4.4,2.8c1.9,2.9,4.1,5.7,5.8,8.7c1.4,2.4,2.4,1.9,4.1,0.5c7.9-6.5,15.8-12.9,23.8-19.3
		c3.4-2.8,6.4-2.8,8.5-0.1C279.3,78.2,278.7,81.1,275.2,83.9z"/>
</g>
</svg>
