<?xml version="1.0" encoding="utf-8"?>
<!-- Generator: Adobe Illustrator 26.0.3, SVG Export Plug-In . SVG Version: 6.00 Build 0)  -->
<svg version="1.1" id="Calque_1" xmlns="http://www.w3.org/2000/svg" xmlns:xlink="http://www.w3.org/1999/xlink" x="0px" y="0px"
	 viewBox="0 0 384.7 384.1" style="enable-background:new 0 0 384.7 384.1;" xml:space="preserve">
<style type="text/css">
	.st0{fill:#0A9642;stroke:#0A9642;stroke-width:2;stroke-miterlimit:10;}
</style>
<g>
	<path class="st0" d="M210.9,336.1c-1.2-0.2-2.5-0.1-3.7-0.1c-54,0-108,0-162,0c-13.2,0-20.4-7.1-20.4-20.2
		c0-59.9,0-119.7-0.1-179.6c0-3.1,0.7-3.8,3.8-3.8c54.6,0.1,109.2,0.1,163.8,0.1c54.8,0,109.5,0,164.2-0.1c2.8,0,3.5,0.6,3.5,3.4
		c-0.1,30.1-0.1,60.1-0.1,90.2c0,2.9-0.1,5.7,0.1,8.6c0.2,3.3,2.8,5.6,5.9,5.6s5.6-2.3,6-5.5c0.1-0.7,0-1.5,0-2.2
		c0-50.9,0-101.8,0-152.6c0-18.2-12.8-31-31.1-31.1c-8.6,0-17.2-0.1-25.8,0.1c-2.5,0-3.2-0.7-3-3.1c0.2-3.2,0.1-6.5,0-9.7
		C311.6,24,302.1,14,290.2,13c-12-1-22.8,6.9-25.4,18.6c-1.1,4.9-0.5,9.9-0.6,14.9c0,1.7-0.3,2.4-2.2,2.4c-14.5-0.1-28.9-0.1-43.4,0
		c-2.2,0-2.4-0.9-2.4-2.6c0.1-3.5,0.1-7,0-10.5c-0.4-11.9-9.9-21.8-21.7-22.8c-11.9-1.1-22.8,6.9-25.5,18.5
		c-1.1,4.9-0.5,9.9-0.6,14.9c0,1.5,0,2.5-2.1,2.5c-14.6-0.1-29.2-0.1-43.8,0c-1.6,0-2.1-0.5-2.1-2.1c0.1-3.5,0.1-7,0-10.5
		C120.2,24,110.8,14,98.9,12.9c-12-1.1-23,6.9-25.6,18.8c-1,4.3-0.7,8.7-0.5,13c0.2,3.6-1.1,4.2-4.3,4.1c-7.7-0.2-15.5-0.1-23.2-0.1
		c-20,0-32.5,12.4-32.5,32.3v234.6c0,20,12.4,32.4,32.4,32.4c54.1,0,108.2,0,162.4,0c1.1,0,2.3,0.1,3.4,0c3.2-0.4,5.6-3,5.4-6.1
		C216,338.6,214.1,336.6,210.9,336.1z M276.2,37.2c0.1-7.2,5.3-12.5,12.1-12.4c6.6,0.1,11.7,5.3,11.8,12.4c0.1,11.7,0.1,23.4,0,35.1
		c0,7.2-5.3,12.5-12.1,12.4c-6.6-0.1-11.7-5.4-11.8-12.4c-0.1-5.8,0-11.7,0-17.5S276.1,43,276.2,37.2z M180.4,37.2
		c0-7.2,5.3-12.5,12.1-12.4c6.6,0.1,11.7,5.3,11.8,12.3c0.1,5.9,0,11.7,0,17.5s0.1,11.7,0,17.5c-0.1,7.2-5.3,12.5-12.1,12.4
		c-6.6-0.1-11.8-5.4-11.8-12.4C180.3,60.6,180.3,48.9,180.4,37.2z M84.6,37.1c0-7,5.1-12.3,11.8-12.4c6.8-0.1,12,5.2,12.1,12.4
		c0.1,6,0,11.9,0,17.9c0,5.7,0.1,11.5,0,17.2c-0.1,7.2-5.4,12.5-12.2,12.4c-6.6-0.1-11.7-5.4-11.8-12.4
		C84.6,60.5,84.6,48.8,84.6,37.1z M24.7,116.8c0.2-12.2,0.1-24.4,0.1-36.6c0-12.1,7.4-19.5,19.6-19.5c8.5,0,17,0.1,25.4-0.1
		c2.3,0,2.9,0.6,2.9,2.9c0,4.7-0.5,9.5,0.5,14.2c2.6,11.9,13.5,20,25.5,18.9s21.4-11.1,21.7-23.2c0.1-3.4,0.1-6.7,0-10.1
		c-0.1-1.8,0.2-2.6,2.3-2.6c14.5,0.1,28.9,0.1,43.4,0c1.9,0,2.2,0.7,2.2,2.4c0.1,5-0.5,10,0.6,14.9c2.6,11.7,13.5,19.6,25.4,18.6
		c12-1,21.5-11,21.8-23.1c0.1-3.5,0.1-7,0-10.5c-0.1-1.7,0.4-2.3,2.2-2.3c14.5,0.1,28.9,0.1,43.4,0c2.2,0,2.3,0.9,2.3,2.6
		c0.1,4.8-0.5,9.7,0.6,14.5c2.7,11.8,13.7,19.9,25.7,18.7c12-1.2,21.3-11.2,21.6-23.3c0.1-3.4,0.2-6.7,0-10.1
		c-0.1-2,0.6-2.5,2.5-2.5c9.2,0.1,18.5,0,27.7,0.1c9.8,0.1,17.6,7.8,17.7,17.6c0.2,13.2-0.1,26.4,0.1,39.7c0.1,3.2-1.7,2.6-3.5,2.6
		c-54.7,0-109.5,0-164.2,0c-54.6,0-109.2,0-163.8,0.1C25.4,120.6,24.6,119.9,24.7,116.8z"/>
	<path class="st0" d="M294.4,216.3c-43,0-78.2,34.9-78.1,77.4c0.1,43.7,34.8,78.2,78.5,78.2c42.6-0.1,77.3-35.4,77.2-78.4
		C371.7,251.2,336.8,216.3,294.4,216.3z M294.3,360c-36.4,0-66-29.5-66-65.7c0.1-36.8,29.5-66,66.4-66c36,0,65.4,29.9,65.3,66.4
		C359.8,330.5,330.1,360,294.3,360z"/>
	<path class="st0" d="M72.8,204.3c3.8,0.1,7.7,0,11.6,0c4.1,0,8.2,0.1,12.3,0c6.7-0.2,11.7-5.2,11.8-11.9c0.1-6.1,0.1-12.2,0-18.3
		c-0.2-6.5-5.2-11.5-11.7-11.6c-8.1-0.1-16.2-0.1-24.3,0c-6.7,0.1-11.7,5.1-11.8,11.9c-0.1,6-0.1,12,0,17.9
		C60.8,199.2,65.8,204.2,72.8,204.3z M72.6,176.6c-0.1-1.9,0.6-2.3,2.3-2.2c6.5,0.1,13,0.1,19.4,0c1.9,0,2.3,0.6,2.2,2.3
		c-0.1,4.5-0.1,9,0,13.5c0,1.9-0.6,2.3-2.3,2.2c-3.2-0.1-6.5,0-9.7,0s-6.5-0.1-9.7,0c-1.9,0.1-2.3-0.6-2.2-2.3
		C72.7,185.6,72.7,181.1,72.6,176.6z"/>
	<path class="st0" d="M144.7,204.3c3.9,0.1,7.7,0,11.6,0c3.8,0,7.7,0,11.6,0c7.4-0.1,12.4-5,12.5-12.4c0.1-5.7,0.1-11.4,0-17.2
		c-0.1-7.2-5.1-12.3-12.2-12.3c-7.8-0.1-15.7-0.1-23.5,0c-7,0.1-12,5-12.2,12c-0.1,6-0.1,12,0,17.9
		C132.6,199.2,137.7,204.2,144.7,204.3z M144.4,176.7c0-1.8,0.5-2.4,2.3-2.3c3.2,0.1,6.5,0,9.7,0v0.2c3.8,0,9-1.5,11.2,0.4
		c2.5,2.2,0.7,7.5,0.8,11.4c0.1,6,0,6-6,6c-5.2,0-10.5-0.1-15.7,0c-1.8,0-2.3-0.5-2.3-2.3C144.5,185.6,144.5,181.2,144.4,176.7z"/>
	<path class="st0" d="M252.2,192.6c0.1-6.2,0.2-12.4,0-18.7s-5.2-11.3-11.5-11.5c-8.2-0.2-16.4-0.1-24.6,0
		c-6.5,0.1-11.5,5.1-11.7,11.7c-0.1,6.1-0.1,12.2,0,18.3c0.1,6.7,5.2,11.7,11.9,11.9c4,0.1,8,0,11.9,0c4.1,0,8.2,0.1,12.3,0
		C247,204.1,252,199.1,252.2,192.6z M240.3,190.1c0,1.8-0.5,2.4-2.3,2.3c-3.2-0.1-6.5,0-10.4,0c-3.3-0.3-8.5,1.7-10.7-0.8
		c-1.9-2.2-0.5-7.3-0.6-11.2c0-6,0-6,6-6c5.2,0,10.5,0.1,15.7,0c1.8,0,2.3,0.5,2.3,2.3C240.2,181.1,240.2,185.6,240.3,190.1z"/>
	<path class="st0" d="M311.8,162.5c-7.8-0.1-15.7-0.1-23.5,0c-7,0.1-12,5.1-12.1,12c-0.1,6-0.1,11.9,0,17.9
		c0.1,6.7,5.1,11.8,11.8,11.9c4,0.1,8,0,11.9,0c4,0,8,0.1,11.9,0c7-0.1,12-5.1,12.1-12c0.1-5.8,0.1-11.7,0-17.5
		C323.9,167.6,318.9,162.5,311.8,162.5z M312.1,190.1c0,1.7-0.4,2.4-2.2,2.3c-3.4-0.1-6.7,0-10.7,0c-3.2-0.3-8.3,1.7-10.4-0.7
		c-1.9-2.1-0.5-7.1-0.6-10.8c0-6.4,0-6.4,6.3-6.4c5.1,0,10.2,0.1,15.3,0c1.7,0,2.4,0.4,2.3,2.2C312,181.1,312,185.6,312.1,190.1z"/>
	<path class="st0" d="M108.5,227.8c-0.2-6.3-5.2-11.3-11.5-11.5c-8.2-0.2-16.4-0.2-24.6,0c-6.5,0.1-11.5,5.1-11.7,11.7
		c-0.1,6.1-0.1,12.2,0,18.3c0.1,6.7,5.2,11.7,11.9,11.9c4,0.1,8,0,11.9,0c4.1,0,8.2,0.1,12.3,0c6.5-0.2,11.5-5.2,11.7-11.7
		C108.6,240.3,108.7,234,108.5,227.8z M96.6,240.2c0,6,0,6-6,6c-5.2,0-10.5-0.1-15.7,0c-1.8,0-2.3-0.5-2.3-2.3c0.1-4.5,0.1-9,0-13.5
		c0-1.8,0.5-2.4,2.3-2.3c3.2,0.1,6.5,0,10.4,0c3.2,0.3,8.5-1.7,10.7,0.8C97.9,231.2,96.6,236.4,96.6,240.2z"/>
	<path class="st0" d="M180.3,227.8c-0.2-6.3-5.2-11.3-11.5-11.5c-8.2-0.2-16.4-0.2-24.6,0c-6.5,0.1-11.5,5.1-11.7,11.7
		c-0.1,6.1-0.1,12.2,0,18.3c0.1,6.7,5.2,11.7,11.9,11.9c4,0.1,8,0,11.9,0c4.1,0,8.2,0.1,12.3,0c6.5-0.2,11.5-5.2,11.7-11.7
		C180.5,240.3,180.5,234,180.3,227.8z M166.1,246.3c-3.2-0.1-6.5,0-9.7,0c-3.1,0-6.2-0.1-9.4,0c-1.8,0-2.7-0.2-2.6-2.4
		c0.2-4.5,0.2-9,0-13.5c-0.1-1.9,0.7-2.2,2.4-2.2c6.5,0.1,13,0.1,19.4,0c1.9,0,2.2,0.7,2.2,2.4c-0.1,4.5-0.1,9,0,13.5
		C168.5,246,167.8,246.3,166.1,246.3z"/>
	<path class="st0" d="M96.3,270.2c-7.8-0.1-15.7-0.1-23.5,0c-7,0.1-12,5.1-12.1,12c-0.1,6-0.1,11.9,0,17.9
		c0.1,6.7,5.1,11.7,11.8,11.9c4,0.1,8,0,11.9,0s8,0.1,12,0c6.9-0.1,12-5.1,12.1-12c0.1-5.8,0.1-11.7,0-17.5
		C108.4,275.3,103.4,270.3,96.3,270.2z M96.6,297.9c0,1.8-0.5,2.4-2.3,2.3c-3.2-0.1-6.5,0-9.7,0V300c-3.8,0-9,1.5-11.2-0.4
		c-2.5-2.2-0.7-7.5-0.8-11.4c-0.1-6,0-6,6-6c5.2,0,10.5,0.1,15.7,0c1.8,0,2.3,0.5,2.3,2.3C96.5,288.9,96.5,293.4,96.6,297.9z"/>
	<path class="st0" d="M168.3,270.2c-4-0.1-8,0-12,0s-8-0.1-12,0c-6.8,0.2-11.8,5.1-11.9,11.9c-0.1,6-0.1,11.9,0,17.9
		c0.1,6.9,5.1,12,12.1,12.1c8,0.1,15.9,0.1,23.9,0c6.7-0.1,11.8-5.1,11.9-11.8c0.1-6,0.1-11.9,0-17.9
		C180.2,275.4,175.2,270.4,168.3,270.2z M165.5,300.2c-3.1-0.2-6.2,0-10,0c-3.2-0.3-8.3,1.7-10.4-0.7c-1.9-2-0.6-7.1-0.6-10.8
		c0-6.5,0-6.5,6.3-6.5c5,0,10,0.1,15,0c2-0.1,2.9,0.3,2.8,2.6c-0.2,4.2-0.2,8.5,0,12.7C168.6,299.9,167.6,300.3,165.5,300.2z"/>
	<path class="st0" d="M219,228.2c7,0.1,14,0.1,21,0c3.8-0.1,6.3-2.6,6.3-6s-2.5-5.8-6.3-5.9c-4-0.1-8,0-12,0s-8-0.1-12,0
		c-6.4,0.2-11.4,5.1-11.5,11.4c-0.2,6.4-0.2,12.7,0,19.1c0.2,6.2,5.8,11.5,11.7,11.3c3-0.1,5-1.5,5.9-4.3c0.9-2.7,0.1-5.6-2.3-6.4
		c-3.7-1.3-3.4-3.7-3.4-6.5c0.1-3.4,0.2-6.7,0-10.1C216.1,228.7,216.9,228.2,219,228.2z"/>
	<path class="st0" d="M331,267.7c-1.6,0.5-2.7,1.7-3.9,2.8c-14.3,14.3-28.6,28.5-42.7,42.9c-1.9,1.9-2.8,1.8-4.6,0
		c-5.9-6.1-11.9-12-17.9-18c-3.2-3.2-6.5-3.5-9.2-0.9s-2.6,6,0.6,9.2c8,8,16,16,24,24c1.4,1.4,2.9,2.3,4.8,2.3c2.5,0,4-1.4,5.5-2.9
		c16.1-16.1,32.2-32.2,48.3-48.4c1.1-1,2-2.1,2.6-3.6c0.8-2.3,0.2-4.2-1.4-5.8C335.5,267.6,333.5,266.9,331,267.7z"/>
</g>
</svg>
