<?xml version="1.0" encoding="utf-8"?>
<!-- Generator: Adobe Illustrator 26.0.3, SVG Export Plug-In . SVG Version: 6.00 Build 0)  -->
<svg version="1.1" id="Calque_1" xmlns="http://www.w3.org/2000/svg" xmlns:xlink="http://www.w3.org/1999/xlink" x="0px" y="0px"
	 viewBox="0 0 400 400" style="enable-background:new 0 0 400 400;" xml:space="preserve">
<style type="text/css">
	.st0{fill:#FFFFFF;}
</style>
<g>
	<path class="st0" d="M221.7,311.1c-0.3-1.6-1.1-2.9-2.3-3.7c-1.6-1.1-3.7-1.4-6-0.9l0,0c-3.7,0.8-5.9,3.5-5.9,7.3
		c0,1.3,0.2,2.5,0.4,3.7c1.3,5.8,2.6,11.6,3.9,17.5c2.5,11-0.2,22.2-7.3,30.7c-7.1,8.4-17.7,13-28.9,12.4
		c-17.7-0.9-32.3-15.7-32.7-33.1c-0.2-9.8-0.2-19.7-0.1-29.3c0-3.9,0-7.8,0-11.7c0-8.4-0.9-16.6-2.6-25.2
		c-2.9-14-7.6-27.5-12.1-40.7c-1.4-4.2-2.9-8.6-4.4-12.8c-6-18.5-12.3-40.1-10.6-62.4c1.7-21.7,11-37.5,28.3-48.2
		c15.3-9.5,33.6-14.1,57.5-14.6c9.5-0.2,17.7,3.6,22.4,10.4c4.8,6.9,5.4,16.1,1.7,25c-2.4,6.1-5,12.3-7.4,18.2
		c-2.5,6-5,12.2-7.5,18.3c-0.9,2.3-1.8,4.5-2.8,6.8c-4.8,11.5-9.7,23.5-11.8,36.3c-0.4,2.5,0,4.8,1,6.5c1.1,1.9,2.9,3.1,5.2,3.4
		c4.4,0.7,7.9-2.2,8.8-7.2c1.4-8.3,3.9-16.5,7.3-24.5l0-0.1c7.3-17.6,14.8-35.7,21.9-53.7c4.8-12.2,3.7-25.3-2.9-36.1
		c-6.3-10.2-16.9-16.7-29-17.8c-24.1-2.3-47.2,2.4-68.5,13.9c-19.9,10.7-32.5,27.3-37.5,49.3c-3.4,14.8-3.2,30.6,0.6,49.7
		c3.4,16.9,9.1,33.3,14.7,49.2l1.8,5.2c8.2,23.5,11.6,43.7,10.6,63.5c-0.4,8.4-0.3,16.9-0.1,25.1l0.1,3.1
		c0.4,21.6,14.7,40.4,35.6,46.9c0.9,0.3,1.8,0.4,2.6,0.6c1.5,0.3,2.8,0.5,3.8,1.2l0.5,0.4h13.8l0.4-0.2c0.2-0.1,0.3-0.2,0.5-0.3
		c0.1-0.1,0.2-0.1,0.3-0.2c21-3.7,34.9-16.1,41.1-36.8c3.9-12.8,0.7-25-2.4-36.7C223,316.6,222.3,313.8,221.7,311.1z"/>
	<path class="st0" d="M234,81.8c0.1,0,0.2,0,0.3,0c7.8-0.1,15.3-4.3,20.5-11.5c4.1-5.6,6.5-12.2,7.6-20.6
		c2.6-19.9-6.9-36.7-24.2-42.8l-0.3-0.1h-7.3l-0.2,0.1c-6.8,1.7-12.2,5.3-16.3,10.6c-11.1,14.5-11.2,39-0.2,53.5
		C218.9,77.8,226.3,81.8,234,81.8z M220.6,44c0.1-7.2,1.9-12.9,5.5-17.5c2.4-3,5.1-4.6,7.8-4.6c0,0,0,0,0,0c2.8,0,5.4,1.6,7.8,4.6
		l0,0c7.3,9.1,7.3,26.4,0.1,35.6c-2.4,3-5.1,4.6-7.9,4.6c0,0,0,0,0,0c-2.8,0-5.5-1.5-7.7-4.5C222.5,57.5,220.7,51.7,220.6,44z"/>
	<path class="st0" d="M251.3,234.4c-19.1,0-34.6,15.5-34.6,34.5c0,18.7,15.4,34.2,34.3,34.5c0.1,0,0.3,0,0.4,0c9,0,17.6-3.5,24.1-10
		c6.6-6.5,10.3-15.2,10.3-24.3c0.1-9.3-3.5-18-10-24.6C269.2,238,260.5,234.4,251.3,234.4z M251.1,288.1
		c-10.5-0.1-19.1-8.7-19.1-19.2c0-5.1,1.9-9.9,5.5-13.6c3.7-3.7,8.6-5.7,13.8-5.7c10.6,0,19.3,8.7,19.3,19.3c0,5.1-2.1,10-5.8,13.6
		C261,286.2,256.2,288.2,251.1,288.1z"/>
	<path class="st0" d="M183.8,251.3c5.7-2.5,12.4-2,18.4,1.3l0,0c4.5,2.4,8.9,1.5,11.1-2.2c2.3-3.8,0.9-8.2-3.5-10.9
		c-5.4-3.3-11.5-5.2-16.8-5.1c-16,0.1-29,9-33.9,23.3c-4.7,13.9,0.1,29.3,11.8,38.3c6.1,4.7,13.6,7.1,20.8,7.1
		c8.3,0,16.2-3.1,21.7-9.1c3.5-3.7,3.7-8.2,0.6-11.4c-1.5-1.5-3.3-2.3-5.2-2.3c0,0,0,0-0.1,0c-2.1,0-4.2,1.1-6.1,3
		c-2.2,2.2-4.4,3.5-7,4.2c-6.1,1.5-12.5-0.4-17.3-5.1c-4.9-4.9-6.9-11.6-5.3-18C174.7,258.2,178.5,253.6,183.8,251.3z"/>
	<path class="st0" d="M179,75.8c4.9,0,9.8-2,13.8-5.9c7-6.9,8.6-15.5,8.7-21.5c0-9.7-2.4-16.9-7.6-22.8c-3.9-4.3-9-6.8-14.3-6.9
		c-5.3-0.1-10.5,2-14.7,6.2c-5.5,5.5-8.6,13.8-8.5,22.8c0.1,8.9,3.4,17.1,8.9,22.4C169.3,73.9,174.2,75.8,179,75.8z M175.1,36.1
		L175.1,36.1c1.2-1.4,2.5-2.2,3.8-2.2c1.3,0,2.6,0.8,3.8,2.2c2.3,2.9,3.5,6.6,3.5,11.2c0,4.3-1,7.8-3.2,10.7c-1.2,1.6-2.6,2.5-4,2.6
		c-1.4,0-2.8-0.8-4-2.3C170.5,52.6,170.6,41.6,175.1,36.1z"/>
	<path class="st0" d="M115,108.5c5.3-8.3,4.9-20-0.9-27.9c-3.6-4.9-9-7.8-14.7-7.9c-5.6-0.1-10.9,2.6-14.6,7.3
		c-3.3,4.2-5.2,9.4-5.1,13.6c0,6.3,1.1,10.9,3.7,14.9c3.7,5.9,9.5,9.3,15.8,9.3C105.5,117.7,111.3,114.4,115,108.5z M95,95.3
		c0-2.6,0.9-5.1,2.4-6.5c0.4-0.4,1.1-0.9,1.9-0.9c0,0,0.1,0,0.1,0c0.6,0,1.3,0.4,2,1.1c1.4,1.5,2.3,4.1,2.2,6.6
		c-0.3,4.3-2.5,6.9-4.4,6.9C96.9,102.5,95,99.2,95,95.3z"/>
	<path class="st0" d="M134.1,87.7c0.1,0,0.3,0,0.4,0c6.2-0.1,11.8-3.5,15.4-9.3l0,0c2.6-4.1,3.8-8.5,3.7-13.1
		c0.1-6.2-1.8-11.6-5.6-16c-3.5-4.2-8.3-6.6-13.4-6.7c-5.1-0.1-10,2-13.8,6c-7.6,8-8.5,21.1-2.2,30.5
		C122.5,84.6,128.1,87.7,134.1,87.7z M132,71.4c-1.5-1.5-2.3-3.9-2.3-6.4c0.1-4,2.5-7.1,4.5-7.1c2,0.1,4.2,3.1,4.2,7.3
		c0,4-1.9,7.2-4.3,7.3C133.3,72.4,132.5,71.9,132,71.4z"/>
	<path class="st0" d="M313.4,300.9c-0.7-0.1-1.3-0.1-1.9-0.1c0.1-0.2,0.3-0.4,0.4-0.6c0.3-0.5,0.7-1,1-1.5c2.5-3.6,5-7.3,5.8-12.1
		c1.3-8.1-4.6-15.8-13-17.2c-7.7-1.3-16,4.4-17.4,11.9c-0.8,4.4,1,7.7,5.1,9.1c3.8,1.2,7.1-0.2,9.1-4c0.2-0.4,0.4-0.8,0.5-1.2
		c0.1-0.2,0.1-0.4,0.2-0.5c0-0.1,0.1-0.1,0.1-0.2c0,0,0,0,0,0l0.1,0.1c0,0,0.1,0,0.1,0.1c0,0,0,0.1,0,0.2c-0.5,1.5-1.3,2.8-2.4,4.4
		c-0.9,1.2-1.8,2.4-2.6,3.6c-2.6,3.5-5.3,7.2-7.8,11c-1.7,2.5-2,5.4-0.9,7.8c1.1,2.4,3.5,4,6.5,4.4c2.6,0.3,5.4,0.4,8.2,0.4
		c2.8,0,5.8-0.1,9-0.4c4.2-0.4,6.7-3.2,6.7-7.5C320.2,304.1,317.7,301.3,313.4,300.9z"/>
</g>
</svg>
