<?xml version="1.0" encoding="utf-8"?>
<!-- Generator: Adobe Illustrator 26.0.3, SVG Export Plug-In . SVG Version: 6.00 Build 0)  -->
<svg version="1.1" id="Calque_1" xmlns="http://www.w3.org/2000/svg" xmlns:xlink="http://www.w3.org/1999/xlink" x="0px" y="0px"
	 viewBox="0 0 400 400" style="enable-background:new 0 0 400 400;" xml:space="preserve">
<style type="text/css">
	.st0{fill:#0A9642;stroke:#0A9642;stroke-width:4;stroke-miterlimit:10;}
</style>
<g>
	<path class="st0" d="M213.8,308.4c-2.8,0.6-4.3,2.5-4.3,5.3c0,1.1,0.2,2.2,0.4,3.3c1.3,5.8,2.6,11.6,3.9,17.5
		c5.5,24.4-13.3,46.8-38.3,45.5c-18.6-0.9-34.2-16.5-34.6-35.1c-0.3-13.7-0.1-27.4-0.1-41.1c0-8.4-0.9-16.6-2.6-24.8
		c-3.8-18.3-10.6-35.7-16.4-53.3c-6.7-20.5-12.4-41.3-10.7-63.2c1.7-21.3,10.8-38.3,29.2-49.7c17.9-11.1,37.9-14.5,58.5-14.9
		c21.6-0.5,34.2,18.2,26,38.2c-4.9,12.2-10,24.3-14.9,36.5c-5.6,13.9-12,27.6-14.4,42.6c-0.6,4.2,1,7.1,4.5,7.6
		c3.3,0.5,5.8-1.6,6.5-5.6c1.5-8.6,4-16.9,7.4-24.9c7.4-17.9,14.8-35.8,21.9-53.8c9.2-23.4-5.2-48.9-30.2-51.2
		c-23.5-2.2-46.4,2.4-67.4,13.7c-19.3,10.4-31.6,26.5-36.5,48c-3.7,16.3-2.6,32.6,0.6,48.9c3.7,18.6,10.2,36.3,16.4,54.1
		c7.3,20.9,11.8,42.1,10.7,64.3c-0.5,9.3-0.2,18.7,0,28c0.4,20.9,14.2,38.8,34.2,45c2.3,0.7,4.9,0.6,7,2.1h12.7
		c0.4-0.2,0.8-0.5,1.2-0.6c20.6-3.6,33.7-15.6,39.7-35.4c4.6-15.2-1.2-29.5-4.5-43.9C219.3,308.8,216.6,307.8,213.8,308.4z"/>
	<path class="st0" d="M253.1,69.1c4.3-5.9,6.3-12.6,7.2-19.7c2.5-18.9-6.5-34.9-22.9-40.7h-6.7c-6.2,1.6-11.3,4.8-15.2,9.9
		c-10.6,13.8-10.7,37.3-0.2,51.1C225.6,83.3,243,83.1,253.1,69.1z M243.3,25.2c7.9,9.9,8,28.1,0.1,38.1c-5.6,7.1-13.3,7.1-18.8,0.1
		c-4.4-5.6-5.9-12.2-6-19.4c0.1-6.7,1.6-13.2,5.9-18.7C230.1,18.1,237.7,18.1,243.3,25.2z"/>
	<path class="st0" d="M251.3,236.4c-18,0-32.6,14.5-32.6,32.5c0,17.7,14.4,32.2,32.3,32.5c17.8,0.2,32.7-14.5,32.7-32.3
		C283.8,251,269.3,236.4,251.3,236.4z M251.1,290.1c-11.6-0.1-21.1-9.6-21.1-21.2c-0.1-11.8,9.5-21.3,21.3-21.3
		c11.8,0,21.3,9.5,21.3,21.3C272.5,280.6,262.7,290.2,251.1,290.1z"/>
	<path class="st0" d="M203.2,250.8c3.5,1.9,6.8,1.3,8.4-1.5c1.7-2.9,0.6-6.1-2.8-8.2c-5.2-3.2-10.9-4.9-15.7-4.8
		c-15.3,0.1-27.5,8.8-32,21.9c-4.4,13.1,0,27.5,11.1,36.1c12.3,9.5,30.3,8.7,39.8-1.8c2.8-3,3-6.2,0.6-8.6c-2.5-2.5-5.6-2.3-8.5,0.7
		c-2.3,2.3-4.8,3.9-7.9,4.7c-14.6,3.7-28.7-10.6-25-25.5C174.8,249.6,189.8,243.5,203.2,250.8z"/>
	<path class="st0" d="M191.4,68.5c5.9-5.8,8-13.2,8.1-20.1c0-8.8-2-15.7-7.1-21.5c-7.3-8.1-18.4-8.4-26.1-0.7
		c-10.7,10.7-10.5,32,0.4,42.4C174,75.6,184.2,75.6,191.4,68.5z M173.6,34.8c3.2-3.9,7.5-3.9,10.7,0c2.9,3.6,3.9,7.9,3.9,12.5
		c0,4.3-1,8.4-3.6,11.9c-3.2,4.4-7.8,4.5-11.2,0.3C168.4,53.1,168.4,41.1,173.6,34.8z"/>
	<path class="st0" d="M113.3,107.4c4.9-7.7,4.5-18.4-0.8-25.6c-6.8-9.2-19.1-9.5-26.1-0.6c-3.3,4.2-4.8,8.9-4.7,12.4
		c0,6.3,1.2,10.4,3.4,13.8C92.1,118.5,106.3,118.5,113.3,107.4z M105.6,95.7c-0.3,5-3.1,8.8-6.4,8.8c-3.5,0-6.2-4.1-6.2-9.2
		c0-5.2,3-9.6,6.5-9.4C102.9,86,105.8,90.8,105.6,95.7z"/>
	<path class="st0" d="M148.2,77.4c2.4-3.8,3.5-7.9,3.4-12.1c0.1-5.7-1.6-10.6-5.1-14.7c-6.6-7.8-17.2-8-24.2-0.6
		c-6.9,7.3-7.7,19.5-2,28C127.6,88.5,141.3,88.3,148.2,77.4z M134.2,55.8c3.4,0.1,6.2,4.3,6.2,9.3c0,5.1-2.7,9.2-6.2,9.3
		c-3.5,0.1-6.6-4.4-6.5-9.5C127.8,60.1,130.8,55.8,134.2,55.8z"/>
	<path class="st0" d="M313.2,302.9c-1.6-0.2-3.1,0-4.8,0c0-1.9,1.2-2.7,1.9-3.8c2.7-4,5.7-7.8,6.5-12.8c1.1-6.9-4-13.7-11.4-14.9
		c-6.7-1.1-13.9,3.8-15.1,10.3c-0.6,3.3,0.5,5.7,3.7,6.8c3.1,1,5.3-0.4,6.7-3.1c0.3-0.5,0.4-1.2,0.7-1.7c0.6-1.1,1.6-1.6,2.8-1
		c1.2,0.5,1.6,1.4,1.2,2.7c-0.6,1.8-1.6,3.3-2.7,4.9c-3.5,4.8-7.1,9.5-10.4,14.5c-2.7,4.1-0.6,8.5,4.2,9.1c5.6,0.6,11.2,0.5,16.8,0
		c3.2-0.3,4.9-2.3,4.9-5.5C318.2,305.1,316.4,303.2,313.2,302.9z"/>
</g>
</svg>
