<?xml version="1.0" encoding="utf-8"?>
<!-- Generator: Adobe Illustrator 26.0.3, SVG Export Plug-In . SVG Version: 6.00 Build 0)  -->
<svg version="1.1" id="Calque_1" xmlns="http://www.w3.org/2000/svg" xmlns:xlink="http://www.w3.org/1999/xlink" x="0px" y="0px"
	 viewBox="0 0 248.7 123.9" style="enable-background:new 0 0 248.7 123.9;" xml:space="preserve">
<style type="text/css">
	.st0{fill:none;stroke:#000000;stroke-width:0.5;stroke-miterlimit:10;}
	.st1{fill:none;stroke:#000000;stroke-width:0.25;stroke-miterlimit:10;}
</style>
<image style="display:none;overflow:visible;enable-background:new    ;" width="554" height="61" xlink:href="../../../../../Downloads/logo.png"  transform="matrix(0.4366 0 0 0.4366 3.3465 45.5213)">
</image>
<g>
	<path class="st0" d="M92.2,100.8H21c-2.1,0-3.7-1.7-3.7-3.7V24.2c0-2.1,1.7-3.7,3.7-3.7h71.2c2.1,0,3.7,1.7,3.7,3.7V97
		C95.9,99.1,94.2,100.8,92.2,100.8z"/>
	<polygon points="87.6,35 87.6,45.2 66.8,33.1 47.5,44.3 47.5,34.2 66.7,23.1 66.8,23 66.8,23.1 	"/>
	<polygon points="87.6,56 87.6,66.2 66.8,54.1 47.5,65.3 47.5,55.2 66.7,44.1 66.8,44 66.8,44.1 	"/>
	<polygon points="87.6,77 87.6,87.2 66.8,75.1 47.5,86.3 47.5,76.2 66.7,65.1 66.8,65 66.8,65.1 	"/>
	<polygon class="st1" points="27,84.7 27,74.6 47.8,86.6 67.1,75.4 67.1,85.6 47.8,96.7 47.8,96.7 47.8,96.7 	"/>
	<polygon class="st1" points="27,63.7 27,53.6 47.8,65.6 67.1,54.4 67.1,64.6 47.8,75.7 47.8,75.7 47.8,75.7 	"/>
	<polygon class="st1" points="27,42.7 27,32.6 47.8,44.6 67.1,33.4 67.1,43.6 47.8,54.7 47.8,54.7 47.8,54.7 	"/>
	<path d="M113.2,38.3c-1.6,0-3-0.3-4.1-0.9c-1.1-0.6-1.7-4.3-1.7-5.2v-6.5h5.1v6.5c0,0.2,0.2,0.3,0.6,0.3h21.6v-6.8h5.1v6.8h6.4v5.8
		H113.2z"/>
	<path d="M153.6,32.3c0,0.8-0.6,4.6-1.7,5.2c-1.1,0.6-2.5,0.9-4.1,0.9h-8.2v-5.8h8.2c0.4,0,0.6-0.1,0.6-0.3v-6.5h5.2V32.3z"/>
	<path d="M189.8,32.5v5.8h-21.7v7.2c0,0.8-0.9,3.1-2,3.7c-1.1,0.6-2.5,0.9-4.1,0.9h-34.5c-1.6,0-3-0.3-4.1-0.9c-1.1-0.6-2-2.9-2-3.7
		v-5h5.1v4c0,0.2,0.2,0.4,0.7,0.4h35.1c0.4,0,0.6-0.1,0.6-0.4l0-12h15.3v-6.8h5.2v6.8H189.8z"/>
	<path d="M219.6,32.3c0,0.8-0.6,4.6-1.7,5.2c-1.1,0.6-2.5,0.9-4.1,0.9h-30.8v-5.8h8.9v-6.8h5.2v6.8h6.1v-6.8h5.1v6.8h5.5
		c0.4,0,0.6-0.1,0.6-0.3v-6.5h5.2V32.3z"/>
	<g>
		<path d="M111.9,90.9c-1.3-0.5-2.2-1.2-2.9-2c-0.7-0.9-1-1.8-1-2.9v-0.5c0-0.3,0.1-0.4,0.4-0.4h3c0.3,0,0.4,0.1,0.4,0.4v0.2
			c0,0.8,0.4,1.4,1.3,2c0.8,0.6,1.9,0.9,3.2,0.9c1.2,0,2.2-0.3,3-0.8c0.8-0.5,1.2-1.2,1.2-2c0-0.8-0.4-1.4-1.1-1.8
			c-0.7-0.4-1.9-0.8-3.5-1.3c-1.6-0.4-2.9-0.9-4-1.3c-1.1-0.5-2-1.1-2.7-1.9c-0.7-0.8-1.1-1.9-1.1-3.2c0-1.8,0.7-3.3,2.2-4.4
			c1.4-1.1,3.4-1.6,5.8-1.6c1.6,0,3,0.3,4.2,0.8c1.2,0.5,2.2,1.2,2.8,2.1c0.7,0.9,1,1.9,1,3.1v0.1c0,0.3-0.1,0.4-0.4,0.4h-2.9
			c-0.3,0-0.4-0.1-0.4-0.4v-0.1c0-0.8-0.4-1.5-1.2-2c-0.8-0.5-1.9-0.8-3.2-0.8c-1.2,0-2.2,0.2-3,0.7c-0.8,0.5-1.1,1.1-1.1,1.9
			c0,0.8,0.4,1.4,1.1,1.8c0.7,0.4,1.9,0.9,3.5,1.3c1.6,0.4,2.9,0.9,4,1.3c1.1,0.4,2,1.1,2.7,1.9s1.1,1.9,1.1,3.3
			c0,1.9-0.7,3.4-2.2,4.5c-1.5,1.1-3.4,1.7-5.9,1.7C114.6,91.6,113.2,91.4,111.9,90.9z"/>
		<path d="M146.2,82c0,0.3-0.1,0.4-0.4,0.4h-13.2c-0.1,0-0.2,0.1-0.2,0.2c0,0.9,0.1,1.7,0.2,2.2c0.3,1.1,0.9,2,1.8,2.6
			c0.9,0.6,2.1,0.9,3.5,0.9c2,0,3.6-0.8,4.7-2.5c0.1-0.3,0.3-0.3,0.5-0.1l2.4,1.6c0.2,0.2,0.2,0.3,0.1,0.5c-0.8,1.2-1.9,2.2-3.3,2.9
			c-1.4,0.7-3,1.1-4.8,1.1c-2,0-3.7-0.4-5.1-1.3c-1.4-0.9-2.4-2.1-3.1-3.8c-0.7-1.6-1-3.6-1-5.9c0-2,0.2-3.5,0.5-4.6
			c0.5-1.9,1.5-3.4,3-4.5c1.5-1.1,3.3-1.7,5.4-1.7c2.8,0,4.9,0.7,6.2,2.1c1.4,1.4,2.2,3.4,2.5,6.1C146.2,79.3,146.2,80.6,146.2,82z
			 M134.4,74.3c-0.8,0.6-1.3,1.4-1.6,2.4c-0.2,0.6-0.3,1.4-0.4,2.3c0,0.1,0.1,0.2,0.2,0.2h9.5c0.1,0,0.2-0.1,0.2-0.2
			c-0.1-0.9-0.1-1.6-0.2-2c-0.3-1.1-0.8-1.9-1.6-2.6c-0.8-0.6-1.8-1-3-1C136.1,73.4,135.1,73.7,134.4,74.3z"/>
		<path d="M162.8,70.6c0.2,0.1,0.3,0.2,0.2,0.5l-0.7,3.1c0,0.2-0.2,0.3-0.5,0.2c-0.5-0.2-1-0.3-1.7-0.3l-0.6,0
			c-1.3,0.1-2.4,0.5-3.2,1.3c-0.8,0.8-1.3,1.9-1.3,3.3V91c0,0.3-0.1,0.4-0.4,0.4h-3.1c-0.3,0-0.4-0.1-0.4-0.4V70.7
			c0-0.3,0.1-0.4,0.4-0.4h3.1c0.3,0,0.4,0.1,0.4,0.4v2.2c0,0.1,0,0.1,0.1,0.1c0,0,0.1,0,0.1-0.1c1.2-1.9,2.9-2.9,5.1-2.9
			C161.3,70.1,162.1,70.3,162.8,70.6z"/>
		<path d="M183.4,82c0,0.3-0.1,0.4-0.4,0.4h-13.2c-0.1,0-0.2,0.1-0.2,0.2c0,0.9,0.1,1.7,0.2,2.2c0.3,1.1,0.9,2,1.8,2.6
			c0.9,0.6,2.1,0.9,3.5,0.9c2,0,3.6-0.8,4.7-2.5c0.1-0.3,0.3-0.3,0.5-0.1l2.4,1.6c0.2,0.2,0.2,0.3,0.1,0.5c-0.8,1.2-1.9,2.2-3.3,2.9
			c-1.4,0.7-3,1.1-4.8,1.1c-2,0-3.7-0.4-5.1-1.3c-1.4-0.9-2.4-2.1-3.1-3.8c-0.7-1.6-1-3.6-1-5.9c0-2,0.2-3.5,0.5-4.6
			c0.5-1.9,1.5-3.4,3-4.5c1.5-1.1,3.3-1.7,5.4-1.7c2.8,0,4.9,0.7,6.2,2.1c1.4,1.4,2.2,3.4,2.5,6.1C183.4,79.3,183.4,80.6,183.4,82z
			 M171.6,74.3c-0.8,0.6-1.3,1.4-1.6,2.4c-0.2,0.6-0.3,1.4-0.4,2.3c0,0.1,0.1,0.2,0.2,0.2h9.5c0.1,0,0.2-0.1,0.2-0.2
			c-0.1-0.9-0.1-1.6-0.2-2c-0.3-1.1-0.8-1.9-1.6-2.6c-0.8-0.6-1.8-1-3-1C173.3,73.4,172.4,73.7,171.6,74.3z"/>
		<path d="M206.3,80.9c0,1.9-0.2,3.6-0.7,5c-0.6,1.8-1.5,3.3-2.9,4.3c-1.3,1-3,1.5-5.1,1.5c-0.9,0-1.8-0.2-2.7-0.6
			c-0.8-0.4-1.6-0.9-2.2-1.6c-0.1-0.1-0.1-0.1-0.1,0s-0.1,0.1-0.1,0.1v9.2c0,0.3-0.1,0.4-0.4,0.4h-3.1c-0.3,0-0.4-0.1-0.4-0.4V70.7
			c0-0.3,0.1-0.4,0.4-0.4h3.1c0.3,0,0.4,0.1,0.4,0.4v1.4c0,0.1,0,0.1,0.1,0.1c0,0,0.1,0,0.1,0c0.6-0.7,1.3-1.2,2.2-1.6
			c0.8-0.4,1.7-0.6,2.7-0.6c2,0,3.6,0.5,4.9,1.5c1.3,1,2.3,2.4,2.9,4.2C206,77.1,206.3,78.9,206.3,80.9z M202.3,80.8
			c0-2.1-0.3-3.8-1-5.1c-0.8-1.5-2.1-2.3-3.9-2.3c-1.6,0-2.8,0.7-3.6,2.2c-0.7,1.2-1,2.9-1,5.2c0,2.3,0.4,4.1,1.1,5.3
			c0.8,1.4,2,2.1,3.5,2.1c1.7,0,2.9-0.7,3.7-2C201.8,85,202.3,83.1,202.3,80.8z"/>
		<path d="M221.5,73.6H217c-0.1,0-0.2,0.1-0.2,0.2v11c0,1.2,0.3,2,0.8,2.5s1.3,0.8,2.4,0.8h1.2c0.3,0,0.4,0.1,0.4,0.4V91
			c0,0.3-0.1,0.4-0.4,0.4c-0.9,0.1-1.5,0.1-1.9,0.1c-2.1,0-3.7-0.4-4.7-1.1c-1.1-0.8-1.6-2.2-1.6-4.2V73.7c0-0.1-0.1-0.2-0.2-0.2
			h-2.5c-0.3,0-0.4-0.1-0.4-0.4v-2.4c0-0.3,0.1-0.4,0.4-0.4h2.5c0.1,0,0.2-0.1,0.2-0.2v-4.9c0-0.3,0.1-0.4,0.4-0.4h3
			c0.3,0,0.4,0.1,0.4,0.4v4.9c0,0.1,0.1,0.2,0.2,0.2h4.5c0.3,0,0.4,0.1,0.4,0.4v2.4C221.9,73.4,221.8,73.6,221.5,73.6z"/>
	</g>
	<rect x="178.2" y="40.3" width="1.9" height="1.9"/>
	<rect x="181.2" y="40.3" width="1.9" height="1.9"/>
	<rect x="144.2" y="40.3" width="1.9" height="1.9"/>
	<rect x="147.2" y="40.3" width="1.9" height="1.9"/>
	<rect x="126.6" y="20.5" width="1.9" height="1.9"/>
	<rect x="129.6" y="20.5" width="1.9" height="1.9"/>
	<rect x="145.7" y="42.7" width="1.9" height="1.9"/>
</g>
</svg>
