<?xml version="1.0" encoding="utf-8"?>
<!-- Generator: Adobe Illustrator 26.0.3, SVG Export Plug-In . SVG Version: 6.00 Build 0)  -->
<svg version="1.1" id="Calque_1" xmlns="http://www.w3.org/2000/svg" xmlns:xlink="http://www.w3.org/1999/xlink" x="0px" y="0px"
	 viewBox="0 0 248.7 123.9" style="enable-background:new 0 0 248.7 123.9;" xml:space="preserve">
<style type="text/css">
	.st0{fill:#FEFEFE;}
	.st1{fill:#FD0201;}
	.st2{fill:#3156FC;}
	.st3{fill:#0185F4;}
	.st4{fill:#8334D4;}
	.st5{fill:#FDD600;}
	.st6{fill:#FB0103;}
	.st7{fill:#FE7D00;}
	.st8{fill:#FB0305;}
	.st9{fill:#0D7AF6;}
	.st10{fill:#1175F7;}
	.st11{fill:#097DF5;}
	.st12{fill:#2760FA;}
	.st13{fill:#0681F5;}
	.st14{fill:#1A6CF8;}
	.st15{fill:#1D69F9;}
	.st16{fill:#FD0901;}
	.st17{fill:#2463FA;}
	.st18{fill:#2A5CFB;}
	.st19{fill:#2066F9;}
	.st20{fill:#DFD60D;}
	.st21{fill:#D8D611;}
	.st22{fill:#1472F7;}
	.st23{fill:#2D5AFB;}
	.st24{fill:#0384F4;}
	.st25{fill:#1770F8;}
	.st26{fill:#F1D605;}
	.st27{fill:#CFD714;}
	.st28{fill:#E7D60A;}
	.st29{fill:#F7D603;}
	.st30{fill:#2F57FC;}
	.st31{fill:#FD0A01;}
	.st32{fill:#C8D717;}
	.st33{fill:#ECD608;}
	.st34{fill:#FD1101;}
	.st35{fill:#ABD724;}
	.st36{fill:#D0144F;}
	.st37{fill:#FD1701;}
	.st38{fill:#FD2401;}
	.st39{fill:#D51347;}
	.st40{fill:#FD2A01;}
	.st41{fill:#FD3601;}
	.st42{fill:#FD1D01;}
	.st43{fill:#B6D71F;}
	.st44{fill:#FD3D01;}
	.st45{fill:#FE7500;}
	.st46{fill:#FE4F00;}
	.st47{fill:#CB1759;}
	.st48{fill:#B02186;}
	.st49{fill:#FD3001;}
	.st50{fill:#B0D722;}
	.st51{fill:#BAD71E;}
	.st52{fill:#FE6800;}
	.st53{fill:#A5D62A;}
	.st54{fill:#FE4900;}
	.st55{fill:#FE4300;}
	.st56{fill:#F90408;}
	.st57{fill:#BFD71B;}
	.st58{fill:#FE5C00;}
	.st59{fill:#FE6200;}
	.st60{fill:#C4D71B;}
	.st61{fill:#FE5600;}
	.st62{fill:#A92594;}
	.st63{fill:#8732CE;}
	.st64{fill:#FE6E00;}
	.st65{fill:#F20715;}
	.st66{fill:#EA0A21;}
	.st67{fill:#E30D2F;}
	.st68{fill:#B5207E;}
	.st69{fill:#75CD63;}
	.st70{fill:#2CB7BB;}
	.st71{fill:#86D04F;}
	.st72{fill:#9B2BAC;}
	.st73{fill:#44C49D;}
	.st74{fill:#A228A0;}
	.st75{fill:#AD238D;}
	.st76{fill:#DC103A;}
	.st77{fill:#35C1AF;}
	.st78{fill:#4AC596;}
	.st79{fill:#7BCE5C;}
	.st80{fill:#60C97C;}
	.st81{fill:#3AC2A9;}
	.st82{fill:#922EBB;}
	.st83{fill:#8E30C2;}
	.st84{fill:#EE081B;}
	.st85{fill:#3FC3A3;}
	.st86{fill:#7FCF57;}
	.st87{fill:#9FD532;}
	.st88{fill:#4FC690;}
	.st89{fill:#30BCB5;}
	.st90{fill:#B81E79;}
	.st91{fill:#A52699;}
	.st92{fill:#8B31C7;}
	.st93{fill:#5AC883;}
	.st94{fill:#6FCC6A;}
	.st95{fill:#DF0E35;}
	.st96{fill:#6BCB70;}
	.st97{fill:#972CB2;}
	.st98{fill:#8FD244;}
	.st99{fill:#7C37D8;}
	.st100{fill:#6D3DDF;}
	.st101{fill:#BC1D73;}
	.st102{fill:#3953F8;}
	.st103{fill:#743ADC;}
	.st104{fill:#0386F3;}
	.st105{fill:#8BD14A;}
	.st106{fill:#424FF4;}
	.st107{fill:#494CF0;}
	.st108{fill:#5846E9;}
	.st109{fill:#27B1C2;}
	.st110{fill:#5149ED;}
	.st111{fill:#942DB7;}
	.st112{fill:#6541E3;}
	.st113{fill:#96D43C;}
	.st114{fill:#6043E6;}
	.st115{fill:#21AACA;}
	.st116{fill:#1DA6CF;}
	.st117{fill:#54C78A;}
	.st118{fill:#24ADC6;}
	.st119{fill:#19A1D4;}
	.st120{fill:#93D340;}
	.st121{fill:#65CA77;}
	.st122{fill:#1299DD;}
	.st123{fill:#0D93E5;}
	.st124{fill:#9AD437;}
	.st125{fill:#169CD9;}
	.st126{fill:#56C788;}
	.st127{fill:#65CA76;}
	.st128{fill:#058AEF;}
	.st129{fill:#0B8DE8;}
	.st130{fill:#FC1305;}
	.st131{fill:#9BD536;}
	.st132{fill:#38BFAD;}
	.st133{fill:#FD1919;}
	.st134{fill:#FC1616;}
	.st135{fill:#FD1515;}
	.st136{fill:#FD1615;}
	.st137{fill:#FEFDFD;}
	.st138{fill:#FEFBFB;}
	.st139{fill:#C51962;}
	.st140{fill:#D91141;}
	.st141{fill:#C8185E;}
	.st142{fill:#F6050E;}
	.st143{fill:#E70B28;}
	.st144{fill:#9E29A6;}
	.st145{fill:#C11B6A;}
	.st146{fill:#BE1C6F;}
</style>
<g>
	<path class="st0" d="M71.2,92c-0.9-0.1-1.2,0.2-1.2,1.1c0.1,2.9,0,5.7,0,8.6c0,0.8-0.2,1.1-1,1c-1.7-0.1-1.7,0-1.7-1.7
		c0-2.7,0-5.4,0-8.1c0-0.8-0.2-1-1-1c-0.9,0.1-1.7,0-2.6,0c-0.6,0-0.9-0.2-0.9-0.8c-0.1-1.7-0.1-1.7,1.6-1.7h4.2
		c1.6,0,3.2,0.1,4.8,0c1.2,0,0.9,0.7,1,1.4c0,0.7,0,1.3-1,1.2C72.7,92,71.9,92.1,71.2,92z"/>
	<path class="st0" d="M82.9,97.8c0,2.8-2.3,5-5.3,5s-5.3-2.1-5.3-5c0-2.8,2.3-5.1,5.2-5.1C80.5,92.8,82.9,95,82.9,97.8z"/>
	<path class="st0" d="M91.4,100.7c0.3,0.5,0.2,1.1-0.3,1.4c-1.5,1-3.1,1.1-4.7,0.5c-1.4-0.5-1.8-1.7-1.8-3.1c0-0.5,0-1,0-1.6
		s0-1.1,0-1.7s0.2-1.4-0.9-1.2c-0.3,0-0.3-0.2-0.3-0.4c0-0.5,0-1,0-1.5c0-0.4,0.1-0.5,0.5-0.5c0.8,0.1,0.9-0.3,0.8-0.9
		c0-0.3,0-0.5,0-0.8c0-1.6,0-1.5,1.6-1.6c0.9,0,1.1,0.3,1,1.1c0,2.1,0,2.1,2.1,2.2c0.2,0,0.4,0,0.6,0c0.7,0.1,1.1,0.5,1.1,1.2
		c0,0.6-0.4,1-1.1,1.1c-0.6,0.1-1.3,0.1-2,0c-0.7,0-0.8,0.2-0.8,0.8c0,1,0,1.9,0,2.9c0,1.4,0.9,2,2.2,1.6c0.2-0.1,0.4-0.2,0.6-0.2
		C90.6,100,91.1,100.2,91.4,100.7z"/>
	<path class="st0" d="M102.4,94.1c0,2.7,0,5.5,0,8.2c0,0.4-0.1,0.7-0.6,0.6c-0.3,0-0.6,0-0.8,0c-0.8,0.1-1.3,0-0.9-1.2
		c-2.1,1.5-4,1.6-6,0.3c-1.9-1.2-2.4-3.1-2-5.3c0.3-1.9,1.8-3.4,3.8-3.8c1.3-0.3,2.6-0.1,3.7,0.6c0.4,0.2,0.5,0.2,0.7-0.1
		c0.3-0.6,0.8-0.7,1.4-0.5C102.2,93,102.4,93.5,102.4,94.1z"/>
	<path class="st0" d="M107.5,101.8c0,0.7-0.1,1-0.9,1c-1.9,0-1.9,0-1.9-1.9c0-3.2,0-6.5,0-9.8c0-1.1,0.5-1.6,1.4-1.6
		c0.9,0.1,1.3,0.6,1.3,1.5c0,1.8,0,3.7,0,5.5S107.4,100.1,107.5,101.8z"/>
	<path class="st0" d="M118.7,100.7c0.1,2,0.1,2-2,2s-4.2,0-6.3,0c-0.8,0-1-0.2-1-1c0-1.9,0-3.8,0-5.7c0-1.9,0-3.9,0-5.8
		c0-0.7,0.2-0.9,0.9-0.9c2.5,0,4.9,0,7.4,0c0.7,0,1,0.2,0.9,0.9c0,0.3,0,0.6,0,0.9c0,0.6-0.2,0.9-0.9,0.9c-1.5,0-3,0-4.6,0
		c-0.6,0-0.8,0.1-0.8,0.8c0,2.1-0.1,2.1,2,2.1c0.8,0,1.6,0.1,2.4,0c1-0.1,1.1,0.4,1,1.2c0,0.7,0.2,1.6-1.1,1.5c-1.1-0.1-2.3,0-3.4,0
		c-0.6,0-0.9,0.1-0.9,0.8c0,1.7,0,1.7,1.8,1.7c1.3,0,2.6,0,4,0C118.5,100.1,118.7,100.2,118.7,100.7z"/>
	<path class="st0" d="M130.2,102c0,0.5-0.2,0.8-0.8,0.7c-0.3,0-0.7,0-1,0c-0.7,0-0.9-0.3-0.8-0.9c0-1.4,0-2.8,0-4.2
		c0-0.6,0-1.2-0.4-1.7c-0.6-0.8-1.7-1.1-2.6-0.9c-1,0.3-1.5,1-1.5,2c0,1.6-0.1,3.2,0,4.8c0,0.7-0.2,0.9-0.9,0.9
		c-1.7,0-1.7,0-1.7-1.7v-3.2c0-1.3,0-2.6,0-3.9c0-0.6,0.1-1,0.7-1.2s1.1,0,1.4,0.5c0.2,0.4,0.4,0.4,0.8,0.2c1-0.6,2-0.7,3.1-0.7
		c2.1,0,3.7,1.6,3.8,3.9C130.2,98.4,130.2,100.2,130.2,102z"/>
	<path class="st0" d="M141.8,97.9c-0.1,0.6-0.4,0.6-0.9,0.6h-2.8c-0.9,0-1.8,0-2.7,0c-0.8,0-0.7,0.3-0.4,0.8
		c0.3,0.6,0.9,1.1,1.6,1.2c1,0.1,2,0.1,2.9-0.4c0.6-0.4,1.2-0.3,1.7,0.3c0.5,0.6,0.1,1.1-0.4,1.5c-1.7,1.5-5.2,1.6-7.2,0.1
		c-1.9-1.5-2.5-4.3-1.4-6.5s3.7-3.3,6.2-2.7C140.6,93.4,142.1,95.7,141.8,97.9z"/>
	<path class="st0" d="M150,93.7c0.1,0.8-0.5,1.1-1.2,1.2c-1.8,0.2-2.7,1.3-2.8,3.1c0,1.3,0,2.6,0,3.9c0,0.6-0.1,0.8-0.8,0.8
		c-1.8,0-1.8,0-1.8-1.7v-6.8c0-0.7,0-1.4,0.9-1.5s1.3,0.4,1.3,1.4c0.9-0.9,1.8-1.5,3-1.5C149.4,92.6,149.9,92.9,150,93.7z"/>
	<path class="st0" d="M181.9,25.7c-3.5-4.4-8.5-6.5-13.8-7.7c-0.4-0.1-0.7-0.3-1.1-0.2c-0.5-0.2-1.1-0.3-1.6-0.3
		c-0.7-0.2-1.4-0.3-2.1-0.3c-0.1,0-0.2,0-0.2,0c-0.4,0-0.8,0-1.3-0.1c-0.8-0.2-1.7-0.2-2.5-0.1c-0.4,0-0.8,0-1.2,0
		c-1,0-2.1-0.1-3.1,0.1c-0.1,0-0.2,0-0.3,0.1h-0.3c-0.7,0-1.4-0.1-2.1,0.1c-0.1,0-0.1,0-0.2,0.1c-0.6,0-1.1,0-1.7,0.2
		c-0.1,0-0.1,0-0.2,0.1c-0.5,0-1,0-1.4,0.2c-0.8,0-1.5,0.1-2.3,0.4c-1,0.1-1.9,0.3-2.7,0.7c-0.5,0-1,0.1-1.5,0.4
		c-0.5,0.1-1,0.2-1.4,0.5c-3.9,1.2-7.4,3.2-10.5,5.8c-3.8,3.2-7.1,6.8-9.2,11.3c-2-0.1-3.9-0.6-5.8-0.9c-12.2-2.2-24.4-4.7-36.6-6.7
		c-2.6-0.4-5.2-1-7.8-0.5c-4.9,0.4-8,4.1-8,8.8c0,4.5,3,7.8,7.8,8.3c3.5,0.4,7,0.6,10.4,1.1c3.7,0.5,7.3,1.2,10.3,3.7
		c0.3,0.4,0.7,0.8,1,1.2c0.2,0.4,0.5,0.8,0.7,1.2c0.1,0.4,0.2,0.7,0.4,1c0.1,0.4,0.2,0.8,0.4,1c0.1,0.4,0.3,0.7,0.4,1
		c0.1,0.4,0.3,0.8,0.4,1.2s0.1,0.8,0.4,1c0.1,0.4,0.1,0.8,0.4,1c0.2,0.4,0.3,0.8,0.5,1.2c0.1,0.4,0.2,0.7,0.3,1.1
		c0.1,0.3,0.2,0.5,0.3,0.8c0.1,0.4,0.3,0.8,0.4,1.2c0.1,0.4,0.2,0.7,0.4,1c0.1,0.4,0.1,0.9,0.4,1.2c0.1,0.4,0.2,0.7,0.3,1.1
		c0.1,0.3,0.2,0.7,0.3,1c0.1,0.4,0.3,0.8,0.4,1.2c0.1,0.4,0.3,0.8,0.4,1.2c0.2,0.6,0.4,1.1,0.5,1.7c0.4,1.6,1.5,2.4,3,2.8
		c0.8,0.2,1.5,0.2,2.3,0.1c2.6-0.2,4.5-2,4.8-4.3c0.2-0.8,0.2-1.7,0-2.5c0-0.4,0-0.7-0.2-1c0-0.7-0.2-1.3-0.4-1.9
		c0-0.3,0-0.6-0.2-0.9c0-0.3,0-0.7-0.2-1c0-0.4,0-0.7-0.2-1c0-0.4,0-0.7-0.2-1c0-0.4,0-0.7-0.2-1c0-0.3,0-0.7-0.2-1
		c0-0.4,0-0.7-0.2-1c0-0.4,0-0.7-0.2-1c0-0.4,0-0.7-0.2-1c0-0.4,0-0.7-0.2-1c0-0.4,0-0.7-0.2-1c0-0.4,0-0.8-0.2-1.2
		c0-0.7-0.1-1.3-0.4-1.9c0.1-0.3-0.1-0.6,0-0.9c0-0.1,0-0.2,0.1-0.3c3.3,0.4,6.7,0.8,10.1,1c0.8,0.1,1.6,0.3,2.3,0.4
		c0.2,1.3,0.4,2.5,0.8,3.7c-0.1,0.2,0,0.5,0.2,0.6c0,0.2-0.1,0.5,0.2,0.7c0.1,0.3,0.2,0.5,0.3,0.8c0,0.2,0.1,0.4,0.2,0.6
		c0,0.2,0.1,0.4,0.2,0.6c0,0.2,0.1,0.4,0.2,0.6c0.1,0.2,0.2,0.4,0.2,0.6c0.1,0.3,0.1,0.6,0.4,0.9c0,0.1,0,0.1,0.1,0.2
		c0.1,0.3,0.1,0.6,0.4,0.8c0.2,0.3,0.3,0.5,0.5,0.8c0.1,0.2,0.1,0.5,0.3,0.6c0.1,0.1,0.2,0.3,0.3,0.4c0.1,0.3,0.3,0.6,0.5,0.9
		c0.1,0.2,0.2,0.5,0.5,0.6c0.1,0.2,0.2,0.5,0.4,0.6c0.1,0.1,0.3,0.3,0.4,0.4c0.2,0.2,0.4,0.4,0.6,0.6c0.1,0.1,0.1,0.1,0.2,0.2
		c0.2,0.1,0.3,0.3,0.4,0.4s0.3,0.3,0.4,0.4c0.2,0.2,0.5,0.4,0.7,0.6c0.1,0.1,0.2,0.1,0.2,0.2c0.2,0.2,0.4,0.3,0.6,0.5
		c0.1,0.1,0.3,0.2,0.5,0.3c0.2,0.2,0.4,0.3,0.6,0.5c0.3,0.2,0.6,0.4,0.8,0.5s0.4,0.3,0.6,0.4c0.2,0.1,0.4,0.2,0.6,0.3
		c0.2,0.2,0.5,0.3,0.8,0.4c0.2,0.2,0.4,0.3,0.7,0.3c0.2,0.2,0.5,0.4,0.8,0.4c0.1,0.1,0.3,0.1,0.4,0.2c0.1,0.1,0.3,0.1,0.4,0.2
		c0.1,0.1,0.3,0.1,0.4,0.2c0.3,0.1,0.5,0.2,0.8,0.3c0.3,0.1,0.6,0.2,0.9,0.4c0.5,0.2,1,0.3,1.5,0.5c0.3,0.1,0.5,0.2,0.8,0.2
		c0.4,0.1,0.8,0.3,1.2,0.4c0.3,0.1,0.7,0.2,1,0.2c0.1,0,0.2,0,0.4,0c0.5,0.3,1,0.3,1.5,0.4c0.4,0.1,0.8,0.3,1.2,0.2
		c0.6,0.1,1.2,0.3,1.9,0.2c0.7,0.2,1.4,0.2,2.1,0.2c2,0.3,4,0.3,6.1,0c0.3,0,0.5,0,0.8,0c0.6,0,1.3,0.1,1.9-0.2
		c4.3-0.3,8.5-1.4,12.6-2.8c1.5-0.5,3-1.2,4.4-2.1c1.6-1.1,2.4-3.3,1.9-5.3c-0.5-1.9-1.7-3.1-3.7-3.5c-0.1,0-0.2-0.1-0.3-0.1
		c-0.9-0.2-1.8,0.2-2.6,0.5c-0.6,0.2-1.2,0.3-1.9,0.5c-0.8,0.2-1.5,0.4-2.3,0.6c-0.8,0.1-1.5,0.2-2.3,0.6c-0.9,0.2-1.8,0.3-2.7,0.5
		c-0.6,0.1-1.1,0.1-1.7,0.2c-1,0.1-2.1,0.1-3.1,0.2c-0.5,0-0.9,0-1.4,0c-0.4-0.2-0.9-0.2-1.3-0.1c-0.4-0.1-0.8-0.1-1.2,0
		c-0.3-0.2-0.6-0.3-1-0.3c-0.3-0.2-0.7-0.2-1-0.2c-0.2-0.2-0.5-0.2-0.8-0.2c-0.5-0.1-1-0.3-1.5-0.4c-0.2-0.2-0.4-0.2-0.6-0.2
		c-0.2-0.2-0.4-0.2-0.6-0.2c-0.3-0.2-0.7-0.3-1.1-0.4c-0.1-0.2-0.4-0.2-0.6-0.2c-0.1-0.2-0.3-0.2-0.5-0.2c-0.1-0.2-0.3-0.2-0.4-0.2
		c-0.1-0.2-0.3-0.2-0.5-0.2c-0.2-0.2-0.5-0.4-0.8-0.4c-0.4-0.2-0.7-0.4-1.1-0.6c-0.2-0.1-0.4-0.3-0.6-0.4c-0.2-0.2-0.3-0.4-0.6-0.4
		c-0.2-0.1-0.4-0.3-0.6-0.4c0-0.2-0.1-0.4-0.4-0.4c-0.2-0.2-0.3-0.3-0.5-0.4l-0.2-0.2c-0.2-0.2-0.4-0.4-0.6-0.6
		c-0.1-0.2-0.2-0.3-0.4-0.4c-0.1-0.1-0.1-0.1-0.2-0.2c0-0.2,0-0.3-0.2-0.4c0-0.3-0.2-0.6-0.4-0.8c-0.1-0.2-0.3-0.5-0.4-0.7
		c-0.1-0.3-0.2-0.6-0.4-0.8c0-0.2,0-0.4-0.2-0.6c0-0.2,0-0.5-0.2-0.6c0-0.1,0-0.3,0-0.5l0.1-0.1c1.7,0.3,3.4,0.5,5.1,0.6
		c0.1,0,0.3,0,0.4,0c0.3,0,0.5,0,0.8,0c0.1,0.1,0.1,0.1,0.2,0.1c0.6,0.2,1.2,0.1,1.7,0.1c0.2,0,0.4,0,0.6,0c0.1,0,0.2,0,0.3,0
		s0.2,0,0.2,0c0.7,0.2,1.4,0.1,2.2,0.1c0.2,0,0.4,0,0.6,0h0.1h0.1c0.8,0.2,1.7,0.2,2.5,0.2c0.3,0,0.7,0,1,0s0.5,0,0.8,0
		c0.1,0,0.1,0,0.2,0c1.1,0.2,2.3,0.1,3.4,0.1h5c0.1,0,0.2,0,0.2,0c0.7,0,1.4,0.1,2.1-0.1c0.3,0,0.5,0,0.8,0c0.2,0,0.4,0,0.6,0
		c0.1,0,0.3,0,0.4,0c0.3,0,0.7,0.1,1-0.1c0.3,0,0.5,0,0.8-0.1c0.2,0,0.3,0,0.4,0c2.7-0.3,5.2-0.8,7.7-1.8c2.7-1,5.2-2.3,7.3-4.4
		c0.1-0.1,0.3-0.3,0.4-0.4c0.1-0.1,0.3-0.3,0.4-0.4c0.2-0.1,0.3-0.2,0.4-0.4c0.1-0.1,0.2-0.3,0.3-0.4c0.2-0.1,0.3-0.2,0.3-0.4
		c0.1-0.1,0.2-0.3,0.3-0.4c0.2-0.1,0.2-0.2,0.2-0.4c0.1-0.1,0.2-0.3,0.3-0.4c0.1-0.2,0.2-0.4,0.3-0.6c0.2-0.2,0.2-0.4,0.3-0.6
		C187,37,186.1,31,181.9,25.7z M160.8,31.7c0.6,0.9,1.5,0.6,2.4,0.6c0.5,0.5,1.1,0.5,1.7,0.3c0.3,0.5,0.8,0.6,1.3,0.5
		c0.2,0.5,0.6,0.5,1.1,0.3l0,0l0,0c0,0.4,0.4,0.5,0.8,0.7c1.3,0.7,2.4,1.6,3.2,2.8l0,0c-0.2,0.2-0.2,0.5-0.2,0.8v0.1
		c-0.2,0-0.3,0.2-0.3,0.4c-0.3,0-0.5,0-0.5,0.4c-0.2,0-0.4,0.1-0.5,0.3c-0.3-0.2-0.4-0.1-0.5,0.1c0,0,0,0-0.1,0
		c-0.3,0-0.6,0-0.7,0.3c0,0-0.1,0-0.1-0.1c-0.3-0.1-0.6,0-0.9,0.3l0,0c-0.1-0.1-0.2-0.1-0.3,0c0,0-0.1-0.1-0.2-0.1
		c-0.6,0.1-1.2-0.2-1.6,0.5l0,0l0,0c-0.1-0.1-0.3-0.1-0.4,0c-0.6-0.3-1.1-0.5-1.6,0.1l0,0c-0.3-0.1-0.5,0-0.7,0.2
		c-0.8-0.4-1.7-0.6-2.5,0.1l0,0l0,0h-0.1c-0.3-0.2-0.6-0.2-0.9,0l0,0c-0.2-0.2-0.5-0.2-0.7,0c0,0-0.1,0-0.1-0.1
		c-0.3-0.1-0.6-0.1-0.8,0.1c-0.2-0.2-0.5-0.2-0.7,0l-0.1-0.1c-0.3-0.1-0.6-0.1-0.8,0.1c-0.3-0.3-0.7-0.3-1-0.1l0,0
		c-0.2-0.2-0.4-0.1-0.6,0c-0.2-0.2-0.4-0.2-0.7,0l0,0c-0.2,0-0.4,0-0.5,0c-0.3,0-0.6,0-0.8,0s-0.4,0-0.6,0l0,0
		c-0.3-0.1-0.6-0.1-0.8-0.1l0,0c-0.2-0.1-0.3-0.1-0.5,0l0,0h-0.3c-0.1-0.1-0.2-0.1-0.3-0.2c-0.3-0.1-0.6-0.1-0.8,0.1
		c-0.6-0.5-1.3-0.6-2-0.3v0.1c-0.2-0.2-0.4-0.2-0.6,0c-0.2-0.2-0.4-0.2-0.5,0l-0.1-0.1c-0.3-0.1-0.5-0.1-0.7,0c-0.1,0-0.3,0-0.4,0
		c-0.1,0-0.2,0-0.3,0l0,0c-0.4-0.5-1-0.6-1.5-0.3c0,0,0,0,0,0.1l0,0c0,0-0.1-0.1-0.1,0l0,0c-0.5-0.3-1-0.6-1.6-0.1l0,0
		c0,0,0,0-0.1,0c0,0,0,0,0-0.1c-0.4-0.3-0.8-0.5-1.3-0.3c-0.1,0-0.1,0-0.2-0.1c-0.8-0.3-1.7-0.3-2.5-0.4l0,0c1.1-1.2,2.3-2.3,3.7-3
		c0.2-0.1,0.4-0.3,0.5-0.5c0.5,0.1,0.8,0,0.9-0.6c0.1,0.1,0.3,0.1,0.4,0.1c0.7-0.2,1.5-0.4,1.9-1.2l0,0c0.7,0.4,1.2-0.1,1.6-0.6h0.1
		l0,0c0.8,0.3,2-0.1,2.7-0.7c0.9,0.3,1.5,0.2,2.1-0.4c0.4,0.2,0.7,0.2,1.1,0.1c0.1,0,0.1,0,0.2-0.1c0.7,0.3,1.3,0,1.9-0.3l0,0
		c0.7,0.4,1.5,0.4,2.2,0c0.4,0.4,0.8,0.3,1.3,0.2l0,0c0.6,0.5,1.2,0.3,1.9,0C159.6,32.2,160.2,32,160.8,31.7
		C160.7,31.7,160.7,31.7,160.8,31.7z"/>
	<path class="st0" d="M160.4,94.3c0,2.7,0,5.4,0,8.1c0,2.8-1.6,4.5-4.4,4.6c-1.7,0.1-3.4,0-4.9-0.9c-0.6-0.4-0.9-0.8-0.6-1.4
		c0.3-0.7,1-0.8,1.6-0.5c1,0.5,2.1,0.5,3.1,0.6c1.9,0,2.7-0.8,2.6-2.8c-2.3,1.5-4.8,1.2-6.4-0.6c-1.6-1.7-1.6-4.7-0.1-6.5
		c1.6-2,4.3-2.3,6.8-0.9c0.1-0.9,0.6-1.3,1.5-1.1S160.4,93.6,160.4,94.3z"/>
	<path class="st0" d="M165.4,90c0,0.9-0.6,1.5-1.5,1.6c-0.9,0-1.6-0.6-1.6-1.5s0.7-1.6,1.5-1.6C164.7,88.4,165.4,89.1,165.4,90z"/>
	<path class="st0" d="M165.1,101.8c0,0.7-0.2,1-0.9,1c-1.7,0-1.7,0-1.7-1.7c0-2.2,0-4.5,0-6.7c0-1.1,0.8-1.8,1.7-1.5
		c0.7,0.2,0.9,0.7,0.9,1.3c0,1.3,0,2.6,0,3.8C165.1,99.3,165.1,100.6,165.1,101.8z"/>
	<path class="st0" d="M176.8,97.9c-0.1,0.7-0.5,0.6-1,0.6h-6c0.4,1.9,2.3,2.6,4.3,1.8c0.2-0.1,0.5-0.3,0.7-0.4
		c0.6-0.2,1.1,0,1.4,0.5c0.3,0.5,0.1,0.9-0.3,1.3c-1.6,1.7-5.3,1.8-7.3,0.2c-2-1.5-2.5-4.5-1.2-6.8c1.3-2.2,4.2-3.2,6.6-2.2
		C175.8,93.8,177,96,176.8,97.9z"/>
	<path class="st0" d="M186.6,99.5c0.1,1.4-0.8,2.6-2.4,3.1c-1.9,0.7-3.8,0.5-5.6-0.5c-0.7-0.4-1.3-0.8-0.9-1.7
		c0.3-0.7,1.1-0.8,2-0.3s1.9,0.6,2.9,0.5c0.4,0,0.8-0.2,0.9-0.7c0.1-0.5-0.4-0.7-0.8-0.8c-0.8-0.2-1.7-0.4-2.5-0.6
		c-1.6-0.4-2.4-1.3-2.5-2.7c-0.1-1.4,0.7-2.5,2.2-3.1c0.8-0.3,1.5-0.4,2.3-0.3c1.1,0,2.2,0.1,3.1,0.8c0.5,0.4,1,0.8,0.6,1.6
		c-0.4,0.7-1,0.8-1.7,0.4c-0.8-0.5-1.7-0.5-2.6-0.4c-0.4,0-0.8,0.2-0.8,0.6c-0.1,0.5,0.4,0.6,0.7,0.7c0.8,0.2,1.6,0.3,2.4,0.5
		C185.6,97.2,186.5,98.1,186.6,99.5z"/>
	<path class="st1" d="M140.2,53.7c-0.1,0-0.3,0-0.4,0c-0.4-0.1-0.9,0-1-0.5c0,0,0,0,0-0.1V53c-0.1-0.5,0-1,0.1-1.4
		c0-0.1,0.1-0.1,0.1-0.2l0,0v-0.1v-0.1c0,0,0,0.1-0.1,0.1l0,0l0,0c-0.1,0.1-0.1,0.1-0.2,0.1c-2.9,0.2-5.7,0.4-8.6,0.1
		c-2.5-0.3-4.9-0.1-7.4-0.2c-2,0-4.1,0-6.1-0.1c-3.4-0.2-6.7-0.6-10.1-1c-0.1,0.1-0.1,0.2-0.1,0.3c-0.3,0.6-0.8,0.8-1.5,0.8
		c-3.4,0.1-6.8,0.1-10.2-0.3c-1.1-0.1-2.2,0.1-3.3-0.2c-2.9-2.5-6.6-3.3-10.3-3.7c-3.5-0.4-7-0.7-10.4-1.1C66,45.5,63,42.2,63,37.7
		c0-4.7,3.1-8.4,7.7-9.2c2.7-0.4,5.2,0.1,7.8,0.5c12.2,2,24.4,4.5,36.6,6.7c1.9,0.3,3.9,0.8,5.8,0.9c0.6-0.2,1.2-0.1,1.8,0
		c4.5,0.7,9,1.2,13.5,1.8h0.1c0.1,0,0.1,0,0.2,0c0.8,0.1,1.7,0.1,2.5,0.4c0.1,0,0.2,0.1,0.2,0.1c0.1,0.1,0.2,0.2,0.3,0.2
		c0.5,0.4,0.3,1.1,0.2,1.8c-0.1,0.5-0.1,0.9,0.1,1.3c0.2,0.4,0.3,0.9,0.3,1.4c0.1,2.8,0.1,5.5,0.4,8.3
		C140.7,52.7,140.7,53.3,140.2,53.7z"/>
	<path class="st2" d="M184.6,43.3c-0.4,0.3-0.7,0-1-0.1c-3.8-1.7-7.5-3.6-11.2-5.7c-0.3-0.2-0.6-0.3-0.9-0.4l0,0h-0.1h-0.1
		c0,0-0.1,0-0.1-0.1l0,0c-0.8-1.2-1.8-2.2-3.2-2.8c-0.3-0.2-0.7-0.3-0.8-0.7l0,0c0-0.1,0-0.2,0-0.3c0.2-2,0.2-4.1,0.3-6.1
		c0.1-2.4,0-4.8,0-7.2c0-0.6,0-1.2,0.3-1.7c5.3,1.2,10.3,3.3,13.8,7.7C186.1,31,187,37,184.6,43.3z"/>
	<path class="st3" d="M140.9,31.3c0,1.1,0,2.2,0.1,3.3c0,0.1,0,0.2,0,0.2v0.1c-0.1,0.2-0.3,0.4-0.5,0.5c-1.5,0.8-2.6,1.8-3.7,3l0,0
		c-0.1,0.1-0.2,0.1-0.3,0.2c-3.6-0.3-7.2-0.8-10.8-1.4c-1.5-0.2-3-0.4-4.5-0.7c2.1-4.5,5.4-8.1,9.2-11.3c3.1-2.6,6.6-4.5,10.5-5.8
		c0.4,0.5,0.3,1,0.3,1.6C141.2,24.6,140.9,28,140.9,31.3z"/>
	<path class="st4" d="M181.4,47.9c-2,2.1-4.6,3.4-7.3,4.4c-2.5,0.9-5.1,1.5-7.7,1.8c0.1-0.8,0-1.5-0.1-2.3c-0.2-3-0.2-6-0.4-8.9
		c-0.1-1-0.1-1.9-0.4-2.9l0,0l0,0c0.3-0.7,1-0.4,1.6-0.5c0.1,0,0.1,0,0.2,0.1c0,0,0,0,0.1,0.1s0.2,0.3,0.3,0.5l0,0
		c0,0.1,0,0.2,0.1,0.2c0.2,0.6,0.8,0.9,1.4,1.2c4.1,1.8,7.9,4.1,11.9,6C181.1,47.7,181.3,47.8,181.4,47.9z"/>
	<path class="st5" d="M173.8,71.1c-1.4,0.9-2.9,1.5-4.4,2.1c-4.1,1.5-8.2,2.5-12.6,2.8c-0.2-0.7,0.4-1.1,0.8-1.4
		c4.3-3.9,8.6-7.9,12.9-11.8c0.4-0.3,0.8-0.6,1.2-0.6c0.1,0,0.2,0,0.3,0.1c1.9,0.4,3.2,1.6,3.7,3.5C176.1,67.8,175.4,70,173.8,71.1z
		"/>
	<path class="st6" d="M160.4,94.3c0,2.7,0,5.4,0,8.1c0,2.8-1.6,4.5-4.4,4.6c-1.7,0.1-3.4,0-4.9-0.9c-0.6-0.4-0.9-0.8-0.6-1.4
		c0.3-0.7,1-0.8,1.6-0.5c1,0.5,2.1,0.5,3.1,0.6c1.9,0,2.7-0.8,2.6-2.8c-2.3,1.5-4.8,1.2-6.4-0.6c-1.6-1.7-1.6-4.7-0.1-6.5
		c1.6-2,4.3-2.3,6.8-0.9c0.1-0.9,0.6-1.3,1.5-1.1S160.4,93.6,160.4,94.3z"/>
	<path class="st6" d="M116.7,102.8c-2.1,0-4.2,0-6.3,0c-0.8,0-1-0.2-1-1c0-1.9,0-3.8,0-5.7c0-1.9,0-3.9,0-5.8c0-0.7,0.2-0.9,0.9-0.9
		c2.5,0,4.9,0,7.4,0c0.7,0,1,0.2,0.9,0.9c0,0.3,0,0.6,0,0.9c0,0.6-0.2,0.9-0.9,0.9c-1.5,0-3,0-4.6,0c-0.6,0-0.8,0.1-0.8,0.8
		c0,2.1-0.1,2.1,2,2.1c0.8,0,1.6,0.1,2.4,0c1-0.1,1.1,0.4,1,1.2c0,0.7,0.2,1.6-1.1,1.5c-1.1-0.1-2.3,0-3.4,0c-0.6,0-0.9,0.1-0.9,0.8
		c0,1.7,0,1.7,1.8,1.7c1.3,0,2.6,0,4,0c0.5,0,0.6,0.2,0.7,0.7C118.8,102.8,118.8,102.8,116.7,102.8z"/>
	<path class="st6" d="M102.4,102.3c0,0.4-0.1,0.7-0.6,0.6c-0.3,0-0.6,0-0.8,0c-0.8,0.1-1.3,0-0.9-1.2c-2.1,1.5-4,1.6-6,0.3
		c-1.9-1.2-2.4-3.1-2-5.3c0.3-1.9,1.8-3.4,3.8-3.8c1.3-0.3,2.6-0.1,3.7,0.6c0.4,0.2,0.5,0.2,0.7-0.1c0.3-0.6,0.8-0.7,1.4-0.5
		s0.8,0.7,0.8,1.2C102.4,96.8,102.4,99.5,102.4,102.3z"/>
	<path class="st6" d="M176.8,97.9c-0.1,0.7-0.5,0.6-1,0.6h-6c0.4,1.9,2.3,2.6,4.3,1.8c0.2-0.1,0.5-0.3,0.7-0.4
		c0.6-0.2,1.1,0,1.4,0.5c0.3,0.5,0.1,0.9-0.3,1.3c-1.6,1.7-5.3,1.8-7.3,0.2c-2-1.5-2.5-4.5-1.2-6.8c1.3-2.2,4.2-3.2,6.6-2.2
		C175.8,93.8,177,96,176.8,97.9z"/>
	<path class="st6" d="M141.8,97.9c-0.1,0.6-0.4,0.6-0.9,0.6h-2.8c-0.9,0-1.8,0-2.7,0c-0.8,0-0.7,0.3-0.4,0.8
		c0.3,0.6,0.9,1.1,1.6,1.2c1,0.1,2,0.1,2.9-0.4c0.6-0.4,1.2-0.3,1.7,0.3c0.5,0.6,0.1,1.1-0.4,1.5c-1.7,1.5-5.2,1.6-7.2,0.1
		c-1.9-1.5-2.5-4.3-1.4-6.5s3.7-3.3,6.2-2.7C140.6,93.4,142.1,95.7,141.8,97.9z"/>
	<path class="st6" d="M82.9,97.8c0,2.8-2.3,5-5.3,5s-5.3-2.1-5.3-5c0-2.8,2.3-5.1,5.2-5.1C80.5,92.8,82.9,95,82.9,97.8z"/>
	<path class="st6" d="M186.6,99.5c0.1,1.4-0.8,2.6-2.4,3.1c-1.9,0.7-3.8,0.5-5.6-0.5c-0.7-0.4-1.3-0.8-0.9-1.7
		c0.3-0.7,1.1-0.8,2-0.3s1.9,0.6,2.9,0.5c0.4,0,0.8-0.2,0.9-0.7c0.1-0.5-0.4-0.7-0.8-0.8c-0.8-0.2-1.7-0.4-2.5-0.6
		c-1.6-0.4-2.4-1.3-2.5-2.7c-0.1-1.4,0.7-2.5,2.2-3.1c0.8-0.3,1.5-0.4,2.3-0.3c1.1,0,2.2,0.1,3.1,0.8c0.5,0.4,1,0.8,0.6,1.6
		c-0.4,0.7-1,0.8-1.7,0.4c-0.8-0.5-1.7-0.5-2.6-0.4c-0.4,0-0.8,0.2-0.8,0.6c-0.1,0.5,0.4,0.6,0.7,0.7c0.8,0.2,1.6,0.3,2.4,0.5
		C185.6,97.2,186.5,98.1,186.6,99.5z"/>
	<path class="st6" d="M130.2,102c0,0.5-0.2,0.8-0.8,0.7c-0.3,0-0.7,0-1,0c-0.7,0-0.9-0.3-0.8-0.9c0-1.4,0-2.8,0-4.2
		c0-0.6,0-1.2-0.4-1.7c-0.6-0.8-1.7-1.1-2.6-0.9c-1,0.3-1.5,1-1.5,2c0,1.6-0.1,3.2,0,4.8c0,0.7-0.2,0.9-0.9,0.9
		c-1.7,0-1.7,0-1.7-1.7v-3.2c0-1.3,0-2.6,0-3.9c0-0.6,0.1-1,0.7-1.2s1.1,0,1.4,0.5c0.2,0.4,0.4,0.4,0.8,0.2c1-0.6,2-0.7,3.1-0.7
		c2.1,0,3.7,1.6,3.8,3.9C130.2,98.4,130.2,100.2,130.2,102z"/>
	<path class="st6" d="M73.4,92.1c-0.8-0.1-1.5,0-2.3,0c-0.9-0.1-1.2,0.2-1.2,1.1c0.1,2.9,0,5.7,0,8.6c0,0.8-0.2,1.1-1,1
		c-1.7-0.1-1.7,0-1.7-1.7c0-2.7,0-5.4,0-8.1c0-0.8-0.2-1-1-1c-0.9,0.1-1.7,0-2.6,0c-0.6,0-0.9-0.2-0.9-0.8c-0.1-1.7-0.1-1.7,1.6-1.7
		h4.2c1.6,0,3.2,0.1,4.8,0c1.2,0,0.9,0.7,1,1.4C74.5,91.6,74.4,92.2,73.4,92.1z"/>
	<path class="st6" d="M91.1,102.1c-1.5,1-3.1,1.1-4.7,0.5c-1.4-0.5-1.8-1.7-1.8-3.1c0-0.5,0-1,0-1.6s0-1.1,0-1.7s0.2-1.4-0.9-1.2
		c-0.3,0-0.3-0.2-0.3-0.4c0-0.5,0-1,0-1.5c0-0.4,0.1-0.5,0.5-0.5c0.8,0.1,0.9-0.3,0.8-0.9c0-0.3,0-0.5,0-0.8c0-1.6,0-1.5,1.6-1.6
		c0.9,0,1.1,0.3,1,1.1c0,2.1,0,2.1,2.1,2.2c0.2,0,0.4,0,0.6,0c0.7,0.1,1.1,0.5,1.1,1.2c0,0.6-0.4,1-1.1,1.1c-0.6,0.1-1.3,0.1-2,0
		c-0.7,0-0.8,0.2-0.8,0.8c0,1,0,1.9,0,2.9c0,1.4,0.9,2,2.2,1.6c0.2-0.1,0.4-0.2,0.6-0.2c0.6-0.2,1.1,0,1.4,0.5
		C91.7,101.2,91.6,101.8,91.1,102.1z"/>
	<path class="st7" d="M110,71.2c-0.3,2.3-2.2,4.1-4.8,4.3c-0.8,0.1-1.5,0.1-2.3-0.1c-1.5-0.4-2.6-1.2-3-2.8
		c-0.1-0.6-0.3-1.1-0.5-1.7c0.2-0.2,0.5-0.3,0.8-0.3c2.9,0,5.8-0.2,8.7,0.2C109.4,70.9,109.8,70.9,110,71.2z"/>
	<path class="st8" d="M107.5,101.8c0,0.7-0.1,1-0.9,1c-1.9,0-1.9,0-1.9-1.9c0-3.2,0-6.5,0-9.8c0-1.1,0.5-1.6,1.4-1.6
		c0.9,0.1,1.3,0.6,1.3,1.5c0,1.8,0,3.7,0,5.5S107.4,100.1,107.5,101.8z"/>
	<path class="st9" d="M148.9,23.7c-0.2,2,0,4.1-0.1,6.1c0,0.7,0.1,1.3-0.1,2c0,0.1-0.1,0.1-0.1,0.2l0,0c-0.6,0.7-1.8,1-2.7,0.7l0,0
		c0,0,0,0-0.1,0h-0.1c-0.2-1.2,0.2-2.4,0.2-3.6c0-2.6,0-5.2,0-7.9c0-1,0-2.1,0.5-3c0.7-0.2,1.5-0.4,2.3-0.4c0.3,0.2,0.3,0.6,0.3,0.9
		C149,20.4,149.1,22,148.9,23.7z"/>
	<path class="st6" d="M150,93.7c0.1,0.8-0.5,1.1-1.2,1.2c-1.8,0.2-2.7,1.3-2.8,3.1c0,1.3,0,2.6,0,3.9c0,0.6-0.1,0.8-0.8,0.8
		c-1.8,0-1.8,0-1.8-1.7v-6.8c0-0.7,0-1.4,0.9-1.5s1.3,0.4,1.3,1.4c0.9-0.9,1.8-1.5,3-1.5C149.4,92.6,149.9,92.9,150,93.7z"/>
	<path class="st10" d="M150.9,30.8c0,0.2,0,0.4-0.1,0.6l-0.1,0.1l0,0c-0.6,0.5-1.2,0.7-2.1,0.4c0,0,0,0-0.1,0c0-2.5-0.1-5.1,0-7.6
		c0.1-2.2,0.1-4.4,0.2-6.6c0.4-0.2,0.9-0.2,1.4-0.2c0.1,0,0.1,0,0.2-0.1c0.4-0.1,0.7,0.1,0.8,0.6c0,0.3,0.1,0.5,0.1,0.8
		C151.1,22.9,151.2,26.8,150.9,30.8z"/>
	<path class="st11" d="M146.4,18.1c-0.3,4-0.1,7.9-0.2,11.9c0,0.9,0,1.8-0.4,2.7l0,0c-0.5,0.5-0.9,1-1.6,0.6l0,0
		c0,0-0.1-0.1-0.2-0.1c-0.2-0.5-0.1-1-0.2-1.5c-0.1-3.5,0.2-7,0.2-10.5c0-0.8,0-1.7-0.3-2.4C144.5,18.4,145.4,18.2,146.4,18.1z"/>
	<path class="st12" d="M164,20.3c-0.3,3.5-0.1,7-0.2,10.5c0,0.5,0.1,1.1-0.5,1.5c0,0-0.1,0-0.1,0.1l0,0c-0.9,0-1.8,0.3-2.4-0.6l0,0
		l0,0c0.5-1.3,0.5-2.7,0.5-4.1c0.1-2.6,0-5.2,0-7.9c0-0.9,0-1.8,0.5-2.6c0.4,0,0.8,0,1.3,0.1c0.1,0,0.2,0,0.2,0
		c0.5,0.1,0.7,0.5,0.7,1C164,18.9,164,19.6,164,20.3z"/>
	<path class="st13" d="M144.3,20.2c0,4.4-0.4,8.7-0.2,13.1l0,0c-0.4,0.8-1.2,0.9-1.9,1.2c-0.2,0.1-0.3,0-0.4-0.1
		c-0.1,0-0.1-0.1-0.1-0.2c0.5-5-0.1-10,0.5-15c0.5-0.3,0.9-0.4,1.5-0.4C144.4,19,144.3,19.7,144.3,20.2z"/>
	<path class="st14" d="M156.5,22.5c-0.2,2.4-0.1,4.8-0.2,7.1c0,0.5,0.1,1.1-0.2,1.6l0,0l0,0c-0.7,0.4-1.4,0.4-2.2,0l0,0l0,0
		c-0.2-0.4-0.3-0.8-0.2-1.2c0.4-3.5,0.1-7,0.2-10.4c0-0.9,0-1.7,0.5-2.5h0.3c0.1-0.1,0.2-0.1,0.3-0.1h0.3c1.1,0,1.2,0.1,1.2,1.1
		C156.5,19.6,156.6,21.1,156.5,22.5z"/>
	<path class="st15" d="M158.2,30.2c0,0.5,0,1-0.5,1.2l0,0c-0.1,0.1-0.2,0.1-0.3,0.1l0,0c-0.5,0.1-0.9,0.1-1.3-0.2l0,0
		c0-1.2,0-2.4,0-3.6c-0.1-3,0.3-5.9,0.2-8.9c-0.1-1.5,0-1.5-1.5-1.6c0.1,0,0.2-0.1,0.3-0.1c1-0.2,2.1-0.1,3.1-0.1
		c0.4,0.4,0.3,0.9,0.3,1.4C158.5,22.3,158.3,26.3,158.2,30.2z"/>
	<path class="st16" d="M138.9,53.1c-0.1,0-0.1,0.1-0.2,0.1c-0.1,0-0.2,0-0.3,0c-1.2-0.2-2.5-0.1-3.8-0.1l-0.1,0.1
		c-0.1,0-0.1,0.1-0.2,0.1c-0.2,0-0.3,0-0.5,0h-0.1l0,0c-0.1,0-0.1,0-0.1,0l0,0c-0.3-0.1-0.5-0.1-0.8-0.1h-0.1l0,0
		c-0.3,0-0.5,0-0.8,0c-0.1,0-0.2,0-0.3-0.1c-0.1,0-0.1,0-0.1,0c-0.3-0.1-0.5,0-0.8,0h-0.1l0,0c-0.2,0-0.4,0-0.6,0h-0.2
		c-0.2,0-0.3,0-0.5,0c0,0-0.1,0-0.2,0c-0.1,0-0.1,0-0.2,0c-0.2,0-0.4-0.1-0.7-0.1c-0.1,0-0.2,0-0.4,0c-0.1,0-0.2,0-0.3,0h-0.9
		c-0.3,0-0.6,0-0.9,0c-0.1,0-0.1,0-0.2,0c0,0,0,0-0.1,0c-0.3-0.1-0.6-0.1-0.8-0.2c0,0-0.1,0-0.2,0c0,0,0,0-0.1,0s-0.2,0-0.4-0.1
		c-0.1,0-0.1,0-0.2,0s-0.2,0-0.3,0c-0.1,0-0.2,0-0.3,0c-0.1,0-0.1,0-0.2,0l0,0c-1-0.2-2.1-0.2-3.1-0.4c-0.4,0-0.8,0-1-0.3
		c-0.8-0.1-1.6-0.3-2.3-0.4c3.6-0.4,7.2-0.2,10.8-0.2c1.8,0,3.6,0.2,5.4,0.3c2,0.1,4.1-0.2,6.1-0.1l0,0l0,0c0.1,0.1,0,0.2,0.1,0.3
		l0,0C138.8,52.1,138.9,52.6,138.9,53.1z"/>
	<path class="st17" d="M161.5,28.5c0,0.9-0.2,1.8-0.2,2.7c0,0.5-0.2,0.6-0.6,0.6l0,0c-0.6,0.3-1.1,0.5-1.5-0.2l0,0
		c0.1-0.6,0.2-1.2,0.2-1.8c0-3.3-0.1-6.7,0.2-10c0.1-0.9,0-1.8-0.3-2.6c0.8,0,1.7-0.1,2.5,0.1C161.4,20.9,161.7,24.7,161.5,28.5z"/>
	<path class="st18" d="M165.4,31.4c0,0.4,0,0.8-0.3,1.2H165h-0.1c-0.7,0.2-1.2,0.2-1.7-0.3c-0.1,0-0.1-0.1-0.2-0.2
		c0.6-0.1,0.4-0.5,0.4-0.9c0-1.4,0-2.7,0-4c-0.1-3,0.2-5.9,0.2-8.9c0-0.5-0.1-0.9-0.6-1.1c0.1,0,0.2,0,0.2,0c0.7,0,1.4,0.1,2.1,0.3
		c0.3,0.5,0.3,1,0.3,1.5C165.8,23.2,165.5,27.3,165.4,31.4z"/>
	<path class="st19" d="M159.7,30.7c0,0.3,0,0.7-0.5,0.8c-0.7,0.3-1.3,0.5-1.9,0c-0.1-0.1-0.2-0.1-0.2-0.2c0.6,0,0.7-0.4,0.7-0.9
		c0.2-4.5,0.2-9,0.2-13.5c0.4,0,0.8,0,1.2,0c0.5,0.2,0.7,0.5,0.6,1C159.8,22.2,159.6,26.5,159.7,30.7z"/>
	<path class="st20" d="M162,65.4c-2.1,1.9-4.1,3.8-6.2,5.8c-1.8,1.6-3.6,3.2-5.4,5l0,0h0.1l0,0v-0.1c0.5-0.2,1.1-0.1,1.6-0.1l0,0
		c0.1,0,0.1,0,0.2,0c0.3,0,0.5,0,0.8,0h0.2c0.3,0,0.6,0,0.8,0.3c-2,0.3-4.1,0.2-6.1,0c0.1-0.9,0.9-1.4,1.5-1.9
		c2.6-2.4,5.2-4.8,7.8-7.2c0.8-0.8,1.7-1.5,2.6-2.2c0.9-0.2,1.8-0.3,2.7-0.5C162.8,64.9,162.3,65.1,162,65.4z"/>
	<path class="st21" d="M159.9,64.8c-1.4,1.8-3.3,3.1-4.9,4.7c-1.1,1.2-2.4,2.1-3.5,3.3c-1.1,1.2-2.5,2.1-3.5,3.4
		c-0.7,0-1.4,0-2.1-0.2c-0.1-0.6,0.3-0.8,0.6-1.1c2.3-2.2,4.7-4.4,7.2-6.6c0.9-0.9,1.8-1.8,2.8-2.6c0.5-0.4,1-0.6,1.7-0.7
		C158.8,64.9,159.3,64.9,159.9,64.8z"/>
	<path class="st22" d="M153,19.8c-0.3,3.5-0.2,6.9-0.2,10.4c0,0.5-0.1,1-0.4,1.3c-0.1,0.1-0.2,0.2-0.4,0.2c-0.1,0-0.1,0-0.2,0.1
		c-0.4,0.1-0.8,0.1-1.1-0.1l0,0c0.2-4.3,0.2-8.7,0.2-13c0-0.5,0.1-1-0.7-1c0.1,0,0.1,0,0.2-0.1c0.5-0.2,1.1-0.2,1.7-0.2
		c0.1,0,0.1,0,0.2-0.1c0.5-0.1,0.7,0.2,0.8,0.7C153,18.6,153,19.2,153,19.8z"/>
	<path class="st6" d="M165.1,101.8c0,0.7-0.2,1-0.9,1c-1.7,0-1.7,0-1.7-1.7c0-2.2,0-4.5,0-6.7c0-1.1,0.8-1.8,1.7-1.5
		c0.7,0.2,0.9,0.7,0.9,1.3c0,1.3,0,2.6,0,3.8C165.1,99.3,165.1,100.6,165.1,101.8z"/>
	<path class="st23" d="M167.3,20c-0.3,3.5-0.1,7-0.2,10.5c0,0.6,0,1.1-0.2,1.6c-0.1,0.4-0.2,0.7-0.6,0.9l0,0h-0.1
		c-0.5,0.1-1,0-1.3-0.5c0,0,0-0.1-0.1-0.1c0.4-0.3,0.3-0.7,0.3-1c0.2-4.7,0.2-9.3,0.2-14c0.6,0,1.1,0.1,1.6,0.3
		C167.5,18.5,167.4,19.3,167.3,20z"/>
	<path class="st24" d="M142.4,21c-0.4,3.5-0.1,7-0.2,10.5c0,1-0.1,2-0.4,3c-0.1,0.5-0.4,0.7-0.9,0.6h-0.1c-0.3-2.7-0.2-5.3-0.1-8
		c0.2-2.4,0-4.9,0.1-7.3c0.4-0.3,0.9-0.3,1.4-0.5C142.7,19.7,142.5,20.4,142.4,21z"/>
	<path class="st25" d="M154.1,28.5c0,0.9-0.2,1.8-0.2,2.8c0,0,0,0-0.1,0c-0.6,0.3-1.2,0.6-1.9,0.3c-0.1,0-0.2-0.1-0.3-0.2
		c0.7-0.1,0.9-0.5,0.8-1.2c0-2.2,0-4.3,0-6.4c0-1.9,0.3-3.7,0.2-5.6c0-0.5-0.1-0.9-0.7-0.9c0.1,0,0.1,0,0.2-0.1
		c0.7-0.2,1.4-0.1,2.1-0.1C153.9,20.9,154.2,24.7,154.1,28.5z"/>
	<path class="st26" d="M168.5,63.9c-2,1.8-3.9,3.6-5.9,5.4c-1.5,1.3-2.9,2.7-4.4,4c-1.1,1-2.1,2-3.3,2.8c-0.3,0-0.5,0-0.8,0
		s-0.6,0-0.9,0c0-0.1-0.1-0.2-0.1-0.3c-0.1-0.4,0.3-0.6,0.6-0.8c2.1-1.9,4.3-3.7,6.3-5.6c1.4-1.3,2.8-2.5,4.2-3.9
		c0.9-0.9,1.9-1.7,2.9-2.5c0.6-0.2,1.2-0.3,1.9-0.5C169.3,63.2,168.8,63.6,168.5,63.9z"/>
	<path class="st27" d="M158.2,65c-1,0.2-1.6,0.9-2.3,1.5c-2.3,2.1-4.5,4.2-6.8,6.3c-1.1,1-2.3,1.9-3.2,3.1c-0.6,0.1-1.2-0.1-1.9-0.2
		c0.2-1.1,1.2-1.6,1.9-2.2c2.1-1.9,4.2-3.9,6.3-5.8c0.9-0.9,1.9-1.7,2.8-2.6C156.2,65.1,157.2,65.1,158.2,65z"/>
	<path class="st28" d="M164.3,65c-2.2,2-4.4,4.1-6.6,6.1c-1.2,1.1-2.4,2.2-3.6,3.4c-0.5,0.5-1.1,1-1.7,1.5c-0.1,0.1-0.2,0.2-0.4,0.3
		h-2c0.9-0.9,1.5-1.7,2.3-2.3c1.2-0.9,2.1-2,3.2-2.9c2.3-2,4.6-4.2,6.8-6.3c0.1-0.1,0.1-0.2,0.2-0.3c0.7-0.3,1.5-0.4,2.3-0.6
		C165,64.3,164.6,64.7,164.3,65z"/>
	<path class="st29" d="M172,62.2c-0.4,0-0.8,0-1.1,0.4c-2.2,2.1-4.4,4.2-6.6,6.2c-2.1,1.9-4.2,3.8-6.3,5.7c-0.5,0.4-0.9,0.8-1.1,1.5
		c-0.6,0.2-1.2,0.2-1.9,0.2c1.3-1.6,3-2.9,4.5-4.3c1-1,2-2,3.1-2.9c2-1.6,3.8-3.4,5.6-5.2c0.4-0.4,0.8-0.7,0.9-1.3
		c0.9-0.3,1.7-0.7,2.6-0.5C171.8,62.2,171.9,62.2,172,62.2z"/>
	<path class="st30" d="M168,28.2c-0.1,1.4-0.1,2.9-0.2,4.3c0,0.4,0.1,0.8-0.5,0.9l0,0c-0.5,0.2-0.9,0.2-1.1-0.3c0,0-0.1-0.1-0.1-0.2
		c0.7-0.5,0.6-1.2,0.6-1.9c0-1.8,0.1-3.6,0-5.4c-0.1-2.6,0.3-5.2,0.2-7.9c0.4-0.1,0.7,0.1,1.1,0.2C168,21.4,168.1,24.8,168,28.2z"/>
	<path class="st31" d="M106.5,51.6c0.1,0.9-0.1,1-1.1,1c-2.8,0.1-5.6-0.1-8.4-0.3c-0.9-0.1-1.8-0.1-2.7,0c-0.6,0.1-1.2,0.2-1.8-0.3
		c-0.3-0.4-0.7-0.8-1-1.2c1.3-0.4,2.7-0.2,4,0c2.7,0.3,5.4,0.3,8.2,0.2c0.4,0,0.8,0,1.1,0c0.7,0.1,1.3-0.2,1.7-0.8
		c-0.1,0.1-0.1,0.2-0.1,0.3c0,0.3,0.1,0.6,0,0.9C106.5,51.5,106.5,51.5,106.5,51.6z"/>
	<path class="st32" d="M155.1,65.2c-0.1,0.7-0.8,0.9-1.2,1.3c-2.2,2.1-4.4,4.2-6.7,6.2c-1.1,1-2.2,1.8-3.1,3
		c-0.4,0.1-0.8-0.1-1.2-0.2c-0.3-0.5,0.2-0.8,0.4-1c2.2-2.1,4.4-4.1,6.6-6.1c1.1-1,2-2.1,3.2-2.9c0.2-0.1,0.3-0.4,0.6-0.3
		C154.2,65.2,154.7,65.2,155.1,65.2z"/>
	<path class="st33" d="M167.2,63.1c-2.3,2.3-4.8,4.5-7.2,6.7c-1.2,1.1-2.5,2.1-3.7,3.2c-0.7,0.6-1.3,1.4-2.1,2
		c-0.3,0.2-0.7,0.5-0.9,0.9c0,0.1,0,0.2-0.1,0.3c-0.4,0-0.8,0-1.2,0c0.1-0.1,0.1-0.2,0.2-0.3c0.6-0.9,1.5-1.5,2.2-2.2
		c1.2-1,2.3-2.2,3.5-3.2c2.1-1.8,4.1-3.8,6.2-5.7c0.3-0.3,0.6-0.7,0.8-1.1C165.7,63.5,166.4,63.3,167.2,63.1z"/>
	<path class="st34" d="M106.9,53.3c-0.4,0.5-1,0.5-1.5,0.5c-1.8,0.1-3.6-0.1-5.4-0.3c-2-0.2-3.9-0.2-5.9-0.1c-0.3,0-0.6,0-0.9-0.2
		c-0.2-0.4-0.5-0.8-0.7-1.2c2.3-0.3,4.6-0.2,6.9,0c2.1,0.2,4.1,0.1,6.2,0.2c0.6,0,0.9-0.2,0.9-0.7c0-0.1,0-0.1,0-0.2
		C106.7,52,106.8,52.7,106.9,53.3z"/>
	<path class="st35" d="M148.3,64.3c-2.6,2.6-5.4,5-8.1,7.5c-0.8,0.8-1.6,1.6-2.4,2.4c-0.5-0.2-1-0.3-1.5-0.5
		c-0.2-0.4,0.1-0.6,0.3-0.8c1.9-1.7,3.9-3.4,5.7-5.2c1.1-1.1,2.4-2,3.5-3.2c0.2-0.3,0.6-0.5,0.9-0.6C147.3,64,147.8,64.2,148.3,64.3
		z"/>
	<path class="st36" d="M150.8,53.5c0,0.3,0,0.6-0.3,0.9c-0.3,0-0.7,0-1,0c-0.4-0.5-0.5-1.2-0.5-1.8c-0.1-3.6-0.4-7.2-0.5-10.7
		c0-0.5-0.1-1,0.2-1.5c0,0,0-0.1,0.1-0.1l0,0c0.2-0.2,0.5-0.2,0.8-0.1c0.1,0,0.2,0.1,0.3,0.2c0,0,0,0,0,0.1l0,0c0,0,0,0,0,0.1
		c0,0,0,0,0,0.1l0,0c0.5,1.5,0.2,3,0.3,4.5C150.7,47.8,150.7,50.7,150.8,53.5z"/>
	<path class="st37" d="M107.1,54.6c-0.3,0.3-0.8,0.3-1.2,0.3c-2.4,0.1-4.8-0.1-7.1-0.3c-1-0.1-2.1-0.1-3.1,0
		c-0.7,0.1-1.5,0.2-2.1-0.2c-0.2-0.3-0.3-0.7-0.4-1c3.1-0.5,6.2-0.1,9.3,0.1c1.5,0.1,3,0.2,4.4-0.1
		C107.1,53.7,107.1,54.1,107.1,54.6z"/>
	<path class="st38" d="M107.5,56.6c-1.1,0.7-2.3,0.6-3.5,0.5c-2.8-0.3-5.6-0.4-8.4-0.4c-0.4,0-0.9,0.2-1.2-0.3
		c-0.1-0.3-0.3-0.7-0.4-1c1.1-0.5,2.3-0.5,3.4-0.5c2.8,0.2,5.6,0.4,8.4,0.4c0.5,0,1,0,1.5,0.3C107.5,55.9,107.5,56.3,107.5,56.6z"/>
	<path class="st39" d="M149.5,54.3c-0.9,0-1.7,0.1-2.5-0.2c0.1-0.2,0.4-0.3,0.6-0.3c0.1,0,0.1,0,0.2,0c0.1,0,0.1,0,0.2-0.1
		c0.2-0.1,0.2-0.4,0.2-0.8c-0.2-3.8-0.4-7.7-0.6-11.5c0-0.4,0-0.8-0.3-1h-0.1l0,0c-0.2-0.1-0.4-0.2-0.3-0.4l0,0v-0.1
		c0.7-0.3,1.4-0.2,2,0.3l0,0c0.1,4.1,0.3,8.2,0.4,12.3C149.3,53.1,149.6,53.7,149.5,54.3z"/>
	<path class="st40" d="M107.7,57.7c-0.1,0.7-0.7,0.5-1.2,0.5c-2,0.1-4.1-0.1-6.1-0.3c-1.1-0.1-2.3-0.1-3.4,0
		c-0.7,0.1-1.5,0.2-2.2-0.2c-0.2-0.4-0.3-0.8-0.4-1.2c1.1,0,2.2,0,3.3,0c2.1,0,4.2,0.1,6.3,0.4c1.2,0.2,2.3-0.1,3.5-0.2
		C107.7,57,107.7,57.3,107.7,57.7z"/>
	<path class="st41" d="M108.1,59.7c-0.1,0.8-0.7,0.7-1.3,0.7c-1.3,0.1-2.7-0.1-4-0.2C100.9,60,99,60.1,97,60c-0.5,0-1,0-1.5-0.3
		c-0.3-0.3-0.2-0.7-0.4-1c1.2-0.5,2.5-0.6,3.7-0.5c2.7,0.2,5.4,0.4,8.1,0.4c0.3,0,0.5,0,0.8,0.1C108.2,59,108.2,59.4,108.1,59.7z"/>
	<path class="st42" d="M107.3,55.6c-2.9,0.1-5.8,0.1-8.7-0.3c-1.6-0.2-3.1,0.2-4.6,0c-0.3-0.3-0.3-0.7-0.4-1c4.5-0.5,9,0.5,13.5,0.2
		C107.3,54.9,107.3,55.2,107.3,55.6z"/>
	<path class="st43" d="M149.7,65.7c-2.4,2.2-4.8,4.4-7.1,6.6c-0.9,0.8-1.9,1.6-2.7,2.6c-0.4-0.1-0.8-0.2-1.2-0.4
		c-0.3-0.5,0.1-0.8,0.4-1c3.2-2.8,6.3-5.8,9.5-8.7c0.2-0.1,0.3-0.2,0.5-0.3c0.3,0,0.7,0,1,0.2C150.4,65.2,150,65.5,149.7,65.7z"/>
	<path class="st44" d="M107.7,61.5c-0.8,0.1-1.6,0.1-2.4,0c-2.6-0.2-5.1-0.4-7.7-0.2c-0.5,0-1,0.1-1.5-0.3c-0.2-0.4-0.3-0.8-0.5-1.2
		c3.7-0.1,7.4,0.2,11.1,0.4c0.5,0,1.1,0,1.4-0.4c0.2,0.3,0.2,0.7,0.2,1C108.6,61.4,108,61.4,107.7,61.5z"/>
	<path class="st45" d="M110,71.2c-3.5-0.4-7.1-0.2-10.6-0.2c-0.1-0.4-0.3-0.8-0.4-1.2c1.2-0.6,2.5-0.5,3.8-0.4
		c1.9,0.1,3.8,0.3,5.7,0.3c0.7,0,1.1-0.2,1.4-0.8l0.1-0.1l0,0l0,0C110.3,69.5,110.3,70.4,110,71.2z"/>
	<path class="st46" d="M108.2,64.8c-0.7,0.1-1.3,0.1-2,0c-2.6-0.2-5.2-0.4-7.9-0.4c-0.4,0-0.9,0.2-1.2-0.3c-0.1-0.4-0.3-0.8-0.4-1.2
		c2.2-0.6,4.3-0.1,6.5,0c1.9,0.1,3.7,0.2,5.6,0c0.2,0.3,0.2,0.7,0.2,1C109.2,64.6,108.7,64.7,108.2,64.8z"/>
	<path class="st47" d="M151.7,54.2C151.7,54.3,151.7,54.3,151.7,54.2C151.7,54.3,151.7,54.3,151.7,54.2c-0.1,0.1-0.2,0.2-0.2,0.2
		c-0.1,0-0.1,0-0.2,0c-0.3,0-0.5,0-0.8,0c-0.3-2.1-0.2-4.2-0.3-6.2c-0.1-1.9-0.5-3.8-0.2-5.7c0.1-0.7-0.1-1.4-0.2-2c0,0,0,0,0.1-0.1
		c0,0,0,0,0.1-0.1c0,0,0.1,0,0.1-0.1l0,0c0.2-0.1,0.3-0.1,0.5,0l0,0c0.1,0,0.1,0.1,0.2,0.1l0,0c0,0,0,0,0,0.1c0,0,0,0,0.1,0.1l0,0
		c0.1,0.2,0.2,0.5,0.2,0.8c0,3.8,0.5,7.6,0.4,11.4C151.7,53.2,152,53.7,151.7,54.2z"/>
	<path class="st48" d="M157.6,54.5h-1c-0.4-0.4-0.5-0.9-0.5-1.4c-0.1-3.8-0.4-7.5-0.5-11.3c0-0.4,0-0.9,0.2-1.3l0,0l0,0
		c0.2-0.2,0.5-0.2,0.8-0.1l0.1,0.1c0,0,0.1,0,0.1,0.1c0.4,0.3,0.3,0.8,0.3,1.3c-0.1,0.7,0,1.4,0,2.1c0.1,2.5,0.4,5,0.3,7.5
		c0,0.7,0.2,1.4,0.2,2.1C157.8,53.8,157.9,54.2,157.6,54.5z"/>
	<path class="st49" d="M107.9,58.7c-0.3,0.3-0.6,0.2-1,0.2c-2.6,0-5.2-0.1-7.8-0.4c-1.3-0.2-2.6,0.3-3.9,0.2c-0.3-0.3-0.3-0.7-0.4-1
		c1.5,0.1,3.1-0.3,4.6-0.2c2.4,0.2,4.8,0.5,7.2,0.4c0.4,0,0.8,0.1,1.1-0.2C107.9,58,107.9,58.3,107.9,58.7z"/>
	<path class="st50" d="M149.1,64.5c-1,1.4-2.4,2.3-3.6,3.5c-1.7,1.6-3.5,3.1-5.1,4.8c-0.6,0.6-1.5,0.8-1.7,1.7
		c-0.3-0.1-0.6-0.2-0.8-0.2c0.2-1.2,1.3-1.7,2.1-2.5c1.1-1.1,2.3-2,3.5-3.1c1.4-1.3,2.8-2.6,4.1-3.9c0.2-0.2,0.5-0.4,0.8-0.4
		C148.6,64.3,148.9,64.3,149.1,64.5z"/>
	<path class="st51" d="M150.7,66.1c-3,2.6-5.8,5.4-8.8,8c-0.3,0.3-0.6,0.6-0.9,1c-0.3-0.1-0.7-0.2-1-0.2c0-0.9,0.9-1.3,1.4-1.8
		c1.1-1.1,2.3-2,3.4-3c1.7-1.5,3.3-3.1,5-4.6c0.2-0.2,0.4-0.4,0.4-0.7c0.4,0,0.7,0,1,0.3C151.5,65.6,151,65.8,150.7,66.1z"/>
	<path class="st52" d="M110,68.7L110,68.7c-0.9,0.7-1.9,0.6-2.9,0.5c-2.3-0.2-4.7-0.4-7-0.4c-0.5,0-1,0-1.5-0.3
		c-0.1-0.3-0.2-0.7-0.3-1c0.3-0.6,0.8-0.5,1.3-0.6c1-0.1,2.1,0.1,3.1,0.2c2,0.1,4,0.2,6,0.2c0.4,0,0.8,0,1.1,0.3
		C110,68,110,68.3,110,68.7z"/>
	<path class="st53" d="M146.8,63.9c-2.7,2.7-5.4,5.2-8.3,7.7c-0.8,0.7-1.5,1.4-2.2,2.1c-0.3-0.1-0.6-0.2-0.9-0.4
		c-0.2-0.5,0.2-0.8,0.5-1c2.2-1.9,4.2-4,6.4-5.8c0.7-0.6,1.3-1.3,2-1.9c0.5-0.4,0.9-1.1,1.7-0.9C146.4,63.7,146.7,63.7,146.8,63.9z"
		/>
	<path class="st54" d="M108.8,62.8c-0.1,0.5-0.4,0.5-0.8,0.5c-2.7,0-5.4,0-8.1-0.4c-0.6-0.1-1.2-0.1-1.7,0.1c-0.5,0.2-1,0.2-1.4-0.1
		c-0.1-0.3-0.2-0.5-0.3-0.8c1.4-0.6,2.9-0.5,4.4-0.5c2.6,0.1,5.1,0.5,7.7,0.2C108.8,62.1,108.8,62.5,108.8,62.8z"/>
	<path class="st55" d="M108.6,61.8c-0.1,0.5-0.4,0.4-0.8,0.5c-2.4,0-4.9-0.1-7.3-0.4c-1.4-0.2-2.7,0.3-4.1,0.2
		c-0.1-0.4-0.2-0.7-0.3-1.1c1.2,0,2.4-0.1,3.6-0.1c1.5-0.1,3.1,0.1,4.7,0.3c1.2,0.1,2.3,0,3.5,0.1c0.3,0,0.4-0.2,0.5-0.5
		C108.6,61.1,108.6,61.4,108.6,61.8z"/>
	<path class="st56" d="M141.3,53.6C141.3,53.6,141.3,53.7,141.3,53.6C141.3,53.7,141.3,53.7,141.3,53.6c-0.1,0.1-0.1,0.2-0.2,0.2
		c-0.1,0-0.1,0-0.2-0.1c-0.3,0-0.5,0-0.8,0c0.4-1,0.1-2,0-2.9c-0.1-2.4-0.2-4.8-0.2-7.2c0-0.5-0.1-0.8-0.4-1.1c0.2-0.5,0.2-1,0-1.4
		c0.2-0.7,0.5-1.4-0.4-1.8c0.1-0.1,0.2-0.1,0.2-0.2c0.5-0.2,0.9,0,1.3,0.3c0,0,0,0,0,0.1c0,0,0,0,0,0.1c0.3,1,0.4,2,0.4,3
		c0,2.5,0.2,5.1,0.3,7.6C141.5,51.3,141.6,52.5,141.3,53.6z"/>
	<path class="st57" d="M152.1,65.9c-1.9,1.7-3.7,3.5-5.6,5.2c-1.2,1.1-2.5,2.1-3.6,3.4c-0.4,0.5-0.8,0.9-1.6,0.7c-0.1,0-0.2,0-0.4,0
		c-0.2-0.4,0.1-0.6,0.3-0.8c1.2-1.1,2.5-2.2,3.7-3.3c2-1.8,3.9-3.6,5.9-5.4c0.2-0.2,0.3-0.4,0.3-0.6c0.4-0.1,0.8-0.1,1.2,0
		C152.7,65.4,152.4,65.7,152.1,65.9z"/>
	<path class="st58" d="M108.5,66.9c-0.8,0.1-1.6,0.1-2.4,0c-2.6-0.1-5.2-0.5-7.8-0.4c-0.1,0-0.3-0.1-0.4-0.1
		c-0.3-0.4-0.4-0.8-0.4-1.2c1.6-0.6,3.3-0.3,4.9-0.2c1.5,0.1,2.9,0.2,4.3,0.3c0.8,0,1.6-0.2,2.4-0.4c0.2,0.3,0.2,0.6,0.2,0.9
		C109.7,66.6,109.1,66.8,108.5,66.9z"/>
	<path class="st59" d="M109.8,67.7c-3.4,0.1-6.7-0.2-10.1-0.4c-0.5,0-1,0-1.4,0.2c-0.1-0.4-0.2-0.7-0.3-1.1c1.3-0.4,2.6-0.2,3.9-0.1
		c2.2,0.2,4.4,0.4,6.7,0.3c0.5,0,0.9-0.2,0.9-0.9C109.6,66.4,109.8,67,109.8,67.7z"/>
	<path class="st60" d="M153.7,65.1c-2.1,2-4.3,4-6.4,5.9c-1.4,1.3-2.8,2.6-4.1,3.9c-0.2,0.1-0.3,0.3-0.3,0.5c-0.5,0-1-0.1-1.5-0.4
		c1.3-0.2,1.8-1.5,2.7-2.2c2.2-1.8,4.3-3.9,6.4-5.9c0.7-0.6,1.7-1,1.9-2.1C152.9,65,153.3,65,153.7,65.1z"/>
	<path class="st61" d="M109.2,64.9c-0.1,0.4-0.3,0.4-0.6,0.5c-1.9,0.5-3.8,0-5.6-0.1c-1.7-0.1-3.4-0.2-5.1,0c-0.1,0-0.2-0.1-0.3-0.1
		c-0.2-0.3-0.3-0.7-0.4-1c0.6,0,1.3,0,1.9,0c2.9-0.1,5.7,0.4,8.6,0.4c0.5,0,1.2,0.1,1.3-0.7C109.2,64.2,109.2,64.5,109.2,64.9z"/>
	<path class="st62" d="M159.5,54.1c0,0.2-0.1,0.3-0.2,0.5h-1c-0.3-0.3-0.3-0.6-0.3-1c-0.1-3.4-0.4-6.8-0.4-10.2c0-0.5,0-1-0.1-1.5
		s-0.1-0.9,0.1-1.3l0,0l0,0c0.2-0.2,0.5-0.2,0.8-0.1c0,0,0.1,0,0.1,0.1c0,0,0.1,0,0.1,0.1c0.4,0.4,0.3,0.9,0.3,1.3
		c0,2.6,0.2,5.2,0.4,7.8c0,0,0,0.1,0,0.2c0,0.1,0,0.2,0,0.3C159.4,51.3,159.3,52.7,159.5,54.1z"/>
	<path class="st63" d="M166.4,54.1c-0.1,0-0.3,0-0.4,0c-0.3-0.3-0.5-0.6-0.5-1c-0.1-0.2-0.1-0.5-0.1-0.7c0,0,0,0,0-0.1
		c0-0.4,0-0.9,0-1.3c0-0.7,0-1.3,0-2c-0.2-2.9-0.4-5.8-0.4-8.7c0-0.1,0-0.3,0.1-0.4c0,0,0,0,0-0.1l0,0c0.1-0.1,0.2-0.1,0.4,0l0,0
		c0.2,0.1,0.6-0.1,0.6,0.4c0.1,2.4,0.1,4.8,0.3,7.2c0.2,1.8-0.1,3.7,0.4,5.5C166.9,53.5,166.8,53.9,166.4,54.1z"/>
	<path class="st64" d="M108.9,70c-2.1-0.1-4.2-0.2-6.3-0.4c-1.2-0.2-2.3,0.2-3.5,0.2c-0.1-0.4-0.3-0.8-0.4-1.2c2.9,0,5.8,0,8.6,0.4
		c0.9,0.1,1.8-0.1,2.8-0.2l0,0C110.2,69.6,109.9,70,108.9,70z"/>
	<path class="st65" d="M142.9,53.9c-0.6,0-1.2,0-1.7-0.1c-0.1,0-0.1,0-0.2-0.1c0.1,0,0.2,0,0.3-0.1c0,0,0.1,0,0.1-0.1
		c0.5-0.4,0.4-1,0.4-1.6c-0.2-2.6-0.2-5.2-0.4-7.8c-0.1-1.6,0-3.2-0.5-4.8l0,0l0,0c0.6-0.5,1.1-0.2,1.6,0.1l0,0l0,0
		c0.1,0.2,0.1,0.4,0.2,0.6c0,0.1,0,0.2,0.1,0.3c0.1,0.5,0.1,1.1,0.1,1.6c0.1,2.8,0.2,5.6,0.4,8.4C143.1,51.7,143.3,52.8,142.9,53.9z
		"/>
	<path class="st66" d="M144.8,53.6C144.8,53.6,144.7,53.6,144.8,53.6c0,0.1-0.1,0.2-0.1,0.3c0,0,0,0,0,0.1c-0.2,0.1-0.4,0.1-0.6,0.1
		c-0.1,0-0.2,0-0.2,0c-0.1,0-0.2,0-0.3,0c-0.2-0.2-0.3-0.6-0.2-0.9c0.2-0.9,0-1.7-0.1-2.6c-0.2-2.9-0.3-5.8-0.4-8.7
		c0-0.4-0.1-0.8-0.2-1.2c0-0.1,0-0.2-0.1-0.3c0-0.2-0.1-0.4-0.1-0.6l0,0l0,0c0,0,0,0,0-0.1c0.6-0.3,1.1-0.2,1.5,0.3l0,0l0,0l0,0
		c0.3,1.8,0.3,3.7,0.4,5.6c0.1,2.4,0.2,4.9,0.4,7.3C144.8,53.1,144.8,53.4,144.8,53.6z"/>
	<path class="st67" d="M146.2,54.1c-0.7,0-1.4,0.1-2.2-0.1c-0.1,0-0.2,0-0.2,0c0.2,0,0.5,0,0.7-0.1c0.1-0.1,0.2-0.2,0.2-0.3l0,0
		c0.3-0.5,0.3-1.1,0.2-1.7c-0.2-2.7-0.4-5.4-0.4-8.1c0-1.2-0.4-2.5-0.2-3.7c0,0,0,0,0.1-0.1l0,0c0,0,0,0,0.1-0.1
		c0.1,0,0.1-0.1,0.2-0.1c0.2-0.1,0.5,0,0.7,0c0.1,0,0.1,0.1,0.1,0.1l0,0l0.1,0.1c0.5,1.4,0.2,2.9,0.3,4.4c0.3,2.9,0.2,5.8,0.4,8.6
		C146.5,53.5,146.4,53.9,146.2,54.1z"/>
	<path class="st68" d="M156.6,54.5h-1c-0.2-0.2-0.2-0.5-0.2-0.8c0-2.7-0.2-5.4-0.4-8.1c-0.1-1.5,0-3-0.2-4.5c0-0.2,0-0.5,0.2-0.7
		l0,0l0,0c0.4-0.2,0.7-0.3,1,0.1l0,0c0.1,4.2,0.3,8.3,0.4,12.5C156.4,53.5,156.7,54,156.6,54.5z"/>
	<path class="st69" d="M139.4,61.8c-2.4,2.3-4.8,4.5-7.2,6.7c-0.8,0.7-1.4,1.5-2.2,2.1c-0.3-0.2-0.6-0.4-0.8-0.5
		c-0.1-0.7,0.5-1,1-1.4c2.5-2.3,5-4.6,7.5-6.9c0.5-0.5,1-1,1.7-1.3c0.3,0,0.5,0.2,0.6,0.4C140.1,61.3,139.7,61.5,139.4,61.8z"/>
	<path class="st70" d="M132.8,53.1L132.8,53.1c-0.4,1-1.3,1.7-2.1,2.4c-1.6,1.4-3.2,2.9-4.7,4.4c-0.9,0.9-1.9,1.6-2.8,2.5
		c-0.2,0.2-0.4,0.4-0.7,0.3c-0.2-0.3-0.3-0.6-0.5-0.8c0.1-0.5,0.5-0.8,0.9-1.1c2.6-2.3,5.2-4.8,7.8-7.2c0.2-0.2,0.4-0.5,0.7-0.6
		c0.1,0,0.2-0.1,0.2-0.1c0.3,0,0.7,0,1,0l0,0l0,0C132.7,53,132.7,53,132.8,53.1L132.8,53.1L132.8,53.1z"/>
	<path class="st71" d="M142.5,62.2c-2.2,2-4.3,4-6.5,5.9c-1.1,1-2.1,2.2-3.4,3.1c-0.2,0.2-0.4,0.4-0.7,0.5c-0.3-0.1-0.6-0.2-0.8-0.4
		c-0.1-0.3,0-0.5,0.2-0.6c1.8-1.6,3.5-3.3,5.3-4.9c1.3-1.2,2.5-2.4,3.8-3.5c0.3-0.3,0.6-0.6,1.2-0.4C142,61.9,142.3,62,142.5,62.2z"
		/>
	<path class="st72" d="M162.2,54.4c-0.7,0.2-1.4,0.1-2.1,0.1c0-0.4,0.3-0.4,0.6-0.5c0,0,0,0,0.1,0s0.1,0,0.2-0.1l0,0
		c0.2-0.1,0.2-0.3,0.2-0.6c-0.1-3-0.3-6.1-0.4-9.2c-0.1-1.2-0.3-2.5,0.2-3.8l0,0c0,0,0,0,0-0.1c0.2-0.1,0.5-0.1,0.7,0l0,0l0,0
		c0.6,1.2,0.5,2.5,0.5,3.8c0.1,0.8,0,1.6,0.1,2.4c0.2,2,0,4,0.4,6C162.7,53.2,162.6,53.9,162.2,54.4z"/>
	<path class="st73" d="M135.1,56.5c-3.2,3-6.5,6-9.7,9c-0.2,0.2-0.4,0.5-0.8,0.3c-0.3-0.1-0.3-0.4-0.4-0.6c0.6-1,1.5-1.8,2.4-2.6
		c2.6-2.4,5.2-4.7,7.7-7.1c0.2-0.2,0.5-0.5,0.8-0.6c0.2,0.2,0.3,0.5,0.4,0.8C135.5,56.1,135.3,56.3,135.1,56.5z"/>
	<path class="st74" d="M161,54L161,54c-0.1,0.1-0.1,0.3-0.2,0.4c-0.2,0-0.5,0-0.6,0.2c-0.1,0-0.2,0-0.2,0c-0.4-0.6-0.5-1.2-0.4-1.9
		c0.1-0.9-0.1-1.8-0.1-2.7c0-0.1,0-0.2,0-0.3c0,0,0-0.1,0-0.2c0-0.3,0-0.5,0-0.8c0.1-2-0.4-3.9-0.2-5.9c0.1-0.8-0.4-1.6,0.1-2.4l0,0
		l0,0c0.3-0.2,0.6-0.2,0.9,0l0,0c0,0,0,0,0,0.1c0.4,1.4,0.4,2.9,0.4,4.3c0.1,2.6,0.2,5.2,0.4,7.8C161.1,53,161.2,53.5,161,54z"/>
	<path class="st75" d="M158.2,54.5h-0.6c-0.6-2.4-0.4-4.9-0.5-7.3c0-1.9-0.7-3.8-0.2-5.7c0.1-0.4,0-0.8-0.2-1.1c0,0,0.1,0,0.1-0.1
		c0.2-0.2,0.5-0.2,0.7,0l0,0C157.9,45.1,158.2,49.8,158.2,54.5z"/>
	<path class="st76" d="M147.9,53.8c-0.1,0.1-0.2,0.2-0.3,0.3c-0.2,0-0.5,0-0.7,0.1h-0.1h-0.1c-0.2-0.3-0.3-0.6-0.3-1
		c0.1-2.2-0.2-4.5-0.3-6.7c-0.1-1.8,0-3.6-0.3-5.4c0-0.4-0.1-0.7,0.1-1l0,0l0,0c0.2-0.2,0.4-0.2,0.6,0l0,0l0,0
		c0.1,0.1,0.3,0.1,0.4,0.2c0,0.1,0,0.2,0,0.3c0.2,1.4,0.3,2.9,0.3,4.3c0,0.8,0,1.6,0.1,2.5c0.2,1.9,0,3.9,0.3,5.8
		C148.1,53.4,148,53.6,147.9,53.8z"/>
	<path class="st77" d="M134.4,53.8c0,0.1-0.1,0.2-0.2,0.3c0,0,0,0-0.1,0.1c-0.4,0.4-0.8,0.8-1.3,1.2c-0.1,0.1-0.2,0.1-0.3,0.2l0,0
		c-0.1,0.1-0.2,0.2-0.3,0.4c-0.1,0.1-0.2,0.2-0.2,0.3c-0.4,0.7-1.1,1.1-1.7,1.6c-1.9,1.8-3.9,3.6-5.8,5.4c-0.4,0.3-0.7,0.8-1.3,0.5
		c-0.1-0.1-0.2-0.3-0.3-0.4c0.5-0.9,1.3-1.5,2-2.2c2.6-2.5,5.5-4.9,8-7.4c0.2-0.2,0.4-0.4,0.7-0.4h0.1h0.1c0.3,0,0.4,0,0.5,0.1
		C134.5,53.4,134.5,53.6,134.4,53.8z"/>
	<path class="st78" d="M135.8,56.5c0.1,0.6-0.4,0.9-0.7,1.2c-2.5,2.2-4.9,4.5-7.3,6.7c-0.6,0.6-1.3,1.1-2,1.7
		c-0.2,0.2-0.5,0.4-0.8,0.2c-0.1-0.1-0.3-0.3-0.4-0.4c1-0.7,1.8-1.6,2.7-2.4c2.7-2.4,5.3-4.9,8-7.3c0.1-0.1,0.1-0.2,0.2-0.3
		C135.5,56,135.7,56.2,135.8,56.5z"/>
	<path class="st79" d="M140.1,62.3c-2.6,2.4-5.3,4.8-7.8,7.3c-0.5,0.5-1.1,1-1.7,1.4c-0.2-0.1-0.4-0.3-0.6-0.4
		c0.5-1,1.5-1.7,2.3-2.5c2.5-2.4,5.4-4.6,7.7-7.3c0.2,0.1,0.4,0.3,0.6,0.4C140.8,61.7,140.4,62,140.1,62.3z"/>
	<path class="st80" d="M137.5,59.4c-2.8,2.5-5.4,5.1-8.3,7.6c-0.4,0.3-0.7,0.7-1.1,1.1c-0.2,0.2-0.5,0.6-0.9,0.4
		c-0.2-0.2-0.5-0.4-0.7-0.6c2.7-2.7,5.6-5.3,8.4-7.8c0.7-0.6,1.2-1.4,2.1-1.8c0.2,0.2,0.4,0.4,0.6,0.6
		C137.8,59.1,137.7,59.3,137.5,59.4z"/>
	<path class="st81" d="M134.5,55c-2.8,2.5-5.5,5.1-8.3,7.6c-0.6,0.5-1.1,1.1-1.7,1.6c-0.3,0.2-0.5,0.6-1,0.5
		c-0.3-0.2-0.4-0.5-0.5-0.9c0.3,0,0.6-0.1,0.8-0.3c1.9-1.8,3.8-3.5,5.7-5.3c0.7-0.7,1.7-1.1,2.2-2c0.3-0.2,0.6-0.5,0.8-0.8
		c0.4-0.3,0.8-0.7,1.2-1c0.2-0.1,0.3-0.2,0.4-0.3c0.1,0,0.1-0.1,0.2-0.1c0.2,0.2,0.2,0.4,0.2,0.6C134.9,54.6,134.7,54.8,134.5,55z"
		/>
	<path class="st82" d="M164.6,52.9c0,0.5,0.1,1.1-0.5,1.4c-0.2,0-0.3,0-0.4,0c-0.2-0.1-0.4-0.3-0.4-0.5c0-0.1-0.1-0.3-0.1-0.5
		c-0.1-4.2-0.4-8.3-0.5-12.5c0-0.1,0-0.1,0-0.2c0-0.1,0.1-0.3,0.1-0.4l0,0l0,0c0.2-0.2,0.4-0.2,0.7-0.2l0,0c0,0,0.1,0,0.1,0.1l0,0
		l0.1,0.1l0,0l0,0c0.3,0.8,0.3,1.7,0.3,2.5c0,2.1,0.3,4.3,0.3,6.4C164.4,50.5,164.7,51.7,164.6,52.9z"/>
	<path class="st83" d="M165.1,54.2c-0.3,0.2-0.7,0.2-1,0.1c0.4-0.9,0.3-1.9,0.2-2.9c-0.2-2.2-0.3-4.5-0.3-6.7
		c-0.1-1.5-0.3-3-0.2-4.5h0.1c0.8-0.2,1.1-0.1,1,0.9c0,1.7,0.2,3.4,0.2,5.1c0.1,2,0,4.1,0.3,6.1c0,0,0,0,0,0.1c0,0.2,0,0.3,0.1,0.5
		c0,0.1,0,0.2,0,0.2C165.4,53.5,165.4,53.9,165.1,54.2z"/>
	<path class="st84" d="M143.5,54c-0.2,0-0.4,0-0.6,0c-0.2-2-0.3-4-0.3-6c0-1.9-0.5-3.7-0.2-5.6c0.1-0.8-0.2-1.8-0.2-2.7h0.1h0.1l0,0
		c0.2,0.2,0.4,0.3,0.4,0.7c0.1,1.3,0.5,2.6,0.2,4c-0.2,0.6,0.1,1.2,0.2,1.8c0.2,1.9-0.1,3.8,0.4,5.7C143.8,52.5,143.3,53.2,143.5,54
		z"/>
	<path class="st85" d="M135,54.9c-1.4,1.8-3.2,3.2-4.9,4.8c-1.7,1.7-3.6,3.2-5.3,4.9c-0.2,0.2-0.5,0.4-0.7,0.6
		c-0.2-0.1-0.4-0.4-0.5-0.6c1.1-0.7,1.9-1.8,2.9-2.6c2.7-2.4,5.4-4.9,8-7.3c0.1-0.1,0.1-0.2,0.2-0.3C135,54.5,135,54.7,135,54.9z"/>
	<path class="st86" d="M141.7,61.8c-1,0.3-1.7,1.2-2.4,1.9c-2.6,2.4-5.2,4.8-7.9,7.2c-0.1,0.1-0.2,0.2-0.2,0.3
		c-0.2-0.1-0.4-0.2-0.6-0.3c1-1,1.9-2,2.9-2.9c2.2-2,4.5-4.1,6.7-6.1c0.2-0.2,0.4-0.4,0.4-0.8C141,61.4,141.3,61.6,141.7,61.8z"/>
	<path class="st87" d="M146.2,63.7c-0.6,0.1-1,0.6-1.4,0.9c-2.3,2.1-4.5,4.2-6.7,6.3c-0.8,0.8-1.9,1.4-2.5,2.4
		c-0.3-0.1-0.5-0.2-0.8-0.3c-0.1-0.6,0.4-0.9,0.7-1.2c1.1-1,2.2-2,3.3-3.1c0.1-0.1,0.2-0.1,0.3-0.2c0.5-0.3,0.8-0.7,1.2-1.1
		c0.1-0.1,0.2-0.3,0.3-0.4c0.1-0.2,0.3-0.4,0.4-0.5c0.1-0.1,0.2-0.2,0.3-0.2s0.1-0.1,0.2-0.1c0.1-0.1,0.2-0.1,0.3-0.2
		s0.1-0.1,0.2-0.2c0.3-0.2,0.5-0.5,0.8-0.8l0,0c0.2-0.2,0.4-0.4,0.6-0.5c0-0.1,0.1-0.1,0.1-0.1c0.6-0.5,1-1.2,2-0.9
		C145.8,63.5,146.1,63.5,146.2,63.7z"/>
	<path class="st88" d="M136.2,57.3c-0.9,1.2-2,2.1-3.1,3c-1.5,1.4-3,2.8-4.5,4.2c-0.8,0.7-1.7,1.4-2.4,2.2c-0.2,0.2-0.4,0.4-0.7,0.3
		c-0.2-0.2-0.4-0.4-0.6-0.6c0.9-0.2,1.5-1,2.1-1.6c2.3-2.1,4.6-4.3,6.9-6.4c0.6-0.6,1.4-1,1.9-1.8C136,56.7,136.2,56.9,136.2,57.3z"
		/>
	<path class="st89" d="M133.8,53.2L133.8,53.2C133.8,53.3,133.8,53.3,133.8,53.2c0,0.1-0.1,0.1-0.1,0.1c-1.4,1.3-2.8,2.6-4.2,3.9
		c-2.2,2-4.5,4.1-6.7,6.1c-0.2-0.2-0.3-0.4-0.3-0.6c2.2-2.1,4.4-4.1,6.7-6.2c1.2-1.1,2.5-2,3.5-3.4c0,0,0,0,0.1-0.1h0.1
		c0.3-0.1,0.6-0.1,1,0L133.8,53.2C133.7,53.2,133.8,53.2,133.8,53.2z"/>
	<path class="st90" d="M155.5,54.5h-0.6c-0.4-0.5-0.4-1.1-0.4-1.6c-0.1-2.9-0.3-5.8-0.4-8.8c0-1.2-0.5-2.5,0.1-3.7l0,0l0,0
		c0.2-0.1,0.4-0.2,0.6,0c0,0,0,0,0.1,0c0,0.6,0.1,1.1,0.2,1.6c0.3,2.1,0.3,4.2,0.3,6.2C155.4,50.4,156.1,52.5,155.5,54.5z"/>
	<path class="st91" d="M159.9,54.5h-0.6c-0.5-2.4-0.3-4.9-0.5-7.4c-0.1-1.9-0.5-3.7-0.2-5.6c0.1-0.4,0-0.8-0.2-1.1
		c0,0,0.1,0,0.1-0.1c0.2-0.2,0.5-0.2,0.7,0l0,0c0.3,2.1,0.3,4.3,0.3,6.4c0,1.9,0.6,3.8,0.2,5.7C159.6,53.2,160,53.9,159.9,54.5z"/>
	<path class="st92" d="M165.9,54.1c-0.3,0-0.5,0-0.8,0.1c-0.2-2.6-0.3-5.2-0.4-7.8c-0.1-1.8-0.2-3.6-0.2-5.3c0-0.6-0.2-0.9-0.8-0.8
		h-0.1c-0.1,0-0.2,0-0.2,0l0.1-0.1c0.5-0.6,1-0.4,1.6-0.1l0,0c0.3,1.8,0.3,3.8,0.3,5.6c0,1.9,0.5,3.8,0.2,5.7
		C165.5,52.2,165.6,53.2,165.9,54.1z"/>
	<path class="st93" d="M137.1,58.2c-1.3,1.7-3,2.9-4.5,4.4c-1.6,1.6-3.4,3-5,4.6c-0.3,0.3-0.5,0.6-1,0.6c-0.1-0.1-0.3-0.3-0.4-0.4
		c0.2-0.2,0.3-0.5,0.5-0.7c0.8-0.9,1.8-1.6,2.6-2.4c2.1-2,4.2-3.9,6.3-5.9c0.1-0.1,0.2-0.3,0.4-0.4c0,0,0.1-0.1,0.2-0.1
		c0.1,0,0.1-0.1,0.2-0.1c0.1,0,0.2,0,0.4,0C136.9,57.9,137,58,137.1,58.2z"/>
	<path class="st94" d="M139.3,60.4c-2,1.9-4,3.7-6,5.6c-1.4,1.3-2.9,2.5-4.2,4c-0.2-0.2-0.4-0.3-0.6-0.5c0-0.7,0.5-1,1-1.4
		c2.4-2.2,4.8-4.4,7.2-6.6c0.6-0.6,1.2-1.2,2-1.6C138.9,60.1,139.1,60.2,139.3,60.4z"/>
	<path class="st95" d="M146.8,54.2c-0.2,0-0.4,0-0.6,0c-0.3-2.1-0.3-4.3-0.3-6.4c0-1.9-0.5-3.9-0.2-5.8c0.1-0.6-0.2-1.3-0.1-1.9l0,0
		l0,0c0.2-0.1,0.4-0.1,0.5,0l0,0C146.5,44.7,146.8,49.5,146.8,54.2z"/>
	<path class="st96" d="M138.7,60c-0.2,0.5-0.8,0.7-1.2,1.1c-2.2,2.1-4.4,4.1-6.6,6.2c-0.8,0.8-1.8,1.3-2.4,2.2
		c-0.2-0.1-0.3-0.2-0.5-0.3c-0.1-0.2-0.1-0.4,0-0.5c0.1-0.3,0.4-0.5,0.6-0.7c2.6-2.3,5.1-4.7,7.6-7c0.5-0.5,0.9-1,1.6-1.3l0,0
		c0.2-0.1,0.4-0.1,0.6-0.1C138.6,59.6,138.7,59.7,138.7,60z"/>
	<path class="st97" d="M163.2,53.8c0,0.2-0.1,0.3-0.2,0.5c-0.3,0-0.6,0-0.8,0c0.2-1.6-0.3-3.2-0.1-4.7c0.1-1.9-0.5-3.7-0.2-5.6
		c0.2-1.2-0.2-2.4-0.3-3.7l0,0c0.6-0.3,0.9-0.1,1,0.5v0.1c0.2,0.8,0.1,1.6,0.2,2.5c0.1,3.1,0.3,6.1,0.4,9.2
		C163.2,53,163.3,53.5,163.2,53.8z"/>
	<path class="st98" d="M143.5,62.7c0,0.1-0.1,0.2-0.2,0.4l0,0c-0.2,0.3-0.5,0.6-0.7,0.8c-0.1,0.1-0.3,0.2-0.4,0.4
		c-0.6,0.5-1.1,1-1.7,1.5c-0.2,0.1-0.3,0.3-0.5,0.5c-1.6,1.5-3.1,2.9-4.7,4.4c-0.2,0.2-0.5,0.4-0.7,0.6l0,0
		c-0.4,0.3-0.8,0.7-1.1,1.1c-0.3-0.1-0.6-0.2-0.8-0.4c-0.3-0.5,0.1-0.7,0.4-0.9c2.4-2,4.5-4.3,6.9-6.3c0.7-0.6,1.4-1.3,2-1.9
		c0.3-0.3,0.6-0.6,1.1-0.4C143.2,62.5,143.4,62.5,143.5,62.7z"/>
	<path class="st99" d="M181.8,47.5c-0.1,0.1-0.3,0.3-0.4,0.4c-1.1-0.1-2-0.8-2.9-1.3c-3.2-1.8-6.5-3.4-9.9-5
		c-0.6-0.3-1.1-0.7-1.2-1.4c0.1,0,0.1,0,0.2,0c0.2,0,0.3,0.1,0.5,0.2c2.5,1.5,5.1,2.7,7.8,3.9c0,0,0.1,0,0.1,0.1
		c1.2,0.6,2.5,1.2,3.7,1.8c0.5,0.3,1.1,0.6,1.6,0.9l0,0C181.5,47.2,181.6,47.4,181.8,47.5z"/>
	<path class="st100" d="M182.5,46.7c0,0.2-0.2,0.3-0.4,0.4c-0.3,0.2-0.6,0.2-0.8,0l0,0c-0.1-0.1-0.2-0.1-0.4-0.2
		c-1.6-0.9-3.3-1.7-5-2.6c0,0-0.1,0-0.1-0.1c-1.7-0.9-3.4-1.8-5.1-2.7c-0.7-0.4-1.5-0.7-2.2-1c-0.4-0.2-0.9-0.3-1-0.9l0,0l0,0
		c0.2-0.3,0.5-0.4,0.9-0.3c0,0,0.1,0,0.1,0.1c0,0,0.1,0,0.1,0.1c2,1.2,4.1,2.2,6.2,3.1c2.5,1.2,5,2.5,7.4,3.8
		C182.3,46.4,182.5,46.5,182.5,46.7z"/>
	<path class="st101" d="M154.9,54.5c-1.1,0-2.3,0.1-3.4-0.1c-0.1,0-0.1,0-0.2,0c0.1,0,0.2,0,0.3-0.1l0.1-0.1
		c0.1-0.1,0.3-0.1,0.5-0.2l0,0h0.1l0,0c0.1,0,0.2,0,0.3,0l0,0c0.1,0,0.1,0,0.2,0l0,0c0.3,0,0.5,0,0.8-0.1c0,0,0,0,0.1,0
		c0.2-0.3,0.3-0.5,0.3-0.8l0,0c0.1-0.6-0.1-1.1-0.1-1.7c0-0.1,0-0.2,0-0.2l0,0l0,0c0-0.2-0.1-0.5-0.1-0.7s0-0.4,0-0.6v-0.1
		c0-1.1-0.1-2.3-0.2-3.4c0-0.7-0.1-1.3-0.1-2c0-0.3,0-0.6,0-0.9c0-0.3,0-0.5-0.1-0.8l0,0c-0.1-0.5-0.2-0.9-0.1-1.3l0,0
		c0-0.2,0.1-0.5,0.2-0.7l0,0c0,0,0,0,0-0.1l0,0c0.2-0.2,0.4-0.2,0.7,0l0,0c0.3,2.2,0.2,4.4,0.3,6.6c0.1,1.9,0.4,3.7,0.2,5.6
		C154.7,53.3,155,53.9,154.9,54.5z"/>
	<path class="st102" d="M184.6,43.3c-0.1,0.2-0.1,0.5-0.3,0.6c-0.4,0.2-0.7,0-1-0.2c-3.6-2.1-7.5-3.4-11-5.5
		c-0.5-0.3-1.1-0.5-0.8-1.2c0-0.1,0-0.1,0.1-0.2c1.5,0.6,2.9,1.4,4.3,2.2C178.7,40.6,181.6,42,184.6,43.3z"/>
	<path class="st103" d="M182.2,47.1c-0.1,0.1-0.3,0.3-0.4,0.4c-0.9-0.1-1.5-0.8-2.2-1.1c-3.2-1.6-6.5-3.1-9.7-4.7
		c-0.8-0.4-1.5-0.8-2.2-1.3c-0.1-0.1-0.2-0.1-0.3-0.2c-0.1-0.2-0.1-0.4-0.2-0.5c0,0,0-0.1,0.1-0.1c0.1-0.1,0.2-0.1,0.3,0l0,0
		c0.6,0.7,1.5,0.8,2.2,1.1c3.7,2,7.4,3.9,11.1,5.9C181.3,46.9,181.7,47.1,182.2,47.1z"/>
	<path class="st104" d="M123.3,52.4c0,0.3-0.3,0.4-0.5,0.6c-0.9,0.9-1.8,2-3.1,2.4c-0.5-1.2-0.6-2.5-0.8-3.7c1.5,0,2.9,0.2,4.4,0.4
		C123.3,52.2,123.3,52.3,123.3,52.4z"/>
	<path class="st105" d="M143.1,62.5c-1,0.3-1.6,1.2-2.3,1.9c-1.6,1.6-3.5,3-5,4.6c-1,1.1-2.4,1.8-3.1,3.1c-0.3,0-0.5-0.2-0.7-0.3
		c1.1-1.1,2.3-2.3,3.5-3.4c1.6-1.5,3.2-3,4.9-4.4c0.7-0.6,1.3-1.3,2.2-1.6C142.7,62.2,142.9,62.3,143.1,62.5z"/>
	<path class="st106" d="M184.3,44c-0.1,0.2-0.2,0.4-0.3,0.6c-0.5,0.3-0.9-0.1-1.3-0.3c-3.4-1.9-6.8-3.6-10.2-5.3
		c-0.5-0.2-1-0.4-1.2-0.9V38v-0.1c0-0.3-0.1-0.6,0.2-0.8l0.1-0.1h0.1c0,0.1,0,0.2,0,0.2c0,0.3,0.2,0.6,0.5,0.8
		c2.3,1.2,4.7,2.5,7.1,3.5C181,42.1,182.6,43.1,184.3,44z"/>
	<path class="st107" d="M184,44.6c-0.1,0.2-0.2,0.3-0.3,0.4c-0.4,0.2-0.7,0-1-0.2c-0.7-0.4-1.5-0.7-2.2-1.1
		c-1.9-0.9-3.8-1.9-5.7-2.9c-0.1-0.1-0.3-0.1-0.4-0.2c-0.9-0.5-1.8-1-2.8-1.5c-0.3-0.2-0.7-0.3-0.8-0.8l0,0l0,0c0,0,0,0,0-0.1
		c0-0.2,0.1-0.4,0.3-0.4c0.1,0,0.1,0,0.2,0c0.7,1,1.9,1.1,2.9,1.7c3.1,1.7,6.2,3.2,9.3,4.9C183.6,44.5,183.8,44.5,184,44.6z"/>
	<path class="st108" d="M183.4,45.4c-0.1,0.1-0.2,0.3-0.3,0.4c-0.3,0.3-0.7,0-1-0.1c-1-0.4-1.9-0.9-2.9-1.3h-0.1
		c-2.8-1.4-5.6-2.8-8.4-4.3c-0.3-0.1-0.6-0.3-0.8-0.5c-0.2-0.1-0.3-0.3-0.3-0.6l0,0l0,0c0.1-0.2,0.2-0.3,0.5-0.3l0,0
		c1.3,0.6,2.7,1.3,4,1.9c0.1,0.1,0.3,0.1,0.4,0.2c1.9,1,3.8,1.9,5.7,2.9c0.8,0.4,1.6,0.8,2.3,1.2C183,45.1,183.3,45.2,183.4,45.4z"
		/>
	<path class="st109" d="M131.6,52.9L131.6,52.9c0,0.1-0.1,0.1-0.1,0.2c-1.7,1.9-3.6,3.4-5.4,5.1c-1.3,1.2-2.6,2.5-4,3.7
		c-0.3-0.2-0.2-0.6-0.4-0.8c0.2-0.2,0.4-0.4,0.6-0.6c0.5-0.4,1-0.9,1.5-1.3c0.7-0.6,1.4-1.3,2.2-2c0.2-0.2,0.4-0.4,0.6-0.5
		c0.5-0.5,1.1-1,1.6-1.5c0.1-0.1,0.2-0.2,0.3-0.3c0.7-0.6,1.4-1.2,2-1.8c0,0,0,0,0.1,0l0,0c0,0,0,0,0.1-0.1
		C131,52.8,131.3,52.8,131.6,52.9z"/>
	<path class="st8" d="M165.4,90c0,0.9-0.6,1.5-1.5,1.6c-0.9,0-1.6-0.6-1.6-1.5s0.7-1.6,1.5-1.6C164.7,88.4,165.4,89.1,165.4,90z"/>
	<path class="st110" d="M183.6,45c0,0.2,0,0.3-0.2,0.4c-1.9-0.6-3.6-1.7-5.3-2.6c-2.2-1.3-4.7-2.2-7-3.4c-0.3-0.2-0.7-0.3-0.9-0.7
		c0,0,0,0,0-0.1c0-0.3,0.2-0.4,0.5-0.4h0.1c1,1,2.4,1.4,3.5,2C177.5,42,180.6,43.5,183.6,45z"/>
	<path class="st111" d="M163.7,54.3c-0.2,0-0.4,0-0.6,0c-0.1-3.5-0.2-7.1-0.5-10.6c0-0.8-0.2-1.7-0.2-2.6c0-0.6-0.3-0.8-0.8-0.7
		c0,0,0,0-0.1,0c-0.2,0-0.4,0-0.6,0c0,0,0,0-0.1,0c-0.2,0.1-0.4,0.1-0.5-0.1l0,0l0,0c0.8-0.7,1.6-0.6,2.5-0.1l0,0
		c0.2,2.9,0.2,5.8,0.5,8.8C163.4,50.8,163.2,52.6,163.7,54.3z"/>
	<path class="st112" d="M182.8,46.3c-0.1,0.1-0.2,0.3-0.3,0.4c-1.2-0.4-2.3-1.1-3.4-1.7c-3.2-1.6-6.4-3.1-9.7-4.7
		c-0.4-0.2-0.8-0.4-1-0.8c0,0,0-0.1,0.1-0.1c0.2-0.3,0.4-0.3,0.7-0.3c0,0,0,0,0.1,0h0.1c0.2,0.1,0.5,0.3,0.7,0.4
		c2.8,1.6,5.6,2.9,8.4,4.4c0.2,0.1,0.5,0.2,0.7,0.4c0,0,0,0,0.1,0C180.5,45,181.7,45.6,182.8,46.3z"/>
	<path class="st113" d="M144.5,63.1c-0.3,0.5-0.6,1-1,1.4c-0.2,0.2-0.4,0.3-0.6,0.5l0,0c-0.2,0.2-0.5,0.5-0.8,0.7l0,0l-0.1,0.1
		c-0.2,0.1-0.4,0.3-0.6,0.5c-0.1,0.1-0.2,0.2-0.3,0.2c-1.2,1-2.4,2.2-3.5,3.3c-1,1-2.2,1.9-3.2,3c-0.1-0.1-0.3-0.1-0.4-0.2
		c-0.4-0.3-0.2-0.5,0.1-0.7c0.2-0.2,0.4-0.4,0.6-0.6l0,0c1.4-1.4,2.9-2.7,4.4-4.1c0.3-0.3,0.7-0.6,1-0.9c0.2-0.2,0.3-0.3,0.5-0.5
		c0.6-0.5,1.1-1,1.7-1.5c0.3-0.3,0.6-0.6,0.8-0.9c0.1-0.1,0.2-0.2,0.3-0.3l0,0c0.2-0.1,0.3-0.2,0.6-0.2
		C144.2,62.9,144.4,62.9,144.5,63.1z"/>
	<path class="st114" d="M183.2,45.8c0,0.2-0.2,0.3-0.3,0.4c-0.9,0-1.6-0.6-2.4-1c-3.3-1.9-6.8-3.6-10.2-5.3c-0.4-0.2-0.8-0.4-1-0.8
		V39c0.1-0.2,0.3-0.3,0.5-0.1l0,0c0.3,0.4,0.8,0.7,1.2,0.9c3.8,2,7.7,4,11.6,5.8C182.8,45.8,183,45.8,183.2,45.8z"/>
	<path class="st115" d="M129.5,53.8c-0.3,0.3-0.7,0.7-1,1c-0.6,0.6-1.3,1.2-1.9,1.8c-0.2,0.2-0.4,0.4-0.6,0.5
		c-0.4,0.4-0.8,0.7-1.2,1.1c-0.3,0.3-0.6,0.6-0.9,0.9c-0.5,0.5-0.9,1-1.5,1.3c-0.2,0.2-0.4,0.3-0.7,0.4c-0.2-0.2-0.3-0.6-0.4-0.9
		c2.1-2,4.1-3.9,6.2-5.8c0.5-0.4,0.9-1,1.5-1.3c0.1-0.1,0.2-0.1,0.4-0.2c0.1,0,0.3,0,0.4,0c0.1,0.1,0.2,0.1,0.2,0.2
		C130.2,53.3,129.7,53.6,129.5,53.8z"/>
	<path class="st116" d="M129.3,52.7c-0.1,0.1-0.1,0.2-0.2,0.2c-1.2,1.4-2.7,2.6-4.1,3.8c-1.1,1-2,2.2-3.3,3
		c-0.2,0.1-0.4,0.2-0.5,0.3c-0.1-0.2-0.2-0.4-0.2-0.6c1.2-1.2,2.5-2.4,3.8-3.6c1-0.9,1.8-2,3-2.7c0.1-0.1,0.1-0.2,0.1-0.3
		s0-0.2,0-0.2C128.4,52.6,128.9,52.7,129.3,52.7z"/>
	<path class="st117" d="M136.5,57.7c-0.1,0.1-0.1,0.2-0.2,0.2c-1.3,1.5-2.9,2.7-4.3,4c-1.7,1.6-3.4,3.2-5.2,4.8l-0.1,0.1
		c-0.3,0.2-0.5,0.4-1,0.3c-0.1-0.1-0.1-0.1-0.2-0.2c0.8-0.7,1.6-1.4,2.4-2.1c2.3-2.1,4.6-4.3,6.9-6.4c0.4-0.4,0.9-0.7,1.4-1.1
		C136.4,57.3,136.4,57.5,136.5,57.7z"/>
	<path class="st118" d="M130.6,52.8C130.6,52.8,130.6,52.9,130.6,52.8L130.6,52.8L130.6,52.8c-0.1,0.5-0.4,0.8-0.7,1
		c-2.5,2.3-5,4.5-7.4,6.8c-0.2,0.2-0.5,0.4-0.8,0.3c0,0-0.1-0.1-0.1-0.2c1-0.9,1.9-1.9,2.9-2.8c1.7-1.5,3.4-3,4.9-4.6
		c0.2-0.2,0.4-0.3,0.4-0.5c0-0.1,0-0.1-0.1-0.2C130,52.7,130.3,52.7,130.6,52.8C130.6,52.7,130.6,52.7,130.6,52.8z"/>
	<path class="st119" d="M128.1,53.2c-1.8,1.5-3.4,3.1-5.1,4.6c-0.6,0.6-1.2,1.2-2,1.5c-0.1-0.2-0.2-0.4-0.2-0.6
		c1.4-1.5,2.9-2.8,4.4-4.1c0.4-0.3,0.7-0.7,1-1c0.2-0.2,0.3-0.3,0.5-0.5c0.1-0.1,0.3-0.2,0.4-0.3s0.3-0.2,0.4-0.2s0.2,0,0.2,0
		c0.1,0.1,0.3,0.1,0.4,0.2C128.4,52.8,128.4,53,128.1,53.2z"/>
	<path class="st120" d="M144,62.9c-1.3,1.5-3,2.5-4.2,4c-0.4,0.5-1.1,0.7-1.5,1.1c-1.5,1.4-2.9,2.9-4.4,4.3c-0.1,0.1,0,0.2,0,0.4
		c-0.1-0.1-0.3-0.1-0.4-0.2c-0.3-0.4,0.1-0.6,0.3-0.8c2.3-2,4.5-4.1,6.7-6.2c1-0.9,1.9-1.8,2.9-2.7C143.7,62.7,143.8,62.7,144,62.9z
		"/>
	<path class="st121" d="M137.8,59.7L137.8,59.7c-0.1,0.2-0.3,0.3-0.5,0.4c-3,2.8-6,5.6-9.1,8.3c-0.1,0.1-0.2,0.2-0.2,0.2
		c-0.1,0.1-0.3,0.2-0.5,0c-0.1-0.1-0.1-0.1-0.2-0.2c3.5-3.2,7-6.4,10.4-9.6l0.2,0.2C138,59.3,137.9,59.5,137.8,59.7z"/>
	<path class="st122" d="M126.9,52.8c0,0.1,0,0.2-0.1,0.3c-0.1,0.2-0.3,0.4-0.5,0.5c-1.7,1.2-2.9,2.8-4.5,4.1
		c-0.3,0.2-0.6,0.8-1.1,0.5c-0.1-0.2-0.2-0.4-0.2-0.6c0-0.1,0-0.2,0.1-0.2c1.7-1.6,3.2-3.3,5.1-4.6c0.1,0,0.1-0.1,0.2-0.1
		C126.3,52.7,126.6,52.7,126.9,52.8C126.9,52.6,126.9,52.7,126.9,52.8z"/>
	<path class="st123" d="M125.8,52.5c0,0-0.1,0.1-0.1,0.2c-1.7,1.7-3.4,3.3-5.2,4.8c-0.1-0.3-0.2-0.5-0.3-0.8c0.1-0.4,0.5-0.7,0.8-1
		c0.2-0.2,0.5-0.5,0.7-0.7c0.1-0.1,0.1-0.1,0.2-0.2c0.5-0.5,1-0.9,1.5-1.3c0.4-0.4,0.8-0.7,1.3-1.1c0.1-0.1,0.2-0.1,0.2-0.2
		C125.2,52.2,125.5,52.3,125.8,52.5z"/>
	<path class="st124" d="M142.1,65.8c0,0.3-0.3,0.4-0.5,0.6c-0.4,0.2-0.6,0.5-0.8,0.8c-0.7,0.5-1.2,1.1-1.9,1.7
		c-0.9,1.3-2.3,2.2-3.4,3.3c-0.3,0.3-0.5,0.6-0.8,0.8c-0.2-0.1-0.3-0.1-0.4-0.2c0-0.5,0.5-0.9,0.8-1.2c2.2-1.7,4-3.8,6.1-5.6
		c0.2-0.2,0.5-0.3,0.8-0.5C142.1,65.7,142.1,65.7,142.1,65.8L142.1,65.8z"/>
	<path class="st125" d="M127.7,52.5c-0.1,0.1-0.1,0.2-0.2,0.2c-1.9,2.1-4.2,3.9-6.2,5.8c-0.1,0.1-0.2,0.1-0.4,0.1
		c-0.1-0.2-0.2-0.4-0.2-0.6c1-0.4,1.6-1.3,2.4-1.9c1.1-0.9,2.1-2.1,3.3-2.9c0.2-0.1,0.3-0.3,0.4-0.5c0-0.1,0.1-0.2,0.1-0.3
		C127.1,52.5,127.4,52.5,127.7,52.5z"/>
	<path class="st126" d="M136.7,57.9c-1.4,1.3-2.8,2.6-4.3,3.9c-2.1,1.9-4.2,3.8-6.2,5.7c-0.1-0.1-0.3-0.3-0.4-0.4
		c0.7-0.3,1.2-0.7,1.8-1.2c2.3-2.1,4.6-4.3,6.9-6.4c0.5-0.5,1-0.9,1.6-1.3c0,0,0.1-0.1,0.2-0.1C136.4,58,136.6,57.9,136.7,57.9
		C136.5,57.7,136.6,57.8,136.7,57.9z"/>
	<path class="st127" d="M138.4,59.5c-1.6,1-2.8,2.4-4.2,3.7c-1.9,1.7-3.7,3.5-5.6,5.1c-0.3,0.2-0.5,0.5-0.5,0.9
		c-0.2-0.2-0.4-0.3-0.6-0.5c0.2-0.1,0.4-0.1,0.5-0.2c3.2-3,6.4-6,9.7-9c0.1-0.1,0.2-0.3,0.3-0.4C138,59.2,138.2,59.4,138.4,59.5z"/>
	<path class="st128" d="M124,52.7c-0.3,0.3-0.5,0.5-0.8,0.8c-0.5,0.4-1,0.9-1.5,1.3c-0.1,0.1-0.1,0.1-0.2,0.2
		c-0.4,0.4-0.8,0.7-1.3,1.1c-0.1,0.1-0.3,0-0.4-0.1c-0.2-0.2-0.2-0.4-0.2-0.6c1.1-1,2.3-1.9,3.3-3.1c0.1-0.1,0.1-0.2,0.2-0.2
		s0.3,0,0.4,0c0.2,0,0.4,0.1,0.5,0.3C124.2,52.5,124.2,52.6,124,52.7z"/>
	<path class="st129" d="M124.8,52.3c-0.1,0.1-0.1,0.1-0.2,0.2c-1.3,1.6-3,2.8-4.5,4.2c-0.2-0.2-0.1-0.4-0.2-0.7
		c0.3,0,0.5-0.2,0.7-0.4c1-1,1.9-1.9,3-2.8c0.2-0.1,0.4-0.3,0.3-0.5c0-0.1-0.1-0.2-0.2-0.2C124.1,52.1,124.4,52.1,124.8,52.3z"/>
	<path class="st130" d="M139.7,53.7c-1.7-0.1-3.4-0.3-5.1-0.6c1.3-0.4,2.7-0.5,4-0.1c0.1,0,0.2,0,0.2,0.1
		C138.9,53.7,139.5,53.4,139.7,53.7z"/>
	<path class="st131" d="M145.6,63.5c-0.9,0-1.4,0.8-2,1.2c-0.7,0.5-1.1,1.4-2,1.7c0.1-0.2,0.2-0.3,0.3-0.4l0.1-0.1
		c0-0.1,0.1-0.2,0.1-0.3c0.8-0.8,1.7-1.7,2.5-2.5C144.9,63.1,145.3,63.3,145.6,63.5z"/>
	<path class="st132" d="M134.6,53.7c-0.1,0.2-0.2,0.3-0.4,0.4c-0.1,0-0.2,0.1-0.3,0.1c0.1-0.3,0.9-0.8-0.2-0.8v-0.1l0,0v-0.1
		c0.3,0,0.6,0,0.8,0.1C134.5,53.4,134.5,53.6,134.6,53.7z"/>
	<path class="st0" d="M142.4,39.6h-0.1h-0.1c-0.5-0.1-1-0.1-1.4-0.2l0,0c0,0,0,0-0.1,0c0,0-0.1,0-0.1-0.1c-0.3,0-0.6-0.1-0.9-0.1
		c-0.2,0-0.4-0.1-0.6-0.1c-0.9-0.2-1.9-0.3-2.8-0.5c0-0.1,0.1-0.2,0.2-0.2c1.1-1.6,2.7-2.6,4.3-3.6c0.1,0,0.1-0.1,0.2-0.1
		c0.3-0.1,0.6-0.3,0.9-0.5c-0.1,0.5-0.4,0.7-0.9,0.6c-0.1,0.2-0.3,0.4-0.5,0.5c-1.5,0.8-2.6,1.8-3.7,3l0,0c0.8,0.1,1.7,0.1,2.5,0.4
		c0.1,0,0.2,0.1,0.2,0.1c0.5-0.2,0.9,0,1.3,0.3c0,0,0,0,0,0.1c0,0,0,0,0.1,0l0,0c0.6-0.5,1.1-0.2,1.6,0.1l0,0
		C142.4,39.6,142.4,39.6,142.4,39.6z"/>
	<path class="st0" d="M141.8,34.4c0.8-0.4,1.5-0.7,2.3-1.1c-0.4,0.8-1.2,0.9-1.9,1.2C142.1,34.6,141.9,34.5,141.8,34.4z"/>
	<path class="st0" d="M144.1,33.3c0.5-0.2,1.1-0.4,1.6-0.6C145.3,33.3,144.8,33.7,144.1,33.3z"/>
	<path class="st0" d="M145.9,32.7c0.9-0.2,1.7-0.5,2.6-0.8h0.1c0.7-0.1,1.3-0.2,2-0.4c0,0,0,0,0.1,0c0.3,0,0.6,0,0.9-0.1
		c0.2,0,0.5,0,0.8-0.1c0.5,0,1-0.1,1.4-0.1h0.1h2.2c0.4,0,0.7,0,1.1,0c0.2,0.1,0.3,0.1,0.5,0.1l0,0c0.5,0.1,1.1,0.1,1.6,0.1
		c-0.7,0.3-1.3,0.5-1.9,0l0,0c-0.5,0.1-0.9,0.1-1.3-0.2c-0.7,0.4-1.4,0.4-2.2,0l0,0c-0.6,0.3-1.2,0.6-1.9,0.3c-0.1,0-0.1,0-0.2,0.1
		c-0.4,0.1-0.8,0.1-1.1-0.1c-0.6,0.5-1.2,0.7-2.1,0.4C147.9,32.6,146.7,32.9,145.9,32.7z"/>
	<path class="st0" d="M160.3,40.4C160.2,40.5,160.2,40.5,160.3,40.4c-0.1,0.1-0.1,0-0.2,0c-0.3,0-0.6,0-0.8,0h-0.1
		c-0.2,0-0.4,0-0.6,0h-1.1c-0.2,0-0.4,0-0.6,0h-2.1c-0.2,0-0.4,0-0.5,0h-0.6c0,0-0.1,0-0.1,0.1l0,0c-0.1,0.1-0.2,0.1-0.4,0.1
		c0,0,0,0-0.1,0l0,0c-0.2,0-0.5,0-0.8,0h-0.1h-0.1c-0.1,0-0.3,0-0.4,0c0,0,0,0-0.1,0s0,0-0.1,0s-0.1,0-0.2-0.1l0,0
		c-0.1,0-0.1-0.1-0.2-0.1c-0.1,0-0.2-0.1-0.2-0.1c-0.3,0-0.6,0-0.9,0h-0.1l0,0c-0.1,0-0.2,0-0.2,0c-0.3,0-0.5,0-0.8,0c0,0,0,0-0.1,0
		c-0.7-0.1-1.3-0.1-2-0.2l0,0c-0.2,0-0.4,0-0.6,0l0,0c-0.2,0-0.3,0-0.5,0l0,0l0,0c-0.3-0.1-0.7-0.1-1-0.1h-0.1l0,0h-0.1
		c-0.1,0-0.2,0-0.3-0.1l0,0c0,0-0.1,0-0.1-0.1c-0.5-0.1-1-0.2-1.4-0.2c0,0,0,0,0-0.1c0.6-0.3,1.1-0.2,1.5,0.3l0,0c0.1,0,0.2,0,0.3,0
		s0.3,0,0.4,0c0.2-0.1,0.5,0,0.7,0c0.1,0,0.1,0.1,0.1,0.1c0.2-0.1,0.4-0.1,0.5,0c0.2-0.2,0.4-0.2,0.6,0v-0.1c0.7-0.3,1.4-0.2,2,0.3
		c0.2-0.2,0.5-0.2,0.8-0.1c0.1,0,0.2,0.1,0.3,0.2h0.3l0,0c0.2-0.1,0.3-0.1,0.5,0l0,0c0.3,0,0.6,0.1,0.8,0.1l0,0c0.2,0,0.4,0,0.6,0
		c0.3,0,0.6,0,0.8,0s0.4,0,0.5,0l0,0c0.2-0.2,0.4-0.2,0.7,0c0.2-0.1,0.4-0.2,0.6,0l0,0c0.4-0.2,0.7-0.3,1,0.1
		c0.2-0.2,0.5-0.2,0.8-0.1l0.1,0.1c0.2-0.2,0.5-0.2,0.7,0c0.2-0.2,0.5-0.2,0.8-0.1c0,0,0.1,0,0.1,0.1c0.2-0.2,0.5-0.2,0.7,0l0,0
		c0.3-0.2,0.6-0.2,0.9,0C160.2,40.4,160.2,40.4,160.3,40.4z"/>
	<path class="st0" d="M159.2,31.5c0.5,0.2,1,0.2,1.5,0.2C160.2,32,159.6,32.2,159.2,31.5z"/>
	<path class="st0" d="M160.8,31.7c0.7,0.2,1.5,0.4,2.2,0.4c0.1,0,0.2,0.1,0.3,0.1c0.5,0.2,1,0.3,1.5,0.3l0.1,0.1
		c0.4,0.2,0.8,0.3,1.2,0.3c0.1,0,0.2,0.1,0.2,0.2c0.3,0.2,0.6,0.3,1,0.3c-0.5,0.2-0.9,0.2-1.1-0.3c-0.5,0.1-1,0-1.3-0.5
		c-0.7,0.2-1.2,0.2-1.7-0.3C162.3,32.3,161.4,32.6,160.8,31.7z"/>
	<path class="st0" d="M165.5,40c-0.1,0-0.2,0-0.4,0H165c-0.5,0-1,0-1.4,0.1l0,0c-0.1,0-0.1,0-0.2,0.1c-0.2,0-0.4,0-0.6,0h-0.1
		c-0.8,0-1.6-0.1-2.4,0.1l0,0c0.8-0.7,1.6-0.6,2.5-0.1c0.2-0.2,0.4-0.2,0.7-0.2l0,0c0.5-0.6,1-0.4,1.6-0.1
		C165.2,39.9,165.3,39.9,165.5,40z"/>
	<path class="st0" d="M171.4,36.9L171.4,36.9c0,0.4,0,0.7-0.1,0.9l-0.1,0.1c-0.1,0.1-0.2,0.2-0.3,0.3c0,0-0.1,0-0.1,0.1l0,0
		c-0.2,0.1-0.3,0.2-0.5,0.3l0,0c-0.1,0.1-0.3,0.2-0.4,0.2l0,0c-0.2,0-0.3,0.1-0.4,0.2h-0.1c-0.2,0.1-0.4,0.1-0.7,0.2
		c-0.1,0-0.1,0-0.2,0c-0.3,0.1-0.6,0.1-0.8,0.2l0,0c-0.1,0-0.2,0-0.2,0h-0.1c-0.5,0.2-1.2,0-1.7,0.3c0.3-0.7,1-0.4,1.6-0.5
		c0.1,0,0.1,0,0.2,0.1c0.1-0.1,0.2-0.1,0.3,0l0,0c0.2-0.3,0.5-0.4,0.9-0.3c0,0,0.1,0,0.1,0.1c0.2-0.3,0.4-0.3,0.7-0.3c0,0,0,0,0.1,0
		c0.1-0.2,0.3-0.3,0.5-0.1c0.1-0.2,0.2-0.3,0.5-0.3c0-0.3,0.2-0.4,0.5-0.4c0-0.2,0.1-0.4,0.3-0.4v-0.1
		C171.1,37.5,171.1,37.2,171.4,36.9c-0.1,0.1-0.1,0.1-0.1,0c-0.8-1.2-1.8-2.2-3.2-2.8c-0.3-0.2-0.7-0.3-0.8-0.7
		c1.1,0.6,2.2,1.1,3.1,2.1C170.9,35.9,171.2,36.3,171.4,36.9z"/>
	<path class="st133" d="M139.5,41.1c0.3,0.5,0.3,1,0,1.4C139.5,42,139.5,41.5,139.5,41.1z"/>
	<path class="st134" d="M139.4,45.3c-0.1-0.4-0.2-0.8,0-1.2C139.6,44.5,139.6,44.9,139.4,45.3z"/>
	<path class="st135" d="M139.2,48.3c-0.1-0.3-0.1-0.6,0-1.1C139.4,47.6,139.3,48,139.2,48.3z"/>
	<path class="st136" d="M139.1,51.7c-0.2-0.1-0.2-0.2-0.2-0.4c0-0.3,0-0.5,0-0.8c0.1,0,0.1,0,0.2,0
		C139.1,50.8,139.1,51.3,139.1,51.7z"/>
	<path class="st137" d="M155.4,95.5c1.3,0,2.4,1,2.4,2.3s-1,2.4-2.3,2.4s-2.4-1-2.4-2.3C153,96.6,154.1,95.6,155.4,95.5z"/>
	<path class="st137" d="M97.3,95.5c1.3,0,2.3,1,2.4,2.3c0,1.4-1,2.5-2.3,2.5S95,99.2,95,97.9C95,96.5,96,95.5,97.3,95.5z"/>
	<path class="st138" d="M174.1,96.8c-1.3,0-2.5,0-3.7,0c-0.7,0-0.6-0.3-0.3-0.7c0.5-0.8,1.2-1.1,2.1-1.1
		C173.1,95.1,173.8,95.6,174.1,96.8z"/>
	<path class="st138" d="M137,96.8c-0.3,0-0.7,0-1,0s-0.8,0.2-0.9-0.1c-0.2-0.4,0.2-0.8,0.5-1c1-1,2.8-0.7,3.4,0.6
		c0.2,0.4,0.2,0.6-0.3,0.6C138.1,96.7,137.5,96.8,137,96.8z"/>
	<path class="st137" d="M75.3,97.9c0-1.4,1-2.4,2.3-2.4c1.4,0,2.4,1,2.4,2.4c0,1.3-1.1,2.4-2.4,2.4S75.3,99.2,75.3,97.9z"/>
	<path class="st130" d="M130.6,52.9c0-0.1,0-0.1-0.1-0.1c0.4,0,0.8-0.1,1.1,0.1C131.3,52.9,130.9,52.9,130.6,52.9z"/>
	<path class="st130" d="M133.7,53.1c-0.3,0-0.7,0-1,0c0-0.1,0-0.1-0.1-0.1C133,52.9,133.4,52.8,133.7,53.1z"/>
	<path class="st139" d="M151.6,40.4L151.6,40.4c-0.1,0.1-0.1,0.1-0.2,0.2c-0.1,0-0.2,0-0.3,0l0,0c0,0-0.1,0-0.1-0.1
		c-0.3,0-0.6,0-0.9,0H150c-0.1,0-0.1-0.1-0.2-0.2c0.1,0,0.1,0,0.2,0h0.3l0,0c0.2,0,0.3,0,0.5,0l0,0C151,40.3,151.3,40.3,151.6,40.4
		L151.6,40.4z"/>
	<path class="st140" d="M147.6,54.1c0.3-0.6,0.1-1.2,0-1.8c-0.3-2-0.3-4.1-0.3-6.1s-0.7-4-0.1-6c1,0,0.8,0.9,0.7,1.3
		c-0.3,1.3,0.2,2.5,0.1,3.8c-0.1,1.9,0.4,3.8,0.2,5.7c-0.1,0.8,0.2,1.6,0.2,2.4C148.5,54,148.3,54.3,147.6,54.1z"/>
	<path class="st141" d="M152.5,53.5c0,0.2,0,0.4-0.1,0.6l0,0c0,0.1-0.1,0.2-0.1,0.2c-0.2,0-0.4,0-0.5,0h-0.1
		c-0.3-4.6-0.6-9.2-0.6-13.9h0.1c0,0,0.1,0,0.2,0c0.1,0,0.3,0,0.4,0l0,0c0.1,0.1,0.1,0.2,0.1,0.2c0.1,0.2,0.2,0.5,0.2,0.7
		c0,3.6,0.5,7.1,0.4,10.7c0,0.3,0.1,0.7,0.1,1.1C152.5,53.2,152.5,53.4,152.5,53.5z"/>
	<path class="st142" d="M142,52.8c0,0.6-0.1,1-0.8,0.9h-0.1c0-1.9-0.3-3.8-0.2-5.6c0.1-1.9-0.5-3.8-0.2-5.7c0.2-1-0.3-2-0.2-3h0.1
		c0,0,0,0,0.1,0l0,0c0.3,0.2,0.7,0.3,0.6,0.8c-0.1,1.8,0.2,3.6,0.2,5.4C141.7,48,141.9,50.4,142,52.8z"/>
	<path class="st143" d="M144.6,53.9C144.6,53.9,144.5,53.9,144.6,53.9c-0.5-3.5-0.3-7-0.7-10.5c-0.1-1.2,0-2.3,0-3.5h0.1l0,0
		c0.1,0,0.2,0,0.3,0s0.1,0.1,0.1,0.1l0,0l0,0l0,0c0.4,2,0.2,4,0.4,6c0.2,1.9,0,3.9,0.3,5.8C145.4,52.5,145.8,53.6,144.6,53.9z"/>
	<path class="st95" d="M145.6,40c-0.4,0-0.7,0-1.1,0l0,0l0,0l-0.1-0.1c0.1,0,0.3,0,0.4,0C145,39.8,145.3,39.9,145.6,40z"/>
	<path class="st144" d="M160.7,54.4c0-0.1,0-0.2,0-0.3c-0.1-3.4-0.4-6.8-0.5-10.2c0-1.1-0.1-2.3-0.2-3.4l0,0h0.1l0,0
		c0.2,0,0.4,0,0.6,0h0.1c0.1,2.7,0,5.4,0.3,8.1c0.2,1.7-0.1,3.5,0.3,5.2C161.7,54.4,161.2,54.3,160.7,54.4z"/>
	<path class="st132" d="M132.7,55.2c-0.1,0.5-0.3,0.8-0.8,0.8C132,55.7,132.3,55.4,132.7,55.2z"/>
	<path class="st131" d="M138.9,68.9c0.4-0.8,1-1.4,1.9-1.7C140.2,67.9,139.8,68.6,138.9,68.9z"/>
	<path class="st145" d="M154,53.1C154,53.2,154,53.2,154,53.1c0,0.4-0.1,0.8-0.4,1.2c-0.3,0-0.6,0-0.8,0c-0.1-0.1-0.1-0.2-0.2-0.3
		l0,0c-0.1-0.2-0.1-0.4-0.2-0.5c0-0.2,0-0.3,0-0.5s0-0.4,0-0.6c-0.1-2.9-0.3-5.8-0.4-8.8c-0.1-1-0.2-2,0-3c0-0.1,0-0.2,0.1-0.3
		c0.3,0,0.6,0,0.8,0c0,0.1,0.1,0.2,0.1,0.2c0.1,0.2,0.2,0.4,0.2,0.5l0,0c0.1,0.4,0.1,0.9,0.1,1.3l0,0c0,0.2,0,0.5,0,0.8s0,0.6,0,0.9
		c0,0.7,0.1,1.3,0.1,2c0,1.1,0.1,2.3,0.2,3.4v0.1c0,0.4,0,0.9,0.1,1.3l0,0l0,0c0,0.4,0,0.8,0.1,1.2C154,52.6,154,52.9,154,53.1z"/>
	<path class="st139" d="M152.8,54.3c-0.2,0-0.4,0-0.6,0c0-0.1,0-0.2,0-0.2c-0.2-4.2-0.4-8.3-0.6-12.5c0-0.3,0-0.7,0-1v-0.2l0,0
		c0.2,0,0.4,0,0.6,0c0,0.1,0,0.2,0,0.3c0.3,4.5,0.5,8.9,0.6,13.4C152.8,54.2,152.8,54.3,152.8,54.3z"/>
	<path class="st146" d="M154.3,53.7c0,0.5-0.1,0.8-0.6,0.7c0-0.1,0-0.2,0-0.3c-0.1-3.6-0.2-7.2-0.4-10.8c0-0.8-0.1-1.7-0.2-2.5
		c0-0.1,0-0.2,0-0.2c0.2,0,0.4,0,0.5,0h0.1c0.1,3.4,0.4,6.9,0.5,10.3C154.2,51.7,154.3,52.7,154.3,53.7z"/>
</g>
</svg>
