<?xml version="1.0" encoding="utf-8"?>
<!-- Generator: Adobe Illustrator 26.0.3, SVG Export Plug-In . SVG Version: 6.00 Build 0)  -->
<svg version="1.1" id="Calque_1" xmlns="http://www.w3.org/2000/svg" xmlns:xlink="http://www.w3.org/1999/xlink" x="0px" y="0px"
	 viewBox="0 0 248.7 123.9" style="enable-background:new 0 0 248.7 123.9;" xml:space="preserve">
<style type="text/css">
	.st0{fill:#FEFEFE;}
	.st1{fill:#FDD05F;}
	.st2{fill:#20201E;}
	.st3{fill:#9D9D9C;}
	.st4{fill:#C8C8C8;}
	.st5{fill:#FDC12A;}
	.st6{fill:#1F1F1D;}
	.st7{fill:#1E1E1C;}
	.st8{fill:#21211F;}
	.st9{fill:#FBFBFB;}
</style>
<g>
	<path class="st0" d="M34.2,15c-0.1,1.6-0.1,3.2,0,4.9c0.1,1.5-0.5,1.8-1.9,1.8c-4.9-0.1-9.8,0-14.6-0.1c-1.5,0-2,0.4-2,2
		c0,25.6,0,51.3,0,77c0,1.6,0.5,1.9,2,1.9c4.9-0.1,9.9,0,14.8-0.1c1.3,0,1.7,0.4,1.6,1.7c-0.1,1.7-0.1,3.5,0,5.2
		c0.1,1.1-0.3,1.6-1.5,1.6c-8.1,0-16.1,0-24.2,0c-1.7,0-1.4-1.1-1.4-2.1c0-14.8,0-29.5,0-44.3v-2.5c0-15.5,0-31.1,0-46.6
		C7,13.6,7.4,13,9.3,13c7.7,0.1,15.3,0.1,23,0C33.9,13,34.3,13.5,34.2,15z"/>
	<path class="st0" d="M89.8,69.9c-3.2,9.8-9.6,16.4-20,18.1c-11.2,1.8-20.1-2.4-26-12c-9.5-15.4-1.3-35.6,16.1-39.8
		c12.8-3.1,25.4,4.1,29.4,16.8c0.5,1.7,0.3,2.2-1.5,2c-0.6-0.1-1.3,0-2.4,0c-2.2,0.7-3.3-0.6-4.6-3c-5.9-11.5-22.7-11.8-30.3-0.8
		c-8.2,12-0.6,28.4,13.9,29.7c7.2,0.6,14.5-3.7,17.5-10.6c0.6-1.4,1.2-2.1,2.8-1.9c1.3,0.2,2.7,0.1,4.1,0
		C90.1,68.3,90.2,68.8,89.8,69.9z"/>
	<path class="st0" d="M95,102.6c-0.6-2.1-2.5-3.3-4.9-3.2c-2.5,0.2-4.5,1.9-4.9,4.2c-0.5,3,0.4,4.9,3.1,6.5c0.3,0.2,0.7,0.3,1,0.6
		c0,0,0.1,0.1,0.1,0.1c0,0,0,0.1,0,0.1c0,0.1,0,0.2-0.1,0.3c0-0.1,0-0.2,0-0.3c-3.9-1.2-5.7-4.4-4.4-8.1c1.1-3.3,4.5-4.8,7.9-3.6
		c1.3,0.5,2.4,1.3,3,2.6c0.2,0.4,0.7,1,0,1.3c-0.5,0.2-1.2,0.3-1.6-0.3c-0.3-0.6-0.7-1.1-1.2-1.5c-1.9-1.3-4.6-0.8-5.8,1.1
		c-1.2,1.9-0.7,4.8,1.2,6c1.9,1.3,4.2,0.8,5.7-1.5c0,0.1,0.1,0.2,0.1,0.3c0.1,0.7-0.4,1.2-1,1.6c-1.4,0.8-2.9,1.2-4.4,0.4
		c-1.8-0.9-2.6-2.4-2.5-4.4c0-2,0.7-3.5,2.5-4.2c1.8-0.8,3.6-0.5,5,0.9C94,102,94.3,102.6,95,102.6z"/>
	<path class="st0" d="M96.1,106.4c-0.5,2.7-2.3,4.1-4.9,4.7c0,0.1,0,0.2,0,0.3c-0.1-0.1-0.1-0.2-0.1-0.3c0,0,0,0,0-0.1v0
		c0,0,0-0.1,0.1-0.1c1.4-0.9,3-1.4,3.8-2.9c0.9-1.6,0.6-2.2-1.2-2.3c-1.1,0-2.2-0.2-3.4,0.3c0.6,0.8,1.4,0.5,2,0.6
		c0.5,0.1,1.2,0,1.4,0.5c-1.2,0-2.2,0-3.2,0c-0.6,0-1,0-1-0.8c0-0.7,0-1.1,0.9-1.1c1.6,0,3.1,0.1,4.7,0
		C96.2,105.1,96.2,105.6,96.1,106.4z"/>
	<path class="st0" d="M110,107.5c0.9,1,1.7,2.1,2.7,3.2c-1.7,0.5-2.7-0.1-3.5-1.3c-0.7-1-1.6-1.9-2.4-2.8c-0.4-0.4-0.9-0.9-0.6-1.5
		c0.3-0.6,0.9-0.3,1.4-0.3c0.3,0,0.6,0,1,0c0.9-0.1,1.4-0.7,1.6-1.5c0.2-0.9-0.1-1.7-1-2.1c-1-0.6-2.2-0.3-3.2-0.2
		c-0.8,0-0.4,0.8-0.4,1.2c0,2.5,0,4.9,0,7.4c0,0.6,0.4,1.5-0.9,1.4c-1.1,0-0.8-0.8-0.9-1.4c0-3.1,0-6.2,0-9.3c0-0.9,0.2-1.4,1.3-1.4
		c1.2,0.1,2.5,0,3.7,0.1c1.8,0.2,3,1.3,3.3,3.1c0.3,1.7-0.2,3.1-1.8,3.9C109.4,106.5,109.4,106.8,110,107.5z"/>
	<path class="st0" d="M131.5,104.1c0.5,3.3-1.3,5.8-4.7,6.9c-0.1,0.1-0.1,0.2,0,0.4c-0.1-0.1-0.1-0.2-0.1-0.4c0,0,0,0,0-0.1
		c0,0,0-0.1,0-0.1c1.8-1.1,3.7-2.2,4.2-4.5c0.6-2.8-0.8-5.7-3.5-6.6c-2.8-1-5.8,0.3-7,2.9c-1.2,2.5-0.2,5.8,2.1,7.2
		c0.6,0.4,1.3,0.5,1.9,1c0,0,0.1,0.1,0.1,0.1c0,0,0,0.1,0,0.1c0,0.1,0,0.2-0.1,0.3c0-0.1,0-0.2,0-0.3c-3.3-0.9-5.3-3.5-5-6.6
		c0.3-3.1,2.8-5.5,5.9-5.5C128.5,98.9,131,100.9,131.5,104.1z"/>
	<path class="st0" d="M140,88.1c-1.9-0.2-4.4,0.6-5.5-0.3c-1.2-1.1-0.3-3.6-0.4-5.6c-0.1-5-0.1-10.1,0-15.1c0-1.4-0.4-1.7-1.7-1.7
		c-6.2,0.1-12.3,0.1-18.5,0c-1.6,0-1.9,0.5-1.9,2c0.1,6.3,0,12.7,0.1,19c0,1.4-0.4,1.8-1.7,1.7c-1.5-0.1-3-0.1-4.5,0
		c-1.3,0.1-1.5-0.4-1.5-1.5c0-8.2,0-16.4,0-24.7c0-8,0.1-16.1-0.1-24.1c0-1.7,0.5-2.1,2.1-1.9c1.3,0.1,2.6,0.1,3.9,0
		c1.3-0.1,1.8,0.3,1.8,1.7c-0.1,6.2,0,12.4-0.1,18.6c0,1.2,0.3,1.6,1.6,1.6c6.4-0.1,12.7-0.1,19.1,0c1.1,0,1.4-0.3,1.4-1.4
		c-0.1-6.3,0-12.7-0.1-19c0-1.1,0.2-1.7,1.5-1.5c2,0.2,4.8-0.9,6,0.4c1,1.1,0.3,3.8,0.3,5.8c0,14.7,0,29.4,0,44.1
		C141.9,87.7,141.5,88.2,140,88.1z"/>
	<path class="st0" d="M148.2,100.9c0.1,2,0,4,0,6c0,2.5-0.8,3.5-3.4,4.1c-0.3,0.1-0.5,0.1-0.6,0.4c0-1,1-0.9,1.5-1.3
		c1.1-0.6,1.8-1.5,1.8-2.8c0-2.3,0.1-4.6-0.2-7c-0.4,2.1-0.1,4.3-0.3,6.4c-0.1,1.4-0.8,2.3-2.1,2.8c-1.3,0.5-2.4,0.2-3.4-0.7
		c-0.9-0.7-1-1.8-1-2.8c-0.1-2,0.1-4-0.3-6c-0.8,0.9-0.5,1.9-0.6,2.8c-0.2,3-0.3,6,2.9,7.9c0.2,0.1,0.1,0.3,0.1,0.5
		c-3-1.2-3.7-3.6-3.3-6.6c0.2-1.5,0-3.1,0-4.7c0-0.8,0.1-1.2,1.1-1.2c1,0,0.8,0.7,0.8,1.2c0,2.2,0,4.4,0,6.6c0,1.8,1.1,2.4,2.6,2.5
		c1.6,0.2,2.7-0.9,2.8-2.5c0-2,0-4,0-6c0-0.6-0.6-1.7,0.8-1.8C148.8,98.9,148.2,100.2,148.2,100.9z"/>
	<path class="st0" d="M163.5,100.3c1.2,1.5,1.3,3.2,0.4,4.9c-0.8,1.5-2.3,2.1-3.9,1.9c-1.8-0.2-2.3,0.5-2,2.1c0.1,0.3,0,0.6,0,1
		c0.1,0.7-0.3,0.8-0.9,0.9c-0.7,0-0.9-0.2-0.9-0.9c0-1.7,0-3.5,0-5.2c0-0.8-0.1-1.7,0-2.5c0.2-1.1-0.7-2.6,0.6-3.3
		C158.4,98.2,162.5,99.1,163.5,100.3z"/>
	<path class="st0" d="M182.7,35.2c-14.6,0-26.7,12.3-26.6,26.8c0.1,14.9,12.1,26.8,27.1,26.7c14.4,0,26.3-12.2,26.3-26.9
		C209.4,47.1,197.4,35.1,182.7,35.2z M182.7,81c-10.3,0-18.9-8.7-18.9-19.2c0-10.3,8.7-19,19-18.9c10.4,0,19,8.7,19,19.1
		C201.7,72.4,193.1,81,182.7,81z"/>
	<path class="st0" d="M241.8,110.4c0.1,0,0.2,0.1,0.4,0.2l-0.2,0.1l-0.2,0l0,0c-0.4,0.4-1,0.3-1.5,0.3c-7.9,0-15.7,0-23.6,0
		c-0.5,0-1.1,0.2-1.4-0.3c0-2.2,0-4.4-0.1-6.6c-0.1-1.3,0.4-1.7,1.6-1.6c4.9,0.1,9.9,0,14.8,0c1.4,0,2-0.2,2-1.9
		c-0.1-25.7-0.1-51.4,0-77.1c0-1.4-0.3-1.9-1.8-1.9c-5,0.1-10,0-15,0.1c-1.3,0-1.7-0.4-1.6-1.6c0.1-2.2,0.1-4.4,0.1-6.6
		c0.5-0.7,1.3-0.4,2-0.4c8.3,0,16.6,0,24.9,0c-0.4,0.3-0.8,0.5-1.3,0.5c-0.5,0.1-1,0-1.5,0c-7,0-13.9,0-20.9,0
		c-0.7,0-1.5-0.2-2.1,0.4c-0.1,0.1-0.2,0.1-0.2,0.2c-0.5,1.3-0.3,2.6-0.3,3.8c0,2.7,0.1,2.9,2.8,2.9c3.8,0,7.5,0,11.3,0
		c4,0,4.2,0.2,4.2,4.2c0,24.6,0,49.2,0,73.8c0,3.9-0.2,4.2-4.2,4.2c-3.7,0-7.4,0-11.1,0c-2.9,0-3,0.1-3,3.1c0,1.2-0.2,2.5,0.3,3.7
		c0.5,0.7,1.2,0.6,1.9,0.6c7.7,0,15.4,0,23.1,0c0.1,0,0.2,0,0.4,0h0.1C241.7,110.4,241.7,110.4,241.8,110.4z"/>
	<path class="st1" d="M242.1,13v97.6l-0.2,0.1l-0.2,0l0,0c-0.1-0.1-0.1-0.2-0.2-0.2c-0.7-1-0.5-2.2-0.5-3.3c0-26.1,0-52.2,0-78.3
		c0-3.9,0-7.8,0-11.7c0-3.1,0-3.1-3.2-3.1c-6.6,0-13.1,0-19.7,0c-0.6,0-1.2,0-1.8-0.1c-0.4-0.1-0.8-0.2-1.1-0.5
		c0.5-0.7,1.3-0.4,2-0.4C225.5,13,233.8,13,242.1,13z"/>
	<path class="st2" d="M148.2,100.9c0.1,2,0,4,0,6c0,2.5-0.8,3.5-3.4,4.1c-0.3,0.1-0.5,0.1-0.6,0.4h-1.6c-3-1.2-3.7-3.6-3.3-6.6
		c0.2-1.5,0-3.1,0-4.7c0-0.8,0.1-1.2,1.1-1.2c1,0,0.8,0.7,0.8,1.2c0,2.2,0,4.4,0,6.6c0,1.8,1.1,2.4,2.6,2.5c1.6,0.2,2.7-0.9,2.8-2.5
		c0-2,0-4,0-6c0-0.6-0.6-1.7,0.8-1.8C148.8,98.9,148.2,100.2,148.2,100.9z"/>
	<path class="st3" d="M126.7,111.4h-2.3c0-0.1,0-0.2,0-0.3c0,0,0.1-0.1,0.1-0.1c0.7-0.6,1.5-0.6,2.2,0c0,0,0.1,0,0.1,0.1
		C126.7,111.1,126.7,111.2,126.7,111.4z"/>
	<path class="st4" d="M91.2,111c0,0.1,0,0.2,0,0.3h-2c0-0.1,0-0.2,0-0.3c0,0,0.1-0.1,0.1-0.1C89.9,110.4,90.5,110.4,91.2,111
		L91.2,111C91.2,111,91.2,111,91.2,111z"/>
	<path class="st5" d="M15.8,23.5c0,25.6,0,51.3,0,77c0,1.6,0.5,1.9,2,1.9c4.9-0.1,9.9,0,14.8-0.1c1.3,0,1.7,0.4,1.6,1.7
		c-0.1,1.7-0.1,3.5,0,5.2c0.1,1.1-0.3,1.6-1.5,1.6c-8.1,0-16.1,0-24.2,0c-1.7,0-1.4-1.1-1.4-2.1c0-14.8,0-29.5,0-44.3v-2.5
		c0-15.5,0-31.1,0-46.6C7,13.6,7.4,13,9.3,13c7.7,0.1,15.3,0.1,23,0c1.6,0,2,0.5,1.9,2c-0.1,1.6-0.1,3.2,0,4.9
		c0.1,1.5-0.5,1.8-1.9,1.8c-4.9-0.1-9.8,0-14.6-0.1C16.2,21.5,15.8,22,15.8,23.5z"/>
	<path d="M182.7,35.2c-14.6,0-26.7,12.3-26.6,26.8c0.1,14.9,12.1,26.8,27.1,26.7c14.4,0,26.3-12.2,26.3-26.9
		C209.4,47.1,197.4,35.1,182.7,35.2z M182.7,81c-10.3,0-18.9-8.7-18.9-19.2c0-10.3,8.7-19,19-18.9c10.4,0,19,8.7,19,19.1
		C201.7,72.4,193.1,81,182.7,81z"/>
	<path class="st5" d="M241.8,108.1c0,0.8,0,1.5,0,2.3v0.2l0,0c-1.5,0.3-3,0.1-4.4,0.1c-6.7,0-13.5,0-20.2,0c-0.6,0-1.3,0.2-1.9-0.2
		c0-2.2,0-4.4-0.1-6.6c-0.1-1.3,0.4-1.7,1.6-1.6c4.9,0.1,9.9,0,14.8,0c1.4,0,2-0.2,2-1.9c-0.1-25.7-0.1-51.4,0-77.1
		c0-1.4-0.3-1.9-1.8-1.9c-5,0.1-10,0-15,0.1c-1.3,0-1.7-0.4-1.6-1.6c0.1-2.2,0.1-4.4,0.1-6.6c8,0,16.1,0,24.2,0c0.6,0,1.1,0,1.5,0.2
		c0.7,0.3,0.9,0.9,0.9,2.2C241.7,46.5,241.8,77.3,241.8,108.1z"/>
	<path d="M141.8,42.1c0,14.7,0,29.4,0,44.1c0,1.6-0.4,2-1.9,1.9c-1.9-0.2-4.4,0.6-5.5-0.3c-1.2-1.1-0.3-3.6-0.4-5.6
		c-0.1-5-0.1-10.1,0-15.1c0-1.4-0.4-1.7-1.7-1.7c-6.2,0.1-12.3,0.1-18.5,0c-1.6,0-1.9,0.5-1.9,2c0.1,6.3,0,12.7,0.1,19
		c0,1.4-0.4,1.8-1.7,1.7c-1.5-0.1-3-0.1-4.5,0c-1.3,0.1-1.5-0.4-1.5-1.5c0-8.2,0-16.4,0-24.7c0-8,0.1-16.1-0.1-24.1
		c0-1.7,0.5-2.1,2.1-1.9c1.3,0.1,2.6,0.1,3.9,0c1.3-0.1,1.8,0.3,1.8,1.7c-0.1,6.2,0,12.4-0.1,18.6c0,1.2,0.3,1.6,1.6,1.6
		c6.4-0.1,12.7-0.1,19.1,0c1.1,0,1.4-0.3,1.4-1.4c-0.1-6.3,0-12.7-0.1-19c0-1.1,0.2-1.7,1.5-1.5c2,0.2,4.8-0.9,6,0.4
		C142.5,37.4,141.8,40.1,141.8,42.1z"/>
	<path d="M89.8,69.9c-3.2,9.8-9.6,16.4-20,18.1c-11.2,1.8-20.1-2.4-26-12c-9.5-15.4-1.3-35.6,16.1-39.8c12.8-3.1,25.4,4.1,29.4,16.8
		c0.5,1.7,0.3,2.2-1.5,2c-0.6-0.1-1.3,0-2.4,0c-2.2,0.7-3.3-0.6-4.6-3c-5.9-11.5-22.7-11.8-30.3-0.8c-8.2,12-0.6,28.4,13.9,29.7
		c7.2,0.6,14.5-3.7,17.5-10.6c0.6-1.4,1.2-2.1,2.8-1.9c1.3,0.2,2.7,0.1,4.1,0C90.1,68.3,90.2,68.8,89.8,69.9z"/>
	<path class="st6" d="M96.1,106.4c-0.5,2.7-2.3,4.1-4.9,4.7h-0.1c-0.6,0-1.2,0-1.8,0h-0.1c-3.9-1.2-5.7-4.4-4.4-8.1
		c1.1-3.3,4.5-4.8,7.9-3.6c1.3,0.5,2.4,1.3,3,2.6c0.2,0.4,0.7,1,0,1.3c-0.5,0.2-1.2,0.3-1.6-0.3c-0.3-0.6-0.7-1.1-1.2-1.5
		c-1.9-1.3-4.6-0.8-5.8,1.1c-1.2,1.9-0.7,4.8,1.2,6c1.9,1.3,4.2,0.8,5.7-1.5c0,0,0,0,0-0.1h-0.1c-1.2,0-2.2,0-3.2,0
		c-0.6,0-1,0-1-0.8c0-0.7,0-1.1,0.9-1.1c1.6,0,3.1,0.1,4.7,0C96.2,105.1,96.2,105.6,96.1,106.4z"/>
	<path class="st7" d="M131.5,104.1c-0.5-3.2-3-5.2-6.2-5.2c-3.1,0-5.6,2.4-5.9,5.5c-0.3,3.1,1.7,5.7,5,6.6h0.1c0.7,0,1.5,0,2.2,0
		h0.1C130.2,109.9,132,107.4,131.5,104.1z M125.4,109.3c-2.2,0-4.2-2-4.2-4.2c-0.1-2.3,1.9-4.4,4.2-4.4c2.4,0,4.3,1.9,4.3,4.3
		C129.7,107.3,127.7,109.4,125.4,109.3z"/>
	<path class="st2" d="M112.8,110.8c-1.7,0.5-2.7-0.1-3.5-1.3c-0.7-1-1.6-1.9-2.4-2.8c-0.4-0.4-0.9-0.9-0.6-1.5
		c0.3-0.6,0.9-0.3,1.4-0.3c0.3,0,0.6,0,1,0c0.9-0.1,1.4-0.7,1.6-1.5c0.2-0.9-0.1-1.7-1-2.1c-1-0.6-2.2-0.3-3.2-0.2
		c-0.8,0-0.4,0.8-0.4,1.2c0,2.5,0,4.9,0,7.4c0,0.6,0.4,1.5-0.9,1.4c-1.1,0-0.8-0.8-0.9-1.4c0-3.1,0-6.2,0-9.3c0-0.9,0.2-1.4,1.3-1.4
		c1.2,0.1,2.5,0,3.7,0.1c1.8,0.2,3,1.3,3.3,3.1c0.3,1.7-0.2,3.1-1.8,3.9c-0.9,0.5-1,0.8-0.3,1.5
		C110.9,108.5,111.8,109.6,112.8,110.8z"/>
	<path class="st8" d="M163.9,105.2c-0.8,1.5-2.3,2.1-3.9,1.9c-1.8-0.2-2.3,0.5-2,2.1c0.1,0.3,0,0.6,0,1c0.1,0.7-0.3,0.8-0.9,0.9
		c-0.7,0-0.9-0.2-0.9-0.9c0-1.7,0-3.5,0-5.2c0-0.8-0.1-1.7,0-2.5c0.2-1.1-0.7-2.6,0.6-3.3c1.7-0.8,5.8,0.1,6.8,1.3
		C164.7,101.8,164.8,103.5,163.9,105.2z"/>
	<path class="st1" d="M241.8,110.6c-0.4,0.4-1,0.3-1.5,0.3c-7.9,0-15.7,0-23.6,0c-0.5,0-1.1,0.2-1.4-0.3
		C224.1,110.6,232.9,110.6,241.8,110.6z"/>
	<path class="st9" d="M158,103c-0.3-1.5-0.1-2.4,1.8-2.2c2,0.2,2.9,0.7,2.8,2.3c-0.1,1.8-1.3,2-2.8,2.1
		C157.9,105.4,157.7,104.4,158,103z"/>
</g>
</svg>
