<?xml version="1.0" encoding="utf-8"?>
<!-- Generator: Adobe Illustrator 26.0.3, SVG Export Plug-In . SVG Version: 6.00 Build 0)  -->
<svg version="1.1" id="Calque_1" xmlns="http://www.w3.org/2000/svg" xmlns:xlink="http://www.w3.org/1999/xlink" x="0px" y="0px"
	 viewBox="0 0 248.7 123.9" style="enable-background:new 0 0 248.7 123.9;" xml:space="preserve">
<style type="text/css">
	.st0{fill:#4F4F51;}
	.st1{fill:#FCFDFB;}
	.st2{fill:#F7FCFB;}
	.st3{fill:#FCFEFA;}
	.st4{fill:#505050;}
	.st5{fill:#4F4F4F;}
	.st6{fill:#4E4E4E;}
	.st7{fill:#4C4C4C;}
	.st8{fill:#FCFBF9;}
	.st9{fill:#405463;}
	.st10{fill:#F6FDFC;}
	.st11{fill:#FDFCF8;}
	.st12{fill:#515151;}
	.st13{fill:#FAFAFA;}
	.st14{fill:#545454;}
	.st15{fill:#F9FCF8;}
	.st16{fill:#4D4D4D;}
	.st17{fill:#525252;}
	.st18{fill:#7398B1;}
	.st19{fill:#F6FAF6;}
	.st20{fill:#F9F9F7;}
	.st21{fill:#F9F9F9;}
	.st22{fill:#768F9A;}
	.st23{fill:#F8F8F8;}
	.st24{fill:#F5F5F5;}
	.st25{fill:#F7F7F7;}
	.st26{fill:#EEEEEE;}
	.st27{fill:#5A5A5A;}
	.st28{fill:#F7F7F6;}
	.st29{fill:#F4F4F4;}
	.st30{fill:#F7F6F7;}
	.st31{fill:#F6F6F6;}
	.st32{fill:#F0F0F0;}
	.st33{fill:#F1F1F2;}
	.st34{fill:#555555;}
	.st35{fill:#4C4C4E;}
	.st36{fill:#F1F1F1;}
	.st37{fill:#F2F2F2;}
	.st38{fill:#F4F8F3;}
	.st39{fill:#F0F0F1;}
	.st40{fill:#F3F3F3;}
	.st41{fill:#575757;}
	.st42{fill:#FEFEFE;}
	.st43{fill:#4A4A4C;}
	.st44{fill:#4B4B4B;}
	.st45{fill:#505052;}
	.st46{fill:#474747;}
	.st47{fill:#484849;}
	.st48{fill:#4D4D4F;}
	.st49{fill:#434343;}
	.st50{fill:#FCFCF9;}
	.st51{fill:#4E4E4F;}
	.st52{fill:#524F4F;}
	.st53{fill:#4A4A4A;}
	.st54{fill:#474D52;}
	.st55{fill:#6990B2;}
	.st56{fill:#6B8DA3;}
	.st57{fill:#6693B7;}
	.st58{fill:#7D93A2;}
	.st59{fill:#394C5D;}
	.st60{fill:#7C8E9A;}
	.st61{fill:#628AA8;}
	.st62{fill:#314E62;}
	.st63{fill:#F4F6F7;}
	.st64{fill:#4F4E50;}
	.st65{fill:#2E506C;}
	.st66{fill:#4A7898;}
	.st67{fill:#E6F2F5;}
	.st68{fill:#38556D;}
	.st69{fill:#FBFBFB;}
	.st70{fill:#395072;}
	.st71{fill:#444444;}
	.st72{fill:#6191B8;}
	.st73{fill:#698FA9;}
	.st74{fill:#6290B1;}
	.st75{fill:#618FB9;}
	.st76{fill:#6190BA;}
	.st77{fill:#6091B5;}
	.st78{fill:#6696BF;}
	.st79{fill:#4479A2;}
	.st80{fill:#6090B8;}
	.st81{fill:#5E91BC;}
	.st82{fill:#5B90BA;}
	.st83{fill:#6094BF;}
	.st84{fill:#4F7490;}
	.st85{fill:#618BA8;}
	.st86{fill:#6696BE;}
	.st87{fill:#5E90BD;}
	.st88{fill:#244E70;}
	.st89{fill:#6094BE;}
	.st90{fill:#5D8CB4;}
	.st91{fill:#F8FDFC;}
	.st92{fill:#6891B0;}
	.st93{fill:#6E8EA6;}
	.st94{fill:#2E506D;}
	.st95{fill:#2C5267;}
	.st96{fill:#4279A5;}
	.st97{fill:#6390B5;}
	.st98{fill:#5D91BD;}
	.st99{fill:#5F90BD;}
	.st100{fill:#698FAB;}
	.st101{fill:#5B92BD;}
	.st102{fill:#6F8FA7;}
	.st103{fill:#E9FAFA;}
	.st104{fill:#718EA9;}
	.st105{fill:#6191B5;}
	.st106{fill:#6991AF;}
	.st107{fill:#7595B0;}
	.st108{fill:#688FAF;}
	.st109{fill:#6D8FA3;}
	.st110{fill:#678BA3;}
	.st111{fill:#6C8EA5;}
	.st112{fill:#6992B3;}
	.st113{fill:#7294B0;}
	.st114{fill:#728EA0;}
	.st115{fill:#D7EDF4;}
	.st116{fill:#5E91B5;}
	.st117{fill:#648FB4;}
	.st118{fill:#6A90AD;}
	.st119{fill:#5B93BB;}
	.st120{fill:#6B8CA6;}
	.st121{fill:#7192A9;}
	.st122{fill:#5D91BB;}
	.st123{fill:#658DAC;}
	.st124{fill:#EFFDFD;}
	.st125{fill:#618FBE;}
	.st126{fill:#66869C;}
	.st127{fill:#9EBFD6;}
	.st128{fill:#688CA1;}
	.st129{fill:#5E92B5;}
	.st130{fill:#244C6A;}
	.st131{fill:#FDFDFD;}
	.st132{fill:#EAF8FA;}
	.st133{fill:#FDFCF9;}
	.st134{fill:#6A92AC;}
	.st135{fill:#FCFCF5;}
	.st136{fill:#E8F8FB;}
	.st137{fill:#6A88A1;}
	.st138{fill:#6090BD;}
	.st139{fill:#708CA3;}
	.st140{fill:#EDF8FB;}
	.st141{fill:#DEF1F3;}
	.st142{fill:#698C9D;}
	.st143{fill:#638199;}
	.st144{fill:#F7FDFD;}
	.st145{fill:#698797;}
	.st146{fill:#F3FBFA;}
	.st147{fill:#F0F9FC;}
	.st148{fill:#F9FCF7;}
	.st149{fill:#6D8EA6;}
	.st150{fill:#6793AA;}
	.st151{fill:#F1FAFB;}
	.st152{fill:#6F8EA2;}
	.st153{fill:#6F8EA6;}
	.st154{fill:#EFFAFC;}
	.st155{fill:#6C8AA2;}
	.st156{fill:#638096;}
	.st157{fill:#6E8FA6;}
	.st158{fill:#E4F7FA;}
	.st159{fill:#EDF8FA;}
	.st160{fill:#E3F5F8;}
	.st161{fill:#FAFAF6;}
	.st162{fill:#F3FCFC;}
	.st163{fill:#FCFCF8;}
	.st164{fill:#FDFCF7;}
	.st165{fill:#FDFCF6;}
	.st166{fill:#F1FBFB;}
	.st167{fill:#FCFCF6;}
	.st168{fill:#FBF8F0;}
	.st169{fill:#5D8DA7;}
	.st170{fill:#FDFDF9;}
	.st171{fill:#678296;}
	.st172{fill:#5D92B6;}
	.st173{fill:#6F91A9;}
	.st174{fill:#6C91AB;}
	.st175{fill:#6996C1;}
	.st176{fill:#F6FDFB;}
	.st177{fill:#7090B0;}
	.st178{fill:#618599;}
	.st179{fill:#6E8D9F;}
</style>
<g>
	<path class="st0" d="M160.8,53.1c3.7-5.6,9.3-7.7,15.6-8.8c5-0.8,10-0.4,15-0.3c0.1-1.3-0.5-2.3-0.9-3.4c-0.6-0.4-0.8-1-1-1.7
		c0-0.1,0-0.2,0-0.3c0-0.1,0.1-0.2,0.2-0.3c-0.1,0.1-0.1,0.2-0.2,0.2c-4.2-4.3-9.3-3.8-14.5-2.6c-1.3,1-2.8,1.3-4.4,1.3
		c-1,0-1.8,0.4-2.5,1l0,0c-0.3,0.1-0.7,0.1-0.9,0c-0.6-0.2-1.7,0.2-1.9-0.8c-0.2-1.2,1.2-0.5,1.4-1.2c-0.6,0.4-1.4,0.7-1.4-0.4
		c-0.1-2.3-0.2-4.5,0.1-6.8c0-0.3,0.2-0.4,0.4-0.6c0.3-0.1,0.5-0.3,0.8-0.4c0.7,0.8,0.8-0.2,1.1-0.4c3.4-1.6,7-2.1,10.6-2.5
		c6-0.7,12-0.9,18,0.2c0.8,0.1,1.6,0.3,2.2,0.9c0.3,0.2,0.5,0.4,0.8,0.6c-0.6,1.3-1.2,2.6-1.1,4.2c0.1,0.6,0,1.2,0.7,1.4
		c0.6,0.1,1.2,0.2,1.5-0.4c0.5-0.9,0.9-0.7,1.5-0.1c0.7,0.7,1.8-0.4,2.7,0.3c1.8,2.2,2.5,4.9,2.5,7.6c0.1,11,0,21.9,0.1,32.9
		c0,1-0.2,1.5-1.4,1.4c-3.7-0.1-7.4-0.1-11,0c-1.1,0-1.3-0.4-1.4-1.4c-0.1-2.2,0.5-4.4-0.3-6.5c-0.2-0.2-0.4-0.4-0.6-0.2
		c-0.4,0.3-0.1,0.7-0.1,1c-1.4,1.6-2.9,3.2-4.3,4.9c-0.4,1.1-1.4,1.3-2.3,1.5c-0.4,0.1-0.7,0.3-1.1,0.4c-0.6,0.4-1.3,0.6-1.9,0.7
		c-4.1,0.9-8.1,0.7-12.2,0c-1.4-0.3-2.9-0.1-3.8-1.5c-5.9-3.3-8.2-8.5-7.6-15.1C159.6,56.2,159.2,54.3,160.8,53.1z"/>
	<path class="st0" d="M124.7,27.6c1.2-0.5,2.5-1.1,3.7-1.6c0.6-0.8,1.4-0.8,2.3-0.7c4.7-0.8,9.4-1,14.1-0.4c1-0.5,1.8,0,2.7,0.4
		c2,0.4,4.1,0.8,6.1,1.3c0.3-0.1,0.6,0.1,0.7,0.4c-0.3,3.2-0.6,6.4-0.8,9.7c-0.1,1-0.4,1.2-1.3,0.8c-1.5-0.7-3-1.2-4.7-1.4
		c-0.5-0.2-1.1,0-1.5-0.3c-3.4-0.7-6.9-0.8-10.3,0c-0.2,0.2-0.6,0.2-0.9,0.3c-0.3,0-0.6,0-0.7,0.3c-0.5,0.4-0.9,0.9-1.3,1.4
		c-0.6,0.3-0.5,0.9-0.5,1.5l0.1,0.1l-0.1,0.1c-0.3,0.7,0.2,1.1,0.7,1.5c2.3,1.7,5.1,2.2,7.7,3c2.5,0.7,5,1.4,7.4,2.1
		c0.8,0.1,1.7,0.2,2,1.1c0,0.1,0.1,0.2,0.1,0.3c0,0.2-0.1,0.4-0.2,0.5c-0.6,0.6-0.3,1.6-0.9,2.3c0.8-0.5,1.3,0.3,1.9,0.5
		c1.8,0.6,1.9,0.8,0.7,2.3c-0.3,0.4-0.2,0.7,0,1c0.3,0.3,0.7,0.7,1.1,0.4c1.8-1.4,2.5-0.4,3.1,1.2c0.1,0.3,0.3-0.4,0.5-0.1l0.1-0.1
		c1.2,0.8,0.6,1.9,0.7,3c0.1,1.1,0,2.1-0.3,3.2c-0.6,3-1.8,5.6-3.9,7.9c-0.9,0.9-1.5,2.3-3,2.3c-0.8,0.3-1.5,0.6-2.3,0.9
		c-0.1-0.2-0.1-0.4,0-0.5c-0.6,0.1-1.1,0.2-0.9-0.7c0.2-0.8,0.9-1,1.6-1.2c-0.9,0-1.7-0.2-2.6-0.2c-0.9,0-2-0.2-2.4,1
		c-0.4,1.2,0.4,1.9,1.4,2.4c-1.4,1.4-3.4,1.3-5.1,1.4c-7.3,0.6-14.6,0.2-21.6-1.9c-1.5-1-0.9-2.5-0.8-3.8c0.2-2.4,0.6-4.9,0.8-7.3
		c0.3-1,1-1,1.8-0.7c1,0.4,2.1,0.8,3.1,1.1c0.2,0,0.3,0.1,0.5,0.2c0.6,0.3,1.3,0.5,2,0.7c0.2,0,0.3,0.1,0.5,0.1
		c0.5,0.2,1.1,0.2,1.6,0.3c4.3,0.9,8.5,1.2,12.5-0.9c0.9,0.1,1.7,0,1-1.3c-0.2-0.6-0.2-1.3,0-1.9c1.1-1.3,1.2-0.4,1.3,0.6
		c-1.2-4.3,0.3-3.6-3.3-5c0.1,1.1,2.2,1,1.4,2.5c-0.5,0.2-1,0-1.4-0.3c-2.1-1.3-4.4-1.9-6.8-2.4c-0.2,0-0.4-0.1-0.6-0.1
		c-4-1-7.9-2.3-11.2-5c-1.4-1.4-2.8-2.9-2.8-5.1c0.4-3.3,0.1-6.6,0.3-9.9c0.1-0.3,0.2-0.6,0.5-0.9c0.4-0.5,0.8-1,1.1-1.5
		c0.6,0.4,0.7,1.3,1.3,1.7c-0.6-0.4-0.7-1.3-1.3-1.7c0.6-1.3,1.8-2,2.7-3C122.7,28.1,124,28.2,124.7,27.6z"/>
	<path class="st0" d="M226.3,10.7c0.6-0.2,1.2-0.4,2.1-0.8c0,3,0,5.7,0,8.5c0,2,0.1,3.9,0,5.9c0,1.1,0.3,1.4,1.4,1.4
		c3.2-0.1,6.5,0,9.7,0c1.2,0,1.5,0.3,1.5,1.5c-0.1,2.5-0.1,5,0,7.4c0.1,1.4-0.3,1.9-1.8,1.8c-3.1-0.1-6.2,0-9.3-0.1
		c-1.2,0-1.5,0.3-1.5,1.5c0.1,6.3,0,12.7,0,19c0,1.1,0.2,2.1,0.7,3.1c0.9,1.2,1.6,2.7,3,3.5c2.9,1.2,5.7,0.8,8.5-0.4
		c0.2-0.4,0.4-0.3,0.7-0.1c0.1,3.5,0.3,7.1,0.4,10.6c0.2,0.2,0.1,0.3-0.1,0.3c-4.3,1-8.7,1.2-13.1,0.9c-1.3-0.1-2.6-0.3-3.9-0.5
		c-0.4,0.1-0.5-0.1-0.4-0.5c0.3-0.3,0.7-0.6,1-0.4c1.5,0.7,1.9-0.3,2.4-1.3c0.8-1.5,0.4-2.2-1.3-2.3c-1.9-0.1-3.8,0.2-5.6,0.3
		c-0.9,0.1-1.3,1.1-2.1,1.1c-1.3-0.9-2.3-2-3-3.5c0.5-1.2,0-2.3-0.4-3.3c-0.2-0.5-0.4-0.9-0.3-1.4c0.4-1.1,0.5-2.2,0.8-3.3
		c0.2-6.5,0.1-12.9,0.1-19.3c0-3.9,0.1-7.7-0.1-11.6c-0.1-0.3-0.2-0.6-0.3-0.9c-0.2-0.9-0.3-2.4-0.1-2.7c1.1-1.3-0.3-1.7-0.6-2.5
		c-0.1-0.2,0-0.3,0.1-0.5c0.8-2,1.9-3.8,3.4-5.3c1.4,1.4,3.1,2.3,4.8,3.4c0.7,0.5,0.8,1.6,0.7,2.5c-0.2,1.8,0.6,2.5,2.3,2.4
		c0.8,0.5,1.3,0.6,1.4-0.7c0.4-3.9,0.2-7.8,0.2-11.7C227.4,12.2,226.9,11.5,226.3,10.7z"/>
	<path class="st0" d="M30.4,16.1c0-2.2,0.1-4.4,0.1-6.6c-0.1-1.4,0.3-1.8,1.8-1.8c4.5,0.1,9,0,13.4,0c0.8,0.1,0.9,0.7,0.9,1.3
		c0.1,4.6,0.2,9.2,0,13.8c0,0.3-0.2,0.5-0.3,0.7C45.5,24,44.8,24,44,24c-3.6,0-7.2,0.1-10.8,0c-2.7-0.1-3-0.2-3.4-2.5
		C29.9,19.7,29.4,17.8,30.4,16.1z"/>
	<path class="st1" d="M9.4,45.1c0.2-0.8-0.7-2.3,1.2-2.1c0-0.6-0.7-0.5-1-0.8c0.4-0.2,0.9-0.3,1.1,0c1,1.3,2.4,1,3.7,1
		c1.6,0,3.2-0.3,4.7-0.1c1.3,0.2,1.4-0.3,1.5-1.3c0.3-2.7,0.3-2.8-2.4-2.8c-1.2,0-1.9-0.5-2.9-1.1c-0.8-0.5-1.1,1.5-2.4,1.1
		c-1-0.3-2.1-0.1-3.2-0.1c-0.6,0-1.1-0.1-1.2-0.9c-0.1-0.6-0.5-0.6-1-0.7c-2.5-0.4-2.5-0.5-1.3-2.6c0.2-0.1,0.3-0.2,0.5-0.2
		c2,0.2,3.9-0.1,5.9,0c0.6,0,1.4-0.2,1.9,0.1c1.9,1,3.6,0.1,5.3-0.5c0.2-0.1,0.4-0.1,0.6-0.1c1.8,0.2,2.4,1.2,2.3,3
		c-0.1,4,0,8.1,0,12.1c0,1.7-0.7,2.9-2.1,3.7c-0.8-1-0.5-2.2-0.5-3.3c0-5.6,0-5.6-5.7-5.6c-0.5,0-1,0-1.5,0c-1.1,0-1.6,0.5-1.6,1.6
		c0,1.6,0,3.3,0,4.9c0,1.3,0.6,1.8,1.8,1.8c2.3,0.1,4.7-0.2,7,0.2c0.4,0,0.9,1.5,1.3,0c0-0.1,0.4,0,0.5,0.2c0.3,1,1.4,1.7,1,2.8
		c-1.4,0.9-2.4,1.3-2.4-1.1c0-0.6-0.4-1.3-1.2-1.2c-2.3,0.3-4.7-0.2-7,0c-0.3,0-0.5,0-0.8,0.1c-0.5,0.1-0.9,1.1-1.4,0.4
		c-0.4-0.6-0.8-1.8-0.5-2.1c1.1-1.2,0.5-2.6,0.6-3.9c0.1-1.3,0-2.7-0.5-4C9.8,44.4,9.6,44.7,9.4,45.1L9.4,45.1z"/>
	<path class="st2" d="M23.2,55.8c-0.2-1-1.4-1.5-1.2-2.7c-0.5,1-0.8,1-1.1,0l0,0c1.9-2.1,1.6-4.6,1.5-7.1c0-3.1,0-6.2,0-9.3
		c0-0.9,0.2-1.8-1.3-1.5c-0.6,0.1-0.4-0.9-1.1-0.8c-0.6-0.6-0.5-1.4-0.5-2.2c0-2.9,0-5.8,0-8.8c0-0.7,0.2-1.4-0.4-2
		c-0.4-0.2-0.8-0.3-1.2-0.4c-3-0.3-6-0.3-9.1,0c-0.4,0.1-0.8,0.2-1.3,0.2c-0.2,0-0.4,0.1-0.6,0.1c-0.7,0.5-0.4,1.3-0.5,1.9
		c0,3,0,5.9,0,8.9c0,0.8,0.1,1.7-0.6,2.3c-1.3-0.9-0.4-2-0.4-3c0-2.3,0-4.6,0-6.9c0-0.7,0-1.4,0-2.1c0-2.5,0-2.5,2.6-2.6
		c-0.2-0.7-1,0-1.3-0.8c0.5-0.5,1.3,0.5,1.7-0.3c0.5-0.5,1.1-0.5,1.8-0.5c5.1-0.3,10.2,0.5,15.2,1.4c1,0.2,1.4,0.9,1.3,1.8
		c-0.1,1.2-1,0.9-1.7,0.7c-0.4-0.1-0.7-0.2-1.1-0.2c-2.6-0.4-2.6-0.4-2.5,2.4c0.7,0.3,1.7-0.8,2.2,0.4c-0.1,9,0,18,0,27
		c0,0.5,0,1,0.2,1.5c0.1,0.2,0.2,0.3,0.4,0.5c0.8,0.7,1.7,0.5,2.7,0.4c1.1,0,2.2-0.4,3.2,0.5c0,0.1,0,0.2,0,0.3
		c-1.1-0.1-2,0.1-2.9,0.9C25.8,57.2,24.4,56.5,23.2,55.8z"/>
	<path class="st3" d="M23.5,24.5c-1,0.1-1.9,0.3-2.5,1.3c0.4-1.4-0.3-2.7-0.2-4.1c0.1-0.7,0.4-1.4,1-0.9c1.1,1,2.5,0.3,3.6,0.9
		c0.4,0.2,0.9,0.8,1.1-0.1c0.1-0.6-0.1-1.4-0.7-1.4c-2.5,0.4-4.6-0.9-7-1.1c-3.4-0.3-6.8-0.1-10.2-0.3c0,0,0,0,0,0
		c-0.2-0.3-0.2-0.5,0-0.8c-0.2-1.4,0.4-1.7,1.8-2c2.3-0.6,4.6-0.6,7-0.6c0.6-0.4,1.1-0.2,1.5,0.1c3.3,2.4,6.8,2.3,10.3,0.7
		c0.2-0.1,0.5-0.1,0.7,0c0.1,0,0.2,0,0.4,0c0,1.8,0,3.6,0,5.3c-0.6,1,0.4,2-0.2,3c-0.2,0.3-0.5,0.3-0.8,0.3
		c-0.7-0.3-1.3-0.6-2.1-0.5c-1.1,0-2.2-0.1-3.2,0.4C23.9,24.7,23.7,24.6,23.5,24.5z"/>
	<path class="st4" d="M152,83.7c0,0.8,0,1.5,0,2.3c0.2,4.9-4.7,5.7-7.5,4.2c-1.2-0.7-1.8-1.8-1.8-3.1c-0.1-2.2,0-4.4,0-6.7
		c0-1,0.6-1.1,1.3-1.1c0.9,0,1.2,0.4,1.2,1.2c0,1.8-0.1,3.6,0,5.3c0,1.4,0.3,2.7,2.2,2.7c1.9,0,2.1-1.3,2.1-2.7c0-1.7,0.1-3.4,0-5.1
		c0-1,0.3-1.5,1.4-1.5c1.1,0,1.3,0.5,1.2,1.4C152,81.7,152.1,82.7,152,83.7C152.1,83.7,152,83.7,152,83.7z"/>
	<path class="st5" d="M136,90.5c-2.5,0.8-4.9-0.1-6.2-2.2c-1.4-2.3-0.9-6,1-7.7c2-1.8,4.8-2,7.1-0.4c0.2,0.4,0.5,0.8,1,0.9
		c0.1,0.1,0.3,0.2,0.3,0.4c-0.3,0.8,0,1.3,0.6,1.8l0,0c0.3,0.9,0.2,1.9,0,2.8c-0.2,1.5-1.6,2-2.5,3c-0.3,0.4-1,0.3-1.2-0.4
		c0-0.2,0-0.4,0.1-0.5c0.1-0.2,0.3-0.4,0.5-0.5c0.7-0.7,1-1.6,1.2-2.5c0.2-1-0.8-1.3-1.2-2c-1-1.1-2.1-1.6-3.5-0.7
		c-1.1,0.8-1.5,3.1-0.7,4.5c0.3,0.5,0.7,0.9,1,1.3c0.4,0.6,0.9,1,1.7,0.6c0.5-0.2,1.1,0.2,1.3,0.5C137.1,90,136.3,90.1,136,90.5z"/>
	<path class="st6" d="M225.6,25.7c-2.4,0.8-2.7,0.6-2.7-1.8c0-3.2-0.1-3.3-3.1-3.9c-0.5-0.1-1.2-0.3-1-0.9c0.4-1.1-0.5-1.3-0.9-1.8
		c1-1.5,2.3-2.8,3.8-3.8c0.5-0.2,1-0.1,1.5-0.1c1.3-0.3,2.2,0.2,2.3,1.5c0.4,3.4,0.1,6.9,0.3,10.4C226,25.4,225.8,25.5,225.6,25.7z"
		/>
	<path class="st7" d="M215.7,60.4c0,1.1,0,2.2-0.8,3.1c-0.4,0.2-0.4,0.9-1.1,0.8c-0.4-0.8-0.6-1.7-0.5-2.6c0-0.1,0.1-0.1,0.1-0.2
		c0.3-0.5,0-0.9,0-1.4c-0.2-1-0.3-2-0.1-3c0.1-9.5,0-19,0-28.5c0.1-0.8-0.1-1.6,0-2.4c0-0.1,0-0.2,0.1-0.3c0.1,0,0.4-0.3,0.4-0.4
		c0.1-0.8,0.3-1.5,0.8-2.2c1.1,0.5,1.6,1.4,1.5,2.6c-0.6,0-0.1-0.7-0.6-0.8c-0.3,1,0.6,2.1-0.1,3.1c0,0-0.1,0.1-0.1,0.1
		c-0.1,0.1-0.2,0.2-0.4,0.2c-0.4,0.5-0.5,1.1-0.4,1.7c0,9.2,0,18.4,0,26.4c0.1-8.3-0.1-17.7,0.1-27.1c0.5-0.6,0.8-0.1,1.1,0.3
		c0.3,3,0.1,6,0.1,8.9c0,6,0,12.1,0,18.1c0.1,1.6,0.2,3.3-0.8,4.4c0-0.1,0.1-0.5,0.6-0.8C215.5,60.3,215.6,60.3,215.7,60.4z"/>
	<path class="st8" d="M117,87.8c0-4.3,0-8.6,0-13c0.4-0.2,0.4-1,1.1-0.8c0.5,1.7,0.5,3.5,0.5,5.3c0,1.2,1,0.6,1.5,0.8
		c0.2,0.4-0.1,0.8-0.2,1.2c-0.3,0.8-0.2,1.6,0.3,2.3c0.3,0.5,0.6,0.9,1.2,1c0.2,0.1,0.5,0.2,0.7,0.3c0.7,0.7,1.7,0.9,2.4,1.6
		c0.4,1.7-0.3,2.6-2,2.6c-0.8,0-1.6-0.4-2.4-0.5c-0.4,0.5,0,1.1-0.3,1.7c-0.6,0-1.1,0.1-1.6,0.4c-0.9,0-0.7-0.7-0.7-1.2
		C117.3,89.1,117.5,88.4,117,87.8z"/>
	<path class="st6" d="M225.6,25.7c-0.5-3.3-0.4-6.6-0.4-10c0-1.6-0.7-2.3-2.3-1.9c-0.2-0.4-0.3-0.8,0-1.2c1-0.8,2-1.6,3.3-1.9
		c1.1,0,1.7,0.6,1.6,1.7c-0.1,3.9,0.4,7.8-0.3,11.7c-0.1,0.5,0.1,0.9,0.2,1.3c0.1,0.5,0.5,1.2-0.5,1.2
		C226.5,26.7,225.5,27.1,225.6,25.7z"/>
	<path class="st5" d="M218.4,71.4c0.6-1.1,1.4-1.8,2.8-1.7c1.9,0.1,3.7-0.1,5.6-0.2c1.2-0.1,1.4,0.5,1.5,1.6c0.2,1.2-1.1,1.8-0.9,3
		c0,0.3-1.1,0.7-1.7,0.2c-0.6-0.5-1.2-0.3-1.8-0.2c-0.2,0.1-0.3,0.1-0.5,0.1c-0.6-0.3-1.1-0.8-1.8-0.8
		C220.4,73,219.3,72.4,218.4,71.4z"/>
	<path class="st9" d="M19.3,20.6c1.1,0,0.7,0.8,0.7,1.4c0,4.1,0,8.2,0,12.4c0,0,0,0,0,0c-1,1-2.3,0.5-3.5,0.5
		c-3.3,0-6.6,0.1-9.9-0.1c-0.1,0-0.2,0.1-0.4,0.1c-0.1-0.1-0.3-0.3-0.4-0.4C6,30.3,6,26.1,6,22c0-0.7-0.2-1.7,1.1-1.3
		c0.7,0.9,0.5,1.9,0.5,2.9c0,2.5,0,5.1,0,7.6c0,1,0.3,1.9,1.4,1.8c3,0,6.1,0.6,9.1-0.2c0.2-0.1,0.3-0.1,0.5-0.2
		c0.3-3.1,0-6.2,0.1-9.3C18.8,22.4,18.7,21.5,19.3,20.6z"/>
	<path class="st10" d="M30,16.1c-3.3,2.3-8.3,2.2-11.4-0.3c-0.4-0.3-0.7-0.4-1.2-0.4c2.6-1.1,1.9-3.4,1.9-5.4c0-1.2,0.5-1.6,1.6-1.4
		c0.9,1.4,0.3,3,0.5,4.5c0.1,0.7,0,1.4,0.1,2.1c0.1,0.8,0.7,0.9,1.4,0.9c1.3,0,2.6,0,4,0c1.1,0,1.6-0.4,1.5-1.5c0-1.3,0-2.6,0-4
		c0-0.7,0-1.4,0.5-2C29.9,8.4,30,9.1,30,9.9C30,12,30,14.1,30,16.1z"/>
	<path class="st4" d="M175,81c-0.3-1.2,0-1.8,1.4-1.7c1,0.1,2,0.2,3,0c1.7-0.2,2.3,0.3,2,2c-1,0.4-2.1,0-3.2,0.3
		c-1.4,0.4-1.2,1.2-0.6,2.1c0.1,0.1,0.3,0.2,0.5,0.3c1,0.4,1.3,1.1,0.7,2c-0.3,0.2-0.7,0.1-1.1,0.1c-0.6-0.1-0.8,0.1-0.5,0.7
		c0.3,0.6-0.6,1.7,0.7,2c0.7,0.1,1.4,0.1,2.1,0c1.4-0.2,1.8,0.4,1.4,1.7c-0.6,0.2-1.3,0.6-1.9,0.1c-0.5-0.1-1-0.4-1.5,0
		c-0.5,0.2-1,0.1-1.5,0c-0.5-0.3-1.5-0.1-1.5-1.2c0-0.1,0-0.3,0-0.4c0.6-0.6,1-1.2,0.9-2.1c-0.1-1.4,0-2.8,0-3.7
		c-0.1,1.1,0,2.7,0,4.2c0,0.5,0.1,1.3-0.9,0.9c0-0.1,0-0.3,0-0.4C175.2,85.5,175.2,83.2,175,81z"/>
	<path class="st11" d="M118,34.8c-0.5-0.3-0.9-0.6-1.1-1.1c0.3-2.5,0.3-5.1,0-7.6c0-5.8,0-11.7,0-17.5c0-0.2,0.2-0.3,0.4-0.4
		c0.9,0.3,1.2,1,1.2,1.9c0,5.3,0.2,10.7-0.2,16c-0.1,1.9-0.6,3.9-0.6,5.8c0,0.7,0,1.4,0.7,1.8c0,0.2,0,0.4,0,0.6
		C118.4,34.5,118.4,34.8,118,34.8z"/>
	<path class="st12" d="M167.3,83.2c1.1,0.5,2.3,1,3.4,1.5c1.4,0.7,1.7,2,1.5,3.4c-0.2,1.3-1,1.9-2.2,2.4c-1.8,0.7-3.6,0.4-5.4-0.1
		c-0.7-0.7-0.7-1.5-0.2-2.3c0.4-0.6,0.9-0.3,1.3,0.1c0.3,0.6-0.9,0.8-0.5,1.4c-0.2-0.5,0.3-0.8,0.6-1.1c0.6-0.4,1.2,0,1.8-0.1
		c0.4-0.1,0.9-0.1,1-0.7c0.1-0.5-0.4-0.7-0.7-0.9c-0.7-0.4-1.7-0.5-1.9-1.5C166.9,84.7,167,84.5,167.3,83.2z"/>
	<path class="st5" d="M204.8,32.1c-0.3,0-0.6,0-0.7,0.1c-1.1,0.7-2.1,0.8-2.9-1.2c0.2,2.3-1,1.8-2,1.9c-1.1,0.1-1.4-0.5-1.4-1.5
		c0.1-1.7-0.3-3.5,1.5-4.6C201.8,27.9,203.3,30,204.8,32.1z"/>
	<path class="st12" d="M119.7,90.5c-0.6-0.7-0.4-1.5-0.3-2.5c1.1,0.6,2.2,0.9,3.4,0.9c1.3-0.1,2.1-0.6,1.3-2.1
		c-0.6-0.7-0.9-1.7-1.1-2.6c0-0.1,0.1-0.1,0.1-0.2c1.8-0.2,3.9,1.5,4.1,3c0.2,1.4-0.3,2.6-1.7,3.3c-1.5,0.7-3.1,0.9-4.7,0.4
		C120.4,90.5,120,90.5,119.7,90.5z"/>
	<path class="st13" d="M166.1,85.1c0.8,0.4,1.6,0.8,2.3,1.2c0.6,0.3,1.3,0.7,1.1,1.6c-0.2,0.7-0.9,0.8-1.5,0.8
		c-0.7,0-1.5-0.1-2.2-0.2l0,0c-0.7-0.7-1.3-0.9-1.2,0.5c0,0.4,0.1,0.9,0.1,1.3c-0.5,0.7-0.5-0.3-0.9-0.3c-0.2-0.3,0.1-0.3-0.1-0.2
		c0,0,0,0.1,0,0.1c0.2,0.2,0.2,0.2,0.1,0.1c-0.9,1.1-2,0.6-3.1,0.4c0-0.2,0-0.3,0.1-0.5c0.1-0.1,0.2-0.2,0.3-0.3
		c0.4-0.4,0.7-0.8,0.9-1.3c0.3-0.6-0.2-1.1-0.3-1.6c-0.1-0.4,0.1-0.7,0.3-1c1.7,0.6,2.1-0.7,2.7-1.8
		C165.5,83.9,165.9,84.4,166.1,85.1z"/>
	<path class="st6" d="M156.6,55.4c-0.6,0.2,0.3,1.3-0.9,1.2c0.2-0.8,0-1.6-0.6-2.2c-0.5-0.4-1-0.9-1.4,0.1c-0.2,0.6-0.5,0.9-1.1,0.5
		c-0.7-0.4-1.6-0.6-1.6-1.7c0-0.7,0.2-1.3,1.1-1c0.4,0.1,0.4-0.1,0.3-0.4c-0.1-0.5-0.5-1-0.8-0.9c-0.9,0.3-1.3,0.2-1.7-0.7
		c-0.2-0.4-0.3,0.5-0.9,0.5c0.4-1.2-0.6-2.8,1.3-3.5c0.9,0.2,1.6,0.8,2.2,1.5c-0.1,0.2,0.3,1.1,0.4,1.4c0.3,0.8,0.5,1.7,1.3,2.2
		c0.9,0.5,1.5,1.3,2,2.2C156.3,54.9,156.4,55.2,156.6,55.4z"/>
	<path class="st6" d="M144.9,73.4c-1.5,0.1-1.9-0.8-2-2c0-1.4,0.8-1.8,2.1-1.8c1.2-0.1,2.3,0.5,3.5,0.1c0.2-0.1,0.9,0.3,0.9,0.5
		c0.1,0.5-0.4,0.9-0.8,0.8c-0.9-0.2-1.3,0.1-1.4,0.9c0.6,0.3,0.8-0.7,1.4-0.2c-0.2,0.3-0.5,0.6-0.7,1
		C146.9,73.2,145.9,73.4,144.9,73.4z"/>
	<path class="st14" d="M119.9,84c-0.9-0.8-0.8-1.7-0.3-2.7c0.5-0.5,0.9-1.2,1.5-1.5c0.3-0.2,0.6-0.5,1-0.4c1.2-0.4,2.4,0.2,3.6,0
		c0.1,0,0.2,0,0.3,0.1c-0.1,0.5,0.7,0.6,0.5,1.1l0,0c-0.5,0.8-1.2,0.4-1.9,0.5c-0.7,0.1-1.4-0.3-2,0.2c-1.9,1.2,0,1.8,0.4,2.6
		L123,84c-0.3,0.4-0.6,0.9-1.2,1.2c-0.2,0-0.5-0.1-0.7-0.1C120.7,84.9,120.3,84.4,119.9,84z"/>
	<path class="st4" d="M160.4,84.4c0.4,0.4,1.2,0.5,1.2,1.3c0.3,1-0.2,1.7-1,2.2c-0.7,0.1-0.7-0.6-1-0.9c-1.3-1.3-3.6-1.2-4.5-3.1
		c0.4-1,0.7-2.1,2.2-1.9c0.1,1.1,0.9,1.4,1.8,1.6C159.7,83.8,160.2,83.7,160.4,84.4z"/>
	<path class="st15" d="M30.8,74.1c0,0.3,0,0.5,0,0.8c-0.1,0.3-0.1,0.7-0.5,0.3c-0.4-0.5-0.2-1.1-0.2-1.7c0-6.2,0-12.3,0-18.5
		c0,0,0,0,0,0c0.4-0.2,0.7-0.2,1,0.2c0.3,0.5,0.3,1.1,0.3,1.7c0,5.1,0,10.2,0,15.3C31.3,72.8,31.3,73.5,30.8,74.1z"/>
	<path class="st16" d="M166.1,85.1c-0.5-0.4-1-0.8-1.5-1.2c0-1.2-0.6-2.5,0.6-3.4c0.1,0,0.1-0.1,0.2-0.1c0.6,0.1,0.8,0.5,0.7,1.1
		c0.1,0,0.2,0,0.2-0.2c0-0.7,0.3-1.1,1-0.9c0-0.2-0.1-0.1-0.2-0.1c-0.3-0.1-0.6-0.2-0.7-0.6c0.2-0.4,0.5-0.4,0.9-0.3
		c1.2-0.2,2.3-0.2,3.5-0.1l0,0c0.1,0.4,0.8,0.2,0.8,0.7c-0.1,0.6-0.6,0.9-1.1,0.9c-0.9,0.1-1.9,0-2.8,0.3c-0.9,0.5-0.9,1.1-0.4,1.9
		c0,0.1-0.1,0.3,0,0.4C168,85,168.1,85,166.1,85.1z"/>
	<path class="st17" d="M213.4,57.3c-0.2,1.1,0.4,2,0.4,3.1c0,0.4,0,0.8-0.3,1.1c0,0-0.1,0-0.1,0c-0.3-0.8-0.3-1.6-0.3-2.4
		c0-10.2,0-20.5,0-30.7c0-0.8-0.1-1.7,0.3-2.4c0.4,0.6,0.4,1.3,0.4,2c-0.4,0.7-0.2,1.4-0.2,2c0,8.4,0,16.8,0,25.3
		C213.6,55.9,213.8,56.6,213.4,57.3z"/>
	<path class="st16" d="M157.3,82.1c-1.1,0.2-1.3,1.4-2.2,1.9L155,84c-1.1-2.1-0.9-3,1-4.2c0.5-0.2,0.9-0.3,1.4-0.5
		c1.7-0.1,3.5-0.8,4.6,1.2c0,0.3,0,0.5,0,0.8c-1.2-0.2-2.3-0.3-3.5-0.2c-0.5,0.1-0.8,0.2-1,0.7C157.4,81.9,157.4,82,157.3,82.1z"/>
	<path class="st13" d="M210.4,59.9c0-9.8,0-19.7,0-29.5c0.1,0,0.1,0,0.2,0c0,9.9,0,19.7,0,29.6C210.6,59.9,210.5,59.9,210.4,59.9z"
		/>
	<path class="st18" d="M20.9,15.4c0-2.3,0-4.6,0-6.9c2.5,0,5,0,7.6,0c0.4,2,0.1,4.1,0.2,6.1c0,0.6-0.2,1-0.9,0.8
		c-0.9-0.9-0.5-2-0.6-3.1c-0.1-1,0.3-2-0.6-2.8C21.7,9,21.7,9,21.8,13.7c0,0.5,0.1,1,0,1.5C21.5,15.6,21.2,15.6,20.9,15.4z"/>
	<path class="st12" d="M136,90.5c-0.2-0.5,0.7-0.7,0.3-1.1c-0.3-0.3-0.7-0.4-1.1,0c-1.1,0.8-1.3-0.5-1.8-0.9c0.9-0.6,1.9-0.5,3-0.3
		c0.1,0.5,0.5,1,0.8,0.5c0.8-1.3,2.6-1.8,2.6-3.6c0-0.6,0-1.3,0-1.9C140.9,86.8,139.3,89.8,136,90.5z"/>
	<path class="st19" d="M117,72.9c0-2.9,0-5.9,0-8.8c0.5-0.5,0.8-1.1,0.8-1.8c0-0.4,0.1-0.9,0.7-0.8c-0.2,3.2-0.5,6.3-0.7,9.5
		c-0.1,0.7-0.2,1.4,0.4,1.9C117.7,72.9,117.3,72.9,117,72.9z"/>
	<path class="st12" d="M165.8,28.4c-0.7,2.1-0.3,4.3-0.4,6.4c0,0.5-0.3,1.3,0.5,1.4c1,0.1,0.4-1,0.9-1.4c0.8,1.5-0.5,1.8-1.7,2.6
		c1.3,0.2,2.3,0.1,3,0.8c-0.9,0.6-1.9,1.1-3,1.8c0-3.7,0-7.2,0-10.7C165.1,28.9,165,28.3,165.8,28.4z"/>
	<path class="st0" d="M156.2,54.6c-1.2-1.4-3.4-1.9-3.6-4.2c-0.1-0.8-1.4,0-1.8-0.8c0.4-0.6,1.6,0.4,1.7-0.8
		C154.4,50.3,155.9,52.1,156.2,54.6z"/>
	<path class="st20" d="M170.5,37.1c1.5-0.4,3-0.8,4.4-1.1c0.6,0.4,1.7,1,1.1,1.6c-0.6,0.6-1.8,1.3-2.8,0.4c-0.9-0.8-2,0.1-2.9-0.5
		C170.2,37.3,170.3,37.2,170.5,37.1z"/>
	<path class="st15" d="M32.7,74.8c0.6-0.7,1.5-0.4,2.1-0.3c3.1,0.5,6.3,0.3,9.4,0.3c0.4,0,0.8,0,1,0.4c-2.9,0.1-5.7,0.2-8.6,0.4
		C35.3,75.7,34,75.4,32.7,74.8z"/>
	<path class="st21" d="M160.8,53.1c-0.5,1.6-1,3.2-1.5,4.7c-0.3-1.8-1.1-3.6-0.8-5.5c0.1-0.6,0-0.6,0.3-0.7
		c-0.1,1.1,1.5-1.3,1.1,0.5C159.8,52.6,160.4,52.9,160.8,53.1z"/>
	<path class="st22" d="M27.7,15.4c0.9-0.1,0.7-0.8,0.8-1.4c0-1.8,0-3.6,0-5.4c0.1,0,0.2-0.1,0.3,0c0,2.2,0,4.4,0.1,6.7
		c0,1-0.3,1.4-1.3,1.4c-1.9-0.1-3.8,0-5.7,0c-0.9,0-1.1-0.4-1-1.2c0.2,0,0.5,0,0.7,0c1,0.3,2,0.3,3,0.3c1,0,1.9,0.1,2.9-0.2
		C27.6,15.4,27.6,15.4,27.7,15.4z"/>
	<path class="st23" d="M150.1,71.7c1-0.8,2-1.5,3-2.3c-0.1,0.3-0.3,0.7-0.4,1.1c0.7,0.5,0.8-1,1.3-0.5c0.4,0.3,0.5,1,0.7,1.5
		c-0.5,0.5-1.1-0.6-1.7,0.5c-0.5,1-2,0.2-2.9,0.6C150.1,72.1,150.1,71.9,150.1,71.7z"/>
	<ellipse class="st21" cx="230.4" cy="48.2" rx="0.1" ry="12.3"/>
	<path class="st15" d="M48.3,75.6c0.5,0.4,0.4,0.9,0.4,1.4c0.1,4.3-0.2,8.7,0.3,13c0.1,0.5-0.2,0.8-0.7,0.9
		C48.3,85.8,48.3,80.7,48.3,75.6z"/>
	<path class="st24" d="M156,79.9c-1.2,1.2-1.7,2.5-1,4.2c-1.1-1.3-3.1-2.3-1.9-4.6c0.1-0.3-0.8-0.6,0-0.7c0.5-0.1,0.8,0.4,0.5,0.9
		c-0.2,0.5-0.6,1-0.3,1.7C154,80.5,154.7,79.5,156,79.9z"/>
	<path class="st6" d="M213.9,64.2c0.4-0.3,0.5-0.8,1.1-0.8c1.4,0.9-0.2,3.4,2.2,3.6c-0.5,0.9-1.5,0.1-1.8,0.9
		C214.7,66.8,214,65.6,213.9,64.2z"/>
	<path class="st25" d="M166.9,72.9c1.3,0.5,2.5,1,3.8,1.5c-1.5-0.1-3,1.3-4.6,0.3c0.4-0.5,1,0.1,1.5-0.4c-1.2-0.3-2.2-0.5-3-1.2
		C165.3,72.2,166.2,74.3,166.9,72.9z"/>
	<path class="st21" d="M157,61.5c-0.1-2,0.2-4.1-0.3-6.1c0.4-0.3,0.5-0.8,0.8-1.3C157.9,56.6,158.3,59.1,157,61.5z"/>
	<path class="st15" d="M117,87.8c0.8,0.1,0.7,0.7,0.8,1.3c0,0.6-0.2,1.3,0.4,1.8c-0.1,2-1.3,3.1-2.7,2.3c0.2-0.8,1.1-0.6,1.5-1.1
		c0.5-0.8,0.2-1.5,0-2.3C117,89.1,117,88.5,117,87.8z"/>
	<path class="st4" d="M181.4,90.4c-0.1-1.3-0.9-1.6-2.2-1.5c-2,0.1-3.1-1.2-2.7-3.1c0.2-0.8,0.7,0.4,1.1,0.1
		c0.1,0.1,0.1,0.2,0.1,0.2c0,0.1-0.1,0.1-0.1,0.1c-0.2,2.6-0.4,2.3,2.4,2.3C182.1,88.6,182.1,88.6,181.4,90.4z"/>
	<path class="st26" d="M177.6,86.3c-0.1-0.1-0.1-0.2,0-0.4c0.4,0,0.7,0,1.1,0c0.4-0.5,1.1-0.3,1.5-0.9c-0.7-0.8-1.8-0.5-2.6-1l0,0
		c-0.3-0.2-0.2-0.5-0.1-0.7c0.9,0.5,1.8,0.4,2.7,0.4c1.1,0,1.7,0.7,1.7,1.6c0.1,1-0.9,1.1-1.6,1.1C179.5,86.3,178.6,86.3,177.6,86.3
		z"/>
	<path class="st16" d="M160.4,87.8c0.4-0.7,1.1-1.2,1.2-2.1c0.1,0.1,0.2,0,0.3,0c0,0.4,0,0.8,0,1.2c0.1,0.1,0.1,0.3,0.1,0.5
		c-0.3,0.7-0.1,1.6-0.8,2.1c-0.4,0.2-0.8,0.3-1.2,0.4c-0.6-0.1-1.1,0.8-1.8,0.1c-0.2-0.6,0.3-1,0.5-1.4c0.1,0,0.3,0,0.4,0
		C160,88.9,159.9,87.8,160.4,87.8z"/>
	<path class="st25" d="M130.7,25.3c-0.7,0.4-1.5,0.6-2.3,0.7c-0.3-0.2-0.5-0.5-0.8-0.7l0,0c-0.7-0.9-1.6,0.1-2.4-0.3
		C127.1,24.4,128.9,24.2,130.7,25.3z"/>
	<path class="st25" d="M232.1,63.5c-1.6-0.7-2.8-1.7-3-3.5c0.7,0.1,1.5,0.8,1.8,1.6C231.2,62.2,231.7,62.9,232.1,63.5z"/>
	<path class="st25" d="M189.5,38.9c0.5,0.4,1,0.9,1,1.7c-0.4,0.3-0.5,0.8-0.5,1.3c0,0.4,0.7,1.1-0.2,1.3c-0.8,0.2-0.1-1-0.7-1.1l0,0
		C188.3,40.9,189.7,40,189.5,38.9z"/>
	<path class="st27" d="M155,90.3c-0.6-0.7-0.3-1.5-0.2-2.4c0.9,0.6,2,0.7,3,1c0.1,0.2,0.2,0.4,0,0.6C157.1,90.4,155.9,89.9,155,90.3
		z"/>
	<path class="st14" d="M167.7,81.3c0.7-0.4,1.4-0.7,2.2-0.6c0.7,0,1.7-0.2,0.9-1.3c1.3-0.1,1.2,0.8,1.1,1.6
		c-0.1,1.3-0.9,0.3-1.4,0.4C169.5,81.4,168.6,81.3,167.7,81.3z"/>
	<path class="st28" d="M145.9,35.6c0.5,0,1.1-0.2,1.5,0.3c-0.1,1.1,1,1,1.5,1.6l0,0c-0.8,0.4-1.9-0.4-2.6,0.8
		C146.8,37.1,147,36.3,145.9,35.6z"/>
	<path class="st4" d="M175,88.2c0.9-0.2,0.7-0.9,0.7-1.5c0-1.5,0-3,0.4-4.5c0,2,0,4,0,6c0,0.8-0.8,0.4-1.1,0.8
		C175,88.7,175,88.4,175,88.2z"/>
	<path class="st29" d="M150.1,47c-0.7-0.4-1.4-0.7-2-1.1c1.2-0.6,2.5-0.1,4-0.2C151.4,46.4,150.5,46.4,150.1,47z"/>
	<path class="st30" d="M147.5,25.2c-0.9-0.1-1.8-0.3-2.7-0.4c-0.1-0.2-0.3-0.4-0.4-0.6c0.6-0.2,1.2-0.8,1.8-0.4
		C146.7,24.3,147,24.8,147.5,25.2z"/>
	<path class="st27" d="M158.5,90.1c0.6,0.1,0.9-0.9,1.5-0.4c0.3,0,0.6,0.1,0.8,0.4c-0.1,0.1-0.1,0.2-0.1,0.3c-1.5,0.3-3,0.9-4.5,0.1
		c0.1-0.5,0.6-0.6,1-0.7C157.6,89.7,158.1,90,158.5,90.1z"/>
	<path class="st4" d="M175,81c0.6,2.3,0.5,4.6,0,6.8C175,85.5,175,83.2,175,81z"/>
	<path class="st17" d="M214.6,23c0,1.1-1.1,2.3,0.5,3.4c-0.8-0.1-1-0.8-1.7-0.7c0.1-1.1,0.4-2.2,1.1-3.1
		C214.6,22.7,214.6,22.9,214.6,23z"/>
	<path class="st24" d="M132.6,37.5c0.4-0.5,0.7-1.2,1.5-1.3c0,0.7,0.1,1.4-0.3,2l0,0c-0.4,0.5-0.8,0.5-1.1,0
		C132.3,38,132.4,37.7,132.6,37.5z"/>
	<path class="st31" d="M139.4,81.4c1.5,0.5,1.8-0.4,1.8-1.6c0.2,0.9,0.3,1.7,0.5,2.8c-0.7-0.2-1.3-0.3-2-0.5
		C139.2,82.1,139.2,81.8,139.4,81.4z"/>
	<path class="st27" d="M161.9,80.6c-1.3-1.4-3-1.1-4.6-1.2c1.1-0.6,2.3-0.3,3.5-0.2C161.6,79.3,162.3,79.6,161.9,80.6z"/>
	<path class="st29" d="M185.9,73.3c0.8-0.5,1.6-1,2.3-1.5c0.9,1.1-0.5,1.3-0.7,1.9l0,0C187,73.6,186.4,73.4,185.9,73.3z"/>
	<path class="st25" d="M9.4,45.1c0,2,0,4,0,6C9.2,49.1,8.6,47.1,9.4,45.1C9.4,45.1,9.4,45.1,9.4,45.1z"/>
	<path class="st32" d="M198.5,26.2c-0.8-0.3-1.6-0.4-2.2-0.9C197.2,24.6,197.8,24.9,198.5,26.2z"/>
	<path class="st27" d="M157.4,81.8c0.4-1.6,1.7-0.8,2.6-1c0.7-0.1,1.3,0.2,1.9,0.5c-0.8,0.7-1.4-0.2-2.2-0.1
		C158.9,81.3,158.1,81.2,157.4,81.8z"/>
	<path class="st33" d="M124.7,27.6c-0.6,0.7-1.5,1.1-2.3,1.5c-0.1-0.4-0.7-0.6-0.5-1.1c0.2-0.5,0.7-0.4,1.1-0.2
		C123.5,28.1,124,27.5,124.7,27.6z"/>
	<path class="st14" d="M166.4,79.8c0.4,0.2,0.9,0.4,1.8,0.8c-1.4-0.2-1.7,0.4-1.8,1.3c-0.5-0.5-0.8-1-1.2-1.4
		C165.5,80,165.9,79.8,166.4,79.8z"/>
	<path class="st34" d="M122.7,81.3c-0.1-0.4-0.3-0.8,0.4-0.6c1.2,0.4,2.4,0.3,3.5-0.2c0.3,0.8,0.3,1.2-0.8,0.9
		C124.8,81.1,123.7,81.2,122.7,81.3z"/>
	<path class="st35" d="M192.6,66.9c-1.2-0.8-0.9-1.4,0.4-1.6c0.4-0.1,0.4-0.1,0.3,0.9C193.2,66.5,192.9,66.7,192.6,66.9z"/>
	<path class="st34" d="M125.8,79.4c-1.2,0.9-2.4-0.1-3.6,0C123.4,78.9,124.6,78.9,125.8,79.4z"/>
	<path class="st4" d="M177.6,83.2c0,0.2,0,0.5,0.1,0.7c-1.8-0.9-0.6-1.7,0-2.6c0.1,0.1,0.1,0.2,0.1,0.3c0,0.1-0.1,0.1-0.1,0.1
		C177.6,82.2,177.6,82.7,177.6,83.2z"/>
	<path class="st31" d="M223.7,74.1c0.1,0.1,0.2,0.1,0.3,0.1c0.2,0.1,0.3,0.2,0.5,0.4c-0.6,0.2-1,1.1-1.8,0.7c-0.5-0.3,0.1-0.8,0-1.2
		C223,73.8,223.4,73.8,223.7,74.1z"/>
	<path class="st16" d="M157.4,90.1c-0.4,0.1-0.8,0.3-1.2,0.4c-0.4,0-0.8,0.1-1.2-0.3c0.7-0.9,1.9-0.4,2.7-0.9c0.2-0.1,0.4,0,0.4,0.1
		C158.2,90,157.7,89.9,157.4,90.1z"/>
	<path class="st12" d="M167.7,27.5c0,0.1-0.1,0.1-0.1,0.2c0,0.7,0.1,1.6-0.8,1.6c-1.1-0.1,0.6-1-0.3-1.4
		C166.8,27.6,167.2,27.5,167.7,27.5z"/>
	<path class="st36" d="M154.3,26.9c-0.2-0.1-0.5-0.3-0.7-0.4c0.1-0.6-0.5-0.7-0.9-1.2C153.7,25.5,155.1,25,154.3,26.9z"/>
	<path class="st15" d="M49.1,92.4c0.6,0.4,0.3,1,0.4,1.5c-0.5,0-1,0.1-1.1-0.7C48.3,92.7,48.6,92.4,49.1,92.4z"/>
	<path class="st31" d="M219.8,75.5c-0.3-0.2-0.5-0.6-0.4-0.6c1,0-0.3-1.2,0.6-1.2c0.5,0,0.7,0.3,0.5,0.7
		C220.4,74.9,220.1,75.2,219.8,75.5z"/>
	<path class="st14" d="M170.8,79.4c-1.2,0.2-2.3,0.3-3.5,0.1C168.4,78.9,169.6,79,170.8,79.4z"/>
	<path class="st12" d="M139.4,81.4c0,0.3,0.1,0.6,0.4,0.7c0,0.4,0.1,0.7,0.1,1.1c-1.4-0.1-1.7-0.8-0.8-1.9
		C139.2,81.2,139.3,81.2,139.4,81.4L139.4,81.4z"/>
	<path class="st29" d="M182.9,74.5c0.6-0.2,1.3-0.5,1.9-0.7c-0.1,0.2-0.3,0.5-0.4,0.7l0,0C183.9,74.2,183.4,76.6,182.9,74.5z"/>
	<path class="st25" d="M232,61.5c1.2,0.4,1.7,0.8,1.3,2.1C232.9,62.8,232.6,62.3,232,61.5z"/>
	<path class="st37" d="M160.4,84.4c-0.4-0.2-0.9-0.5-1.3-0.7c0.6-0.1,0.9-1.1,1.6-0.6C161.4,83.6,160.5,83.9,160.4,84.4z"/>
	<path class="st26" d="M177.6,81.7c0-0.1,0-0.3,0-0.4c1.3,0,2.5,0,3.8,0C180.2,82,178.9,81.8,177.6,81.7z"/>
	<path class="st15" d="M106.3,93.2c0.6,0,1.3,0,1.9,0c0.1,0.3,0.3,0.8-0.3,0.7C107.2,93.9,106.4,94.2,106.3,93.2z"/>
	<path class="st15" d="M45.3,75.2c1-0.1,2-0.9,3,0C47.3,74.8,46.3,76.2,45.3,75.2z"/>
	<path class="st15" d="M31.2,74.8c0.5-0.7,1-0.2,1.5,0C32.2,75.5,31.7,76,31.2,74.8z"/>
	<path class="st12" d="M157.4,90.1c-0.1-0.3,0.8-0.2,0.4-0.8c0-0.1,0-0.3,0-0.4c0.4-0.1,0.8-0.2,1.1-0.3c-0.1,0.5-0.3,1-0.4,1.5
		C158.1,90.7,157.8,90.2,157.4,90.1z"/>
	<path class="st38" d="M118.1,74.1c-0.4,0.2-0.6,0.8-1.1,0.8c0-0.5,0-1,0-1.5C117.4,73.5,118.1,73.2,118.1,74.1z"/>
	<path class="st39" d="M118.7,31.9c0.3-0.6-0.3-1.3,0.3-1.8c0.1-0.1,0.4,0,0.4,0.1C119.5,30.8,119.2,31.4,118.7,31.9z"/>
	<path class="st12" d="M170.5,37.1c0,0.1-0.1,0.2-0.2,0.3c-0.8,0.3-1.5,0.5-2.3,0.8C168.5,37,169.5,37.2,170.5,37.1z"/>
	<path class="st32" d="M139.4,81.4c-0.1,0-0.2,0-0.3-0.1c0,0,0,0,0,0c-0.2-0.2-0.6-0.3-0.4-0.7c0.6,0.1,0.6-1.2,1.2-0.6
		C140.4,80.5,139.6,80.9,139.4,81.4z"/>
	<path class="st40" d="M241.3,63.1c-0.2,0-0.5,0.1-0.7,0.1c0.2-0.7,0.1-1.6,1.1-1.8C242,62.1,241.1,62.4,241.3,63.1z"/>
	<path class="st17" d="M132.9,40.9c-0.8-0.1-1.1-0.7-1.3-1.3c-0.3-0.8,0.4-0.3,0.6-0.3C132.5,39.9,132.7,40.4,132.9,40.9z"/>
	<path class="st37" d="M241.5,74c0-0.1,0-0.2,0.1-0.3c0.7,0.1,1.7-0.4,1.8,0.9C242.9,74,242.2,74.1,241.5,74z"/>
	<path class="st29" d="M184.5,74.5c0.5,0,1.1-0.1,1.3,0.5c0,0.1-0.2,0.4-0.3,0.4C184.9,75.4,184.5,75.1,184.5,74.5L184.5,74.5z"/>
	<path class="st34" d="M121.2,79.8c-0.5,0.5-0.6,1.4-1.5,1.5c0.2-0.4,0.3-0.7,0.5-1.1C120.5,80.1,120.7,79.7,121.2,79.8z"/>
	<path class="st31" d="M153.5,88c0.5,0.3,0.8,0.7,0.5,1.5C153.3,89.1,153.7,88.5,153.5,88z"/>
	<path class="st0" d="M222.9,12.6c0.2,0.4,0.3,0.8,0,1.2c-0.4-0.1-0.8-0.3-1.2-0.4C222.2,13.2,222.5,12.9,222.9,12.6z"/>
	<path class="st41" d="M160.4,87.8c-0.4,0.3-0.2,1.4-1.1,0.8c0.5-0.4,0.4-1,0.4-1.5C159.9,87.3,160.2,87.6,160.4,87.8z"/>
	<path class="st32" d="M192.1,74.8c0.5-0.3,1.3-0.5,1.3,0.1c0.1,1.2-0.4-0.1-0.7,0.1C192.6,75,192.3,74.8,192.1,74.8z"/>
	<path class="st4" d="M175,89.4c0.5,0.4,1,0.8,1.5,1.2C175.4,90.8,174.6,90.8,175,89.4z"/>
	<path class="st13" d="M210.6,29.2c-0.2-0.8-0.3-1.4,0-2.1C210.8,27.8,210.9,28.5,210.6,29.2z"/>
	<path class="st34" d="M126.6,80.6c0.1-0.5-1.6-0.3-0.5-1.1C127,79.5,126.8,80.1,126.6,80.6z"/>
	<path class="st25" d="M233.4,60.5c0.7,0.1,0.7,0.6,1.1,1.3C233.7,61.4,233.4,61.2,233.4,60.5z"/>
	<path class="st12" d="M138.6,80.6c0.1,0.2,0.3,0.5,0.4,0.7c-0.8,0-1.6,0.1-1.2-1.1C138.2,80.3,138.4,80.5,138.6,80.6z"/>
	<path class="st24" d="M149.8,37.9c0.4,0,0.7,0,1.2,0C150,38.7,150,38.7,149.8,37.9L149.8,37.9z"/>
	<path class="st2" d="M8.7,18c0,0.3,0,0.5,0,0.8c-0.4-0.3-1-0.3-1.3-0.9C7.9,17.4,8.2,17.9,8.7,18z"/>
	<path class="st0" d="M223.7,74.1c-0.4,0-0.7,0-1.1-0.1c-0.3-0.2-0.6-0.4-0.9-0.7C222.5,73.3,223.2,73.4,223.7,74.1z"/>
	<path class="st40" d="M187.5,73.7c0.3,0.1,0.7-0.3,1,0c0,0.1-0.2,0.5-0.3,0.5C187.6,74.5,187.6,74.1,187.5,73.7
		C187.5,73.7,187.5,73.7,187.5,73.7z"/>
	<path class="st29" d="M159.5,66c-0.1,0.1-0.3,0.2-0.5,0.3c-0.1,0-0.2-0.2-0.3-0.3c0.2-0.1,0.4-0.3,0.6-0.4
		C159.5,65.5,159.6,65.7,159.5,66z"/>
	<path class="st20" d="M174.6,38.8c0.7-0.2,1.1-0.6,1.6-0.4C175.9,39.1,175.5,39.1,174.6,38.8z"/>
	<path class="st17" d="M132.6,37.5c0,0.3,0,0.5,0,0.8c-0.1,0.3-0.2,0.6-0.3,0.9C131.9,38.5,131.6,37.9,132.6,37.5z"/>
	<path class="st24" d="M134.8,35.9c0.2-0.3,0.5-0.3,0.9-0.3c0,0.4,0.1,1-0.4,1.1C134.6,36.9,135.4,35.9,134.8,35.9z"/>
	<path class="st36" d="M216.6,14.8c0.3,0,0.5,0.2,0.4,0.5c-0.1,0.2-0.2,0.4-0.4,0.6c-0.1-0.2-0.2-0.3-0.3-0.5
		C216.2,15.1,216.4,14.9,216.6,14.8z"/>
	<path class="st10" d="M117.3,8.1c-0.1,0.1-0.3,0.3-0.4,0.4c-0.5,0-0.8-0.3-0.7-0.8C116.6,7.7,117.1,7.7,117.3,8.1z"/>
	<path class="st25" d="M127.6,25.3c-0.3,0.4-0.7,0.7-1.3,0.6C126.6,25.1,127.2,25.3,127.6,25.3C127.6,25.3,127.6,25.3,127.6,25.3z"
		/>
	<path class="st24" d="M133.7,38.2c0.3,0,0.6-0.1,0.9-0.1c-0.1,0.1-0.1,0.4-0.2,0.4C134.1,38.9,133.8,38.8,133.7,38.2L133.7,38.2z"
		/>
	<path class="st40" d="M189,42.1c-0.1,0.7-0.5,0.8-1.3,0.6C188.2,42.4,188.6,42.2,189,42.1C189,42.1,189,42.1,189,42.1z"/>
	<path class="st4" d="M178,90.5c0.5-0.6,1-0.6,1.5,0C179,90.8,178.5,90.7,178,90.5z"/>
	<path class="st40" d="M181.4,87.1c0.3,0,0.7,0,0.8,0.1c0.3,0.6-0.2,0.3-0.4,0.3c-0.2,0-0.3-0.1-0.5-0.2
		C181.4,87.2,181.4,87.1,181.4,87.1z"/>
	<path class="st29" d="M149,37.5c0.4-0.1,0.7-0.5,1.2-0.3c-0.1,0.2-0.3,0.4-0.4,0.7c0,0,0,0,0,0C149.4,37.9,149.2,37.8,149,37.5
		L149,37.5z"/>
	<path class="st42" d="M191,59c-0.4,0.5-0.9,1-0.9,1.7c0,0.4-0.3,0.7-0.7,0.7c-3.3,3.1-7.2,3.8-11.4,2.7c-2.4-0.6-4.1-2.5-4.1-4.6
		c-0.1-2.4,0.8-4.4,3.2-5.5c2.7-1.2,5.6-1.6,8.5-1.7c2.1-0.1,4.3,0.2,6.4-0.2c0.9-0.2,0.8,0.3,0.9,0.9c0.2,1.6-0.6,3.1-0.8,4.6
		c-0.1,0.1-0.3,0.2-0.4,0.2C190.7,57.9,191.2,58.6,191,59z"/>
	<path class="st43" d="M177,33.9c-0.4-0.1-0.9-0.2-0.9-0.3c0-0.4,0.4-0.5,0.6-0.4c0.8,0.2,1.5,0.8,2.2,0.5c0.8,0.4-2.9,0.7,0.9,1.1
		c-2.5-0.1-4.3-0.2-6-0.9C174.8,33.9,175.8,34.3,177,33.9z"/>
	<path class="st44" d="M189.4,61.4c0.2-0.2,0.5-0.5,0.7-0.7c1.1,0.6-0.3,1.6,0.6,2.2C189.8,62.7,189.4,62.2,189.4,61.4z"/>
	<path class="st37" d="M191,59c-0.2-0.5-1-0.7-0.7-1.2c0.3-0.6,1-0.3,1.5-0.1c0.2,0.3,0.2,0.5-0.1,0.7C191.4,58.6,191.2,58.8,191,59
		z"/>
	<path class="st45" d="M190.2,66.9c0.6,0.6,0.4,1.1-0.2,2C190,67.9,190.1,67.4,190.2,66.9z"/>
	<path class="st46" d="M185.9,71.6c0.6-0.7,1-1,1.9-1.3C187.3,71.1,186.9,71.5,185.9,71.6z"/>
	<path class="st47" d="M179.4,74.4c-0.7,0-1.3,0.1-2.3,0.2C178,73.9,178.8,74.2,179.4,74.4z"/>
	<path class="st48" d="M191.6,58.4c0-0.2,0.1-0.5,0.1-0.7c0.1,0,0.2,0,0.3,0c0.2,0,0.6-0.3,0.6,0C192.7,58.4,192.1,58.4,191.6,58.4z
		"/>
	<path class="st49" d="M189.4,38.6c0-0.5,0.2-0.8,0.7-1C190.4,38.2,189.8,38.3,189.4,38.6L189.4,38.6z"/>
	<path class="st42" d="M118.5,61.5c-0.8,0.7,0.1,2.4-1.5,2.7c0.4-1,0.4-2,0-3c1.1-1.1,1.5-2.6,1.2-4c-0.5-2.3,0.4-4.5,0.6-6.7
		c0.1-1.2,1.3-0.9,2.1-1.1c3.3,2.5,7.1,3.8,11.1,4.9c0.1,1.1,0.8,1.7,1.9,1.6c0.6,0.5,1.4,0.4,1.9,0.7c-0.5-0.3-1.4-0.3-2-0.7
		c-0.9-0.1-1.9-0.1-1.4-1.5c3,0.5,5.8,1.4,8.3,3.2c0.7,0.4,1,1,0.9,1.8c-0.1,0.7-0.1,1.5-0.2,2.2c0.1,0.6,0.3,1.2-0.6,1.2
		c-3.4,2.5-7.2,1.9-11,1.7c-0.8,0-1.6-0.4-2.4-0.6c-0.5-0.3-1-0.6-1.6-0.4l-0.2,0l-0.2-0.1c-0.6-0.5-1.3-0.6-2-0.7l-0.2,0l-0.1-0.1
		c-0.9-0.7-2-0.8-3-1.1C119.5,61.6,119,60.9,118.5,61.5z"/>
	<path class="st50" d="M120.8,49.3c-0.1,1.2-1.6,0-1.7,1c-0.1,0.7,0.5,1.5,0,2.2c-1,1.6-0.8,3.2-0.2,4.8c0.4,1.2-0.8,3.5-1.9,3.8
		c-0.2-1.6,0.4-3.2-0.7-4.8c-0.6-0.9,0.7-1.5,0.7-2.4c0-2.2-0.2-4.4,0.1-6.6c0.2-1.5-0.5-3.1,0.3-4.5c0.7,0.5,0.3,1.4,0.7,2
		C118.4,46.7,119.7,47.9,120.8,49.3z"/>
	<path class="st51" d="M141.4,59.2c-0.3-0.6-0.6-1.2-0.9-1.8c-0.3-0.8-0.9-1.3-1.7-1.7c-0.3-0.1-0.4-0.7-0.6-1.1
		c0.3-0.1,0.6-0.3,0.9-0.3c2,0.3,2.7,1.3,3.1,3.5c0.3,1.2,0.8,2.2,0,3.4c-0.9-0.5-0.4-1.1-0.3-1.7C142.2,59,141.8,59,141.4,59.2z"/>
	<path class="st52" d="M118.1,44.8c-0.8-0.5-0.6-1.3-0.7-2c0.1-2.7-0.3-5.4,0.7-8c0.1-0.2,0.3-0.4,0.4-0.5
		C118.4,37.8,118.8,41.3,118.1,44.8z"/>
	<path class="st53" d="M132.5,52.7c-0.9,0-1.6,0.1-2.2,0c-0.3,0-0.8,0-0.8-0.6c0-0.3,0.2-0.7,0.4-0.7c0.3,0,1,0.2,1,0.3
		C130.7,52.7,131.8,52.2,132.5,52.7z"/>
	<path class="st43" d="M119.6,32.1c0.9-0.5,0.8,1.5,1.9,0.8c0.1,0.5,0.1,0.9-0.3,1.2c-0.3,0.2-0.6,0.2-0.8-0.1
		C120.1,33.4,119.9,32.7,119.6,32.1C119.6,32.1,119.6,32.1,119.6,32.1z"/>
	<path class="st51" d="M140.6,62.7c0.6-0.2,0.1-1,0.6-1.2c0.8,0.3,1.1,0.9,0.5,1.6C141.2,63.7,140.9,63.1,140.6,62.7z"/>
	<path class="st25" d="M132.2,54.2c-0.1,1.1,1.1,1,1.5,1.5l0,0c-1.7,0.7-1.8-0.4-1.9-1.6C132,54.1,132.1,54.1,132.2,54.2z"/>
	<path class="st40" d="M120,61.5c1.1,0.1,2.3,0.1,3,1.1C122,62.3,120.9,62.1,120,61.5z"/>
	<path class="st40" d="M123.4,62.7c0.8-0.3,1.6-0.3,2,0.7C124.6,63.3,124,63.1,123.4,62.7z"/>
	<path class="st40" d="M125.7,63.4c0.8-0.9,1.1-0.1,1.6,0.4C126.7,63.9,126.1,63.8,125.7,63.4z"/>
	<path class="st7" d="M226.9,57c0-6.9,0-13.9,0-20.8c0.1,0,0.3,0,0.4,0c0,6.9,0,13.9,0,20.8C227.2,57,227,57,226.9,57z"/>
	<path class="st7" d="M225.8,57c0-6.2,0-12.3,0-18.5c0.1,0,0.3,0,0.4,0c0,6.2,0,12.3,0,18.5C226.1,57,225.9,57,225.8,57z"/>
	<path class="st7" d="M215.7,28.3c0.6,0.5,0.4,1.2,0.4,1.8c0,9.5,0,19,0,28.5c0,0.6,0.2,1.3-0.4,1.8c-0.4-1.1-0.1-2.2-0.2-3.2
		c-0.1-9.4,0.1-18.7-0.1-28.1C215.4,28.8,215.6,28.5,215.7,28.3z"/>
	<path class="st17" d="M215.7,28.3c0,9.7,0,19.3,0,29c-0.1,0.2-0.3,0.2-0.4,0c0-9.3,0-18.6,0-27.8c-0.3-0.5-0.4-1,0-1.5
		C215.5,28.1,215.6,28.2,215.7,28.3z"/>
	<path class="st10" d="M45.9,23.3c0.3,0,0.6,0,0.9,0.1c1.1-0.4,1-1.3,1-2.2c0-3.6,0-7.1,0-10.7c0-0.9-0.1-1.8,0.7-2.5
		c0.9-0.1,1.1,0.6,1.1,1.2c0,5.1,0.3,10.2-0.1,15.3c0,0.1-0.1,0.2-0.2,0.3c-0.5,0.5-1.1,0.5-1.8,0.6c-7.1,0-14.1,0-21.2,0
		c-0.9,0-1.9,0.3-2.4-0.9c0.9-1.4,2.3-0.5,3.4-0.8c0.5,0.6,1.4,0.1,1.9,0.8c0.3,0,0.5,0,0.8,0c0.8-0.9,2.3-0.1,3.1-1.2
		C37.3,23.1,41.6,23.2,45.9,23.3z"/>
	<path class="st54" d="M33.6,22.3c3.7,0,7.5,0,11.2,0c0,0.1,0,0.1,0,0.2c-3.8,0-7.5,0-11.3,0C33.5,22.4,33.5,22.3,33.6,22.3z"/>
	<path class="st2" d="M33.1,23.3c-0.3,2.3-2.1,0.7-3.1,1.2c0.2-1-0.4-2.1,0.4-3C30.1,23.7,31.9,23.1,33.1,23.3z"/>
	<path class="st55" d="M115.8,87.8C116,92,116,92,111.9,92c-19.9,0-39.8,0-59.7,0c-0.9,0-1.9,0.4-2.7-0.4c0.3-0.3,0.6-0.6,1-0.9
		c0.2-0.1,0.4-0.1,0.5-0.1c0.4-0.1,0.8-0.2,1.2-0.3c1.2-0.2,2.4-0.1,3.6-0.1c19.1,0,38.2,0.1,57.3-0.1c1-0.5,1.4-1.5,2.1-2.3
		C115.4,87.7,115.6,87.7,115.8,87.8z"/>
	<path class="st56" d="M47.6,24.9c0.5,0,1,0,1.5-0.1c0.4-3.5,0.1-6.9,0.2-10.4c0.1-2.3-0.3-4.5,0.2-6.8c21.7,0,43.4,0,65.2,0
		c0.2,0.4,0.1,0.7-0.3,1c-0.6,0.3-1.2,0.3-1.9,0.3c-14,0-27.9,0.1-41.9-0.1c-0.4,0-0.7,0-1.1,0c-6,0.1-12,0-17.9,0.1
		c-0.2,0-0.4,0-0.6,0.1c-0.9,0.6-0.6,1.4-0.6,2.2c0,4.2-0.1,8.4,0.2,12.6c-0.1,0.5-0.3,1-0.5,1.4c-0.1,0.2-0.3,0.3-0.4,0.4
		C49.5,26,49.3,26,49.1,26c-0.6-0.1-1.1-0.2-1.6-0.6C47.4,25.2,47.5,25,47.6,24.9z"/>
	<path class="st57" d="M49.5,75.6c-0.1-0.5,0-1.1-0.5-1.5c-0.1-0.4-0.2-0.9-0.1-1.4c0-6,0-12.1,0-18.1c0-0.4,0.1-0.7,0.3-1
		c0.2-0.3,0.6-0.4,0.9-0.4c0.2,0,0.4,0.2,0.6,0.3c0.2,0.3,0.3,0.7,0.3,1c0.1,5.8-0.1,11.7,0.1,17.5c0.2,0.5,0.3,1.1,0.4,1.6
		c0.1,0.6,0.2,1.3-0.2,1.9c-0.1,0.2-0.3,0.3-0.4,0.5c-0.5,0.7-0.3,1.5-0.3,2.2c0,3.4,0,6.7,0,10.1c0,0.9,0.2,1.8-1,2.7
		C49.4,85.8,49.9,80.7,49.5,75.6z"/>
	<path class="st2" d="M48.3,8.1c0,4.7,0,9.4,0,14.1c0,1.1,0,2.1-1.5,1.2c-0.8-2.9-0.2-5.8-0.4-8.6c-0.1-1.5,0-3,0-4.5
		c0-1.2-0.3-2.5,1.1-3.2c0.3-0.2,0.5-0.2,0.8,0c0,0,0,0,0,0c0,0.3,0,0.5,0,0.8C48.3,7.9,48.3,8,48.3,8.1z"/>
	<path class="st15" d="M111.9,92.7c-19.7,0-39.5,0-59.2,0c0-0.1,0-0.1,0-0.2c19.8,0,39.5,0,59.3,0C111.9,92.6,111.9,92.7,111.9,92.7
		z"/>
	<path class="st58" d="M115.8,87.8c-0.1,0-0.2,0-0.3,0c-0.7-0.7-0.5-1.5-0.5-2.3c0-2.8,0-5.5,0-8.3c0-3.7,0-7.4,0-11.2
		c0.1-1,0-2,0-3c0-0.4,0.7-1.2-0.5-1.3c-0.6-1.8-0.4-3.7-0.1-5.5c0.8-1.2,0.5-2.6,0.5-3.9c0-2.7,0-5.3,0-8c0-0.6,0-1.1,0.3-1.7
		c0.1-0.2,0.3-0.3,0.6-0.2c0,9.9,0.1,19.7,0.1,29.6C115.9,77.3,115.8,82.6,115.8,87.8z"/>
	<path class="st59" d="M30.8,74.1c0-6.3,0-12.7-0.1-19c-0.2-0.3-0.2-0.6,0.1-0.9c0.3-0.1,0.7-0.1,1,0.1c0.6,0.5,0.7,1.1,0.6,1.9
		c-0.7,5-0.2,10.1-0.3,15.2c0,1.1,0.5,1.6,1.6,1.6c0.9-0.1,1.9-0.1,2.8,0.1c0.6,0.3,1.6,0.1,1.8,1.1C35.9,74.1,33.3,74.1,30.8,74.1z
		"/>
	<path class="st60" d="M115.8,42.4c-0.1,0-0.2,0-0.3,0c-0.8-0.8-0.5-1.8-0.5-2.7c0-9.3,0-18.7,0-28c0-1,0.1-1.9-0.2-2.8
		c0-0.1,0-0.2-0.1-0.4c0-0.2,0-0.5,0-0.7c1-0.2,1.2,0.2,1.2,1.1C115.8,20.1,115.8,31.3,115.8,42.4z"/>
	<path class="st61" d="M49.5,75.6c0.6,0.7,0.3,1.5,0.3,2.2c0,4.2,0,8.4,0.4,12.6c0-4.5,0-9.1,0-13.6c0-0.4-0.5-1.4,0.7-1.2
		c0,0.1,0.1,0.2,0.1,0.4c0.2,4.4,0,8.7,0.1,13.1c0,0.6,0,1.3-0.5,1.8c0,0.7-0.5,0.8-1.1,0.8C49.5,86.3,49.5,81,49.5,75.6z"/>
	<path class="st62" d="M38.4,74.1c-0.3-0.6-1.2-0.1-1.5-0.7c0.1-0.1,0.2-0.1,0.2-0.2c0.5-0.3,1-0.3,1.6-0.3
		c3.4,0.4,6.7-0.8,10.1-0.8c0.8,0.2,0.3,0.9,0.6,1.3c0.1,0.4-0.1,0.6-0.3,0.8C45.5,74.1,42,74.1,38.4,74.1z"/>
	<path class="st63" d="M48.3,8.1c-0.3-0.1-0.3-0.3,0-0.4c0.4,0,0.8,0,1.2,0c0,5.1,0,10.1-0.1,15.2c0,0.6,0.3,1.4-0.3,1.9
		c0-5,0-9.9,0-14.9C49.1,9.3,49.5,8.4,48.3,8.1z"/>
	<path class="st42" d="M117,26c0.6,2.5,0.6,5.1,0,7.6C117,31.1,117,28.6,117,26z"/>
	<path class="st8" d="M117,89.7c0.2,0.8,1.3,1.5,0,2.3C117,91.2,117,90.5,117,89.7z"/>
	<path class="st64" d="M20.9,53.1c-2.9,0-5.8,0-8.7,0.1c-0.9,0-1.2-0.3-1.2-1.2c0-2.4,0-4.8,0-7.2c0-0.9,0.3-1.2,1.2-1.2
		c2.5,0,5.1,0,7.6,0c0.9,0,1.2,0.3,1.2,1.2C20.8,47.5,20.8,50.3,20.9,53.1C20.8,53.1,20.9,53.1,20.9,53.1z"/>
	<path class="st2" d="M6.7,34.7c0.5-0.7,1.3-0.3,1.9-0.3c3.8,0,7.6,0,11.4,0c0.1,0.8-0.7,1.1-1.1,1c-1.3-0.4-2.5,0.5-4,0.1
		c-2.1-0.6-4.5-0.2-6.7-0.1C7.6,35.3,7,35.5,6.7,34.7z"/>
	<path class="st65" d="M18.6,32.9c-0.5,1.4-2,1-2.7,0.9c-2.2-0.2-4.3-0.1-6.4-0.1c-1.6,0-2.4-0.6-2.3-2.3c0.1-2.5,0-5.1,0-7.6
		c0.5-1-0.1-2.1,0.4-3.1c0.3,0,0.7,0,1,0c3.3-0.2,6.5-0.2,9.8,0c0.3,0,0.7,0,1,0c0,4.1,0,8.2,0,12.3c0,0.1-0.1,0.2-0.1,0.3
		C19.1,33.1,19,33,19,32.9c-0.5-2,0-4-0.2-5.6C18.6,28.9,19,30.9,18.6,32.9z"/>
	<path class="st66" d="M31.5,54.3c-0.3,0-0.5,0-0.8,0c-2.3,0.3-4.6,0.3-6.8,0c-0.1-0.1-0.2-0.1-0.3-0.1c-0.4-0.3-0.3-0.8-0.3-1.2
		c0-8.7,0-17.3,0-26c0.3-0.6,0.8-0.5,1.3-0.3c0.2,0.2,0.3,0.4,0.4,0.6c0.3,1.1,0.2,2.1,0.2,3.2c0,6.7,0,13.3,0,20
		c0,0.7-0.3,1.4,0.4,2c0.2,0.1,0.3,0.2,0.5,0.3c6.6,0.2,13.1,0.1,19.7,0.1c0.8,0,1.5,0,2.3,0.1c0.6,0.1,1.3,0.3,1,1.2
		c-1.1,0.8-2.4,0.8-3.6,0.7c-2.2-0.2-4.3-0.1-6.4-0.2c-1.9,0-3.7,0-5.6,0C32.8,54.8,32.1,54.7,31.5,54.3z"/>
	<path class="st67" d="M23.7,26.8c0,9.1,0,18.3,0,27.4c-0.7-0.4-0.5-1.1-0.5-1.7c0-8.7,0-17.3,0-26c0-0.7,0-1.4,0.4-2
		c0.1,0,0.3,0,0.4,0c0.6,0.6,1.3,0.3,2,0.4c7.2,0,14.5,0,21.7,0.1c-0.1,0.1-0.1,0.2-0.1,0.3c-0.7,0.8-1.6,0.6-2.5,0.6
		c-6.1,0-12.3,0-18.4,0C25.5,25.8,24.4,25.7,23.7,26.8z"/>
	<path class="st68" d="M18.3,20.7c-3.3,0-6.5,0-9.8,0C11.8,20.4,15.1,20.4,18.3,20.7z"/>
	<path class="st67" d="M23.9,54.3c2.3,0,4.6,0,6.8,0c0,0.3,0,0.5,0,0.8c-0.2,0-0.5,0-0.7,0c-1-0.8-2.2-0.4-3.3-0.3
		C25.7,54.9,24.8,54.8,23.9,54.3z"/>
	<path class="st68" d="M7.5,20.7c-0.2,1,0.4,2.1-0.4,3.1c0-1,0-2.1,0-3.1C7.3,20.7,7.4,20.7,7.5,20.7z"/>
	<path class="st2" d="M29.3,24.5c-0.7-0.2-1.7,0.5-1.9-0.8C28,23.9,29,23.3,29.3,24.5z"/>
	<path class="st2" d="M28.8,22.1c0.1,0.2,0.2,0.3,0.2,0.5c0,0.3-0.3,0.4-0.5,0.3c-0.1,0-0.2-0.2-0.3-0.4
		C28.4,22.4,28.5,22.3,28.8,22.1z"/>
	<path class="st69" d="M136.4,88.1c-0.9,0.6-1.9,0.5-3,0.3c-1.2-0.9-1.7-2.1-1.7-3.6c0-1.5,0.4-2.8,1.9-3.4c1.5-0.6,2.7,0,3.6,1.3
		C138.4,85.2,138.1,86.7,136.4,88.1L136.4,88.1z"/>
	<path class="st12" d="M136.4,88.2c1.4-1.6,1.4-3.4,0.8-5.3C138.9,84.9,138.6,87.2,136.4,88.2z"/>
	<path class="st12" d="M138.8,85.5c0.1-0.4,0.2-0.8,0.4-1.2C139.7,84.9,139.3,85.3,138.8,85.5z"/>
	<path class="st0" d="M220.8,17c-0.2,0.4-0.5,0.5-0.9,0.4c0,0,0-0.2,0-0.3C220.1,16.9,220.4,16.8,220.8,17z"/>
	<path class="st0" d="M214.6,29.1c0,9.8,0,19.5,0,29.3c-0.1,0-0.3,0-0.4,0c0-9.8,0-19.5,0-29.3c0.1,0,0.1-0.1,0.2-0.1
		C214.5,29,214.5,29,214.6,29.1z"/>
	<path class="st0" d="M213.4,57.3c0-9.1,0-18.3,0-27.4c0-0.7-0.3-1.4,0.4-2c0,9.1,0,18.3,0,27.4C213.8,56,214.1,56.7,213.4,57.3z"/>
	<path class="st0" d="M215.3,57.3c0.1,0,0.3,0,0.4,0c0,1,0,2,0,3.1c-0.7,0.4-0.6,1.3-1,2.1C214.3,60.5,215.9,59,215.3,57.3z"/>
	<path class="st0" d="M213.5,61.5c0-0.4-0.1-0.9,0.3-1.1c0.4,0.3,0.5,0.7,0.3,1.1C214,61.8,213.7,61.6,213.5,61.5z"/>
	<path class="st0" d="M215.3,27.9c0,0.5,0,1,0,1.5c-0.3-0.1-0.5-0.3-0.8-0.4c0,0,0,0,0,0c-0.4-0.5-0.1-0.9,0.4-1.1
		C215.1,27.9,215.2,27.9,215.3,27.9z"/>
	<path class="st17" d="M215,27.9c-0.1,0.4-0.3,0.8-0.4,1.1c-0.1,0-0.3,0-0.4,0C214.4,28.7,213.7,27.6,215,27.9z"/>
	<path class="st34" d="M121.9,85.2c0.1-0.7,0.4-1.2,1.2-1.2c0.8,0.7,1,1.7,1,2.7C123.3,86.3,122.2,86.3,121.9,85.2z"/>
	<path class="st34" d="M119.9,84c0.6,0.2,1,0.6,1.2,1.1C120.4,85.1,120.1,84.7,119.9,84z"/>
	<path class="st70" d="M18.6,32.9c0-1.9,0-3.8,0-5.6c0.1,0,0.3,0,0.4,0c0,1.9,0,3.8,0,5.6C18.8,32.9,18.7,32.9,18.6,32.9z"/>
	<path class="st4" d="M177.6,83.9c0.7,0,1.4,0,2.1,0c0.8,0,1.5-0.1,1.5,1.1c-0.1,1.1-0.8,0.9-1.5,0.9c-0.3,0-0.6,0-0.9-0.1
		C179.1,84.8,178.2,84.5,177.6,83.9z"/>
	<path class="st71" d="M165.8,88.6c-0.2,0.4-0.4,0.8-0.6,1.2C164.9,89.1,165,88.7,165.8,88.6L165.8,88.6z"/>
	<path class="st0" d="M202,29.7c0.6,0.8,0.8,1.2,1.2,1.8C202.3,31.3,202.1,30.9,202,29.7z"/>
	<path class="st27" d="M161.2,89.3c0.8-0.4-0.3-1.6,0.8-1.9c0.4,0.3,0.2,0.8,0.3,1.1c-0.1,0.7-0.5,1.1-1.1,1.4
		C161,89.8,161,89.6,161.2,89.3z"/>
	<path class="st42" d="M162.8,89.6c0.4-0.3,0.6-0.6,1-0.7c0.2-0.1,0.4,0.3,0.4,0.5c-0.1,0.3,0,0.9-0.6,0.6
		C163.3,90,163.1,89.8,162.8,89.6z"/>
	<path class="st12" d="M162.3,88.6c-0.4-0.3-0.3-0.7-0.3-1.1c0-0.2,0-0.4,0.1-0.6C163.2,87.3,162.4,88,162.3,88.6z"/>
	<path class="st4" d="M161.2,89.3c0,0.2,0,0.4,0,0.7c-0.1,0-0.2,0.1-0.4,0.1c-0.3,0-0.6-0.1-0.8-0.4
		C160.3,89.3,160.8,89.4,161.2,89.3z"/>
	<path class="st0" d="M146.3,71.4c-0.1-0.5-0.2-0.9,0.1-1.3c0,0,0.3,0.1,0.4,0.2C147.2,70.8,146.9,71.1,146.3,71.4z"/>
	<path class="st72" d="M27,8.9c0.8,0.4,0.8,1.1,0.8,1.8c0,1.6,0,3.1,0,4.7c0,0,0,0,0,0c-0.7,0.6-1.4,0.3-2.2,0.4
		c-0.5,0-1.1,0.1-1.5-0.2c-0.6,0,0.5-0.5-0.2-0.7c-1.2-0.4-2-2.1-1.8-3.3c0.2-1.3,1.3-2.2,2.8-2.3c0.6,0,1.1,0,1.7-0.1
		C26.7,9.1,26.8,9,27,8.9z"/>
	<path class="st73" d="M23.9,15.4c0.5,0,1,0,1.5,0c0.2,0.7-0.6,0.4-0.8,0.8c-1-0.3-2.4,0.8-3.1-0.8c-0.7-1.8-0.3-3.7-0.4-5.6
		c0-0.8,0.5-0.9,1.2-0.9c1.5,0,3,0,4.5,0c0,0.1,0,0.3,0,0.4c-0.7,0.4-1.5,0.2-2.2,0.2c-2.2,0.1-3.3,1.5-2.7,3.5
		C22.4,13.8,22.8,14.9,23.9,15.4z"/>
	<path class="st74" d="M24.7,16.1c0.3-0.3,0.5-0.5,0.8-0.8c0.8,0,1.5,0,2.3,0C27,16.9,25.7,15.8,24.7,16.1z"/>
	<path class="st37" d="M187.4,62.1c-0.3,0.1-0.5,0.1-0.7,0.1c-0.2,0-0.4-0.2-0.4-0.3c-0.1-0.3,0.1-0.3,0.3-0.2
		C186.8,61.7,187,61.9,187.4,62.1z"/>
	<path class="st25" d="M133.7,55.8c1.4-0.7,2,0.8,3.1,1C135.8,56.5,134.4,57.2,133.7,55.8L133.7,55.8z"/>
	<path class="st75" d="M51,75.6c0.1,0,0.3,0,0.4,0c0.8-0.5,1.9-0.3,2.7-0.9c1.6,0.3,3.1,0.8,4.6-0.3c1.6-0.2,3.1-0.3,4.7,0.1
		c1.1,0.8,2.4,0.7,3.6,0.5c0.6-0.1,1.1-0.4,1.7-0.2c1.8,0.5,2.1-0.5,2.3-1.9c0.3-0.5,0.7-0.6,0.9,0c0.1,0.3,0.1,0.4,0.4,0.2
		c0.2-0.1,0.4,0,0.6,0.2c0.1,0.1,0.2,0.2,0.1,0.3c0.1-0.3-0.3-0.3-0.3-0.6c0.4-1.2,0.7-2.4,0.2-3.7c-0.1-0.5-0.1-1-0.1-1.5
		c0.4-1.8,1.3-3.6,0.4-5.5c-0.2-0.4,0.1-1,0.3-1.5c0.4-1.2,0.5-2.3-0.5-3.3c-1.1-1.2-1.1-5.4,0-6.5c0.9-1,1-2,0.6-3.1
		c-0.6-1.6-0.6-3.2-0.3-4.9c0.2-0.5,0.4-1,1.1-1c0.3,0.2,0.4,0.5,0.5,0.8c0,1.7,1,3.2,0.9,4.9c-0.1,0.7,0.6,0.7,1,0.9
		c0.5,0.2,0.8,0.5,1,1c0.5,1.2,1.8,2,2.1,3.5c0.2,0.7,1.1,0.7,1.8,0.7c1.2,0.1,2.4-0.2,3.5,0.3c1.6,0.8,3.3,0.3,5,0.4
		c0.7,0,1.4,0,2,0.1c0.2,0,0.4,0.1,0.5,0.1c0.7,0.4,1.5,0.5,2.2,0.7c0.2,0.1,0.4,0.3,0.5,0.5c0.1,0.4,0.4,0.6,0.8,0.7
		c2.7,1.2,3,4.9,0.7,6.9c-0.9,0.3-1.7,0.2-2.6,0.2c-2.8,0.2-5.6,0.3-8.3-0.2c-1-1.2-2.6-1.1-3.9-1.6c-0.2-0.1-0.3-0.2-0.4-0.4
		c-0.1-0.3,0-0.5,0.2-0.8c0.6-0.4,1.4-0.2,2-0.4c0.3-0.1,0.7-0.2,0.7-0.6c0-0.4-0.3-0.6-0.6-0.6c-1.4,0-2.5-0.7-3.6-1.5
		c-1.5-1-2.1,0.4-3.1,1.1c1.5,0.4,3.7-0.6,4,2c-0.2,0.3-0.5,0.5-0.9,0.6c-1.2-0.5-2.3-1.2-3.5-0.2c-0.3,0.1-0.5,0.2-0.8,0.2
		c-0.2,0.1-0.4,0.2-0.4,0.4c0.3,3.1-1,6.1-0.9,9.2c0,1.3,0.6,1.8,1.7,2.3c3,1.4,6.2,1.6,9.4,1.4c3.6,0,7.2,0,10.8,0c0.3,0,0.6,0,1,0
		c1.3-0.1,2.5,0.3,3.7-0.3c0.2-0.1,0.3-0.2,0.5-0.2c1.8-0.4,3.5-1,5.1-1.8c0.7-0.4,1.5-0.8,2.3-0.2c0.6,0.8,1.4,1,2.2,1.2
		c1.1,0.3,2,0.9,1.6,2.3c-0.7,2.8-0.1,5.7-0.3,8.5c-0.1,1.4,0.4,2.9-0.5,4.3c-1.9,0.8-3.9,0.6-5.8,0.2c-1.4-0.3-2.7-0.5-4.1-0.5
		c-15.7,0-31.3,0-47,0c-2,0-3.6,0.2-4.1,2.5c-0.1,0.3-0.3,0.3-0.4,0c-0.4-3-0.1-6-0.2-9C50.8,79.8,50.6,77.7,51,75.6L51,75.6z"/>
	<path class="st76" d="M51.4,90.9c0-0.3,0-0.6,0-0.9c-0.3-1.7,0.4-2.1,2.1-2.1c16.9,0.1,33.9-0.1,50.8,0.2c2.7,0,5.4,0.6,8.2,0.6
		c0.5,0.5,1.5,0.5,1.5,1.5c-0.3,1.3-1.3,0.7-2,0.7C91.7,90.9,71.5,90.9,51.4,90.9z"/>
	<path class="st77" d="M113.9,90.1c-0.5-0.6-1.6-0.4-1.5-1.5c0-3.8,0-7.5,0-11.3c0-0.6-0.3-1.5,0.8-1.6c0.7,0.7,0.5,1.6,0.6,2.5
		c0.1,2.7-0.1,5.4,0.2,8.2c0.4-2,0.2-4.1,0.2-6.1c0-1-0.2-2,0.4-3c0.3-0.3,0.6-0.3,0.9-0.1c0,3.6,0,7.1,0,10.7
		C115.3,88.8,114.9,89.7,113.9,90.1z"/>
	<path class="st78" d="M51,75.6c0,5.1,0,10.2,0,15.3c0,0-0.2,0-0.2,0s-0.2,0-0.2,0c0-4.4,0-8.9,0-13.3C50.6,76.9,50.4,76.2,51,75.6z
		"/>
	<path class="st75" d="M70.4,8.5c14.7,0,29.5,0,44.2,0c0,0,0,0,0,0c0.4,0.4,0.4,0.9,0.4,1.4c0,3.5,0.1,7-0.1,10.5
		c-0.2,0.6-0.8,0.7-1.3,0.8c-1,0-1.4,1-2.2,1.3c-1.3,0.3-2.5,0.6-3.3-0.9c-0.3-0.5-0.9-0.3-1.4-0.1c-1.7,0.7-3.5,0.2-5.2,0.3
		c-3.8,0.3-7.6-0.3-11.3,0.6c-0.8,0.2-1.5,0.3-2.2-0.1c-2.2-1.3-2.2-1.3-3.9-1.3c2.3-0.5,3.2,1.7,4.7,3c-0.1,1-0.9,0.8-1.5,0.9
		c-3.1,1.4-6.3,2.8-9,4.9c-0.3,0.3-0.6,0.6-0.9,0.9c-1.6,1.6-2,3.7-2.6,5.7c-0.1,0.5-0.1,1-0.5,1.4c-0.6,0-0.8-0.5-1-0.9
		c-0.3-1.8-0.1-3.8-1.5-5.4c-0.4-2.7-0.2-5.4-1.1-8c-0.1-0.2,0-0.6,0.1-0.7c2-2.1,1.3-4.8,1.5-7.2c0-0.3,0.1-0.5,0.1-0.7
		c0.4-0.9,1.2-1.4,1.9-2.1c0.5-0.6,1.1-1.2,0.9-2.3c-1.1,0.6-2.3,1.2-3.4,0.2C71.1,10.2,70,9.7,70.4,8.5z"/>
	<path class="st79" d="M24.7,27.2c0-0.1,0-0.3,0-0.4c0.3-0.9,1.1-1.1,2-1.1c7.5,0,14.9-0.1,22.4,0.1c0.1,0,0.2,0,0.4,0
		c0.6,0.5,0.6,1.2,0.6,1.9c0,8,0,15.9,0,23.9c0,0.7,0,1.4-0.5,2c0,0.3,0,0.5-0.1,0.8c-0.1,0.1-0.2,0.1-0.3-0.1
		c-0.2-1.1-1-0.7-1.7-0.7c-6.9,0-13.8-0.1-20.7-0.1c-0.6,0-1.2,0.1-1.3-0.7c0.2-0.4,0.6-0.6,0.6-1.1c-0.9-7.1-0.2-14.1-0.4-21.2
		C25.6,29.2,25.4,28.1,24.7,27.2z"/>
	<path class="st80" d="M51,8.5c6.2,0,12.5,0,18.7,0c0.3,1.6-0.9,1.8-2.1,2c-0.9,0.1-1.9-0.2-3.2,0.4c2-0.2,3.5,0.2,5.1,0.3
		c0.6,0,1.2,0.3,1.5,1c-0.1,0.5-0.5,0.6-0.9,0.7c-0.2,0-0.4,0.1-0.6,0c-3.3-0.2-6.6-0.1-9.9-0.1c-1.2,0-2.3-0.7-3.5,0
		c-0.1,0.1-0.2,0.3-0.3,0.5c-0.1,0.3-0.2,0.7-0.4,1c-0.8,2-0.2,4.2-0.3,6.2c0,0.6,0.7,1.1,0.3,1.8c-1.9,0.9-1.9,0.9-1.2,3.1
		c0.1,0.5,0,0.9-0.2,1.4c-1.5,0.6-2.3-0.5-3.3-1.2c-0.1-0.2-0.2-0.4-0.2-0.6c0.2-1.5-0.4-3.1,0-4.6c0.1-3.1,0-6.2,0-9.3
		C50.5,10.2,50.4,9.3,51,8.5z"/>
	<path class="st81" d="M70.8,12.3c-1.6-1.3-3.5-0.6-5.2-0.9c-0.3,0-0.6,0.1-0.9,0.1c-0.5,0-1-0.1-1-0.8c0-0.6,0.4-0.7,0.9-0.7
		c0.9,0,1.9,0,2.8,0c1.2,0,1.9-0.4,2.3-1.5c0.3,0,0.5,0,0.8,0c1.7,2.7,2.4,2.9,5,1c1,1.9,0.5,2.9-2.7,5.1c-0.3-0.3-0.7-0.6-1.2-0.7
		C71.1,13.5,70.8,13,70.8,12.3z"/>
	<path class="st82" d="M50.6,53.5c-0.1,0-0.3,0-0.4,0c-0.6-0.7-0.4-1.6-0.4-2.4c0-8.5,0-17,0-25.5c0-0.4-0.1-0.9,0.4-1.1
		c0.3,0.2,0.2,0.5,0.4,0.8l0,0c0.4,0.6,0.7,1.2,0.8,1.9c0.2,8.2,0.1,16.3,0.1,24.5C51.5,52.4,51.7,53.3,50.6,53.5z"/>
	<path class="st83" d="M49.8,25.7c0.7,0.6,0.4,1.4,0.4,2.2c0,8.6,0,17.1,0,25.7c-0.2,0-0.5,0-0.7,0c0-9.3-0.1-18.5-0.1-27.8
		C49.5,25.7,49.7,25.7,49.8,25.7z"/>
	<path class="st84" d="M49,25.7c-0.6,0.5-1.3,0.3-2,0.3c-6.4,0-12.8,0-19.2,0c-1.2,0-2.2,0.2-3.2,0.8c-0.3,0-0.7,0-1,0
		c-0.3-1.1,0-1.6,1.3-1.6c7.5,0.1,15,0,22.6,0.1C48,25.3,48.6,25.4,49,25.7z"/>
	<path class="st85" d="M50.6,25.3c-0.3-0.2-0.4-0.4-0.4-0.8c-0.5-4.5-0.3-9.1-0.4-13.6c0-0.9,0-1.8,0.8-2.4c0.3,4.1,0.3,8.1,0,12.2
		C50.2,22.2,51.3,23.7,50.6,25.3z"/>
	<path class="st86" d="M50.6,20.7c0-4.1,0-8.1,0-12.2c0.1,0,0.2,0,0.4,0c0,3.4,0,6.8,0,10.2C51,19.4,51.2,20.1,50.6,20.7z"/>
	<path class="st87" d="M51,26.8c-0.6-0.4-0.3-1-0.4-1.5c1,0.5,2,1,3,1.5c0.7,0.7,0.5,1.5,0.5,2.3c0,13.2,0,26.4,0,39.6
		c0,2.1-1,4.1-0.2,6.1c-0.5,1.5-1.7,0.8-2.7,0.8c0-0.6,0-1.3,0-1.9c-0.6-1.5,0.6-3,0.2-4.5c0-13.1,0-26.1,0-39.2
		c0-0.9,0.1-1.8-0.2-2.6C51.3,27.2,51.2,27,51,26.8z"/>
	<path class="st88" d="M49.1,54.2c0.1,0,0.2,0,0.3,0.1c0,6.3,0,12.7,0,19c-0.4-0.3-0.3-0.7-0.3-1.1c-1.7-0.6-1.2-1.9-0.8-3.1
		c0.7-2.8,0.2-5.7,0.3-8.5c0-1.2,0.4-2.4-0.5-3.5c-0.7-1.4-1.8-1.7-3.3-1.6c-3.1,0.1-6.2,0-9.3,0c-0.9,0-1.8,0-2.6-0.9
		c2.2-0.6,4.3,0.1,6.3-0.4C42.5,54.3,45.8,54.3,49.1,54.2z"/>
	<path class="st89" d="M51,26.8c0.1,0,0.3,0,0.4,0c0.5,0.6,0.4,1.3,0.4,2c0,7.8,0,15.7,0,23.5c0,0.7,0.2,1.4-0.4,2
		c-0.2,0.1-0.5,0.1-0.7,0c0-0.3,0-0.5,0-0.8c0.6-0.6,0.4-1.3,0.4-2C51,43.3,51,35,51,26.8z"/>
	<path class="st75" d="M52.1,69.5c0.5,1.5-0.8,2.7-0.8,4.2C50.9,73.4,51,73,51,72.6c-0.4-3.2-0.1-6.4-0.2-9.6c0-1.8-0.1-3.7,0-5.5
		c1.2-0.2,0.9,0.8,0.9,1.3c0.1,2.9,0,5.7,0,8.6C51.8,68.1,51.6,68.9,52.1,69.5z"/>
	<path class="st90" d="M51,57.3c0,5.1,0,10.2,0,15.2c-0.6-0.6-0.4-1.3-0.4-2c0-5.4,0-10.9,0-16.3c0.1,0,0.3,0,0.4,0
		C51.7,55.3,51.7,56.3,51,57.3z"/>
	<path class="st63" d="M47.4,21.7c0.4,0.1,0.5,0.3,0.5,0.5c0,0.1-0.1,0.4-0.2,0.4c-0.3,0-0.4-0.3-0.4-0.5
		C47.2,22,47.3,21.9,47.4,21.7z"/>
	<path class="st91" d="M114.6,56.2c0.3,1.9,0.1,3.8,0.1,5.7c0.4,2-0.4,3.4-1.8,4.7c-0.7,0.3-1.3,0.9-2.1,0.6c-0.5-1-0.5-1.9,0.5-2.6
		c-0.7-0.2-1.4,1.1-2.2,0.2c-0.6-0.7-0.2-1.4-0.3-2.2c-0.3-3,0.8-6,0.1-9.1c-0.2-0.9,0.1-1.8,0.7-2.5c0.2-0.3,0.5-0.5,0.9-0.7
		c0.4-0.1,0.7-0.2,1.1-0.2c0.6,0.1,1,0.5,1.4,0.9c0.6,0.7,1,1.6,1.3,2.4C114.6,54.4,114.9,55.3,114.6,56.2z"/>
	<path class="st92" d="M114.6,56.2c-0.2-0.9-0.4-1.8-0.6-2.7c0.1-1.1-0.7-1.8-1.1-2.7c-0.1-0.5,0-1,0.5-1.3c1-0.5,0.8-1.5,0.8-2.4
		c0-5.2,0-10.4,0-15.6c0.1-2.8-0.1-5.6,0-8.4c0-0.9,0-1.8,0.6-2.5c0-4.1,0-8.1,0-12.2c1.3,0.3,0.7,1.3,0.7,2c0,10.6,0,21.3,0,31.9
		c0,3.9,0,7.8,0,11.7C115.4,55,115.5,55.8,114.6,56.2z"/>
	<path class="st93" d="M112.7,66.5c1.2-1.3,1.4-3,1.9-4.6c0.3,0,0.7-1,0.7,0.1c0.1,1.2,0,2.5,0,3.7c-1.2,0.2-1.4,1.3-1.9,2.1
		c-0.1,0.1-0.2,0.3-0.3,0.4c-0.5,0.4-0.5,1-0.8,1.5c-0.7,0.6-1.2,1.5-2.2,1.7c-0.2,0-0.4-0.1-0.5-0.1c-0.2-0.1-0.4-0.4-0.5-0.6
		C110.2,69,111.5,67.8,112.7,66.5z"/>
	<path class="st55" d="M113.1,68c0.2-0.9,0.6-1.7,1.3-2.4c0.5-0.6,0.7,0,1,0.1c0,3.8,0,7.6,0,11.4c-0.3,0-0.5,0-0.8,0
		c-0.8-0.9-0.5-1.9-0.5-2.9c0-1.5,0-2.9,0-4.4C114.2,69,113.9,68.4,113.1,68z"/>
	<path class="st94" d="M48.7,69.5c-0.8,1-0.5,1.9,0.4,2.7c-3.5,0.9-7,1.4-10.7,1.1c-0.6-1.1,0.9-1,0.9-1.7c-1.3-1-2.8-0.9-4.3-0.8
		c-0.4,0-1,0.2-1,0.7c0,0.6,0.6,0.5,1,0.5c1.6,0.3,1.6,0.3,1.8,1.3c0,0,0,0,0,0c-1.3,0-2.7,0-4,0c-1,0-1.4-0.3-1.4-1.3
		c0-5,0-10,0-15c0-0.9,1-1.8,0-2.7c2.5,0,5.1,0,7.6,0c-1.8,0.8-3.7,0-5.6,0.7c2.1,0,4.1,0,6.2,0c1.8,0,3.7-0.1,5.5,0
		c1.1,0,2.6-0.6,2.7,1.4c0,0,0.5,0.1,0.7,0.1C49,60.9,49,65.2,48.7,69.5z"/>
	<path class="st95" d="M36.9,73.3c-0.3-1.2-1.3-0.6-2-0.8c-0.6-0.1-1.8,0.4-1.7-0.8c0.1-0.8,0.8-1.4,1.7-1.5c2-0.2,3.8,0.1,5.6,1
		c0.1,1.4-1.9,0.9-2,2C37.9,73.3,37.4,73.3,36.9,73.3z"/>
	<path class="st96" d="M24.7,27.2c1.3,0.3,1.6,1.1,1.6,2.3c-0.1,6.4,0,12.8,0,19.2c0,0.9,0,1.8,0.5,2.7c0.7,1.3-0.5,1.2-1.3,1.2
		c0,0,0,0,0,0c-0.5-0.4-0.2-1.2-0.8-1.5C24.7,43.2,24.7,35.2,24.7,27.2z"/>
	<path class="st79" d="M24.7,51.2c1,0.1,0.7,0.9,0.8,1.5C24.4,52.6,24.8,51.8,24.7,51.2z"/>
	<path class="st74" d="M23.9,15.4c-1.7-0.2-2.4-1.5-2.3-4.1c0.1-1.6,1.1-2.1,2.5-2c0.9,0,1.9,0,2.8,0c-0.5,0.6-1.2,0.4-1.8,0.4
		c-1.4-0.2-2.4,0.6-2.7,1.8c-0.4,1.3,0.3,2.5,1.4,3.1C24.8,15,23.9,15.1,23.9,15.4z"/>
	<path class="st97" d="M54,74.8c-1.1-1.2-1.7-2.5-0.6-4c0.4-0.6,0.2-1.4,0.2-2c0-14,0-28,0-42c0-0.5,0-1,0-1.5
		c0.5-0.4,1-0.4,1.6-0.1c0.2,0.2,0.3,0.4,0.4,0.6c0.1,0.4,0.2,0.7,0.2,1.1c0,14.3,0,28.6,0,42.8c0,0.9,0.2,1.9-0.4,2.8
		c-0.4,0.2-0.6,0.1-0.7-0.3c-0.1-0.6,0-1.1,0-1.7c0-13.8,0-27.7,0-41.5c0-0.2,0.2-0.4,0-0.6c0,14.1,0,28.2,0,42.3
		c0,0.7-0.4,1.5,0.4,2.1c0.7,0.7,1.5,0.9,2.5,0.8c3.3,0,6.7,0,10,0c0.7,0,1.5,0.2,2.1-0.5c0.5-0.8,0.3-1.7,0.3-2.6
		c0-13.7,0-27.3,0-41c0-0.9-0.1-1.9,0.3-2.8c0.5-0.6,0.8-0.2,1.2,0.2c0.4,2.4,0.1,4.8,0.4,7.1c0,2.6,0,5.3,0,7.9
		c0,0.8,0,1.6,0.5,2.4c0.5,1.7,0.4,3.4,0.1,5.1c-0.3,0.7-0.7,1.3-0.6,2.1c0.1,2.2-0.1,4.5,0.6,6.7c0.4,1,0.2,2.2-0.1,3.4
		c-0.7,1.3-1,2.7-0.1,4.1c0.2,0.5,0.3,1,0.3,1.5c0,0.7,0,1.4-0.1,2.1c0,0.2-0.1,0.4-0.2,0.5c-0.7,0.8-0.1,2.1-0.9,2.8
		c0,0.4,0,0.9,0,1.3c0.1,1.4-0.3,2-1.8,1.5c-1.4-0.5-2.8,0.5-4.3,0.3c-0.6-0.1-1.3,0.2-1.5-0.8c1.6-0.4,3.3-0.1,5-0.2
		c-3.5,0-6.9,0-10.4,0c-0.2,0-0.4,0-0.6,0c0.2,0,0.5,0,0.7,0.2C56.8,76.6,55.4,75.3,54,74.8z"/>
	<path class="st98" d="M72,49.7c0-1.8,0-3.6,0-5.3c-0.7-1.1-0.3-2.3-0.4-3.5c-0.1-2.1,0-4.2,0-6.3c0.1-0.9-0.3-1.9,0.4-2.8
		c1.4,0.7,1.6,1.9,1.5,3.3c0,0.7,0,1.4,0,2.1c0.8,1.9,0.8,3.8,0,5.7c-0.2,2.2,0.2,4.3,0.7,6.4c0.2,0.8,0.3,1.8-1,2.1
		c-0.5,0.1-0.5,0.5-0.5,0.9c0,1.3,0,2.7,0,4c0,0.4,0,0.8,0.4,1c2.1,0.9,1,2.5,0.8,3.8c-0.1,0.4-0.6,1-0.4,1.4c1.5,2-0.1,3.8-0.4,5.6
		c-0.7,0.2-0.8-0.5-1.1-0.8c0-0.5,0-1,0-1.5c-0.6-1.3-0.6-2.5,0-3.8c0.3-3.6-1.3-7.1-0.8-10.7C71.7,50.8,71.4,50.1,72,49.7z"/>
	<path class="st99" d="M113.1,68c1.3-0.9,1.6-0.4,1.6,1c-0.1,2.7,0,5.4,0,8.2c0,3.1,0,6.2,0,9.3c0,0.5,0.2,1.3-0.7,1.3
		c-1,0.1-0.8-0.7-0.8-1.3c0-3.6,0-7.2,0-10.8c-0.3-1.1-1.1-1.6-2.2-1.5c-1.1,0.1-1.7-0.4-1.6-1.5c0.1-0.1,0.1-0.1,0.2-0.2
		c0.3,0-0.1,0,0.2-0.1c0.2,0,0.4,0.1,0.6,0c-0.2-0.1-0.3-0.2-0.3-0.4c0-0.2,0.1-0.3,0.3-0.4c0.9-0.7,2-1.2,2.5-2.3
		C112.7,68.7,112.8,68.3,113.1,68L113.1,68z"/>
	<path class="st100" d="M85.7,75.6c-1.1,0-2.3-0.2-3.4,0c-2.7,0.6-4.5-1.7-7-1.8c-0.5,0-1.1-0.8-1-1.6c0.2-1.8-0.3-3.7,0.6-5.6
		c0.6-1.1,0.2-2.7,0.2-4.1c0-0.9,0.2-1.5,1.3-1.3c0.4,0.5,0.4,1,0.4,1.5c0.1,1.8-0.6,3.5-0.4,5.3c0,0.3,0,0.6-0.1,0.9
		c-0.1,0.3-0.2,0.5-0.3,0.8c-0.4,0.8-0.5,1.6-0.1,2.4c0.6,0.6,1.3,0.7,2,0.8c0.2,0,0.3,0.1,0.5,0.1c1.1,0.5,2.4,0.2,3.2,1.1
		c-0.2-0.2,0.3,0.2,0,0.2c-0.1,0-0.1,0.3-0.1,0.2c1-0.4,1.9-0.2,2.9-0.2c0.2,0,0.4,0.1,0.5,0.1C85.3,74.8,85.8,75,85.7,75.6z"/>
	<path class="st101" d="M81.1,61.1c-0.4-1.2-1.3-1.6-2.5-1.5c-0.9,0-1.7,0.2-2.9-0.3c1.2-0.6,2-1.4,2.8-2.1c1-0.9,1.9,0.3,2.4,0.7
		c0.9,0.6,1.8,1.1,2.9,1c0.8-0.1,1.4,0.5,1.5,1.2c0,0.8-0.7,1.1-1.5,1.1c-0.7,0-1.4,0-2.1,0C81.6,61.4,81.4,61.3,81.1,61.1z"/>
	<path class="st102" d="M85.7,63.4c2.8,0,5.6,0.5,8.4,0c0.2,0.3,0.3,0.6,0.2,0.9c-0.6,0.8-1.4,0.7-2.2,0.7c-4,0.3-7.8-0.6-11.5-1.9
		c-0.8-0.3-1.7-0.5-2.5-0.9c-0.4-0.3-1.1-0.4-1.2-1.1c1.3-1.4,2.4-0.8,3.5,0.3c0.5,0,1.1-0.1,1.5,0.4l0,0
		C83.1,62.4,84.6,62.5,85.7,63.4z"/>
	<path class="st103" d="M95.3,56.1c-0.1-0.1-0.2-0.3-0.3-0.4c-0.8-0.3-1.7-0.3-2.4-0.8l0,0c-0.8-0.3-1.6-0.2-2.4-0.3
		c-0.5,0-0.9,0-1.4-0.1c-1.9-0.9-4-1.3-5.9-2.1c-0.4-0.3-1.2-0.4-0.9-1.3c1.4-0.9,2.7-0.3,3.9,0.5c2.8,0.4,5.4,1.3,8,2.3
		c0.3,0.1,0.5,0.2,0.8,0.4c0.8,0.8,2.6,0.5,2.5,2.3C96.5,56.8,95.8,56.7,95.3,56.1z"/>
	<path class="st104" d="M74.2,37.9c0.2-2.8,0.6-5.4,3.1-7.2c0.4,0.2,0.6,0.6,0.5,1c-1.4,3-2.6,6-2.3,9.4c0.1,0.6,0,1.3-0.4,1.8
		c-0.3,0.2-0.6,0.2-0.9,0c0-0.3,0-0.5,0-0.8C73.7,40.7,73.7,39.3,74.2,37.9z"/>
	<path class="st105" d="M84.9,54.3c-1,0-1.9,0-2.9,0c-1.7,0.1-3.4,0.1-3.3-2.4c0-0.4-0.4-0.7-0.7-0.8c-1-0.1-0.7-0.8-0.8-1.4
		c0.4-0.3,0.9-0.3,1.4-0.2c0.2,0.1,0.3,0.1,0.4,0.3c0.2,0.6,0.5,1.1,1.1,1.2c1.1,0.7,1.7,2.2,3.4,2.1c0.6,0.1,1.4,0,1.5,1
		C85,54.1,85,54.2,84.9,54.3z"/>
	<path class="st106" d="M109.7,71c0.1,0,0.3,0,0.4,0c0.2,0.3,0.2,0.5,0,0.8l0,0c-0.2,0.3-0.5,0.5-0.8,0.8c0,0,0,0,0,0
		c-1.9,0-3.3,1.5-5.1,1.9c-0.8,0.1-1.6,0.4-2.5,0.4c-0.4,0-0.7-0.1-0.9-0.6c2.1-1.4,4.7-1.9,6.9-3C108.4,71.2,109.1,71.1,109.7,71z"
		/>
	<path class="st107" d="M95.3,56.1c0.7-0.2,1.2,0.2,1.8,0.4c2.9,1.1,3.3,4.8,0.7,7c-0.2,0.1-0.4,0.1-0.6,0.1
		c-0.1-0.1-0.2-0.1-0.2-0.2c0.3-0.7,0.6-1.4,0.8-2.1c0.5-2.3,0-3.2-2.2-4.2C94.9,56.8,94.9,56.7,95.3,56.1z"/>
	<path class="st108" d="M74.3,42.8c0.3,0,0.5,0,0.8,0c1.2,0.5,0.9,1.6,1.2,2.5c0.1,0.8-0.1,1.7,0.2,2.5c0.1,0.3,0.3,0.7,0.1,1.1
		c-1.1,0.1-1.8-0.3-1.5-1.4C75.4,45.8,73.9,44.5,74.3,42.8z"/>
	<path class="st109" d="M85.7,75.6c-0.3-0.3-0.5-0.5-0.8-0.8c0.6-0.6,1.4-0.6,2.1-0.5c2.3,0.5,4.6,0.2,7,0.3c1,0.3,2.4-0.6,3.1,0.9
		C93.3,75.6,89.5,75.6,85.7,75.6z"/>
	<path class="st110" d="M58.2,74.9c-0.7,0-1.5,0-2.2,0c0-0.1,0-0.2,0-0.3c4.4,0,8.8,0,13.2,0c0,0.1,0,0.2,0,0.3c-1.9,0-3.8,0-5.6,0
		C61.8,74.9,60,74.9,58.2,74.9z"/>
	<path class="st98" d="M73.1,69.5c0.9,1.4,0.3,2.6-0.4,3.8c-0.3,0-0.5,0-0.8,0c-0.4-1.3-0.7-2.5,0-3.8l0,0
		C72.3,69.2,72.7,69.2,73.1,69.5z"/>
	<path class="st105" d="M88.8,54.2c0.5,0,1,0,1.5,0c0.2,0.3,0.2,0.5,0,0.8c-1.3,0-2.6,0-3.9,0c-0.6,0-1.3,0.2-1.4-0.8c0,0,0,0,0,0
		C86.2,53.3,87.5,54,88.8,54.2z"/>
	<path class="st108" d="M74.2,37.9c0,1.4,0,2.8,0,4.2c-0.3,0.3-0.5,0.5-0.8,0.8c0-1.9,0-3.8,0-5.7C73.7,37.4,74,37.6,74.2,37.9z"/>
	<path class="st111" d="M97.1,75.6c-1-0.8-2.1-0.2-3.1-0.4c0-0.2,0-0.4,0.2-0.5c2.2-0.4,4.3-1,6.6-0.3c0.3,0.1,0.7,0.1,0.9,0.4
		c0,0,0,0,0,0c-1.2,0.8-2.6,0.3-3.8,0.8C97.6,75.6,97.4,75.6,97.1,75.6z"/>
	<path class="st75" d="M72,69.5c0,1.3,0,2.5,0,3.8c0,0.1,0,0.3-0.1,0.3c-0.2,0.2-0.3,0-0.3-0.2c0-0.4,0-0.7-0.4-0.9
		C71.5,71.6,70.4,70.2,72,69.5z"/>
	<path class="st112" d="M85.7,63.4c-1.5,0-2.6-0.8-3.8-1.5C83.2,62.2,85,61.4,85.7,63.4z"/>
	<path class="st113" d="M76.5,48.9c-0.1-0.3-0.3-0.5-0.4-0.8c0.3-1,0.9,0,1.4-0.2c0.7,0.3,1.4,0.7,1.3,1.7c-0.5,0.1-1,0.4-1.6,0
		C77,49.4,76.8,49.2,76.5,48.9z"/>
	<path class="st75" d="M73.1,69.5c-0.4,0-0.8,0-1.1,0c0-0.8,0-1.5,0-2.3c0.6-0.1,0.7,0.5,1.1,0.8C73.1,68.5,73.1,69,73.1,69.5z"/>
	<path class="st106" d="M97.9,75.6c1.2-0.6,2.5-0.6,3.8-0.8C100.7,76.5,99.1,75.2,97.9,75.6z"/>
	<path class="st114" d="M94.1,64.3c0-0.3,0-0.6,0-0.9c1,0,2,0,3,0c0,0,0.1,0,0.1,0C96.4,64.8,95.3,64.7,94.1,64.3z"/>
	<path class="st115" d="M76.8,61.2c0.4,0.2,0.8,0.5,1.3,0.7c-0.3,0.5-0.9,0.7-1.4,0.9c-0.2,0-0.3,0-0.5-0.1c0-0.5,0-1,0.1-1.5
		C76.5,61.2,76.7,61.2,76.8,61.2z"/>
	<path class="st107" d="M90.3,55c0-0.3,0-0.5,0-0.8c0.8,0.1,1.6,0.2,2.3,0.7C91.8,55,91,55,90.3,55z"/>
	<path class="st107" d="M92.6,55c0.9,0,1.7,0.3,2.4,0.8C94,55.8,93.2,55.8,92.6,55z"/>
	<path class="st112" d="M81.9,61.9c-0.5-0.1-1.1,0.2-1.5-0.4c0.2-0.3,0.5-0.4,0.8-0.4c0.3,0,0.5,0,0.8,0
		C81.9,61.4,81.9,61.6,81.9,61.9z"/>
	<path class="st98" d="M72.7,73.2c0.5,0.6,0.7,0.9,0.4,1.5C72.5,74.3,72.8,73.7,72.7,73.2z"/>
	<path class="st81" d="M88.7,24.1c-1.1-0.2-1.7-0.7-2.3-1.8c-0.8-1.4-2.9-0.7-4.8-1.1c1.5-0.8,2.7-0.5,3.8-0.5c1,0,2.3-0.5,2.7,1.2
		c0.1,0.4,0.9,0.4,1.2,0.3c2.4-1.3,5.1-0.5,7.6-0.7c1.2-0.1,2.4,0.4,3.4-0.6c0.2-0.2,0.6,0,0.9,0.2c1.7,0.7,3.5,0.8,5.2-0.1
		c1.1-0.6,1.9-0.2,2.2,0.9c0.1,0.4,0.4,0.4,0.8,0.4c0.7,0,1.4,0,2.1,0c0.9-0.3,1.2,0.3,1.2,1c0,0.9,0.3,2.1-1.1,2.4
		c-0.3,0-0.5,0-0.8-0.1c-1-0.8-2.1-0.7-3.2-0.3c-0.4,0-0.7-0.1-0.8-0.5c-1.1-0.9-2.3-0.1-3.4-0.4c-4.2,0-8.4,0-12.7,0
		C90.1,24.3,89.4,24.4,88.7,24.1z"/>
	<path class="st116" d="M72,31.8c0,0.9,0,1.8,0,2.7c-0.4,0.2-0.5-0.2-0.8-0.4c0-2.4,0-4.8,0-7.2c-0.8-1-0.9-2.3-1.7-3.3
		c-0.2-0.3-0.2-0.7-0.3-1.1c0-0.3,0-0.5,0-0.8c0-0.2,0.1-0.4,0.1-0.5c0.1-0.2,0.3-0.4,0.5-0.6c0.1,0,0.3-0.1,0.5,0
		c0.2,0,0.3,0.2,0.5,0.2c0.2-0.3-0.1-0.5-0.1-0.8c-0.1-1.3-0.1-2.7,0-4c0-0.8,0.1-1.7,0.9-2.2c0.3-0.1,0.4-0.7,0.8-0.5
		c0.5,0.3,0.2,0.9,0.3,1.3c0,1.5,0,3,0,4.6c0,0.8,0,1.8-0.5,2.2c-2,1.7-0.7,3.7-0.5,5.5C72.1,28.5,71.9,30.1,72,31.8z"/>
	<path class="st117" d="M111.6,25.3c1-1,1.4-2,0-3.1c0.2-0.8,0.7-1.3,1.5-1.5c1.1,1.9,0.4,4.1,0.6,6.1c-0.2,3.5,0.4,6.9-0.2,10.4
		c-0.5,1-1.4,1.8-2.5,2.1c-0.7,0.2-1.5,0.3-1.9-0.6c0-0.3,0.1-0.5,0.4-0.6c0.5-0.1,0.7-0.2,0.6-0.7c0.4-0.4,0.9-0.7,1.3-1.1
		c0.7-0.5,0.4-1.2,0.4-1.8C111.9,31.4,111.9,28.4,111.6,25.3z"/>
	<path class="st118" d="M88.7,24.1c0.6-0.6,1.3-0.4,2-0.4c4.4,0,8.9,0,13.3,0c0.2,0.3,0.2,0.6-0.1,0.9c-1.2,0.6-2.5,0.3-3.7,0.4
		c-3.7-0.1-7.5,0.1-11.2,0.6c-0.7-0.4-1.9,0.1-2.2-1.1C87.5,24.4,88.2,24.8,88.7,24.1z"/>
	<path class="st119" d="M113.1,26.8c0-2,0-4.1,0-6.1c0.5,0,1,0,1.5,0c0,3.7,0,7.4,0,11.1c-1.2,0-1.1-0.9-1.1-1.7
		C113.4,29,113.9,27.8,113.1,26.8z"/>
	<path class="st120" d="M86.8,24.5c0.5,0.7,1.4,0.1,1.9,0.7c-0.9,1.2-2.5,1.1-3.7,1.8c-1.3,0.4-2.6,1-3.7,1.9
		c-0.8,0.5-1.3,1.4-2.4,1.5c-0.4-0.1-0.7-0.2-0.9-0.6c0.5-1.6,2.1-1.6,3.2-2.3C83,26.4,85,25.5,86.8,24.5z"/>
	<path class="st121" d="M78.1,29.9c0.2,0.1,0.5,0.2,0.7,0.3c0.2,1-0.2,1.3-1.1,1.2c-0.1-0.2-0.3-0.5-0.4-0.7
		C77.3,30.1,77.6,29.9,78.1,29.9z"/>
	<path class="st122" d="M69.7,22.2c0,0.4,0,0.8,0,1.1C70.3,25.1,69,25,68,25c-3.3,0.1-6.6,0-9.8,0c-1,0-2,0-3,0.2c-0.5,0-1,0-1.5,0
		c0-0.1,0-0.1,0-0.2c-1.4-2.4-1.1-2.8,1.6-2.9c0.6-0.5,1.3-0.3,2-0.1c2.1,0.5,4.2,0.4,6.4-0.1C65.6,21.5,67.7,21.3,69.7,22.2z"/>
	<path class="st123" d="M69.7,22.2c-3-0.4-5.9,0.5-8.8,0.8c-2,0.2-3.8-0.4-5.7-0.8c-0.3-0.5-0.5-1-0.8-1.5c0.1-0.1,0.3-0.2,0.5-0.2
		c0.3,0,0.6,0.1,0.8,0.2c0.3,0,0.6,0.1,0.9,0.2c3.6,0.1,7.1,0,10.7,0c0.8,0,1.6-0.1,2.3,0.5C69.7,21.7,69.7,22,69.7,22.2z"/>
	<path class="st124" d="M55.1,14.2c0-0.4,0.1-0.7,0.1-1.1c0.5-0.4,1-0.5,1.6-0.5c3.7,0.2,7.4,0,11.1,0.1c0.7,0,1.4-0.2,1.9,0.6
		c0.1,0.9-0.6,0.9-1.2,1.1c-3.6,0.1-7.2,0-10.7,0.1c-0.6,0-0.9,0.4-1.1,0.9c-0.5,1.3-0.1,2.7-0.3,4.1c-0.1,0.7,0,1.8-1.3,1.4
		c-0.6-1.9-0.2-3.9-0.2-5.9C54.9,14.6,55,14.4,55.1,14.2z"/>
	<path class="st125" d="M52.1,17.1c0-0.8,0-1.5,0-2.3c0-0.5,0-0.9,0.7-0.9c0.5,0,0.8,0.4,0.8,0.9c0,1.7,0,3.4,0,5.1
		c0,0.4-0.3,0.7-0.7,0.7c-0.6,0-0.8-0.4-0.8-0.8C52.1,18.9,52.1,18,52.1,17.1C52.1,17.1,52.1,17.1,52.1,17.1z"/>
	<path class="st123" d="M70.8,21.1c-0.1-0.1-0.3-0.3-0.4-0.4c-0.9-1.3-0.4-2.8-0.5-4.2c-0.1-0.7,0-1.5,0-2.2c0-0.2,0-0.4,0-0.6
		c0-0.3,0-0.6,0.2-0.9c0.2-0.3,0.5-0.4,0.8-0.4c0.5,0.4,0.7,0.9,0.8,1.5c-0.7,2.3-0.3,4.6-0.4,6.9C71.3,21.1,71.2,21.2,70.8,21.1z"
		/>
	<path class="st126" d="M55.2,12.7c0.9-1.6,2.1-0.4,3.2-0.4c3,0,6,0,9.1,0c0.7,0,1.5-0.3,2.2,0.3c-1.9,0.5-3.7,0.2-5.6,0.2
		C61.1,12.8,58.1,13.1,55.2,12.7z"/>
	<path class="st127" d="M55.2,12.7c4.8,0,9.7,0,14.5,0c0.1,0,0.2,0.1,0.4,0.1c0,0.3,0,0.5,0,0.8c-0.1,0.2-0.3,0.1-0.3-0.1
		c-0.4-0.4-0.9-0.3-1.4-0.3c-4.4,0-8.7,0-13.1,0C55.2,13,55.2,12.8,55.2,12.7z"/>
	<path class="st128" d="M55.1,14.2c0,0.1,0,0.3,0,0.4c-0.3,2,0.2,4.1-0.3,6.1c-0.1,0-0.2,0-0.4,0c0-2.1,0-4.2,0-6.3
		C54.4,13.3,54.8,14,55.1,14.2z"/>
	<path class="st129" d="M51,57.3c0-1,0-2,0-3.1c0.7-0.6,0.4-1.4,0.4-2.2c0-8.4,0-16.9,0-25.3c1.3,0.3,0.7,1.3,0.7,2
		c0,13.6,0,27.1,0,40.7c-1.1-0.2-0.7-1-0.8-1.7c0-2.9,0-5.8,0-8.8C51.4,58.5,51.6,57.8,51,57.3z"/>
	<path class="st130" d="M48.7,69.5c0-4.3,0-8.6,0-13c0.5,0.4,0.4,1,0.4,1.6c0,3.3,0,6.5,0,9.8C49.1,68.5,49.2,69.1,48.7,69.5z"/>
	<path class="st131" d="M85.7,52c-1.1-1-2.5-0.8-3.8-0.7c-0.1-0.1-0.1-0.1-0.2-0.2c-0.3-0.7-0.7-1.4-0.7-2.2c0-2.2-1.2-3.3-3.5-3.1
		c-1.8-0.6-1.8-2.3-2.1-3.7c-0.3-1.4-0.1-2.9,0-4.3c0.1-1.4,0.4-2.6,1.8-3.3c0.2-0.1,0.4-0.1,0.4-0.3c0.1-2.5,2.3-3.3,3.7-4.8
		c0.2-0.6,1.3-0.2,1.3-1.1c0.1-0.1,0.3-0.2,0.4-0.3c0.7-0.1,1.4-0.2,1.7,0.6c0-0.4-0.2-0.8,0-1.2c0.2-0.4,0.5-0.6,0.8-0.8
		c1.6-0.1,2.9-1.2,4.6-0.9c0.7,0.3,1.4,0.7,2.1,0.6c-0.4-0.1-1.1,0.3-1.3-0.5c0.1-0.6,0.5-0.6,1-0.6c4.8-0.3,9.5-0.5,14.1,0.9
		c1.1,0.3,2.3,0.1,3.3,0.6c1.1,1.8,0.6,3.8,0.4,5.7c-0.1,1-1.1,1-2,1c-0.7,0-1.6,0-1.4,1.1c-1.3,0.6-2.6,0.9-3.8-0.3
		c-0.2-0.2-0.5-0.1-0.7-0.1c-3.1,0-6.2,0.3-9.3-0.1c-0.1,0-0.1,0.6-0.5,0.8c-1.3,0.9-2.8,1.6-2.7,3.7c0.1,1.7,0.6,3.1,1.7,4.3
		c0.1,0.1,0.1,0.4,0.1,0.5c0,0.3-0.4,1,0.1,0.9c1.7-0.1,3.5,0.9,5.2-0.2c1.2-0.3,2.2,0.8,3.4,0.5c1.7,0.1,3.2,0.6,3.8,2.4
		c0,1.2,0.7,1.7,1.7,2.2c1.5,0.7,3.1,1.3,4.6,2c-0.8,1-1.1,2.1-0.4,3.3c0.3,0.5,0.3,1,0.1,1.6c-0.6,1.3-0.5,2.7-0.4,4.1
		c0.1,1.1,0.3,2.1-0.2,3.1c-0.2,0.5,0,0.9,0.3,1.2c0.4,0.4,0.6-0.2,1-0.3c0.4-0.1,0.7-0.2,1.1-0.4c0.3-0.2,0.6-0.6,0.9-0.1
		c0.3,0.4,0,0.9-0.3,0.9c-1.6,0.3-1.2,1.5-1.3,2.5c0,1.2-0.5,2-1.5,2.8c-3.3,2.4-7,3.8-11,4.4c-0.7,0.1-1.4,0.2-2-0.3
		c-0.1-0.4,0.2-0.7,0.5-0.6c0.6,0.1,0.1-0.5,0.4-0.5c-0.1-0.3-0.3-0.1-0.4,0c-2.6,0.3-5.2,0.1-7.8,0.1c-1,0-1.9,0.2-2.5,1.1
		c-0.3,0.2-0.6,0.2-0.9,0.1c-0.7-0.5-1.6-0.3-2.4-0.6c-0.9-0.3-1.1-0.8-0.2-1.5c1.2-0.9,2.6-0.9,4-0.9c3.7-0.1,7.3,0.3,11.3,0.1
		c0,0-0.3-0.4-0.2-0.1c0,0.1,0,0.1-0.1,0.1c-2.1,0-4.3,0.1-6.4-0.3c-3.5-0.6-6.9-0.1-10.1,1.5c-2.3,1.2-3.9,0.4-3.9-2.2
		c0-1.9-0.1-3.8,0.1-5.7c0.2-2.2,0.2-2.2,2.3-1.7c1.3,0.2,2.8,0,2.9,2.1c0,0.3,0.6,0.5,0.9,0.5c1.2-0.2,2.2,0.4,3.3,0.5
		c2.8,1.3,5.9,0.3,8.8,1.3c-0.4-1-1.4-0.8-1.8-1.5C93.9,65,94.6,64.9,95,65c1.6,0.4,2.2-0.6,2.8-1.6c2.1-1.2,2.6-4.3,1-6.3
		c-1.1-1.3-2.5-2.3-4.3-2.4c-0.1-0.1-0.3-0.3-0.4-0.4c-0.7-1.4-1.8-2-3.4-1.8c-0.6,0-1.3,0.1-1.6-0.6c-0.1-0.2,0.4-0.1,0.2-0.4
		C88.2,52.3,86.8,51.5,85.7,52z"/>
	<path class="st132" d="M96.4,74.1c3.8-0.2,7.4-1.1,10.7-3.2c1.5-1,3-1.9,3.8-3.6c0.6-0.3,1.1-0.9,1.9-0.8c-0.5,1.9-2.2,2.8-3.4,4.2
		c-0.2,0.6-0.6,0.7-1.2,0.8c-2.3,1.4-4.8,2.2-7.4,3c-2.3,0.3-4.5,0.5-6.8,0.8c-3-0.1-6.1-0.2-9.1-0.3l-0.1-0.1l-0.2,0
		c-1-0.5-2.1,0.2-3-0.4c-1.1-0.5-2.5-0.4-3.6-1c0-0.2,0-0.5,0.1-0.5c2.6-0.1,5,0.6,7.5,1.2c0.3,0,0.5,0,0.8,0c0.4-0.4,1-0.6,1.6-0.6
		c2.3-0.1,4.5-0.1,6.8,0C95.4,73.5,96,73.6,96.4,74.1z"/>
	<path class="st133" d="M110.1,51.2c-2.5,0.2-4.2-1.6-6.4-2.3c-0.7-0.2,0-1.1-0.5-1.5c0.9-0.7,1.9-0.9,2.9-0.1
		c0.5,0.3,1,0.4,1.6,0.4c0.5,0,1,0,1.4,0.2c0.4,0.2,0.8,0.5,1,0.9c0.1,0.7,0.7,1.3,0.7,2.1C110.5,50.8,110.3,50.9,110.1,51.2z"/>
	<path class="st134" d="M110.1,48.9c-0.3-0.2-0.6-0.5-0.8-0.7c-0.7-0.5-1.9-0.4-2-1.6c0.1-0.5,0.5-0.8,1-0.9c1.8,0.2,2.6,2,4,2.8
		c0.3,0.3,0.6,0.6,0.8,0.9c0,0.1,0.1,0.2,0.1,0.2c0,0.5,0,1,0,1.5c-0.1,0.2-0.3,0.2-0.5,0c-0.3-0.3-0.6-0.6-0.9-0.9
		C111,50.2,110.5,49.6,110.1,48.9z"/>
	<path class="st135" d="M112.3,60.8c0.3-2.2-0.3-4.3,0.6-6.2C113,56.7,114,58.8,112.3,60.8z"/>
	<path class="st136" d="M110.1,48.9c0.8,0.2,1.2,0.8,1.7,1.5c-0.3,0.1-0.6,0.3-0.9,0.4C110.4,50.3,109.5,49.9,110.1,48.9z"/>
	<path class="st137" d="M112.7,51.2c0.2,0,0.3,0,0.5,0c1.2,1.3,1.3,1.7,0.8,2.3C113.5,52.7,113.1,52,112.7,51.2z"/>
	<path class="st138" d="M113.1,26.8c1.3,0.3,0.6,1.3,0.8,2c0.2,1-0.5,2.2,0.8,2.9c0,5.6,0,11.3,0,16.9c0,1.4-0.3,1.9-1.6,1
		c0,0,0,0,0,0c-0.4-0.5-0.5-1.1-0.5-1.7c-0.1-2.8,0-5.6-0.1-8.3c0-0.8,0.1-1.5,0.6-2.2C113.1,33.9,113.1,30.4,113.1,26.8z"/>
	<path class="st75" d="M110.1,71.8c0-0.3,0-0.5,0-0.8c1-0.1,1.3-1.4,2.3-1.5c0.3-0.2,0.5-0.2,0.8,0
		C112.4,70.7,111.3,71.3,110.1,71.8z"/>
	<path class="st55" d="M113.1,69.5c-0.3,0-0.5,0-0.8,0c-0.3-0.8-0.2-1.4,0.8-1.5C113.1,68.5,113.1,69,113.1,69.5z"/>
	<path class="st139" d="M108.2,71.4c0.4-0.3,0.8-0.5,1.2-0.8c0.1,0.1,0.2,0.3,0.4,0.4C109.3,71.4,108.9,72.1,108.2,71.4z"/>
	<path class="st140" d="M57.1,74c-0.9,0-2,0.5-2-1.1c-0.1-0.1-0.1-0.3,0-0.4c0-10.5,0-21,0.1-31.4c0-4.9,0-9.8,0.1-14.7
		c0.5-0.8,1.2-1,2-0.3c-0.5,2.6-0.3,5.2-0.3,7.7c0,3.9,0,7.9,0,11.8c0,8.5,0.1,17,0,25.5c0,1,0.4,1.3,1.3,1.4c3,0.2,5.9,0.3,8.9-0.1
		c0.9-0.1,1.9-0.6,2.7,0.1c0.4,1.4-0.5,1.3-1.4,1.3c-3.2,0-6.3,0-9.5,0C58.3,73.9,57.7,73.8,57.1,74z"/>
	<path class="st141" d="M57.1,74c1.4-0.7,3-0.3,4.5-0.3c2.2-0.1,4.4,0,6.6,0c0.8,0,1.6,0,1.4-1.2c-0.7-0.8-0.7-1.8-0.7-2.7
		c0.3-13.7,0-27.4,0.1-41.2c0-0.4,0-0.9,0-1.3c0.1-0.4,0.1-0.7,0.3-1.1c0.1-0.2,0.3-0.3,0.6-0.3c0.2,0.2,0.3,0.4,0.2,0.7
		c0,15,0,30,0,45c0,0.7,0.2,1.4-0.2,2.1c-0.3,0.4-0.7,0.4-1.2,0.4C64.9,74.1,61,74.1,57.1,74z"/>
	<path class="st142" d="M55.1,72.5c0,0.1,0,0.3,0,0.4c-0.2,0-0.3,0.7-0.7,0.2c-0.1-0.2,0-0.6,0-0.9c0-15,0-30,0-45
		c0-0.2,0-0.5,0.4-0.7c0,0.6,0,1.3,0,1.9c0,13.9,0,27.8,0,41.7C54.8,70.9,54.6,71.8,55.1,72.5z"/>
	<path class="st143" d="M70.1,73.7c0-15.9,0-31.7,0-47.6c0.3-0.1,0.5,0,0.4,0.4c0,15,0,30.1,0,45.1C70.4,72.2,70.7,73.1,70.1,73.7z"
		/>
	<path class="st75" d="M70.4,26.4c-0.1-0.1-0.3-0.2-0.4-0.4c-0.1,0-0.2-0.1-0.3-0.1c-0.2,0-0.4-0.1-0.6-0.1c-4.4-0.2-8.8,0-13.2-0.2
		c-0.2,0.1-0.4,0.1-0.6,0c0-0.2,0-0.3,0-0.5c0.2-1.1,1-0.7,1.7-0.7c3.7,0,7.4,0,11.2,0c0.8,0,1.8,0.2,1.7-1.1
		c1.3,0.8,1.2,2.2,1.5,3.4C70.9,26.7,70.7,26.5,70.4,26.4z"/>
	<path class="st75" d="M71.2,34c0.3,0.1,0.5,0.3,0.8,0.4c0,3.3,0,6.6,0,9.9c-1-0.2-0.7-1-0.8-1.6C71.2,39.8,71.2,36.9,71.2,34z"/>
	<path class="st141" d="M55.2,25.7c0.1,0,0.2-0.1,0.4-0.1c4.7-0.3,9.4-0.3,14.1,0c0,0.1,0,0.2,0,0.4c0,0-0.1,0.1-0.1,0.1
		c-1.3,0.9-2.7,0.4-4,0.5c-1.3,0.1-2.6,0-4,0c-0.3,0-0.7,0-1,0c-1-0.1-2,0-2.9-0.2c-0.2-0.1-0.4-0.2-0.6-0.3c-0.7-0.1-1.3,0-1.9,0.3
		C55.2,26.2,55.2,26,55.2,25.7z"/>
	<path class="st75" d="M72,61.9c0,1.3,0,2.5,0,3.8C70.9,64.7,70.9,62.9,72,61.9z"/>
	<path class="st75" d="M72,49.7c-0.1,0.6,0.3,1.4-0.8,1.5C71.3,50.6,70.9,49.8,72,49.7z"/>
	<path class="st75" d="M109.3,72.6c0-0.5,0.3-0.7,0.8-0.8c0.1,0.2,0.4,0.5,0.4,0.6C110.2,72.8,109.7,72.5,109.3,72.6z"/>
	<path class="st144" d="M85.7,74.1c-2.6,0.2-5-1.2-7.7-0.7c-0.1,0-0.2,0-0.4-0.1c-1.1-0.4-1.7-1.1-1.7-2.3c0-0.6,0-1.2-0.3-1.8
		c0-0.3,0-0.5,0-0.8c0.4-1.9,0.5-3.8,0.8-5.7c0.4-0.5,1-0.7,1.6-0.8c0.8,0.3,1.5,0.5,2.3,0.8c0.2,0.2,0.2,0.5,0,0.7
		c-0.7,0.1-1.4,0-2-0.6c-0.4,2.7-0.2,5.3-0.2,7.9c0,0.6-0.3,1.4,0.5,1.7c0.8,0.3,1.7,0.2,2.5-0.2c3.7-1.9,7.6-2.5,11.8-1.4
		c1.8,0.5,3.9,0.2,5.9,0.2c0.4,0,0.7,0,1.5,0.1c-1.4,0.8-2.5,0.6-3.5,0.6c-3,0.1-6.1,0-9.1,0c-1.7,0-3.4-0.2-4.8,1.1
		c0.7,0.5,1.5,0.4,2.3,0.4C85.7,73.3,86,73.5,85.7,74.1z"/>
	<path class="st132" d="M75.8,69.1c0.6,0.3,0.9,0.8,0.8,1.4c-0.2,1.2,0.3,2,1.2,2.8c-0.9,0.1-1.6-0.4-2.3-0.7c-0.2-1-0.3-2,0.1-3
		C75.6,69.4,75.7,69.3,75.8,69.1z"/>
	<path class="st132" d="M76.5,62.7c0.5,0.4,0.4,0.5,0.2,1.1c-0.3,0.9-0.6,1.9-0.3,2.8c0.2,0.7,0.1,1.4-0.6,1.7
		c-0.2-1.9,0.3-3.8,0.4-5.7C76.3,62.7,76.4,62.7,76.5,62.7z"/>
	<path class="st109" d="M81.6,74.4c1,0.1,2.1-0.1,3,0.4c-1.4,0-2.7,0-4.1,0C80.7,74.3,81.3,74.6,81.6,74.4z"/>
	<path class="st145" d="M75.4,69.5c0,1-0.1,2-0.1,3C74.9,71.5,74.7,70.5,75.4,69.5z"/>
	<path class="st146" d="M80.4,63.4c0-0.2,0-0.5,0-0.7c3.9,1.1,7.8,2.3,11.9,1.9c0.6-0.1,1.3,0.1,1.9-0.3c1.1-0.1,2.1-0.4,3-0.9
		c0.1,0,0.2,0,0.4,0c0.1-0.1,0.3-0.1,0.4,0c0,1.6-0.9,2.3-2.4,2c-0.5-0.1-1-0.2-1.4,0.3c-0.6,0.6-1.4,0.4-2.1,0.3
		c-1.8-0.3-3.4,0.2-5.1,0.5c-1.4-0.2-2.7-0.5-4.1-0.7c-0.4-0.1-0.9-0.1-0.7-0.6C82.7,63.3,81.5,63.4,80.4,63.4z"/>
	<path class="st147" d="M97.9,63.4c-0.1,0-0.3,0-0.4,0c2.4-2.3,2.3-4.6-0.4-6.9c-0.5-1.2-1.9-1.1-2.7-1.9c2.6-0.8,5.6,1.9,5.7,5.1
		C100.3,62.5,99.9,63.2,97.9,63.4z"/>
	<path class="st148" d="M85.7,52c1.1-1.4,2.8-0.1,4.1-0.7c-0.1,0.4-0.4,0.9,0.5,0.7c0.5-0.1,1,0,1.5,0c1.6,0,2.4,0.7,2.3,2.3
		c-1.1,0.1-2-0.2-3-0.9C89.5,52.2,87.4,52.9,85.7,52z"/>
	<path class="st149" d="M88.8,54.2c-1.3,0-2.6,0-3.9,0c-0.1-1-0.9-0.7-1.5-0.8C83.1,53,81.9,52.8,83,52C84.9,52.9,87.1,53,88.8,54.2
		z"/>
	<path class="st150" d="M83,52c-0.5,0.7,0.5,0.9,0.4,1.5c-1.8,0.2-2.3-1.5-3.4-2.3c-0.2-0.4,0.1-0.7,0.4-0.9
		c0.7-0.1,1.1,0.4,1.5,0.9c0,0,0,0,0,0C82.2,51.5,82.6,51.7,83,52z"/>
	<path class="st151" d="M81.9,51.2c-0.7,0.1-0.9-0.6-1.5-0.7c-0.8,0.2-1-0.6-1.5-0.9c0,0,0,0,0,0c-0.5-0.5-1-1-1.5-1.5
		c-1.2-0.5-1.2-1.6-1.5-2.6c-0.2-0.9-0.3-1.8-0.7-2.7c-0.3-3.4-0.1-6.7,1.5-9.8c0.3-0.6,0.5-1.3,1.1-1.7c0.5-0.2,0.9-0.7,1.1-1.2
		c0.8-0.5,1.5-1,2.3-1.5c0.1,0,0.1,0.1,0.2,0.1c0.3,0.2,0.4,0.5,0.6,0.7c-0.6,1.6-2.9,1.6-3.4,3.5c-0.2,0.8-0.1,2.1-1.6,2.3
		c-0.7,0.1-1.2,1.3-1.1,2.4c0.2,2.2-0.3,4.5,0.7,6.6c0.3,0.6,0.6,1,1.2,1.3c1.1,1.2,2.1,2.5,3.4,3.4C81.6,49.6,82,50.3,81.9,51.2z"
		/>
	<path class="st113" d="M78.8,49.6c0.6,0,1,0.6,1.5,0.9c-0.1,0.2-0.3,0.5-0.4,0.7C78.9,51.2,78.7,50.5,78.8,49.6z"/>
	<path class="st152" d="M75.8,45.5c0.5,0.9,1,1.8,1.5,2.6c-0.4,0.8-0.8-0.6-1.2,0C75.4,47.3,75.9,46.4,75.8,45.5z"/>
	<path class="st153" d="M100.1,24.5c1.3,0,2.6,0,3.8,0c1-0.5,2-0.6,3,0c0.2,0.3,0.4,0.4,0.8,0.4c1,0,2.1-0.3,3.1,0.4
		c0.3,0,0.5,0,0.8,0c0.8,1,0.8,2.2,0.8,3.3c0,2.2,0,4.4,0,6.6c0,0.8,0.1,1.6-1.1,1.5c-0.7-0.6-0.6-1.4-0.5-2.1
		c0.3-1.5,0.3-3,0.3-4.5c0-0.4,0-0.8,0.1-1.2c0.7-1.5-0.3-2-1.5-2.4c-3-0.4-5.8-1.3-8.9-1.4C100.5,25.2,100.1,25,100.1,24.5z"/>
	<path class="st117" d="M107,24.5c-1,0-2,0-3,0c0-0.3,0-0.5,0-0.8c1,0,2-0.1,3,0C108,23.9,107,24.3,107,24.5z"/>
	<path class="st117" d="M110.9,25.3c-1-0.1-2.1,0.2-3.1-0.4C108.9,24.2,110,23.9,110.9,25.3z"/>
	<path class="st154" d="M69.7,13.4c0.1,0,0.2,0,0.3,0.1c0,0.1,0.1,0.2,0.1,0.4c0.2,2.3,0.3,4.6,0,6.8c-0.1,0.1-0.3,0.3-0.4,0.4
		c-4.6,0.3-9.1,0.2-13.7,0c-0.2,0-0.5-0.1-0.7-0.1c-0.3-0.1-0.3-0.2,0-0.4c1-0.3,0.6-1.1,0.7-1.7c0.2-1.5-0.4-3,0.4-4.4
		c0.8,0.9,0.5,2.1,0.5,3.1c0.1,2.2,0.3,2.4,2.4,2.5c1.6,0,3.2-0.1,4.8,0c3.5,0.2,4.7-0.8,4.4-5.4c0-0.1-0.1-0.2-0.1-0.4
		c0-0.2,0-0.4,0.2-0.6C69,13.8,69.4,13.9,69.7,13.4z"/>
	<path class="st155" d="M56,21.1c4.6,0,9.1,0,13.7,0c0,0.1,0,0.2,0,0.4c-3.9,0-7.8,0-11.7,0C57.3,21.4,56.6,21.7,56,21.1z"/>
	<path class="st156" d="M70.1,20.7c0-2.3,0-4.6,0-6.8c0.7,2.2,0.1,4.6,0.3,6.8c0,0-0.2,0-0.2,0L70.1,20.7z"/>
	<path class="st122" d="M70.8,21.1c0.1-0.1,0.3-0.3,0.4-0.4c0.3,0.3,0.5,0.7,0.1,0.9C70.9,21.8,70.9,21.4,70.8,21.1z"/>
	<path class="st76" d="M113.1,37.5c0,3.6,0,7.1,0,10.7c-0.3,0.2-0.4,0.6-0.8,0.8c-1.8-0.5-2.7-2.2-4.2-3c-0.8,0.5-1.4-0.1-2.2-0.2
		c-1.5-0.6-3.2-0.7-4.6-1.8c0-1.2-0.8-0.8-1.5-0.7c-0.5,0.1-0.9,0.1-1.4,0.1c-0.3-0.1-0.5-0.2-0.7-0.4c-0.4-0.2,0.8-0.5-0.1-0.8
		c-0.7-0.2-1.1-0.8-1.5-1.4c-0.6-1.1-0.2-1.6,1.1-1.8c1.4-0.2,2.9-0.3,4.3-0.3c0.5,0,0.9-0.1,1-0.7c0.1-0.5,0.2-1,0.6-1.3
		c2.1-0.9,3.8,0.5,5.7,0.9c0.3,0.1,0.4,0.5,0.3,0.8c0.4,1.2,1.2,0.8,2,0.5C112,38.4,112.3,37.6,113.1,37.5z"/>
	<path class="st157" d="M109.3,38.2c-1.9-1.1-3.9-1.6-6.1-1.5c-1.6,0.2-3.2-0.2-4.8-0.3c-2.6-0.2-4.7,0.6-6.6,2
		c-0.8,0.1-1.2-0.2-1.4-1c0.4-2.1,2.2-2.2,3.7-2.6c0.7-0.2,1.5-0.2,2.2,0c1.4,0.4,2.8,0.3,4.2,0c2.3-0.1,4.5,0.3,6.6,1
		c0.6,0.2,1.1,0.3,1.7,0.6c0.5,0.3,1.1,0.5,1.2,1.1c0.1,0.2,0.4,0.5,0.4,0.5C110.2,38.5,109.7,38.1,109.3,38.2z"/>
	<path class="st158" d="M110.1,37.5c-0.4-0.2-0.8-0.5-1.2-0.7c0.8-1.3,1.9-2.4,1.5-4.1c0.2-1-0.2-2.3,1.2-2.8
		c0.3,2.3-0.5,4.6-0.3,6.9C111.2,37.4,110.7,37.6,110.1,37.5z"/>
	<path class="st159" d="M100.1,24.5c3,0.5,5.9,1,8.9,1.5c0.4,0.1,0.7,0.2,1.1,0.4c0.1,0.2,0.1,0.3,0,0.5c-0.3,0.1-0.5,0.1-0.8-0.1
		c-2.4,0.1-4.7-0.6-7-1.2c-0.8-0.3-1.8-0.2-2.5-0.1c-2.6,0.1-5.1-0.4-7.7-0.2c-0.5,0-1,0.1-1.1,0.8c-0.3,0.2-0.5,0.2-0.8,0
		c-1.7-0.4-3.2,1.3-5,0.8c-0.2,0.2-0.4,0.1-0.5-0.1c1.2-0.8,2.7-0.9,4-1.5C92.5,24.5,96.3,24.4,100.1,24.5z"/>
	<path class="st160" d="M84.8,26.7c0.2,0,0.4,0,0.5,0.1c-0.1,0.3-0.3,0.5-0.4,0.8c-0.7,0.5-1.6,0.3-2.3,0.8l0,0
		c-0.4,0.4-0.9,0.8-1.5,0.4c0,0-0.1-0.1-0.1-0.1C82.1,27.7,83.4,27,84.8,26.7z"/>
	<path class="st80" d="M55.3,20.7c0,0.1,0,0.2,0,0.4c-0.2-0.1-0.3-0.2-0.5-0.4c0.2-2-0.3-4.1,0.3-6.1C55.2,16.7,55.2,18.7,55.3,20.7
		z"/>
	<path class="st131" d="M68.5,14.2c0.8,0.5,1.3,0.7,0.6,1.9c-0.7,1,0.2,2.7-1.2,3.7c-0.6,0.5-1.2,0.8-2,0.8c-2.5,0-5.1-0.1-7.6,0
		c-1.4,0-1.9-0.7-1.9-1.9c0-1.4,0-2.8,0-4.2c0.3-0.3,0.5-0.5,0.8-0.8c1.8,0.8,3.7,0.3,5.6,0.3C64.6,14.1,66.6,13.9,68.5,14.2z"/>
	<path class="st161" d="M68.5,14.2c-3.3-0.3-6.5,0.5-9.8,0.4c-0.6,0-1.5,0.3-1.7-0.8c3.8,0,7.6,0,11.4,0
		C68.5,14,68.5,14.1,68.5,14.2z"/>
	<path class="st162" d="M107.4,36.3c-2.3-0.4-4.5-1.1-6.9-1.1c-1.4,0.2-2.8,0.2-4.2,0c-2.2,0.1-4.4,0-5.7,2.3c0.1,1.1,0,2.2,0.7,3.2
		c0.8,0.9,1.9,1,2.9,1.5c0.7,0.3,1.5,0.5,2.3,0.8c1.2,0.5,2.6,0.4,3.7,1.3c0.3,0.5,0,0.7-0.4,0.9c-1.3,0.4-2.2-0.8-3.4-0.8
		c-2,1-3.6-0.3-5.3-0.8c-1-1.6-1.9-3.2-2.1-5.4c-0.2-2.5,1.7-2.6,2.7-3.7c0.3-0.3,0.4-0.4-0.3-0.8c3.8,0,7.4-0.3,10.9,0.1
		c1.3,0.2,2.7,0.6,4.1,0.6c0.8-0.5,1.2,0.2,1.6,0.7C108.1,35.7,108,36.1,107.4,36.3z"/>
	<path class="st163" d="M96.4,74.1c-3.3,0-6.6,0-9.9,0c-0.1-1.1,0.3-1.6,1.5-1.5c3.4,0.1,6.8,0,10.5,0C97.7,73.2,97,73.6,96.4,74.1z
		"/>
	<path class="st133" d="M86.8,66.5c1.4-1.3,3.2-1.3,4.9-1.1c0.7,0.1,1.6,0.2,2.3,0.3c0.5,0.1,1,0.2,1.5,0.4c0.6,0.2,1.5,0.1,1.3,0.9
		c-0.2,0.7-1.1,1.3-1.8,0.9C92.4,66.4,89.3,68.1,86.8,66.5z"/>
	<path class="st164" d="M107.8,35.2c-0.5-0.3-1-0.5-1.5-0.8c0-0.4-0.9-0.7-0.6-0.7c0.9,0,0.1-1.9,1.6-1.2c1.6,0.8,2.1,0.3,2.1-1.5
		c0-1.4,0-2.9,0-4.3c0.3,0,0.5,0,0.8,0c0.2-0.1,0.4-0.1,0.6,0.2c0.2,2-0.2,4.1-0.2,6.1C110.4,35.7,109.9,36,107.8,35.2z"/>
	<path class="st165" d="M81.1,48.9c-1.9-0.4-2.8-1.8-3.4-3.4c1.6-0.6,4.1,1.1,4.2,2.7C81.9,48.7,81.5,48.9,81.1,48.9z"/>
	<path class="st166" d="M99.8,45.1c0.1-0.2,0.3-0.4,0.4-0.7c1.9-0.7,3.3,0.5,4.9,1.1c0.9,0.9,2.1,1.5,2.7,2.7
		c-1.6,0.2-2.9-1.5-4.6-0.8C102.9,45.4,101.5,45.1,99.8,45.1z"/>
	<path class="st167" d="M91,43.6c1.9-0.4,3.5,1.1,5.3,0.8c-0.1,0.9-0.8,0.7-1.4,0.8c-1.3,0.1-2.5-0.7-3.8-0.1
		c-0.3,0.1-0.6-0.1-0.7-0.4C90.2,44,90.4,43.7,91,43.6z"/>
	<path class="st168" d="M90.3,26c0.3,0,0.5,0,0.8,0c0.9,0.1,1.9-0.2,3.3,0.4C92.6,27,91.4,26.5,90.3,26z"/>
	<path class="st151" d="M82.6,28.3c0.7-0.5,1.3-1.2,2.3-0.8c0,0.7,0.2,1.6-1,0.8C83.6,28.2,83.1,28.3,82.6,28.3z"/>
	<path class="st151" d="M81.1,28.7c0.5-0.1,1-0.3,1.5-0.4c0.6,0.9-0.7,0.7-0.8,1.1C81.4,29.5,81.1,29.2,81.1,28.7z"/>
	<path class="st136" d="M107.8,48.2c-0.9-0.7-2-1.2-2.7-2.2c0.4-0.5,0.8-0.2,1.3-0.1c0.4,0.2,0.8,0.4,1,0.9c0.5,0.6,1.5,0.7,1.9,1.5
		C108.8,48.2,108.3,48.2,107.8,48.2z"/>
	<path class="st169" d="M107.4,46.7c-0.4-0.2-0.7-0.4-1.1-0.5c-0.3-0.4-0.3-0.7,0-1.1c0.6,0.3,1.3,0.5,1.9,0.8
		C107.9,46.2,107.7,46.4,107.4,46.7z"/>
	<path class="st92" d="M112.4,48.9c0-0.5,0.3-0.7,0.8-0.8c0,0.5,0,1,0,1.5C112.6,49.7,112.4,49.4,112.4,48.9z"/>
	<path class="st131" d="M60.5,26.1c0.2,0,0.5,0,0.7,0c1.9,0.7,3.9,0.2,5.8,0.3c0.9,0.1,1.8-0.3,2.6,0.4c0,15.2,0,30.5,0,45.7
		c-4.5,1.2-9,0.9-13.3,0.5c0-9.1,0-18.1,0-27.2c1.5,0.7,0.4,2,0.8,2.9c-0.3-6.2-0.3-12.4,0-18.5c-0.5,1,0.8,2.5-0.8,3.4
		c0-1.8,0-3.6,0-5.3c0-0.9,0.2-1.6,0.8-2.2c0.1,0,0.2,0,0.4,0C58.5,26.3,59.5,26.3,60.5,26.1z"/>
	<path class="st170" d="M56.3,33.7c0.8-1.2,0.2-2.5,0.4-3.7c0.1-0.7,0-1.4,0-2.2c0.2,0,0.4,0,0.5,0c0,7.7,0,15.4,0,23.5
		c-1.2-1.9,0.1-3.9-0.9-5.4C56.3,41.8,56.3,37.7,56.3,33.7z"/>
	<path class="st140" d="M69.6,26.8c-2.3,0-4.6,0-6.8,0c-0.6,0-1.3,0.2-1.5-0.7c2.8,0,5.6,0,8.4,0C69.6,26.3,69.6,26.6,69.6,26.8z"/>
	<path class="st171" d="M69.7,25.7c-4.7,0-9.4,0-14.1,0c0.3-0.4,0.8-0.4,1.2-0.4c3.9,0,7.8,0,11.7,0C68.9,25.3,69.4,25.2,69.7,25.7z
		"/>
	<path class="st140" d="M60.5,26.1c-1,0.5-2,0.5-3.1,0C58.5,26.1,59.5,26.1,60.5,26.1z"/>
	<path class="st131" d="M110.1,32.9c0.1-2-0.3-4.1,0.4-6.1c1.2,0.1,0.7,1.3,1.2,1.9c0,0.4-0.1,0.8-0.1,1.1c-0.7,0.9-0.8,2-0.7,3.1
		C110.6,33.1,110.4,33.1,110.1,32.9z"/>
	<path class="st158" d="M111.7,28.7c-1.3-0.1-0.4-1.5-1.2-1.9c-0.1,0-0.3,0-0.4,0c0-0.1,0-0.3,0-0.4C111.7,26.5,112.5,27,111.7,28.7
		z"/>
	<path class="st99" d="M91.8,38.2c1.2-1.2,2.4-2.5,4.4-2.3c1.3,0.1,2.7,0.1,4,0c1.1-0.1,2.1,0.3,3,0.8c0,0.5,0,1,0,1.5
		c-2,0.8-4.1,0.2-6.1,0.4c-1.3,0.1-2.5,0.2-2.8,1.8c-0.2,0.3-0.5,0.3-0.8,0.3c-0.6-0.3-1.4-0.5-1.9-1C91.3,39.2,91.4,38.7,91.8,38.2
		z"/>
	<path class="st172" d="M94.1,40.5c-0.2-2.3-0.2-2.3,2.1-2.3c2.3,0,4.7,0,7,0c-0.1,0.7-0.5,0.8-1.1,0.8c-1.7,0-3.4,0-5,0.1
		c-0.2,0-0.5,0.1-0.6,0.3c-0.2,0.3-0.2,0.8,0.1,1c0.7,0.7,1.3,1.6,2.5,1.8c-0.4,0.4-1,0.1-1.2,0.6c-0.2,0.2-0.5,0.3-0.8,0.2
		c-0.8-0.3-1.7-0.6-2.6-0.7c-0.5-0.2-0.8-0.5-0.9-0.9C93.5,41,93.8,40.7,94.1,40.5z"/>
	<path class="st173" d="M97.1,42.8c0.3,0,0.5,0,0.8,0c0.3,0,0.5,0,0.8,0c0.5,0.5,1.1,0.3,1.7,0.4c0.4,0,0.7,0.1,1,0.4
		c1.7,0.3,3.2,1.4,5,1.5c0,0.4,0,0.7,0,1.1c-0.4-0.1-0.8-0.2-1.2-0.2c-1.6-0.8-3.2-1.2-5-1.5c-1.3-0.4-2.6-0.8-3.8-1.2
		C96.5,42.9,96.7,42.6,97.1,42.8z"/>
	<path class="st174" d="M100.2,43.6c-0.6-0.1-1.4,0.3-1.5-0.8c0.5,0,1,0,1.5,0c0.3-0.2,0.6-0.3,0.7,0.1
		C101,43.4,100.4,43.3,100.2,43.6z"/>
	<path class="st175" d="M100.2,43.6c-0.2-0.3,1.3-0.5,0-0.8c0.5-0.6,1-0.3,1.4,0c0.5,0.4-0.3,0.5-0.3,0.8
		C100.9,43.6,100.6,43.6,100.2,43.6z"/>
	<path class="st176" d="M110.1,32.9c0.3,0,0.5,0,0.8,0c0.3,1.8-0.3,3.1-2,3.9c-0.5,0-1-0.1-1.4-0.5c0.1-0.4,0.2-0.7,0.4-1.1
		C109.7,35.5,110.4,34.8,110.1,32.9z"/>
	<path class="st177" d="M91.8,38.2c0,0.5,0,1,0,1.5c0.2,0.2,0.2,0.4,0.2,0.6c0,0.1-0.1,0.3-0.2,0.4c-0.2,0.2-0.5,0.4-0.8,0.2
		c-1.1-1.1-1-2.2-0.3-3.5C90.9,38,91.2,38.2,91.8,38.2z"/>
	<path class="st178" d="M96.4,35.2c1.4,0,2.8,0,4.2,0C99.2,35.8,97.8,35.8,96.4,35.2z"/>
	<path class="st179" d="M91,40.9c0.3-0.1,0.5-0.3,0.8-0.4c0.7,0,1.4,0.3,1.9,0.8c0.3,0.3,0.5,0.5,0.8,0.8c0.1,0.4,0,0.6-0.5,0.4
		C92.9,42.1,91.7,42,91,40.9z"/>
	<path class="st174" d="M94,42.5c0.2-0.1,0.3-0.3,0.5-0.4c1,0,2-0.1,2.7,0.8c-0.3,0.1-0.5,0.3-0.8,0.4C95.5,43.1,94.7,42.9,94,42.5z
		"/>
	<path class="st177" d="M93.7,41.3c-0.7,0-1.4-0.2-1.9-0.8c0,0,0,0,0,0c0.5-0.4,1-0.4,1.5,0c0.3,0,0.5,0,0.8,0
		C94,40.8,93.8,41,93.7,41.3z"/>
	<path class="st172" d="M93.3,40.5c-0.5,0-1,0-1.5,0c0-0.3,0-0.5,0-0.8C92.4,39.8,93.2,39.5,93.3,40.5z"/>
	<g>
		<path class="st5" d="M48.4,99.4v6.6h-0.5v-6.6H48.4z"/>
		<path class="st5" d="M50,106v-6.6h0.4l2.6,3.9c0.5,0.8,0.9,1.4,1.2,2.1l0,0c-0.1-0.9-0.1-1.6-0.1-2.7v-3.3h0.4v6.6h-0.4l-2.5-3.8
			c-0.5-0.8-0.9-1.4-1.3-2.1l0,0c0,0.8,0.1,1.5,0.1,2.6v3.3H50z"/>
		<path class="st5" d="M56,105.2c0.4,0.3,0.9,0.4,1.4,0.4c1,0,1.6-0.6,1.6-1.4c0-0.7-0.4-1.2-1.3-1.5c-1.1-0.4-1.7-0.9-1.7-1.8
			c0-1,0.8-1.7,1.9-1.7c0.6,0,1.1,0.2,1.3,0.3L59,100c-0.2-0.1-0.6-0.3-1.2-0.3c-1.1,0-1.4,0.7-1.4,1.2c0,0.7,0.4,1.1,1.4,1.5
			c1.1,0.4,1.7,0.9,1.7,1.9c0,1-0.7,1.8-2.1,1.8c-0.6,0-1.2-0.2-1.6-0.4L56,105.2z"/>
		<path class="st5" d="M61.9,99.8h-2.1v-0.4h4.8v0.4h-2.1v6.2h-0.5V99.8z"/>
		<path class="st5" d="M65.7,99.4v6.6h-0.5v-6.6H65.7z"/>
		<path class="st5" d="M68.5,99.8h-2.1v-0.4h4.8v0.4H69v6.2h-0.5V99.8z"/>
		<path class="st5" d="M72.3,99.4v4c0,1.7,0.8,2.3,1.7,2.3c1.1,0,1.8-0.7,1.8-2.3v-4h0.5v3.9c0,2-1.1,2.8-2.3,2.8
			c-1.2,0-2.2-0.7-2.2-2.7v-4H72.3z"/>
		<path class="st5" d="M79.2,99.8H77v-0.4h4.8v0.4h-2.1v6.2h-0.5V99.8z"/>
		<path class="st5" d="M84.4,105.2c0.4,0.3,0.9,0.4,1.4,0.4c1,0,1.6-0.6,1.6-1.4c0-0.7-0.4-1.2-1.3-1.5c-1.1-0.4-1.7-0.9-1.7-1.8
			c0-1,0.8-1.7,1.9-1.7c0.6,0,1.1,0.2,1.3,0.3l-0.2,0.4c-0.2-0.1-0.6-0.3-1.2-0.3c-1.1,0-1.4,0.7-1.4,1.2c0,0.7,0.4,1.1,1.4,1.5
			c1.1,0.4,1.7,0.9,1.7,1.9c0,1-0.7,1.8-2.1,1.8c-0.6,0-1.2-0.2-1.6-0.4L84.4,105.2z"/>
		<path class="st5" d="M89.6,99.4v4c0,1.7,0.8,2.3,1.7,2.3c1.1,0,1.8-0.7,1.8-2.3v-4h0.5v3.9c0,2-1.1,2.8-2.3,2.8
			c-1.2,0-2.2-0.7-2.2-2.7v-4H89.6z"/>
		<path class="st5" d="M95.2,99.5c0.4-0.1,0.9-0.1,1.4-0.1c0.8,0,1.4,0.2,1.7,0.6c0.3,0.3,0.5,0.7,0.5,1.3c0,0.6-0.2,1-0.5,1.3
			c-0.4,0.5-1.1,0.7-1.9,0.7c-0.3,0-0.6,0-0.8-0.1v2.8h-0.5V99.5z M95.7,102.7c0.2,0.1,0.5,0.1,0.8,0.1c1.2,0,1.9-0.6,1.9-1.6
			c0-1-0.8-1.5-1.8-1.5c-0.4,0-0.8,0-0.9,0.1V102.7z"/>
		<path class="st5" d="M103.2,102.7h-2.6v2.9h2.9v0.4h-3.4v-6.6h3.2v0.4h-2.8v2.5h2.6V102.7z M103.1,97.9l-1.3,1.1h-0.4l1-1.1H103.1
			z"/>
		<path class="st5" d="M104.7,99.5c0.4-0.1,1-0.1,1.4-0.1c0.9,0,1.4,0.2,1.8,0.5c0.3,0.3,0.5,0.7,0.5,1.2c0,0.9-0.5,1.5-1.3,1.7v0
			c0.5,0.2,0.9,0.7,1,1.4c0.2,1,0.4,1.5,0.5,1.8h-0.5c-0.1-0.2-0.2-0.8-0.4-1.6c-0.2-0.9-0.6-1.4-1.5-1.4h-1v3h-0.5V99.5z
			 M105.1,102.6h1c1,0,1.7-0.6,1.7-1.4c0-1-0.7-1.4-1.8-1.4c-0.4,0-0.8,0-0.9,0.1V102.6z"/>
		<path class="st5" d="M110.1,99.4v6.6h-0.5v-6.6H110.1z"/>
		<path class="st5" d="M114.7,102.7h-2.6v2.9h2.9v0.4h-3.4v-6.6h3.2v0.4h-2.8v2.5h2.6V102.7z"/>
		<path class="st5" d="M116.7,99.4v4c0,1.7,0.8,2.3,1.7,2.3c1.1,0,1.8-0.7,1.8-2.3v-4h0.5v3.9c0,2-1.1,2.8-2.3,2.8
			c-1.2,0-2.2-0.7-2.2-2.7v-4H116.7z"/>
		<path class="st5" d="M122.3,99.5c0.4-0.1,1-0.1,1.4-0.1c0.9,0,1.4,0.2,1.8,0.5c0.3,0.3,0.5,0.7,0.5,1.2c0,0.9-0.5,1.5-1.3,1.7v0
			c0.5,0.2,0.9,0.7,1,1.4c0.2,1,0.4,1.5,0.5,1.8h-0.5c-0.1-0.2-0.2-0.8-0.4-1.6c-0.2-0.9-0.6-1.4-1.5-1.4h-1v3h-0.5V99.5z
			 M122.8,102.6h1c1,0,1.7-0.6,1.7-1.4c0-1-0.7-1.4-1.8-1.4c-0.4,0-0.8,0-0.9,0.1V102.6z"/>
		<path class="st5" d="M129.3,99.5c0.5-0.1,1.1-0.1,1.7-0.1c1.2,0,2.1,0.3,2.7,0.9c0.5,0.5,0.8,1.3,0.8,2.3c0,1-0.3,1.8-0.9,2.5
			c-0.6,0.6-1.6,1-2.8,1c-0.5,0-1,0-1.5,0V99.5z M129.8,105.6c0.3,0,0.6,0,1.1,0c2.1,0,3.1-1.2,3.1-3.1c0-1.7-0.9-2.8-3-2.8
			c-0.5,0-0.9,0-1.2,0.1V105.6z"/>
		<path class="st5" d="M138.7,102.7h-2.6v2.9h2.9v0.4h-3.4v-6.6h3.2v0.4h-2.8v2.5h2.6V102.7z"/>
		<path class="st5" d="M140,105.2c0.4,0.3,0.9,0.4,1.4,0.4c1,0,1.6-0.6,1.6-1.4c0-0.7-0.4-1.2-1.3-1.5c-1.1-0.4-1.7-0.9-1.7-1.8
			c0-1,0.8-1.7,1.9-1.7c0.6,0,1.1,0.2,1.3,0.3L143,100c-0.2-0.1-0.6-0.3-1.2-0.3c-1.1,0-1.4,0.7-1.4,1.2c0,0.7,0.4,1.1,1.4,1.5
			c1.1,0.4,1.7,0.9,1.7,1.9c0,1-0.7,1.8-2.1,1.8c-0.6,0-1.2-0.2-1.6-0.4L140,105.2z"/>
		<path class="st5" d="M146.7,105.2c0.4,0.3,0.9,0.4,1.4,0.4c1,0,1.6-0.6,1.6-1.4c0-0.7-0.4-1.2-1.3-1.5c-1.1-0.4-1.7-0.9-1.7-1.8
			c0-1,0.8-1.7,1.9-1.7c0.6,0,1.1,0.2,1.3,0.3l-0.2,0.4c-0.2-0.1-0.6-0.3-1.2-0.3c-1.1,0-1.4,0.7-1.4,1.2c0,0.7,0.4,1.1,1.4,1.5
			c1.1,0.4,1.7,0.9,1.7,1.9c0,1-0.7,1.8-2.1,1.8c-0.6,0-1.2-0.2-1.6-0.4L146.7,105.2z"/>
		<path class="st5" d="M155.8,105.7c-0.3,0.2-1,0.3-1.8,0.3c-1.6,0-3.1-1-3.1-3.3c0-2,1.3-3.4,3.3-3.4c0.8,0,1.3,0.2,1.5,0.3
			l-0.1,0.4c-0.3-0.2-0.8-0.3-1.4-0.3c-1.8,0-2.9,1.2-2.9,3c0,1.8,1,2.9,2.8,2.9c0.6,0,1.1-0.1,1.5-0.3L155.8,105.7z"/>
		<path class="st5" d="M157.4,99.4v6.6h-0.5v-6.6H157.4z"/>
		<path class="st5" d="M162.1,102.7h-2.6v2.9h2.9v0.4H159v-6.6h3.2v0.4h-2.8v2.5h2.6V102.7z"/>
		<path class="st5" d="M163.5,106v-6.6h0.4l2.6,3.9c0.5,0.8,0.9,1.4,1.2,2.1l0,0c-0.1-0.9-0.1-1.6-0.1-2.7v-3.3h0.4v6.6h-0.4
			l-2.5-3.8c-0.5-0.8-0.9-1.4-1.3-2.1l0,0c0,0.8,0.1,1.5,0.1,2.6v3.3H163.5z"/>
		<path class="st5" d="M174.2,105.7c-0.3,0.2-1,0.3-1.8,0.3c-1.6,0-3.1-1-3.1-3.3c0-2,1.3-3.4,3.3-3.4c0.8,0,1.3,0.2,1.5,0.3
			L174,100c-0.3-0.2-0.8-0.3-1.4-0.3c-1.8,0-2.9,1.2-2.9,3c0,1.8,1,2.9,2.8,2.9c0.6,0,1.1-0.1,1.5-0.3L174.2,105.7z"/>
		<path class="st5" d="M178.4,102.7h-2.6v2.9h2.9v0.4h-3.4v-6.6h3.2v0.4h-2.8v2.5h2.6V102.7z"/>
		<path class="st5" d="M179.7,105.2c0.4,0.3,0.9,0.4,1.4,0.4c1,0,1.6-0.6,1.6-1.4c0-0.7-0.4-1.2-1.3-1.5c-1.1-0.4-1.7-0.9-1.7-1.8
			c0-1,0.8-1.7,1.9-1.7c0.6,0,1.1,0.2,1.3,0.3l-0.2,0.4c-0.2-0.1-0.6-0.3-1.2-0.3c-1.1,0-1.4,0.7-1.4,1.2c0,0.7,0.4,1.1,1.4,1.5
			c1.1,0.4,1.7,0.9,1.7,1.9c0,1-0.7,1.8-2.1,1.8c-0.6,0-1.2-0.2-1.6-0.4L179.7,105.2z"/>
		<path class="st5" d="M187.3,103.7l-0.8,2.3H186l2.4-6.6h0.4l2.4,6.6h-0.5l-0.8-2.3H187.3z M189.8,103.3l-0.8-2.2
			c-0.2-0.5-0.2-0.8-0.3-1.2h0c-0.1,0.4-0.2,0.7-0.3,1.1l-0.8,2.2H189.8z"/>
		<path class="st5" d="M192.2,99.5c0.4-0.1,0.9-0.1,1.4-0.1c0.8,0,1.4,0.2,1.7,0.6c0.3,0.3,0.5,0.7,0.5,1.3c0,0.6-0.2,1-0.5,1.3
			c-0.4,0.5-1.1,0.7-1.9,0.7c-0.3,0-0.6,0-0.8-0.1v2.8h-0.5V99.5z M192.7,102.7c0.2,0.1,0.5,0.1,0.8,0.1c1.2,0,1.9-0.6,1.9-1.6
			c0-1-0.8-1.5-1.8-1.5c-0.4,0-0.8,0-0.9,0.1V102.7z"/>
		<path class="st5" d="M197.1,99.5c0.4-0.1,0.9-0.1,1.4-0.1c0.8,0,1.4,0.2,1.7,0.6c0.3,0.3,0.5,0.7,0.5,1.3c0,0.6-0.2,1-0.5,1.3
			c-0.4,0.5-1.1,0.7-1.9,0.7c-0.3,0-0.6,0-0.8-0.1v2.8h-0.5V99.5z M197.6,102.7c0.2,0.1,0.5,0.1,0.8,0.1c1.2,0,1.9-0.6,1.9-1.6
			c0-1-0.8-1.5-1.8-1.5c-0.4,0-0.8,0-0.9,0.1V102.7z"/>
		<path class="st5" d="M202,99.4h0.5v6.2h2.9v0.4H202V99.4z"/>
		<path class="st5" d="M206.9,99.4v6.6h-0.5v-6.6H206.9z"/>
		<path class="st5" d="M213.8,106.8c-0.9-0.2-1.8-0.5-2.5-0.7c-0.1,0-0.3-0.1-0.4-0.1c-1.6,0-2.9-1.2-2.9-3.3c0-2.2,1.3-3.5,3-3.5
			c1.6,0,2.9,1.3,2.9,3.3c0,1.8-0.8,2.9-2.1,3.3v0c0.7,0.2,1.6,0.4,2.1,0.4L213.8,106.8z M210.9,105.7c1.6,0,2.4-1.4,2.4-3
			c0-1.4-0.8-3-2.4-3c-1.7,0-2.5,1.5-2.5,3.1C208.5,104.2,209.4,105.7,210.9,105.7L210.9,105.7z"/>
		<path class="st5" d="M215.4,99.4v4c0,1.7,0.8,2.3,1.7,2.3c1.1,0,1.8-0.7,1.8-2.3v-4h0.5v3.9c0,2-1.1,2.8-2.3,2.8
			c-1.2,0-2.2-0.7-2.2-2.7v-4H215.4z"/>
		<path class="st5" d="M224.2,102.7h-2.6v2.9h2.9v0.4h-3.4v-6.6h3.2v0.4h-2.8v2.5h2.6V102.7z M224,97.9l-1.3,1.1h-0.4l1-1.1H224z"/>
		<path class="st5" d="M228.7,102.7h-2.6v2.9h2.9v0.4h-3.4v-6.6h3.2v0.4h-2.8v2.5h2.6V102.7z"/>
		<path class="st5" d="M230,105.2c0.4,0.3,0.9,0.4,1.4,0.4c1,0,1.6-0.6,1.6-1.4c0-0.7-0.4-1.2-1.3-1.5c-1.1-0.4-1.7-0.9-1.7-1.8
			c0-1,0.8-1.7,1.9-1.7c0.6,0,1.1,0.2,1.3,0.3L233,100c-0.2-0.1-0.6-0.3-1.2-0.3c-1.1,0-1.4,0.7-1.4,1.2c0,0.7,0.4,1.1,1.4,1.5
			c1.1,0.4,1.7,0.9,1.7,1.9c0,1-0.7,1.8-2.1,1.8c-0.6,0-1.2-0.2-1.6-0.4L230,105.2z"/>
	</g>
	<g>
		<g>
			<path class="st5" d="M50.8,113.7h-2.7v2.9h3v0.4h-3.5v-6.7H51v0.4h-2.8v2.6h2.7V113.7z"/>
			<path class="st5" d="M53.8,110.7h-2.2v-0.4h4.8v0.4h-2.2v6.3h-0.5V110.7z"/>
			<path class="st5" d="M59.2,110.4c0.5-0.1,1.1-0.1,1.7-0.1c1.2,0,2.1,0.3,2.7,0.9c0.5,0.6,0.8,1.3,0.8,2.3c0,1-0.3,1.9-0.9,2.5
				c-0.6,0.6-1.6,1-2.9,1c-0.5,0-1,0-1.5,0V110.4z M59.7,116.6c0.3,0,0.7,0,1.1,0c2.1,0,3.2-1.2,3.2-3.1c0-1.7-0.9-2.8-3.1-2.8
				c-0.5,0-0.9,0-1.2,0.1V116.6z"/>
			<path class="st5" d="M68.8,113.7h-2.7v2.9h3v0.4h-3.5v-6.7h3.3v0.4h-2.8v2.6h2.7V113.7z"/>
			<path class="st5" d="M73.3,110.7h-2.2v-0.4h4.8v0.4h-2.2v6.3h-0.5V110.7z"/>
			<path class="st5" d="M79.7,113.7h-2.7v2.9h3v0.4h-3.5v-6.7h3.3v0.4h-2.8v2.6h2.7V113.7z"/>
			<path class="st5" d="M85.7,116.7c-0.3,0.2-1,0.3-1.8,0.3c-1.6,0-3.2-1-3.2-3.4c0-2,1.3-3.5,3.4-3.5c0.9,0,1.3,0.2,1.5,0.3
				l-0.1,0.4c-0.3-0.2-0.8-0.3-1.4-0.3c-1.8,0-2.9,1.2-2.9,3.1c0,1.8,1,3,2.8,3c0.6,0,1.1-0.1,1.5-0.3L85.7,116.7z"/>
			<path class="st5" d="M87.3,110.3v2.9H91v-2.9h0.5v6.7H91v-3.3h-3.7v3.3h-0.5v-6.7H87.3z"/>
			<path class="st5" d="M93.1,117v-6.7h0.4l2.6,3.9c0.5,0.8,0.9,1.5,1.3,2.1l0,0c-0.1-0.9-0.1-1.7-0.1-2.7v-3.3h0.5v6.7h-0.4
				l-2.5-3.9c-0.5-0.8-0.9-1.5-1.3-2.2l0,0c0,0.8,0.1,1.5,0.1,2.6v3.4H93.1z"/>
			<path class="st5" d="M101.8,117.1c-1.6,0-2.9-1.3-2.9-3.4c0-2.2,1.3-3.5,3-3.5c1.7,0,2.9,1.3,2.9,3.4
				C104.8,115.9,103.4,117.1,101.8,117.1L101.8,117.1z M101.9,116.7c1.6,0,2.5-1.4,2.5-3.1c0-1.4-0.8-3-2.4-3
				c-1.7,0-2.5,1.5-2.5,3.1C99.4,115.2,100.3,116.7,101.9,116.7L101.9,116.7z"/>
			<path class="st5" d="M106,110.3h0.5v6.3h3v0.4H106V110.3z"/>
			<path class="st5" d="M112.5,117.1c-1.6,0-2.9-1.3-2.9-3.4c0-2.2,1.3-3.5,3-3.5c1.7,0,2.9,1.3,2.9,3.4
				C115.5,115.9,114,117.1,112.5,117.1L112.5,117.1z M112.5,116.7c1.6,0,2.5-1.4,2.5-3.1c0-1.4-0.8-3-2.4-3c-1.7,0-2.5,1.5-2.5,3.1
				C110.1,115.2,111,116.7,112.5,116.7L112.5,116.7z"/>
			<path class="st5" d="M121.4,116.7c-0.3,0.1-1,0.4-1.9,0.4c-0.9,0-1.7-0.2-2.4-0.9c-0.6-0.5-0.9-1.4-0.9-2.5
				c0-1.8,1.2-3.4,3.5-3.4c0.7,0,1.3,0.2,1.6,0.3l-0.2,0.4c-0.3-0.2-0.8-0.3-1.4-0.3c-1.8,0-3,1.2-3,3c0,1.9,1.1,3,2.9,3
				c0.7,0,1.1-0.1,1.4-0.2v-2.4h-1.5v-0.4h2V116.7z"/>
			<path class="st5" d="M123.3,110.3v6.7h-0.5v-6.7H123.3z"/>
			<path class="st5" d="M128,113.7h-2.7v2.9h3v0.4h-3.5v-6.7h3.3v0.4h-2.8v2.6h2.7V113.7z"/>
			<path class="st5" d="M131.7,110.4c0.5-0.1,1.1-0.1,1.7-0.1c1.2,0,2.1,0.3,2.7,0.9c0.5,0.6,0.8,1.3,0.8,2.3c0,1-0.3,1.9-0.9,2.5
				c-0.6,0.6-1.6,1-2.9,1c-0.5,0-1,0-1.5,0V110.4z M132.1,116.6c0.3,0,0.7,0,1.1,0c2.1,0,3.2-1.2,3.2-3.1c0-1.7-0.9-2.8-3.1-2.8
				c-0.5,0-0.9,0-1.2,0.1V116.6z"/>
			<path class="st5" d="M141.2,113.7h-2.7v2.9h3v0.4h-3.5v-6.7h3.3v0.4h-2.8v2.6h2.7V113.7z"/>
			<path class="st5" d="M144.6,116.2c0.4,0.3,0.9,0.4,1.5,0.4c1,0,1.6-0.6,1.6-1.4c0-0.7-0.4-1.2-1.4-1.6c-1.1-0.4-1.7-0.9-1.7-1.8
				c0-1,0.8-1.7,1.9-1.7c0.6,0,1.1,0.2,1.3,0.3l-0.2,0.4c-0.2-0.1-0.6-0.3-1.2-0.3c-1.1,0-1.4,0.7-1.4,1.2c0,0.7,0.4,1.1,1.4,1.5
				c1.1,0.4,1.7,0.9,1.7,1.9c0,1-0.7,1.8-2.1,1.8c-0.6,0-1.2-0.2-1.6-0.4L144.6,116.2z"/>
			<path class="st5" d="M151.9,117.1c-1.6,0-2.9-1.3-2.9-3.4c0-2.2,1.3-3.5,3-3.5c1.7,0,2.9,1.3,2.9,3.4
				C154.9,115.9,153.4,117.1,151.9,117.1L151.9,117.1z M151.9,116.7c1.6,0,2.5-1.4,2.5-3.1c0-1.4-0.8-3-2.4-3
				c-1.7,0-2.5,1.5-2.5,3.1C149.5,115.2,150.3,116.7,151.9,116.7L151.9,116.7z"/>
			<path class="st5" d="M156.5,110.3v4c0,1.7,0.8,2.4,1.8,2.4c1.1,0,1.9-0.7,1.9-2.4v-4h0.5v4c0,2-1.1,2.8-2.4,2.8
				c-1.2,0-2.2-0.7-2.2-2.7v-4.1H156.5z"/>
			<path class="st5" d="M162,116.2c0.4,0.3,0.9,0.4,1.5,0.4c1,0,1.6-0.6,1.6-1.4c0-0.7-0.4-1.2-1.4-1.6c-1.1-0.4-1.7-0.9-1.7-1.8
				c0-1,0.8-1.7,1.9-1.7c0.6,0,1.1,0.2,1.3,0.3l-0.2,0.4c-0.2-0.1-0.6-0.3-1.2-0.3c-1.1,0-1.4,0.7-1.4,1.2c0,0.7,0.4,1.1,1.4,1.5
				c1.1,0.4,1.7,0.9,1.7,1.9c0,1-0.7,1.8-2.1,1.8c-0.6,0-1.2-0.2-1.6-0.4L162,116.2z"/>
			<path class="st5" d="M166.6,116.2c0.4,0.3,0.9,0.4,1.5,0.4c1,0,1.6-0.6,1.6-1.4c0-0.7-0.4-1.2-1.4-1.6c-1.1-0.4-1.7-0.9-1.7-1.8
				c0-1,0.8-1.7,1.9-1.7c0.6,0,1.1,0.2,1.3,0.3l-0.2,0.4c-0.2-0.1-0.6-0.3-1.2-0.3c-1.1,0-1.4,0.7-1.4,1.2c0,0.7,0.4,1.1,1.4,1.5
				c1.1,0.4,1.7,0.9,1.7,1.9c0,1-0.7,1.8-2.1,1.8c-0.6,0-1.2-0.2-1.6-0.4L166.6,116.2z"/>
			<path class="st5" d="M174.5,113.7h-2.7v2.9h3v0.4h-3.5v-6.7h3.3v0.4h-2.8v2.6h2.7V113.7z"/>
		</g>
	</g>
</g>
</svg>
