<?xml version="1.0" encoding="utf-8"?>
<!-- Generator: Adobe Illustrator 26.0.3, SVG Export Plug-In . SVG Version: 6.00 Build 0)  -->
<svg version="1.1" id="Calque_1" xmlns="http://www.w3.org/2000/svg" xmlns:xlink="http://www.w3.org/1999/xlink" x="0px" y="0px"
	 viewBox="0 0 248.7 123.9" style="enable-background:new 0 0 248.7 123.9;" xml:space="preserve">
<style type="text/css">
	.st0{font-family:'MyriadPro-Regular';}
	.st1{font-size:9.203px;}
	.st2{fill:#CBCDCE;}
	.st3{fill:#FF3320;}
</style>
<g>
	<text transform="matrix(1 0 0 1 99.7837 93.152)"><tspan x="0" y="0" class="st0 st1">Ecole Supérieure Privée</tspan><tspan x="0" y="9.1" class="st0 st1">D’Ingénierie et de Technologies</tspan></text>
	<path d="M29.7,52.4c0,5.9,3.3,11,9.8,11c5.7,0,7.4-2.3,8.6-4.8h10.6C57.1,63.5,52.4,71,39.2,71C25,71,19,61.2,19,51
		c0-12.1,6.9-21.1,20.7-21.1c14.7,0,19.6,9.9,19.6,19.2c0,1.3,0,2.2-0.1,3.3H29.7z M48.7,46.4c-0.1-5.2-2.6-9.5-9.1-9.5
		c-6.4,0-9.1,4-9.7,9.5H48.7z"/>
	<path d="M69.7,58.5c1,3.5,4.1,5.5,9.1,5.5c5.1,0,7.1-1.8,7.1-4.6c0-2.9-1.9-4.1-8.9-5.7c-13.7-3-16.1-6.8-16.1-12.3
		c0-5.7,4.6-11.6,17.1-11.6c12.6,0,17.2,6.3,17.6,11.7H85.5c-0.5-1.8-1.9-4.8-8-4.8c-4.7,0-6.2,1.9-6.2,4c0,2.3,1.5,3.4,8.9,5
		c14.2,3,16.4,7.3,16.4,13.1C96.7,65.4,91,71,78.5,71c-12.6,0-18.2-5.5-19.2-12.5H69.7z"/>
	<path d="M109.9,66.2v19.1h-9.4V40.3c0-3.2,0-6.4-0.1-9.5h9.2c0.2,1.1,0.3,3.5,0.3,5.3c1.8-3.2,5.5-6.2,11.9-6.2
		c8.9,0,15.7,7.5,15.7,19.6c0,13.9-7.6,21.6-17.1,21.6C114.5,71,111.5,68.7,109.9,66.2z M127.7,49.8c0-7.6-3.2-12.2-8.9-12.2
		c-6.8,0-9.4,4.4-9.4,12.8c0,8.1,2.2,12.9,8.9,12.9C124.6,63.4,127.7,58.4,127.7,49.8z"/>
	<path d="M140.9,41.5c0-4.4,0-7.8-0.1-10.7h9.3c0.1,1,0.3,4.6,0.3,7.3c1.8-4.8,6.2-8.1,12.8-8.2v9.2c-7.9-0.1-12.8,2.8-12.8,13.3
		v17.8h-9.5V41.5z"/>
	<path class="st2" d="M170.2,20.3h7.9v8.3h-7.9V20.3z M170.2,35.1h7.9v35h-7.9V35.1z"/>
	<path class="st2" d="M178.2,30.3h6.3v-11h9.5v11h8v6.3h-8v21.6c0,3.3,0.9,4.7,4.3,4.7c0.7,0,1.9,0,2.8-0.2v6.7
		c-2,0.7-4.7,0.7-6.8,0.7c-7.1,0-9.7-3.8-9.7-10.5v-23h-6.3V30.3z"/>
	<rect x="78" y="29.9" width="29.2" height="6.4"/>
	<rect x="118.9" y="29.9" width="29.2" height="6.4"/>
	<rect x="51.6" y="57.1" width="14.6" height="5"/>
	<rect x="163.2" y="30.3" class="st2" width="14.9" height="6.3"/>
	<polygon class="st3" points="229.7,31.4 204.8,22.7 204.8,40.1 	"/>
</g>
</svg>
