<?xml version="1.0" encoding="utf-8"?>
<!-- Generator: Adobe Illustrator 26.0.3, SVG Export Plug-In . SVG Version: 6.00 Build 0)  -->
<svg version="1.1" id="Calque_1" xmlns="http://www.w3.org/2000/svg" xmlns:xlink="http://www.w3.org/1999/xlink" x="0px" y="0px"
	 viewBox="0 0 323.4 179.2" style="enable-background:new 0 0 323.4 179.2;" xml:space="preserve">
<style type="text/css">
	.st0{fill:#FFFFFF;}
	.st1{font-family:'BauhausITCbyBT-Medium';}
	.st2{font-size:49.515px;}
	.st3{fill:none;stroke:#DBDADA;stroke-miterlimit:10;}
	.st4{fill-rule:evenodd;clip-rule:evenodd;fill:url(#SVGID_1_);}
</style>
<rect width="323.4" height="179.2"/>
<text transform="matrix(1 0 0 1 101.873 106.2168)" class="st0 st1 st2">Bestoplast</text>
<g>
	<path class="st0" d="M66.9,30.9c-1.2-0.2-2.5-0.3-3.6-0.3H27.6c-2.6,0-5,1.1-6.7,2.7c-1.7,1.7-2.7,4.1-2.7,6.7
		c0,5.2,4.2,9.4,9.4,9.4H28v46.7c0,0.1,0,0.2,0,0.3c0.1,2.5,1.1,4.7,2.7,6.4c1.5,1.5,3.5,2.5,5.7,2.7c0.3,0,0.6,0,1,0
		c0.4,0,0.7,0,1,0c4.7-0.5,8.3-4.3,8.4-9.1c0-0.1,0-0.2,0-0.3V83H64c11.8,0,21.3-9.5,21.3-21.3v-9.2C85.2,41.6,77.3,32.6,66.9,30.9z
		 M61.2,68.4H46.9V49.6h14.3c2.6,0,5,1.1,6.7,2.7c1.7,1.7,2.7,4,2.7,6.7C70.6,64.2,66.4,68.4,61.2,68.4z"/>
	<path class="st0" d="M26.4,122.1V143c-8.2-3.1-15.4-8.5-20.6-15.5c-1.1-1.5-2.2-3-3-4.7c-1.9-3.2-2.7-6.9-2.7-10.6
		c0-4.2,0.6-8.3,1.7-12.3c1.1-3.9,2.6-7.6,4.7-11c0.6-1,1.2-1.9,1.9-2.8c0.2-0.3,0.5-0.7,0.7-1c1.8-2.1,4.4-3.4,7.5-3.4
		c4,0,7.5,2.4,8.8,5.6c0.4,1,0.7,2.1,0.7,3.2c0,1.2-0.2,2.3-0.7,3.2v0.6c-0.3,0.4-0.7,0.8-1,1.2c-0.1,0.2-0.2,0.3-0.3,0.5
		c-0.4,0.5-0.7,0.9-1,1.4c-1.3,1.9-2.3,3.9-2.9,6.1c-0.7,2.2-1.1,4.4-1.1,6.8c0,2.1,0.6,4,1.8,5.9c0.6,0.9,1.2,1.8,1.9,2.6
		C23.7,119.7,25,120.9,26.4,122.1z"/>
	<path class="st0" d="M94.3,110.2c-0.3,1.8-0.5,3.4-0.8,5.1c-1,2.8-2.3,5.6-3.8,8.1c-7.6,12.8-21.3,21.6-37,22.3v-17.4
		c9.3-0.7,17.3-5.4,21.8-12.2c1-1.4,1.8-2.9,2.4-4.5c0.2-1,0.3-1.9,0.5-2.8c-0.2-5.2-2.3-10-5.5-13.9c-2.7-3.3-3.5-6.1-7.8-7.8l0,0
		c7.4,0,11.5-2.5,15.3-8.1c2.4,2.2,4.1,3.3,6,5.9C90.7,92.1,94,100.8,94.3,110.2z"/>
	<ellipse class="st3" cx="37.3" cy="96.8" rx="9.4" ry="8.8"/>
	<path class="st3" d="M25.9,90.4c0,1.2-0.2,2.3-0.7,3.2c-0.3,0.6-0.6,1.2-1,1.8c-0.1,0.2-0.2,0.3-0.3,0.5c-1.8,2.1-4.4,3.4-7.6,3.4
		c-5.2,0-9.4-3.9-9.4-8.8c0-1.6,0.5-3.1,1.3-4.4c0.2-0.3,0.5-0.7,0.7-1c1.8-2.1,4.4-3.4,7.5-3.4c4,0,7.5,2.4,8.8,5.6
		C25.6,88.2,25.9,89.3,25.9,90.4z"/>
	<g>
		
			<radialGradient id="SVGID_1_" cx="35.3401" cy="54.9045" r="21.0449" gradientTransform="matrix(1 0 0 -1 0 182)" gradientUnits="userSpaceOnUse">
			<stop  offset="0" style="stop-color:#9BC8D9"/>
			<stop  offset="1" style="stop-color:#56A1D1"/>
		</radialGradient>
		<path class="st4" d="M19.8,134.8c1.1-15.3,9.6-16.4,15.6-33.1c5.9,16.7,14.5,17.9,15.6,33.1C52.5,158.3,18.2,158.3,19.8,134.8z"/>
	</g>
</g>
</svg>
