<?xml version="1.0" encoding="utf-8"?>
<!-- Generator: Adobe Illustrator 26.0.3, SVG Export Plug-In . SVG Version: 6.00 Build 0)  -->
<svg version="1.1" id="Calque_1" xmlns="http://www.w3.org/2000/svg" xmlns:xlink="http://www.w3.org/1999/xlink" x="0px" y="0px"
	 viewBox="0 0 248.7 123.9" style="enable-background:new 0 0 248.7 123.9;" xml:space="preserve">
<style type="text/css">
	.st0{fill:#FF0000;}
</style>
<g>
	<g transform="translate(0.000000,444.000000) scale(0.100000,-0.100000)">
		<path d="M1149.9,4348.6c-36.2-62.6-112.3-192.1-165.2-280.7c-210.6-352.8-324.5-546-366.5-620.2c-0.5-1.3,219.6-2.1,489.2-2.1
			h490.5v6.1c0,3.2-4.5,13.5-10,23l-10,17.2l-440.8,0.8l-440.8,0.5l1.8,7.4c0.8,4,15.6,30.9,32.8,60
			c35.4,59.7,352.3,600.9,417.3,712.2c23.3,40.2,43.9,76.1,45.5,79.8c2.9,6.1,2.1,9-5.5,24.3c-4.8,9.5-9.5,17.4-10.3,17.4
			C1176.9,4394.4,1164.5,4373.7,1149.9,4348.6z"/>
		<path class="st0" d="M1194.6,4381.9c1.1-2.9,62.9-136.4,137.9-297c180.8-387.1,257.4-552.3,367.3-791.2
			c9.5-20.3,18-37.8,19.3-39.1c3.7-3.7,35.4,22.7,74.3,62.4c31.7,32.5,103.9,101.2,185.3,176.3c8.7,7.9,15.6,15.9,15.6,17.2
			c0,2.9-7.1,10.8-100.4,112.6c-85.4,92.5-135.3,147.5-332.7,364.4c-130.8,143.8-295.2,322.4-348.6,378.7
			C1201.7,4377.7,1193.8,4384.6,1194.6,4381.9z"/>
		<path d="M1172.4,4270.9c-9.2-17.2-35.7-66.3-58.9-109.1c-52.9-97.2-89.1-167.3-89.1-171.8c0-1.8,28.3-31.4,63.2-65.8
			c75.1-74.5,71.6-68.2,66.3-125.8c-1.8-19.6-2.4-39.9-1.6-44.9l1.8-9.2h28.8h29.1v53.6v53.4l43.9,44.9c48.1,49.2,74,78,78,86.9
			c2.1,4.5,0.5,10.6-8.2,29.3c-6.1,13.2-27,58.9-46.2,101.7c-37.5,83.2-76.4,164.9-85.1,179.2l-5.5,9L1172.4,4270.9z M1199.9,4134.8
			c6.3-13.5,19.3-46,29.1-71.9c9.8-26.2,19-49.7,20.3-52.3c2.1-4-1.1-9.8-16.9-30.7c-10.6-14-25.1-33.6-32-43.3
			c-6.9-10-14-18-15.3-18c-5.3,0-28,27-51,60l-22.7,32.5l37.5,74c20.6,40.7,38.1,74,38.6,74
			C1188.3,4159.2,1193.8,4148.1,1199.9,4134.8z"/>
		<path d="M989,3947.2c-1.8-3.4-12.9-22.2-24-41.8c-11.4-19.6-63.7-107.6-116.3-195.6s-99.4-166.8-104.1-175.2l-8.7-15.3l40.4,0.8
			l40.4,0.8l36.7,60.8c60,99.9,77.7,124.5,88,122.6c1.3-0.3,38.8-0.3,83.8,0l81.1,0.3v69.5v69.2l-55,55
			c-30.1,30.1-55.5,54.7-56.6,54.7S991.1,3950.4,989,3947.2z M1019.7,3836c16.9-12.9,24-27.5,25.4-52.6l1.3-20.6h-41.2h-41.2
			l2.6,7.4c1.3,4,10,20.9,19.6,37.5s17.2,32,17.2,33.8C1003.3,3846.5,1007.2,3845.2,1019.7,3836z"/>
		<path d="M1361.4,3937.4c-5.8-4.5-15.6-14-21.9-21.1c-6.3-7.4-23.3-23-37.8-34.9c-14.5-11.6-29.6-26.2-33.6-32
			c-6.6-10.3-7.1-12.7-6.9-38.8c0-15.3,0.8-46.5,1.8-69l2.1-41l67.9-1.3l67.7-1.3l14-30.4c14.8-32.5,51-121.3,51-125
			c0-1.3-45.7-1.8-101.5-1.6c-80.6,0.5-102.5,0-105.7-2.6c-4.8-4-5.8-14.8-1.6-17.4c7.1-4.5,311.8-0.3,311.8,4.2
			c0,1.1-7.9,18.5-17.4,38.6c-32,67.4-61.3,130.8-118.1,255.5c-30.9,68.2-57.6,124.5-58.9,125
			C1373,3944.8,1366.9,3941.7,1361.4,3937.4z M1366.9,3828.8c4.8-7.9,14.3-26.2,20.6-40.4l12.2-25.9l-39.1,0.8l-38.8,0.8l-0.8,14.3
			c-0.5,7.7,1.1,19.3,3.2,25.6c4.2,12.4,27,41.5,31.4,39.9C1356.9,3843.6,1361.9,3836.8,1366.9,3828.8z"/>
		<path d="M1156.6,3635.9v-68.7h-93.8c-51.5,0-93.8,0.5-93.8,1.1c0,3.2,18.5,41.2,24.6,51.3l7.1,11.1h50.2h50.2v15.9v15.9h-77.4
			h-77.2l-8.5-15.1c-16.6-30.7-64.2-123.4-64.2-125.5c0-1.1,75.6-2.1,167.8-2.1h167.8v18.2c0,29.6-11.9,26.7,111.3,26.7
			c59.5,0,108.1,0.5,108.1,1.3c0,0.5-9.8,20.9-21.4,44.9l-21.7,43.6h-88h-88.3v25.1v25.1H1183h-26.4V3635.9z M1327.8,3608.4
			c4.5-7.9,8.5-15.6,8.5-17.2c0-2.1-19.6-2.9-64.7-2.9h-64.7v17.2v17.2h56.3l56-0.3L1327.8,3608.4z"/>
		<path d="M910.5,3436.7c-0.8-0.8-12.9-1.8-27.5-2.6l-25.9-1.1l-3.4-8.7c-1.8-5-16.4-44.7-32.2-88.3c-15.9-43.6-29.9-81.4-30.9-84
			c-1.8-4.2,1.3-4.5,43.1-4.5h45.2l18.5,47c17.7,44.9,31.4,77.4,33.6,79.5c1.3,1.3,13.7-6.9,87.5-58.4c86.2-60,107-69.2,157.5-69
			c14.3,0,26.4,0.8,27,1.3c1.8,1.8,8.7,63.7,13.2,115.7c2.1,27,4.5,53.9,5,60.3l1.1,11.4l-38.8-0.8l-38.6-0.8l-4.5-50.2
			c-4.5-49.7-5.3-56.8-10.6-81.4l-2.6-12.4l-8.2,5.8c-7.9,5.5-86.4,68.2-136.1,108.6c-11.9,9.8-27.5,20.3-34.4,24
			C936.4,3434,913.2,3439.3,910.5,3436.7z"/>
		<path d="M596.8,3409.4c-15.1-21.1-72.9-111-98-152l-6.1-10h134.5H762l8.2,22.2c4.8,11.9,8.5,22.7,8.5,23.8
			c0,0.8-29.6,1.6-65.8,1.6c-35.9,0-72.7,0.8-81.7,1.6l-15.9,1.8l6.6,12.2c3.4,6.6,7.1,12.9,8.2,14s17.4,2.1,36.2,2.4
			c19,0,36.5,1.3,38.8,2.6c4.8,2.6,15.3,20.6,15.3,26.2c0,1.6-11.9,2.6-32.8,2.6c-18.2,0-33.6,1.1-34.6,2.6
			c-1.8,2.9,12.4,32,18,36.5c2.4,2.1,24.8,3.2,73.5,3.7l69.8,0.8l3.4,7.4c1.8,4,4.2,11.4,5,16.4l1.6,9.2H719.7H615.1L596.8,3409.4z"
			/>
		<path d="M1255.9,3424c-0.8-6.3-4-35.7-6.9-65.5c-5.8-59.5-10-95.9-12.2-105.2l-1.1-5.8h47.8h47.8l-1.6,23.3
			c-1.8,23-10.6,113.6-14.3,145.9l-1.8,17.2l-28,0.8l-28.3,0.8L1255.9,3424z"/>
		<path d="M1344.2,3426.6c0-4.8,1.1-18.8,2.4-31.2c1.6-12.4,3.4-34.1,4.5-48.1l1.6-25.9h123.9h123.7l6.6-11.1
			c3.4-6.3,7.4-14.5,8.2-18.8l1.8-7.1h-105.4c-58.1,0-118.1-0.8-133.5-1.6l-28-1.8l1.3-10.8c0.5-6.1,1.6-13.5,2.4-16.6l1.1-6.1
			h167.8c140.9,0,167.8,0.5,167.8,3.7c0,4.5-5.3,17.2-18.2,45.2c-5.5,11.6-14,30.9-18.8,43.1l-9,21.7h-111
			c-61.3,0-115.7,0.8-121,1.6c-10,1.8-10,1.8-10,14.5v12.9H1516c62.6,0,113.6,0.5,113.6,1.1c0,4-11.6,27.2-17.4,34.6l-6.9,9.2
			h-130.5h-130.5V3426.6z"/>
	</g>
</g>
</svg>
