<?xml version="1.0" encoding="utf-8"?>
<!-- Generator: Adobe Illustrator 26.0.3, SVG Export Plug-In . SVG Version: 6.00 Build 0)  -->
<svg version="1.1" id="Calque_1" xmlns="http://www.w3.org/2000/svg" xmlns:xlink="http://www.w3.org/1999/xlink" x="0px" y="0px"
	 viewBox="0 0 248.7 123.9" style="enable-background:new 0 0 248.7 123.9;" xml:space="preserve">
<style type="text/css">
	.st0{fill:#FEFEFE;}
	.st1{fill:#F37521;}
	.st2{fill:#33459C;}
	.st3{fill:#4471B7;}
	.st4{fill:#F47C22;}
	.st5{fill:#F27122;}
	.st6{fill:#2D3F99;}
	.st7{fill:#26408E;}
	.st8{fill:#273E8B;}
	.st9{fill:#3C4F9F;}
	.st10{fill:#4054A2;}
	.st11{fill:#F37621;}
	.st12{fill:#DBDDDC;}
	.st13{fill:#F5852D;}
	.st14{fill:#42509D;}
	.st15{fill:#D7D9DB;}
	.st16{fill:#F37E24;}
	.st17{fill:#4859A3;}
	.st18{fill:#4556A2;}
	.st19{fill:#35448F;}
	.st20{fill:#607DBA;}
	.st21{fill:#5877B8;}
	.st22{fill:#6681BD;}
	.st23{fill:#3D509F;}
	.st24{fill:#F37E26;}
	.st25{fill:#D8D7D8;}
	.st26{fill:#252B68;}
	.st27{fill:#4655A0;}
	.st28{fill:#3E4A81;}
	.st29{fill:#D7D8DA;}
	.st30{fill:#5A77B6;}
	.st31{fill:#6983BD;}
	.st32{fill:#292F70;}
	.st33{fill:#7C91C8;}
	.st34{fill:#5878B9;}
	.st35{fill:#686FB0;}
	.st36{fill:#36427C;}
	.st37{fill:#30386C;}
	.st38{fill:#3E5487;}
	.st39{fill:#7588C3;}
	.st40{fill:#4E66A9;}
	.st41{fill:#343A71;}
	.st42{fill:#6675B2;}
	.st43{fill:#8FA1D1;}
	.st44{fill:#5261A7;}
	.st45{fill:#3D4D9C;}
	.st46{fill:#F27325;}
	.st47{fill:#252963;}
	.st48{fill:#353D74;}
	.st49{fill:#4766AC;}
	.st50{fill:#2A2F6D;}
	.st51{fill:#2D4098;}
	.st52{fill:#4858A2;}
	.st53{fill:#354179;}
	.st54{fill:#5E6599;}
	.st55{fill:#91A0D1;}
	.st56{fill:#95A5D4;}
	.st57{fill:#525CA2;}
	.st58{fill:#515BA2;}
	.st59{fill:#7693CA;}
	.st60{fill:#323B73;}
	.st61{fill:#385381;}
	.st62{fill:#9A9BCE;}
	.st63{fill:#242862;}
	.st64{fill:#92A3D2;}
	.st65{fill:#6074B6;}
	.st66{fill:#7081BE;}
	.st67{fill:#898EC5;}
	.st68{fill:#8298CE;}
	.st69{fill:#999CCE;}
	.st70{fill:#8389C0;}
	.st71{fill:#34418E;}
	.st72{fill:#F3741A;}
	.st73{fill:#6773AC;}
	.st74{fill:#485699;}
	.st75{fill:#F26B19;}
	.st76{fill:#90A3D2;}
	.st77{fill:#8790C4;}
	.st78{fill:#96A8D5;}
	.st79{fill:#8F96CB;}
	.st80{fill:#4665A7;}
	.st81{fill:#8084BE;}
	.st82{fill:#8A9ED0;}
	.st83{fill:#2F3671;}
	.st84{fill:#7C83B8;}
	.st85{fill:#888CC3;}
	.st86{fill:#8B90C6;}
	.st87{fill:#D2D5D7;}
	.st88{fill:#8C91C6;}
	.st89{fill:#455B93;}
	.st90{fill:#7D80BB;}
	.st91{fill:#4A5696;}
	.st92{fill:#6070AC;}
	.st93{fill:#899ED0;}
	.st94{fill:#90A0D2;}
	.st95{fill:#7D8FC3;}
	.st96{fill:#8B9ECE;}
	.st97{fill:#6F80BD;}
	.st98{fill:#394383;}
	.st99{fill:#3C4E9D;}
	.st100{fill:#223594;}
	.st101{fill:#7083BF;}
	.st102{fill:#5D5B87;}
	.st103{fill:#97A9D5;}
	.st104{fill:#41619C;}
	.st105{fill:#4D5FA7;}
	.st106{fill:#48539E;}
	.st107{fill:#F26A19;}
	.st108{fill:#F47D23;}
	.st109{fill:#F8A45E;}
	.st110{fill:#F9A662;}
	.st111{fill:#F89F57;}
	.st112{fill:#35489D;}
	.st113{fill:#4E58A6;}
	.st114{fill:#3C6EAF;}
	.st115{fill:#687CB9;}
	.st116{fill:#707FBB;}
	.st117{fill:#757FBB;}
	.st118{fill:#5071B1;}
	.st119{fill:#406DAE;}
	.st120{fill:#456FAF;}
	.st121{fill:#496EAF;}
	.st122{fill:#5874B3;}
	.st123{fill:#6377B5;}
	.st124{fill:#5C75B4;}
	.st125{fill:#FDFDFD;}
	.st126{fill:#4056A5;}
	.st127{fill:#41598A;}
	.st128{fill:#3C4982;}
	.st129{fill:#3E588F;}
	.st130{fill:#838DC4;}
	.st131{fill:#6775B8;}
	.st132{fill:#F5862E;}
	.st133{fill:#F48127;}
	.st134{fill:#F48027;}
	.st135{fill:#3F55A5;}
	.st136{fill:#3F588B;}
	.st137{fill:#6D7EBB;}
	.st138{fill:#3F6DB4;}
	.st139{fill:#35417A;}
	.st140{fill:#415093;}
	.st141{fill:#2B4490;}
	.st142{fill:#DBDBDE;}
	.st143{fill:#D7DBDC;}
	.st144{fill:#3D52A2;}
	.st145{fill:#3E53A3;}
	.st146{fill:#8D8FC6;}
	.st147{fill:#456BB3;}
	.st148{fill:#4258A6;}
	.st149{fill:#E9E8E9;}
	.st150{fill:#E9E7E6;}
	.st151{fill:#E0E0E2;}
	.st152{fill:#DEDFDF;}
	.st153{fill:#F68E37;}
	.st154{fill:#F58B32;}
	.st155{fill:#F48026;}
	.st156{fill:#D2D5E4;}
	.st157{fill:#3A4D9E;}
	.st158{fill:#344497;}
	.st159{fill:#3D52A3;}
	.st160{fill:#394B9D;}
	.st161{fill:#324194;}
	.st162{fill:#3A4E9F;}
	.st163{fill:#9496C9;}
	.st164{fill:#9FAAD7;}
	.st165{fill:#9EAAD5;}
	.st166{fill:#3F54A4;}
	.st167{fill:#F9AF6E;}
	.st168{fill:#F9A966;}
	.st169{fill:#2E478F;}
	.st170{fill:#2E4A91;}
	.st171{fill:#354FA1;}
	.st172{fill:#3756A6;}
	.st173{fill:#4275B3;}
	.st174{fill:#627CB8;}
	.st175{fill:#7388C0;}
	.st176{fill:#8093C8;}
	.st177{fill:#7885BF;}
	.st178{fill:#4C76B4;}
	.st179{fill:#5378B6;}
	.st180{fill:#4675B3;}
	.st181{fill:#5A7CB8;}
	.st182{fill:#8D91C7;}
	.st183{fill:#727BB1;}
	.st184{fill:#F69038;}
	.st185{fill:#F69139;}
	.st186{fill:#F0F2F7;}
	.st187{fill:#7E86C1;}
	.st188{fill:#6C79AE;}
	.st189{fill:#2E4993;}
	.st190{fill:#EFEEED;}
	.st191{fill:#ECEAE7;}
	.st192{fill:#2E4B94;}
	.st193{fill:#E2E2E4;}
	.st194{fill:#FBB777;}
	.st195{fill:#FAB476;}
	.st196{fill:#304E93;}
	.st197{fill:#305397;}
	.st198{fill:#345C9D;}
	.st199{fill:#3A61AD;}
	.st200{fill:#385BA9;}
	.st201{fill:#4A7BB7;}
	.st202{fill:#6382BC;}
	.st203{fill:#6A8EC4;}
	.st204{fill:#9AAED7;}
	.st205{fill:#77A6D4;}
	.st206{fill:#F2F2F1;}
	.st207{fill:#6C94C8;}
	.st208{fill:#719DCE;}
	.st209{fill:#4F7EB9;}
	.st210{fill:#5381BB;}
	.st211{fill:#5883BC;}
	.st212{fill:#5F85BE;}
	.st213{fill:#F79942;}
	.st214{fill:#F79A43;}
	.st215{fill:#F89C47;}
	.st216{fill:#F79841;}
	.st217{fill:#F8F7F5;}
	.st218{fill:#F1EEEA;}
	.st219{fill:#305095;}
	.st220{fill:#E6E6E7;}
	.st221{fill:#F89C46;}
	.st222{fill:#FBBB7C;}
	.st223{fill:#E9E9EA;}
	.st224{fill:#32589A;}
	.st225{fill:#EDEDED;}
	.st226{fill:#3663A1;}
	.st227{fill:#3D67B1;}
	.st228{fill:#6587BF;}
	.st229{fill:#638DC3;}
	.st230{fill:#91BDE4;}
	.st231{fill:#86B8E0;}
	.st232{fill:#A6BBDE;}
	.st233{fill:#9CB8DD;}
	.st234{fill:#9FBBE0;}
	.st235{fill:#80B5DE;}
	.st236{fill:#70A3D2;}
	.st237{fill:#76ACD7;}
	.st238{fill:#6495C8;}
	.st239{fill:#6798CB;}
	.st240{fill:#6B9CCD;}
	.st241{fill:#3F70B7;}
	.st242{fill:#5989C0;}
	.st243{fill:#5F8EC4;}
	.st244{fill:#F8A04C;}
	.st245{fill:#F89E49;}
	.st246{fill:#FEFCF9;}
	.st247{fill:#FEFBF5;}
	.st248{fill:#FDFCFB;}
	.st249{fill:#FCC183;}
	.st250{fill:#FCC78C;}
	.st251{fill:#F5F1EB;}
	.st252{fill:#F9A550;}
	.st253{fill:#FBB465;}
	.st254{fill:#FAAE5F;}
	.st255{fill:#F9AA57;}
	.st256{fill:#F9A853;}
	.st257{fill:#F2F2F2;}
	.st258{fill:#EFEFEF;}
	.st259{fill:#FDCB83;}
	.st260{fill:#FBBC71;}
	.st261{fill:#FBB86C;}
	.st262{fill:#417ABD;}
	.st263{fill:#50A3DA;}
	.st264{fill:#8CBBE2;}
	.st265{fill:#89BAE0;}
	.st266{fill:#A7C7E6;}
	.st267{fill:#ABC0E1;}
	.st268{fill:#7BB2DB;}
	.st269{fill:#4D9FD7;}
	.st270{fill:#4C99D3;}
	.st271{fill:#6BA0D0;}
	.st272{fill:#498ECB;}
	.st273{fill:#4380C1;}
	.st274{fill:#4585C5;}
	.st275{fill:#4174B9;}
	.st276{fill:#F9F9FA;}
	.st277{fill:#F9F6F1;}
	.st278{fill:#F9A955;}
	.st279{fill:#FCCB91;}
	.st280{fill:#F4F4F4;}
	.st281{fill:#FECF8A;}
	.st282{fill:#F4F5F6;}
	.st283{fill:#F5F4F4;}
	.st284{fill:#FDC77F;}
	.st285{fill:#FCC276;}
	.st286{fill:#FDC67C;}
	.st287{fill:#FED89A;}
	.st288{fill:#FED18E;}
	.st289{fill:#FED594;}
	.st290{fill:#F8F9FA;}
	.st291{fill:#AFC6E4;}
	.st292{fill:#F6F7F7;}
	.st293{fill:#FCC074;}
</style>
<g>
	<path class="st0" d="M93.9,77.6c1.3,1.5,0.9,3.1,0.4,4.7c-0.6,1.2-0.6,2.7-1.5,3.8c-0.5,1.1-0.9,2.2-2,2.8c-1.3,0.6-2,2.2-3.6,2.2
		c-3.5,1.2-6.9,1.3-10.4,0.1c-0.7-0.2-1.3-0.6-1.6-1.2c-0.5-0.3-0.9-0.6-1.1-1.2c-0.1-0.4-0.3-0.8-0.4-1.2v-3.1
		c0.1-0.3,0.3-0.6,0.4-0.8c0.1-0.7-0.7-1.8,0.7-2.1c0.1-1.8,1-3,2.4-3.9c0.1-0.3,0.5-0.4,0.8-0.4c0.3-1.3,1.4-1.6,2.5-2
		c0.2-0.6,0.6-0.7,1.2-0.7c0.4-0.6,0.8-0.1,1.2,0.1c0.2-0.2,0.5-0.3,0.7-0.5c1.7-0.5,3.5-0.6,5.2,0c0.4,0,0.8,0,1.2,0.1
		c0.8,0.1,1.4,0.3,2,0.8c0.4,0.4,0.8,0.7,1.2,1.1C93.9,76.2,93.9,76.9,93.9,77.6z"/>
	<path class="st0" d="M98.4,97.5c0.7,0,1.3,0,2,0.1c0.5,0.1,1.4-0.3,1.4,0.6c0.1,1-0.8,0.6-1.3,0.7c-0.5,0.1-1.1,0-1.6,0.1
		c-0.7,0.1-0.3,0.6-0.2,0.9c0.8,0.1,1.6,0.1,2.4,0.2c0.4,0,0.8,0.2,0.8,0.7c0,0.5-0.3,0.7-0.8,0.7c-0.8,0-1.7,0.2-2.5-0.3
		c-1.5-0.3-1.8-1.5-1.8-2.8c0.1-2.5,1.9-3.8,4.4-3.2c0.5,0.1,0.7,0.3,0.6,0.8c0,0.5-0.4,0.6-0.9,0.6C100,96.6,98.9,96.3,98.4,97.5z"
		/>
	<path class="st0" d="M107.8,101.1c-0.6,0.6-1.2,0.5-1.6-0.2c-0.6-1-1.4-1.8-1.6-3c-0.9,0.7-0.3,1.7-0.4,2.6
		c-0.1,1.2-0.7,1.2-1.5,0.6c0-1.1,0-2.1,0-3.2c0.2-0.9-0.8-2.4,0.7-2.7c1.5-0.3,1.7,1.2,2,2.3c0.2,0.4,0.4,0.9,0.9,0.9
		c0.5,0,0.1-0.6,0.3-0.9c0-0.5-0.1-1-0.1-1.6c0-0.4,0.1-0.8,0.6-0.8c0.5,0,1,0.2,0.9,0.8C108,97.7,108.5,99.4,107.8,101.1z"/>
	<path class="st0" d="M106.2,91.9c-2.8,0.2-5.6,0.2-8.3,0c-0.5,0.2-0.9-0.1-1.2-0.4c-0.4-0.1-0.7-0.3-0.7-0.7
		c-0.3-0.5-1-0.8-0.8-1.6c0-0.1-0.1-0.2-0.1-0.4c-0.5-1-0.2-1.9,0.1-2.8c0.3-0.9-0.1-2,1.1-2.5c-0.4-0.5-0.6-1,0-1.5
		c-0.2-0.7,0.3-1.3,0.5-2c0.4-1.3,0.8-2.6,1.2-3.9c0.1-0.6,0.1-1.3,0.6-1.8c0-0.1,0.1-0.1,0.1-0.1c2.1-0.1,4.1-0.6,6.2,0.3
		c0.3,0.3,0.2,0.6-0.1,0.9c-0.5,1.6-1.1,3.3-1.6,4.9c-0.4,1.5-0.9,3.1-1.3,4.6c0,0.6,0,1.3,0.1,1.9c2.3,0.9,4.8,0.1,7.1,0.5
		c0.7,0,1.5,0,0.8,1.1c-0.3,1.1-0.7,2-1.6,2.7C107.5,91.4,106.8,91.6,106.2,91.9z"/>
	<path class="st0" d="M110.6,97.2c0.9,0.9,2.3-0.3,3.1,0.8c0,1.7-1.3,0.7-2,0.9c-0.5,0.2-1.7-0.4-1.1,1c0.8,0.1,1.6,0.1,2.4,0.2
		c0.4,0,0.8,0.2,0.8,0.7c0,0.5-0.3,0.7-0.8,0.7c-0.8,0-1.7,0.2-2.5-0.3c-1.8-0.4-1.9-1.8-1.8-3.2c0.5-2.6,2.3-3.5,5-2.4
		c0.1,0.3,0.1,0.6-0.2,0.8C112.6,97,111.3,96.2,110.6,97.2z"/>
	<path class="st0" d="M114.1,92.1c-1.2-0.2-2.5,0.3-3.6-0.3c-0.8-0.8-0.7-1.5,0.1-2.2c0-0.1,0-0.3,0-0.4c0.1-0.7,0.4-1.3,1.1-1.7
		c0-0.4,0-0.9,0.6-0.8c0.1-0.9,0.6-1.5,1.3-2c0-0.6,0.3-1,0.6-1.4c-0.3-0.7,0.6-0.8,0.7-1.3c0.3-0.5,0.2-1.3,1.1-1.3
		c0.1-0.5,0.2-1,0.8-1.2c-0.3-0.2-0.5-0.4-0.1-0.6c0.4-0.6,0.4-1.5,1.4-1.5c-0.1-0.5,0.2-0.9,0.5-1.3c0.3-0.7,0.7-1.2,1.5-1.1
		c0.3-0.1,0.6-0.3,0.9-0.4c0.1,0,0.2-0.1,0.3-0.1c0.1,0,0.1-0.1,0.2-0.1c2.2-1.1,4.4-0.6,6.6-0.3c0.5,0,0.5,0.4,0.5,0.7
		c0.7-0.2,1,0.3,1,0.9c0.2,0.5,0.4,1,0.5,1.5h-0.1c0.5,0.6,0.4,1.3,0.3,2c0,0.2,0,0.5,0.1,0.7c0,0.1,0.1,0.1,0.1,0.2
		c0.3,0.6,0.3,1.2,0.2,1.9c0.4,1.9,0.7,3.9,0.5,5.9c0,0,0.1,0.1,0.1,0.1c0.7,1.1,0.6,2.1,0,3.2c-1.6,1.3-3.5,0.7-5.2,0.7
		c-0.8-0.5-0.3-1.3-0.4-2c-0.3-0.8-0.6-1.4-1.6-1.3c-2.1,0.1-4.2,0.1-6.3,0.1c-0.4,0.6-0.8,1.2-1.2,1.8
		C116.2,91.8,115.4,92.3,114.1,92.1z"/>
	<path class="st0" d="M119.7,101.3c-0.5,0.3-1.1,0-1.5-0.6c-0.5-0.8-0.7-1.9-2.1-1.6c-0.3,0.6,0.3,1.4-0.4,2
		c-0.6,0.4-1.2,0.8-1.2-0.5c0-0.9,0-1.8,0.1-2.7c-0.2-3,0.8-3.6,4.4-2.4c0.9,0.4,1,1.2,0.8,2c-0.3,0.8-1.1,1.6-0.2,2.6
		C119.7,100.4,120.5,100.9,119.7,101.3z"/>
	<path class="st0" d="M131.9,95.4c0,1-0.9,1.1-1.1,1.8c-0.5,1-1,2-0.8,3.1c0.1,0.5,0,1.1-0.7,1.1c-0.9,0-0.8-0.6-0.8-1.2
		c0-0.6,0-1.2,0-1.8c-0.3-0.4-0.6-0.8-0.8-1.3c-0.7-0.3-0.7-1.4-1.5-1.6c0.1,1.3-1,0.9-1.5,0.9c-2-0.1-2.8,0.8-2.5,2.7
		c0.1,0.3,0.1,0.7,0.5,0.9c0.7,0,1.3-0.1,2-0.1c0.1-0.6-0.3-0.8-0.8-0.8c-1,0-0.8-0.6-0.7-1.2c0,0,0.1-0.1,0.1-0.1
		c0.9-0.6,2.1-0.6,2.7,0c0.7,0.7,0.3,2,0.3,3c0,0.7-0.7,0.6-1.2,0.6c-0.8,0-1.7,0.2-2.5-0.2c-2-0.6-2.7-2.3-1.5-3.7
		c-0.6-1.1,0.1-1.5,0.9-1.9c0.1-0.1,0.2-0.1,0.3-0.1c1.8-0.7,3.7-0.1,5.5-0.3c0.4,0,0.5,0.4,0.5,0.7c0.6,0.7,1.1,2,1.9,0.2
		C130.4,95.1,131.2,95.9,131.9,95.4z"/>
	<path class="st0" d="M174.6,59.5c0,0.2,0,0.4,0,0.6c0,0.7,0.1,1.5-0.3,2.1c0.1,0.1,0.1,0.2,0,0.3c-0.6,1-0.1,2.2-0.8,3.2
		c-1.6,8.7-5.7,16.3-10.7,23.5c-5,7.7-11,14.3-17.7,20.5c-1.4,1.3-3.3,1.7-5,2.7c-1.8,0.6-3.7,0.5-5.6,0.1c-0.4-0.2-1-0.4-1.1-1
		c-0.8-0.9-0.1-1.9,0-2.8c0.2-1.5,0.7-2.9,1.1-4.3c0.2-1.7,0.2-3.5,0.8-5.2c0.1-2,0.3-4,0.4-6c-0.1-4.5-0.2-9-0.4-13.6
		c-0.1-1.1-0.3-2.1-0.4-3.2c0-0.3,0-0.5,0-0.8c-0.8-4.1-2.8-7.4-6.1-9.9c-7.1-4.8-15.5-6.4-23.4-9.5c-3.4-1.3-6.7-2.8-9.5-5.2
		c-2.3-1.9-4-4.3-4.8-7.3c0-0.4-0.1-0.7-0.1-1.1c-0.3-0.4-0.4-0.9-0.3-1.3c-0.3-1.4-0.3-2.9,0-4.3c-0.2-1.2,0.2-2.2,0.8-3.2
		c-0.1-1.8,0.9-3.2,1.7-4.6c5.2-8.6,13.1-13.4,22.5-16.1c0.2-0.1,0.5,0,0.8,0c0.2,0,0.5,0,0.7-0.1c1.5-1.6,3.6-1.1,5.4-1.5
		c0.6-0.1,1.2,0,1.8,0c0.9-0.7,1.9-0.3,2.8-0.4h3.2c1.4-0.2,2.7,0.2,4.1,0.4c6.2,0.5,11.8,2.5,17.1,5.7c1.7,1,3.6,1.9,5,3.4
		c3.5,2.6,6.6,5.7,9.4,9c4,4.8,6.7,10.2,8.1,16.3c0.3,1.3-0.1,2.7,0.5,4C175.2,53.2,175.2,56.4,174.6,59.5z"/>
	<path class="st1" d="M135.6,75c0,0.3-0.2,0.6-0.8,0.7c-0.8-4.1-2.8-7.4-6.1-9.9c-1.2-1.9-3.2-2.6-5.1-3.5
		c-4.7-2.3-9.8-3.6-14.7-5.3c-3.6-1.3-7.3-2.4-10.4-4.7c-5.9-4.4-8.4-10.1-7.1-17.5c0-0.3,0.1-0.5,0-0.8c-0.1-1.8,0.9-3.2,1.7-4.6
		c5.2-8.6,13.1-13.4,22.5-16.1c0.2-0.1,0.5,0,0.8,0c0.6,1.4-0.5,1.7-1.4,2.2c-0.1,0-0.2,0-0.3,0.1c-0.1,0-0.2,0.1-0.4,0.1
		c-5,1.5-9.3,4.2-13.1,7.7c-1.9,1.7-3.9,3.4-4.5,6c0,0,0,0,0,0c0,0,0,0,0,0.1c0,0,0,0.1,0,0.1c-0.1,0.3-0.2,0.6-0.4,1c0,0,0,0,0,0.1
		c0,0.1-0.1,0.2-0.2,0.3c-0.6,1.2-1.2,2.4-1.8,3.6c0,0.1-0.1,0.1-0.1,0.2c-0.1,0.1-0.1,0.2-0.2,0.4c-0.8,1.8-0.8,3.7,0.2,5.5
		c0,0,0,0.1,0.1,0.1v0c0.5,4.2,3.1,7.1,6.4,9.3c4.9,3.3,10.5,5,16,6.8c3.7,1.3,7.4,2.7,10.9,4.7c3.3,1.9,5.4,4.6,6.6,7.7
		c0.2,0.5,0.4,1.1,0.5,1.7c0.2,0.6,0.3,1.3,0.4,2c0,0.2,0,0.4,0.1,0.5c0,0.2,0.1,0.5,0.1,0.7C135.6,74.4,135.7,74.7,135.6,75z"/>
	<path class="st2" d="M172.3,47.1C172.2,47.1,172.2,47.1,172.3,47.1c-0.1,0.1-0.1,0.1-0.1,0.1c-0.1,0.1-0.2,0.1-0.3,0.1c0,0,0,0,0,0
		c0,0-0.1,0-0.1,0c-1.2-0.3-1.4-1.4-1.6-2.4c-0.3-1.8-1-3.5-1.9-5c-0.1-0.1-0.2-0.3-0.2-0.4c-0.9-1.4-1.2-3.1-2-4.6
		c-0.1-0.2-0.2-0.4-0.4-0.6c0,0,0,0,0-0.1c-0.3-0.6-0.6-1.2-1-1.7c-0.1-0.1-0.1-0.2-0.2-0.3c0,0,0,0,0,0c-0.4-0.5-0.8-0.9-1.2-1.4
		c0,0,0,0,0,0c0,0,0,0,0,0c-0.5-0.8-1.2-1.4-1.8-2.1v0c-0.1-0.1-0.3-0.2-0.4-0.4c0,0-0.1-0.1-0.1-0.1c-1-1.1-2.1-2-3.2-2.9
		c-0.1-0.1-0.2-0.1-0.3-0.2c0,0,0,0,0,0c-0.6-0.7-1.4-1.1-2.1-1.7c-0.1-0.1-0.2-0.2-0.3-0.2c0,0,0,0-0.1,0c-0.7-0.7-1.5-1.2-2.4-1.8
		c-0.1-0.1-0.2-0.1-0.3-0.2c0,0,0,0-0.1,0c-1-0.6-1.9-1.3-3-1.8c-0.2-0.1-0.4-0.2-0.6-0.3c-0.1,0-0.2-0.1-0.3-0.1
		c-1.3-0.6-2.5-1.6-3.9-2c0,0-0.1,0-0.1,0c0,0,0,0,0,0c-1.4-0.6-2.8-1.2-4.4-1.4c0,0-0.1,0-0.2,0c-0.1,0-0.2-0.1-0.3-0.1
		c-1.9-0.6-3.9-0.8-5.7-1.6c0-0.1-0.1-0.2-0.1-0.2c0,0,0-0.1,0-0.1c0-0.1,0-0.2,0-0.3c0-0.1,0-0.2,0.1-0.3c0-0.1,0.1-0.2,0.1-0.2
		c0.2-0.4,0.6-0.6,0.9-0.8c6.2,0.5,11.8,2.5,17.1,5.7c1.7,1,3.6,1.9,5,3.4c0.5,1.3,1.7,2,2.7,2.8c6.6,5.6,11,12.5,13.2,20.8
		C172.6,45.3,172.8,46.2,172.3,47.1z"/>
	<path class="st3" d="M94,80c0,0-0.1,0.1-0.1,0.1l0,0c0,0,0,0.1-0.1,0.1c0,0-0.1,0.1-0.1,0.1c0,0-0.1,0.1-0.1,0.1
		c-1.4,0.4-2.7,0.8-4.1,0.4c-0.1,0-0.2-0.1-0.4-0.1c0,0,0,0-0.1,0c-0.1-0.1-0.2-0.1-0.3-0.2c0,0-0.1-0.1-0.1-0.1h0c0,0,0,0,0,0
		c-0.2-0.1-0.3-0.3-0.5-0.4c-0.1-0.1-0.3-0.2-0.4-0.3c-0.2-0.2-0.4-0.3-0.6-0.5c-0.1-0.1-0.2-0.2-0.3-0.3c-0.7-0.5-1.6-0.6-2.4-0.5
		c-0.1,0-0.1,0-0.2,0h0c-0.2,0-0.4,0.1-0.6,0.1c0,0,0,0,0,0c-0.1,0-0.1,0-0.2,0c-0.1,0-0.2,0.1-0.2,0.1c-1.6,0.6-2.6,1.8-3.1,3.4
		c0,0,0,0.1,0,0.1c0,0.1-0.1,0.2-0.2,0.2c-0.1,0.2-0.3,0.3-0.5,0.4c0,0,0,0-0.1,0c0,0-0.1,0-0.1,0c-1.2,0-2.4,0-3.5-0.2
		c-0.1,0-0.2-0.1-0.2-0.1c0,0,0,0-0.1-0.1c0,0-0.1-0.1-0.1-0.1c0,0,0,0,0,0v0c-0.1-1.8,1.6-2.8,2-4.4c0.1-0.3,0.5-0.4,0.8-0.4
		c0.8-0.5,1.6-1.2,2.5-1.6c0,0,0,0,0,0c0,0,0.1,0,0.1,0c0.5-0.3,1-0.5,1.5-0.6c0.1,0,0.2,0,0.3,0h0.1c0.2,0,0.4,0,0.6-0.1
		c0,0,0.1,0,0.1,0c0.1,0,0.2-0.1,0.3-0.1c0.1,0,0.1,0,0.2-0.1c0.2,0,0.3-0.1,0.5-0.1c0.3,0,0.6-0.1,0.9-0.1c0.9,0,1.9,0,2.8,0
		c0.2,0,0.4,0,0.6,0.1c0.1,0,0.2,0,0.4,0c0.3,0,0.5,0.1,0.8,0.1c0.1,0,0.1,0,0.2,0c0,0,0.1,0,0.2,0c0.7,0.2,1.3,0.7,2,0.4
		c0.4,0.4,0.8,0.7,1.2,1.1c0.3,0.6,0.5,1.2,0.7,1.8c0,0.1,0.1,0.2,0.1,0.3l0.3,0.9C94.2,79.4,94.2,79.7,94,80z"/>
	<path class="st4" d="M136,75.9c-0.1,0.2-0.2,0.4-0.3,0.6h0c0,0,0,0,0,0c0,0,0,0-0.1,0c0,0,0,0-0.1,0c-0.2,0.1-0.4,0.1-0.6-0.1
		c0-0.3,0-0.5,0-0.8c0.8-2.1-0.2-4-0.7-5.9c-1.3-4.6-5-7.1-9.1-9.2c-4-1.9-8.2-3.1-12.3-4.7c-5.5-2.1-11.2-3.8-15.4-8.4
		c-1.5-1.7-2.3-3.7-3.3-5.6c-0.3-0.5,0.1-0.9,0.3-1.3c0.1-0.1,0.1-0.1,0.2-0.1c0,0,0.1,0,0.1,0h0.1c0.3,0.1,0.6,0.2,1,0.3
		c0,0,0.1,0,0.2,0.1c0.1,0,0.1,0,0.2,0.1c0,0,0.1,0,0.1,0c0.1,0,0.2,0.1,0.3,0.2c0.1,0.1,0.2,0.1,0.2,0.2c0,0,0,0.1,0.1,0.1
		c0,0,0,0,0,0.1c0.8,3.2,2.6,5.7,5.3,7.6c3.1,2.2,6.6,3.4,10,4.6c4.4,1.6,8.9,3,13.3,4.9c0.3,0.1,0.5,0.2,0.8,0.4
		c0.2,0.1,0.3,0.2,0.5,0.3c0.1,0.1,0.2,0.1,0.3,0.2c0.7,0.4,1.3,0.9,2,1.3c1.4,1,2.6,2.1,3.7,3.4c0.6,0.8,1.2,1.7,1.7,2.7
		c0.4,0.9,0.6,1.7,0.9,2.6c0.1,0.6,0.3,1.3,0.5,1.9C135.9,72.9,136.3,74.4,136,75.9z"/>
	<path class="st3" d="M130.1,81.4C130.1,81.4,130,81.4,130.1,81.4c-0.1,0-0.1,0.1-0.2,0.1c-1.3,0.6-2.8,0.7-4.2,0.8c0,0-0.1,0-0.1,0
		c0,0-0.1,0-0.1,0c-0.7-0.3-0.7-1-0.8-1.6c-0.1-0.6,0.1-1.3-0.6-1.7c0,0-0.1,0-0.1-0.1c0,0,0,0-0.1,0c0,0,0,0,0,0c0,0,0,0-0.1,0
		c-0.6-0.3-0.9,0.3-1.2,0.7c-0.7,0.9-1.1,2-1.9,2.9c0,0-0.1,0.1-0.1,0.1c0,0,0,0,0,0c-0.1,0.1-0.2,0.2-0.3,0.2
		c-0.1,0.1-0.2,0.1-0.4,0.1c0,0-0.1,0-0.1,0c-1.2,0.1-2.3,0.3-3.5-0.2c-0.1-0.1-0.2-0.2-0.3-0.3h0c0,0,0,0,0,0c0,0,0,0,0,0
		c-0.2-0.3-0.2-0.7,0-1.1c0.1-0.1,0.2-0.2,0.2-0.3c0,0,0,0,0-0.1c0.2-0.3,0.4-0.6,0.6-0.9c0,0,0-0.1,0.1-0.1c0,0,0-0.1,0.1-0.1
		c0.2-0.5,0.5-1.1,0.8-1.6c0-0.1,0.1-0.1,0.1-0.2c0,0,0,0,0,0c0-0.1,0.1-0.1,0.1-0.2c0,0,0,0,0-0.1c0.6-1.4,1.7-2.3,2.8-3.2
		c0.1,0,0.2-0.1,0.3-0.1c0.1,0,0.1-0.1,0.2-0.1c0.1,0,0.2,0,0.4,0c0.1,0,0.2,0,0.3,0.1c0.2,0,0.4,0.1,0.6,0.2c1.7,0.2,3.4,0.2,5-0.1
		c0.1,0,0.1,0,0.2,0c0.2,0,0.5,0.1,0.7,0.2c0.7-0.2,1,0.3,1,0.9c-0.3,0.7,0,1.1,0.5,1.5h-0.1c0.4,0.7,0,1.4,0,2c0,0.1,0,0.2,0,0.3
		c0,0.1,0.1,0.2,0.1,0.3C130.3,80.4,130.5,80.9,130.1,81.4z"/>
	<path class="st5" d="M128.8,65.7c-7.1-4.8-15.5-6.4-23.4-9.5c-3.4-1.3-6.7-2.8-9.5-5.2c-2.3-1.9-4-4.3-4.8-7.3
		c0.2-0.4,0.1-0.8,0.1-1.1c0-0.1,0-0.3-0.1-0.4c0.1,0.2,0,0.3-0.2,0.4c-0.3-0.4-0.4-0.9-0.3-1.3c0.2-1.4,0.3-2.9,0-4.3
		c-0.2-1.2,0.2-2.2,0.8-3.2c0.4,0.3,0.4,0.8,0.3,1.3c-0.8,3.5-0.1,6.8,1.3,9.9c1.4,3.1,3.8,5.7,6.8,7.4c4.1,2.3,8.5,3.7,12.9,5.1
		c5.2,1.7,10.5,3.3,15.1,6.5C128.4,64.4,129.7,64.6,128.8,65.7z"/>
	<path class="st6" d="M174.6,59.5c0,0.2,0,0.4,0,0.6c-0.1,0.1-0.2,0.2-0.3,0.3c0,0,0,0,0,0.1c0,0.2,0,0.4-0.1,0.6
		c-0.1,0.5-0.2,0.9,0,1.4c-0.6,1-0.1,2.2-0.8,3.2c-0.9-0.1-0.8-0.9-0.9-1.4c0-0.5-0.1-0.9-0.2-1.4c0-0.3-0.1-0.6-0.1-0.9v-0.2
		c0-0.1,0-0.3,0-0.4c0.1-0.3,0.1-0.5,0.2-0.8c0,0,0-0.1,0-0.1c0.1-0.6,0-1.2,0.1-1.8c0-0.2,0.1-0.4,0.2-0.6c0.1-0.3,0.2-0.6,0.2-0.9
		c0.3-1.5,0.3-3.1,0-4.6c-0.1-0.8-0.3-1.5-0.5-2.3c-0.1-0.4-0.2-0.7-0.3-1c-0.1-0.5-0.3-1-0.2-1.4c0,0,0,0,0,0
		c0-0.2,0.1-0.4,0.2-0.7c0,0,0-0.1,0-0.1c0-3.9-1.7-7.3-3.4-10.7c-2.8-5.5-6.6-10-11.4-13.8c-0.6-0.4-1.2-0.8-0.8-1.7
		c3.5,2.6,6.6,5.7,9.4,9c4,4.8,6.7,10.2,8.1,16.3c0.3,1.3-0.1,2.7,0.5,4C174.9,53.2,174.8,56.4,174.6,59.5z"/>
	<path class="st7" d="M162.7,89.2c-5,7.7-11,14.3-17.7,20.5c-1.4,1.3-3.3,1.7-5,2.7c-0.4,0.1-0.5-0.1-0.6-0.4c0,0,0-0.1,0-0.1
		c0,0,0-0.1,0-0.1c0.3-1,1.3-1.7,1.6-2.8c0,0,0-0.1,0-0.1c0,0,0,0,0-0.1c0.2-0.5,0.5-0.9,1.1-1.1c0,0,0,0,0.1,0c0.1,0,0.2,0,0.2-0.1
		c2-0.4,3.5-1.5,4.8-3.1c2.3-2.7,4.7-5.3,7-8c0.9-1,1.4-2.2,2.2-3.1c0.1-0.1,0.1-0.1,0.2-0.2c0.1-0.1,0.2-0.2,0.3-0.3
		c1.5-1.3,2.4-3.3,4.3-4.2c0,0,0.1,0,0.1-0.1c0,0,0,0,0,0C162,88.5,162.4,88.7,162.7,89.2z"/>
	<path class="st8" d="M173.3,65.7c-1.6,8.7-5.7,16.3-10.7,23.5c-0.4-0.1-0.8-0.3-1.2-0.4c0-0.1-0.1-0.1-0.1-0.2
		c-0.4-0.9,0.4-1.5,0.8-2.1c3.9-6.3,7.1-12.8,8.8-20c0.3-1.2,0.5-2.3,0.7-3.5c0.1-0.4,0-1,0.5-1.2c0.1,0,0.2-0.1,0.4-0.1
		C173.3,63,172.6,64.5,173.3,65.7z"/>
	<path class="st9" d="M90,88.4c-0.7,1.2-1.8,1.9-3.1,2.2c-0.2,0-0.4,0.1-0.5,0.1h-0.1v0h0c-0.7-0.1-1.3-0.1-2-0.2
		c-1.5-0.1-3-0.1-4.5,0.2c-0.4,0.1-0.8,0.1-1.2,0.3c0,0-0.1,0-0.1,0c-0.2,0-0.4,0-0.6,0c-0.2-0.1-0.5-0.1-0.7-0.2
		c-0.1,0-0.2-0.1-0.3-0.1c-0.6-0.2-1.2-0.5-1.8-0.7c-0.5-0.3-0.9-0.6-1.1-1.2c0.3-0.4,0.2-1,0.6-1.4c0,0,0,0,0,0h0
		c2.2-0.1,4.4,0.6,6.5-0.5c0,0,0.1,0,0.1,0c0.3,0.1,0.6,0.1,0.9,0.1c0.5,0,0.9,0,1.4,0c0,0,0,0,0,0c0.7,0,1.5-0.1,2.2-0.1H86
		c0,0,0.1,0,0.1,0c0.7,0.2,1.5,0.3,2.2,0.2c0.8,0,1.5,0.3,1.7,1.1C90,88.3,90,88.4,90,88.4C90,88.4,90,88.4,90,88.4z"/>
	<path class="st10" d="M102.1,87.9c0,0-0.1,0-0.1,0.1c0,0-0.1,0-0.1,0c-1.7,1-4.2,0.6-5.4-0.7c-0.1-0.1-0.2-0.2-0.2-0.3
		c0-0.1-0.1-0.1-0.1-0.2c0,0,0-0.1-0.1-0.1c0-0.1-0.1-0.2-0.1-0.2c-0.1-0.3-0.1-0.6-0.1-0.9c0-0.1,0-0.2,0-0.2c0-0.2,0-0.4,0.1-0.6
		c0-0.1,0-0.1,0.1-0.2c0-0.1,0-0.1,0.1-0.2c0.2-0.5,0.4-0.9,0.9-1.3c0,0,0.1,0,0.1,0c0,0,0.1,0,0.1,0c0.4,0,0.6,0.3,0.8,0.6
		c-0.3-0.4-0.6-0.7-0.8-1c0,0,0-0.1-0.1-0.1C97,82.3,97,82.1,97,81.8c0-0.7,0.2-1.3,0.7-1.8l0.1-0.1l0,0c0,0,0,0,0,0c0,0,0,0,0,0
		c0.3-0.2,0.7-0.2,1.1-0.1c0.1,0.1,0.1,0.1,0.2,0.2c0.1,0,0.1,0.1,0.2,0.2c0.3,0.3,0.5,0.6,0.9,0.8c0.5,0.3,0.9,0.6,1,1.1
		c0.1,0.2,0.1,0.4,0,0.7c-0.1,0.3-0.2,0.6-0.5,0.7c-0.3,0.2-0.8,0.3-1.4,0.3c0.5,0.4,0.9,0.7,1.2,1c0.1,0.1,0.2,0.2,0.2,0.4
		c0,0,0,0.1,0.1,0.1c0.4,0.1,0.5-0.6,1-0.4c0,0.6,0,1.3,0.1,1.9C102.1,87.1,102.2,87.5,102.1,87.9z"/>
	<path class="st11" d="M138,106.3c0,0,0,0.1,0,0.1c0,0.8-0.5,1.5-0.8,2.2c-0.1,0.2-0.2,0.3-0.2,0.5c-0.1,0.1-0.1,0.2-0.2,0.4
		c0,0,0,0.1-0.1,0.2c0,0,0,0.1-0.1,0.1c0,0.1-0.1,0.2-0.1,0.2c-0.2,0.4-0.4,0.7-0.8,0.9c0,0-0.1,0-0.1,0c0,0-0.1,0-0.1,0
		c-0.8-0.2-1.5,0.3-2.2,0.6c-0.8-0.9-0.1-1.9,0-2.8c0.2-1.5,0.7-2.9,1.1-4.3c1.3,0.3,3,0.1,3.5,1.8c0,0,0,0,0,0
		C137.9,106.2,137.9,106.2,138,106.3C138,106.2,138,106.2,138,106.3z"/>
	<path class="st12" d="M133.6,12.8c0,0.1,0,0.2-0.1,0.4c0,0.1-0.1,0.1-0.1,0.2c-0.1,0.2-0.3,0.4-0.6,0.4c0,0-0.1,0-0.1,0
		c-0.1,0-0.2,0-0.3,0c-3.4-0.2-6.8,0-10.2,0.7c-0.3,0-0.6,0-0.9,0.1c-0.2,0-0.5,0.1-0.7,0.1c-1.3,0.3-2.5,0.8-3.7,1.2
		c-0.7,0.2-1.5,0.6-2.3,0.2c0,0-0.1-0.1-0.1-0.1c0,0,0,0,0,0c-0.1-0.2-0.1-0.3-0.1-0.4c0.1-0.2,0.3-0.3,0.5-0.4c0.6-0.6,1.5-1,1.5-2
		c0.2,0,0.5,0,0.7-0.1c0.4-0.2,0.6,0.4,0.9,0.5c0.1,0,0.2,0,0.3-0.1c0,0,0.1-0.1,0.1-0.1c2-0.7,4.1-1.1,6.2-1.3
		c0.6-0.1,1.1-0.1,1.7-0.1c1.9-0.1,3.8-0.1,5.8-0.1c0.5,0,1.2,0,1.4,0.7C133.6,12.6,133.6,12.7,133.6,12.8z"/>
	<path class="st13" d="M141.1,99.9c0,0.1-0.1,0.2-0.1,0.4c-0.1,0.2-0.1,0.4-0.2,0.6c-0.2,0.5-0.4,1-1,1.2c-0.1,0-0.1,0-0.2,0
		c0,0-0.1,0-0.1,0c-1.4-0.2-2.8-0.3-3.8-1.4c0,0,0,0,0,0c0,0-0.1-0.1-0.1-0.1c-0.3-0.4,0.1-0.9-0.2-1.3c0.1-2,0.3-4,0.4-6
		c0.1-0.1,0.3-0.1,0.4,0c0,0,0,0,0,0c0,0,0.1,0.1,0.1,0.1c0.2,0.3,0.3,0.7,0.3,1.2c0,0.2,0,0.4,0,0.6c0,0.2,0,0.5,0,0.7
		c0.1,1.7,0.5,1.7,3,2.2c0.6,0.1,1.2,0.2,1.4,0.7c0.1,0.1,0.1,0.1,0.1,0.2c0,0.1,0,0.2,0.1,0.2C141.2,99.3,141.2,99.6,141.1,99.9z"
		/>
	<path class="st14" d="M125.9,99.4c0,1.4-0.3,2.1-1.8,1.9c-0.6-0.1-1.2,0.1-1.8-0.1c-2-0.6-2.7-2.3-1.5-3.7c0.1-0.1,0.2-0.1,0.4-0.1
		c0,0,0.1,0,0.2,0c0,0,0,0,0,0c0.9,0.4,0.3,1.3,0.6,1.8c0.1,0.3,0.1,0.7,0.5,0.9c0.7,0.2,1.3,0.3,2-0.1c0.1-0.6-0.3-0.8-0.8-0.8
		c-1,0-0.8-0.6-0.7-1.2c0,0,0.1-0.1,0.1-0.1c0.3-0.1,0.7-0.1,1-0.1C125.4,97.6,125.9,98,125.9,99.4z"/>
	<path class="st15" d="M134.5,11.7c-0.2,0.5-0.4,0.9-0.9,1.1c0,0-0.1,0-0.2,0c-2.7-0.8-5.4-0.3-8.1-0.2c-2.5,0.1-4.9,0.7-7.2,1.4
		c0-0.1,0-0.3,0-0.4c0.2-1.3,1.5-1.2,2.4-1.3c1.8-0.4,3.7-0.5,5.6-0.7c0.4,0,0.7-0.1,1.1-0.1h0.1c0.1,0,0.1,0,0.2,0
		c0.1,0,0.1,0,0.2,0c0.9-0.2,1.9,0.2,2.8-0.2C131.8,11,133.2,11.4,134.5,11.7z"/>
	<path class="st16" d="M139,103.5c0,0.7-0.1,1.4-0.3,2c-0.1,0.3-0.3,0.6-0.5,0.8c0,0,0,0-0.1,0c0,0-0.1,0.1-0.1,0.1
		c-0.1,0-0.2,0-0.4-0.1c0-0.7-0.3-1-1.1-1c-0.8,0-1.5-0.5-2.1-1c0.2-1.7,0.2-3.5,0.8-5.2c0.4,0.3,0.4,0.7,0.4,1.2c0,0.1,0,0.2,0,0.3
		c0.3,1.7,1.9,2.1,3.2,2.8C138.9,103.4,138.9,103.4,139,103.5C139,103.4,139,103.5,139,103.5z"/>
	<path class="st17" d="M98.7,99.9c0.5,0.5,1.1,0.2,1.7,0.3c0.5,0.1,1.2-0.1,1.2,0.6c-0.1,0.7-0.8,0.5-1.3,0.5
		c-0.6,0-1.2,0.1-1.8-0.1c-1.5-0.3-1.8-1.5-1.8-2.8c0.5-0.5,0.8-1.2,1.6-0.9c0.7,0,1.3,0,2,0.1c0.5,0.1,1.4-0.3,1.4,0.6
		c0.1,1-0.8,0.6-1.3,0.7c-0.5,0.1-1.1,0-1.6,0.1C98.2,99.1,98.6,99.5,98.7,99.9z"/>
	<path class="st18" d="M113.5,100.8c0,0.7-0.8,0.5-1.3,0.5c-0.6,0-1.2,0.1-1.8-0.1c-1.8-0.4-1.9-1.8-1.8-3.2c0.2-0.5,0.7-0.9,1-0.7
		c1.2,0.8,2.7,0.1,4,0.7c0,1.7-1.3,0.7-2,0.9c-0.5,0.2-1.7-0.4-1.1,1c0.5,0.5,1.1,0.2,1.7,0.3C112.8,100.2,113.5,100,113.5,100.8z"
		/>
	<path class="st19" d="M107.1,90.3c0,0.6-0.4,0.8-0.8,0.9c-0.1,0-0.2,0.1-0.3,0.1c-0.1,0-0.2,0.1-0.3,0.1c-0.3,0.1-0.7,0.1-1,0.1
		h-2.3c-0.4,0-0.8,0-1.2,0h-0.9c0,0,0,0,0,0c-0.4,0-0.9,0-1.3,0c-0.3,0-0.5,0-0.8,0c-0.5,0-0.9,0-1.3,0c-0.4-0.1-0.7-0.3-0.7-0.7
		c0.1-0.2,0.2-0.4,0.3-0.5l0,0c0.1-0.1,0.2-0.2,0.3-0.2c1.1-0.7,2.4-0.4,3.6-0.4c1.7,0,3.4,0.3,5.1,0c0.6-0.1,1.2,0,1.6,0.6
		C107,90.2,107,90.3,107.1,90.3C107,90.3,107,90.3,107.1,90.3z"/>
	<path class="st14" d="M119.7,101.3c-0.5,0.3-1.1,0-1.5-0.6c-0.5-0.8-0.7-1.9-2.1-1.6c-0.1,0.1-0.2,0.1-0.4,0.2c0,0,0,0-0.1,0
		c0,0-0.1,0-0.1,0c-0.6-0.3-0.8-0.7-0.7-1.3v0c0,0,0-0.1,0-0.2c0.3-0.3,0.7-0.3,1.1-0.4c0,0,0,0,0,0c0.1,0,0.3,0,0.4,0
		c0.5,0,1-0.1,1.4-0.2c0.1,0,0.3,0,0.4-0.1c0,0,0.1,0,0.2,0c0.4,0,0.8,0.1,1.2,0.4c-0.3,0.8-1.1,1.6-0.2,2.6
		C119.7,100.4,120.5,100.9,119.7,101.3z"/>
	<path class="st20" d="M101.8,96c0,0.5-0.4,0.6-0.9,0.6c-1,0-2-0.2-2.6,0.9c-0.6,0.2-0.9,0.9-1.6,0.9c0.1-2.5,1.9-3.8,4.4-3.2
		C101.6,95.3,101.8,95.5,101.8,96z"/>
	<path class="st21" d="M105.4,97.5c-0.2,0.3-0.4,0.6-0.8,0.4c-0.9,0.7-0.3,1.7-0.4,2.6c-0.1,1.2-0.7,1.2-1.5,0.6
		c0.8-1.1,0.9-2.1,0-3.2c0.2-0.9-0.8-2.4,0.7-2.7C104.9,95,105.1,96.4,105.4,97.5z"/>
	<path class="st22" d="M110.6,97.2c0.8-1,2-0.2,2.9-0.8c-0.2-0.1-0.4-0.2-0.6-0.2c0.3,0,0.6-0.2,0.8-0.6c-2.7-1.1-4.6-0.2-5,2.4
		c1.7-0.7,3.3,0.3,5,0C112.8,96.9,111.5,98,110.6,97.2z M111.7,96.3C111.7,96.5,111.6,96.4,111.7,96.3c-0.1-0.1-0.1-0.1-0.1-0.1
		c0.3-0.1,0.6,0,0.9,0c-0.2,0-0.5,0-0.7,0.1C111.7,96.2,111.6,96.2,111.7,96.3C111.6,96.3,111.6,96.3,111.7,96.3z"/>
	<path class="st23" d="M107.8,101.1c-0.6,0.6-1.2,0.5-1.6-0.2c-0.6-1-1.4-1.8-1.6-3c0.3-0.1,0.6-0.3,0.8-0.4
		c0.2,0.4,0.4,0.9,0.9,0.9c0.5,0,0.1-0.6,0.3-0.9c0.8-0.4,1.3-0.3,1.3,0.6C108,99.2,108.2,100.2,107.8,101.1z"/>
	<path class="st24" d="M136.4,92.4c-0.1,0.3-0.2,0.5-0.4,0.7c0,0,0,0,0,0c-0.1,0-0.3,0-0.4,0c-0.1-4.5-0.2-9-0.4-13.6
		c0.5-1-0.3-2.1,0.3-3c0,0,0-0.1,0.1-0.1h0c0,0,0.1,0,0.1,0c0.4,0.1,0.6,0.3,0.7,0.5c0.2,0.4,0.1,1.1,0.1,1.5c0,2.9,0,5.8,0,8.7v2.3
		c0,0.1,0,0.1,0,0.2C136.5,90.6,136.7,91.5,136.4,92.4z"/>
	<path class="st25" d="M140,112.3c-1.8,0.6-3.7,0.5-5.6,0.1c0.1-0.7,0.6-1.2,1.1-1.6c0,0,0.1-0.1,0.1-0.1c0.3-0.4,0.5-0.8,0.8-1.2
		c0.1,0.1,0.1,0.2,0.2,0.3c0.8,0.8,2.4,0.7,2.9,2c0,0,0,0.1,0,0.1C139.7,112,139.8,112.2,140,112.3z"/>
	<path class="st26" d="M87.1,91.2c-3.5,1.2-6.9,1.3-10.4,0.1c0-0.2,0.1-0.4,0.2-0.5c0.2-0.3,0.7-0.1,1.1,0c0.1,0,0.3,0,0.4,0
		c0.5,0,1,0,1.5,0c1.5,0,3-0.2,4.5-0.2c0.6,0,1.2,0,1.8,0c0,0,0,0,0,0c0,0,0.1,0,0.1,0c0.2,0,0.4,0,0.6,0.1
		C87,90.7,87.1,90.9,87.1,91.2z"/>
	<path class="st27" d="M130,100.3c0.1,0.5,0,1.1-0.7,1.1c-0.9,0-0.8-0.6-0.8-1.2c0-0.6,0-1.2,0-1.8c0.2-1.2,0.3-1.2,2.4-1.3
		C130.3,98.1,129.8,99.1,130,100.3z"/>
	<path class="st28" d="M103.1,80.2c-0.4,1.5-0.9,3.1-1.3,4.6c-0.7,0,0.2,1.7-1.1,1.2c-0.1-0.5-0.2-0.9-0.2-1.3
		c0-0.4,0.1-0.9,0.2-1.3c0.1-0.5,0.3-0.9,0.5-1.4c0.2-0.6,0.4-1.1,0.5-1.7c0-0.1,0-0.2,0-0.3c0,0,0-0.1,0-0.1
		c0.2-0.5,0.4-0.9,0.9-1.1c0,0,0,0,0,0c0,0,0.1,0,0.2,0C103.4,79.1,103.1,79.7,103.1,80.2z"/>
	<path class="st29" d="M127.7,11.6c-0.4,0.2-0.8,0.3-1.2,0.3c-0.6,0.1-1.1,0.1-1.7,0.1c-1.1,0-2.2,0-3.3,0.3c-1,0.3-2.1,0.3-2.9,1
		c0,0-0.1,0.1-0.1,0.1c-0.1,0.1-0.3,0.3-0.4,0.5c-0.7,0.2-0.4-0.7-0.9-0.8c1.5-1.6,3.6-1.1,5.4-1.5c0.6-0.1,1.2,0,1.8,0
		c0.8-0.4,1.7-0.1,2.6-0.2h0.1c0.1,0,0.1,0,0.2,0c0.1,0,0.1,0,0.2,0.1C127.5,11.5,127.6,11.6,127.7,11.6z"/>
	<path class="st30" d="M118.9,95.5c-0.4,0.5-1.1,0.5-1.6,0.9c0,0-0.1,0.1-0.1,0.1c0,0,0,0,0,0c-0.3,0.2-0.4,0.5-0.6,0.8
		c-0.1,0.2-0.2,0.3-0.3,0.4c-0.4,0-0.9,0.1-1.3,0.1c0,0,0,0,0,0c-0.1,0.1-0.2,0.1-0.3,0C114.4,94.9,115.4,94.4,118.9,95.5z"/>
	<path class="st31" d="M127.6,97.2c-0.7-0.3-0.7-1.4-1.5-1.6c-1.3,0.9-2.7,1-4,0c1.8-0.7,3.7-0.1,5.5-0.3c0.4,0,0.5,0.4,0.5,0.7
		C128.2,96.4,128.7,97.1,127.6,97.2z"/>
	<path class="st32" d="M116.6,90.6c-0.4,1.2-1.2,1.7-2.5,1.5c-1.2-0.2-2.5,0.3-3.6-0.3c-0.1-0.2-0.1-0.4,0-0.6c0,0,0,0,0,0
		s0,0,0.1,0c0.1-0.1,0.3-0.2,0.4-0.3h0c0.1,0,0.2,0,0.3,0c1.6-0.2,3.3,0.2,4.5-1.1c0,0,0.1-0.1,0.1-0.1c0,0,0.1-0.1,0.1-0.1
		c0.2,0,0.3,0,0.4,0.1h0c0,0,0.1,0.1,0.1,0.1C116.8,90,116.7,90.3,116.6,90.6z"/>
	<path class="st33" d="M88.7,74.4c-0.1,0.2-0.5,0.2-0.7,0.3c0,0-0.1,0.1-0.1,0.1h-3.2c0-0.1-0.1-0.1-0.2-0.1h0
		c-0.3-0.1-0.7,0.1-0.9-0.2c-0.1-0.1-0.1-0.2-0.1-0.5c1.7-0.5,3.5-0.6,5.2,0C88.8,74.2,88.8,74.3,88.7,74.4z"/>
	<path class="st34" d="M107.8,101.1c0-0.8,0-1.6,0-2.4c0-0.8-0.3-1.3-1.1-1.2c0-0.5-0.1-1-0.1-1.6c0-0.4,0.1-0.8,0.6-0.8
		c0.5,0,1,0.2,0.9,0.8C108,97.7,108.5,99.4,107.8,101.1z"/>
	<path class="st35" d="M126.8,90.1c0,0.4-0.1,0.7-0.3,1c0,0-0.1,0-0.1,0c0,0,0,0,0,0c-0.7,0.1-0.5-0.5-0.5-0.8c0-0.1,0-0.3-0.2-0.3
		c-0.3-0.8-0.6-1.4-1.6-1.3c-2.1,0.1-4.2,0.1-6.3,0.1c0.1-0.4,0.3-0.7,0.5-0.8c0.4-0.2,0.9-0.1,1.4-0.1c1.3-0.1,2.7,0,4,0
		c0.3,0,0.5,0,0.8,0h0.1c0.2,0,0.3,0,0.5-0.1c0.3-0.1,0.6-0.3,1-0.2c0,0,0.1,0.1,0.1,0.1c0.1,0,0.1,0.1,0.1,0.1
		c0.1,0.2,0.2,0.5,0.3,0.8c0,0,0,0,0,0c0,0,0,0.1,0,0.1c0,0.3,0.1,0.7,0.2,1c0,0,0,0,0,0C126.8,89.9,126.8,90,126.8,90.1z"/>
	<path class="st36" d="M131.2,88.5L131.2,88.5C131.2,88.5,131.2,88.5,131.2,88.5c-0.2,0-0.3,0-0.4,0c0,0,0,0,0,0c0,0-0.1,0-0.1-0.1
		c-0.1-0.1-0.1-0.2-0.2-0.3c0-0.1,0-0.1-0.1-0.2c0,0,0-0.1,0-0.1c-0.1-0.6-0.1-1.2-0.2-1.8c0-0.1,0-0.1,0-0.2c0-0.1,0-0.2-0.1-0.3
		c0-1.3-0.8-2.6-0.1-3.9c0-0.1,0.1-0.1,0.1-0.2v-1.6c-0.1-0.2-0.1-0.4,0-0.4c0.1,0,0.2,0,0.3,0c0,0.2,0,0.5,0.1,0.7
		c0,0.1,0.1,0.1,0.1,0.2c0.2,0.6-0.1,1.3,0.2,1.9c0.4,1.9,0.7,3.9,0.5,5.9c0,0,0.1,0.1,0.1,0.1C131.4,88.2,131.3,88.3,131.2,88.5z"
		/>
	<path class="st37" d="M125.3,88.3c-1.9,0-3.8,0-5.7,0c-0.6,0-1.3-0.3-1.8,0.4c-0.4,0.6-0.8,1.2-1.2,1.8c0-0.3,0-0.7-0.1-1
		c-0.4-0.7-0.1-1.2,0.3-1.6c0,0,0,0,0,0c0,0,0,0,0.1-0.1c0.2-0.1,0.4-0.2,0.6-0.3c2.5-0.1,5-0.4,7.5,0.2c0,0,0,0,0,0
		C125.3,87.9,125.4,88.1,125.3,88.3z"/>
	<path class="st38" d="M104.6,75.3c-0.5,1.6-1.1,3.3-1.6,4.9c-0.1-0.5,0.1-1-0.5-1.4c0,0,0,0,0-0.1c-0.4-1.4-0.1-2.7,0.9-3.7
		c0,0,0.1-0.1,0.1-0.1c0.1-0.1,0.1-0.1,0.2-0.2C104.2,74.6,104.7,74.6,104.6,75.3z"/>
	<path class="st39" d="M128,74.1c0,0.2,0,0.4-0.2,0.5c-0.1,0.1-0.3,0.1-0.4,0.1c-0.9,0.1-1.9,0.2-2.9,0.2h-0.3
		c-0.9,0-1.8-0.1-2.6-0.4c-0.1,0-0.3,0-0.4,0c0.1,0,0.1-0.1,0.2-0.1C123.6,73.2,125.8,73.8,128,74.1z"/>
	<path class="st40" d="M131.9,95.4c0,1-0.9,1.1-1.1,1.8c-0.8,0.5-2.1-0.1-2.4,1.3c-0.3-0.4-0.6-0.8-0.8-1.3c0.6-0.3,0.5-0.8,0.5-1.3
		c0.6,0.7,1.1,2,1.9,0.2C130.4,95.1,131.2,95.9,131.9,95.4z"/>
	<path class="st41" d="M90.7,88.9c-1.3,0.6-2,2.2-3.6,2.2c-0.2-0.3-0.4-0.4-0.7-0.4h-0.1l0,0c-0.1,0-0.1-0.1-0.1-0.2
		c0,0,0-0.1,0-0.1c0-0.1,0.1-0.1,0.1-0.1c1.4-0.3,2.5-1.1,3.6-2c0,0,0.1-0.1,0.1-0.1c0.1,0,0.2-0.1,0.2-0.1c0,0,0.1,0,0.1,0
		c0,0,0,0,0.1,0C90.7,88.4,91,88.6,90.7,88.9z"/>
	<path class="st42" d="M126,95.5c0.1,1.3-1,0.9-1.5,0.9c-2-0.1-2.8,0.8-2.5,2.7c-0.6-0.4-0.1-1.2-0.7-1.6c0-0.1-0.1-0.1-0.1-0.2
		c-0.4-0.7,0.2-1.2,0.5-1.8c0.1-0.1,0.2-0.1,0.3-0.1C123.3,96.1,124.7,96.2,126,95.5z"/>
	<path class="st43" d="M77.1,77.6c0.1,1.8-1.6,2.8-2,4.4c0,0,0,0,0,0c-0.3,0-0.6-0.1-0.4-0.5C74.8,79.7,75.7,78.5,77.1,77.6z"/>
	<path class="st44" d="M126,100.8c0,0.7-0.7,0.6-1.2,0.6c-0.8,0-1.7,0.2-2.5-0.2c0.5,0,0.9-0.1,1.4-0.1c1.1,0,2,0.1,2-1.6
		c0-1.6-0.8-1.7-2-1.6c-0.3,0-0.5,0-0.8,0c0,0,0.1-0.1,0.1-0.1c0.9-0.6,2.1-0.6,2.7,0C126.5,98.5,126,99.8,126,100.8z"/>
	<path class="st45" d="M102.7,101.1c0-1.1,0-2.1,0-3.2c1.4-0.1,1.1,0.9,1.2,1.7C103.9,100.4,103.9,101.2,102.7,101.1z"/>
	<path class="st46" d="M135.6,110.7c0,0,0,0.1,0,0.1c-0.2,0.7-0.3,1.4-1.2,1.6c-0.4-0.2-1-0.4-1.1-1
		C133.8,110.3,134.4,109.5,135.6,110.7z"/>
	<path class="st47" d="M106.2,91.9c-2.8,0.2-5.6,0.2-8.3,0c0-0.2,0.1-0.3,0.2-0.4c0.3-0.5,1-0.1,1.4-0.1c1.8-0.2,3.7,0.2,5.6-0.2
		c0.3,0,0.5,0,0.8,0c0.3,0,0.5,0,0.5,0.1C106.4,91.4,106.3,91.6,106.2,91.9z"/>
	<path class="st48" d="M109.8,88.4c-0.3,1.1-0.7,2-1.6,2.7c-0.5-0.2-0.9-0.4-0.9-1c0,0,0-0.1,0-0.2c0,0,0,0,0,0
		c0.3-0.9,0.8-1.6,1.7-2h0c0,0,0,0,0,0h0C109.3,87.8,109.6,88,109.8,88.4z"/>
	<path class="st49" d="M119.7,97.5c-0.4,0-0.9,0-1.3,0c-0.1-0.1-0.3-0.2-0.5-0.3c-0.3-0.2-0.6-0.4-0.8-0.6c-0.1-0.1-0.1-0.2-0.2-0.2
		c0.4-1,1.2-0.8,2-0.8C119.9,95.9,119.9,96.7,119.7,97.5z"/>
	<path class="st50" d="M105,91.2c-0.4,0.2-0.7,0.3-1.1,0.4c-0.5,0.1-1,0-1.6,0c-0.4,0-0.8,0-1.2,0h-0.9c0,0,0,0,0,0
		c-0.4,0-0.9-0.1-1.3,0c-0.3,0-0.6,0.1-1,0.4c-0.5,0.2-0.9-0.1-1.2-0.4C99.4,90.8,102.2,91.3,105,91.2z"/>
	<path class="st51" d="M174.6,59.5v-9.5C175.2,53.2,175.2,56.4,174.6,59.5z"/>
	<path class="st52" d="M115.7,101.1c-0.6,0.4-1.2,0.8-1.2-0.5c0-0.9,0-1.8,0.1-2.7c0.1,0,0.2,0,0.3,0c0,0,0,0,0,0
		c0.3,0.4,0.5,0.8,0.8,1.2c0,0.1,0,0.1,0.1,0.2C116,99.9,116,100.5,115.7,101.1z"/>
	<path class="st53" d="M94.3,82.3c-0.6,1.2-0.6,2.7-1.5,3.8c-0.2-0.1-0.3-0.3-0.4-0.5c0-0.1-0.1-0.2-0.1-0.3c0,0,0,0,0-0.1
		c0.3-1.7,0.6-3.4,1.4-5c0-0.1,0.1-0.2,0.1-0.2l0,0c0,0,0,0,0.1,0C94.9,80.7,94.4,81.5,94.3,82.3z"/>
	<path class="st54" d="M108.9,87.7C108.9,87.7,108.9,87.7,108.9,87.7c0,0-0.1,0.1-0.1,0.1c-0.1,0-0.3,0.1-0.4,0.1c0,0-0.1,0-0.1,0
		c-1.9,0.5-3.9,0-5.8,0.3c-0.2,0-0.4-0.1-0.6-0.2c0,0,0,0-0.1,0c0-0.4,0-0.8,0-1.2c2.3,0.9,4.8,0.1,7.1,0.5
		C109.1,87.4,109,87.6,108.9,87.7z"/>
	<path class="st55" d="M104.6,75.3c-0.2-0.4-0.5-0.5-0.8-0.4c-0.1,0.1-0.2,0.1-0.4,0.2c-1.4,0.6-2.9,0.3-4.3,0.7c0,0,0,0-0.1,0
		c0,0,0,0,0,0c-0.1,0-0.1-0.1-0.2-0.2c-0.1-0.1-0.1-0.2-0.2-0.3v0c-0.1-0.2-0.1-0.4-0.2-0.6c0-0.1,0.1-0.1,0.1-0.2
		c0.1-0.1,0.2-0.2,0.4-0.2c1.9,0.1,3.8-0.2,5.7,0.2C105.1,74.8,104.9,75,104.6,75.3z"/>
	<path class="st56" d="M120.9,74.5c-0.4,1.5-2,2.1-2.5,3.5c-0.1,0.1-0.3,0.1-0.4,0l0,0c0,0,0,0,0,0c0,0,0,0,0,0
		c-0.1-0.2-0.1-0.5,0.1-0.6c-0.1-0.5,0.2-0.9,0.5-1.3c0.5-0.3,0.9-0.8,1.5-1.1C120.4,74.8,120.6,74.7,120.9,74.5z"/>
	<path class="st57" d="M101.8,100.7c0,0.5-0.3,0.7-0.8,0.7c-0.8,0-1.7,0.2-2.5-0.3c0.9,0,1.8-0.1,2.9-0.2c-0.9-1.1-2.2-0.1-2.8-1.1
		c0.8,0.1,1.6,0.1,2.4,0.2C101.5,100.1,101.8,100.2,101.8,100.7z"/>
	<path class="st58" d="M113.7,100.7c0,0.5-0.3,0.7-0.8,0.7c-0.8,0-1.7,0.2-2.5-0.3c0.9-0.1,1.8-0.1,2.9-0.2
		c-0.9-1.1-2.2-0.1-2.8-1.1c0.8,0.1,1.6,0.1,2.4,0.2C113.4,100.1,113.7,100.2,113.7,100.7z"/>
	<path class="st59" d="M128.6,74.8c-0.3,0-0.6,0.1-0.9,0.1c-1.8,0.3-3.7,0.3-5.5,0c-0.2-0.1-0.3-0.3-0.5-0.4c0.1,0,0.3,0,0.4,0
		c2-0.1,4,0.4,6-0.4C128.5,74.1,128.5,74.4,128.6,74.8z"/>
	<path class="st60" d="M92.7,86.1c-0.5,1.1-0.9,2.2-2,2.8c-0.2-0.2-0.3-0.4-0.5-0.6c0,0,0-0.1,0-0.1c-0.1-0.7,0.5-1.1,0.8-1.6
		c0,0,0.1-0.1,0.1-0.1c0,0,0,0,0-0.1c0.4-0.4,0.5-1.1,1.1-1.2c0.1,0,0.2-0.1,0.4,0C92.7,85.5,92.7,85.8,92.7,86.1z"/>
	<path class="st61" d="M94.3,82.3c-0.1-0.7,0.3-1.6-0.3-2.2c0,0,0,0,0-0.1c0-0.3,0-0.5,0-0.8c0-0.1-0.1-0.1-0.1-0.2
		c-0.1-0.4-0.2-0.8,0-1.2c0-0.1,0.1-0.2,0.1-0.2C95.2,79.1,94.8,80.7,94.3,82.3z"/>
	<path class="st62" d="M97.9,80c-0.2,0.6-0.6,1.2-0.5,2c-0.1,0.1-0.1,0.2-0.1,0.3c0,0.1,0,0.3-0.1,0.4c0,0.1-0.1,0.2-0.1,0.2
		c0,0,0,0,0,0h0c-0.6,0-0.7-0.4-0.8-0.9c-0.2-0.7,0.3-1.3,0.5-2c0.2-0.2,0.4-0.3,0.6-0.3c0,0,0.1,0,0.1,0c0.1,0,0.1,0,0.2,0
		c0,0,0.1,0,0.1,0h0c0,0,0,0,0,0C97.8,79.9,97.8,79.9,97.9,80C97.9,80,97.9,80,97.9,80z"/>
	<path class="st63" d="M131.3,91.3c-1.6,1.3-3.5,0.7-5.2,0.7c-0.1-0.4,0.1-0.5,0.4-0.6c0,0,0,0,0.1,0l0,0c0.1,0,0.1,0,0.2-0.1
		c0,0,0.1,0,0.1,0c0.9-0.3,2,0.1,2.9-0.4c0.3-0.1,0.6-0.3,1-0.3c0.1,0,0.1,0,0.2,0h0C131.3,90.7,131.5,90.9,131.3,91.3z"/>
	<path class="st64" d="M80.5,75.4C80.5,75.5,80.4,75.5,80.5,75.4c0,0.2-0.1,0.2-0.1,0.2c-0.6,0.8-1.4,1.5-2.5,1.5
		c0.3-1.3,1.4-1.6,2.5-2C80.4,75.3,80.5,75.4,80.5,75.4z"/>
	<path class="st65" d="M98.8,77c0,0.2-0.1,0.3-0.1,0.5c-0.1,0.1-0.1,0.2-0.2,0.2c-0.4,0.6-0.4,1.3-0.7,1.9v0c0,0.1-0.1,0.1-0.1,0.2
		c-0.1,0.1-0.1,0.2-0.2,0.2c-0.2,0-0.5,0-0.7,0c0.4-1.3,0.8-2.6,1.2-3.9c0.1-0.1,0.3-0.1,0.4,0c0,0,0,0,0,0c0,0,0,0,0,0
		c0.1,0.1,0.2,0.3,0.3,0.4c0,0.1,0.1,0.2,0.1,0.3L98.8,77z"/>
	<path class="st10" d="M96.6,90c-0.1,0.3-0.2,0.5-0.3,0.8l-0.2,0c0,0-0.2,0-0.2,0c-0.3-0.5-1-0.8-0.8-1.6c0.2-0.3,0.2-0.6,0.2-0.9
		c0,0,0,0,0,0c0-0.3,0-0.5,0.1-0.8c0,0,0,0,0,0c0.1-0.3,0.2-0.8,0.6-0.7c0,0,0.1,0,0.1,0c0,0,0,0,0.1,0c0,0,0.1,0.1,0.2,0.1
		c0,0.1,0,0.2,0.1,0.3C96.6,88.3,96.8,89.1,96.6,90z"/>
	<path class="st66" d="M104.8,74.4h-6.2c-0.1-0.1-0.1-0.1-0.1-0.2c0-0.1,0.1-0.1,0.1-0.1C100.7,74,102.8,73.5,104.8,74.4z"/>
	<path class="st50" d="M108.2,91.1c-0.6,0.3-1.3,0.6-2,0.8c0-0.2,0-0.4-0.1-0.5c0-0.1-0.1-0.2-0.2-0.2c0.4-0.3,0.8-0.5,1.2-0.8
		c0-0.1,0-0.1,0-0.2c0-0.1,0.1-0.2,0.3-0.2c0,0,0.1,0,0.2,0C107.6,90.4,107.9,90.7,108.2,91.1z"/>
	<path class="st67" d="M96.4,86.7L96.4,86.7c0,0.1-0.1,0.1-0.1,0.1c0,0,0,0-0.1,0.1c0,0,0,0-0.1,0.1c-0.6,0.6,0.4,2-1,2.3
		c0-0.1-0.1-0.2-0.1-0.4c0.2-0.9,0-1.8,0.2-2.7c0,0,0-0.1,0-0.1v0c0.1-0.4,0.3-0.6,0.6-0.6c0.1,0,0.2,0.1,0.4,0.2c0,0.3,0,0.5,0,0.8
		C96.4,86.5,96.4,86.6,96.4,86.7z"/>
	<path class="st68" d="M91.9,74.9c-0.7,1.4-1.3,0.2-2,0c-0.1-0.1-0.2-0.2-0.2-0.3c0-0.1,0-0.3,0.2-0.4
		C90.6,74.2,91.3,74.4,91.9,74.9z"/>
	<path class="st69" d="M97.1,83.1C97.1,83.1,97.1,83.1,97.1,83.1c0,0.1-0.1,0.1-0.1,0.1c-0.5,0.4-0.2,1.2-0.8,1.5
		c-0.1,0-0.2-0.1-0.2-0.1c-0.5-0.4-0.1-0.7,0.2-1.1c-0.4-0.5-0.6-1,0-1.5c0.2,0.3,0.5,0.5,0.7,0.8c0,0,0,0,0.1,0
		C97.1,82.9,97.2,83,97.1,83.1z"/>
	<path class="st70" d="M114.2,85.8c0,0.1,0,0.1-0.1,0.2c0,0.1-0.1,0.1-0.1,0.2c-0.1,0.2-0.3,0.4-0.5,0.6c0,0-0.1,0.1-0.1,0.1
		c0,0-0.1,0.1-0.1,0.1c-0.1,0-0.2,0-0.3,0c0,0-0.1,0-0.1,0h-0.2c-0.2-0.1-0.3-0.2-0.4-0.3c0.1-0.9,0.6-1.5,1.3-2
		c0.2,0,0.4,0.2,0.5,0.3c0,0,0,0,0,0.1c0,0,0,0,0,0.1C114.3,85.4,114.3,85.6,114.2,85.8z"/>
	<path class="st71" d="M78,90.8c-0.3,0-0.5,0-0.8,0.1c-0.2,0.1-0.3,0.2-0.5,0.4c-0.7-0.2-1.3-0.6-1.6-1.2
		C76.1,89.9,77.1,90.1,78,90.8z"/>
	<path class="st72" d="M135.3,79.6c-0.1-1.1-0.3-2.1-0.4-3.2h0.7c0,0,0,0.1,0,0.1C135.5,77.6,135.9,78.6,135.3,79.6z"/>
	<path class="st73" d="M96.3,84.8c0,0.3,0,0.6,0,0.8c-0.1,0-0.3,0-0.4,0.1c-0.2,0.1-0.3,0.2-0.4,0.3c-0.1,0.1-0.1,0.1-0.2,0.1
		c0,0-0.1,0-0.1-0.1c0.3-0.9-0.1-2,1.1-2.5c-0.1,0.3-0.2,0.6-0.1,0.9C96.1,84.5,96.2,84.6,96.3,84.8z"/>
	<path class="st74" d="M95.5,87.5c0,0.3,0,0.6-0.1,0.8c0,0,0,0,0,0c-0.1,0.2-0.2,0.4-0.4,0.5c-0.5-1-0.2-1.9,0.1-2.8h0.2
		c0,0,0.1,0,0.2,0C95.4,86.5,95.5,87,95.5,87.5z"/>
	<path class="st75" d="M90.7,41.4c-0.3-1.4-0.3-2.9,0-4.3C91.3,38.5,91.3,40,90.7,41.4z"/>
	<path class="st76" d="M118.5,78c-0.4,0.7-0.8,1.3-1.2,2c-0.1,0-0.2,0-0.3,0c-0.2-0.1-0.2-0.2-0.1-0.5c-0.3-0.2-0.5-0.4-0.1-0.6
		c0.1,0,0.2-0.1,0.2-0.1c0.3-0.3,0.5-0.8,1-0.7l0,0c0,0,0.1,0,0.1,0H118.5z"/>
	<path class="st77" d="M74.9,85.7c0,0.5-0.1,0.9-0.4,1.4c0,0-0.1,0.1-0.1,0.1c0,0,0,0,0,0c-0.1,0.1-0.3,0.1-0.4,0c0,0,0,0,0,0
		c0,0,0,0,0,0c-0.4-0.9,0.1-1.9-0.3-2.8c0.1-0.3,0.3-0.6,0.4-0.8c0.1,0,0.2,0,0.3-0.1c0,0,0,0,0,0c0,0,0,0,0,0c0,0,0,0,0,0
		c0,0,0,0,0,0c0,0,0,0,0,0.1c0,0,0.1,0.1,0.1,0.1C74.8,84.4,75,85,74.9,85.7z"/>
	<path class="st78" d="M82.3,75.2c-0.7,0.1-1.3,0.3-2,0.5c0,0,0-0.1,0-0.2c0-0.1,0-0.2,0-0.4c0.2-0.6,0.6-0.7,1.2-0.7
		c0.3,0.1,0.7,0.1,0.8,0.4C82.4,74.9,82.4,75.1,82.3,75.2z"/>
	<path class="st79" d="M75.3,82.2c0.1,0.7-0.2,1.1-0.8,1.4c0,0-0.1,0-0.1,0h-0.3c0.1-0.7-0.7-1.8,0.7-2.1c0.1,0.1,0.2,0.3,0.3,0.4
		c0,0,0,0.1,0.1,0.1h0.1C75.3,82.1,75.3,82.1,75.3,82.2z"/>
	<path class="st80" d="M93.9,77.6c0,0.2,0,0.4,0,0.6c0,0.4,0,0.7,0,1.1c0-0.1-0.1-0.1-0.1-0.2c-0.4-1-0.6-2-0.7-3
		C93.9,76.2,93.9,76.9,93.9,77.6z"/>
	<path class="st81" d="M112.3,88.3c0.1,0.3,0,0.6-0.2,0.9c0,0,0,0,0,0c0,0,0,0,0,0.1c-0.1,0.2-0.3,0.3-0.6,0.3c0,0-0.1,0-0.1,0
		c-0.3,0-0.5-0.3-0.7-0.5c0.1-0.7,0.4-1.3,1.1-1.7c0.3,0.1,0.4,0.4,0.5,0.7C112.3,88.2,112.3,88.3,112.3,88.3
		C112.3,88.3,112.3,88.3,112.3,88.3z"/>
	<path class="st82" d="M116.5,81.2l-0.4,1.1l0,0c0,0,0,0,0,0c0,0-0.1,0.1-0.1,0.1c0,0-0.1,0-0.2,0c0,0-0.1,0-0.1,0
		c-0.1,0-0.1,0-0.2,0c-0.2-0.1-0.4-0.3-0.5-0.5c0.3-0.5,0.2-1.3,1.1-1.3c0.1,0,0.2,0.1,0.2,0.2C116.4,81,116.4,81.1,116.5,81.2z"/>
	<path class="st83" d="M131.3,91.3c-0.2-0.2-0.3-0.3-0.5-0.5c0-0.1,0-0.1-0.1-0.2c0-0.1-0.1-0.3-0.1-0.4c0-0.2,0-0.4,0-0.6
		c0,0,0,0,0,0c0.1-0.1,0.1-0.3,0.1-0.4c0,0,0,0,0,0c0-0.1,0.1-0.2,0.1-0.2c0.1-0.1,0.1-0.3,0.2-0.4c0,0,0-0.1,0.1-0.1
		c0-0.1,0-0.3,0-0.5c0,0,0.1,0.1,0.1,0.1C132,89.1,132,90.2,131.3,91.3z"/>
	<path class="st84" d="M74,88.8c-0.1-0.4-0.3-0.8-0.4-1.2c0-0.2,0.2-0.3,0.3-0.3c0,0,0,0,0.1,0c0.1,0,0.2,0,0.4,0c0,0,0,0,0,0
		c0.1,0,0.2,0.1,0.2,0.2c0,0.1,0.1,0.2,0.1,0.2C74.8,88.2,74.8,88.7,74,88.8z"/>
	<path class="st85" d="M112.3,88.3c0,0-0.1,0-0.1,0.1c-0.3-0.2-0.4-0.5-0.4-0.9c0-0.4,0-0.9,0.6-0.8c0.2,0,0.4,0.1,0.6,0.1
		c0,0.1,0.1,0.2,0.1,0.2C113.3,87.7,112.9,88.1,112.3,88.3z"/>
	<path class="st86" d="M115.8,82.9c0,0.1-0.1,0.2-0.1,0.3c-0.1,0.2-0.4,0.4-0.7,0.4c0,0,0,0,0,0s0,0,0,0c-0.1,0-0.2-0.1-0.2-0.2
		c-0.1-0.1-0.3-0.2-0.4-0.2c-0.3-0.7,0.6-0.8,0.7-1.3c0.3,0,0.6,0.1,0.7,0.4c0,0,0,0.1,0,0.1C115.8,82.7,115.8,82.8,115.8,82.9z"/>
	<path class="st87" d="M130.4,11.2c-0.8,0.7-1.8,0.2-2.8,0.4h-0.4c0,0-0.1-0.1-0.1-0.1c0,0,0-0.1,0-0.1c0,0,0,0,0,0
		c0-0.1,0.1-0.1,0.1-0.1H130.4z"/>
	<path class="st88" d="M114.2,85.1c0,0-0.1,0-0.1,0c-0.1-0.2-0.3-0.3-0.4-0.5c0-0.6,0.3-1,0.6-1.4c0.1,0.1,0.3,0.1,0.4,0.2
		c0.1,0,0.2,0.1,0.3,0.1c0,0,0,0,0,0C115.1,84.4,114.9,84.9,114.2,85.1z"/>
	<path class="st89" d="M130.4,79.2c-0.1,0.1-0.2,0.2-0.3,0.3c0,0-0.1,0.1-0.1,0.1c-0.9-0.8,0.3-1.6,0-2.4
		C130.5,77.8,130.4,78.5,130.4,79.2z"/>
	<path class="st90" d="M111.3,90.8c-0.1,0.1-0.2,0.3-0.4,0.4l-0.2,0l-0.2,0c0,0,0-0.1-0.1-0.1c-0.3-0.5-0.2-1,0.1-1.5
		c0-0.1,0-0.3,0-0.4c0.3,0,0.6,0.1,0.8,0.4c0,0,0,0.1,0.1,0.1C111.7,90.1,111.6,90.5,111.3,90.8z"/>
	<path class="st91" d="M74,87.2C74,87.2,74,87.2,74,87.2c-0.2,0.2-0.3,0.3-0.4,0.4v-3.1C74.3,85.3,73.8,86.3,74,87.2z"/>
	<path class="st92" d="M113.4,96.4c-0.6,0-1.1-0.1-1.8-0.1h-0.1c-0.1,0-0.2,0-0.4,0c0.9-0.5,1.8-0.1,2.5-0.7
		C113.7,95.9,113.8,96.2,113.4,96.4z"/>
	<path class="st93" d="M89.9,74.1v0.8c-0.6,0-1.3,0-2,0c0,0,0.1-0.1,0.1-0.1c0.1-0.1,0.2-0.2,0.4-0.4c0.1-0.1,0.2-0.2,0.3-0.3
		C89.1,74.1,89.5,74.1,89.9,74.1z"/>
	<path class="st31" d="M121.7,95.6c-0.1,0.6-0.2,1.2-0.4,1.8c0,0.1,0,0.1,0,0.2c-0.2,0-0.3,0-0.5,0C120.2,96.4,120.9,96,121.7,95.6z
		"/>
	<path class="st94" d="M117.3,80c-0.3,0.4-0.5,0.8-0.8,1.2c-0.1-0.1-0.1-0.2-0.2-0.3c-0.1-0.1-0.1-0.2-0.2-0.2
		c0.1-0.5,0.2-1,0.8-1.2c0.1,0.1,0.1,0.2,0.2,0.3C117.1,79.8,117.2,79.9,117.3,80z"/>
	<path class="st95" d="M118.1,77.3c0,0.2,0,0.3,0,0.5c0,0.1,0,0.1,0,0.2c0,0,0,0-0.1,0c0,0-0.1,0-0.1,0.1c-0.3,0.2-0.6,0.3-0.9,0.5
		c-0.1,0-0.2,0.1-0.2,0.1C117.1,78.2,117.1,77.3,118.1,77.3z"/>
	<path class="st96" d="M83.2,74.9c-0.2,0.3-0.5,0.4-0.9,0.3c-0.1-0.1-0.2-0.2-0.3-0.3l-0.5-0.5c0.4-0.6,0.8-0.1,1.2,0.1
		c0.1,0.1,0.2,0.1,0.3,0.2C83.1,74.7,83.2,74.8,83.2,74.9z"/>
	<path class="st97" d="M98.3,76C98.3,76.1,98.3,76.1,98.3,76c-0.2,0-0.3,0-0.4,0c0.1-0.6,0.1-1.3,0.6-1.8c0,0,0.1-0.1,0.1-0.1v0.3
		c0,0.1,0,0.3,0.1,0.5c0,0.2,0.1,0.4,0.1,0.6C98.9,75.8,98.8,76,98.3,76z"/>
	<path class="st15" d="M127.3,11.2v0.4h-1.2c-0.5,0-1.1,0-1.6,0C125.3,10.9,126.3,11.3,127.3,11.2z"/>
	<path class="st98" d="M110.6,89.6v1.6c0,0.2-0.1,0.4-0.1,0.6C109.6,91,109.7,90.3,110.6,89.6z"/>
	<path class="st99" d="M109.8,88.4c-0.3-0.1-0.5-0.2-0.8-0.4l-0.1-0.1c0,0,0,0,0,0c0,0,0,0-0.1-0.1c0,0,0-0.1,0.1-0.1c0,0,0,0,0-0.1
		c0-0.1,0-0.3,0.1-0.4C109.7,87.3,110.5,87.3,109.8,88.4z"/>
	<path class="st100" d="M174.2,62.3c0.1,0.1,0.1,0.2,0,0.3c-0.6-0.8-0.6-1.6,0-2.4c0,0.1,0.1,0.2,0.1,0.3
		C174.4,61.1,174.4,61.7,174.2,62.3z"/>
	<path class="st101" d="M120.1,74.9c-0.4,0.6-0.7,1.1-1.5,1.1C118.8,75.4,119.2,74.9,120.1,74.9z"/>
	<path class="st102" d="M126.6,91.3c-0.1,0.1-0.1,0.1-0.2,0.2c-0.1,0.1-0.2,0.3-0.3,0.4c-0.8-0.5-0.3-1.3-0.4-2
		c0.1,0.1,0.1,0.2,0.2,0.3c0.2,0.3,0.4,0.6,0.5,0.8c0,0,0,0,0,0L126.6,91.3z"/>
	<path class="st103" d="M84.7,74.8c-0.5,0-1,0-1.5,0.1c-0.1,0-0.1-0.1-0.2-0.2c-0.1-0.1-0.2-0.1-0.2-0.2c0.2-0.2,0.5-0.3,0.7-0.5
		c0.2,0.1,0.4,0.2,0.6,0.4c0.1,0.1,0.3,0.2,0.4,0.3h0C84.5,74.7,84.6,74.8,84.7,74.8z"/>
	<path class="st104" d="M130.1,77.2c-1.2-0.1-1-0.8-0.5-1.5C129.8,76.2,130,76.7,130.1,77.2z"/>
	<path class="st51" d="M174.2,62.3c0-0.4,0-0.8,0-1.2c0-0.3,0-0.6,0-1h0.4C174.6,60.9,174.6,61.6,174.2,62.3z"/>
	<path class="st105" d="M115.7,101.1c0-0.6,0-1.2,0-1.8v-0.2c0.1,0,0.3,0,0.4,0C115.8,99.8,116.4,100.6,115.7,101.1z"/>
	<path class="st106" d="M124.5,99.9c-0.6,0.7-1.3,0.6-2,0.1C123.2,100,123.8,99.9,124.5,99.9z"/>
	<path class="st107" d="M91.1,43.8c0-0.4-0.1-0.7-0.1-1.1c0.1-0.1,0.1-0.4,0.2-0.4c0,0,0,0,0,0c0.3-0.1,0.2,0.2,0.2,0.3
		C91.5,43,91.6,43.5,91.1,43.8z"/>
	<path class="st89" d="M130.8,82c-0.6-0.6-0.4-1.4-0.3-2.1c0,0.1,0.1,0.1,0.1,0.2C130.8,80.7,130.8,81.4,130.8,82z"/>
	<path class="st108" d="M115,15.2c-0.1,0.3-0.3,0.5-0.4,0.8c-0.1,0.5-0.5,0.8-0.9,1.1c-4.4,2.1-8.4,4.6-12,7.8
		c-1.1,1.1-2.2,2.1-3.2,3.3c-0.5,0.6-0.8,1.5-1.9,1.3c-0.4-2,1.2-3.1,2.2-4.3c4-4.5,9.1-7.7,14.7-9.9C114,15.1,114.5,14.9,115,15.2z
		"/>
	<path class="st109" d="M95.5,41.1c-0.3-0.1-0.5-0.3-0.8-0.4c-0.6-2.1-0.3-4.3-0.4-6.4c0.4-1.4,1.1-2.8,2-3.9
		c0.6,0.6,0.8,1.5,0.6,2.2c-0.6,2.2-0.3,4.4-0.4,6.6c0,0.7,0.1,1.5-0.5,2C95.8,41.2,95.6,41.2,95.5,41.1z"/>
	<path class="st110" d="M95.9,41c-0.2-2.2,0.4-4.4-0.1-6.8c-0.2-1,0.7-2.5,0.5-4c0-0.3,0.1-0.6,0.4-0.8c0.8-0.3,1-1.1,1.6-1.6
		c1,0.5,0.6,1.3,0.3,2c-1.2,3-1.8,6-1.2,9.2c0.1,0.7,0.1,1.5-0.6,1.9C96.4,41.2,96.1,41.3,95.9,41z"/>
	<path class="st111" d="M94.2,34.3c1,2.1,0.7,4.2,0.4,6.4c-0.1,0-0.3,0-0.4,0C92.4,38.5,93,36.4,94.2,34.3z"/>
	<path class="st112" d="M168.2,39.1c1.3,1.6,2,3.5,2.4,5.5c0.2,1,0.3,1.9,1.2,2.5c1,3.9,0.1,7.8-0.3,11.6c-0.1,0.2-0.2,0.4-0.3,0.6
		c-0.9,0.5-1.4-0.2-1.9-0.7c0-0.2,0-0.4,0.1-0.6c1-2.5,0.3-5.1,0.4-7.6c0.1-3.5-1.7-6.6-1.9-10.1C167.8,39.8,167.9,39.4,168.2,39.1z
		"/>
	<path class="st113" d="M171,59.3c0.2-4.1,0.9-8.2,0.8-12.3c0.1,0,0.3,0,0.4,0c0.3,1.1,0.5,2.1,0.8,3.2c0.3,2.7,0.7,5.3,0,8
		c0,0.1,0,0.3,0,0.4c-0.4,0.6,0,1.3-0.3,2C171.6,60.8,171.3,60.1,171,59.3z"/>
	<path class="st114" d="M168.2,39.1c0,0.4,0,0.8,0,1.2c0.2,1.5,0.6,3.1-0.1,4.6c-0.1,0.2-0.3,0.3-0.6,0.3c-0.6-0.1-1-0.5-1.1-1
		c-0.2-2-1.3-3.9-1.1-6c0.7-1.4-0.3-2.9,0.5-4.3C167.2,35.4,167.4,37.3,168.2,39.1z"/>
	<path class="st115" d="M144.3,16.4c1.5,0.2,2.6,1.4,4,2c0.6,0.6,1.2,1.2,1.5,2c0.2,0.6,0.5,1.2,0.2,1.9c-0.9,0.4-1.3-0.4-1.8-0.8
		c-0.9-0.9-1.9-1.7-2.9-2.4C145,18.2,143.1,17.8,144.3,16.4z"/>
	<path class="st116" d="M144.3,16.4c-0.6,1.3,1,1.5,1.2,2.4c-0.2,0.2-0.5,0.3-0.8,0.4c-1.1-0.1-2.1-0.6-3-1.2
		c-0.7-0.6-1.6-1.2-2.3-1.9c-0.8-0.7-0.2-1.1,0.5-1.3C141.5,15.1,143,15.6,144.3,16.4z"/>
	<path class="st117" d="M140,14.8c-0.2,0.4-1,0.6-0.1,1.1c0.8,0.5,1.4,1.1,2.1,1.6c-0.7,0.6-1.3,0.2-2,0c-2.1-1.7-4.8-2.3-7.3-3.1
		c-0.1-0.3,0-0.6,0.3-0.8c0.2-0.2,0.4-0.4,0.7-0.5C135.7,13.7,137.8,14.2,140,14.8z"/>
	<path class="st118" d="M157.5,24.7c1.4,0.9,2.7,1.8,3.6,3.2c0.3,0.8,0.6,1.6,0.1,2.4c-0.7,0.3-1-0.2-1.5-0.5c-0.8-1-1.6-1.9-2.3-3
		C157.3,26.1,157,25.4,157.5,24.7z"/>
	<path class="st119" d="M165.8,33.9c0.3,1.5,0.7,2.9,0,4.4c-0.5,0.2-0.8-0.1-1-0.4c-0.3-0.6-0.5-1.3-0.6-2.1
		c0.2-1.3-0.7-2.7,0.5-3.9C165.1,32.5,165.7,33,165.8,33.9z"/>
	<path class="st120" d="M164.6,31.9c0,1.3,0,2.6,0,4c-1.4,0.1-1.2-1.4-1.9-2c-0.1-0.3-0.2-0.6-0.3-0.9c0-0.9-1.1-2.3,1-2.3
		C164,31,164.4,31.4,164.6,31.9z"/>
	<path class="st121" d="M163.5,30.7c-1.7,0.5-0.3,1.6-0.4,2.4c-1.5-0.4-1.8-1.5-2-2.8c0.2-0.8-0.4-1.6,0-2.4
		C162,28.7,163.1,29.4,163.5,30.7z"/>
	<path class="st122" d="M157.5,24.7c0,0.7,0.6,1.3,0,2c-0.1,0.1-0.2,0.1-0.3,0.2c-1.4,0-1.8-1-2.2-2.1c-0.1-0.7-0.5-1.4,0.1-2
		C155.9,23.3,156.9,23.7,157.5,24.7z"/>
	<path class="st123" d="M149.5,20.4c-0.5-0.6-1.1-1.1-1.2-2c1.5,0.5,2.8,1.4,4,2.4c0.1,0.5,0.3,1-0.2,1.4
		C150.8,22.2,150.1,21.3,149.5,20.4z"/>
	<path class="st124" d="M152.3,21.9c-0.2-0.4-0.2-0.8,0-1.2c1.1,0.5,2,1.2,2.8,2c0.1,0.7,0.3,1.3,0.4,2c-1.1,0.6-1.4-0.7-2.1-0.9
		C152.9,23.3,152.1,22.9,152.3,21.9z"/>
	<path class="st125" d="M87.5,78.9c0.1,0.1,0.2,0.2,0.3,0.3c0.6,0.5,1,1.2,0.9,2c-0.1,0.5-0.3,1-0.2,1.5c0,0.2,0,0.3-0.1,0.5
		c-0.2,0.5-0.5,0.9-0.8,1.4c-0.5,0.7-1.1,1.3-1.8,1.7c-1.5,0.8-3.1,0.9-4.8,0.4c-0.7-0.1-1.2-0.5-1.4-1.2c-0.2-0.9-0.2-1.7,0-2.6
		c0.7-2.5,2-4.5,4.9-4.9C85.6,78,86.6,78,87.5,78.9z"/>
	<path class="st126" d="M88.3,83.2c0-0.1,0-0.3,0-0.4c0.5-0.7,0.2-1.7,0.9-2.4c1.6-0.1,3.1-0.3,4.7-0.4c0.1,1.8-0.8,3.4-1.2,5.2
		c-0.4,0.5-0.8,1.1-1.2,1.6C90.2,86.4,89,86,88.2,85C87.8,84.4,88.2,83.8,88.3,83.2z"/>
	<path class="st126" d="M74.3,83.6c0.3-0.5,0.6-1.1,0.9-1.6c1.3,0.1,2.6-0.3,3.9,0.4c0.8,0.9,0.2,2.1,0.6,3.1
		c0.1,0.6-0.1,1.1-0.8,1.1c-1,0-2,0.1-3-0.1c-1.7-0.3-0.9-2-1.5-2.9L74.3,83.6z"/>
	<path class="st127" d="M84.3,78.5c-2.4,0.5-3.6,2.3-4.3,4.4c-0.5-0.3-0.2-0.9-0.4-1.3c0.5-1.9,1.6-3.1,3.5-3.6
		C83.6,77.9,84.2,77.4,84.3,78.5z"/>
	<path class="st128" d="M79.6,81.6c0.5,0.3,0.3,0.8,0.4,1.3c0,0.9,0,1.8,0,2.7c-0.1,0.2-0.3,0.2-0.4,0c-0.6-1-0.3-2.1-0.4-3.2
		C79.3,82.1,79.4,81.9,79.6,81.6z"/>
	<path class="st129" d="M84.3,78.5c-0.3-0.5-0.8-0.4-1.2-0.4c1.7-0.6,3.2-0.8,4.4,0.9C86.5,78.5,85.4,78.5,84.3,78.5z"/>
	<path class="st130" d="M89.1,80.4c-0.3,0.8,0.6,2-0.9,2.4c-0.6-0.4-0.3-0.8,0-1.3c0.6-0.4,0-1.1,0.4-1.6
		C88.8,80.2,89,80.3,89.1,80.4z"/>
	<path class="st131" d="M88.7,80c-0.2,0.5,0.6,1.3-0.4,1.6c0.1-0.8-0.2-1.5-0.4-2.3C88.2,79.3,88.5,79.6,88.7,80z"/>
	<path class="st132" d="M95.9,41c0.3,0,0.5,0,0.8,0c0.8-0.6,1.7-0.6,2.6-0.5c1.1-0.1,1,1,1.3,1.5c3.1,5.3,8.2,7.7,13.7,9.5
		c4.8,1.6,9.5,3.3,13.9,5.6c4.6,2.5,7.3,6.5,8.1,12c0.8,6,0.6,12,0.7,18c0,0.8,0.1,1.5-0.3,2.2c-0.2,0.2-0.4,0.2-0.6,0.1
		c0-3.7,0-7.4,0-11.1c0-0.7,0.3-1.5-0.4-2.1c0.2-1.7-0.2-3.5-0.4-5.2c-0.6-5-3-8.8-7.6-11.2c-0.2-0.1-0.4-0.3-0.6-0.5
		c-2.8-1.7-6-2.7-9.1-3.8c-5.5-2.1-11.4-3.4-16.1-7.3c-2-1.6-4-3.4-4.2-6.3c0-0.5-0.8-0.3-1-0.7c-0.4,0-0.9,0.1-1.2-0.4
		C95.6,41.1,95.7,41,95.9,41z"/>
	<path class="st133" d="M96.6,41.5c0.7,0,1.1-0.2,1.3,1c0.5,2.2,2,4.1,3.8,5.4c2.2,1.6,4.4,3.2,7.1,4.2c5.3,1.9,10.6,3.9,15.9,5.9
		c0.9,0.3,1.8,0.7,2.5,1.5c-0.4,0.3-0.8,0.3-1.2,0c-1.9-0.2-3.5-1.4-5.3-2c-3.9-1.2-7.8-2.7-11.6-4.2c-3.6-1.3-7-2.9-9.7-5.7
		c-1.4-1.5-2.3-3.3-3.2-5.1C95.9,41.9,96.5,41.8,96.6,41.5z"/>
	<path class="st134" d="M126.1,59.3c0.4,0,0.8,0,1.2,0c2.9,1.5,5.3,3.4,6.7,6.5c0.8,1.8,1.3,3.5,1.2,5.5c-0.8-1.2-0.7-2.7-1.3-4.1
		C132.3,63.5,129,61.7,126.1,59.3z"/>
	<path class="st135" d="M130,81.2c0,1.5,0.6,2.9,0.4,4.4c-1.1,1.1-2.7,1.2-3.7,0.7c-2.2-1.2-4.5-0.7-6.8-1.1
		c-1.1-0.4-1.9-1.3-3.4-1.1c-1.3,0.2-1-1-0.5-1.8c0,0,0,0,0,0c1.3,0,2.7,0.1,4,0.1c0.2,0.3,0.4,0.5,0.7,0.6c0.1,0.1,0.1,0.1,0.2,0.2
		c0.1,0.1,0.1,0.3,0.1,0.4c0,0.1,0,0.2-0.1,0.4c0.9,0,1.8-0.1,2.7-0.1c0.6,0,1.3,0.1,1.4-0.9c0.1-0.4,0.2-0.7,0.5-1
		C127.1,81.5,128.5,81.2,130,81.2z"/>
	<path class="st136" d="M120.5,82.1c0.7-1.2,1.4-2.5,2.2-3.6c0.3-0.4,0.8-1.3,1.3-0.1c0,0.1,0,0.2,0,0.3c-0.9,1.6-1.2,3.7-3.1,4.6
		l-0.1-0.1C120.5,82.8,120.8,82.4,120.5,82.1z"/>
	<path class="st137" d="M125.6,82c0,0.4,0,0.8,0,1.2c-0.2,0.1-0.4,0.2-0.6,0.3c-0.4,0-0.7-0.1-0.8-0.5c-0.2-1.5-0.8-3-0.2-4.5
		c0,0,0-0.1,0-0.1c0.8,0,1.3,0.4,1.3,1.3C125.3,80.4,125,81.3,125.6,82z"/>
	<path class="st138" d="M122.1,74.9c1.8,0,3.7,0,5.5,0C125.8,75.5,124,75.5,122.1,74.9z"/>
	<path class="st139" d="M120.5,82.1c0.4,0.3,0.3,0.7,0.3,1.1c-0.2,0.2-0.5,0.5-0.8,0.3c-0.4-0.3,0-0.7,0.1-1
		C120.3,82.3,120.4,82.2,120.5,82.1z"/>
	<path class="st140" d="M171,59.3c0.5,0.4,1.1,0.8,1.6,1.2c0.2,0.3,0.2,0.5,0,0.8c0,0.1,0,0.3,0,0.4c-0.6,2.7-1.2,5.3-2,7.9
		c-1.9,6.1-4.7,11.8-8.2,17.2c-0.4,0.6-1,1.1-1,1.9c-1.3,1.5-2.6,2.9-4,4.4c-0.5,0.3-1,0.4-1.4-0.2c-0.1-1.5,0.8-2.5,1.6-3.5
		c4.7-6.3,8-13.3,10.5-20.7c0.8-2.4,1.4-5,1.8-7.5C170.2,60.5,170.1,59.7,171,59.3L171,59.3z"/>
	<path class="st51" d="M173,58.1c0-2.7,0-5.3,0-8c0.9,2.5,0.7,5.1,0.6,7.6C173.6,57.9,173.2,58,173,58.1z"/>
	<path class="st51" d="M172.6,61.3c0-0.3,0-0.5,0-0.8c0.1-0.7-0.2-1.4,0.4-2C172.8,59.5,173.3,60.5,172.6,61.3z"/>
	<path class="st141" d="M156.3,92.8c0.3,0.5,0.8,0.4,1.2,0.4c-1.9,2.5-3.9,5.1-6.1,7.4c-2,2.1-3.9,4.4-6,6.4c-0.7,0.7-1.9,1.1-3,0.9
		c-0.4-1.1,0.5-1.8,0.7-2.7c0.9-1.4,1.4-3.1,2.7-4.3c1,0.5,1.6,0.2,2.1-0.8c0.3-0.6,0.9-1,1.4-1.4c1.5-1.3,3.1-2.4,3.9-4.3
		c0.1-0.2,0.2-0.3,0.3-0.5C154.3,93.3,154.8,91.9,156.3,92.8z"/>
	<path class="st142" d="M143.5,105.5c-0.4,0.8-0.7,1.6-1.1,2.4c-0.5,0.3-0.7,0.7-0.9,1.2c-1.3-0.4-2.6-1.3-3.9,0.3
		c-0.4,0.5-1.2,0.3-0.8-0.7c0.3-0.8,0.5-1.6,0.8-2.3c0.1-0.1,0.2-0.1,0.3-0.1c1-1,2.1-1.9,3.6-2.1
		C142.8,104,143.5,104.1,143.5,105.5z"/>
	<path class="st143" d="M136.8,108.6c0,0.5,0.4,0.8,0.7,0.4c1.4-2.1,2.7-1.4,4,0c-0.4,1.1-1.2,2-2,2.8c-1-0.9-2.9-0.5-3.1-2.4
		C136.5,109.2,136.7,108.9,136.8,108.6z"/>
	<path class="st144" d="M79.6,85.6c0.1,0,0.3,0,0.4,0c0.3,0.5,0.6,0.8,1.2,0.9c0.3,0.2,0.3,0.4,0.1,0.7c-2.1,1.3-4.3,0.9-6.5,0.4
		c-0.1-0.1-0.3-0.3-0.4-0.4c0-1.2,0-2.4,0.1-3.6c0.2,0.1,0.4,0.1,0.5,0.3c0.5,0.6-0.3,1.8,0.8,2c1.2,0.3,2.4,0.2,3.6,0.2
		C79.4,86.1,79.5,85.8,79.6,85.6z"/>
	<path class="st145" d="M88.3,84.8c0.9,0.9,2.4,0.8,3.2,2c-0.4,0.5-0.8,1.1-1.2,1.6c-0.1,0-0.3,0-0.4,0c-0.5-0.6-1.1-1.1-1.9-0.7
		c-0.9,0.4-1.5-0.1-2.1-0.5c-0.2-0.6,0.4-0.8,0.6-1.3c0.3-0.3,0.6-0.6,0.9-0.9C87.6,84.8,87.9,84.6,88.3,84.8z"/>
	<path class="st71" d="M86.3,90.4c0,0.1,0,0.3,0,0.4c-2,0.4-4,0.5-6.1,0.4c-0.6,0-1.3,0.2-1.9-0.4c0.4-0.2,0.6-0.9,1.1-0.8
		C81.7,90.5,84.1,89.4,86.3,90.4z"/>
	<path class="st146" d="M86.7,86c0.1,0.6-0.5,0.8-0.8,1.2c-1.6,0.3-3.1,0.8-4.7,0c0-0.2-0.1-0.5-0.1-0.7c1.6,0.3,3.2,0.1,4.8-0.5
		C86.1,86,86.4,85.8,86.7,86z"/>
	<path class="st99" d="M96.2,86.8c0-0.1,0-0.2,0-0.4c0.3,1.3,1.2,1.6,2.4,1.6c1.1,0,2.1,0,3.2,0c0.1,0,0.3,0,0.4,0
		c2.2-0.3,4.4-0.2,6.7,0c0,0,0.1,0.1,0.1,0.1c-0.5,0.7-1.1,1.3-1.6,2c-0.1,0.1-0.3,0.2-0.4,0.4c-1-0.8-2,0-3,0
		c-2.1,0.1-4.2-0.4-6.4-0.2c-0.6,0-0.9,0.4-1.3,0.6C96.2,89.4,96.2,88.1,96.2,86.8z"/>
	<path class="st147" d="M98.6,77.2c0-0.1,0-0.2,0-0.3c0-0.5,0.1-0.9,0.4-1.2c1.4-1.6,3.2-0.5,4.8-0.8c-0.6,1.2-0.8,2.6-1.2,3.9
		c-0.1,0.4-0.3,0.8-0.4,1.2c-1,0.7-2.1,0.9-3.2,0c-0.4,0-0.7,0-1.1,0c0,0-0.2,0-0.2,0C97.6,79,98,78.1,98.6,77.2z"/>
	<path class="st148" d="M99,80c1.1,0,2.1,0,3.2,0c-0.4,2-1.5,3.9-1.6,6c-0.6-0.3-0.1-1.9-1.6-1.4c-0.4,0.1-0.1-0.9-0.2-1.4
		c-0.1-0.4,0.5-0.5,0.7-0.3c0.7,0.7,1.1,0.3,1.3-0.3c0.3-0.6-0.3-1-0.7-1.2C99.6,81.1,98.4,81.2,99,80z"/>
	<path class="st148" d="M97.1,83.2c0-0.1,0-0.3-0.1-0.4c0.1-0.3,0.3-0.5,0.4-0.8c-0.1,0.7,0.5,1,0.7,1.6
		C97.6,83.9,97.4,83.3,97.1,83.2z"/>
	<path class="st149" d="M132.9,13.7c-0.1,0.2-0.1,0.4-0.2,0.6c-0.1,0.5-0.4,0.7-0.9,0.7c-2.7-0.3-5.4-0.2-8,0.5
		c-1,0.2-2,0.6-3.1,0.3c-0.7-1.4,0.7-1.3,1.3-1.8c2.9-0.4,5.8-1.1,8.8-0.8C131.6,13.3,132.4,13,132.9,13.7z"/>
	<path class="st150" d="M122.1,14c-0.5,0.5-1.1,1.1-1.6,1.6c-0.1,0.1-0.1,0.1-0.2,0.2c-1.9,0.8-3.8,1.3-5.6,2.5
		c-0.7,0.4-1.3,0.2-1.6-0.6c-0.1-0.5,0.2-0.7,0.5-0.9c0.3-0.3,0.6-0.5,0.9-0.8C117.2,15.6,119.5,14.2,122.1,14z"/>
	<path class="st151" d="M140.7,99.9c0-0.2,0-0.5,0-0.7c0.3-0.9,0.3-2,0.9-2.8c0.3-0.6,0.4-1.4,1-1.9c0.2-0.1,0.3-0.1,0.5-0.1
		c0.9,0.3,1.7-0.2,2.4-0.4c1.4-0.4,2.5-0.2,3,1.3c0,0.2,0.1,0.4,0,0.6c-0.6,1.4-0.7,3-2.1,4c-0.9-0.3-1.5,0.2-2.2,0.6
		c-0.8,0.4-1.5,0.9-2.4,0.8C141.2,101.1,140.3,101,140.7,99.9z"/>
	<path class="st152" d="M140.7,99.9c0.9,1.8,2,0.4,3,0.1c0.8-0.3,1.5-1.4,2.6-0.4c0.4,0.7,0,1.1-0.5,1.6c-0.8,1.5-1.6,2.9-2.4,4.4
		c-0.9-1.3-3.5-1.2-4.5,0.3c-0.3,0.5-0.5,0.9-1.1,0.4c0.3-0.9,0.3-1.8,0.9-2.6c0.1-0.6,0-1.3,0.7-1.7
		C140,101.2,140.4,100.6,140.7,99.9z"/>
	<path class="st153" d="M142.8,94.4c-0.1,0.7-0.4,1.4-0.8,1.9c-0.8,0.1-1.6,0.4-2.5,0.4c-1.7-0.1-3.1-0.5-3.5-2.4c0-0.4,0-0.8,0-1.2
		c0-1.2,0-2.4,0-3.6c0.1,0,0.3,0,0.4,0c0.4,0.3,0.4,0.8,0.5,1.2c0.4,2.6,1.3,3.2,3.9,2.7c0.5-0.1,0.9-0.3,1.4-0.2
		C142.8,93.4,143.1,93.8,142.8,94.4z"/>
	<path class="st154" d="M136,94.4c1.4,1.9,2.7,2.3,5,1.6c0.5-0.1,0.9-0.4,1,0.4c-0.3,1-0.5,2-1.2,2.8c-0.1-0.7-0.5-0.8-1.1-0.8
		C136,97.9,136,97.9,136,94.4z"/>
	<path class="st155" d="M139.6,101.9c-0.1,0.6-0.3,1.2-0.7,1.7c-0.1-0.1-0.2-0.3-0.3-0.3c-2.9-0.2-3-0.3-3-3c1.2,0.4,2.2,1.6,3.7,1
		C139.3,101.3,139.5,101.7,139.6,101.9z"/>
	<path class="st156" d="M116.9,96.4c0.6,0.2,1.6,0,1.5,1.1c-0.7,0.5-1.4,0.4-2.2,0.4C115.9,97.1,116,96.5,116.9,96.4z"/>
	<path class="st157" d="M112.1,88.4c0.3-0.5,0.8-0.9,0.8-1.6c0.1,0,0.2,0,0.4,0c1.2,0.3,2.8-0.3,3.6,1.2c-0.1,0.5-0.3,1-0.4,1.5
		c-0.1,0-0.3,0-0.4,0c-1.5,0.6-3,0.9-4.3-0.4C111.9,88.9,112,88.7,112.1,88.4z"/>
	<path class="st158" d="M111.8,89.2c1.4,0.5,2.9,0.3,4.3,0.4c-0.4,1.5-1.5,1.7-2.9,1.6c-0.8-0.1-1.5,0-2.3,0c0.1-0.5,0.3-1,0.4-1.5
		C111.5,89.5,111.7,89.3,111.8,89.2z"/>
	<path class="st159" d="M116.9,88c-1-1-2.7-0.1-3.6-1.2c0.1-0.3,0.3-0.5,0.4-0.8c0.6-0.3,1.2-0.7,2-0.5c1.4,0.3,2.7-0.1,3.9-0.7
		c1.3,0,2.6,0,4,0c0.9,0,1.8-0.1,2.5,0.8c0.4,0.6,1.3,0.5,1.8,0.3c0.8-0.3,1.7-0.1,2.5-0.3c0.7,0.7,0.3,1.6,0.4,2.4
		c-1.6,0-3.3,0.6-4.8-0.4c-0.3,0.2-0.5,0.5-0.8,0.7c0-0.1,0-0.2,0-0.3C122.5,87.7,119.7,87.6,116.9,88L116.9,88z"/>
	<path class="st160" d="M126.4,89.6c-0.3-0.2-0.3-0.5-0.3-0.8c1.7-1.1,3.3-0.7,4.9,0.1c0.2,0.9-0.2,1.4-1.1,1.6
		C128.6,90.8,127.3,90.9,126.4,89.6z"/>
	<path class="st161" d="M126.4,89.6c1.1,0.6,2.3,0.7,3.5,0.4c0.8-0.2,0.9-0.6,0.9-1.2c-0.1-0.1-0.1-0.2-0.1-0.3
		c0-0.1,0.1-0.1,0.1-0.1c0.1,0,0.3,0,0.4,0c0,0.8,0.1,1.6-0.4,2.4c-0.3,0.1-0.5,0.3-0.8,0.4c-1.2,0.3-2.4,0.3-3.6,0c0,0-0.1,0-0.1,0
		C126.4,90.6,126.4,90.1,126.4,89.6z"/>
	<path class="st162" d="M130.8,88.4c0,0.1,0,0.3,0,0.4c-1.6,0.3-3.1-0.5-4.7,0c0-0.4-0.1-0.8-0.1-1.2c1.2-0.1,2.4,0,3.5-0.2
		c0.7-0.1,0.9,0.4,1.3,0.6C130.8,88.1,130.8,88.2,130.8,88.4z"/>
	<path class="st157" d="M116.9,88c2.8-0.7,5.6-0.6,8.3,0C122.5,88,119.7,88,116.9,88z"/>
	<path class="st163" d="M108.9,87.9c-2.2,0-4.4,0-6.7,0c2.2-0.8,4.4-0.2,6.7-0.3C108.9,87.7,108.9,87.8,108.9,87.9z"/>
	<path class="st164" d="M99,75.7c0,0.5,0,0.9-0.4,1.2c-0.3-0.2-0.4-0.5-0.4-0.9c0.5-0.3,0.4-0.7,0.5-1.2
		C98.8,75.2,98.9,75.4,99,75.7z"/>
	<path class="st165" d="M98.6,77.2c-0.3,0.9-0.6,1.9-0.9,2.8c-0.1,0-0.2,0-0.3,0C97.5,79,97.3,77.8,98.6,77.2z"/>
	<path class="st83" d="M126.5,91.2c1.2,0,2.4,0,3.6,0c-1.1,0.8-2.4,0.2-3.6,0.4C126.4,91.4,126.5,91.3,126.5,91.2z"/>
	<path class="st166" d="M119.7,84.8c-0.5,0.8-1.3,1.1-2.1,1.2c-1.3,0-2.5,0-3.8,0c0.1-0.3,0.2-0.5,0.3-0.8c0.3-0.5,0.6-1,0.8-1.5
		c0.3-0.4,0.5-0.8,0.8-1.3c0.1,0,0.3,0,0.4,0c-0.1,1.1-0.3,2.1,1.4,1.3C118.6,83.1,119,84.4,119.7,84.8z"/>
	<path class="st167" d="M113.7,16.7c-0.1,0.3-0.3,0.5-0.4,0.8c0,1-0.6,1.6-1.5,1.9c-2.5,0.8-4.1,2.7-5.8,4.5
		c-4.3,4.6-5.3,9.9-3.7,15.9c-0.6,1.2-1.7,0.9-2.8,0.9c-1.1,0.1-1.4-0.6-1.4-1.4c-0.1-4.1-0.4-8.3,2.2-12c0.6-0.8,1.2-1.6,1-2.7
		C105,21.2,109.1,18.6,113.7,16.7z"/>
	<path class="st168" d="M101.4,24.7c0.2,0.3,1.4-0.3,0.5,1c-3,4-3.7,8.7-3.3,13.6c0.1,0.6,0,1.2,0.8,1.3c0.1,0.1,0.2,0.2,0.1,0.3
		c0,0.1-0.1,0.1-0.1,0.1c-0.9,0-1.8,0-2.8,0c0.2-0.5,0.4-0.9,0.3-1.5c-0.8-3.5-0.1-6.9,1.4-10.1c0.3-0.6,0.2-1,0-1.5
		C99.1,26.7,100.2,25.6,101.4,24.7z"/>
	<path class="st169" d="M156.3,92.8c-1.4-0.2-1.8,1.2-2.8,1.6c-0.7-0.9,0-1.6,0.5-2.2c1.1-1.6,2.5-3,3.2-4.8
		c5.9-8.1,9-17.4,11.3-27.1c0.2-0.7,0.2-1.3,0.9-1.7c0.7-0.1,1,0.6,1.6,0.8c-0.7,3-1.1,6.1-2.1,9c-2.5,7.5-5.8,14.6-10.6,21
		C157.5,90.4,156.9,91.6,156.3,92.8z"/>
	<path class="st170" d="M169.4,58.5c-0.7,5-2.3,9.8-4.2,14.5c-2,5.1-3.9,10.4-7.8,14.5c-0.3,0.2-0.5,0.3-0.8,0.1
		c-0.4-1.8,0.8-2.9,1.7-4.2c1.4-2.1,2.5-4.3,3.1-6.8c0.2-0.9,0.5-1.8,1-2.6c2.4-4.1,3.3-8.7,4.5-13.2c0.3-1.1,0.4-2.4,1.6-3
		c0.3-0.1,0.6,0,0.9,0.2C169.4,58.3,169.4,58.4,169.4,58.5z"/>
	<path class="st171" d="M169.4,58.1c-0.3,0-0.5,0-0.8,0c-0.4-0.2-1,0.1-1.3-0.4c-0.1-0.2-0.1-0.4,0-0.6c0.9-2.9,0.5-5.8,0.3-8.6
		c-0.1-1.2-0.4-2.4,0.3-3.5c0.4-1.6,0.5-3.2,0.4-4.8c0.7,4.2,2.8,8.2,2,12.7c-0.2,1.1,0.1,2.3,0.2,3.4
		C170.6,57.2,170.4,57.9,169.4,58.1z"/>
	<path class="st172" d="M167.8,45c0.2,3.5,0.7,6.9,0.4,10.4c-0.1,0.8-0.2,1.4-0.8,1.9c-0.8,0.6-1.7,0.6-2.6,0.3
		c-0.2-0.1-0.3-0.3-0.3-0.5c0.1-0.2,0.2-0.4,0.4-0.5c1.1-0.5,1.2-1.4,1.2-2.4c0-2.5-0.2-4.9-0.2-7.4c0.4-0.7,0.5-1.6,1.5-1.8
		C167.5,45,167.7,45,167.8,45z"/>
	<path class="st173" d="M167.4,45c-0.6,0.4-0.4,1.4-1.2,1.6c-0.3,0.5-0.6,0.8-1.2,0.8c-0.3,0-0.6-0.1-0.8-0.3c0-1,0-2,0.1-3
		c0.1-1.4,0-2.7,0-4.1c0-0.8,0.1-1.6,0.7-2.2c0.3,0.1,0.5,0.3,0.8,0.4C166,40.6,166.6,42.8,167.4,45z"/>
	<path class="st174" d="M152.3,21.9c0.4,0.5,0.8,1.1,1.2,1.6c0.9,0.6,0.8,1.6,0.7,2.5c-1.1,0.3-1.6-0.5-2.1-1.1
		c-0.6-0.8-1.3-1.3-2-1.8c-0.2-0.2-0.4-0.4-0.2-0.7c-0.1-0.7-0.3-1.3-0.4-2C150.5,20.8,151.2,21.8,152.3,21.9z"/>
	<path class="st175" d="M149.9,22.3c0.1,0.1,0.3,0.3,0.4,0.4c0.2,0.3,0.4,0.7,0.4,1.1c0,0.5-0.1,1-0.6,1.3c-0.9-0.3-0.9-1.2-1.3-1.9
		c-0.8-1.3-1.8-2.2-3.1-3c-0.6-0.4-1.4-0.6-1-1.6c0.3,0,0.5,0,0.8,0C147.4,19.5,148.3,21.3,149.9,22.3z"/>
	<path class="st176" d="M144.7,18.8c0.2,0.6,0.6,0.8,1.2,1.1c2,1.2,3.8,2.7,4,5.2c0,0.1,0,0.2,0,0.3c-0.1,0.6-0.2,1.2-0.9,1.4
		c-0.3-0.1-0.5-0.3-0.6-0.5c-0.2-0.3-0.3-0.7-0.4-1.1c-0.5-4-5.8-6.4-9.4-6.7c-1.5-0.1-2.9,0.1-4.3,0.4c-1.5,0.4-3,0.3-4.3-0.7
		c-0.2-1.2,0.7-1.9,1.1-2.8c0.3-0.3,0.7-0.5,1.1-0.4c2.7,0.3,5.2,1.3,7.8,2.1c0.7,0.1,1.3,0.3,2,0.4
		C142.8,18.1,143.7,18.5,144.7,18.8z"/>
	<path class="st177" d="M140,17.2c-2.8,0-5.4-0.9-8-2c-0.1-0.1-0.1-0.2-0.1-0.2c0-0.1,0.1-0.1,0.1-0.1c0.2-0.2,0.5-0.4,0.7-0.5
		C135.4,14.5,138,15.2,140,17.2z"/>
	<path class="st178" d="M161,30.3c0.9,0.7,1,2.1,2,2.8c0,0.3,0,0.5,0,0.8c0.3,1.2,1.4,2.3,0.2,3.6c-1,0.4-1.3-0.5-1.7-1
		c-0.4-0.7-0.9-1.4-1-2.2c-0.1-0.9-0.4-1.8-0.7-2.7c-0.2-0.7-0.6-1.3,0-2C160.2,29.8,160.6,30,161,30.3z"/>
	<path class="st179" d="M159.8,29.5c0,1.7,1.4,3,1.2,4.8c-0.2,0.2-0.5,0.3-0.8,0.3c-1.1-0.5-1-1.9-1.8-2.6c-0.1-0.2-0.2-0.4-0.3-0.5
		c-0.6-1.5-1.5-3-0.7-4.7c0,0,0,0,0,0C158.6,27.3,159.1,28.5,159.8,29.5z"/>
	<path class="st180" d="M163,37.5c0.9-1.2-0.2-2.4,0-3.6c1,0.3,0.6,1.7,1.6,2c0.1,0.7,0.3,1.3,0.4,2c-0.4,2.1,0.2,4.3-0.4,6.4
		C163.6,42.1,162.2,40,163,37.5z"/>
	<path class="st181" d="M157.5,26.7c0,1.7,0.5,3.2,1.2,4.8c-1.7,0.4-1.6-1.5-2.6-2c-0.6-0.6-1.1-1.2-1.6-1.9c-0.2-0.5-0.5-1-0.2-1.6
		c-0.8-0.6-0.3-1.7-0.8-2.4c1-0.1,1.1,1.2,2,1.2C155.7,25.8,156.4,26.5,157.5,26.7z"/>
	<path class="st182" d="M88.3,84.8c-0.3,0.1-0.5,0.3-0.8,0.4c-0.3-0.3-0.2-0.6,0-0.8c0-0.6,0.2-1,0.8-1.2
		C89.1,83.7,88.2,84.3,88.3,84.8z"/>
	<path class="st183" d="M87.5,84.4c0,0.3,0,0.6,0,0.8c-0.2,0.4-0.4,0.6-0.8,0.8c-0.3,0.1-0.6,0.4-0.8-0.1
		C86.4,85.4,86.8,84.7,87.5,84.4z"/>
	<path class="st184" d="M99.4,41c0-0.1,0-0.3,0-0.4c1-0.1,1.9-0.3,2.8-0.8c0.2-0.1,0.3-0.2,0.5-0.2c2.2,6.1,7.7,8.1,13,10.2
		c2.2,0.9,4.5,1.6,6.7,2.4c3.3,1.5,6.6,2.9,9.4,5.3c1.7,1.4,3,3.1,3.8,5.2c0.9,3.1,1.2,6.4,1.6,9.6c0.1,0.8,0.1,1.6,0.3,2.3
		c0.2,3,0.2,6,0,9c-0.5,1.1-0.1,2.3-0.7,3.4c-0.2,0.2-0.4,0.3-0.6,0.1c0-3.8,0.2-7.7-0.1-11.5c-0.3-4-0.3-8-2.2-11.8
		c-1.6-3.2-4.2-5.4-7.3-6.9c-5.2-2.4-10.7-4.2-16.1-6.3c-4.5-1.7-8.4-4.2-10.7-8.7C99.8,41.8,100.4,40.9,99.4,41z"/>
	<path class="st185" d="M136.4,87.2c0.1,0,0.3,0,0.4,0c0.5,0.4,0.5,1.1,0.6,1.6c0.6,2,2,2.7,4.1,2.1c0.9-0.2,1.8-0.3,2.6,0.3
		c0.3,1.2,0,2.2-1,3c-0.1,0.1-0.2,0.1-0.3,0.2c-0.2-1.4-1.1-0.6-1.6-0.4c-1.6,0.6-2.9,0.3-4.2-0.8c-1.2-1.1-0.3-2.5-0.6-3.7
		C136.4,88.8,136.4,88,136.4,87.2z"/>
	<path class="st186" d="M124,78.5c0.2,1.6,0.7,3.1,0.5,4.7c-1.1,1.4-2.3,0.8-3.6,0.3c0-0.1,0-0.2,0-0.3
		C122.1,81.8,122.6,79.8,124,78.5z"/>
	<path class="st187" d="M125.3,83.2c0.1,0,0.2,0,0.3,0c0.1,0.8-0.2,1.2-1.1,1.2c-1.5,0-3,0-4.5,0c0.1-0.2,0.2-0.4,0.2-0.4
		c0.2-0.1,0.4-0.1,0.6-0.1C122.3,83.4,124,84.4,125.3,83.2z"/>
	<path class="st188" d="M125.3,83.2c-0.3,1.3-1.4,0.7-2.1,0.8c-0.8,0.1-1.6,0-2.3,0c0-0.1,0.1-0.3,0.1-0.4c1.2-0.1,2.5,0.4,3.6-0.3
		C124.8,83.2,125,83.2,125.3,83.2z"/>
	<path class="st189" d="M156.7,87.6c0.3,0,0.5,0,0.8,0c-0.4,2-2,3.3-3.1,4.9c-0.4,0.6-1,1.1-0.9,1.9c-1,1.9-2.9,3-4,4.8
		c-1.4,0.7-1.9,2.4-2.9,3.4c-1.2-0.2,0.6-1.4-0.7-1.4c0.2-0.5,0.3-1,0.5-1.6c0.7-1.3,1.3-2.7,2-4c0.7,0.1,1.3-0.1,1.9-0.7
		c1.6-1.7,3-3.6,4.4-5.5C155.1,88.7,155.4,87.5,156.7,87.6z"/>
	<path class="st169" d="M149.5,99.1c0.6-2.2,2.5-3.3,4-4.8C153.1,96.7,151,97.7,149.5,99.1z"/>
	<path class="st190" d="M132,14.8c0,0.1,0,0.2,0,0.4c-0.2,0.2-0.5,0.4-0.7,0.5c-1.8,0.9-3.8,0.2-5.7,0.7c-1.6,0.5-3.3,0.6-4.8,1.4
		c-1.6,1.3-3.7,1.7-5.3,3c-0.3,0.2-0.6,0.2-0.9,0c-0.3-0.7-0.1-1.4,0.2-2c1.5-1.9,3.8-2.2,5.8-3.2c0,0,0,0,0,0
		c2.8-0.4,5.5-1.3,8.4-1.3C130,14.3,131.1,14.2,132,14.8z"/>
	<path class="st191" d="M120.5,15.6c-1.9,1.1-3.7,2.1-5.6,3.2c-1,1.1-1.7,2.8-3.7,2c-0.3-0.7,0-1.2,0.6-1.6c0.5-0.5,1-1.1,1.5-1.6
		c0.5,0.6,1,0.6,1.7,0.1C116.6,16.5,118.5,15.8,120.5,15.6z"/>
	<path class="st192" d="M156.7,87.6c-2.4,2.6-4.1,5.6-6.5,8.1c-1.1,1.1-1.3,0.8-1.8-0.2c0-0.1,0-0.3-0.1-0.4
		c-0.4-1.6,0.6-2.6,1.3-3.7c1.3-0.1,2-0.9,2.8-1.9c2.9-3.6,5.6-7.5,7.9-11.6c0.3-0.5,0.6-0.9,1-1.2c0.2-0.1,0.4,0,0.5,0.1
		c-0.5,2.6-1.6,4.9-3.2,6.9C157.8,85,157.1,86.2,156.7,87.6z"/>
	<path class="st193" d="M149.9,91.6c-0.5,1.2-1.1,2.4-1.6,3.6c-0.7-1.1-1.5-1.5-2.8-0.8c-0.7,0.4-1.6,0.9-2.4-0.1
		c0.3-1,0.6-2.1,0.9-3.1c-0.1-0.6-0.1-1.1,0.6-1.3c1.5,0.2,2.5-0.7,3.7-1.4c2.3-1.4,2.3-1.4,2.4,1.3
		C150.7,90.5,150.5,91.1,149.9,91.6z"/>
	<path class="st194" d="M102.6,39.8c-0.1,0-0.3,0-0.4,0c-1.5-1.1-1.1-2.9-1.1-4.2c-0.1-4.6,1.3-8.8,4.7-12.1
		c0.2-0.2,0.5-0.3,0.8-0.1c0.5,0.7,0,1.3-0.4,1.8c-2.8,3.8-3.7,8-2,12.5c0.2,0.5,0,0.9-0.2,1.3c0,0.2-0.1,0.3-0.2,0.5
		C103.5,39.9,103,39.6,102.6,39.8z"/>
	<path class="st195" d="M106.6,23.5c-0.3,0-0.5,0-0.8,0c1.9-1.6,3.2-4.1,6.1-4.3c-0.2,0.5-0.4,1-0.6,1.5c0,0.5-0.4,0.8-0.8,1
		C108.9,21.9,108.2,23.6,106.6,23.5z"/>
	<path class="st196" d="M161.8,76.8c-0.1,0-0.3,0-0.4,0c-0.7-0.8-0.3-1.6,0-2.4c0.9-2.4,2-4.9,2.7-7.4c0.5-1.7,0.8-3.4,0.7-5.2
		c0-0.9,0.3-1.8,0.4-2.8c0.2-1.3,0.8-1.9,2.2-1.3c0.4,0,0.9-0.1,1.2,0.4c-1.2,1.2-1.2,2.9-1.5,4.4C166,67.6,163.9,72.2,161.8,76.8z"
		/>
	<path class="st197" d="M167.4,57.8c-1.1-0.1-1.7,0.3-1.6,1.5c0,1-0.2,1.9-0.4,2.9c-0.8,3.8-2,7.5-3.6,11.1
		c-2.4,5.3-5,10.5-9.1,14.7c-1.4,1.4-1.1-0.7-1.5-1.2c-0.1-1.1,0.5-2.1,0.6-3.2c0.1-0.8,0.4-1.6,1.2-2c0.8,0.1,1.3,0,1.8-0.8
		c4.4-6.5,7.3-13.7,9.1-21.4c0.2-0.6,0.1-1.3,0.3-2c0.1-0.2,0.3-0.2,0.5-0.1c0.9,0,1.9,0,2.8,0C167.4,57.5,167.4,57.6,167.4,57.8z"
		/>
	<path class="st198" d="M164.6,57.4c-0.1,0-0.3,0-0.4,0c-1.7,1.3-1.8,3.2-2.1,5c-0.9,5.7-3.4,10.8-6.2,15.7c-0.3,0.5-0.6,1-1.2,0.9
		c-1-0.2-0.5-1.2-0.8-1.8c-0.2-1.6,0.5-3.1,0.7-4.6c0.4-1,0.2-2.3,1-3.2c0.7-0.2,1.1-0.7,1.4-1.5c1.1-2.8,2.1-5.6,2.7-8.6
		c0.2-1,0.4-2.1,1.4-2.7c0.7-0.3,1.5-0.2,2.2-0.2c0.5,0,0.9,0.1,1.2,0.5C164.6,57.1,164.6,57.2,164.6,57.4z"/>
	<path class="st199" d="M164.6,57c-0.4,0-0.8,0-1.2,0c-0.5-0.2-0.6-0.7-0.6-1.1c0.4-2.9,0.3-5.9,0.5-8.8c0.3-0.2,0.6-0.2,0.9,0
		c0.3,0,0.5,0,0.8,0c0.8,0.8,1,1.8,1,2.9c0,2.4,0.1,4.8-1,7.1C164.9,57,164.7,57,164.6,57z"/>
	<path class="st200" d="M165,57c-0.3-2,0.5-3.9,0.4-5.9c0-1.4-0.2-2.7-0.4-4.1c0.4-0.1,0.8-0.3,1.2-0.4c0.6,2.7,0.3,5.5,0.5,8.3
		C166.8,56.2,166.3,56.9,165,57z"/>
	<path class="st201" d="M164.2,47c-0.3,0-0.5,0-0.8,0c-0.6,0-1-0.3-1-1c0-2.7,0.1-5.3-0.7-7.9c-0.2-0.6-0.4-1.3,0.1-1.8
		c0.4,0.4,0.8,0.8,1.2,1.2c0,2.4,1.4,4.4,1.6,6.8C164.4,45.1,165.4,46.2,164.2,47z"/>
	<path class="st202" d="M154.3,25.9c0.3,0.5,0.5,1,0.4,1.6c-0.2,0.2-0.5,0.3-0.8,0.3c-1.4-0.7-1.9-2.4-3.2-3.2
		c-0.1-0.2-0.2-0.5-0.4-0.7c0-0.4,0-0.8,0-1.2c1,0.4,1.7,1.1,2.3,2C152.9,25.3,153.5,25.9,154.3,25.9z"/>
	<path class="st203" d="M150.3,23.9c0.1,0.1,0.3,0.3,0.4,0.4c0.8,1.4,1.6,2.7,2.3,4.1c0.2,0.6,0.2,1.3-0.2,1.8
		c-2.4-0.7-3.4-2.6-2.9-5.2c0,0,0,0,0,0C150.4,24.8,150.3,24.4,150.3,23.9z"/>
	<path class="st204" d="M130,17.9c1.5,0.9,3.1,0.8,4.7,0.4c4.6-1.1,8.5,0.2,12,3.3c1.2,1.1,1.7,2.3,1.6,3.9c0.1,0.9-0.7,1.1-1.2,1.5
		c-0.6,0.2-1.3,0.6-2,0.2c-0.4-0.6,0-1.2,0.1-1.8c0.2-0.8,0.1-1.5-0.5-2.1c-2.1-2.7-4.9-3.5-8.1-3.2c-1-0.1-2.1,0.1-3.1,0.3
		c-1.6,0.1-3.1,0-4.2-1.3c-0.1-0.3-0.1-0.6,0-1C129.6,17.9,129.8,17.8,130,17.9z"/>
	<path class="st205" d="M147.1,26.7c0.4-0.4,0.8-0.8,1.2-1.2c0.3,0.2,0.4,0.5,0.4,0.8c-1.4,2.1,0.9,3.3,1.2,5
		c-0.1,1.7,1.5,3.1,0.9,4.9c-1,0.4-1.2-0.4-1.5-0.9c-0.7-1.2-1.2-2.4-2-3.5c-0.5-1.4-1.9-2.1-2.1-3.6c0-0.2,0.1-0.4,0.2-0.5
		C145.9,27.1,146.6,27,147.1,26.7z"/>
	<path class="st206" d="M130,17.9c-0.1,0-0.2,0-0.4,0.1c-2-0.8-4.1-0.8-6.2-0.4c-1,0.2-2,0.8-3-0.1c0.2-0.4,0.6-0.7,1.1-0.8
		c3.2-0.7,6.4-1.5,9.8-1.1C130.9,16.4,130.4,17.2,130,17.9z"/>
	<path class="st207" d="M149.9,25.1c-0.5,2.5,1.6,3.6,2.8,5.2c0.8-0.1,0.7,0.6,0.9,1.1c0,0.4,0,0.8-0.2,1.2c-0.5,0.5-0.9,0-1.2-0.3
		c-0.6-0.6-1.1-1.3-1.7-1.8c-0.6-0.6-1-1.3-1.5-2c-0.5-0.6-0.6-1.3,0.2-1.8C149.4,26.2,149.6,25.7,149.9,25.1z"/>
	<path class="st208" d="M149.1,26.7c-0.8,1.8,1.2,2.3,1.6,3.6c0.4,0.7,0.8,1.4,0.5,2.3c-1.5,0.5-1.2-1-1.7-1.5
		c-0.3-0.5-0.5-1.1-1-1.4c-1.4-1.2-1-2.3,0.2-3.3C148.8,26.5,149,26.6,149.1,26.7z"/>
	<path class="st209" d="M161.8,36.3c0.5,2.5,1.3,4.9,1.1,7.5c-0.1,0.8,0.4,1.7-0.3,2.4c-0.4,0.1-0.5-0.2-0.6-0.5
		c-0.8-3.4-1-6.9-1.9-10.2c-0.1-0.4-0.2-0.9,0.2-1.3c0.3,0,0.5,0,0.8,0C161.3,34.9,161.6,35.6,161.8,36.3z"/>
	<path class="st210" d="M160.2,34.3c1,3.8,1.8,7.6,2,11.5c-0.5,0.3-1,0-1.4-0.3c-0.3-0.3-0.5-0.7-0.6-1.1c-0.1-1-0.4-2.1-0.5-3.1
		c0.2-2.5-0.6-4.8-1.1-7.2c-0.2-0.8-0.6-1.5,0.1-2.2C159.9,32.2,159.6,33.5,160.2,34.3z"/>
	<path class="st211" d="M158.7,31.9c0.6,3.2,1.9,6.2,1.6,9.5c-0.9,0-1.1-0.8-1.1-1.3c-0.1-2.2-1.4-3.9-2.4-5.8
		c-0.1-0.3-0.2-0.6-0.2-0.9c0.1-1.5-1.2-2.8-0.3-4.3c1.1,0.5,1,2.1,2.4,2.4C158.7,31.6,158.7,31.8,158.7,31.9z"/>
	<path class="st212" d="M156.3,29.1c0,1.5,0.9,2.9,0.8,4.4c-0.7,0.2-1.1-0.3-1.5-0.7c-0.7-1.3-1.8-2.3-2.1-3.8c-0.1-0.5,0-1,0.4-1.4
		c0.3,0,0.5,0,0.8,0C155.5,27.8,155.7,28.6,156.3,29.1z"/>
	<path class="st213" d="M102.6,39.8c0.3-0.5,0.7-0.4,1.2-0.4c1.1,0.3,1.6,1.3,2.1,2.1c1.5,2.7,3.8,4.4,6.5,5.5
		c4.2,1.8,8.4,3.4,12.7,5c1,0.4,2.6,0.4,2.5,2.2c-2,0.2-3.4-1.3-5.1-1.7c-3.7-1-7.2-2.3-10.7-3.8c-3.2-1.4-6-3.1-8.1-5.9
		C102.9,41.8,103,40.8,102.6,39.8z"/>
	<path class="st214" d="M144.7,90c-0.2,0.4-0.5,0.8-0.7,1.2c-1.1,0.1-2.3,0.5-3.3,0.5c-3.1,0-3.9-1.1-3.9-4.4
		c0.2-1.1-0.4-2.2,0.4-3.2c2,4,2.1,4.1,7,3.5c0.5-0.1,0.9-0.1,1.2,0.4C145.7,88.8,145.4,89.4,144.7,90z"/>
	<path class="st215" d="M145.2,88.1c-1.2-0.3-2.3,0.4-3.5,0.4c-3.2-0.2-4.4-1.3-4.4-4.4c0-3.2,0-6.4,0-9.5c-0.4-0.9-0.2-1.8-0.1-2.7
		c1.4,0,1,1.2,1,1.9c0.1,2.5,0,5,0,7.5c0.1,4.2,2.8,5.9,6.6,4.2c0.6-0.3,1.1-1,1.5,0.2C146.1,86.4,146.4,87.5,145.2,88.1z"/>
	<path class="st216" d="M122.5,52.6c1.9-0.1,3.3,1.7,5.2,1.6c1-0.4,1.8,0.1,2.6,0.7c1.8,1.4,3.8,2.7,4.8,4.8
		c0.2,0.5,0.4,0.9,0.5,1.4c0.1,0.5,0.1,1-0.3,1.4c-2.2-4.4-6.2-6.8-10.5-8.7C123.9,53.5,123.1,53.3,122.5,52.6z"/>
	<path class="st214" d="M135.2,62.5c0-0.5,0-1.1,0-1.6c1.2,0.1,1.2,1,1.3,1.8c0.4,2.2,0.7,4.4,1.1,6.6c0.1,0.8,0.2,1.6-0.4,2.3
		c0,0.9,0,1.9,0,2.8c-0.4-2.4-0.9-4.9-1.1-7.3C135.9,65.6,135.5,64.1,135.2,62.5z"/>
	<path class="st217" d="M120.5,17.6c2.3-0.1,4.6-1,6.9-0.8c1,0.1,1.8,0.3,2.2,1.2c0,0.2,0,0.5-0.1,0.7c-0.1,0.2-0.3,0.3-0.5,0.3
		c-1.7,0.4-3.3-0.3-5-0.1c-2.6-0.1-4.7,1-6.9,2.1c-1.3,0.5-2.3,1.4-3.4,2.2c-0.5,0.4-0.9,1-1.7,0.8c-0.3-1.9,1.2-2.5,2.4-3.2
		C116.5,19.7,118.5,18.6,120.5,17.6z"/>
	<path class="st218" d="M114.5,20.8c-0.6,1.2-2.2,1.7-2.4,3.2c0.2,1-0.4,1.4-1.1,1.9c-0.9,0-1.3,1.1-2.2,0.9
		c-0.3-0.3-0.3-0.7-0.3-1.1c0.1-0.6,0.2-1.1,0.3-1.7c0.3-1,0.9-1.7,1.6-2.3c0.2-0.3,0.5-0.5,0.7-0.8c1.7,0.3,2.2-1.7,3.7-2
		C115,19.5,114.9,20.1,114.5,20.8z"/>
	<path class="st219" d="M151.5,86.8c0.6,0.3,0.1,1,0.8,1.4c0-1.5,1.3-1.9,2-2.9c2.8-3.8,5-8,7-12.4c1.6-3.5,2.3-7.4,4-10.9
		c0.1,4.4-1.8,8.3-3.4,12.3c-0.3,0.8-0.7,1.5-0.6,2.4c-2.5,4.9-5.8,9.4-9.2,13.7c-0.5,0.7-1.1,1.8-2.4,1c0.2-0.7,0.3-1.3,0.5-2
		C150.6,88.6,150.3,87.4,151.5,86.8z"/>
	<path class="st220" d="M151.5,86.8c-0.4,0.9-0.8,1.9-1.2,2.8c-0.8-0.5,0.2-1.1-0.2-1.7c-1.6,0.8-3,2.3-5,2.5
		c-0.5,0.1-0.3-0.3-0.4-0.5c0.1-0.6,0.3-1.3,0.4-1.9c0.7-0.7,0.1-1.7,0.8-2.4c0.3-0.4,0-0.8,0.2-1.2c0.1-0.1,0.3-0.2,0.4-0.2
		c1.6-1,3.2-2.1,4.5-3.5c0.4-0.4,0.9-0.8,1.4-0.4c0.6,0.4,0.3,1,0,1.4c-0.3,0.6-0.7,1.1-0.3,1.8C152,84.7,151.8,85.7,151.5,86.8z"/>
	<path class="st221" d="M134.8,59.7c-2.1-2.3-4.1-4.6-7.2-5.6c-1.5-1.9-4-1.8-6-2.8c-4.1-1.8-8.4-3-12.3-5.4c-1.4-0.9-2.6-2-3.5-3.4
		c-0.7-1.1-1.4-2.1-2.2-3.2c0-0.1,0-0.2,0-0.4c0.5-0.3,0.9-0.8,1.6-0.7c0.2,0,0.4,0.1,0.5,0.3c1.1,3.9,4.2,6,7.5,7.7
		c3.3,1.7,7,2.7,10.3,4.4c4,1.6,7.8,3.3,10.6,6.8c0.3,0.4,0.6,0.7,0.7,1.2C135.2,59,135.1,59.4,134.8,59.7z"/>
	<path class="st222" d="M105.4,38.6c-0.5,0.1-1,0.3-1.6,0.4c0.6-1.1-0.5-1.8-0.7-2.8c-0.7-4.2,0.1-8,2.7-11.4
		c0.3-0.4,0.7-0.8,0.7-1.3c1.3-0.6,2.1-2.4,4-2c0.1,1-1,1.5-1.2,2.4c-4.4,2.4-4.9,10-3.1,13.8C106.4,38.5,105.7,38.4,105.4,38.6z"/>
	<path class="st223" d="M152.3,83.6c-1-1,0.3-1.9,0-3.3c-1.6,1.7-3.4,3-5.1,4.3c-0.6,0.5-0.3-0.2-0.5-0.3c-0.3-0.3-0.3-0.7-0.2-1.1
		c0.1-0.5,0.2-1.1,0.4-1.6c0.2-0.5,0.3-1.1,0.4-1.6c0.3-1,0.4-2,0.9-3c0.1-0.2,0.3-0.3,0.4-0.3c1.7-0.9,2.6-2.5,3.8-3.8
		c0.3-0.3,0.4-0.6,0.7-1c0.4-0.6,0.8-1.6,1.7-1.3c0.9,0.3,0.1,1.3,0.5,1.9c-0.3,1.6-0.6,3.2-0.8,4.8c-0.2,1.5,0,3.1-1.1,4.4
		C152.7,82.2,152.3,82.8,152.3,83.6z"/>
	<path class="st224" d="M153.1,81.6c0.3-1.5,0.6-3,1.1-4.4c0.8,0.3,0,1.1,0.8,1.7c0.4-2.1,2-3.4,2.6-5.3c0.2-0.5,0.3-1,0.6-1.4
		c2-2.7,2.3-5.9,3.1-9c0.4-1.7,1-3.3,1.2-5c0.2-1.1,0.9-0.9,1.6-0.9c0.9,2.1-0.3,4-0.9,5.9c-1.2,3.9-2.2,7.8-4.3,11.4
		c-1.4,2.3-2.7,4.7-4.1,6.9C154.4,82.3,153.8,83.1,153.1,81.6z"/>
	<path class="st225" d="M155.1,72.5c-0.6-0.4-0.3-1.1-0.6-1.9c-1.5,2.5-3.3,4.4-5,6.4c-0.4,0.5-0.7,0.7-0.8-0.1
		c-0.4-0.4-0.4-0.9-0.3-1.5c0.2-0.7,0.2-1.4,0.4-2.1c0.4-1,0-2,0.5-3c0.1-0.2,0.3-0.3,0.5-0.3c0.4,0.1,0.5,0.5,0.6,0.7
		c1.6-1,2.4-2.7,3.2-4.3c0.9-1.7,1.9-1.9,3.1-0.8c0.2,1.3,0,2.5-0.7,3.6C155.6,70.4,155.4,71.4,155.1,72.5z"/>
	<path class="st226" d="M155.9,69.3c0.1-1.3,0.2-2.7,0.4-4c-0.5-1,0-2,0.1-3c0.6-1.8-0.3-3.7,0.6-5.5c1.1-0.7,2.3-0.5,3.5-0.3
		c0.2,0.1,0.4,0.2,0.6,0.4c-0.8,2-1.1,4.1-1.6,6.1c-0.6,2.2-1.5,4.2-2.4,6.3C156.6,70.3,156.3,69.5,155.9,69.3z"/>
	<path class="st227" d="M161,57c-0.1,0-0.3,0-0.4,0c-0.3-2.5,0.4-5,0.3-7.5c-0.1-1.3-0.5-2.7,0.1-4.1c0.4,0.1,0.8,0.3,1.2,0.4
		c0.1,0.1,0.3,0.3,0.4,0.4c0.3,0.3,0.5,0.5,0.8,0.8c0.8,2.9,0.2,5.9-0.1,8.8c0,0.4-0.1,0.8,0.1,1.1C162.6,57,161.8,57,161,57z"/>
	<path class="st228" d="M153.9,27.5c0,0.5,0,1.1,0,1.6c-0.8,0.3-0.8-0.5-1.2-0.8c-1.1-1.1-2-2.3-2-4
		C152.4,24.8,152.8,26.4,153.9,27.5z"/>
	<path class="st229" d="M152.7,28.3c0.4,0.3,0.8,0.5,1.2,0.8c0.5,1.3,1.7,2.2,2,3.6c0.6,0.9,0.7,1.9,0.3,2.9
		c-0.6,0.8-0.9,0.2-1.1-0.3c-0.7-1.3-1.6-2.4-1.9-3.8c0-0.4,0.1-0.9-0.4-1.2C152.7,29.6,152.7,29,152.7,28.3z"/>
	<path class="st230" d="M129.3,18.8c0.1,0,0.2-0.1,0.3-0.1c1.1,1.1,2.5,1.3,4,1.3c0.6,0.6,0.4,1.5,0.8,2.1c1.9,2.9,5,3.7,8.1,4.3
		c0.6,0.2,0.9,0.5,0.7,1.2c-0.2,0.3-0.5,0.4-0.8,0.4c-1.3,0-2.4-0.4-3.6-0.8c-1.1-0.5-2.2-1.1-3.6-1.4c-0.1,1.7,0.1,3.2,0,4.8
		c0,0.6,0.1,1.2-0.7,1.4c-1.9,0.4-3.7-0.5-5.6-0.2c-0.5,0-0.8-0.2-1.2-0.6C125.4,27.5,126.1,21.7,129.3,18.8z"/>
	<path class="st231" d="M142.4,27.5c0.3,0,0.5,0,0.8,0c0.5-0.8,1.2-1,2-0.4c0.7-0.1,1.3-0.3,2-0.4c-0.4,0.5-1,0.7-1.6,0.8
		c-1.2,0.5-1.7,1-1.3,2.6c0.3,1.5,1,3.2,0.1,4.8c-1.6-0.2-3.2-0.4-4.1-1.9c0-1.1,0-2.1,0.1-3.1C140.4,28.6,140.9,27.6,142.4,27.5z"
		/>
	<path class="st232" d="M136.8,19.6c3.4-0.2,6.4,0.6,8.3,3.6c0.7,2.3,0.1,3.1-2.3,3.3c-0.3-0.2-0.4-0.5-0.4-0.8
		c0.8-2.5,0.1-3.7-2.5-4.2c-1.4-0.3-2.9-0.1-4.3,0c-0.2,0-0.4-0.1-0.6-0.2C134.7,19.6,136.3,20.2,136.8,19.6z"/>
	<path class="st233" d="M142.8,26.3c1.9-0.3,2.5-1.4,2.4-3.2c1.7,1.3,0.3,2.6,0,4c-0.7,0-1.4,0-2,0.4c0-0.5-0.3-0.8-0.8-0.8
		C142.3,26.4,142.4,26.2,142.8,26.3z"/>
	<path class="st234" d="M136.8,19.6c-0.2,0.9-1.6,0.5-1.6,1.6c-0.4,0.4-0.8,0.8-1.2,1.2c-0.7-0.7-0.3-1.6-0.4-2.4
		C134.6,19.3,135.7,19.6,136.8,19.6z"/>
	<path class="st235" d="M144.3,34.7c-0.3-1.3-0.5-2.6-0.4-4c0.1-1-0.5-1.7-1.1-2.4c0.9-0.6,1.7-0.8,2.7-0.8c0,0.1,0,0.3,0,0.4
		c-0.7,0.8,0.3,1.2,0.4,1.8c1,1.7,1,3.8,2,5.5c0.3,0.5,0.2,1-0.4,1.3C146.3,36.2,144.9,36.3,144.3,34.7z"/>
	<path class="st236" d="M149.5,31.1c0.5,0.5,1.1,1.1,1.6,1.6c1.6,1,1.7,2.7,2.2,4.3c-0.2,0.8-0.5,1.5-1.3,2c-0.5,0.1-1,0-1.3-0.4
		c-0.1-0.1-0.2-0.3-0.2-0.5c0.1-0.6-0.3-1.2,0.2-1.8C150.7,34.4,149.2,33,149.5,31.1z"/>
	<path class="st237" d="M150.7,36.3c-0.1,0.5,0.7,1.1,0,1.6c-0.6,0.5-1.1,0.1-1.6-0.2c-0.1-0.1-0.2-0.3-0.3-0.5
		c-0.2-1.9-1.5-3.5-1.5-5.5c0.1-0.1,0.1-0.1,0.2-0.2c1.4,0.8,1.6,2.3,2.3,3.6C150.1,35.5,150.2,36,150.7,36.3z"/>
	<path class="st237" d="M145.5,29.5c-0.3-0.5-1.4-1.1,0-1.6c0.2,1.4,2,2,2,3.6c0,0,0,0,0,0C146.1,31.6,146.3,30,145.5,29.5z"/>
	<path class="st238" d="M153.1,31.5c1.1,1.3,2,2.8,2.8,4.4c1.1,1.9,1.9,3.9,1,6.1c-0.2,0.1-0.4,0.1-0.6,0c-0.6-0.2-1.1-0.5-1.4-1
		c-0.1-0.2-0.1-0.4-0.1-0.6c-0.1-2.3-0.7-4.5-1.7-6.6c-0.2-0.4-0.4-0.8,0-1.3C153.1,32.3,153.1,31.9,153.1,31.5z"/>
	<path class="st239" d="M153.1,32.7c1.1,2.3,1.9,4.6,2.2,7.1c0,0.3,0.1,0.6-0.2,0.9c-0.8,0.5-1.1,0-1.4-0.6c0-0.7-0.1-1.4-0.3-2
		c0-1.2-0.4-2.3-0.9-3.4c-0.4-0.8-1.1-1.7-0.2-2.7C152.6,32.2,152.8,32.4,153.1,32.7z"/>
	<path class="st240" d="M152.3,31.9c-0.2,1.7,1.3,3,1.3,4.6c0,0.6,0.2,1.2,0.2,1.7c-0.9,0-0.7-0.7-0.8-1.2c-0.7-1.5-1.3-2.9-2-4.4
		c-0.1-0.8-0.5-1.5-0.4-2.4C151.5,30.6,151.7,31.4,152.3,31.9z"/>
	<path class="st241" d="M161,45.4c0.6,3.9,0.8,7.7-0.4,11.5c-1.2,0-2.4,0-3.6,0c-0.1-0.8,0.5-0.7,1-0.9c0.8-0.1,1-0.7,1.1-1.4
		c0.4-2.6,0.7-5.2,0.1-7.8c-0.2-0.9-0.5-2,0.8-2.5c0.2,0,0.4,0.1,0.5,0.2C160.8,44.9,160.9,45.2,161,45.4z"/>
	<path class="st242" d="M160.6,44.6c-0.1,0-0.3,0-0.4,0c-0.5-0.2-1.1-0.2-1.5-0.6c-0.4-0.3-0.7-0.7-0.7-1.2
		c-0.4-2.4-0.2-4.9-1.2-7.2c-0.2-0.4-0.1-0.9,0.2-1.3c1.2,1.5,2.4,2.9,2.4,5c0,0.8,0.2,1.6,0.8,2.2
		C160.3,42.5,160.8,43.5,160.6,44.6z"/>
	<path class="st243" d="M157.1,34.3c0.8,2.4,1.3,4.9,1.4,7.5c0,0.5,0.3,0.9-0.2,1.2c-0.4,0.2-0.7,0-1-0.2c-0.3-0.3-0.8-0.4-0.6-1
		c0.6-1.5-0.3-2.9-0.5-4.3c-0.1-0.6-0.2-1.1-0.3-1.7c0-1.1,0-2.1,0-3.2c0.4,0.3,0.8,0.5,1.2,0.8C157.1,33.7,157.1,34,157.1,34.3z"/>
	<path class="st244" d="M146.4,84.5c0,0.4,0,0.9-0.4,1.2c-0.1-0.2-0.1-0.7-0.4-0.4c-1.4,1.8-3.4,1.2-5.2,1.1
		c-1.7-0.1-2.8-1.9-2.8-4.4c-0.1-2.8,0-5.6,0-8.3c0-0.6,0.2-1.3-0.4-1.9c0-0.8,0-1.6,0-2.4c-0.3-0.8-0.3-1.6,0-2.5
		c0.8,0.1,0.9,0.8,0.9,1.3c0,2,0.6,4,0.5,6.1c0.1,2.6-0.2,5.1,0.3,7.7c0.3,1.5,1.2,2.1,2.6,2.2c1.4,0.1,2.8,0.1,4.1-0.4
		C146.1,83.5,146.8,83.4,146.4,84.5z"/>
	<path class="st245" d="M137.2,66.9c0,0.8,0,1.6,0,2.4c-0.7-2.1-0.8-4.3-1.2-6.4c-0.1-0.7-0.2-1.4-0.8-1.9c-0.5-0.3-0.4-0.8-0.4-1.2
		c0-0.4,0-0.8,0-1.2c0.1,0,0.2,0,0.3-0.1c1.3,0.6,1,2.1,1.7,3.1C137,63.4,138.2,65,137.2,66.9z"/>
	<path class="st246" d="M116.9,20.8c2.1-1.5,4.5-2.5,7.2-2.4c0.3,3.8,0.5,7.7,0.1,11.5c-0.1,1.4-1.5,1.7-2.5,2.3c-1,0.4-2,0.7-2.9,1
		c-0.7,0.2-1.5,0.5-2.1-0.3c-0.5-1-0.3-2.2-0.4-3.3c0-2.5,0.7-4.9,0.1-7.4C116.3,21.7,116.6,21.2,116.9,20.8z"/>
	<path class="st247" d="M116.9,20.8c0.7,4.1-0.3,8.2,0,12.3c-0.1,0.1-0.1,0.1-0.2,0.2c-0.4,0.2-0.8,0.2-1.2,0.2
		c-1.9-1-3.9-1.9-5.5-3.5c-0.8-1.7-0.5-3.2,0.9-4.5c0.4-0.5,0.8-1.1,1.2-1.6C113.7,22.9,114.9,21.2,116.9,20.8z"/>
	<path class="st248" d="M121.7,31.9c3.4-1.8,2-5.1,2.2-7.8c0.1-1.9-0.5-3.9,0.2-5.8c1.8-0.2,3.5,0.3,5.2,0.4c-0.8,2.1-2.1,4-2.4,6.2
		c-0.3,2.2,0.1,4.2,1.3,6C126,31.4,124,32.6,121.7,31.9z"/>
	<path class="st249" d="M106.2,37.9c-0.6-0.3-1.2-0.5-1.2-1.4c-0.1-3.4-0.7-6.8,1.2-9.9c0.7-1.2,1.3-2.8,3.2-2.6
		c0.1,0.6-0.1,1.1-0.4,1.6c-0.5,0.9-0.8,1.9-1.2,2.9c-0.7,1.7-0.9,3.5-0.1,5.3c0.4,1,0.6,2.1,0.4,3.3c-0.1,0.6-0.5,0.8-1,1
		C106.7,38.1,106.4,38.1,106.2,37.9z"/>
	<path class="st250" d="M107.8,37.1c-0.2-2.7-2-5.2-0.8-8c0.5-1.2,0.8-2.6,2-3.5c0,0.4,0,0.8,0,1.2c0.6,0.7,0.1,1.6,0.1,2.3
		c-0.1,0.8-0.1,1.5,0.1,2.3c0,0.2,0.1,0.4,0.1,0.5c-0.4,1.5,0.7,3,0.2,4.5c-0.1,0.4-0.4,0.6-0.7,0.7
		C108.5,37.2,108.1,37.3,107.8,37.1z"/>
	<path class="st251" d="M108.6,29.1c0.1-0.8,0.3-1.6,0.4-2.4c0.4-0.8,0.9-1.5,2-1.2c-0.3,1.4-1.5,2.8-0.4,4.4c0.7,1.6,1.6,3.2,1.5,5
		c-0.1,0.3-0.3,0.5-0.6,0.7c-2-0.5-2.1-2.2-2.4-3.7c0-0.1,0-0.2,0-0.4C108.5,30.7,109.1,29.8,108.6,29.1z"/>
	<path class="st252" d="M146.4,84.5c-0.1-0.2-0.1-0.7-0.4-0.4c-1,1-2.2,0.7-3.3,0.8c-4.2,0.2-4.3-0.9-4.6-4.6c-0.2-1.9,0-3.8,0-5.7
		c0.2-0.1,0.4-0.1,0.6,0.1c0.6,1.2,0.3,2.4,0.4,3.6c0,0.3,0,0.6,0,1c0.1,2.5,0.8,3.2,3.3,3.1c0.5,0,0.9,0,1.4-0.1c0.2,0,0.4,0,0.5,0
		c0.9,0.6,1.6-0.3,2.4-0.3c0.2,0,0.3,0.1,0.4,0.3c0,0.4,0.1,0.7-0.2,1.1c0,0.4,0,0.7-0.1,1.1C146.6,84.4,146.5,84.4,146.4,84.5z"/>
	<path class="st252" d="M106.2,37.9c0.3,0,0.5,0,0.8,0c0.7-0.2,0.8,0.5,1.1,0.9c2.4,3.8,6,6,10.1,7.5c1.3,0.5,2.5,1.2,3.7,1.9
		c0.4,0.2,0.9,0.4,0.6,1c-0.3,0.3-0.7,0.3-1.1,0.3c-4.6-1.3-9-3.1-12.7-6.4c-1.4-1.2-2.4-2.6-2.9-4.4c-0.1,0-0.3,0-0.4,0
		C105.7,38.4,105.9,38.1,106.2,37.9z"/>
	<path class="st244" d="M105.8,38.7c1.5,2.7,3.6,4.8,6.2,6.4c2.9,1.8,5.9,3.4,9.3,4c1.1,0.5,2.3,0.4,3.3,1.1c0.3,0.2,0.9,0.4,0.6,1
		c-0.5,0.1-1,0.2-1.5-0.1c-3.5-1.4-7-2.8-10.5-4.3c-2.8-1.2-5.1-3.2-6.8-5.7C105.8,40.3,105.4,39.6,105.8,38.7z"/>
	<path class="st245" d="M123.7,51c0.5,0,1.1,0,1.6,0c2.8,0.2,4.9,1.8,7,3.4c0.8,0.6,1.5,1.4,2.2,2.2c0.5,0.6,0.9,1.2,0.3,1.9
		c0,0,0,0,0,0C131.9,54.8,127.8,52.9,123.7,51z"/>
	<path class="st253" d="M148.7,75.3c0,0.5,0,1,0,1.5c-0.1,0.1-0.2,0.1-0.3,0.1c-1,0.3-1.9,0.9-3,0.9c-4.7,0.2-6.2-1.4-6.8-6.8
		c-0.4-4.1-0.7-8.2-2-12.1c-0.1-0.2-0.1-0.4-0.2-0.6c-0.7-4.6-3.8-7.3-7.7-9.2c-4.4-2.1-9.1-3.6-13.3-6.1c-2-1.2-3.6-2.6-4.8-4.6
		c-0.5-0.7-0.8-1.5-0.6-2.4c0.3-0.6,0.8-0.5,1.3-0.4c0.8,0,1.2,0.5,1.5,1.2c0.1,0.4-0.1,1,0.7,0.9c0.4,0.1,0.7,0.3,0.8,0.7
		c0.5,1.7,1.9,2.5,3.3,3.2c3.3,1.8,6.8,3.2,10.2,4.7c0.4,0.2,0.7,0.4,1.1,0.5c5.6,2.3,8.5,6.6,9.6,12.4c0.6,3.1,1.3,6.1,1.6,9.2
		c0.1,1.1,0.5,2.2,1,3.2c0.5,1.7,1.9,2.1,3.4,2.2c0.9,0.1,1.9,0.1,2.8-0.1C148.9,73.3,149.2,73.9,148.7,75.3z"/>
	<path class="st254" d="M136.8,58.5c1.5,2.7,1.5,5.8,2,8.7c0.4,2.5,0.5,5.1,1.2,7.5c0.4,1.5,1.4,2.3,2.8,2.4
		c1.8,0.1,3.7,0.7,5.3-0.8c0.2-0.2,0.3,0.3,0.4,0.5c-0.1,1.1-0.3,2.2-0.8,3.2c-1.6,0-3.1,0.5-4.7,0.5c-2.6-0.1-3.8-1.3-4.1-3.9
		c-0.2-2.1-0.2-4.2-0.7-6.3c-0.2-2.7-0.5-5.3-1.2-7.9C137,61.2,135.7,59.9,136.8,58.5z"/>
	<path class="st255" d="M138.4,70.5c1,1.7,0.5,3.6,0.7,5.4c0.4,4.4,2.7,4.4,6,4c0.8-0.1,1.8-1.1,2.5,0.3c0,0.6,0,1.1-0.4,1.6
		c-0.2-0.2-0.3-0.4-0.1-0.6c-0.3,0.2-0.1,0.7-0.4,0.9l-0.2,0l-0.2,0c-0.3,0-0.7,0.1-0.9,0c-0.7-0.7-0.7,0.2-1,0.4l-0.2,0l-0.2,0
		c-3,0.2-4.9-0.9-5.6-4c0-1.3,0-2.7,0-4C138.1,73.1,138.1,71.8,138.4,70.5z"/>
	<path class="st256" d="M146.7,82c0.1-0.3,0.1-0.6,0.2-0.8c0.1,0.2,0.2,0.4,0.3,0.6c0,0.5,0,1.1-0.4,1.5
		C146.7,82.8,146.7,82.4,146.7,82z"/>
	<path class="st257" d="M149.9,71.3c0-0.4,0-0.8,0-1.3c-0.5-0.6-0.5-1.2-0.3-1.9c0.4-1.5,0.3-3.1,0.1-4.6c0-0.3,0-0.6,0.1-0.9
		c1.6-1.6,1.7-3.8,2.5-5.8c1.3-0.8,3.2,0,4.2-1.6c0.2,0,0.4,0.1,0.5,0.3c0.1,1.3-0.2,2.5,0,3.8c-1.2,0.4-1.2,0.5-1.8,2.3
		c-0.7,2-1.6,3.9-2.7,5.7c-0.7,1.1-1.6,2.1-1.7,3.5C150.6,71.1,150.3,71.4,149.9,71.3z"/>
	<path class="st258" d="M149.9,71.3c0.7-3.2,3.2-5.5,4.2-8.6c0.3-0.9,0.4-1.9,0.8-2.8c0.3-0.5-0.1-1.5,0.9-1.5
		c0.8,0,0.2,1.1,0.8,1.4c0.4,0.9,0.2,1.8,0.1,2.8c-0.2,0.9-0.3,1.9-0.5,2.8c-1.3-0.4-2,0.3-2.3,1.4c-0.6,1.8-2,3.1-3,4.5
		C150.7,71.5,150.2,72.5,149.9,71.3z"/>
	<path class="st259" d="M150,68.1c0,0.6-0.1,1.3-0.1,1.9c-0.1,0-0.2,0.1-0.3,0.1c-0.4-0.3-0.5-0.7-0.5-1.1c0-0.3,0-0.6,0-0.9
		c-0.2-0.5,0.6-1.3-0.4-1.6c-2.5,0.5-5-0.6-6.3-3.3c-1.6-3.3-2.5-6.8-3.8-10.2c-0.1-0.4-0.1-0.8,0.1-1.1c1.2-0.5,1.4,0.6,1.8,1.3
		c1.1,2.2,2,4.4,2.8,6.8c0.6,2,2.3,2.8,3.5,4.1c0.3,0.4,0.9,0.2,1.3,0.1c1.3-0.4,2,0,2.1,1.4C150,66.4,150.3,67.3,150,68.1z"/>
	<path class="st260" d="M149.5,68.9c0,0.4,0,0.8,0,1.2c-0.1,1.1,0.2,2.2-0.4,3.2c-0.4-0.2-0.4-0.8-1.1-0.6c-3.3,1.1-5.8-0.2-7.7-2.9
		c-0.6-3.6-1.6-7.1-1.7-10.8c1.2-0.2,1.2,0.8,1.3,1.5c0.4,1.7,0.6,3.4,1,5.1c0.5,2.1,1.3,4,3.7,4.8c1.6,0.5,3,0.6,4-1
		C148.9,69,149.1,68.8,149.5,68.9z"/>
	<path class="st261" d="M140.8,69.7c2.2,2.7,4.4,3.4,7.4,2.4c1.6-0.5,0.7,0.8,1,1.2c0,0.7,0.1,1.4-0.4,2c-0.2-0.5,0.6-1.7-1.1-1.1
		c-1.5,0.5-3.2,0.4-4.8-0.1c-1.3-0.4-2.1-1.1-2-2.5C140.5,71,140.2,70.3,140.8,69.7z"/>
	<path class="st262" d="M156.7,62.5c0-0.9-0.1-1.8-0.1-2.8c0-1.4,0-2.9,0-4.3c0.7-3.7,0.3-7.4,0.3-11c0-0.6-0.4-1.4,0.6-1.8
		c0.3,0.1,0.5,0.3,0.8,0.4c0.3,0.3,0.5,0.5,0.8,0.8c0.1,3.3,0.8,6.5,0.1,9.8c-0.2,1-0.1,2.1-0.9,3c-0.4,0-0.9-0.1-1.2,0.4
		C156.9,58.8,157.4,60.7,156.7,62.5z"/>
	<path class="st0" d="M121.7,31.9c2.2-0.1,4.2-1.4,6.5-0.8c0.2,0.1,0.5,0.3,0.7,0.4c2.4,0.8,4.5,2.2,6.7,3.3
		c5.3,2.8,10.3,5.9,14.8,9.9c0.5,0.4,0.9,0.9,1.4,1.4c0.5,0.6,1,1.2,1.2,2c0,0.2,0.1,0.4,0,0.6c-0.4,2.7,0.3,5.5-1,8
		c-0.9,0.6-2,0.5-3,0.5c-0.6-0.1-0.8-0.6-1-1.1c-1.4-3.3-3.9-5.3-6.9-7c-0.6-0.3-1.3-0.7-1.9-1c-0.6-0.3-1.1-0.5-1.7-0.8
		c-0.3-0.1-0.5-0.3-0.6-0.6c-3.1-3.5-7.1-5.6-11.2-7.7c-2.6-1.3-4.9-3.1-7.5-4.3c-0.6-0.3-1.3-0.7-1.1-1.6l0,0
		C118.5,32.7,120.1,32.3,121.7,31.9z"/>
	<path class="st263" d="M150.3,45.1c-5.9-5.1-12.6-8.8-19.5-12.3c-0.7-0.3-1.3-0.9-1.9-1.4c2-1,3.9,0.4,5.9,0.1
		c1.1,0,2.1,0.1,3.2,0.4c0.8,0.3,1.8,0.4,2.4,1.1c1.3,0.5,2.7,1.1,4,1.6c0.9,0.9,2.2,0.9,3.2,1.6c0.5,0.2,1.2,0.2,1.6,0.8
		c0,0.1,0,0.3,0,0.4c0.8,1.8,1.5,3.7,1.8,5.6C151.1,43.9,151.2,44.7,150.3,45.1z"/>
	<path class="st264" d="M138,32.3c-1.1,0-2.2-0.3-3.2-0.8c-0.2-1.9,0.3-3.8-0.3-5.7c-0.2-0.6,0.4-1.4,1-0.8c1,0.8,2.4,0.7,3.3,1.7
		c0,1.5-0.1,3,0.1,4.5C139,31.8,139.2,32.7,138,32.3z"/>
	<path class="st265" d="M138,32.3c1.1-0.6,0.5-1.7,0.3-2.3c-0.4-1.3-0.1-2.3,0.5-3.3c1.2,0.3,2.4,0.5,3.6,0.8
		c-1.3,0.6-1.6,1.7-1.6,3c0,0.9,0.4,1.8-0.4,2.6C139.5,33,138.7,32.9,138,32.3z"/>
	<path class="st266" d="M134,22.3c-0.1-0.9,0.3-1.3,1.2-1.2c0.1,0,0.3,0,0.4,0c0.3,0.2,0.8,0.1,1,0.4c1,2.3,3.3,2.6,5.3,3.3
		c0.4,0.1,0.7,0.3,0.9,0.7c0,0.3,0,0.5,0,0.8c-0.1,0.1-0.3,0.3-0.4,0.4C139,26.3,136,25.3,134,22.3z"/>
	<path class="st267" d="M136.4,21.5c-0.3,0-0.6-0.1-0.8-0.4c2.1-0.7,4.2-0.6,6.2,0.4c1.9,0.9,2.2,2.4,0.9,4c-0.3,0-0.6-0.1-0.8-0.4
		C141.3,22,138.8,21.9,136.4,21.5z"/>
	<path class="st268" d="M149.1,37.1c-0.6-0.1-1.2-0.3-1.6-0.8c0.3-0.2,0.4-0.5,0.2-0.8c-1.4-1.7-1.3-4-2.2-5.9c1,0.3,1.1,1.6,2,2
		C147.8,33.4,149.4,35,149.1,37.1z"/>
	<path class="st269" d="M150.3,45.1c0.8-1.6-0.1-3.1-0.4-4.6c-0.3-1-0.8-2-0.7-3.1c0.5,0.1,1,0.3,1.6,0.4c0,0.1,0,0.3,0,0.4
		c1.3,1.7,1.3,3.9,1.7,5.9c0.2,0.8,0,1.7-1,2.1C151.1,45.9,150.7,45.5,150.3,45.1z"/>
	<path class="st270" d="M151.4,46.3c1.1-2.2,0-4.2-0.4-6.3c-0.1-0.6-0.7-1.1-0.3-1.8c0.4,0.1,0.8,0.3,1.2,0.4
		c0.2,0.1,0.3,0.3,0.4,0.5c0.6,1.7,1,3.4,1.3,5.2c0.2,1.2,0.4,2.5-0.9,3.4C152.3,47.3,151.9,46.8,151.4,46.3z"/>
	<path class="st271" d="M151.9,39c0-0.1,0-0.3,0-0.4c0.4-0.5,0.8-1.1,1.2-1.6c0.3,0.4,0.5,0.8,0.8,1.2c0.2,0.5,0.7,1.1,0,1.6
		C152.9,40.4,152.5,39.6,151.9,39z"/>
	<path class="st272" d="M151.9,39c0.7,0.3,1.3,0.5,2,0.8c0.2,0.5,0.6,0.8,1.2,0.8c0,0.1,0,0.3,0,0.4c0.9,3.4,1.5,6.8,0.3,10.2
		c-1,0.5-1.1-0.5-1.5-1c-0.5-0.7-1-1.3-1.1-2.2c0-0.1,0-0.2,0-0.4c1-2,0.2-3.9-0.2-5.9C152.3,40.9,152.1,40,151.9,39z"/>
	<path class="st273" d="M157.5,42.6c0.1,2.3,0,4.6,0.3,7c0.2,1.9,0.2,4.1-1.1,5.8c-0.1-0.1-0.2-0.1-0.3-0.2c-0.9-1-1.2-2.2-1.1-3.5
		c1.2-2.5,0.6-5.2,0.6-7.8c0-0.7-0.8-1.7,0.5-2.1c0.1,0,0.3,0,0.4,0C156.9,42.1,157.2,42.4,157.5,42.6z"/>
	<path class="st274" d="M156.3,41.8c0,1.3-0.2,2.7,0.1,4c0.4,1.7-0.4,3.4-0.1,5.1c0.1,0.7-0.6,0.5-0.8,0.9c-0.2,0.1-0.3,0.1-0.5,0
		c-0.1-0.2,0-0.3,0.1-0.4c0.6-3,0.6-6-0.1-8.9c-0.1-0.5-0.4-1,0.1-1.4C155.5,41.3,155.9,41.6,156.3,41.8z"/>
	<path class="st275" d="M158.3,56.6c0.2-2.5,0.8-4.9,0.7-7.4c-0.1-1.1-0.2-2.2-0.3-3.3c0-0.7-0.3-1.5,0.4-2.1
		c0.4,0.3,0.8,0.5,1.2,0.8c-0.7,0.4-0.8,0.9-0.6,1.6c0.9,2.9,0.3,5.9,0.1,8.9C159.6,55.8,159.4,56.7,158.3,56.6z"/>
	<path class="st256" d="M138.4,70.5c0,1.3,0,2.7,0,4c-0.1,0-0.3,0-0.4,0c0-2.6-0.2-5.1-0.8-7.6c0.1-1.9-0.8-3.7-0.8-5.6
		c-0.2-0.2-0.2-0.3,0-0.5c1.1,0.2,0.2,1.3,0.8,1.7C138,65.1,138.2,67.8,138.4,70.5z"/>
	<path class="st252" d="M136.4,60.9c0,0.1,0,0.3,0,0.4c-1.1-0.6-0.4-2.3-1.6-2.8c0.1-0.9-0.5-1.4-1-2c-2.3-2.7-5.4-4.1-8.5-5.5
		c-1.2-1-2.9-0.9-4-2c0.4,0,0.8,0,1.2,0c0.5-0.4,1-0.3,1.5-0.1c3.1,1,6.1,2.2,8.6,4.3C135,55.2,136.9,57.5,136.4,60.9z"/>
	<path class="st276" d="M116.9,33.1c0.4,0.4,0.6,0.9,1.1,1.1c3.6,2,7.4,3.9,10.9,6.1c3,1.8,6.3,3.3,8.3,6.4
		c-0.3,0.3-0.7,0.4-1.2,0.4c-1.6-0.8-3.5-1-4.9-2.3c0.2-0.3,0-0.7-0.3-1c-3.6-2.4-7.7-3.7-11.2-6.3c-1.5-1.1-3.2-2.1-4.1-3.9
		c0-0.2,0-0.4,0.2-0.5C116.1,33.1,116.5,33.1,116.9,33.1z"/>
	<path class="st277" d="M115.7,33.1c0,0.1,0,0.3,0,0.4c-0.2,0.7-1,0.8-1.5,1.1c-0.8,0.3-1.5,0.8-2.4,0.5c0-1.8-1.3-3.3-1.2-5.2
		C112.2,31.2,113.9,32.1,115.7,33.1z"/>
	<path class="st278" d="M136.4,60.9c-0.4-3.6-2.3-6.2-5.2-8.2c-2.7-1.8-5.6-2.9-8.7-3.8c-2.6-1.7-5.5-2.7-8.2-4
		c-3.3-1.5-5.4-4.2-7.3-7.1c0.3-0.3,0.5-0.5,0.8-0.8c0.3-0.1,0.5-0.2,0.8-0.4c2.6,4.9,6.9,7.6,12,9.4c3.5,1.3,6.9,2.6,10.1,4.5
		c3.1,1.8,5.2,4.4,6.1,7.9c0,0,0,0,0,0c0.1,1.3,0.3,2.7,0.4,4C136.5,62.2,137,61.3,136.4,60.9z"/>
	<path class="st254" d="M136.8,58.5c-2.2-5.8-7.1-8.3-12.5-10.4c-2.9-1.1-5.8-2.2-8.5-3.6c-3.3-1.7-6.3-3.9-7.2-7.9
		c0.3,0,0.6-0.1,0.8-0.4c0.3-0.2,0.5-0.3,0.8,0c1,3.1,3.2,5,5.9,6.6c4.3,2.5,9.2,3.9,13.5,6.2C133.3,51.1,136.6,53.8,136.8,58.5z"/>
	<path class="st279" d="M110.2,36.3c-0.3,0-0.5,0-0.8,0c0.2-1.5-1.1-2.9-0.4-4.4c0.8,1.2,1.1,2.7,2.4,3.6c0.1,0.1,0.1,0.2,0.1,0.2
		c0,0.1-0.1,0.1-0.1,0.1C110.9,35.9,110.4,35.8,110.2,36.3z"/>
	<path class="st279" d="M108.6,29.1c0.6,0.7,0.3,1.6,0.4,2.4C108.3,30.8,108.7,29.9,108.6,29.1z"/>
	<path class="st280" d="M111.4,35.9c0-0.1,0-0.2,0-0.4c0.1-0.1,0.3-0.3,0.4-0.4c0.8-0.3,1.6-0.5,2.4-0.8c1.2,0.9,1.5,2.3,2.6,3.3
		c1,0.9-0.1,1.4-1,1.6c-0.7,0-1.3-0.3-1.7-0.9c-0.3-0.1-0.5-0.3-0.8-0.4c-0.4-0.2-0.6-0.4-0.8-0.8C112.1,36.7,111.7,36.3,111.4,35.9
		z"/>
	<path class="st256" d="M138.4,78.4c0.1,0,0.2,0,0.2,0.1c0.8,2.6,3.1,3.2,5.4,3.9C140,83.5,138.3,82.8,138.4,78.4z"/>
	<path class="st256" d="M144.3,82.4c0.3-1.9,1.3-0.5,2-0.4C145.7,82.2,145.3,83.8,144.3,82.4z"/>
	<path class="st261" d="M114.1,38.3c0.5,0.3,1.1,0.5,1.6,0.8c1.8,0.2,3.4,1.1,4.8,2.2c1.8,1.4,3.9,2.3,6,3.2c1.5,0.7,3.1,1.2,4.5,2
		c4.5,2.4,7,6.3,7.7,11.3c0.1,0.4,0.1,0.7,0.1,1.1c0.6,3.6,1,7.2,2,10.7c0,0.7,0,1.3,0,2c-1.5-1.9-1.1-4.3-1.6-6.4
		c-0.9-3.9-1.4-7.8-3.1-11.5c-1.2-2.7-3.4-4.2-5.7-5.5c-3.2-1.8-6.7-3.1-10-4.6c-2.1-0.9-4.2-1.9-5.9-3.7
		C114,39.5,113.6,39,114.1,38.3z"/>
	<path class="st261" d="M112.5,37.1c0.4,0.1,0.7,0.4,0.8,0.8c-0.3,0-0.3,0.7-0.7,0.4C112.2,38,112.3,37.5,112.5,37.1z"/>
	<path class="st281" d="M136,46.6c0.4,0,0.8,0,1.2,0c0.1,0.1,0.3,0.3,0.4,0.4c1.8,2.6,3.5,5.2,4.7,8.2c1,2.5,2.1,5,4.1,7
		c1.2,1.2,1.6,1.1,2.4-0.5c0.1-0.4,0.2-0.7,0.6-0.9c0.3,0,0.5,0.1,0.7,0.4c0.1,0.2,0.2,0.4,0.2,0.5c0,0.3-0.1,0.6-0.3,0.8
		c0,0.3,0,0.5,0,0.8c0.2,0.7,0.3,1.3-0.1,2c-0.5,0,0-1.1-1-0.8c-0.8,0.3-1.9,0.9-2.6,0.1c-1.1-1.5-3-2.1-3.6-4.2
		c-0.7-2.6-1.8-5.2-3.1-7.6c-0.2-0.4-0.4-0.8-0.9-1c-0.1-0.1-0.1-0.1-0.2-0.2c-0.3-0.5-0.6-1-0.9-1.5c-0.5-0.7-1.1-1.3-1.7-1.9
		C135.6,47.7,135.2,47.1,136,46.6z"/>
	<path class="st282" d="M149.9,61.7c0-0.1,0-0.2,0-0.3c-0.3-0.7-0.5-1.4-1-2c-0.2-0.3-0.2-0.7-0.3-1.1c0-0.5-0.2-0.9,0.1-1.4
		c1-0.6,2.1-0.3,3.1-0.4c1.4-0.5,2-1.5,2-3c0-0.8,0-1.8,1.2-1.9c0.1,0,0.2,0.1,0.3,0.1c0.2,1.2,0.9,2.2,0.9,3.4
		c0.2,1.2-0.5,1.6-1.5,1.6c-0.8,0-1.7,0.1-2.5,0.1c-1.2,0.6-1.8,1.5-1.6,3C150.8,60.6,151,61.6,149.9,61.7z"/>
	<path class="st283" d="M149.9,61.7c0.7-0.6,0.5-1.5,0.3-2.2c-0.4-1.8,0.2-2.6,2.1-2.6c0.4,2.1-1,3.6-1.5,5.4
		c-0.1,0.5-0.5,0.2-0.8,0.1C149.9,62.3,149.9,62,149.9,61.7z"/>
	<path class="st258" d="M149.9,65.3c0-0.7,0-1.3,0.1-2c0.6,1.6,0.6,3.2,0,4.7C149.9,67.2,149.9,66.2,149.9,65.3z"/>
	<path class="st284" d="M136,46.6c-0.5,0.8,0.2,1.1,0.6,1.6c0.5,0.6,1.4,1,1.4,2c0.4,0.4,0.5,1.1,0.8,1.6c0,0,0,0,0,0
		c1,3.9,2.5,7.6,4,11.3c1.2,2.7,3.4,3.5,6.3,3c0.1,2-1.4,3.1-3.2,2c-1.7-1-3.5-2.1-4.2-4.2c-0.3-0.7-0.7-1.4-1.1-2
		c-0.9-1.8-1.1-3.8-2-5.6c-0.8-2.1-1.4-4.4-2.9-6.2c-0.9-1.1-1.9-2.2-3.2-2.8c-1.1-0.5-1.9-1.4-2-2.7c0.3-0.2,0.6-0.2,0.8,0.1
		C132.8,45.4,134.6,45.6,136,46.6z"/>
	<path class="st285" d="M138.8,56.2c1.3,1.6,1.2,3.8,2,5.6c0.5,0.8,0.6,1.7,1,2.5c1.5,3.7,3.6,4.9,7.4,3.7c0.1,0,0.3,0,0.4,0.1
		c0,0.3,0,0.5,0,0.8c-0.7,1.2-1.3,2.7-3.2,2.3c-1.9-0.4-3.9-0.8-4.9-3c-1.1-2.3-1.3-4.8-1.8-7.2c-0.2-0.8-0.2-1.5-0.8-2.2
		c-0.3-0.2-0.4-0.5-0.4-0.8C138.6,57.5,138.1,56.7,138.8,56.2z"/>
	<path class="st286" d="M149.5,68.1c-3,2-6.9,0.5-8-3c-0.3-1.1-1-2.1-0.8-3.4c0.8,0.3,1,1,1.2,1.7c0.6,2.2,2.5,3.1,4.1,4.3
		c1.4,1,2.6,0.2,3-1.6C149.9,66.6,149.3,67.4,149.5,68.1z"/>
	<path class="st287" d="M148.8,56.9c0.1,0.4,0.2,0.8,0.3,1.2c-0.5,0.8,0.5,2.2-0.9,2.5c-1.2,0.2-1.9-0.8-2.6-1.5
		c-0.5-0.5-0.9-1.2-1.1-1.9c-0.7-2.4-2.1-4.5-3.3-6.7c-0.4-0.7-0.7-1.3,0-1.9C144.8,50.4,147.6,53,148.8,56.9z"/>
	<path class="st288" d="M149.1,61.7c0.1,0.9-0.2,1.3-1,1.8c-1,0.6-1.2-0.2-1.6-0.6c-1.1-1-2-2.2-2.8-3.5c-2-3.6-2.9-7.7-5.7-10.8
		c-0.5-0.5,0-1.2-0.4-1.6c0.6,0.1,1.2,0.3,1.6,0.8c2.2,3.1,4,6.3,5.4,9.8c0.7,1.7,1.5,3.7,4,3.6C148.8,61.2,148.9,61.5,149.1,61.7z"
		/>
	<path class="st289" d="M149.1,61.7c-3.5,0.2-4.1-2.5-5.3-4.9c-1.3-2.7-2.3-5.6-4.4-7.8c-0.3-0.3-0.9-0.7-0.2-1.3
		c0.6,0.3,1.3,0.6,1.9,0.9c-0.3,1.7,1.1,2.6,1.7,3.9c0.7,1.4,1.5,2.8,1.9,4.3c0.2,0.6,0.6,1.2,0.9,1.7c0.6,0.8,1.3,1.9,2.4,1.8
		c1-0.1,0.3-1.6,1-2.1c0,0.4,0.1,0.8,0.1,1.2c0.3,0.5,0.8,0.9,0.4,1.6C149.2,61.1,149.1,61.4,149.1,61.7z"/>
	<path class="st290" d="M155.1,51.7c-1,0.7-0.8,1.9-0.9,2.9c-0.1,1.5-0.8,2.3-2.4,2c0.8-2.8,0-5.7,0.8-8.4c1.1,0.8,1.5,2.2,2.3,3.2
		C155.1,51.5,155.1,51.6,155.1,51.7z"/>
	<path class="st291" d="M136.4,21.5c1.6-0.5,4.6,0.3,5.5,1.5c0.6,0.7,0.1,1.4,0.1,2C138.5,25,137.1,24.1,136.4,21.5z"/>
	<path class="st292" d="M131.2,44.6c-0.3,0-0.5,0-0.8,0c-2.5,0.2-4.7-1-7-1.8c-1-0.3-2.2-0.4-3-1.4c-1.7-0.6-3.3-1.4-4.8-2.3
		c0.7-0.6,1.9-1,0.1-1.9c-0.9-0.5-1.5-1.7-1.7-2.9c0.5-0.3,1.1-0.5,1.6-0.8c2.7,3.1,6.2,5,9.7,6.8c2,1.1,4.1,2,6,3.3
		C132.9,44.5,131.1,44.3,131.2,44.6z"/>
	<path class="st293" d="M120.5,41.5c3.3,1.1,6.6,2.1,9.9,3.2c1.3,2.2,3.9,2.7,5.3,4.7c1.5,2.1,2.3,4.4,3,6.8c-0.1,0.7,0.3,1.4-0.4,2
		c-0.5-2-1.1-4-2.1-5.9c-1.5-3.1-4.3-4.5-7-6c-2.1-1.1-4.5-1.5-6.4-3c-0.6-0.5-1.4-0.6-2.2-0.7C119.5,42.5,120.1,41.9,120.5,41.5z"
		/>
	<path class="st283" d="M149.5,60.9c-0.1-0.5-0.2-1.1-0.4-1.6c1.2,0.3,0.6,1.3,0.7,2C149.8,61.2,149.6,61.1,149.5,60.9z"/>
	<path class="st259" d="M138.8,51.8c-0.5-0.4-0.7-1-0.8-1.6C138.7,50.5,138.8,51.1,138.8,51.8z"/>
</g>
</svg>
