<?xml version="1.0" encoding="utf-8"?>
<!-- Generator: Adobe Illustrator 26.0.3, SVG Export Plug-In . SVG Version: 6.00 Build 0)  -->
<svg version="1.1" id="Calque_1" xmlns="http://www.w3.org/2000/svg" xmlns:xlink="http://www.w3.org/1999/xlink" x="0px" y="0px"
	 viewBox="0 0 384 384" style="enable-background:new 0 0 384 384;" xml:space="preserve">
<style type="text/css">
	.st0{fill:#0A9642;}
</style>
<g>
	<path class="st0" d="M375,269.3c-1,0.6-2,1.2-3.1,1.8c-49.3,26.1-98.6,52.2-147.9,78.4c-15.7,8.4-31.9,9.8-48.8,4.2
		c-21.4-7-42.9-13.8-64.3-20.7c-1.8-0.6-3.7-0.8-5.5-0.8c-4.7-0.1-9.5,0-14.6,0V320c7.9,0.6,16,0,23.3,2.1
		c21.4,6.2,42.6,13.2,63.7,20.3c14.6,4.9,28.3,3.6,41.8-3.6c40.4-21.6,80.9-43,121.4-64.5c6.4-3.4,12.7-6.8,19.1-10.1
		c-5.7-11.3-20.1-16-32.8-10.8c-16.1,6.7-32.1,13.6-48.2,20.4c-11.8,5-23.6,10.1-35.4,15c-2.5,1-5.3,1.6-8,1.7
		c-19.7,0.2-39.4,0.1-59.1,0.1c-0.6,0-1.2-0.1-2-0.2V279h4.5c17.8,0,35.7,0,53.5,0c1.9,0,3.8-0.1,5.6-0.5c5-1.2,8.4-5.9,8.3-11.1
		c-0.1-5-3.5-9.4-8.4-10.6c-1.7-0.4-3.5-0.5-5.2-0.5c-14.1,0-28.2,0.3-42.3-0.2c-5.1-0.2-10.4-1.3-15.1-3.3
		c-11.5-4.7-22.8-10.1-34.1-15.3c-6.9-3.2-14-4.8-21.7-4.7c-9.6,0.2-19.1,0.1-28.9,0.1v-11c0.2-0.2,0.4-0.4,0.6-0.4
		c13.8,0.3,27.8-0.4,41.4,1.3c8.2,1,16.1,5.8,23.9,9.1c8.1,3.5,16.1,7.4,24.2,10.8c3,1.2,6.4,2,9.7,2.1c14,0.2,27.9,0.1,41.9,0.1
		c15.8,0,24.5,8.2,25.6,24c0,0.2,0.2,0.5,0.4,1.1c2.8-1.1,5.5-2.2,8.2-3.3c18.5-7.8,36.9-15.7,55.4-23.4
		C345.2,233.5,368.4,245,375,269.3z"/>
	<path class="st0" d="M270.8,83.8c-1.1-3.2-2.5-4.8-6-5.2c-13.9-1.5-27.7-3.4-41.6-5c-2.3-0.3-3.4-1.2-4.2-3.3
		c-5.4-13-11-25.9-16.3-38.9c-1.1-2.7-2.5-4.6-5.7-3.6c-3-0.8-4.2,0.7-5.3,3.2c-5.9,12.9-12,25.8-17.9,38.6c-0.8,1.8-1.7,2.9-4,3.1
		c-14.4,1.1-28.8,2.4-43.2,3.6c-2.2,0.2-3.9,0.4-4.4,3c-0.5,2.4-2,4.4,0.8,6.9c10.7,9.6,21,19.5,31.6,29.2c1.7,1.5,2.2,2.8,1.6,5.2
		c-3.4,13.9-6.5,27.9-9.8,41.8c-0.5,2.2-0.7,4,1.7,5.3c2.2,1.2,3.7,3.1,6.8,1.2c12.4-7.2,25-13.9,37.5-21c2-1.1,3.4-1.1,5.4,0.1
		c12.2,7.5,24.6,14.8,36.8,22.3c2.3,1.4,3.9,1.2,5.9-0.4c2-1.5,3.4-2.7,2.8-5.7c-2.9-14-5.5-28.1-8.3-42.2c-0.5-2.3,0.1-3.6,1.8-5.1
		c10.6-9.1,21.1-18.3,31.7-27.4C269.9,88.1,271.8,87,270.8,83.8z M248.1,91.7c-8.1,7-16.2,14.1-24.3,21c-1.6,1.4-2.1,2.5-1.7,4.8
		c2.4,11.7,4.6,23.4,6.9,35.7c-1.3-0.6-2.2-1-3.1-1.6c-8.6-5.2-17.4-10.2-25.9-15.7c-3.4-2.2-6-2.4-9.7-0.3
		c-9.5,5.7-19.3,10.8-29.8,16.7c2.8-12.3,5.4-23.7,8.2-35c0.6-2.5,0.3-4.1-1.6-5.8c-7.9-7.1-15.6-14.4-23.4-21.6
		c-0.9-0.8-1.9-1.5-2.9-2.3c0.1-0.3,0.3-0.6,0.4-0.9c7.9-0.7,15.8-1.4,23.6-2.1c4-0.3,7.9-0.7,11.9-1c2.2-0.2,3.5-1.1,4.4-3.2
		c4.9-10.8,9.9-21.4,15.2-32.7c0.7,1.5,1.3,2.5,1.7,3.6c4.1,9.6,8.2,19.2,12.2,28.9c1.1,2.7,2.7,4,5.7,4.3
		c10.8,1.2,21.5,2.5,32.3,3.9c0.7,0.1,1.4,0.2,2.7,0.5C249.8,90.1,249,90.9,248.1,91.7z"/>
	<path class="st0" d="M350.5,120.9c-1.6,1.6-3.3,3-5,4.5c-6.9,6-13.7,12-20.7,17.8c-2.1,1.8-2.6,3.5-2.1,6.1
		c2.2,10.6,4.1,21.3,6.4,31.9c0.9,3.8,0.2,6.4-3.3,8.2c-0.8,0.4-1.4,1-2.2,1.5c-11-6.6-21.9-13-32.7-19.7c-2.1-1.3-3.6-1.3-5.7-0.1
		c-10.2,5.8-20.5,11.4-30.7,17.1c-1.7,1-3.3,1.8-4.9-0.2c-1.5-1.9-4.6-2.3-3.5-6.4c3.1-11.4,5.6-23,8.1-34.5
		c0.3-1.4-0.4-3.4-1.4-4.5c-2.6-2.8-5.5-5.3-8.5-8.2c2.7-2.8,5.1-5.4,7.9-8.4c4.8,4.5,9.7,8.8,14.1,13.4c1,1,0.8,3.5,0.4,5.2
		c-1.8,8.6-3.9,17.2-6,26.5c1.4-0.7,2.4-1,3.3-1.5c7-3.9,13.8-8.1,20.9-11.6c1.9-0.9,5.2-0.7,7.1,0.4c7.7,4.2,15.2,8.9,23.5,13.9
		c-1.3-6.9-2.5-13-3.5-19c-2.7-15.1-4.5-9.9,7-20.2c4.5-4.1,9.2-8,14.6-12.7c-11.6-1.4-22.2-2.7-31.8-3.8c-4-9.8-7.8-19.1-12-29.5
		c-3.2,6.8-6.4,12.6-8.6,18.7c-2.7,7.7-7,12.4-15.7,11.3c-1.3-0.2-2.7,0.2-4.4,0.4c-0.3-3.9-0.7-7.4-1-11.2c1-0.2,1.8-0.7,2.5-0.6
		c4.6,0.6,6.8-1.7,8.5-5.8c4.1-9.6,8.7-19,13.2-28.5c0.9-2,1.6-4,4.7-3.9c3.2,0.1,5.2,1,6.6,4.2c4.3,10.6,9,21.1,13.4,31.7
		c0.8,2,1.8,2.8,4,3c11.4,1.3,22.8,2.8,34.1,4.2c1.9,0.2,3.9,0,4.6,2.7C352.3,116.1,352.8,118.7,350.5,120.9z"/>
	<path class="st0" d="M143.7,182.9c0.9,4-1.8,4.8-3.8,6.7c-2.1,2-3.5,0.5-5.2-0.5c-10-6-20-12.1-30.2-18c-1.2-0.7-3.4-0.7-4.6-0.1
		c-10.4,5.6-20.9,11.2-31,17.2c-3.7,2.2-5.1-0.8-7.4-2c-2.3-1.2-1.5-2.9-1.1-4.8c2.8-11.5,5.5-23,8-34.6c0.3-1.2-0.3-3.2-1.3-4.1
		c-8.9-8.3-18-16.5-27-24.8c-0.6-0.5-1.1-1.7-1-2.4c0.5-2.3,1.3-4.5,2-6.8c12.6-1.1,25-2.3,37.4-3.1c3-0.2,4.6-1.3,5.8-4
		c4.7-10.7,9.5-21.4,14.7-31.9c0.7-1.4,3.9-1.8,6.1-2.1c1-0.1,2.9,0.9,3.3,1.9c4.2,9.3,8.6,18.6,12,28.2c2.2,6.3,5.5,9.9,12.4,9.3
		c0.7-0.1,1.4,0.2,2.5,0.3c-0.5,3.8-1,7.5-1.4,11.3c-5.5-0.6-10.7-1-15.8-1.8c-1.1-0.2-2.3-1.7-2.9-2.9c-3.3-7.4-6.4-14.9-9.6-22.3
		c-0.5-1.2-1.1-2.5-1.9-4.2c-3.8,8.1-7.5,15.7-10.8,23.4c-1.7,3.9-4.1,5.7-8.4,5.9c-8.3,0.4-16.6,1.3-25.8,2.1
		c6.2,5.8,11.4,11.3,17.3,16c4.9,3.8,5.9,7.8,4.2,13.6c-2.2,7.4-3.6,15-5.5,23.1c8.3-4.6,16.1-8.8,23.7-13.2
		c2.9-1.7,5.3-1.6,8.2,0.2c7.4,4.6,14.9,9,23,13.9c-1.4-7.8-2.3-15-4.2-22c-1.9-6.7-0.8-11.5,5.2-15.2c2.3-1.4,4.2-3.5,6.5-5.5
		c2.5,2.9,4.9,5.6,7.6,8.7c-1.7,1.5-3.2,3.2-5,4.3c-3,1.9-3.3,4.3-2.6,7.6C139.4,161.1,141.2,172.1,143.7,182.9z"/>
	<path class="st0" d="M78,220.1c0,39.7,0,79.3,0,118.9c0,9.5-4.3,13.8-14,13.8c-17.2,0-34.4,0-51.6,0H8.3v-11.5h58.1V218h-58v-11.4
		c1.3-0.1,2.5-0.2,3.7-0.2c17.5,0,34.9,0,52.4,0C73.8,206.4,78,210.7,78,220.1z"/>
	<path class="st0" d="M51.1,323.3c-0.1,4.5-3.7,8-8.1,8c-4.6,0-8.1-3.8-8-8.5c0.1-4.5,3.8-7.9,8.3-7.7
		C47.8,315.2,51.2,318.8,51.1,323.3z"/>
</g>
</svg>
