<?xml version="1.0" encoding="utf-8"?>
<!-- Generator: Adobe Illustrator 26.0.3, SVG Export Plug-In . SVG Version: 6.00 Build 0)  -->
<svg version="1.1" id="Calque_1" xmlns="http://www.w3.org/2000/svg" xmlns:xlink="http://www.w3.org/1999/xlink" x="0px" y="0px"
	 viewBox="0 0 394.2 394.2" style="enable-background:new 0 0 394.2 394.2;" xml:space="preserve">
<style type="text/css">
	.st0{fill:#0592FB;}
	.st1{fill:#0181FB;}
	.st2{fill:#FED05B;}
	.st3{fill:#FEFEFE;}
	.st4{fill:#FEC244;}
	.st5{fill:#7FD161;}
	.st6{fill:#FDD05B;}
	.st7{fill:#7FD162;}
	.st8{fill:#67C944;}
	.st9{fill:#FD9802;}
	.st10{fill:#FC9802;}
	.st11{fill:#FD646F;}
	.st12{fill:#0172FA;}
	.st13{fill:#E9F5FE;}
	.st14{fill:#D7EBFD;}
	.st15{fill:#284EB7;}
	.st16{fill:#365DC9;}
	.st17{fill:#FC4755;}
	.st18{fill:#89C8FD;}
	.st19{fill:#60B6FE;}
	.st20{fill:#8AC8FD;}
	.st21{fill:#80D161;}
	.st22{fill:#FD9902;}
	.st23{fill:#68C944;}
	.st24{fill:#FA8802;}
	.st25{fill:#FC4856;}
	.st26{fill:#FB6470;}
	.st27{fill:#FCD05C;}
	.st28{fill:#F4F7F8;}
</style>
<g>
	<path class="st0" d="M377.4,22.4c0-2.9,0.1-5.8-0.1-8.6c-0.4-5.2-2.1-7.3-7.1-8.6H140.1c-4.2,0.6-6.7,3.1-6.8,7.2
		c-0.4,9.1-0.7,18.2,0.2,27.2c0.2,0.3,0.4,0.5,0.6,0.7c0,0,0,0,0.1,0c1,0.8,1.7-0.7,2.4-1.3c4.1-3.8,8.6-7,13.9-8.8
		c0.3-0.1,0.5-0.2,0.8-0.3c0.3-0.1,0.6-0.2,0.9-0.3c0.7-0.2,1.5-0.3,2.2-0.4c6.1-1,6.4-0.7,6.4,5.4c0,7.7,0,15.5,0,23.2
		c0.1,5.8,1.1,6.8,6.8,6.8c8.5,0,17,0,25.4,0c4,0,4.4,0.5,3.8,4.4c-1.1,7.8-4.8,14.3-10.4,19.8c-0.3,0.4-0.7,0.8-1.1,1.1
		c-0.2,0.2-0.3,0.3-0.5,0.5c-10.4,9.8-27.4,10.3-38.5,4.7c-3.3-1.7-6.2-4.1-9-6.7c-0.8-0.8-1.8-2.5-3.2-1.5c0,0,0,0-0.1,0
		c-0.2,0.1-0.4,0.3-0.6,0.6c-1,6-0.3,12.1-0.5,18.2c-0.1,4.5,1.4,8,5.1,10.3c0.3,0.2,0.5,0.3,0.8,0.5c0.3,0.2,0.6,0.3,1,0.5
		c1.5,0.4,3,0.4,4.5,0.4c71,0,142,0,213,0c0.1,0,0.2,0,0.3,0c0.2,0,0.4,0,0.6,0c3.2-0.1,6.4,0.2,9.6-0.1c5.5-0.5,9-3.9,9.5-9.3
		c0.2-1.7,0.1-3.5,0.1-5.2V22.4z M220.9,83.8c3.2-0.1,6.5-0.1,9.7-0.2h31.8c3.2,0.1,6.4,0.6,9.5-0.3c3.7,1,7.5,0.4,11.2,0.3
		c3.1,0,6.2,0,9.2,0h11.2c3.1,0,6.2,0,9.3,0h11.4c3.1,0,6.2,0,9.3,0h11.2c3.1,0.1,6.2,0.1,9.4,0.2c3.3,0.1,5.5,2.2,5.7,5.2
		c0.1,3-1.9,5.4-5.1,5.9c-1.1,0.2-2.2,0.1-3.4,0.1c-42.5,0-84.9,0-127.4,0c-1.2,0-2.5,0.1-3.7-0.2c-3-0.7-4.9-2.6-4.7-5.8
		C215.7,85.8,217.6,84,220.9,83.8z"/>
	<path class="st1" d="M139.3,116c-0.1,0.2-0.3,0.3-0.5,0.5c-1.2,1-2.6,0.8-4,0.8c-7.3,0.1-14.5,0.1-21.7,0
		c-7.4-0.1-10.9-3.7-10.9-11.2c-0.1-17.7,0-35.5,0-53.2c0-1.3,0-2.6,0.4-3.9c0.2-0.4,0.4-0.8,0.6-1.2c0-10.6,0.3-21.2,0-31.7
		c-0.2-4.9,1.3-8.4,5.3-10.9h31.5c-4.5,2-6.2,5.5-6.1,10.4c0.2,8.2,0,16.4,0,24.7c0,0,0,0,0,0.1c0.7,1.6-0.6,2.5-1.3,3.5
		c-8,13-8.1,26-0.2,39c0.7,1.2,2,2.3,1.5,4V87c0,5.7,0.2,11.4-0.1,17.1C133.7,109.1,135,113.1,139.3,116z"/>
	<path class="st2" d="M151.3,29.1c0.2-0.2,0.4-0.4,0.6-0.5c10.2-2.6,10.2-2.6,10.2,7.9c0,7.7,0.1,15.5,0,23.2
		c-0.1,2.9,0.9,3.9,3.9,3.9c9.6-0.2,19.2,0,28.8-0.1c3,0,3.9,0.9,3.5,4c-1.2,8.8-4.7,16.4-11.4,22.5c-12.1,3.7-22.5,0-31.9-7.6
		c-8.3-6.7-12.7-15.7-13.3-26.2C140.9,45.9,144.4,36.8,151.3,29.1z"/>
	<path class="st3" d="M241.8,83.6h-11.2C234.3,82.3,238.1,82.2,241.8,83.6z"/>
	<path class="st3" d="M262.3,83.6h-11.3C254.8,82.2,258.6,82.2,262.3,83.6z"/>
	<path class="st3" d="M283,83.7c-3.7,0.1-7.5,0.6-11.2-0.3C275.6,82.6,279.3,82.1,283,83.7z"/>
	<path class="st3" d="M303.5,83.6h-11.2C296,82.2,299.8,82.2,303.5,83.6z"/>
	<path class="st3" d="M324.2,83.6h-11.4C316.6,82.3,320.4,82.3,324.2,83.6z"/>
	<path class="st3" d="M344.8,83.6h-11.2C337.3,82.2,341,82.2,344.8,83.6z"/>
	<path class="st4" d="M151.3,29.1c-0.4,3.5-3.2,5.6-4.7,8.4c-11.4,22,2.1,46.6,24.4,52c5.3,1.3,10.6,0.6,15.8,0.4
		c-13.2,13.6-36.8,13.1-50.6-1c-0.7-0.7-1.4-1.4-2.1-2.1c-11.2-16.5-11.3-30.1,0-46.6C138.9,35.2,144.2,30.7,151.3,29.1z"/>
	<path class="st5" d="M262.3,33.8c0,16.6,0,33.2,0,49.8h-11.3c0-16.6,0-33.2,0-49.8c0-1.2-0.1-2.5,0.2-3.7c0.7-2.9,2.7-4.6,5.7-4.5
		c3,0.1,4.8,1.9,5.3,4.8C262.4,31.5,262.3,32.7,262.3,33.8z"/>
	<path class="st5" d="M182.9,21.4c12.7,4.1,22.9,17.3,23.8,30.8c0.2,2.3-0.7,3.2-3,3.2c-6.7-0.1-13.5-0.1-20.2-0.1
		c-1.8-0.9-1.8-2.6-1.9-4.2c-0.1-8.6-0.1-17.2,0-25.9C181.7,23.8,181.7,22.4,182.9,21.4z"/>
	<path class="st6" d="M283,83.7c-3.7,0.1-7.5,0.6-11.2-0.3c0-13-0.1-25.9,0-38.9c0-4.2,2-6.6,5.3-6.8c3.4-0.1,5.8,2.5,5.9,6.7
		C283.1,57.5,283,70.6,283,83.7z"/>
	<path class="st7" d="M312.8,83.6c0.1-12.5,0.1-25,0.2-37.5c0-1.4-0.1-2.8,0.2-4.1c0.5-2.9,2.6-4.3,5.3-4.3c2.7,0,4.8,1.4,5.3,4.3
		c0.2,1.3,0.2,2.7,0.2,4.1c0.1,12.5,0.1,25,0.2,37.5H312.8z"/>
	<path class="st8" d="M182.9,21.4c0,10.2-0.1,20.4-0.1,30.6c0,1.1,0.1,2.2,0.7,3.2c-3.4,0.1-6.7,0-10.1,0.2c-2.2,0.1-3.2-0.9-3.2-3
		c0-10.2,0-20.4,0-30.6c0-1.9,1-3.2,3-2.8C176.5,19.5,179.9,19.5,182.9,21.4z"/>
	<path class="st9" d="M303.5,83.6h-11.2c0-6.6,0-13.2,0-19.8c0-4.2,2.4-6.9,5.8-6.8c3.3,0.1,5.4,2.7,5.4,6.8
		C303.6,70.4,303.5,77,303.5,83.6z"/>
	<path class="st10" d="M241.8,83.6h-11.2c0-6.6,0-13.2,0-19.8c0-4.1,2.1-6.6,5.4-6.8c3.4-0.1,5.8,2.5,5.8,6.8
		C241.9,70.4,241.8,77,241.8,83.6z"/>
	<path class="st11" d="M344.8,83.6h-11.2c0-4.4-0.1-8.7,0-13.1c0.1-3.8,2.3-6.2,5.6-6.2c3.3,0,5.5,2.4,5.6,6.2
		C344.8,74.9,344.8,79.3,344.8,83.6z"/>
	<path class="st12" d="M355.5,27.6c-3-0.1-5.7-2.9-5.5-5.9c0.2-2.9,2.9-5.4,5.7-5.3c3,0.1,5.7,2.9,5.5,5.9
		C361.1,25.2,358.4,27.7,355.5,27.6z"/>
	<path class="st12" d="M339.1,16.4c3,0,5.7,2.7,5.7,5.7c-0.1,2.9-2.7,5.5-5.5,5.5c-3,0-5.7-2.7-5.7-5.7
		C333.6,19,336.2,16.4,339.1,16.4z"/>
	<path class="st13" d="M350.8,304.1v0.9c0,12.8,0,25.6-0.1,38.4c-0.2,0-0.4,0-0.6,0c-1.4-0.2-2.2-1.4-3.1-2.2
		c-4.7-4.6-9.3-9.3-13.9-13.9c-0.2-0.2-0.4-0.4-0.6-0.6c-0.1-0.1-0.2-0.2-0.2-0.2c-0.8-0.8-1.6-1.5-2.3-2.4c-2-2.6-4.6-3.6-7.8-2.8
		c0,0-0.1-0.1-0.2-0.1c0,0-0.1,0-0.1-0.1c-4.7-2.6-7.6-7.1-11.4-10.6c-1.3-1.2-3-2.3-3.5-4.2c0,0,0,0,0,0c0,0,0-0.1,0-0.1
		c-0.1-0.3-0.1-0.6-0.1-1c1.1-3.2,3.1-6,4.6-9c7.3-14.8,7.8-30.2,3.7-46c0-0.1,0-0.3,0-0.4c0-0.2,0-0.4,0-0.5c0.1-0.5,0.3-1,0.7-1.5
		c3.2-3.3,6-7.1,10-9.5c0,0,0,0,0,0c0.1-0.1,0.2-0.1,0.3-0.2c1.5,0.1,2.4,1.2,3.4,2.2c1.5,1.4,2.6,1.3,3.2-0.8
		c1.5-5.8,2.9-11.6,4.5-17.3c0.6-2.2-0.4-3.1-2.6-2.5c-5.7,1.4-11.4,2.8-17,4.2c-2.5,0.6-2.7,1.9-0.9,3.7c0.9,0.9,1.8,1.7,2,3.1
		c-0.1,0.1-0.1,0.2-0.2,0.3c0,0,0,0,0,0c-1.9,3-4,5.7-7.5,7c-0.1,0-0.1,0.1-0.2,0.1c-0.1,0-0.1-0.1-0.1-0.1
		c-3.2-2.5-4.8-6.4-7.4-9.4c-10.7-12.7-24.4-19.7-40.6-22.1c0,0-0.1,0-0.1,0c-0.4,0-0.8-0.1-1.3-0.1h0
		c-32.8-3.5-63.1,19.8-68.3,52.7c-5.3,33.9,17,65.3,50.8,71.7c5.7,1.1,11.5,1.5,17.2,0.7c0,0,0,0,0,0c0.5-0.1,1-0.2,1.5-0.2
		c0.1,0,0.1,0,0.2,0c9.5-1.1,18.2-4.5,26.4-9.5c0.9-0.5,1.7-1,2.7-1.2c0.3,0,0.6-0.1,0.9,0c0,0,0.1,0,0.1,0.1c0,0,0,0,0.1,0
		c5.3,4.5,10.6,9.1,14.6,14.9c0,0,0.1,0.1,0.1,0.1c0,0,0.1,0.1,0.1,0.1c-0.8,3.3,0.5,5.6,2.9,7.9c5.2,5,10.2,10.1,15.3,15.3
		c0.9,1,2.3,1.8,2.5,3.2v0c0,0.2,0,0.4,0,0.7h-38.5c-61.8,0-123.6,0-185.5,0h-1.2c-5.5-2.4-10.4-5.6-14.8-9.7
		c-0.3-0.4-0.6-0.8-0.8-1.3c-0.3-0.7-0.4-1.4-0.4-2.2c0-7.9-0.3-15.9,0.1-23.8c0.1-0.5,0.2-0.9,0.4-1.2c0-0.1,0.1-0.2,0.2-0.3h0
		c0.2-0.4,0.5-0.7,0.9-1c4.9-4,5-5.6,0.3-9.5c-0.1-0.1-0.1-0.1-0.2-0.2c-0.1-0.1-0.2-0.2-0.3-0.3c-2.2-2.8-1.4-6-1-9.1
		c0.1-0.2,0.2-0.4,0.3-0.6c0-0.1,0.1-0.1,0.2-0.2c0.5-0.6,1.3-1,1.9-1.5c3.2-2.6,3.3-5.4,0.1-7.9c-0.7-0.5-1.5-0.9-2-1.6
		c-0.1-0.1-0.1-0.1-0.2-0.2c-0.1-0.1-0.2-0.3-0.2-0.4c-0.5-3.1-1-6.1,0.6-9.1c0,0,0,0,0-0.1c0.1-0.1,0.2-0.3,0.4-0.4
		c0.6-0.6,1.4-1.1,2.1-1.8c2.4-2.5,2.3-5.1-0.5-7.2c-0.8-0.6-1.6-1.1-2.1-1.8c-0.1-0.1-0.1-0.1-0.2-0.2c-0.2-0.4-0.4-0.8-0.5-1.3
		c-0.8-7.3-0.8-9.8,2.6-10.6c0,0,0,0,0,0c1.6-0.4,3.9-0.4,7.2-0.4c23.9,0,47.7,0,71.6,0c1.7,0,3.5,0.2,5.2-0.3c0,0,0.1,0,0.2-0.1
		c2.4-0.9,4.4-2.2,4.1-5.2c-0.2-2.4-2.9-4.2-6.1-4.4c-1.7-0.1-3.5,0-5.2-0.1c-1.2-0.1-2.4,0-3.2-1c0,0,0,0,0,0v0
		c-0.1-0.1-0.2-0.3-0.3-0.4c-1.1-5.3-0.3-10.6-0.5-16c-0.1-3.8,0.1-7.7-0.1-11.5c-0.1-1.6-0.2-3.5-2.4-3.6c-3-0.2-6-0.7-8.9-1
		c-1.7-0.2-3.4-0.2-5.1,0c-0.6,0.1-1.1,0.2-1.5,0.5c-0.2,0.1-0.3,0.2-0.5,0.3c-1.9,1.4-1.6,3.5-1.6,5.5c0,7.1,0,14.1,0,21.2
		c0,1.7,0.2,3.5-0.8,5.1v0c0,0.1-0.1,0.1-0.1,0.2c0,0-0.1,0.1-0.1,0.2c-2.5,1.3-5.1,1.3-7.6,0.1c-0.1-0.1-0.2-0.2-0.3-0.3
		c0,0-0.1-0.1-0.1-0.1c-0.9-1.3-0.8-3-0.8-4.5c-0.1-5.1,0.1-10.2-0.1-15.2c-0.1-3.6-0.8-4.3-4.4-4.5c-2.1-0.1-4.2,0-6.3,0h-0.6
		c-0.2,0-0.5,0-0.7,0c-8.1,0-8.1,0.5-8.1,9.3c0,3.7,0,7.4,0,11.1c0,1.4,0,2.8-0.8,3.9v0c0,0,0,0,0,0c-0.1,0.1-0.1,0.2-0.2,0.2
		c-2.6,1.2-5.1,1.2-7.7,0c-0.1-0.1-0.1-0.2-0.2-0.2c-0.1-0.1-0.1-0.1-0.1-0.2c-1-1.5-0.8-3.3-0.8-5c0-10.3,0-20.7,0-31
		c0-6.6-0.3-6.9-7-6.9c-1.2,0-2.5,0.1-3.7-0.1c-0.1,0-0.2,0-0.4,0c-0.2,0-0.5,0-0.7,0c-1.1,0-2.2-0.2-3.1-1.1l0,0c0,0,0,0,0-0.1
		c-0.8-1.2-0.8-2.5-0.8-3.9c0-6.1,0-12.2,0-18.2c0-1.5,0-3,1-4.2c0.1,0,0.1-0.1,0.2-0.1c0,0,0,0,0,0c2.2-1.3,4.7-0.9,7.1-0.9
		c82.3,0,164.5,0,246.8,0c2.4,0,5-0.7,7.4,0.1c0.4,0.1,0.7,0.3,1,0.5c0,35.1,0.1,70.1,0.1,105.2
		C350.8,289.5,350.8,296.8,350.8,304.1z"/>
	<path class="st14" d="M175.3,259.4c-1.3,1.1-2.9,0.6-4.3,0.6c-26.2,0-52.4,0.1-78.6-0.1c-3.3,0-4.5,0.8-4.2,4.2
		c0.3,2.3,0,4.7,0.1,7.1c-0.1,0.1-0.1,0.2-0.2,0.2c-1.4,1.2-3.1,0.8-4.7,0.9c-2.4,0.1-4.8-0.2-7.1,0.3c-2.4,0.5-4.1,2-4,4.6
		c0.1,2.8,1.9,3.9,4.4,4.1c2.7,0.2,5.5,0,8.2,0.1c1.3,0,2.7-0.1,3.8,0.8c0.1,0.1,0.3,0.2,0.4,0.4c-1.5,3.1-0.5,6.4-0.8,9.6
		c-0.1,0.1-0.2,0.2-0.2,0.2c-1.8,1.5-4.1,0.8-6.2,0.9c-1.7,0.1-3.5,0-5.2,0.1c-2.5,0.2-4.3,1.4-4.4,4.1c-0.1,2.7,1.5,4.1,4,4.6
		c2.3,0.5,4.7,0.2,7.1,0.3c1.6,0.1,3.4-0.3,4.7,0.9c0.1,0.1,0.1,0.1,0.2,0.2c0.5,3.2-1.4,6.8,1.5,9.7c-0.2,0.2-0.5,0.4-0.7,0.5
		c-2,1.1-4.3,0.5-6.4,0.6c-2.1,0.2-4.2-0.1-6.3,0.2c-2.2,0.2-3.7,1.3-4,3.7c-0.3,2.5,1,4,3.2,4.8c2.3,0.8,4.7,0.5,7,0.6
		c1.8,0.1,3.7-0.4,5.3,0.7h0c0.1,0.1,0.2,0.2,0.4,0.3c0,9.3,0,18.6,0,27.9v0.7c-3.3-1.3-5.6-3.9-8.3-6.1
		c-11.2-9.1-21.1-19.5-29.7-31.1c-0.2-0.3-0.2-0.7-0.3-1.1v-1c0-44,0-88,0-132.1c0-1.6,0-3.2,0.1-4.9c0.3-0.3,0.7-0.6,1-0.7
		c0.8-0.4,1.8-0.5,2.8-0.5c10.3-0.1,20.6-0.1,30.9,0c1,0,2,0.1,2.9,0.6c0.1,0,0.1,0.1,0.2,0.1c0.2,0.1,0.3,0.3,0.4,0.5
		c0,0.1,0.1,0.3,0.1,0.4c0,0.1,0,0.1,0,0.2l0,26.2c-0.1,0-0.2,0.1-0.3,0.1c-4.5,1.5-4.7,5-4.6,9.1c0.2,9.9,0.1,19.9,0,29.8
		c0,1.6,0.2,3.3-0.6,4.9c-0.1,0.2-0.2,0.3-0.3,0.5c0,0,0,0,0,0.1c-1.6,1.3-3.6,0.9-5.4,1.3c-3.3,0.6-4.9,2.3-4.6,4.8
		c0.3,3,2.5,3.7,5.1,3.8c1.5,0.1,3,0,4.5,0c28.9,0,57.9,0,86.8,0c1.8,0,3.7-0.4,5.3,0.5C174.6,258.8,175,259.1,175.3,259.4z"/>
	<path class="st15" d="M353.7,371.7c-6,3.7-12.7,3.1-17.8-1.7c-2.5-2.4-5-4.8-7.5-7.2c-0.3-0.3-0.6-0.6-0.9-0.9
		c-6.3-6.4-12.5-12.8-18.9-19.1c-2.2-2.2-2.7-4.3-1.2-6.9c0.1-0.1,0.1-0.3,0.2-0.4c1.3-2.9,4-4.7,6.2-6.8c2.6-2.6,4.8-5.7,8.1-7.5
		c0.1-0.1,0.3-0.1,0.4-0.2c2.9-1.7,5.2-0.9,7.2,1.5c1,1.2,2.2,2.4,3.3,3.5c0.3,0.5,0.4,1,0.3,1.4c-0.1,0.9-0.8,1.5-1.5,2.2
		c-1.5,1.7-3.2,3.2-4.7,4.8c-3.7,3.8-3.8,5.2-0.1,9c8,8,16,16,24,24c1,1,2.5,1.8,2.8,3.3C353.8,370.9,353.8,371.3,353.7,371.7z"/>
	<path class="st16" d="M353.7,371.7c-0.2-0.2-0.4-0.5-0.7-0.7c-8.9-9-17.7-17.9-26.6-26.9c-4.6-4.6-4.5-6-0.1-10.7
		c2.1-2.2,4.9-3.8,6.1-6.7c0.1-0.2,0.2-0.5,0.3-0.8c5.7,5.6,11.4,11.1,17.1,16.7c0.3,0.3,0.5,0.5,0.8,0.8c1.7,1.8,3.4,3.6,5.1,5.4
		C362.9,356.2,362,365.7,353.7,371.7z"/>
	<path class="st0" d="M88.4,177.5c0-0.2,0-0.4-0.1-0.5c-1-1.2-1.1-2.7-1.1-4.3c0-8.1,0-16.2,0-24.3c0-4.1,1.6-7.3,5.6-8.8
		c2,0,4-0.1,6-0.1c80.4,0,160.9,0,241.3,0c8.5,0,10.7,2.2,10.7,10.6c0,9-0.1,18-0.1,27c-2,0.1-4,0.4-6,0.4c-83.9,0-167.9,0-251.8,0
		C91.4,177.4,89.9,177.4,88.4,177.5z"/>
	<path class="st1" d="M92.8,139.5c-4,3.2-4.8,7.4-4.6,12.3c0.3,8.4,0.1,16.7,0.1,25.1c-12.7,0-25.4,0-38.1,0c0-10-0.1-20-0.1-29.9
		c0-4.5,3-7.5,7.5-7.6C69.4,139.3,81.1,139.4,92.8,139.5z"/>
	<path class="st17" d="M263,331.9c-32,4.6-65-17.5-71-53.4c-5.9-35.5,20.7-70,56.5-73.3c4.9-0.4,9.7-0.7,14.5,0.2
		c-0.5,2.1-2.5,1.8-3.9,2.2c-17.1,4.7-30.3,14.6-39.4,29.8c-0.7,1.2-1.3,2.4-1.7,3.7c-0.4,1.2-1.2,2.2-1.8,3.3
		c-9.3,16.2-9.3,32.3,0,48.5c0.6,1.1,1.3,2.1,1.8,3.3c5.7,12.1,14.7,21.1,26.3,27.6c4.7,2.6,9.7,4.6,14.9,5.8
		C260.6,329.9,262.5,329.8,263,331.9z"/>
	<path class="st11" d="M263,331.9c-6.5-2.4-13.3-3.9-19.4-7.3c-11.1-6.3-19.5-15.1-25.8-26.1c-0.3-0.5-0.3-1.2-0.4-1.8
		c1.7-0.2,2.3,1.2,3.2,2.1c12,12.6,26.4,18.2,43.8,14.6c23.1-5.1,38-25.3,36.4-49.3c0-1.2,0.7-2.1,1.5-2.9
		c3.5-3.6,7.1-7.2,10.7-10.7c0.7-0.7,1.4-1.4,2.6-1.2c6,18.8,3.5,36.5-6.5,53.3c-0.6,1.1-1.3,2.1-1.9,3.2c-3.3,6.7-8.3,11.6-14.9,15
		C283.3,326.5,273.7,330.7,263,331.9z"/>
	<path class="st11" d="M217.3,240.7c1.6-5.1,4.8-9.2,8.2-13.1c9.8-11.2,21.8-18.6,36.5-21.5c0.3-0.1,0.6-0.4,0.9-0.6
		c20,2.7,35.4,12.7,46.4,29.6c0.5,0.8,1.1,1.7,1.6,2.5c0.4,0.6,0.1,1.2-0.3,1.7c-3.4,3.8-7,7.4-10.8,10.8c-0.5,0.4-1.1,0.6-1.7,0.4
		c-3.1-3.4-4.9-7.7-7.9-11.2c-6.9-8.1-15.5-13.3-25.9-15.3c-17.1-3.5-31.2,1.9-43.2,14C220,239,219.4,240.8,217.3,240.7z"/>
	<path class="st18" d="M298.3,250.3c4.5-4,8.7-8.2,12.7-12.7c2.5-2.3,5-4.5,7.5-6.8c3.9,1.1,6.4,3.7,7.6,7.6
		c-3.5,3.6-6.9,7.3-10.4,10.9c-4.8,4.8-9.5,9.6-14.3,14.4c-0.2,1.5-1.4,2.3-2.3,3.3c-3.6,3.6-7.2,7.2-10.8,10.8
		c-5.5,5.5-8.1,5.5-13.7-0.1c-4.7-4.7-9.4-9.3-14-14c-2-2.1-3.5-2.2-5.5,0c-3.5,3.7-7.2,7.3-10.8,10.9c-1,1-1.9,2.4-3.7,2.3
		c-2.1-3-4.1-6-7-8.3c-0.1-0.3-0.1-0.7-0.1-1c6.4-7.4,13.4-14.1,20.5-20.7c2.7-2.6,5.4-2.2,8.6,0.9c5.3,5.1,10.4,10.4,15.7,15.6
		c3.1,3.1,3.1,3.1,6.1,0.1c3.5-3.5,7-7.1,10.6-10.6C296,251.8,296.8,250.6,298.3,250.3z"/>
	<path class="st19" d="M175.3,259.4c-32.4,0-64.9,0-97.3,0c-4.7,0-6.7-1.4-7-4.9c-0.3-3.4,1.6-5.8,5.5-6.2c1.8-0.2,3.7-0.1,5.6-0.2
		c2.9-2,6.1-1,9.2-1.1c4.3,0.3,8.7-1.2,12.8,1.1c2.6,0,5.2,0,7.8,0c3-2.1,6.4-0.8,9.6-1.1c4.2,0.3,8.5-1.2,12.6,1.1
		c2.6,0,5.1,0,7.7,0c3.3-2.1,6.9-0.9,10.4-1.1c3.9,0.3,8.1-1.1,11.8,1.1c3,0,5.9,0.1,8.9,0.1c3.4,0,5.9,1.5,6.7,4.7
		C180.2,256.2,178.3,258.3,175.3,259.4z"/>
	<path class="st20" d="M139.3,292.3c11.1,0,22.2,0,33.3,0c4.3,0,7.2,2.2,7.1,5.5c-0.1,3.7-2.6,5.8-7.2,5.8c-22.2,0-44.4,0-66.6,0
		c-5.1,0-7.8-2.4-7.3-6.3c0.5-3.4,2.4-4.9,6.3-4.9C116.4,292.3,127.9,292.3,139.3,292.3z"/>
	<path class="st19" d="M138.9,282.6c-11.1,0-22.2,0-33.4,0c-4.6,0-7.1-1.9-7.2-5.3c-0.1-3.4,2.9-5.9,7.2-5.9c22.4,0,44.7,0,67.1,0
		c3,0,5.3,0.9,6.6,3.9c0.9,2.2,0.3,3.9-1.1,5.5c-1.4,1.7-3.4,1.8-5.5,1.8C161.4,282.6,150.1,282.6,138.9,282.6z"/>
	<path class="st20" d="M139.2,313.2c11.2,0,22.5,0,33.7,0c3.9,0,6.5,2,6.8,5c0.3,2.8-2.4,5.6-5.9,6.2c-1,0.2-2,0.1-3,0.1
		c-21.2,0-42.5,0-63.7,0c-1.4,0-2.7-0.1-4.1-0.4c-3.2-0.7-4.8-2.9-4.5-5.9c0.3-3.2,2.4-5,5.9-4.9C116,313.3,127.6,313.2,139.2,313.2
		z"/>
	<path class="st21" d="M104,248.1c-4.2,0-8.5,0-12.7,0c-1.2-1.3-1.2-2.9-1.2-4.6c0-11.4,0-22.8,0-34.2c0-2,0.1-4,1.9-5.4
		c2.6,0,5.2,0,7.8-0.1c3.1-0.2,4.2,1.2,4.2,4.2C104,221.4,104,234.7,104,248.1z"/>
	<path class="st16" d="M292.3,320.7c5.6-4.4,10.6-9.4,14.9-15c5,5,10,10.1,15.1,15.1c-4.7,5.2-9.7,10.2-14.9,14.9
		C302.3,330.8,297.3,325.8,292.3,320.7z"/>
	<path class="st22" d="M163.9,248.1c-3.9,0.4-7.9,0.3-11.8,0c-1.3-1.6-1.1-3.5-1.2-5.4c0-7.4-0.2-14.7,0.1-22.1c0.1-3-0.4-4.9-4-4.5
		c-1.2,0.1-2.5-0.1-3.4-1.2c6-1.4,12.1,0,18.1,0c2.4,0,2.2,2.3,2.2,4C163.9,228.7,163.9,238.4,163.9,248.1z"/>
	<path class="st23" d="M92.1,203.9c-0.5,1.8-0.8,3.6-0.8,5.5c0.1,12.9,0,25.8,0,38.7c-3.1,0-6.2,0-9.3,0c0-12.6,0-25.2,0.1-37.8
		c0-6.3,0-6.3,6.2-6.6C89.6,203.8,90.8,203.9,92.1,203.9z"/>
	<path class="st24" d="M143.6,215c2.8,0.4,6.7-1.2,8.2,0.7c1.4,1.7,0.3,5.4,0.3,8.2c0,8.1,0,16.1,0,24.2c-3.5,0.3-6.9,0.3-10.4,0
		c0-9.6,0-19.2,0-28.8C141.7,217.6,141.2,215.6,143.6,215z"/>
	<path class="st19" d="M326,238.4c-2.2-2.9-4.7-5.4-7.6-7.6c-0.6-0.8-1.2-1.5-1.8-2.3c-0.9-1.2-3-1.9-2.3-3.9
		c0.6-1.7,2.5-1.5,3.8-1.9c5.7-1.5,11.3-2.9,17-4.3c3.1-0.7,4,0.2,3.3,3.2c-1.5,6.2-3.1,12.3-4.7,18.5c-0.8,3.2-1.8,3.4-4.2,1.2
		C328.3,240.3,327.2,239.3,326,238.4z"/>
	<path class="st11" d="M134,248.1c-4.2,0-8.4,0-12.7,0c-0.9-1-1.1-2.2-1.1-3.5c-0.1-6.1-0.1-12.2,0-18.2c0-1.5,0.3-3,1.9-3.8
		c2.6,0,5.2,0,7.8-0.1c3.2-0.2,4.2,1.3,4.1,4.3C133.9,233.9,134,241,134,248.1z"/>
	<path class="st25" d="M122.1,222.6c-1.3,2.3-0.7,4.9-0.7,7.3c-0.1,6.1,0,12.1,0,18.2c-3.2,0.3-6.3,0.3-9.5,0c0-6.8,0-13.6,0-20.5
		c0-4.7,0.5-5.1,5.1-5.1C118.6,222.5,120.3,222.6,122.1,222.6z"/>
	<path class="st19" d="M89.1,282.6c-4,0-7.9,0-11.9-0.1c-4.1-0.1-6.1-1.8-6.2-5.3c-0.1-3.5,2.2-5.8,6.2-5.9
		c3.7-0.1,7.4-0.1,11.2-0.1c2.7,0.9,5.1,2.2,5.2,5.4C93.6,279.7,92,281.7,89.1,282.6z"/>
	<path class="st20" d="M88.3,303.6c-3.6,0-7.2,0-10.8-0.1c-4.1-0.1-6.5-2.2-6.5-5.5c0-4,1.9-5.6,6.5-5.7c3.6,0,7.2-0.1,10.8-0.1
		c3,0.7,5.1,2.3,5.2,5.5C93.6,301.1,91.5,302.9,88.3,303.6z"/>
	<path class="st20" d="M88.3,324.5c-3.6,0-7.3,0.1-10.9,0c-4.1-0.2-6.3-2.2-6.4-5.4c-0.1-3.7,1.6-5.7,5.3-5.8c4.5-0.1,9,0,13.5,0
		c2.4,1.2,3.8,3,3.7,5.8C93.4,322.5,90.7,323.3,88.3,324.5z"/>
	<path class="st26" d="M298.3,157.7c0,3.1-2.6,5.7-5.8,5.6c-3-0.1-5.4-2.6-5.5-5.6c0-3.1,2.6-5.7,5.8-5.6
		C295.8,152.2,298.2,154.7,298.3,157.7z"/>
	<path class="st7" d="M331.3,157.7c0,3.1-2.7,5.7-5.8,5.6c-3-0.1-5.4-2.7-5.4-5.6c0-3.1,2.7-5.7,5.8-5.6
		C328.8,152.2,331.3,154.8,331.3,157.7z"/>
	<path class="st27" d="M309,163.3c-3.1-0.1-5.6-2.8-5.5-5.9c0.2-3,2.8-5.4,5.7-5.3c3.1,0.1,5.6,2.8,5.5,5.9
		C314.6,161,312,163.4,309,163.3z"/>
	<path class="st28" d="M217.3,240.7c7.2-8.8,16-15.1,27.3-17.6c6.7-1.5,13.5-2.2,20.2,0.1c-1.1,1.4-2.9,1.4-4.4,1.9
		c-16.6,5.5-26.6,17.1-31.1,33.7c-0.9,3.1-0.2,6.5-1.6,9.6c-0.5,1.1-1.5,1.6-2.4,2.3c-3,2.4-4.2,5.6-3.4,9.3c0.9,3.7,3.4,6,7.2,6.8
		c1.1,0.2,2.3,0.2,3.2,0.8c2.4,4.5,5,8.8,8.6,12.6c5.9,6.3,13,10.3,21.2,12.7c0.9,0.3,2,0.4,2.6,1.3c-13.1,3.5-24.9,0.2-36-6.9
		c-4.4-2.8-7.9-6.7-11.4-10.6c-5.4-8.2-8.9-17.1-9.1-27.1C208.1,258.9,211.6,249.4,217.3,240.7z"/>
	<path class="st3" d="M264.8,314.1c-6.7-0.8-12.6-3.7-17.9-7.6c-5.6-4-10.2-9-13.5-15.2c-0.6-1.1-1.2-2.2-1-3.5
		c0.4-1,1.3-1.4,2.2-1.8c2.9-1.5,4.6-3.9,5.1-7.2c0.1-0.8,0.2-1.7,1-2.3c5-4.9,10-9.7,14.9-14.7c1.9-1.9,3-1.8,4.7,0.1
		c5.2,5.4,10.5,10.6,15.8,15.9c4.3,4.3,6.5,4.2,11-0.1c4.8-4.7,9.6-9.4,14.4-14.1c1.7,10.9-1,20.8-6.8,29.9
		C287.6,304.5,277.8,311.8,264.8,314.1z"/>
	<path class="st3" d="M227.1,268.3c0.5-8.3,2.3-16.2,6.8-23.3c7.3-11.6,17.2-19.5,31-21.8c14.4,2.8,24.6,11.2,31.7,23.8
		c0.6,1.1,1.2,2.2,1.7,3.3c-5.1,5.2-10.3,10.5-15.4,15.8c-1.5,1.5-2.2,0.7-3.3-0.4c-5.5-5.6-11.1-11.1-16.7-16.7
		c-4.2-4.1-6.2-4.1-10.3-0.1c-6.3,6.2-12.6,12.4-18.9,18.6c-1.6,1.5-3.7,0.8-5.6,1.2C227.7,268.7,227.4,268.6,227.1,268.3z"/>
	<path class="st19" d="M227.1,268.3c0.3,0,0.5-0.1,0.8-0.1c2-0.4,3.9-0.4,5.9,0c3.7,1.7,6,4.5,6.9,8.4c-0.2,6.5-2,9-8.3,11.3
		c-4.6,0.2-8.4-1.3-10.6-5.5c-1.8-3.5-1.3-6.9,0.8-10.3C223.6,270.3,225.6,269.6,227.1,268.3z"/>
	<path class="st28" d="M233.7,268.2c-2,0-3.9,0-5.9,0c1.8-1.3,4-0.4,5.9-0.7C233.7,267.8,233.7,268,233.7,268.2z"/>
</g>
</svg>
