<?xml version="1.0" encoding="utf-8"?>
<!-- Generator: Adobe Illustrator 26.0.3, SVG Export Plug-In . SVG Version: 6.00 Build 0)  -->
<svg version="1.1" id="Calque_1" xmlns="http://www.w3.org/2000/svg" xmlns:xlink="http://www.w3.org/1999/xlink" x="0px" y="0px"
	 viewBox="0 0 387.3 387.3" style="enable-background:new 0 0 387.3 387.3;" xml:space="preserve">
<style type="text/css">
	.st0{fill:#FFFFFF;}
	.st1{fill:#FFFFFF;stroke:#FFFFFF;stroke-width:2;stroke-miterlimit:10;}
</style>
<circle class="st0" cx="173.5" cy="161.8" r="13.8"/>
<circle class="st0" cx="221.1" cy="231" r="13.8"/>
<g>
	<path class="st1" d="M293,171.4c-8.4-55.8-61.3-93.6-117.1-83.3c-37.4,6.9-63.6,28.9-76.5,64.6c-13,35.8-6.6,69.3,17.5,98.9
		c7.6,9.3,12.4,19.2,12.9,31.4c0.5,13.5,9.3,21.4,22.8,21.5c13.7,0,27.4,0,41.2,0c13.7,0,27.4,0,41.2,0c13.5,0,22.4-7.9,22.9-21.4
		c0.5-12.2,5.1-22.2,12.8-31.5C290,228.4,297.5,201.3,293,171.4z M264.2,247.5c-8.5,10.1-13.6,21.2-13.9,34.6
		c-0.2,10-5.8,14.8-15.8,14.8c-13.6,0-27.2,0-40.8,0c-13.7,0-27.4,0-41.2,0c-9.6,0-15.2-4.9-15.4-14.4c-0.3-13.6-5.6-24.9-14.2-35.3
		c-22.7-27.5-28.7-58.8-16.5-92.2c12.2-33.6,37.2-53.8,72.4-60c51.2-9.1,100.6,27.9,107.1,79.5C289.3,202,282.1,226.4,264.2,247.5z"
		/>
	<path class="st1" d="M240.1,342c-0.1,3.2-2.4,3.6-5,3.6c-13.8,0-27.7,0-41.5,0c-13.7,0-27.4,0-41.1,0c-2.7,0-5.3-0.2-5.3-3.7
		c0-3.4,2.5-3.8,5.2-3.8c27.5,0,55.1,0,82.6,0C237.8,338.1,240.2,338.7,240.1,342z"/>
	<path class="st1" d="M240.2,321.9c-0.1,2.7-1.8,3.6-4.3,3.6c-8.2,0-16.5,0-24.7,0h-17.9c-13.5,0-26.9,0-40.4,0
		c-2.7,0-5.7,0.2-5.7-3.6c0-3.6,2.8-3.9,5.6-3.9h81.8c0.5,0,1,0,1.5,0C238.5,318.2,240.2,319.2,240.2,321.9z"/>
	<path class="st1" d="M223.5,362.2c-0.1,3-2.5,3.6-5.1,3.6c-8.2-0.1-16.5,0-24.7,0s-16.5,0-24.7,0c-2.8,0-5.2-0.7-5.1-3.9
		c0.1-3,2.5-3.6,5.1-3.6c16.5,0,32.9,0,49.4,0C221.1,358.3,223.6,359,223.5,362.2z"/>
	<path class="st1" d="M197.4,26.2c0,12.3,0,24.7,0,37c0,2.7-0.8,4.8-3.9,4.8c-2.9-0.1-3.6-2.1-3.6-4.7c0-6.3,0-12.7,0-19
		c0-6,0-12,0-17.9c0-2.7,0.9-4.9,3.9-4.8C196.6,21.6,197.4,23.6,197.4,26.2z"/>
	<path class="st1" d="M136,83.4c-2.7,1.5-4.4-0.3-5.7-2.5c-3.1-5.4-6.2-10.8-9.3-16.2c-2.9-5-5.8-9.9-8.6-14.9
		c-0.6-1.1-1-2.2-1.8-3.8c0.8-1,1.4-2.5,2.4-2.9c1.2-0.4,2.9-0.1,4.1,0.4c0.9,0.4,1.3,1.7,1.9,2.7c5.8,10,11.6,20,17.4,30.1
		c0.1,0.2,0.2,0.4,0.4,0.6C138.2,79.4,139,81.8,136,83.4z"/>
	<path class="st1" d="M276.6,46.2c-0.6,1.4-0.9,2.3-1.4,3c-6.1,10.7-12.3,21.4-18.5,32c-1.7,2.9-4.4,3.7-6,1.8
		c-0.8-1-1.4-3.3-0.9-4.2c6.4-11.5,13-23,19.7-34.3c0.6-1,3.1-1.6,4.4-1.3C275.1,43.3,275.8,45.2,276.6,46.2z"/>
	<path class="st1" d="M93.6,125.9c-1.2,0.9-3.9,1.2-5.2,0.5c-11-6.1-21.9-12.4-32.7-18.9c-1.2-0.7-2.2-3-2.1-4.5
		c0-1.1,1.9-2.1,2.9-3.1c1.6,0.7,2.6,1.1,3.6,1.6c10.5,6,20.9,12,31.4,18.1C94.7,121.6,95.7,124.3,93.6,125.9z"/>
	<path class="st1" d="M331.8,107.6c-3.3,2-6.7,3.9-10,5.8c-7.2,4.2-14.4,8.4-21.7,12.5c-1.2,0.7-2.4,1.2-4.1,1.9
		c-1-0.9-2.4-1.6-2.8-2.6c-0.4-1.1-0.1-2.6,0.4-3.8c0.4-0.8,1.5-1.3,2.3-1.8c10.3-6,20.7-12,31-17.9c0.3-0.2,0.7-0.4,1-0.5
		c2.1-1.1,4.2-1.2,5.5,1.1C334.9,104.5,333.9,106.3,331.8,107.6z"/>
	<path class="st1" d="M91.4,246.4c-10.5,6-20.9,12.1-31.4,18.1c-1,0.5-2,0.9-3.5,1.5c-1-0.8-2.4-1.5-2.8-2.5
		c-0.4-1.1-0.1-2.6,0.4-3.8c0.3-0.8,1.5-1.3,2.3-1.8c10.3-6,20.7-11.9,31-17.9c2.3-1.4,4.7-2.4,6.5,0.5
		C95.7,243.4,93.7,245.1,91.4,246.4z"/>
	<path class="st1" d="M333.8,263.2c-0.6,1.2-2.1,2-3.2,2.8c-1.5-0.7-2.5-1-3.3-1.5c-10.5-6-20.9-12.1-31.4-18.1
		c-2.4-1.4-4.3-3.1-2.5-6c1.6-2.6,3.9-2,6.2-0.6c10.6,6.1,21.1,12.2,31.7,18.3C333.2,259.3,334.9,260.8,333.8,263.2z"/>
	<path class="st1" d="M78.5,182.9c0.1,3.1-2,4-4.7,4c-12.3,0-24.7,0-37,0c-2.7,0-4.9-1-4.7-4c0.1-2.8,2.2-3.6,4.8-3.5
		c6.2,0.1,12.5,0,18.7,0c6.1,0,12.2,0,18.3,0C76.4,179.3,78.4,180,78.5,182.9z"/>
	<path class="st1" d="M355.2,182.9c0.1,3-2,3.9-4.8,3.9c-12.3,0-24.7,0-37,0c-2.7,0-4.8-0.9-4.7-4c0.1-2.9,2.2-3.5,4.7-3.5
		c6.2,0.1,12.5,0,18.7,0c6.1,0,12.2,0,18.3,0C353.1,179.3,355.1,180.1,355.2,182.9z"/>
	<path class="st1" d="M218.9,168.5c-6.3-4.6-6.4-10.5-0.3-15.3c2.7-2.1,4.4-4.7,4.3-9.5c-1.8-6.4-5-13.4-11.7-17.9
		c-2-1.4-5.9-1.2-8.5-0.2c-8.5,3.1-12.8,0.9-14.3-8c-0.7-4.6-3.8-8.1-8.2-8.4c-5-0.4-10-0.4-14.9,0.2c-5.3,0.6-8.5,3.8-8.6,9.2
		c-0.2,7.2-6.8,11.6-13.7,8.2c-4.6-2.3-9.1-1.1-11.9,3.1c-2.8,4.1-5.2,8.5-7.2,13c-2,4.6-0.5,8.8,3.6,11.8c6.7,5,6.8,10.5,0.3,15.8
		c-4,3.2-5.4,7.4-3.2,11.9c2.2,4.4,4.8,8.8,7.6,12.8c2.9,4,7.4,4.8,12.1,2.7c7.7-3.3,12.6-0.7,13.8,7.6c0.8,5.2,3.8,8.5,9,8.9
		c4.3,0.3,8.7,0.3,13.1-0.1c6.5-0.7,9.1-3.6,9.9-10.1c1-7.5,6-10.4,13.1-7.5c5.3,2.1,9.6,1.1,12.8-3.6c2.5-3.7,4.7-7.7,6.5-11.7
		C225,176.1,223.5,171.9,218.9,168.5z M209.1,189.6c-0.4,0.5-2.4,0.2-3.4-0.2c-11.2-4.9-22.6,3.3-22.8,13.8c0,2.5-1.3,3.6-3.7,3.8
		c-1.6,0.1-3.2,0.2-4.9,0.3c-7.4,0.1-7.4,0.1-9.4-6.8c-2.6-9.2-13-14.2-21.8-10.1c-3.3,1.5-5.1,0.8-6.7-2c-0.7-1.2-1.5-2.3-2.2-3.5
		c-3.6-6.1-3.6-6.1,1.3-11c6.9-7,6.1-18.4-2.1-24.2c-2.8-2-3.2-3.8-1.7-6.5c0.8-1.4,1.4-2.9,2.2-4.3c3.3-5.8,3.3-5.8,9.6-4
		c9.5,2.7,19.2-3.7,20.1-13.5c0.4-3.7,1.8-5.1,5.4-5c1.1,0.1,2.2-0.1,3.4-0.2c7.4-0.2,7.4-0.2,9.4,6.8c2.6,9.2,12.8,14.2,21.8,10.1
		c3.2-1.5,5.1-0.9,6.8,2c0.7,1.2,1.5,2.3,2.2,3.5c3.6,6,3.6,6-1.3,11c-6.9,7-6,18.2,2,24.3c1.1,0.8,2.1,1.9,3.7,3.3
		C214.3,181.5,211.9,185.6,209.1,189.6z"/>
	<path class="st1" d="M251.8,233c3.7-2,5.1-4.8,4.2-9c-0.6-2.7-1.4-5.3-2.4-7.8c-1.9-4.5-4.5-5.9-9.5-5.2c-4,0.5-5.6-0.9-5.6-4.8
		c0-5.6-1.6-8-6.9-9.5c-2.3-0.6-4.6-1.1-7-1.4c-4.3-0.5-7.2,1.2-8.8,5.2c-2,4.6-3.5,5.1-8,2.4c-3.3-2-6.7-1.9-9.6,0.7
		c-2,1.7-3.8,3.6-5.4,5.7c-3.3,4.2-3.2,7.2,0,11.4c2.4,3.2,1.9,5.4-1.5,7.3c-4.7,2.6-6,5.3-4.8,10.4c0.6,2.4,1.4,4.8,2.4,7
		c1.8,4,4.2,5.4,8.6,5c5.4-0.5,6.4,0.5,6.3,5.8c-0.1,3.8,1.6,6.6,5.2,7.7c3,0.9,6,1.7,9.1,2.1c4.2,0.5,6.9-1.3,8.5-5.2
		c1.9-4.5,3.6-5.1,7.7-2.6c3.8,2.3,6.9,2.2,10.2-0.8c2.2-2,4.2-4.3,6-6.7c2.3-3.2,2.1-6.4-0.3-9.6C247,237.2,247.4,235.4,251.8,233z
		 M246.2,227.5c-6.7,3.9-7.3,11.2-1.8,19c-1.6,1.9-3.3,3.8-4.9,5.5c-2.6-1-4.7-2-6.9-2.5c-4.7-0.9-9.9,1.1-11.6,5.5
		c-1.6,4-3.8,3.8-6.9,2.8c-0.8-0.3-1.6-0.6-2.6-0.9c-0.2-10.2-4.3-14.2-13.9-14.3c-1.1,0-2.6-1.9-3-3.2c-0.5-1.5-0.6-4.1,0.3-4.8
		c8-6.3,8.9-11.1,3-20c1.6-1.8,3.3-3.7,5-5.6c8,4.9,15.9,4,20.4-6.6c2.4,0.5,4.9,1.1,7.4,1.6c-0.2,10.4,5.7,15.7,15.8,14.3
		c0.5,1.3,1,2.6,1.5,4C248.8,224.6,248.7,226.1,246.2,227.5z"/>
	<path class="st1" d="M173.6,141.2c-11.3-0.1-20.5,9-20.6,20.3c-0.1,11.5,9.1,20.9,20.5,20.8c11.3-0.1,20.4-9.2,20.4-20.5
		C193.9,150.4,184.9,141.2,173.6,141.2z M173.4,174.8c-7.2,0-12.9-6-12.9-13.2c0.1-7.3,6-13,13.2-12.8c7.1,0.1,12.7,5.9,12.7,13
		C186.4,168.9,180.5,174.8,173.4,174.8z"/>
	<path class="st1" d="M221.2,216.1c-7.9-0.1-14.6,6.4-14.7,14.3c-0.1,8.1,6.5,14.8,14.7,14.8c8,0,14.5-6.5,14.5-14.5
		C235.6,222.7,229.2,216.2,221.2,216.1z M221.1,237.7c-3.8,0-7.2-3.3-7.1-7.1c0-3.7,3.2-6.9,6.9-7c3.9-0.1,7.2,3,7.2,7
		C228.2,234.5,225.1,237.7,221.1,237.7z"/>
</g>
</svg>
