<?xml version="1.0" encoding="utf-8"?>
<!-- Generator: Adobe Illustrator 26.0.3, SVG Export Plug-In . SVG Version: 6.00 Build 0)  -->
<svg version="1.1" id="Calque_1" xmlns="http://www.w3.org/2000/svg" xmlns:xlink="http://www.w3.org/1999/xlink" x="0px" y="0px"
	 viewBox="0 0 387.3 387.3" style="enable-background:new 0 0 387.3 387.3;" xml:space="preserve">
<style type="text/css">
	.st0{fill:#FFFFFF;}
	.st1{fill:#8C9BA7;}
	.st2{fill:#FFC552;}
	.st3{fill:#BF943E;}
	.st4{fill:#7A8B97;}
	.st5{fill:#A1C877;}
	.st6{fill:#9CBC73;}
	.st7{fill:#FED065;}
</style>
<circle class="st0" cx="173.5" cy="161.8" r="13.8"/>
<circle class="st0" cx="221.1" cy="231" r="13.8"/>
<g>
	<path class="st1" d="M223.5,359.6c0.6,2.5-0.1,4.7-2.8,5.7c-0.9,1-2,0.7-3.1,0.7c-16.1,0-32.1,0-48.2,0c-4.9,0-6.8-2.9-5-7.6
		c0.8-2,2.6-2.7,4.5-2.7c16.5-0.1,32.9-0.1,49.4,0C220.9,355.8,222.9,357,223.5,359.6z"/>
	<path class="st1" d="M239.4,314c0.7,2.3,0.3,4.5-2.1,5.8c-1.1,1.2-2.6,1.3-4.1,1.3c-26.4,0-52.9,0-79.3,0c-5.5,0-7.8-3.7-5.2-8.2
		c1-2,2.8-2.2,4.8-2.2c26.8,0,53.6,0,80.4,0C236.4,310.5,238.6,311.3,239.4,314z"/>
	<path class="st1" d="M239.5,337c0.6,2.7-0.1,5-3.1,5.9c-1,1.1-2.3,0.7-3.5,0.7c-26.2,0-52.5,0-78.7,0c-2.5,0-4.8-0.5-6.1-2.8
		c-1-1.9-1.2-3.8,0.6-5.4c1.1-2.1,3.1-2.2,5.1-2.2c26.5,0,53.1,0,79.6,0C236.3,333.1,238.8,333.9,239.5,337z"/>
	<path class="st2" d="M265.3,134.8c-10.6-18.2-25.6-31.8-44.8-40.6c-9.7-4.5-19.9-7.3-30.6-7.6c-2.9-0.3-5.7,0.2-8.5,0.5
		c-21.4,2.5-40,11.4-55.3,26.3c-21.4,20.8-31.6,46.3-30,76.4c1.1,21,8.2,39.7,21.6,55.7c8,9.5,13,19.6,13.1,32.4
		c0.1,10.8,9.8,19.9,20.5,20c24.8,0.2,49.7,0,74.5-0.1c11-2.5,16.9-9.8,17.6-21.3c0.4-6.3,1.2-12.6,4.5-18.3
		c0.6-1.1,1.2-2.2,0.8-3.5c-0.2-0.1-0.3-0.2-0.4-0.2c-0.1,0-0.1-0.1-0.2-0.1c-1.4-0.5-2.1,0.9-2.9,1.6c-0.9,0.8-1.8,1.5-2.7,2.1
		c0,0,0,0,0,0c-0.6,0.3-1.2,0.6-1.8,0.8c-0.2,0.1-0.5,0.1-0.7,0.2c-2,0.5-3.6-0.3-5.2-1.3c-2.3-1.5-4.5-1.6-6.9-0.3
		c-0.1,0.1-0.2,0.1-0.3,0.2c-0.2,0.1-0.3,0.3-0.5,0.4v0c-0.6,0.7-0.9,1.4-1.2,2.3c-0.9,2.3-2.2,3.8-4.2,4.5c0,0,0,0,0,0
		c-0.5,0.2-1,0.3-1.6,0.4c0,0,0,0,0,0c-0.6,0.1-1.2,0.1-1.8,0.1c-2.5,0.1-4.9-0.7-7.3-1.4c-4.2-1.1-6-3.4-6.4-7.6
		c-0.6-6.1-1.1-6.6-7.4-6.7c-3.1,0-5.7-0.9-7.2-3.7c-1.5-2.8-2.4-5.7-2.7-8.8c-0.3-3.5,1-6,3.8-7.9c4.6-3.2,4.8-4.7,1.9-9.5
		c-1.1-1.9-2.3-3.8-1.4-5.9c2.4-5.2,5.4-9.9,11.7-10.8c0.4-0.1,0.8-0.1,1.1,0c1.5,0.1,2.8,0.9,4.1,1.7c0.3,0.1,0.5,0.3,0.8,0.4
		c4,0.8,4.9,0.3,7.1-3.6c2.7-4.8,4.5-5.7,9.6-4.8c1.1,0.3,2.3,0.3,3.5,0.7c0,0,0.1,0,0.1,0c0,0,0.1,0,0.1,0c0.1,0,0.1,0,0.2,0
		c1.4,0.3,2.5,0.7,3.4,1.1c0,0,0,0,0,0c3,1.4,4,3.4,4.4,8.1c0.1,1.6,0.4,3,1.5,4.1c0.1,0.1,0.3,0.2,0.4,0.4c0.2,0.2,0.5,0.3,0.8,0.5
		c1.5,0.5,3.1,0.4,4.7,0.4c0.7-0.1,1.3,0,1.9,0c0.7,0.1,1.4,0.3,2,0.6c0,0,0,0,0,0c0.9,0.4,1.7,1.1,2.4,1.9c1.8,2,2.4,4.6,3.1,7.2
		c1.4,5.2,1,7.3-2.6,10.1c0,0,0,0,0,0c-0.5,0.4-1,0.8-1.6,1.2c-0.4,0.3-0.7,0.5-1,0.8c0,0,0,0,0,0c-2,2-2.6,4.7-0.9,6.9
		c2.3,2.9,2.7,6,2.6,9.3v0.1c0,0,0.1,0.1,0.2,0.1c2.1,1.4,2.7-1,3.5-1.9c15.1-17.4,23-37.9,23.9-60.8
		C279.3,168.7,274.8,151.1,265.3,134.8z M169.6,174.3c-5.7-2.1-9-6.1-9.1-12.3c-0.1-6.4,3.2-10.5,9.1-12.7
		c5.8-1.4,10.6,0.4,14.2,5.1c3,3.9,3.2,8.3,1.3,12.8C182.8,172.8,176.9,175.5,169.6,174.3z"/>
	<path class="st3" d="M290.9,192.7c-1.6,21.6-10.3,40.4-24.5,56.7c-6.4,7.3-9.9,15.8-9.8,25.6c0,13.9-10.9,23.9-23.6,23
		c-2.4-0.2-4.7-0.1-7.1-0.1c5.9-2.5,11.4-5.4,14.3-11.6c1-2.3,2.1-4.5,2.2-7c0.2-8.1,1.3-16,5.5-23.2c0.3-0.4,0.3-1,0.4-1.5
		c0-0.1,0-0.2,0-0.3v0c-0.4-2.3,0.6-3.6,2.7-4.2c0.1,0,0.2-0.1,0.4-0.1c5.3-4,8.6-9.6,12-15.1c7.2-11.3,11.6-23.8,13.3-36.9
		c3.6-28-3.4-53.2-21.1-75.4c-8.7-10.9-19.4-19.3-31.7-25.7c-10.1-5.2-20.9-8.5-32.3-9.7c-0.6-0.1-1.1-0.4-1.7-0.6
		c26-0.9,49,7.1,68.3,24.4C282.6,132.7,293.3,160.3,290.9,192.7z"/>
	<path class="st1" d="M236.4,342.9c-1,1.1-2.3,0.7-3.5,0.7c-26.2,0-52.5,0-78.7,0c-2.5,0-4.8-0.5-6.1-2.8c-1-1.9-1.2-3.8,0.6-5.4
		c1.6-0.4,3.2-0.5,4.8-0.5c24.3,0,48.7,0,73,0c2,0,4-0.1,5.9,0.5C236.1,336.6,237.5,339.3,236.4,342.9z"/>
	<path class="st1" d="M237.3,319.7c-1.1,1.2-2.6,1.3-4.1,1.3c-26.4,0-52.9,0-79.3,0c-5.5,0-7.8-3.7-5.2-8.2c1.4-0.2,2.7-0.4,4.1-0.4
		c25.2,0,50.3,0,75.4,0c3.5,0,6.7,0.5,8.5,4.1C237.2,317.5,237.3,318.6,237.3,319.7z"/>
	<path class="st1" d="M220.7,365.4c-0.9,1-2,0.7-3.1,0.7c-16.1,0-32.1,0-48.2,0c-4.9,0-6.8-2.9-5-7.6c4.5-0.7,8.9-0.3,13.4-0.3
		c11.9-0.1,23.9-0.1,35.8,0C219,358.3,220.9,360.3,220.7,365.4z"/>
	<path class="st2" d="M91.9,246.2c-10.9,6.3-21.8,12.6-32.7,18.9c-0.7,0.4-1.6,0.6-1.8,0.7c-2.6,0.2-3.8-0.8-4.2-2.6
		c-0.6-2,0.4-3.4,2.1-4.3c5.9-3.5,11.9-6.9,17.8-10.3c5-2.9,10-5.7,14.9-8.6c2.3-1.3,4.3-1.6,5.9,0.7C95.5,243.1,94,245,91.9,246.2z
		"/>
	<path class="st2" d="M334.2,263.2c-0.5,1.8-1.8,2.7-3.6,2.5c-1.2,0.1-2.2-0.5-3.2-1.1c-10.5-6-21-12-31.4-18.1
		c-2.1-1.2-4.3-2.8-2.5-5.7c1.7-2.9,3.9-2.2,6.4-0.8c10.6,6.2,21.4,12.4,32.1,18.5C333.6,259.7,334.8,261,334.2,263.2z"/>
	<path class="st2" d="M197.4,63.2c0,2.8-0.8,4.7-4,4.6c-3-0.1-3.6-2.1-3.6-4.6c0-12.3,0-24.7,0-37c0-2.8,1-4.9,3.9-4.8
		c2.7,0.1,3.6,2.2,3.6,4.8c-0.1,6.2,0,12.5,0,18.7C197.4,50.9,197.4,57.1,197.4,63.2z"/>
	<path class="st2" d="M136.1,83.3c-2.6,1.7-4.3,0.1-5.5-2c-4.2-7.2-8.4-14.5-12.6-21.7c-1.9-3.3-3.9-6.7-5.8-10
		c-0.6-1.1-1.3-2.2-1.2-3.5c-0.1-1.9,0.9-3.1,2.7-3.5c2.2-0.5,3.5,0.7,4.5,2.5c4.6,8,9.2,16,13.9,24c1.6,2.8,3.2,5.6,4.9,8.4
		C138.4,79.7,138.4,81.8,136.1,83.3z"/>
	<path class="st2" d="M355.4,183.2c0,2.9-2.2,3.8-5,3.8c-6.1-0.1-12.2,0-18.3,0c-6.1,0-12.2,0-18.3,0c-2.7,0-4.8-0.6-4.8-3.8
		s2.2-3.8,4.8-3.8c12.2,0,24.4,0,36.6,0C353.2,179.4,355.4,180.2,355.4,183.2z"/>
	<path class="st2" d="M78.3,183.2c0,3.2-2.2,3.7-4.9,3.7c-12.2,0-24.4,0-36.6,0c-2.7,0-5-0.9-4.9-3.8c0-2.9,2.3-3.7,5-3.7
		c6.1,0.1,12.2,0,18.3,0c6.1,0,12.2,0,18.3,0C76.2,179.4,78.3,180,78.3,183.2z"/>
	<path class="st2" d="M274.7,50.2c-5.8,10.1-11.6,20.1-17.4,30.1c-0.4,0.6-0.8,1.3-1.2,1.9c-1.3,1.6-2.9,2.5-4.9,1.2
		c-1.9-1.3-2.6-3-1.3-5.1c6.5-11.2,12.9-22.5,19.5-33.7c1-1.7,2.4-2.5,4.4-1.9c1.6,0.5,2.5,1.6,2.4,3.2
		C276.4,47.6,275.5,48.9,274.7,50.2z"/>
	<path class="st2" d="M94.2,124.9c-1,2.5-3,3.4-5.5,2c-11.2-6.4-22.5-12.9-33.7-19.5c-1.6-1-2.5-2.4-1.8-4.4
		c0.5-1.6,1.6-2.5,3.3-2.4c1.4-0.2,2.5,0.5,3.6,1.1c10.4,6,20.8,11.9,31.1,17.9C93.1,120.7,95.3,122,94.2,124.9z"/>
	<path class="st2" d="M331.7,107.8c-8,4.6-16,9.2-23.9,13.8c-2.6,1.5-5.2,2.9-7.8,4.5c-2.3,1.5-4.7,2.4-6.5-0.4
		c-2-3.2,0.6-4.8,2.8-6.1c9.3-5.4,18.6-10.7,27.9-16c2-1.2,3.9-2.7,5.2-2.9c3-0.1,4.1,0.8,4.6,2.6
		C334.7,105.5,333.5,106.7,331.7,107.8z"/>
	<path class="st4" d="M236.4,342.9c-0.4-5.1-2.2-6.8-7.3-6.8c-25.4,0-50.7,0-76.1,0c-1.4,0-3,0.6-4.3-0.7c1.1-2.1,3.1-2.2,5.1-2.2
		c26.5,0,53.1,0,79.6,0c2.9,0,5.3,0.7,6,3.9C240.1,339.7,239.4,341.9,236.4,342.9z"/>
	<path class="st4" d="M237.3,319.7c-0.8-0.4-0.8-1.2-1.1-1.9c-1.2-3-3.1-4.3-6.6-4.3c-25.6,0.1-51.2,0.1-76.8,0
		c-1.4,0-3,0.6-4.2-0.8c1-2,2.8-2.2,4.8-2.2c26.8,0,53.6,0,80.4,0c2.6,0,4.7,0.8,5.6,3.4C240.1,316.3,239.7,318.4,237.3,319.7z"/>
	<path class="st4" d="M220.7,365.4c-2.4-6-2.4-6-9.4-6c-14.2,0-28.5,0-42.7,0c-1.4,0-3,0.6-4.2-0.8c0.8-2,2.6-2.7,4.5-2.7
		c16.5-0.1,32.9-0.1,49.4,0c2.6,0,4.7,1.2,5.3,3.9C224.1,362.2,223.4,364.3,220.7,365.4z"/>
	<path class="st5" d="M214.5,166.3c-3.4-3.6-3.3-7.7,0.3-11.2c0.8-0.8,1.7-1.4,2.5-2.2c3.3-3.3,4.5-7.2,2.8-11.6
		c-1.6-4-3.7-7.9-6.2-11.5c-1.7-2.4-3.8-4.2-6.7-5c-1.9-0.3-3.7,0.2-5.3,1c-2.6,1.4-5.4,1.6-8.2,0.6c-4.1-0.8-6.7-3.3-7.1-7.3
		c-0.4-4.1-2.2-7.2-5.4-9.5c-5.6-1.4-11.3-1.2-16.9-0.1c-4.8,1-7.1,4.4-7.8,9c-1.2,7.6-2.9,9.1-10.7,9.3c-2.2,0.2-4-1-5.9-1.7
		c-3.8-1-6.5,0.9-8.7,3.6c-3,3.7-5.2,7.9-7,12.3c-2.2,5.5-1,9.6,3.8,13.1c6.2,4.5,6.3,10.5,0.3,15.1c-4.4,3.4-5.7,7.8-3.5,12.8
		c1.6,3.7,3.5,7.2,6,10.3c4.7,6.1,8.1,7,15.1,4c5.5-2.4,11,0.7,12,6.7c0.2,1.1,0.4,2.2,0.7,3.3c1,3.7,3.4,6.3,7.1,7
		c5.4,1,10.8,1,16.2-0.3c4-1.8,5.9-4.9,6.2-9.3c0.3-4.6,2.9-7.5,7.4-8.8c3-0.2,5.9-0.3,8.7,1.2c1.2,0.6,3,1.6,4.6,0.4
		c4.8-1.7,6.9-5.8,9-9.9C223.4,176.1,223.3,175.4,214.5,166.3z M169.6,174.3c-5.7-2.1-9-6.1-9.1-12.3c-0.1-6.4,3.2-10.5,9.1-12.7
		c5.8-1.4,10.6,0.4,14.2,5.1c3,3.9,3.2,8.3,1.3,12.8C182.8,172.8,176.9,175.5,169.6,174.3z"/>
	<path class="st5" d="M251.3,216.2c-0.6-1.4-1.3-2.7-2.4-3.5c0,0,0,0,0,0c-0.9-0.8-2.1-1.3-3.5-1.6c-1.8,0-3.5-0.1-5.3-0.2
		c-0.4-0.1-0.7-0.1-1-0.2c-2.2-0.7-2.9-2.5-2.8-5.1c0-3.5-0.9-5.7-3-7.1c0,0,0,0,0,0c-0.9-0.6-2-1.1-3.4-1.5
		c-0.1-0.1-0.1-0.1-0.2-0.1c-0.1,0-0.1-0.1-0.2-0.1c-1.1-0.7-2.5-0.1-3.6-0.9c-5.1-1.4-8.2,0-10.3,5c-1.2,3-3,4.4-6.2,3.4
		c-2.2-0.2-4-1.6-6-2.3c-2.7-0.5-4.5,1.1-6.4,2.5c-7.1,5.7-8,9.9-3.8,17.4c1.5,2.7,1,4.8-1.9,6.1c-4.4,2-5.7,5.4-5.2,10.1
		c1.1,9,4.5,12.5,13.1,12.6c3.3,0,4.5,1.7,4.2,4.7c-0.3,4,1,7.3,4.8,8.9c3.2,1.4,6.5,2.4,10.1,2.1c1.2-0.2,2.3-0.7,3.2-1.3
		c0,0,0,0,0,0c1.1-0.8,1.8-1.9,2.4-3.4c0.6-1.6,1.4-3,3-3.4v0c0.3-0.1,0.7-0.1,1.1-0.1c2.4-1,4.4-0.8,6.6,0.9
		c1.5,1.2,3.4,2.1,5.5,0.8c0.8-0.5,1.5-1.1,2.2-1.6c0,0,0,0,0,0c2-1.7,3.8-3.7,5.3-6c2.4-3.6,2.6-7.1,0.2-10.8
		c-2.6-4.1-2.6-5,1.3-7.5c0,0,0,0,0,0c0.2-0.1,0.4-0.2,0.6-0.4c0.8-0.5,1.5-1,2-1.6c0,0,0,0,0,0c1.2-1.4,1.8-3.1,1.9-5.1
		C254,222.9,252.7,219.5,251.3,216.2z M218.6,237.8c-6.1-4.4-6.2-9.5-0.2-13.5c3.2-0.7,6.2-0.4,8.3,2.5c1.7,2.3,1.9,4.8,0.6,7.4
		C225.4,237.7,222.1,238.1,218.6,237.8z"/>
	<path class="st6" d="M208.7,197.5c5.8-4.3,8.5-10.5,11.2-16.9c1.9-4.7,0.4-8.7-3.7-11.7c-5.1-3.7-6.2-6.8-4.2-11.7
		c0.6-1.6,1.7-2.6,3.1-3.6c5.1-3.7,6.2-8.3,3.4-14c-2.8-5.7-5.5-11.4-11.2-14.9c3-0.3,5.4,1.1,7.2,3.2c3.2,4,6.1,8.2,7.9,13.1
		c1.8,5,0.8,8.6-3.3,12c-6.5,5.4-6.5,10.7,0.2,15.7c4.4,3.3,5.5,7.5,3.6,12.5c-1.6,4.2-3.8,8.1-6.5,11.7
		C214.5,195.5,212.2,197.7,208.7,197.5z"/>
	<path class="st6" d="M240.2,259.7c1.1-3.1,4.3-4.5,6.1-7.2c3.3-5,3.5-7.1-0.1-12c-2.3-3.1-2-5.2,1.6-6.8c4-1.8,5.7-4.8,5-8.9
		c-0.9-5.4-1.9-10.8-7.4-13.8c3.8-0.3,6.4,1.5,8,4.8c1.5,3,2.5,6.3,2.8,9.6c0.3,3.1-1,5.8-3.9,7.5c-5,2.9-5.4,4.3-2,8.8
		c1.9,2.5,2,5.3,1,8.1c-1.1,1.4-2.5,2.6-3,4.3C245.7,256.1,244.1,259.6,240.2,259.7z"/>
	<path class="st6" d="M181.8,214c-0.6-1.4,0.8-1.2,1.3-1.5c2.7-1.9,3.7-4.5,3.8-7.6c0.2-4.9,3.6-9.7,8.4-8.8
		c-3.8,2.2-4.8,5.9-5.4,9.9C189.3,210.9,186.5,213.3,181.8,214z"/>
	<path class="st6" d="M193.6,126.4c-4,0.4-7.7-2.2-8-6.6c-0.3-4-1.3-7.2-4.8-9.3c-0.1,0,0.2-0.6,0.3-0.9c4.5,0.8,6.8,3.7,7.4,8
		C188.9,121.3,190,124.5,193.6,126.4z"/>
	<path class="st6" d="M240.2,210.9c-3.3,0.8-5.2-0.9-4.9-4.4c0.4-4.9-0.9-7-5.6-9.1c-0.2-0.2-0.3-0.4-0.2-0.6
		c0.1-0.2,0.2-0.3,0.2-0.3c6.4,0.9,8.9,3.6,8.9,10C238.5,208.3,239.1,209.6,240.2,210.9z"/>
	<path class="st6" d="M218.4,266.3c2.6-1.3,4.4-3.4,5.2-6.2c0.6-2.1,2-3.4,4.4-2c-0.5,1-1.1,1.9-1.5,2.9
		C225.2,264.7,222.5,266.6,218.4,266.3z"/>
	<path class="st6" d="M209.4,204.2c-2.7,1.1-4.3-0.7-6-2.3C205.8,201.5,207.6,202.9,209.4,204.2z"/>
	<path class="st6" d="M145.6,127.8c-2.5,1.1-4.2-0.2-5.9-1.7C141.9,125.8,143.7,127.2,145.6,127.8z"/>
	<path class="st6" d="M229.7,196.5c0,0.3,0,0.6,0,0.8c-1.1-1-2.8-0.2-3.7-1.6C227.2,195.9,228.6,195.6,229.7,196.5z"/>
	<path class="st2" d="M169.6,174.3c-6.4-1-9.9-5.4-9.9-12.3c-0.1-7.1,3.5-11.7,9.9-12.8c-5.8,2.2-9.1,6.3-9.1,12.7
		C160.6,168.2,163.9,172.2,169.6,174.3z"/>
	<path class="st6" d="M169.6,174.3c-4.3,0.6-7.5-1.4-9.8-4.6c-2.9-3.9-3.7-8.3-1.7-13c2-4.6,5.6-7.1,10.5-8c0.3,0,0.6,0.3,1,0.5
		c-5.8,2.2-9.1,6.3-9.1,12.7C160.6,168.2,163.9,172.2,169.6,174.3z"/>
	<path class="st7" d="M218.6,237.8c-3.6-1.2-5.7-4-5.5-7.4c0.2-3.2,1.9-5.3,5.3-6.2C212.4,228.3,212.5,233.4,218.6,237.8z"/>
	<path class="st6" d="M218.6,237.8c-4.3-0.1-7.3-2.4-7.7-5.9c-0.4-3.5,2.2-7,5.8-8.1c0.7-0.2,1.2-0.1,1.7,0.5
		C212.4,228.3,212.5,233.4,218.6,237.8z"/>
</g>
</svg>
