<?xml version="1.0" encoding="utf-8"?>
<!-- Generator: Adobe Illustrator 26.0.3, SVG Export Plug-In . SVG Version: 6.00 Build 0)  -->
<svg version="1.1" id="Calque_1" xmlns="http://www.w3.org/2000/svg" xmlns:xlink="http://www.w3.org/1999/xlink" x="0px" y="0px"
	 viewBox="0 0 383.3 384.1" style="enable-background:new 0 0 383.3 384.1;" xml:space="preserve">
<style type="text/css">
	.st0{fill:#0A9642;}
</style>
<g>
	<g>
		<path class="st0" d="M337,76.8c-1.2-0.2-2.6-0.2-4-0.2c-45.6,0-92.8,0-139.2,0.1c-4.6,0-7.2-1.8-8.8-6.2l0,0l0,0
			c-3-8.8-8.5-16.3-16-21.7c-7.4-5.3-16.1-8.1-25.3-8.1c-18.6,0-35.2,12-41.2,30c-1.4,4.1-4,6-8.1,6c-0.2,0-0.3,0-0.5,0
			c-7.5-0.1-15.2-0.1-22.6-0.1c-7.4,0-15.1,0-22.7,0c-3.9,0-6.3,1.4-7.9,4.6c-1.2,2.5-1.1,5.2,0.3,7.5c1.5,2.4,4.3,3.9,7.5,3.9
			c7.6,0,15.2,0.1,22.8,0.1s15.2,0,22.8-0.1c4.3,0,6.8,1.8,8.3,5.8l0,0l0,0c6,17.9,22.5,30,41.1,30.1h0.2c18.7,0,35.3-12,41.3-30
			c1.8-5.3,5.5-6,8.6-6c7.1,0,14.8,0,23.6,0c7.9,0,15.7,0,23.5,0c7.9,0,15.7,0,23.6,0h21.3c5.5,0,11.1,0,16.6,0c5.5,0,11.1,0,16.6,0
			c6.2,0,11.6,0,16.6,0c4.1,0,7.5-3,7.9-7.1C343.7,81.4,341,77.6,337,76.8z M143.7,112.5h-0.2c-7.4-0.1-14.4-3.1-19.7-8.5
			c-5.2-5.4-8-12.4-8-19.9c0.1-15.2,12.7-27.6,28-27.6c15.4,0,27.9,12.6,27.9,28.1C171.6,100,159,112.5,143.7,112.5z"/>
	</g>
	<g>
		<path class="st0" d="M333.8,184.3c-3.7,0-7.3,0-11,0c-3.7,0-7.4,0-11,0c-8.9,0-15.7,0-22,0.1h0c-4.6,0-7.4-2-9-6.3
			c-3-8.8-8.5-16.3-15.9-21.6c-7.4-5.3-16.1-8.1-25.2-8.1c-18.7,0-35.3,12-41.3,29.8l0,0l0,0c-1.5,4.3-4.2,6.1-8.8,6.1
			c-46.3-0.1-93.3-0.1-138.8-0.1c-0.4,0-0.9,0-1.3,0c-0.4,0-0.8,0-1.2,0c-0.3,0-0.6,0-0.9,0c-3.4,0.4-5.6,2-6.8,5.1
			c-1,2.6-0.8,5.2,0.7,7.3c1.6,2.3,4.3,3.6,7.5,3.6c7,0,14.7,0,23.4,0c7.8,0,15.6,0,23.5,0c7.8,0,15.6,0,23.4,0h71.1
			c2.9,0,6.3,0.6,8,5.6c3,9,8.5,16.6,16,22c7.4,5.4,16.1,8.2,25.3,8.2c19,0,35.2-11.8,41.5-30.1c1.3-4.1,3.9-5.9,8.3-5.9
			c14.8,0.1,29.9,0.1,44.5,0.1c3.2,0,5.9-0.9,7.6-2.7c1.4-1.4,2-3.2,2-5.4C343.2,187.4,339.5,184.3,333.8,184.3z M239.3,220.3
			L239.3,220.3c-15.2-0.1-27.7-12.6-27.8-27.9v-0.1c0.1-15.4,12.7-28,28-28c7.5,0,14.5,2.9,19.8,8.3c5.3,5.3,8.1,12.3,8.1,19.8
			C267.4,207.8,254.8,220.3,239.3,220.3z"/>
	</g>
	<g>
		<path class="st0" d="M342.1,296c-1.6-2.4-4.5-3.8-7.8-3.8H193.6c-2.8,0-6.8-0.6-8.6-5.9c-3-8.9-8.5-16.4-15.9-21.8
			c-7.4-5.3-16.1-8.2-25.3-8.2h-0.2c-18.6,0.1-35.1,12.2-41.2,30.1c-1.4,4.1-3.9,5.9-8.2,5.9h0c-6.5-0.1-13.4-0.1-22.4-0.1
			c-3.7,0-7.5,0-11.2,0c-3.8,0-7.5,0-11.2,0c-5.7,0-9.3,3.1-9.3,8c0,4.8,3.7,7.9,9.4,7.9h44.9c2.8,0,6.3,0.6,8,5.6
			c3,9,8.5,16.6,16,22c7.4,5.4,16.2,8.2,25.3,8.2c19,0,35.2-11.8,41.5-30.1c1.3-4,3.9-5.9,8.2-5.9c23.6,0.1,47.5,0.1,70.7,0.1h70.3
			c2.4,0,6.7-0.6,8.3-5l0-0.1l0-0.1C343.6,300.5,343.4,298,342.1,296z M143.8,328.1h-0.2c-15.4-0.1-27.9-12.8-27.8-28.2
			c0.1-15.3,12.6-27.7,27.9-27.7c15.4,0,28,12.6,28,28C171.6,315.6,159.1,328.1,143.8,328.1z"/>
	</g>
</g>
</svg>
