<?xml version="1.0" encoding="utf-8"?>
<!-- Generator: Adobe Illustrator 26.0.3, SVG Export Plug-In . SVG Version: 6.00 Build 0)  -->
<svg version="1.1" id="Calque_1" xmlns="http://www.w3.org/2000/svg" xmlns:xlink="http://www.w3.org/1999/xlink" x="0px" y="0px"
	 viewBox="0 0 383.3 384.1" style="enable-background:new 0 0 383.3 384.1;" xml:space="preserve">
<style type="text/css">
	.st0{fill:#0A9642;}
</style>
<g>
	<path class="st0" d="M48.5,96.5c15.2,0.1,30.4,0.1,45.6,0c2.5,0,3.6,0.7,4.5,3.2c6.6,19.7,24.6,32.7,44.9,32.8
		c20.5,0.1,38.7-12.8,45.3-32.7c0.9-2.7,2.2-3.3,4.8-3.3c23.6,0.1,47.1,0,70.7,0h21.3c16.6,0,33.2,0.1,49.8,0
		c6.3,0,11.3-4.7,11.9-10.7c0.6-6-3.5-11.7-9.5-12.9c-1.6-0.3-3.2-0.3-4.8-0.3c-46.4,0-92.8,0-139.2,0.1c-2.8,0-4-0.7-5-3.5
		c-6.7-19.7-24.7-32.5-45.1-32.5c-20.4,0-38.4,13-45,32.7c-0.9,2.6-2.1,3.4-4.7,3.3c-15.1-0.1-30.2,0-45.3-0.1
		c-5.2,0-9.2,2.1-11.5,6.8C33.2,87.5,39.1,96.5,48.5,96.5z M143.8,60.6c13.2,0,23.9,10.9,23.9,24.1c-0.1,13.2-11,23.9-24.2,23.8
		c-13.2-0.1-23.8-11.1-23.7-24.3C119.9,71.2,130.7,60.6,143.8,60.6z"/>
	<path class="st0" d="M48.7,204.3c23.4,0.1,46.9,0,70.3,0c23.7,0,47.4,0,71.1,0c2.3,0,3.4,0.5,4.2,2.9c6.7,20,24.7,33,45.1,33
		c20.5,0,38.5-12.9,45.3-32.8c0.8-2.5,1.9-3.2,4.5-3.2c14.8,0.1,29.7,0.1,44.5,0.1c8.2,0,13.7-4.9,13.6-12.1
		c-0.1-7-5.5-11.9-13.5-11.9c-14.7,0-29.4-0.1-44.1,0.1c-3,0-4.2-0.9-5.2-3.7c-6.7-19.5-24.6-32.3-44.9-32.3
		c-20.4,0-38.5,12.9-45.1,32.5c-1,2.8-2.2,3.5-5,3.5c-46.3-0.1-92.5-0.1-138.8-0.1c-1.2,0-2.5-0.1-3.7,0c-4.9,0.5-8.4,3.1-10.2,7.6
		C33.6,196.2,39.5,204.3,48.7,204.3z M239.5,168.4c13.2,0,24,10.8,23.9,24c0,13.2-10.9,23.9-24.1,23.9c-13-0.1-23.7-10.8-23.8-23.9
		C215.6,179.2,226.3,168.4,239.5,168.4z"/>
	<path class="st0" d="M334.3,288.2c-46.9,0-93.8,0-140.7,0c-2.5,0-3.9-0.5-4.8-3.2c-6.7-19.9-24.8-32.8-45.3-32.7
		c-20.3,0.1-38.3,13.1-45,32.8c-0.8,2.4-1.8,3.2-4.4,3.2c-15-0.2-29.9-0.1-44.9-0.1c-7.9,0-13.3,4.9-13.3,12c0,7,5.5,11.9,13.4,11.9
		c15,0,29.9,0,44.9,0c2.3,0,3.4,0.5,4.2,2.9c6.7,20,24.7,33,45.1,33c20.5,0,38.5-12.9,45.3-32.8c0.8-2.5,1.9-3.2,4.4-3.2
		c23.6,0.1,47.1,0.1,70.7,0.1c23.4,0,46.9,0,70.3,0c5.9,0,10.3-2.8,12.1-7.6C349.7,296.3,343.6,288.2,334.3,288.2z M143.6,324.1
		c-13.2-0.1-23.9-11-23.8-24.2c0.1-13,10.8-23.7,23.9-23.7c13.2,0,24,10.8,24,24C167.6,313.4,156.8,324.2,143.6,324.1z"/>
</g>
</svg>
