<?xml version="1.0" encoding="utf-8"?>
<!-- Generator: Adobe Illustrator 26.0.3, SVG Export Plug-In . SVG Version: 6.00 Build 0)  -->
<svg version="1.1" id="Calque_1" xmlns="http://www.w3.org/2000/svg" xmlns:xlink="http://www.w3.org/1999/xlink" x="0px" y="0px"
	 viewBox="0 0 402 394" style="enable-background:new 0 0 402 394;" xml:space="preserve">
<style type="text/css">
	.st0{fill:#FFC552;}
	.st1{fill:#FED5BC;}
	.st2{fill:#A1C877;}
	.st3{fill:#8C9BA7;}
	.st4{fill:#7A8B97;}
	.st5{fill:#F8C5A9;}
	.st6{fill:#EEF3F6;}
	.st7{fill:#64B4F5;}
</style>
<g>
	<path class="st0" d="M159.3,287.3c0-4.2,0-8.5,0-12.7c0.1-8.7-3.5-15.3-11-19.9c-13.9-8.4-25-19.7-33.6-33.5
		C92.2,184.9,96,136,123.9,103.7c19.9-23,45.2-34.8,75.4-35.6c48.4-1.2,91.7,34.6,100.2,82.2c7.3,41.1-9.8,80.8-45,103.2
		c-8.8,5.6-13.1,12.8-12.6,23.2c0.2,3.5,0,7,0,10.5c-1.5,1.3-3.3,1.1-5,1.1c-24.3,0-48.5,0-72.8,0
		C162.5,288.4,160.7,288.5,159.3,287.3z"/>
	<path class="st1" d="M56.2,237.8c8.7-5.9,18.5-5,25.8,2.2c15.2,15,30.5,30,45.7,45.1c7.5,7.4,10.9,16.2,9.5,26.9
		c-1.3,9.7-2.3,19.4-3.8,29.1c-0.6,1.7-2.2,1.8-3.6,2.2c-20.2,5.5-40.5,10.9-60.8,16.3c-1.7,0.5-3.5,1.5-5.3,0.2
		c-0.1-7.1,0.8-14.1-1.5-21.1c-1.9-5.7-5.4-10.4-9.3-14.7c-7.9-8.6-16-17.1-24-25.6c-7-7.4-11-15.7-10.9-26.4
		C18.2,235.6,18,199.3,18,163c0-8.5,6.4-16.1,14.2-17.2c9.6-1.4,18.1,3.9,20.7,12.7c0.5,1.7,0.4,3.5,0.4,5.2c0,23.8,0,47.6,0,71.4
		c0,1.4-0.5,3,0.7,4.3c0.4,1.7-1,2.7-1.8,3.9c-4.2,6.6-4.1,14.7,0.3,21.1c1.2,1.7,2.5,3.4,4,4.9c7.8,7.8,15.7,15.7,23.5,23.5
		c0.9,0.9,1.8,1.7,2.8,2.5c1.7,1.2,3.4,1.8,5,0.1c1.6-1.6,1.1-3.4,0.1-5.2c-0.7-1.2-1.8-2.1-2.7-3.1c-8.5-8.6-17.1-17.1-25.6-25.7
		C53.1,255,51.9,245.8,56.2,237.8z"/>
	<path class="st1" d="M347.3,239.3c1.2-1.3,0.7-2.8,0.7-4.3c0-23.9,0.2-47.9-0.1-71.8c-0.1-8.2,6.9-16.2,14.1-17.4
		c9.7-1.7,18,3.4,20.8,12.4c0.6,2,0.5,3.9,0.5,5.9c0,36.2-0.2,72.3,0.1,108.5c0.1,10-3.7,17.8-10.1,24.8
		c-9.3,10.2-18.8,20.2-28.1,30.5c-4.9,5.4-7.3,12.1-7.6,19.4c-0.2,4.1,0,8.2,0,12.3c-1.5,1.3-3.1,0.4-4.6,0
		c-20.6-5.6-41.2-11.1-61.9-16.6c-1.3-0.3-2.7-0.6-3.3-2.1c-1.2-9.6-2.2-19.2-3.8-28.7c-1.4-8.8,0.9-16.4,6-23.4
		c0.7-1,1.5-2,2.4-2.8c15.8-15.6,31.7-31.3,47.6-46.9c6.6-6.4,16.7-6.9,25-1.4c4.3,8,3.1,17.2-3.4,23.7
		c-8.6,8.7-17.3,17.3-25.9,25.9c-1.2,1.2-2.6,2.4-3.1,4.1c-0.5,1.5-0.4,3,1,4.1c1.4,1.1,2.7,1,4.1,0c1.5-1.1,3-2.3,4.3-3.6
		c7.5-7.5,15-15,22.4-22.5c2.9-2.9,5.4-6.2,6.7-10.2c2-6,0.9-11.5-2.6-16.7C348,241.6,346.9,240.8,347.3,239.3z"/>
	<path class="st2" d="M63.6,359.6c23.3-5.9,46.6-12.1,69.7-18.7c2.6-0.7,5.3-1.3,7.9-2c4.1-1,5.7,0,6.8,4.1
		c1.1,4.2,2.2,8.4,3.3,12.6c1.1,4.1,0.2,5.7-3.9,6.8c-11.3,3.1-22.6,6.1-33.9,9.1c-16.1,4.3-32.2,8.6-48.3,12.9
		c-4.7,1.3-6,0.6-7.3-4c-1.2-4.3-2.3-8.6-3.5-13c-0.9-3.5,0-5.1,3.4-6.2C59.8,360.7,61.7,360.2,63.6,359.6z"/>
	<path class="st2" d="M267.9,340.9c12.8,3.5,25.6,7,38.4,10.5c10.4,2.8,20.9,5.5,31.3,8.2c2,0.6,4.1,1.1,6.1,1.8
		c2.6,0.8,4,2.5,3.3,5.4c-1.3,4.9-2.7,9.8-4,14.7c-0.9,3.2-2.8,4.1-5.9,3.3c-27.7-7.4-55.5-14.8-83.2-22.3c-4.1-1.1-5-2.7-3.9-6.8
		c1.1-4.2,2.2-8.4,3.3-12.6c1.2-4.3,2.7-5.1,7.1-4C262.8,339.7,265.4,340.3,267.9,340.9z"/>
	<path class="st3" d="M159.3,287.3c27.6,0,55.1,0,82.7,0c0.8,4.7,0.7,9.4-0.4,13.9c-1.3,5.7-6.8,9.7-13.2,9.9
		c-1.6,1.3-3.5,1.2-5.3,1.2c-15,0-30,0-45,0c-1.9,0-3.7,0.1-5.3-1.2c-7.4-0.3-12.2-4.5-13.5-11.8
		C158.6,295.4,158.6,291.3,159.3,287.3z"/>
	<path class="st4" d="M172.8,311.1c18.5,0,37.1,0,55.6,0c-0.1,2.7,0,5.5-0.4,8.2c-1.4,9.2-7.8,15.9-17,17.3
		c-6.8,1-13.7,1.1-20.5,0.1c-10.8-1.6-17.5-9.8-17.6-20.8C172.9,314.4,172.9,312.8,172.8,311.1z"/>
	<path class="st5" d="M56.2,237.8c-0.4,3.5-1.8,6.7-1.6,10.4c0.3,4.8,1.9,9,5.3,12.4c8.9,9,18,18,27,27c1.2,1.1,2.4,2.3,2.8,3.9
		c0.5,1.9,0.5,3.8-1.3,5c-1.8,1.2-3.6,1.8-5.4,0c-1.1-1-2.4-1.8-3.4-2.9c-8-7.9-15.9-15.8-23.8-23.8c-9.7-9.7-10.3-20-1.8-30.5
		C54.7,238.8,55.5,238.3,56.2,237.8z"/>
	<path class="st5" d="M347.3,239.3c8.5,10.6,7.9,20.8-1.8,30.5c-7.4,7.4-14.8,14.8-22.2,22.2c-1.5,1.5-3.2,2.8-4.8,4.2
		c-2,1.8-3.8,1.6-5.7,0.2c-2.1-1.5-1.8-3.6-1-5.7c0.5-1.3,1.6-2.2,2.5-3.2c8.6-8.6,17.2-17.3,25.9-25.9c6.5-6.4,7.9-13.8,4.8-22.2
		c-0.2-0.5-0.7-1.1-0.1-1.7C345.8,238.3,346.5,238.8,347.3,239.3z"/>
	<path class="st0" d="M206.6,28.9c0,4.1,0.1,8.2,0,12.3c-0.1,3.7-2.6,6.4-5.9,6.4c-3.3,0-6-2.6-6-6.3c-0.1-8.5-0.1-16.9,0-25.4
		c0-3.8,2.5-6.3,5.9-6.3c3.4,0,5.9,2.4,6,6.2C206.7,20.2,206.6,24.5,206.6,28.9z"/>
	<path class="st0" d="M263.8,64.4c-4.3,0-7.4-4.2-5.3-8c4.3-8.1,9-16,13.7-23.9c1.7-2.8,4.6-3.2,7.6-1.7c2.7,1.4,4,4.8,2.4,7.7
		c-4.3,7.8-8.9,15.5-13.4,23.2C267.7,63.6,265.9,64.4,263.8,64.4z"/>
	<path class="st0" d="M338.5,92.2c0.1,2.1-1.1,3.8-3.1,4.9c-7.4,4.3-14.8,8.6-22.3,12.8c-3.1,1.7-6.6,0.7-8.2-2
		c-1.8-3-1-6.4,2.3-8.3c7.4-4.4,14.8-8.7,22.3-12.8C334,84.4,338.5,87.1,338.5,92.2z"/>
	<path class="st0" d="M118.4,35.5c0.5-2.5,1.7-4.3,4.2-5.2c2.6-0.9,5-0.2,6.3,2c4.8,7.9,9.5,15.8,13.8,23.9c1.4,2.7,0.6,5.7-2.4,7.4
		c-2.7,1.5-6.2,0.8-7.9-2c-4.6-7.6-8.9-15.3-13.3-22.9C118.6,37.8,118.2,36.7,118.4,35.5z"/>
	<path class="st0" d="M90.7,110.7c-1,0.1-2.3-0.6-3.7-1.3c-6.8-3.9-13.6-7.9-20.4-11.8c-3.8-2.2-5-5.6-3.2-8.7
		c1.8-3.2,5.2-3.8,9.1-1.6c7.2,4,14.3,8.1,21.4,12.3c2.6,1.5,3.9,3.9,2.9,7C95.9,109.2,94.1,110.6,90.7,110.7z"/>
	<path class="st3" d="M264,123.6c-0.6,0.7-1.1,1.3-1.7,1.9c-2.2,2.3-5.9,4.4-6.4,7c-0.4,2.5,2.5,5.6,3.8,8.5c2,4.1,3.5,8.3,4.4,12.7
		c0.4,1.9,1.3,2.5,3.1,2.4c2.6-0.1,5.2,0.1,7.9,0c1.9-0.1,2.7,0.5,2.6,2.5c-0.1,6.9-0.1,13.7,0,20.6c0,2-0.8,2.9-2.6,2.5
		c-8-1.7-11.9,1.5-13.2,9.6c-0.6,4.1-3,7.9-5.4,11.4c-1.4,2.1-1,3.3,0.7,4.6c0.1,0.1,0.2,0.2,0.3,0.3c2,2.3,6.1,4.2,5.9,6.7
		c-0.2,2.4-3.8,4.6-6,6.8c-3.2,3.3-6.6,6.5-9.8,9.8c-1.2,1.3-2.1,1.3-3.3,0c-1.8-2-3.9-3.8-5.8-5.9c-1.2-1.4-2.2-1.4-3.8-0.4
		c-5.9,3.6-12.1,6.4-18.9,7.8c-1.8,0.4-2.7,1.1-2.5,3c0,0.2,0,0.5,0,0.7c-0.2,3.1,1.3,7.1-0.6,9c-2,2.1-6.1,0.6-9.3,0.7
		c-4.4,0.1-8.7,0-13.1,0.1c-1.9,0-3-0.6-2.6-2.5c1.7-7.9-1.4-12-9.5-13.2c-4.4-0.7-8.3-3.3-12.1-5.7c-1.5-0.9-2.3-0.8-3.5,0.4
		c-1.9,2.1-4.1,4-6,6.1c-1.1,1.2-1.9,1.1-3,0c-5.1-5.2-10.2-10.3-15.3-15.3c-1.2-1.2-1-1.9,0.1-3c2.5-2.4,6.4-4.8,6.8-7.6
		c0.4-2.8-2.8-6.1-4.3-9.2c-1.8-3.7-3.2-7.6-4-11.6c-0.4-2-1.3-2.8-3.3-2.6c-0.2,0-0.5,0-0.7,0c-3.1-0.3-7,1.4-8.9-0.7
		c-1.8-2.1-0.5-6-0.5-9.1c-0.1-4.2,0.1-8.5-0.1-12.7c-0.1-2.1,0.4-3.2,2.8-3.1c3.2,0.1,7,0.9,9.5-0.5c2.4-1.4,1.9-5.6,3-8.5
		c1.7-4.2,3.4-8.3,5.8-12.1c1-1.6,1.2-2.7-0.3-4.1c-2.5-2.3-6.6-4.9-6.5-7.2c0.1-3.1,4.5-5.2,6.9-7.8c2.9-3.1,6-6,9-9
		c1.1-1.2,1.8-1.1,3,0c2.6,2.5,4.6,6.8,7.9,7c3,0.2,6.1-2.9,9.2-4.5c3.5-1.7,7.1-3.1,10.9-3.8c2.7-0.4,3.2-1.7,3.1-4
		c-0.1-2.4,0.1-4.7-0.1-7.1c-0.1-2,0.7-2.6,2.6-2.5c6.9,0.1,13.7,0.1,20.6,0c1.7,0,2.8,0.6,2.4,2.4c-2.2,8.9,2.5,12.1,10.4,13.7
		c4.1,0.8,7.8,3.2,11.4,5.5c1.3,0.8,2.1,0.8,3.2-0.3c2-2.1,4.1-4,6-6.1c1-1,1.7-1.6,3-0.3c5.1,5.3,10.4,10.4,15.6,15.6
		C263.3,122.7,263.5,123.1,264,123.6z"/>
	<path class="st6" d="M190.9,207.7c-16.1-4.9-26.1-15.3-29.5-31.9c-4.7-22.9,14-45.8,37.4-46.7c20.2-0.8,37.5,13.6,41,32.2
		c3.7,19.4-7.1,38.7-25.8,45.2c-1.2,0.4-2.4,0.8-3.5,1.2c-1.1-1.1-1-2.5-1-3.9c0-7.6-0.1-15.2,0-22.8c0.1-4.1,0.8-4.7,4.8-4.9
		c2-0.1,4.9,0.9,5.8-1.2c1-2.3-1.6-3.9-2.9-5.7c-4.4-5.9-8.9-11.7-13.5-17.5c-2.5-3.1-3.6-3.1-6.1,0c-5.3,6.5-10.2,13.2-15.4,19.8
		c-0.8,1-1.7,2.1-1.1,3.4c0.6,1.3,2.1,1.2,3.3,1.2c8-0.3,7.5,1.2,7.5,7.9c0,6.4,0,12.7,0,19.1C191.9,204.7,192.2,206.4,190.9,207.7z
		"/>
	<path class="st7" d="M190.9,207.7c0-9.3,0-18.7,0.1-28c0-1.9-0.6-2.7-2.6-2.6c-2,0.1-4,0.1-6,0c-3.1-0.2-4.2-2-2.4-4.4
		c6-7.9,12.1-15.8,18.2-23.6c1.5-1.9,3.2-1.9,4.7,0c6.1,7.8,12.2,15.7,18.2,23.6c1.7,2.3,0.7,4-2.1,4.4c-0.2,0-0.5,0-0.7,0
		c-2.6,0.2-5.9-1.1-7.5,0.6c-1.7,1.9-0.5,5.2-0.6,7.9c-0.1,7.3,0,14.7,0.1,22C203.9,209,197.4,209,190.9,207.7z"/>
</g>
</svg>
