<?xml version="1.0" encoding="utf-8"?>
<!-- Generator: Adobe Illustrator 26.0.3, SVG Export Plug-In . SVG Version: 6.00 Build 0)  -->
<svg version="1.1" id="Calque_1" xmlns="http://www.w3.org/2000/svg" xmlns:xlink="http://www.w3.org/1999/xlink" x="0px" y="0px"
	 viewBox="0 0 402 394" style="enable-background:new 0 0 402 394;" xml:space="preserve">
<style type="text/css">
	.st0{fill:#FFFFFF;}
</style>
<g>
	<path class="st0" d="M349.7,123.8c-5.7-0.7-11.3-1.6-17-2.4c-2.5-0.3-4.8-1.1-5.5-3.8c-0.8-2.9,0.6-4.8,2.8-6.4
		c4.6-3.4,9.2-6.8,13.7-10.3c4-3,4.3-5.4,1.3-9.4c-5.5-7.3-10.9-14.6-16.4-21.9c-3-4-5.5-4.3-9.4-1.4c-4.6,3.4-9.2,6.8-13.7,10.3
		c-2,1.5-4.2,2.5-6.7,1.1c-2.4-1.4-2.8-3.7-2.4-6.3c0.8-5.6,1.6-11.1,2.4-16.7c0.8-5.4-0.8-7.5-6.1-8.2c-9-1.2-18.1-2.5-27.1-3.8
		c-4.3-0.6-6.5,0.8-7.2,5.1c-0.9,5.8-1.8,11.7-2.6,17.6c-0.4,2.7-1.3,4.9-4.3,5.5c-2.8,0.6-4.5-1-6-3.1c-3.5-4.7-7-9.3-10.5-14
		c-2.6-3.5-5.2-3.8-8.8-1.2c-2.3,1.6-4.7,3.2-6.7,5.1c-4.9,4.7-10.4,6.8-17.2,5.2c-0.6-0.1-1.2,0-1.8,0
		c-16.9,0.4-32.8,4.5-47.3,13.1c-23.4,13.8-38.7,33.9-45.5,60.3c-1.6,6.1-2.3,12.4-3.5,18.6c-4.4,0.6-5.4,1.4-6.4,6
		c-1.1,4.8-2.1,9.7-3.2,15c-4.8-3.3-9.1-6.3-13.5-9.3c-2.9-2-5-1.9-7.4,0.4c-5,4.9-10,9.9-14.9,14.9c-2.1,2.1-2.3,4.6-0.6,7.1
		c2.5,3.7,5.1,7.4,7.7,11.2c0.5,0.8,1,1.6,1.6,2.6c-5.6,1.2-10.7,2.2-15.8,3.4c-3.5,0.8-4.9,2.5-4.9,6.1c0,5.4,0,10.8,0,16.3
		c0,6.8,0.8,7.7,7.4,9c4.4,0.9,8.7,1.9,13.5,2.9c-3.2,4.6-6.1,8.8-8.9,13c-2.4,3.6-2.2,5.5,0.8,8.5c4.2,4.3,8.5,8.5,12.8,12.8
		c4,4,5.5,4.1,10.1,0.9c3.9-2.7,7.9-5.4,12.2-8.4c1.2,5.7,2.3,10.8,3.4,16c0.8,3.3,2.4,4.8,5.5,4.9c6.6,0.1,13.2,0,19.9,0
		c2.8,0,4.5-1.6,5.2-4.2c0.3-1.1,0.5-2.3,0.8-3.5c0.9-4.3,1.8-8.5,2.8-13.1c4.6,3.2,8.8,6.1,13.1,8.9c3.5,2.4,5.4,2.2,8.5-0.8
		c2.2-2.1,4.3-4.3,7-6.9c0,5.2,0,9.6,0,14c0.1,6.9,2.9,12.6,8.3,16.9c1,0.8,1.8,2.4,1.8,3.6c0.2,8.1-0.2,16.3,0.2,24.4
		c0.2,3.6,0.9,7.4,2.3,10.7c2.9,6.7,8.8,9.8,15.6,11.4h25.3c14.2-3.1,18.8-13.4,18.2-24.8c-0.4-7.2-0.2-14.5,0-21.7
		c0-1.2,0.8-2.9,1.8-3.6c5.5-4.4,8.3-9.9,8.4-16.9c0-4.9,0.3-9.9-0.1-14.8c-0.8-12.3,3.9-21.6,14.6-28c3.3-2,6.2-4.7,9.5-7.2
		c-2.5-2.8-4.6-5.2-6.7-7.5c-4.3,3.1-8.2,6.1-12.2,8.9c-10.1,7.3-15.1,17.2-15.3,29.5c-0.1,6.1,0,12.2,0,18.4c0,7-4,11.1-11,11.2
		c-13.2,0.1-26.3,0.1-39.5,0c-7-0.1-10.9-4.2-11-11.2c-0.1-6.9,0.1-13.9-0.1-20.8c-0.2-7.8-2.8-14.9-8.1-20.6
		c-3.4-3.6-7.5-6.6-11.5-9.6c-28.2-20.9-40.5-49-36.1-83.7c4.4-34.9,31.3-63.8,65.6-71.7c6.4-1.5,13-2,19.4-2.9
		c-0.1,0.4-0.2,0.7-0.3,1.1c0.9,1.7,1.6,3.6,2.7,5.2c3.3,4.7,6.8,9.2,10.3,13.8c1.6,2.1,2.3,4.3,0.8,6.7c-1.4,2.2-3.5,2.6-6.1,2.2
		c-5.8-0.9-11.7-1.7-17.6-2.6c-4.3-0.6-6.5,0.9-7.1,5.3c-1.4,9.2-2.8,18.5-4,27.7c-0.7,5.1,0.9,7,6,7.7c5.7,0.8,11.3,1.7,17,2.4
		c2.5,0.3,4.5,1.3,5.2,3.8c0.7,2.7-0.6,4.6-2.7,6.2c-4.6,3.4-9.2,6.8-13.7,10.3c-4.1,3.1-4.4,5.5-1.4,9.6
		c5.3,7.1,10.6,14.1,15.9,21.2c3.7,4.9,5.8,5.2,10.7,1.5c4.6-3.4,9.1-6.9,13.8-10.3c1.8-1.4,4.1-2,5.8-0.4c1.3,1.2,1.8,3.3,2.4,5.1
		c0.3,0.8-0.1,1.8-0.2,2.7c-0.8,5.4-1.6,10.7-2.2,16.1c-0.5,4.3,0.8,6.3,5.1,6.9c9.5,1.5,19.1,2.8,28.6,4.1c4.1,0.5,6.2-1.2,6.8-5.3
		c0.8-5.8,1.7-11.5,2.4-17.3c0.4-2.7,1.3-5,4.2-5.6c2.7-0.7,4.5,0.8,6.1,2.9c3.4,4.6,6.8,9.2,10.3,13.7c3,3.9,5.4,4.3,9.4,1.3
		c7.3-5.5,14.6-10.9,21.9-16.4c4-3,4.3-5.5,1.4-9.4c-3.5-4.7-7-9.3-10.5-14c-1.6-2.1-2.3-4.2-0.8-6.7c1.4-2.3,3.6-2.6,6.1-2.2
		c6,0.9,11.9,1.7,17.9,2.6c3.9,0.5,6.2-1.1,6.8-5c0.5-3,0.8-6,1.3-8.9c1-6.3,2-12.6,3-19v-4.2C354.1,125.4,352.3,124.1,349.7,123.8z
		 M181.6,305.6h40.7v9.8h-40.7V305.6z M181.5,326.2h40.9c0,2,0.1,3.8,0,5.6c-0.3,5.2-4.4,9.4-9.8,9.5c-7,0.2-14,0.2-21.1,0
		c-5.5-0.1-9.5-4.2-10-9.7C181.4,329.8,181.5,328.1,181.5,326.2z M141.3,237.3c5.3,4.9,10.6,9.7,15.8,14.6c0.3,0.3,0.5,0.9,0.8,1.3
		c1.7,2.5,1.8,4.6-0.9,6.9c-2.9,2.4-5.3,5.5-7.9,8.3c-3.7-2.5-6.9-4.8-10.1-6.9c-7.3-4.9-14.8-1.9-16.8,6.6
		c-0.9,3.8-1.7,7.6-2.5,11.7h-12.2c-0.8-3.8-1.6-7.6-2.5-11.5c-2-8.7-9.5-11.7-17-6.7c-3.2,2.1-6.3,4.3-9.3,6.4
		c-3.1-3.2-6.1-6.3-9.3-9.6c1.8-2.6,3.9-5.6,5.9-8.7c5.4-7.9,2.5-15.4-6.8-17.5c-3.7-0.8-7.4-1.6-11.2-2.4v-12.2
		c4.1-0.9,8.2-1.7,12.1-2.6c7.8-1.8,10.9-9.3,6.6-16.1c-2.2-3.5-4.6-6.8-7-10.2c3.2-3.2,6.2-6.2,9.3-9.4c3,2,6,4.1,9.1,6.2
		c8,5.5,15.1,2.8,17.5-6.7c0.1-0.6,0.4-1.1,0.6-1.8c1.3,5.5,2.5,10.7,3.9,16.2c-8.7,1.4-15.8,5.5-21,12.7c-4,5.5-6.1,11.8-5.9,18.6
		c0.3,13.3,9.1,24.6,22.2,28.8C117.9,257.2,129.9,252.2,141.3,237.3z M115.6,206.4c3.8,8.2,9.2,15.5,15.5,22
		c1.4,1.5,1.5,2.7,0.5,4.4c-4,7.2-10.2,10.8-16.6,11c-12.5-0.3-20.8-8-21.8-18.7c-0.9-10.1,5.9-19.3,16-21.7
		C112.2,202.9,114.2,203.2,115.6,206.4z M341.7,153.7c-4.8-0.7-9.2-1.3-13.5-1.9c-6.9-1.1-13,1.5-16.5,6.9c-3.4,5.4-3,12.1,1.1,17.8
		c1.4,2,2.9,3.9,4.3,5.8c1.4,1.9,2.8,3.7,4.3,5.8c-5.5,4.1-10.8,8.1-16.3,12.2c-3.4-4.4-6.5-8.8-10-12.9c-4-4.6-9.3-6.2-15.3-4.6
		c-5.9,1.6-9.7,5.6-11,11.6c-0.9,4-1.2,8.1-1.9,12.2c-0.2,1.1-0.4,2.1-0.6,3.6c-6.7-0.9-13.2-1.9-20.1-2.8c0.6-4.5,1.2-8.9,1.9-13.2
		c1.4-9.5-3.3-17-12.1-18.9c-4.7-1-8.9,0.4-12.7,3.2c-3.7,2.8-7.4,5.5-11.4,8.5c-4.1-5.4-8.1-10.8-12.2-16.3
		c4.4-3.4,8.7-6.4,12.7-9.8c6.9-5.9,7.3-16.4,0.6-22.3c-2.5-2.2-6-3.5-9.3-4.4c-4.4-1.2-9.1-1.5-13.9-2.2c1-6.8,1.9-13.4,2.9-20.2
		c4.9,0.7,9.6,1.3,14.2,2c6.7,0.9,12.2-1.3,15.8-7c3.6-5.9,3.1-11.9-0.9-17.5c-2.8-3.9-5.7-7.7-8.8-11.8c5.5-4.1,10.9-8.1,16.3-12.2
		c2.8,3.7,5.5,7.2,8.1,10.8c4.3,5.8,9.8,8.6,17,6.8c7-1.8,10.7-6.7,11.6-13.8c0.6-4.5,1.3-8.9,2-13.6c6.8,1,13.3,1.9,20.2,2.8
		c-0.6,4-1.1,7.8-1.7,11.7c-0.7,4.7-0.9,9.4,1.9,13.7c4.5,6.9,13.6,9.2,20.6,4.8c4.6-2.9,8.8-6.3,13.5-9.7c4,5.3,8,10.7,12.2,16.3
		c-3.9,3-7.8,5.8-11.6,8.7c-7.9,6.2-8.7,16.6-2,23.4c2.8,2.8,6.4,4,10.2,4.6c4.3,0.6,8.7,1.2,13.2,1.9
		C343.7,140.3,342.7,146.8,341.7,153.7z"/>
	<path class="st0" d="M206.9,259.2H197c-0.2-2-0.4-4-0.8-5.9c-2.4-11.4-9-19.6-19.7-24.1c-10.4-4.4-19.6-10.4-27.4-18.7
		c-26.9-28.6-24.5-76.4,5.3-102c2.9-2.5,6-4.7,9.2-7.3c1.9,3,3.7,5.8,5.4,8.5c-3.5,2.9-6.9,5.5-10,8.4
		c-30.8,29.5-21.7,82.1,17.2,99.5c8.7,3.9,16.9,8.4,22.6,16.4C204.1,241.6,207,249.9,206.9,259.2z"/>
	<path class="st0" d="M328.1,286.1c-2.2,2.7-4.3,5.2-6.5,7.9c-10.2-8.5-20.3-16.9-30.7-25.6c2.2-2.7,4.3-5.1,6.5-7.9
		C307.6,269.1,317.7,277.5,328.1,286.1z"/>
	<rect x="268.7" y="275" class="st0" width="9.8" height="35.5"/>
	<rect x="299.5" y="234" class="st0" width="35.5" height="9.8"/>
	<rect x="197.2" y="269.7" class="st0" width="9.7" height="15"/>
	<path class="st0" d="M102.5,96.5c-2.1,2.9-3.9,5.5-6,8.3c-11.9-8.5-23.7-17-35.8-25.6c2-2.8,3.9-5.4,5.9-8.3
		C78.7,79.4,90.5,87.9,102.5,96.5z"/>
	<path class="st0" d="M125,84c-3.4,0.9-6.5,1.7-9.9,2.6c-3.5-13.6-6.9-27-10.5-40.9c3.3-0.9,6.4-1.7,9.9-2.6
		C118,56.6,121.4,70.1,125,84z"/>
	<path class="st0" d="M95.7,131.2c-13.7,3.4-27.2,6.8-40.9,10.2c-0.8-3.4-1.6-6.5-2.5-9.9c13.7-3.4,27.1-6.8,40.9-10.2
		C94,124.6,94.8,127.8,95.7,131.2z"/>
	<path class="st0" d="M267.2,91.8c-22.6,0-41,18.4-41,41c0,22.5,18.6,41,41.1,41c22.5-0.1,40.7-18.4,40.8-40.9
		C308.1,110.2,289.8,91.8,267.2,91.8z M267.2,163.5c-16.7,0-31-14.2-30.8-30.9c0.2-16.8,14-30.6,30.8-30.5
		c16.8,0,30.6,13.8,30.6,30.7C297.8,149.5,284,163.4,267.2,163.5z"/>
</g>
</svg>
