<?xml version="1.0" encoding="utf-8"?>
<!-- Generator: Adobe Illustrator 26.0.3, SVG Export Plug-In . SVG Version: 6.00 Build 0)  -->
<svg version="1.1" id="Layer_1" xmlns="http://www.w3.org/2000/svg" xmlns:xlink="http://www.w3.org/1999/xlink" x="0px" y="0px"
	 viewBox="0 0 158.7 63" style="enable-background:new 0 0 158.7 63;" xml:space="preserve">
<style type="text/css">
	.st0{fill:#1F73B7;}
	.st1{fill:#FEE807;}
	.st2{fill:#0D9748;}
</style>
<g>
	<g>
		<path class="st0" d="M41.7,29.1L41.7,29.1v0.8l0,0v0.2h4l-0.1,0.2c-0.3,0.6-0.7,1-1.2,1.4c-0.5,0.4-1,0.7-1.6,1
			c-0.6,0.2-1.2,0.4-1.8,0.4c-1,0-2-0.2-2.9-0.8c-0.9-0.5-1.6-1.2-2.1-2.1s-0.8-1.8-0.8-2.9c0-1.1,0.2-2,0.8-2.9
			c0.5-0.9,1.2-1.6,2.1-2.1c0.9-0.5,1.8-0.8,2.9-0.8c0.8,0,1.6,0.2,2.4,0.5c0.7,0.3,1.3,0.8,1.9,1.3l0.2-0.2l0,0l0.2-0.2l0,0
			l0.7-0.7c-1.5-1.6-3.3-2.4-5.5-2.4c-1.3,0-2.6,0.4-3.8,1c-1.2,0.6-2.1,1.6-2.7,2.7c-0.7,1.2-1,2.4-1,3.7c0,1,0.2,1.9,0.6,2.9
			c0.4,0.9,1,1.7,1.6,2.4c0.7,0.7,1.5,1.2,2.4,1.6c0.9,0.4,1.8,0.6,2.9,0.6c0.9,0,1.7-0.2,2.5-0.5c0.8-0.3,1.5-0.8,2.1-1.3
			c0.6-0.6,1.2-1.2,1.5-2c0.4-0.8,0.6-1.6,0.7-2.5h-6.2v0.8C41.5,29.1,41.7,29.1,41.7,29.1z"/>
		<path class="st0" d="M57.4,22.1c-0.4-0.6-1-1.2-1.6-1.5c-0.2-0.1-0.5-0.2-0.8-0.2c-0.2-0.1-0.5-0.1-0.8-0.1c-0.3,0-0.6,0-1,0h-3.4
			v14.3h1.7v-6.3h1.9c1.3,0,2.4-0.4,3.3-1.1s1.2-1.7,1.2-2.9C58,23.4,57.8,22.8,57.4,22.1z M56,25.3c-0.2,0.4-0.4,0.6-0.7,0.8
			c-0.5,0.3-1.2,0.5-2.1,0.5h-1.7v-4.7h1.5c0.6,0,1,0,1.2,0c0.2,0,0.5,0.1,0.8,0.2c0.2,0.1,0.5,0.2,0.7,0.5c0.2,0.2,0.4,0.4,0.4,0.7
			c0.1,0.3,0.2,0.6,0.2,0.9C56.3,24.6,56.2,24.9,56,25.3z"/>
		<path class="st0" d="M71.7,32.5L71.7,32.5L71,31.7l0,0l-0.2-0.2c-0.6,0.5-1.2,0.9-1.8,1.2c-0.7,0.2-1.3,0.4-2.1,0.4
			c-1,0-2-0.2-2.9-0.8c-0.9-0.5-1.6-1.2-2.1-2.1c-0.5-0.9-0.8-1.8-0.8-2.9c0-1,0.2-2,0.8-2.9c0.5-0.9,1.2-1.6,2.1-2.1
			c0.9-0.5,1.8-0.8,2.9-0.8c0.7,0,1.3,0.1,2,0.4c0.7,0.2,1.2,0.6,1.7,1l0.2-0.2l0,0l0.2-0.2l0,0l0.7-0.8c-0.4-0.4-0.9-0.7-1.5-1
			c-0.5-0.2-1.1-0.5-1.7-0.6S67.4,20,66.8,20c-1.3,0-2.6,0.4-3.7,1c-1.1,0.6-2.1,1.6-2.7,2.7c-0.7,1.2-1,2.4-1,3.7
			c0,1.3,0.4,2.6,1,3.8c0.6,1.2,1.6,2.1,2.7,2.7c1.2,0.7,2.4,1,3.8,1c1.9,0,3.6-0.7,5.1-2L71.7,32.5z"/>
	</g>
	<g>
		<g>
			<g>
				<g>
					<path class="st1" d="M22.1,23v0.4c0,0,0,0,0,0v0c0,0,0,0-0.1,0c-0.5,0-0.8,0.4-1,0.7c-0.6,0.6-0.9,1.4-1.3,2.1
						c0,0,0,0.1-0.1,0.1c-0.2,0.3-0.4,0.6-0.7,0.9c0,0,0,0,0,0c-0.6,0.7-1.1,1.6-1.6,2.4c0,0.1-0.1,0.1-0.1,0.2
						c-0.2,0.4-0.4,0.6-0.7,1c-0.2,0.2-0.3,0.3-0.4,0.3l0,0l0,0c0,0-0.1,0-0.2,0C14.3,31,13,30.4,12,29.3c-1.3-1.3-1.9-3-1.6-5
						c0.2-1.8,1.2-3.2,2.5-4.2c0.7-0.5,1.5-0.7,2.3-1h2.3c0.4,0.2,0.8,0.3,1.3,0.5C20.4,20.2,21.4,21.4,22.1,23z"/>
				</g>
			</g>
		</g>
		<path class="st2" d="M17.9,24.1c-1.5,2.1-1.2,3.5-1.2,3.5s1.3-0.2,2.5-1.9c1-1.4,1.3-3.2,1.3-3.2S19.1,22.5,17.9,24.1z"/>
		<path class="st2" d="M12.9,26.4c1.6,2.7,3.4,3.1,3.4,3.1s0.4-1.6-1-3.8c-1.1-1.8-3-3.1-3-3.1S11.6,24.2,12.9,26.4z"/>
		<path class="st2" d="M15.5,22.8c0,1.9,0.8,2.5,0.8,2.5s0.7-0.7,0.6-2.3c0-1.3-0.7-2.5-0.7-2.5S15.5,21.3,15.5,22.8z"/>
	</g>
	<g>
		<path class="st0" d="M32.3,19.7L32,19.8l0,0c-0.1,0-0.2,0.1-0.2,0.1l-0.2,0.1c0,0-0.1,0-0.1,0c-0.2,0-0.2,0.1-0.4,0.3
			c-0.5,1.1-1,2.3-1.5,3.4c0,0,0,0.1,0,0.2c0.4-0.1,0.8-0.2,1.1-0.3c0.5-0.2,0.8-0.6,1-1.1c0-0.4,0.2-0.6,0.4-1
			c0.1-0.4,0.2-0.6,0.4-1l0,0l0.2-0.6C32.7,19.7,32.5,19.6,32.3,19.7z"/>
		<g>
			<path class="st0" d="M23.7,23.2c0,0,0.1-0.1,0.1-0.2L23.7,23.2z"/>
			<path class="st0" d="M22.7,24.8C22.7,24.8,22.7,24.9,22.7,24.8l0.1-0.1C22.8,24.7,22.8,24.7,22.7,24.8z"/>
			<path class="st0" d="M23.5,23.6L23.5,23.6l0.2-0.4C23.6,23.4,23.5,23.5,23.5,23.6z"/>
			<path class="st0" d="M28.1,28.7c-0.2,0-0.5,0-0.7,0.1c-0.1,0-0.2,0-0.2,0.2c-0.8,1.9-1.7,4-2.7,5.9c0,0,0,0,0,0.1
				c0.1,0,0.1,0,0.2,0c0.2,0,0.5,0.1,0.8,0.1c0,0,0.1,0,0.1,0c0.1,0,0.2,0,0.3-0.1c0.6-0.2,1-0.6,1.2-1.2c0.4-1,0.8-1.9,1.2-2.9
				c0.2-0.5,0.4-1,0.6-1.4C29,29,28.7,28.6,28.1,28.7z"/>
			<path class="st0" d="M27,28.8c-0.5,0-1,0.1-1.5,0.2c0,0-0.1,0.1-0.1,0.1c-0.8,1.6-1.6,3.3-2.4,4.9c-0.1,0.2-0.2,0.5-0.4,0.8
				c0.1,0,0.2,0,0.3,0c0.4,0,0.8,0.1,1.2,0.1c0.1,0,0.2,0,0.2-0.1c0.8-1.9,1.7-3.8,2.5-5.6C26.9,29.1,27,28.9,27,28.8z"/>
			<path class="st0" d="M25.3,29c-0.2,0-0.4,0-0.5,0c-0.6,0-1.1,0.4-1.4,1c-0.6,1.2-1.3,2.4-1.9,3.6c-0.1,0.2-0.1,0.4-0.2,0.5
				c0,0.3,0.1,0.5,0.5,0.6c0.2,0,0.3,0,0.5,0c0.1,0,0.2,0,0.2-0.1c0.7-1.5,1.4-2.9,2.1-4.4C24.8,29.8,25.1,29.4,25.3,29z"/>
			<path class="st0" d="M30.6,23.7c-0.1,0-0.2,0-0.4,0c-0.2,0-0.5,0.1-0.7,0.2c-0.1,0-0.2,0.1-0.2,0.2c-0.5,1.2-1,2.3-1.5,3.4
				c-0.2,0.4-0.4,0.8-0.5,1.2c0.3,0,0.6,0,0.9-0.1c0.7-0.1,1.2-0.5,1.4-1.1c0.2-0.7,0.6-1.3,0.8-2c0.2-0.4,0.4-0.8,0.5-1.2
				C31,24,30.9,23.7,30.6,23.7z"/>
			<path class="st0" d="M23.3,29.9c0-0.1,0.1-0.2,0.1-0.4c0-0.2-0.1-0.4-0.4-0.4c-0.2,0-0.4,0-0.6,0c-0.1,0-0.2,0.1-0.2,0.2
				c-0.7,1.3-1.4,2.5-2.1,3.8c-0.2,0.4-0.5,0.8-0.7,1.2c0.2,0,0.3,0,0.4,0c0.4,0.1,0.6,0,0.9-0.2c0.2-0.2,0.5-0.4,0.6-0.7
				C22.1,32.4,22.7,31.2,23.3,29.9z"/>
			<path class="st0" d="M27.1,28.5c0.4-1,0.8-1.9,1.3-2.9c0.2-0.6,0.5-1.1,0.8-1.7c-0.5,0.1-0.9,0.2-1.3,0.3c-0.1,0-0.2,0.1-0.2,0.2
				c-0.6,1.3-1.2,2.6-1.9,3.9c-0.1,0.2-0.1,0.3-0.2,0.5c0.5,0,1-0.1,1.4-0.1C27.1,28.7,27.1,28.6,27.1,28.5z"/>
			<path class="st0" d="M22.3,29.3c-0.4,0-0.7,0.1-1,0.1c-0.1,0-0.2,0-0.2,0.1c-0.8,1.3-1.6,2.7-2.3,4c-0.2,0.2-0.3,0.5-0.5,0.8
				c0.4,0,0.7,0,1,0.1c0.1,0,0.2,0,0.2-0.1c0.8-1.5,1.6-2.9,2.5-4.4C22,29.7,22.1,29.5,22.3,29.3z"/>
			<path class="st0" d="M24.6,28.9c0.2,0,0.4,0,0.6-0.1c0,0,0.1-0.1,0.2-0.1c0.6-1.2,1.2-2.4,1.8-3.7c0.1-0.2,0.2-0.5,0.4-0.7
				c-0.2,0-0.5,0.1-0.7,0.2c-0.4,0.1-0.8,0.4-1,0.8c-0.5,1-1,1.9-1.5,2.9c0,0.1-0.1,0.1-0.1,0.2C24.2,28.8,24.3,28.9,24.6,28.9z"/>
			<path class="st0" d="M24.3,28c0.2-0.5,0.5-1,0.8-1.5c0.2-0.4,0.4-0.8,0.6-1.2c0.1-0.1,0.2-0.3,0-0.4s-0.2-0.1-0.4-0.1
				c-0.1,0-0.3,0.1-0.4,0.1c-0.1,0-0.2,0.1-0.2,0.2c-0.6,1.2-1.3,2.4-1.9,3.6c-0.1,0.1-0.1,0.2-0.2,0.4c0.1,0,0.2,0,0.2,0
				C23.5,29.1,24,28.7,24.3,28z"/>
			<path class="st0" d="M21,29.4c-0.4,0-0.8,0.1-1.1,0.4c-0.1,0.1-0.2,0.3-0.4,0.5c-0.2,0.4-0.5,0.8-0.8,1.2
				c-0.4,0.6-0.8,1.2-1.1,1.8c-0.1,0.2-0.2,0.4-0.2,0.6c0,0.2,0.1,0.3,0.2,0.4c0.1,0,0.2,0,0.3,0c0.1,0,0.2,0,0.2-0.1
				c0.7-1.2,1.5-2.4,2.1-3.6C20.5,30.2,20.7,29.8,21,29.4z"/>
			<path class="st0" d="M27.8,24.2C27.8,24.2,27.8,24.2,27.8,24.2c0.5-0.1,0.9-0.2,1.3-0.3c0.1,0,0.1-0.1,0.2-0.2
				c0.4-0.8,0.8-1.7,1.2-2.5c0.2-0.4,0.3-0.7,0.5-1c-0.5,0.2-0.8,0.2-1.3,0.4c-0.1,0-0.1,0.1-0.2,0.2c-0.4,0.8-0.8,1.7-1.2,2.5
				C28.1,23.6,27.9,23.9,27.8,24.2z"/>
			<path class="st0" d="M19.4,30.2c0.1-0.1,0.1-0.2,0.1-0.4c0-0.2-0.1-0.3-0.2-0.3c-0.1,0-0.2,0-0.3,0s-0.2,0-0.2,0.2
				c-0.3,0.5-0.6,1-1,1.5c-0.6,1-1.2,1.9-1.8,2.8c0.4,0.1,0.8,0.1,1.1-0.2c0.1-0.1,0.2-0.2,0.4-0.4C18.1,32.4,18.8,31.3,19.4,30.2z"
				/>
			<path class="st0" d="M22.4,29c0.6-1,1.1-2,1.7-3c0.2-0.3,0.4-0.6,0.6-1c-0.4,0.1-0.6,0.1-1,0.2c-0.1,0-0.2,0.1-0.2,0.2
				c-0.6,1-1.2,1.9-1.7,2.9c-0.2,0.3-0.4,0.6-0.5,0.9c0.4,0,0.6-0.1,1-0.1C22.3,29.2,22.3,29.1,22.4,29z"/>
			<path class="st0" d="M27.4,22.3c-0.3,0.6-0.6,1.2-0.9,1.7c-0.2,0.3,0,0.5,0.3,0.5c0.2,0,0.4-0.1,0.6-0.1c0.1,0,0.2-0.1,0.2-0.1
				c0.4-0.8,0.8-1.5,1.2-2.3c0.2-0.4,0.4-0.7,0.6-1.1c-0.2,0.1-0.4,0.1-0.6,0.2c-0.5,0.2-0.8,0.5-1.1,0.9
				C27.6,22,27.5,22.1,27.4,22.3z"/>
			<path class="st0" d="M18.6,29.7c-0.2,0-0.5,0-0.7,0.1c-0.1,0-0.2,0-0.2,0.2c-0.7,1.1-1.5,2.2-2.2,3.3c-0.2,0.2-0.4,0.6-0.6,0.8
				c0.2,0,0.5,0,0.7,0.1c0.1,0,0.2,0,0.2-0.1c0.9-1.4,1.8-2.8,2.7-4.2C18.6,29.7,18.6,29.7,18.6,29.7z"/>
			<path class="st0" d="M24.8,24.9L24.8,24.9c0.2,0,0.6-0.1,0.8-0.2c0.4-0.1,0.6-0.4,0.8-0.7c0.4-0.8,0.8-1.5,1.2-2.3
				c0-0.1,0-0.2,0-0.2c0,0-0.2-0.1-0.2-0.1c-0.2,0-0.4,0.1-0.6,0.2c-0.1,0-0.2,0-0.2,0.2c-0.3,0.6-0.6,1.2-1,1.7
				C25.4,23.9,25.1,24.4,24.8,24.9z"/>
			<path class="st0" d="M20.6,29.3c0.1,0,0.2,0,0.3,0s0.2,0,0.3-0.2c0.4-0.8,0.9-1.5,1.3-2.3c0.3-0.5,0.6-1,0.8-1.5
				c-0.6,0.1-1.1,0.3-1.4,0.8c-0.5,0.8-1,1.7-1.5,2.5c0,0.1-0.1,0.2-0.1,0.3C20.2,29.2,20.3,29.3,20.6,29.3z"/>
			<path class="st0" d="M20.3,28.8c0.5-0.8,1-1.7,1.6-2.5c0-0.1,0.1-0.2,0.1-0.2c0-0.2,0-0.2-0.2-0.2c-0.1,0-0.2,0-0.4,0.1
				c-0.1,0-0.2,0.1-0.3,0.2c-0.6,0.8-1.1,1.7-1.7,2.6c-0.2,0.3-0.4,0.6-0.6,0.9c0.3,0,0.6,0,0.8-0.2C20,29.2,20.2,29,20.3,28.8z"/>
			<path class="st0" d="M17.7,29.7c-0.2,0.4-0.5,0.7-0.7,1.1c-0.1,0.1-0.1,0.2-0.2,0.4C16.2,32.1,15.6,33,15,34
				c-0.1,0.1-0.1,0.1-0.2,0.1c-0.4,0-0.5-0.1-0.3-0.5c0.2-0.4,0.5-0.8,0.7-1.2s0.5-0.8,0.8-1.2c0,0,0,0,0-0.1l0,0l0,0
				c0.1-0.2,0.2-0.4,0.4-0.6c0.2-0.2,0.4-0.4,0.6-0.6l0,0c0.1,0,0.2-0.1,0.4-0.1C17.5,29.7,17.6,29.7,17.7,29.7z"/>
			<path class="st0" d="M23.6,25.2c0.4-0.1,0.7-0.2,1-0.2c0,0,0.1-0.1,0.1-0.1c0.2-0.4,0.4-0.8,0.6-1.2c0.4-0.7,0.8-1.3,1.2-2.1
				c0,0,0,0,0,0c-0.2,0.1-0.6,0.2-0.8,0.2c-0.2,0-0.2,0.1-0.4,0.2c-0.6,1-1.2,1.9-1.7,2.9C23.6,25.1,23.6,25.2,23.6,25.2z"/>
			<path class="st0" d="M21.1,25.9c-0.2,0.1-0.5,0.1-0.7,0.2c-0.1,0-0.2,0.1-0.2,0.2c-0.7,1.1-1.5,2.2-2.2,3.3c0,0,0,0.1-0.1,0.1
				c0.2,0,0.5,0,0.7-0.1c0.1,0,0.2,0,0.2-0.1c0.6-0.9,1.2-1.8,1.7-2.7C20.7,26.5,20.9,26.2,21.1,25.9z"/>
			<path class="st0" d="M23.8,23.1c0,0,0,0.1-0.1,0.2l-0.8,1.4c-0.1,0.1-0.2,0.2-0.2,0.4c0,0.1,0,0.2,0,0.2c0,0,0.2,0.1,0.2,0
				c0.1,0,0.2,0,0.4-0.1c0.1,0,0.2-0.1,0.2-0.2c0.6-1,1.2-2,1.7-3c0,0,0-0.1,0-0.1c-0.6,0.2-1.2,0.4-1.4,1
				C23.9,23,23.8,23,23.8,23.1L23.8,23.1C23.8,23.1,23.8,23.1,23.8,23.1z"/>
			<path class="st0" d="M21.3,25.7c0.6-0.1,1.1-0.4,1.3-0.8l0,0c0,0,0-0.1,0-0.1c0,0,0-0.1,0.1-0.1l0.6-1.1l0,0
				c0.1-0.1,0.2-0.2,0.2-0.4v0c0.1-0.1,0.2-0.2,0.2-0.4c0-0.1,0-0.2,0-0.2c0,0-0.2,0-0.2,0c-0.1,0-0.2,0-0.4,0.2
				c0,0-0.1,0.1-0.1,0.1C22.5,23.8,21.8,24.7,21.3,25.7C21.3,25.7,21.3,25.7,21.3,25.7z"/>
			<path class="st0" d="M17.6,29.7c0,0,0.1,0,0.1,0c0,0,0.1,0,0.2-0.1c0.7-1,1.3-2.1,2.1-3.1c0-0.1,0.1-0.2,0.2-0.3
				c-0.6,0-1,0.3-1.2,0.7c-0.3,0.4-0.6,0.8-0.8,1.2c-0.2,0.4-0.5,0.8-0.8,1.2c-0.1,0.1-0.1,0.2,0,0.4C17.3,29.7,17.5,29.7,17.6,29.7
				z"/>
			<path class="st0" d="M20.3,26c0.2-0.1,0.5-0.1,0.8-0.2c0.1,0,0.2-0.1,0.2-0.2c0.4-0.7,0.9-1.3,1.3-2.1c0.2-0.3,0.4-0.6,0.6-0.8
				c0,0,0,0,0,0c-0.2,0.1-0.5,0.2-0.8,0.2c0,0-0.1,0.1-0.1,0.1c-0.5,0.7-1,1.4-1.3,2.1C20.6,25.5,20.5,25.7,20.3,26z"/>
			<path class="st0" d="M19.6,26.1c0.1,0,0.5-0.1,0.6-0.2c0.5-0.8,1-1.5,1.5-2.3c0.1-0.2,0.2-0.4,0.4-0.5c-0.5,0.1-0.8,0.4-1.2,0.7
				c-0.4,0.6-0.8,1.2-1.3,1.9c0,0.1-0.1,0.2-0.1,0.3C19.6,26,19.6,26.1,19.6,26.1z"/>
			<path class="st0" d="M23.9,23L23.9,23C23.9,23.1,23.8,23.1,23.9,23L23.9,23z"/>
			<path class="st0" d="M23.7,23.2L23.7,23.2C23.7,23.2,23.7,23.2,23.7,23.2z"/>
			<path class="st0" d="M22.7,24.9L22.7,24.9L22.7,24.9z"/>
		</g>
	</g>
	<g>
		<path class="st0" d="M13.1,40.7v0.1v0.1h1.3l0,0.1c-0.1,0.2-0.2,0.4-0.4,0.5c-0.2,0.1-0.4,0.2-0.5,0.3c-0.2,0.1-0.4,0.1-0.6,0.1
			c-0.4,0-0.6-0.1-1-0.2c-0.3-0.2-0.5-0.4-0.7-0.7C11,40.7,11,40.4,11,40s0.1-0.6,0.2-1s0.4-0.5,0.7-0.7c0.3-0.2,0.6-0.2,1-0.2
			c0.2,0,0.5,0,0.8,0.2c0.2,0.1,0.4,0.2,0.6,0.4l0.1-0.1l0.1-0.1l0.2-0.2c-0.5-0.5-1.1-0.8-1.7-0.8c-0.4,0-0.8,0.1-1.2,0.3
			c-0.4,0.2-0.6,0.5-0.9,0.9c-0.2,0.4-0.3,0.8-0.3,1.2c0,0.4,0.1,0.6,0.2,1c0.1,0.3,0.3,0.6,0.5,0.8c0.2,0.2,0.5,0.4,0.8,0.5
			c0.3,0.1,0.6,0.2,1,0.2c0.3,0,0.6,0,0.8-0.2c0.2-0.1,0.5-0.2,0.7-0.4c0.2-0.2,0.4-0.4,0.5-0.6s0.2-0.5,0.2-0.8h-2L13.1,40.7
			L13.1,40.7z"/>
		<path class="st0" d="M16.7,39.3c-0.4,0-0.6,0.2-0.8,0.4v-0.4h-0.3v3H16h0.1h0h0v-1.8c0-0.2,0-0.4,0.1-0.5c0.1-0.1,0.2-0.2,0.4-0.2
			v-0.1v-0.1L16.7,39.3L16.7,39.3z"/>
		<path class="st0" d="M20.2,40.9L20.2,40.9c0-0.2,0-0.4,0-0.5c0-0.1-0.1-0.3-0.2-0.4c-0.1-0.2-0.4-0.4-0.6-0.6
			c-0.2-0.1-0.5-0.2-0.8-0.2c-0.3,0-0.6,0.1-0.8,0.2c-0.2,0.1-0.4,0.4-0.6,0.6c-0.1,0.2-0.2,0.5-0.2,0.8c0,0.3,0.1,0.6,0.2,0.8
			s0.4,0.4,0.6,0.6c0.2,0.1,0.5,0.2,0.8,0.2c0.2,0,0.5-0.1,0.8-0.2c0.2-0.1,0.4-0.3,0.6-0.5l-0.2-0.2l-0.1-0.1l-0.1,0
			c-0.2,0.3-0.5,0.5-0.8,0.5c-0.2,0-0.5-0.1-0.7-0.2s-0.3-0.4-0.4-0.6c0,0,0-0.1,0-0.1C17.7,40.9,20.2,40.9,20.2,40.9z M17.7,40.4
			c0.1-0.2,0.2-0.4,0.4-0.5c0.2-0.1,0.4-0.2,0.6-0.2c0.2,0,0.4,0,0.6,0.2c0.2,0.1,0.3,0.2,0.4,0.4l0,0L17.7,40.4L17.7,40.4z"/>
		<path class="st0" d="M23.8,40.9L23.8,40.9c0-0.2,0-0.4,0-0.5c0-0.1-0.1-0.3-0.2-0.4c-0.1-0.2-0.4-0.4-0.6-0.6s-0.5-0.2-0.8-0.2
			c-0.3,0-0.6,0.1-0.8,0.2c-0.2,0.1-0.4,0.4-0.6,0.6c-0.1,0.2-0.2,0.5-0.2,0.8c0,0.3,0.1,0.6,0.2,0.8s0.4,0.4,0.6,0.6
			c0.2,0.1,0.5,0.2,0.8,0.2c0.2,0,0.5-0.1,0.8-0.2c0.2-0.1,0.4-0.3,0.6-0.5l-0.3-0.2l-0.1-0.1l-0.1,0c-0.2,0.3-0.5,0.5-0.8,0.5
			c-0.2,0-0.5-0.1-0.7-0.2c-0.2-0.2-0.3-0.4-0.4-0.6c0,0,0-0.1,0-0.1C21.2,40.9,23.8,40.9,23.8,40.9z M21.3,40.4
			c0.1-0.2,0.2-0.4,0.4-0.5c0.2-0.1,0.4-0.2,0.6-0.2s0.4,0,0.6,0.2c0.2,0.1,0.3,0.2,0.4,0.4l0,0L21.3,40.4L21.3,40.4z"/>
		<path class="st0" d="M26.3,39.4c-0.2-0.1-0.4-0.1-0.6-0.1c-0.4,0-0.7,0.1-1,0.4v-0.4h-0.3v3h0.3h0.1h0.1v-1.8c0-0.2,0-0.2,0.1-0.4
			c0-0.1,0.1-0.2,0.2-0.2c0.1-0.1,0.2-0.1,0.4-0.1s0.4,0,0.5,0.2c0.1,0.1,0.2,0.3,0.2,0.5v0v1.8h0.1h0.1h0.3v-1.9v0
			c0-0.2,0-0.4-0.1-0.6C26.6,39.6,26.4,39.5,26.3,39.4z"/>
		<path class="st0" d="M31.5,38.3c-0.1-0.2-0.3-0.4-0.5-0.5c-0.1,0-0.2-0.1-0.2-0.1c-0.1,0-0.2,0-0.2,0c-0.1,0-0.2,0-0.4,0H29v4.6
			h0.6v-2.1h0.6c0.4,0,0.8-0.1,1.1-0.4c0.2-0.2,0.4-0.6,0.4-1C31.7,38.8,31.6,38.5,31.5,38.3z M31,39.3c-0.1,0.1-0.1,0.2-0.2,0.2
			c-0.2,0.1-0.4,0.2-0.6,0.2h-0.6v-1.5h0.5c0.2,0,0.3,0,0.4,0c0.1,0,0.2,0,0.2,0.1c0.1,0,0.2,0.1,0.2,0.2c0,0.1,0.1,0.1,0.1,0.2
			c0,0.1,0,0.2,0,0.2C31.1,39.1,31.1,39.3,31,39.3z"/>
		<path class="st0" d="M34.5,40.1c-0.1-0.2-0.4-0.4-0.6-0.6c-0.2-0.1-0.5-0.2-0.8-0.2c-0.3,0-0.6,0.1-0.8,0.2
			c-0.2,0.1-0.4,0.4-0.6,0.6c-0.1,0.2-0.2,0.5-0.2,0.8c0,0.3,0.1,0.6,0.2,0.8s0.4,0.4,0.6,0.6c0.2,0.1,0.5,0.2,0.8,0.2
			c0.3,0,0.6-0.1,0.8-0.2c0.2-0.1,0.4-0.4,0.6-0.6c0.1-0.2,0.2-0.5,0.2-0.8C34.8,40.6,34.6,40.3,34.5,40.1z M34.2,41.3
			c0,0.1-0.1,0.2-0.2,0.4c-0.1,0.1-0.2,0.2-0.4,0.2c-0.1,0-0.2,0.1-0.4,0.1c-0.3,0-0.6-0.1-0.7-0.3c-0.2-0.2-0.3-0.5-0.3-0.8
			c0-0.3,0.1-0.6,0.3-0.8c0.2-0.2,0.5-0.3,0.7-0.3c0.1,0,0.2,0,0.4,0.1c0.1,0,0.2,0.1,0.4,0.2c0.1,0.1,0.2,0.2,0.2,0.4
			c0,0.1,0.1,0.2,0.1,0.4C34.2,41,34.2,41.1,34.2,41.3z"/>
		<path class="st0" d="M41.9,40.9L41.9,40.9c0-0.2,0-0.4,0-0.5c0-0.1-0.1-0.3-0.2-0.4c-0.1-0.2-0.4-0.4-0.6-0.6
			c-0.2-0.1-0.5-0.2-0.8-0.2c-0.3,0-0.6,0.1-0.8,0.2c-0.2,0.1-0.4,0.4-0.6,0.6c-0.1,0.2-0.2,0.5-0.2,0.8c0,0.3,0.1,0.6,0.2,0.8
			s0.4,0.4,0.6,0.6c0.2,0.1,0.5,0.2,0.8,0.2c0.2,0,0.5-0.1,0.8-0.2c0.2-0.1,0.4-0.3,0.6-0.5l-0.2-0.2l-0.1-0.1l-0.1,0
			c-0.2,0.3-0.5,0.5-0.8,0.5c-0.2,0-0.5-0.1-0.7-0.2c-0.2-0.2-0.3-0.4-0.4-0.6c0,0,0-0.1,0-0.1C39.4,40.9,41.9,40.9,41.9,40.9z
			 M39.4,40.4c0.1-0.2,0.2-0.4,0.4-0.5c0.2-0.1,0.4-0.2,0.6-0.2c0.2,0,0.4,0,0.6,0.2c0.2,0.1,0.3,0.2,0.4,0.4l0,0L39.4,40.4
			L39.4,40.4z"/>
		<path class="st0" d="M43.6,39.3c-0.4,0-0.6,0.2-0.8,0.4v-0.4h-0.3v3h0.3h0.1h0h0v-1.8c0-0.2,0-0.4,0.1-0.5
			c0.1-0.1,0.2-0.2,0.4-0.2v-0.1v-0.1L43.6,39.3L43.6,39.3z"/>
		<path class="st0" d="M52.7,40.1c-0.1-0.2-0.4-0.4-0.6-0.6c-0.2-0.1-0.5-0.2-0.8-0.2c-0.3,0-0.6,0.1-0.8,0.2
			c-0.2,0.1-0.4,0.4-0.6,0.6c-0.1,0.2-0.2,0.5-0.2,0.8c0,0.3,0.1,0.6,0.2,0.8s0.4,0.4,0.6,0.6c0.2,0.1,0.5,0.2,0.8,0.2
			c0.3,0,0.6-0.1,0.8-0.2c0.2-0.1,0.4-0.4,0.6-0.6c0.1-0.2,0.2-0.5,0.2-0.8S52.8,40.3,52.7,40.1z M52.3,41.3c0,0.1-0.1,0.2-0.2,0.4
			c-0.1,0.1-0.2,0.2-0.4,0.2c-0.1,0-0.2,0.1-0.4,0.1c-0.3,0-0.6-0.1-0.7-0.3c-0.2-0.2-0.3-0.5-0.3-0.8c0-0.3,0.1-0.6,0.3-0.8
			c0.2-0.2,0.5-0.3,0.7-0.3c0.1,0,0.2,0,0.4,0.1c0.1,0,0.2,0.1,0.4,0.2c0.1,0.1,0.2,0.2,0.2,0.4c0,0.1,0.1,0.2,0.1,0.4
			C52.3,41,52.3,41.1,52.3,41.3z"/>
		<path class="st0" d="M57.3,39.4c-0.2-0.1-0.4-0.2-0.6-0.2c-0.2,0-0.4,0-0.6,0.2c-0.2,0.1-0.3,0.2-0.4,0.4c0-0.1-0.1-0.2-0.2-0.3
			c-0.1-0.1-0.2-0.2-0.4-0.2c-0.2,0-0.2-0.1-0.4-0.1c-0.3,0-0.6,0.1-0.7,0.2v-0.2h-0.5l0,0v3h0.3h0.1h0H54v-1.8
			c0-0.2,0.1-0.4,0.2-0.5c0.1-0.1,0.3-0.2,0.5-0.2s0.4,0,0.5,0.2c0.1,0.1,0.2,0.3,0.2,0.5v0v1.9h0.1h0.1h0.3h0.1H56v-1.8
			c0-0.2,0.1-0.4,0.2-0.5c0.1-0.1,0.3-0.2,0.5-0.2c0.2,0,0.4,0,0.5,0.2c0.1,0.1,0.2,0.3,0.2,0.5v1.9h0.1h0.1h0.4v-1.9
			c0-0.3,0-0.5-0.2-0.7C57.6,39.6,57.5,39.5,57.3,39.4z"/>
		<path class="st0" d="M61.7,40c-0.1-0.2-0.3-0.4-0.6-0.6c-0.2-0.1-0.5-0.2-0.8-0.2c-0.5,0-1,0.2-1.2,0.6v-0.6h-0.6V44h0.5v-2.2
			c0.4,0.4,0.8,0.6,1.2,0.6c0.3,0,0.6-0.1,0.8-0.2c0.2-0.1,0.4-0.4,0.6-0.6c0.1-0.2,0.2-0.5,0.2-0.8C61.9,40.5,61.8,40.3,61.7,40z
			 M61.3,41.3c0,0.1-0.1,0.2-0.2,0.4c-0.1,0.1-0.2,0.2-0.4,0.2c-0.1,0-0.2,0.1-0.4,0.1c-0.2,0-0.4,0-0.5-0.1
			c-0.2-0.1-0.3-0.2-0.4-0.4c-0.1-0.2-0.1-0.4-0.1-0.5c0-0.2,0-0.4,0.1-0.5c0.1-0.2,0.2-0.3,0.4-0.4c0.2-0.1,0.4-0.1,0.5-0.1
			c0.1,0,0.2,0,0.4,0.1c0.1,0,0.2,0.1,0.4,0.2c0.1,0.1,0.2,0.2,0.2,0.4c0,0.1,0.1,0.2,0.1,0.4C61.4,41,61.3,41.1,61.3,41.3z"/>
		<path class="st0" d="M68.4,39.4c-0.2-0.1-0.4-0.1-0.6-0.1c-0.4,0-0.7,0.1-1,0.4v-0.4h-0.3v3h0.3l0,0l0,0h0.1l0,0H67v-1.8
			c0-0.2,0-0.2,0.1-0.4c0-0.2,0.1-0.2,0.2-0.2c0.1-0.1,0.2-0.1,0.4-0.1s0.4,0,0.5,0.2s0.2,0.3,0.2,0.5v0v1.8h0.1l0,0l0,0h0.1l0,0
			h0.3v-1.9v0c0-0.2,0-0.4-0.1-0.6C68.7,39.6,68.6,39.5,68.4,39.4z"/>
		<polygon class="st0" points="72,39.3 71.9,39.3 71.5,39.3 70.7,41.3 70.7,41.1 70.7,41.1 69.9,39.3 69.8,39.3 69.6,39.3 
			69.3,39.3 70.4,42 69.6,44 69.9,44 70.1,44 70.2,44 72.1,39.3 		"/>
		<polygon class="st0" points="38.3,39.3 38.2,39.3 37.6,41 37,39.3 36.9,39.3 36.6,39.3 36.5,39.3 35.9,41 35.4,39.3 35.2,39.3 
			35.1,39.3 34.8,39.3 35.9,42.5 36.7,40.2 37.6,42.5 38.8,39.3 38.4,39.3 		"/>
		<path class="st0" d="M49.2,41.6L49.2,41.6L49,41.4c-0.2,0.2-0.4,0.3-0.6,0.4c-0.2,0.1-0.4,0.1-0.7,0.1c-0.4,0-0.6-0.1-1-0.2
			c-0.3-0.2-0.5-0.4-0.7-0.7c-0.2-0.3-0.2-0.6-0.2-1s0.1-0.6,0.2-1c0.2-0.3,0.4-0.5,0.7-0.7c0.3-0.2,0.6-0.2,1-0.2
			c0.2,0,0.4,0,0.6,0.1c0.2,0.1,0.4,0.2,0.6,0.4l0.1-0.2l0.2-0.2c-0.1-0.1-0.3-0.2-0.5-0.3c-0.2-0.1-0.4-0.1-0.6-0.2
			c-0.2,0-0.4-0.1-0.6-0.1c-0.4,0-0.8,0.1-1.2,0.4c-0.4,0.2-0.6,0.5-0.9,0.9c-0.2,0.4-0.4,0.8-0.4,1.2c0,0.4,0.1,0.8,0.3,1.2
			c0.2,0.4,0.5,0.6,0.9,0.9c0.4,0.2,0.8,0.4,1.2,0.4c0.6,0,1.2-0.2,1.6-0.6L49.2,41.6z"/>
		<path class="st0" d="M65.2,39.3v0.6c-0.2-0.2-0.4-0.4-0.6-0.5s-0.5-0.2-0.7-0.2c-0.3,0-0.6,0.1-0.8,0.2c-0.2,0.1-0.4,0.4-0.6,0.6
			c-0.1,0.2-0.2,0.5-0.2,0.8c0,0.3,0.1,0.6,0.2,0.8c0.1,0.2,0.4,0.4,0.6,0.6c0.2,0.1,0.5,0.2,0.8,0.2c0.5,0,1-0.2,1.2-0.6v0.6h0.6
			v-3L65.2,39.3L65.2,39.3z M64.9,41.3c0,0.1-0.1,0.2-0.2,0.4c-0.1,0.1-0.2,0.2-0.4,0.2c-0.1,0-0.2,0.1-0.4,0.1
			c-0.3,0-0.6-0.1-0.7-0.3c-0.2-0.2-0.3-0.5-0.3-0.8c0-0.3,0.1-0.6,0.3-0.8c0.2-0.2,0.5-0.3,0.7-0.3c0.1,0,0.2,0,0.4,0.1
			c0.1,0,0.2,0.1,0.4,0.2c0.1,0.1,0.2,0.2,0.2,0.4c0,0.1,0.1,0.2,0.1,0.4C65,41,65,41.1,64.9,41.3z"/>
	</g>
</g>
</svg>
