<?xml version="1.0" encoding="utf-8"?>
<!-- Generator: Adobe Illustrator 26.0.3, SVG Export Plug-In . SVG Version: 6.00 Build 0)  -->
<svg version="1.1" id="Layer_1" xmlns="http://www.w3.org/2000/svg" xmlns:xlink="http://www.w3.org/1999/xlink" x="0px" y="0px"
	 viewBox="0 0 226 63" style="enable-background:new 0 0 226 63;" xml:space="preserve">
<style type="text/css">
	.st0{fill:#FFFFFF;}
</style>
<g>
	<g>
		<path class="st0" d="M79.1,25.5L79.1,25.5v2l0,0V28h10l-0.3,0.6c-0.8,1.4-1.7,2.6-2.9,3.5c-1.2,1.1-2.6,1.8-4.1,2.4
			c-1.5,0.5-3,0.9-4.6,0.9c-2.6,0-5.1-0.6-7.2-1.9c-2.3-1.3-4-3.1-5.3-5.4c-1.3-2.3-1.9-4.6-1.9-7.3s0.6-5.1,1.9-7.3
			c1.3-2.3,3-4,5.3-5.4c2.3-1.3,4.6-1.9,7.3-1.9c2.1,0,4.1,0.4,6,1.2c1.8,0.8,3.4,1.9,4.7,3.4l0.5-0.5l0,0l0.6-0.6l0,0l1.8-1.8
			c-3.8-4-8.3-6-13.8-6c-3.4,0-6.6,0.9-9.5,2.5s-5.2,4-6.9,6.8c-1.7,2.9-2.5,6-2.5,9.4c0,2.6,0.4,4.9,1.5,7.2c1,2.3,2.4,4.3,4.1,6
			c1.8,1.8,3.8,3.1,6,4.1c2.3,1,4.6,1.4,7.2,1.4c2.3,0,4.3-0.4,6.3-1.2s3.8-1.9,5.4-3.3c1.6-1.4,2.9-3.1,3.9-5.1
			c1-1.9,1.6-4.1,1.8-6.3H78.8v2.1H79.1z"/>
		<path class="st0" d="M118.8,7.7c-1.1-1.6-2.4-2.9-4.1-3.6c-0.7-0.3-1.3-0.5-1.9-0.7c-0.6-0.2-1.3-0.3-2-0.3C110,3,109.2,3,108.2,3
			h-8.5v36.1h4.3v-16h4.9c3.3,0,6.1-1,8.2-2.8c2.2-1.8,3.1-4.3,3.1-7.3C120.3,11.1,119.8,9.4,118.8,7.7z M115.3,15.7
			c-0.4,0.9-1.1,1.6-1.8,2c-1.2,0.8-2.9,1.2-5.2,1.2h-4.2V7h3.7c1.4,0,2.5,0.1,3.1,0.1c0.6,0.1,1.3,0.3,2,0.6
			c0.7,0.3,1.2,0.7,1.7,1.2c0.4,0.5,0.9,1.1,1.1,1.8c0.3,0.8,0.4,1.5,0.4,2.3C116,14,115.7,14.8,115.3,15.7z"/>
		<path class="st0" d="M154.8,34L154.8,34l-1.8-2l0,0l-0.4-0.4c-1.4,1.3-2.9,2.3-4.6,2.9s-3.4,1.1-5.3,1.1c-2.6,0-5.1-0.6-7.2-1.9
			c-2.3-1.3-4-3.1-5.3-5.4s-1.9-4.6-1.9-7.3c0-2.6,0.6-5.1,1.9-7.3s3-4,5.3-5.4c2.3-1.3,4.6-1.9,7.2-1.9c1.7,0,3.4,0.3,5.1,0.9
			s3,1.4,4.3,2.6l0.4-0.5l0,0l0.5-0.6l0,0l1.7-2c-1.1-1-2.3-1.7-3.7-2.4c-1.3-0.6-2.7-1.2-4.2-1.5s-2.9-0.5-4.3-0.5
			c-3.3,0-6.6,0.9-9.4,2.5c-2.8,1.6-5.2,4-6.9,6.9s-2.5,6-2.5,9.4s0.9,6.6,2.5,9.5s4,5.2,6.9,6.9s6,2.5,9.5,2.5
			c4.8,0,9.1-1.7,12.8-5.1L154.8,34z"/>
	</g>
	<g>
		<g>
			<g>
				<g>
					<path class="st0" d="M21.5,1.4c-1.1-0.4-2.1-0.8-3.2-1.2h-5.8C10.6,1,8.4,1.4,6.7,2.7C3.2,5.4,0.9,8.8,0.2,13.3
						c-0.7,4.8,0.9,9,4.1,12.5c2.5,2.7,5.8,4.3,9.6,4.6c0.2,0.1,0.3,0,0.4,0c0.1,0,0.1,0,0.2,0l-0.1,0.1c0.8-0.1,1.3-0.5,1.9-1.1
						c0.8-0.6,1.3-1.5,1.8-2.4c0,0,0,0,0.1-0.1v-0.1c0,0,0-0.1,0.1-0.1l0,0c0.5-0.8,0.9-1.8,1.5-2.6c1.4-2.1,3.1-4.1,4.5-6.2l0,0
						c0-0.1,0.1-0.1,0.1-0.2l0,0c0.2-0.3,0.4-0.6,0.6-1.1c1-2,2.3-3.8,4-5.3c0.1-0.1,0.1-0.1,0.2-0.2c0.2-0.2,0.3-0.3,0.5-0.4
						c0,0,0,0,0.1,0V9.9C28,6,25.4,3,21.5,1.4z M19.1,12.9C22.2,8.7,26,8.8,26,8.8s-0.9,4.5-3.4,8.1c-3.1,4.4-6.4,4.8-6.4,4.8
						S15.2,18.1,19.1,12.9z M15.1,4.1c0,0,1.6,3,1.7,6.2c0.1,3.9-1.6,5.7-1.6,5.7s-2-1.7-2.1-6.5C13.1,5.8,15.1,4.1,15.1,4.1z
						 M6.5,18.6C3.4,13,5.1,8.8,5.1,8.8s4.7,3.2,7.5,7.8c3.4,5.7,2.4,9.7,2.4,9.7S10.5,25.5,6.5,18.6z"/>
				</g>
			</g>
		</g>
	</g>
	<g>
		<path class="st0" d="M55.6,1.6l-0.9,0.3l0,0c-0.2,0.1-0.4,0.2-0.6,0.2l-0.6,0.2c-0.1,0-0.2,0.1-0.3,0.1c-0.4,0.1-0.6,0.3-0.9,0.8
			C51,6,49.8,8.9,48.6,11.7c0,0.1-0.1,0.2-0.1,0.4c1-0.3,1.9-0.4,2.8-0.8c1.3-0.5,2.1-1.4,2.6-2.7C54,7.7,54.4,7,54.8,6.1
			c0.3-0.9,0.6-1.6,1.1-2.5l0,0l0.6-1.4C56.5,1.8,56.1,1.4,55.6,1.6z"/>
		<g>
			<path class="st0" d="M33.9,10.6c0.1-0.1,0.2-0.2,0.2-0.4L33.9,10.6z"/>
			<path class="st0" d="M31.4,14.5c-0.1,0.1-0.1,0.2-0.1,0.2l0.3-0.5C31.6,14.3,31.5,14.4,31.4,14.5z"/>
			<path class="st0" d="M33.3,11.5L33.3,11.5l0.5-1C33.6,10.9,33.4,11.2,33.3,11.5z"/>
			<path class="st0" d="M45,24.3c-0.6,0.1-1.2,0.1-1.8,0.2c-0.3,0-0.4,0.1-0.5,0.4c-2.1,4.9-4.4,10-6.7,14.9c0,0.1,0,0.1-0.1,0.2
				c0.2,0,0.3,0,0.4,0.1c0.6,0.1,1.3,0.2,1.9,0.2c0.1,0,0.2,0,0.2,0c0.3-0.1,0.5-0.1,0.8-0.2c1.4-0.5,2.4-1.5,3-3
				c1-2.5,1.9-4.8,2.9-7.3c0.4-1.2,1-2.4,1.4-3.5C47.2,25.2,46.4,24.2,45,24.3z"/>
			<path class="st0" d="M42.2,24.6c-1.3,0.1-2.5,0.2-3.7,0.4c-0.1,0-0.3,0.2-0.3,0.3c-2,4.1-4,8.3-6,12.4c-0.3,0.6-0.6,1.3-1,2
				c0.3,0,0.5,0.1,0.8,0.1c1,0.1,2,0.2,3,0.3c0.3,0,0.4-0.1,0.5-0.3c2.1-4.7,4.2-9.5,6.3-14.2C42,25.3,42.1,24.9,42.2,24.6z"/>
			<path class="st0" d="M37.8,25.1c-0.4,0.1-0.9,0.1-1.2,0.1c-1.6,0.1-2.8,1-3.5,2.4c-1.6,3-3.2,6.1-4.7,9.1
				c-0.2,0.4-0.3,0.9-0.4,1.3c-0.1,0.8,0.3,1.3,1.2,1.4c0.4,0.1,0.8,0.1,1.2,0.1c0.3,0.1,0.5-0.1,0.6-0.3c1.8-3.7,3.5-7.3,5.4-11
				C36.7,27.2,37.3,26.2,37.8,25.1z"/>
			<path class="st0" d="M51.1,11.7c-0.3,0-0.5,0-0.9,0.1c-0.5,0.1-1.2,0.3-1.7,0.4c-0.3,0.1-0.4,0.2-0.6,0.5
				c-1.3,2.9-2.5,5.7-3.8,8.6c-0.4,1-0.9,1.9-1.3,2.9c0.8-0.1,1.5-0.1,2.3-0.2c1.7-0.3,2.9-1.2,3.5-2.8c0.6-1.7,1.4-3.3,2-5.1
				c0.4-1.1,0.9-2,1.2-3C52.2,12.4,51.9,11.8,51.1,11.7z"/>
			<path class="st0" d="M32.9,27.5c0.1-0.3,0.2-0.6,0.3-1c0.1-0.5-0.3-1-0.9-1c-0.4,0-0.9,0.1-1.4,0.1c-0.3,0-0.5,0.2-0.6,0.4
				c-1.8,3.2-3.5,6.4-5.4,9.7c-0.5,1.1-1.2,2-1.7,3.1c0.4,0,0.8,0.1,1.1,0.1c0.9,0.2,1.5-0.1,2.3-0.5c0.6-0.4,1.2-1.1,1.5-1.7
				C29.7,33.6,31.4,30.6,32.9,27.5z"/>
			<path class="st0" d="M42.5,23.9c1.1-2.4,2.1-4.8,3.2-7.2c0.6-1.4,1.3-2.8,1.9-4.3c-1.2,0.3-2.3,0.5-3.3,0.8
				c-0.2,0.1-0.4,0.2-0.5,0.4c-1.6,3.2-3.1,6.6-4.7,9.9c-0.2,0.4-0.3,0.8-0.5,1.2c1.2-0.1,2.4-0.2,3.5-0.3
				C42.3,24.3,42.4,24.2,42.5,23.9z"/>
			<path class="st0" d="M30.2,25.8c-0.9,0.1-1.7,0.2-2.5,0.2c-0.3,0-0.4,0.1-0.5,0.3c-1.9,3.3-4,6.8-5.9,10.1
				c-0.4,0.6-0.8,1.3-1.2,2c0.9,0.1,1.7,0.1,2.5,0.2c0.3,0,0.4-0.1,0.5-0.3c2-3.8,4.1-7.4,6.2-11.1C29.5,26.9,29.9,26.4,30.2,25.8z"
				/>
			<path class="st0" d="M36.2,24.9c0.5,0,1.1-0.1,1.5-0.2c0.1,0,0.3-0.2,0.4-0.3c1.5-3.1,3-6.1,4.5-9.2c0.3-0.5,0.5-1.2,0.9-1.8
				c-0.6,0.1-1.2,0.2-1.7,0.4c-1.1,0.3-2,1-2.6,2c-1.3,2.4-2.6,4.8-3.8,7.3c-0.1,0.2-0.2,0.3-0.2,0.5C35,24.5,35.4,24.9,36.2,24.9z"
				/>
			<path class="st0" d="M35.4,22.7c0.6-1.3,1.3-2.5,1.9-3.8c0.5-1,1.1-1.9,1.5-2.9c0.2-0.3,0.4-0.8,0.1-1.1s-0.6-0.2-1.1-0.2
				c-0.3,0.1-0.8,0.2-1.1,0.2c-0.3,0.1-0.4,0.2-0.6,0.4c-1.6,3-3.3,6-4.9,9c-0.2,0.3-0.3,0.6-0.5,1.1c0.2,0,0.4,0,0.5,0
				C33.3,25.4,34.6,24.4,35.4,22.7z"/>
			<path class="st0" d="M26.9,26.2c-1.1,0-2,0.2-2.8,1c-0.3,0.3-0.6,0.8-1,1.2c-0.6,1.1-1.3,2.1-1.9,3.1c-1,1.5-1.9,3.1-2.8,4.6
				c-0.3,0.4-0.4,1.1-0.5,1.5c-0.1,0.5,0.2,0.8,0.6,0.9c0.2,0,0.4,0,0.8,0.1c0.3,0.1,0.4-0.1,0.6-0.3c1.8-3,3.7-6.1,5.4-9.1
				C25.8,28.1,26.3,27.2,26.9,26.2z"/>
			<path class="st0" d="M44.1,13c0.1,0,0.1,0,0.2,0c1.1-0.2,2.1-0.5,3.2-0.8c0.2,0,0.3-0.2,0.4-0.4c1-2.1,1.9-4.2,2.9-6.3
				c0.4-0.9,0.8-1.7,1.2-2.6c-1.2,0.4-2.1,0.6-3.2,1.1c-0.2,0.1-0.3,0.2-0.4,0.4c-1.1,2.1-2.1,4.3-3.1,6.4
				C44.9,11.5,44.5,12.3,44.1,13z"/>
			<path class="st0" d="M23,28.2c0.2-0.3,0.3-0.5,0.3-0.9c0.1-0.5-0.2-0.8-0.6-0.8c-0.2,0-0.5,0.1-0.8,0.1s-0.5,0.1-0.6,0.4
				c-0.8,1.3-1.6,2.6-2.5,3.9c-1.5,2.4-3,4.7-4.5,7c1.1,0.3,2,0.2,2.8-0.5c0.3-0.3,0.6-0.6,1-1.1C19.6,33.6,21.4,31,23,28.2z"/>
			<path class="st0" d="M30.5,25.2c1.4-2.5,2.8-5.1,4.2-7.5c0.4-0.8,1-1.6,1.4-2.5c-0.9,0.2-1.6,0.3-2.5,0.5
				c-0.2,0.1-0.4,0.2-0.5,0.4c-1.5,2.5-2.9,4.9-4.4,7.4c-0.4,0.8-0.9,1.4-1.3,2.3c0.9-0.1,1.6-0.2,2.5-0.2
				C30.2,25.6,30.4,25.5,30.5,25.2z"/>
			<path class="st0" d="M43.2,8.2c-0.8,1.4-1.5,2.9-2.3,4.3c-0.4,0.8-0.1,1.2,0.8,1.2c0.5-0.1,1.1-0.2,1.5-0.3
				c0.2-0.1,0.4-0.2,0.4-0.3c1-1.9,1.9-3.9,2.9-5.9c0.4-1,0.9-1.8,1.4-2.8c-0.5,0.2-1.1,0.3-1.5,0.5c-1.2,0.4-2.1,1.2-2.7,2.3
				C43.7,7.4,43.4,7.7,43.2,8.2z"/>
			<path class="st0" d="M21.1,26.8c-0.6,0.1-1.2,0.1-1.7,0.2c-0.3,0-0.5,0.1-0.6,0.4c-1.8,2.8-3.7,5.6-5.5,8.4
				c-0.4,0.6-1,1.4-1.4,2.1c0.6,0.1,1.2,0.1,1.7,0.2c0.3,0,0.4-0.1,0.5-0.3c2.3-3.5,4.5-7.1,6.8-10.7C21,27,21,26.9,21.1,26.8z"/>
			<path class="st0" d="M36.7,14.7L36.7,14.7c0.6-0.1,1.4-0.2,2-0.4c0.9-0.3,1.6-1,2-1.8c1.1-1.9,2-3.9,3-5.8c0.1-0.2,0.1-0.5,0-0.6
				s-0.4-0.2-0.6-0.2c-0.5,0.1-1,0.3-1.4,0.4c-0.3,0-0.5,0.1-0.6,0.4c-0.8,1.5-1.6,2.9-2.4,4.4C38,12.3,37.4,13.6,36.7,14.7z"/>
			<path class="st0" d="M25.9,26c0.3,0,0.5-0.1,0.8-0.1s0.5-0.1,0.8-0.4c1.1-1.9,2.3-3.9,3.4-5.8c0.8-1.2,1.4-2.5,2.1-3.8
				c-1.6,0.2-2.8,0.8-3.5,2.1c-1.3,2.1-2.6,4.2-3.9,6.3c-0.1,0.2-0.3,0.5-0.3,0.8C25,25.7,25.3,26,25.9,26z"/>
			<path class="st0" d="M25.2,24.5c1.3-2.1,2.6-4.3,4-6.4c0.1-0.2,0.2-0.4,0.3-0.6c0.1-0.4-0.1-0.6-0.5-0.5c-0.3,0-0.6,0.1-1,0.2
				c-0.3,0.1-0.5,0.2-0.8,0.5c-1.4,2.1-2.8,4.4-4.2,6.6c-0.4,0.8-1,1.5-1.4,2.3c0.8-0.1,1.4-0.1,2-0.4
				C24.4,25.6,24.9,25.2,25.2,24.5z"/>
			<path class="st0" d="M18.7,27c-0.6,1-1.2,1.8-1.8,2.8c-0.2,0.3-0.3,0.5-0.5,0.9c-1.5,2.3-3,4.6-4.5,6.9c-0.2,0.2-0.3,0.3-0.6,0.3
				c-1-0.1-1.3-0.3-0.8-1.3s1.2-1.9,1.8-2.9s1.3-1.9,1.9-3c0,0,0.1-0.1,0.1-0.2l0,0l0.1-0.1c0.3-0.5,0.6-1,1.1-1.5
				c0.4-0.5,1-1.1,1.5-1.5l0.1-0.1c0.2-0.1,0.5-0.2,0.9-0.2C18.2,27,18.5,27,18.7,27z"/>
			<path class="st0" d="M33.5,15.6c1-0.2,1.7-0.4,2.6-0.6c0.1,0,0.2-0.2,0.3-0.3c0.5-1,1.1-1.9,1.6-2.9c1-1.7,1.9-3.4,2.9-5.2
				c0,0,0-0.1-0.1-0.1c-0.6,0.2-1.4,0.4-2,0.6c-0.4,0.1-0.6,0.3-0.9,0.6c-1.4,2.5-2.9,4.9-4.3,7.4C33.6,15.4,33.5,15.5,33.5,15.6z"
				/>
			<path class="st0" d="M27.3,17.2c-0.6,0.2-1.2,0.3-1.8,0.4c-0.3,0.1-0.5,0.2-0.6,0.4c-1.8,2.8-3.7,5.5-5.5,8.3
				c-0.1,0.1-0.1,0.2-0.2,0.3c0.6-0.1,1.2-0.1,1.8-0.2c0.3,0,0.4-0.1,0.6-0.3c1.4-2.3,2.9-4.5,4.3-6.7
				C26.3,18.7,26.7,18.1,27.3,17.2z"/>
			<path class="st0" d="M34.2,10.3c-0.1,0.1-0.1,0.2-0.2,0.4l-2.1,3.5c-0.2,0.3-0.4,0.5-0.5,1c-0.1,0.2-0.1,0.5,0,0.6
				s0.4,0.2,0.6,0.1c0.3,0,0.5-0.1,0.9-0.2c0.3,0,0.4-0.2,0.5-0.4c1.5-2.5,2.9-5.1,4.4-7.5c0.1-0.1,0.1-0.2,0.1-0.3
				C36.3,7.9,35,8.6,34.3,10c0,0.1-0.1,0.1-0.1,0.2l0,0C34.2,10.2,34.2,10.3,34.2,10.3z"/>
			<path class="st0" d="M27.8,16.9c1.5-0.2,2.7-0.9,3.4-2l0,0c0.1-0.1,0.1-0.2,0.1-0.2c0.1-0.1,0.1-0.2,0.2-0.3l1.6-2.7l0,0
				c0.2-0.3,0.4-0.6,0.5-1v-0.1c0.2-0.3,0.4-0.6,0.5-1c0.1-0.2,0.1-0.4,0-0.5S33.7,9,33.6,9c-0.3,0-0.6,0.1-1.1,0.4
				c-0.1,0.1-0.2,0.2-0.3,0.2c-1.5,2.5-3.1,4.8-4.6,7.3C27.8,16.8,27.8,16.9,27.8,16.9z"/>
			<path class="st0" d="M18.4,26.8c0.1,0,0.2,0,0.3,0c0.1-0.1,0.3-0.1,0.4-0.3c1.7-2.6,3.4-5.3,5.3-7.8c0.1-0.2,0.3-0.4,0.4-0.8
				c-1.4,0.1-2.4,0.8-3,1.8c-0.8,1.1-1.4,2-2.1,3.1c-0.6,1-1.3,1.9-1.9,2.9c-0.2,0.2-0.2,0.6-0.1,1C17.7,27,18.1,26.8,18.4,26.8z"/>
			<path class="st0" d="M25.2,17.5c0.6-0.2,1.3-0.3,1.9-0.4c0.2-0.1,0.4-0.2,0.5-0.4c1.1-1.7,2.3-3.4,3.3-5.2c0.4-0.8,1-1.4,1.4-2.1
				c0,0-0.1,0-0.1-0.1c-0.6,0.2-1.3,0.4-1.9,0.6c-0.1,0-0.2,0.2-0.3,0.3c-1.2,1.7-2.4,3.5-3.4,5.3C26.1,16.2,25.7,16.8,25.2,17.5z"
				/>
			<path class="st0" d="M23.6,17.9c0.3,0.1,1.3-0.2,1.5-0.5c1.3-1.9,2.6-3.9,3.9-5.9c0.3-0.4,0.5-0.9,0.9-1.3
				c-1.3,0.3-2.1,0.9-2.9,1.8c-1.1,1.6-2.1,3.1-3.2,4.7c-0.1,0.2-0.2,0.4-0.3,0.8C23.4,17.5,23.5,17.7,23.6,17.9z"/>
			<path class="st0" d="M34.3,10.1L34.3,10.1c0,0.1-0.1,0.1-0.1,0.1L34.3,10.1z"/>
			<path class="st0" d="M33.8,10.4L33.8,10.4C33.8,10.5,33.8,10.5,33.8,10.4z"/>
			<path class="st0" d="M31.2,14.8L31.2,14.8L31.2,14.8z"/>
		</g>
	</g>
	<g>
		<path class="st0" d="M7.1,54.6v0.3v0.2h3.2l-0.1,0.2c-0.2,0.4-0.5,0.9-1,1.2S8.3,57,7.9,57.3c-0.4,0.2-1,0.3-1.5,0.3
			c-0.9,0-1.6-0.2-2.4-0.6c-0.8-0.4-1.3-1-1.7-1.7c-0.4-0.8-0.6-1.5-0.6-2.4s0.2-1.6,0.6-2.4c0.4-0.8,1-1.3,1.7-1.7
			c0.8-0.4,1.5-0.6,2.4-0.6c0.6,0,1.3,0.1,1.9,0.4c0.6,0.2,1.1,0.6,1.5,1.1l0.2-0.2l0.2-0.2l0.6-0.5c-1.2-1.3-2.7-1.9-4.4-1.9
			c-1.1,0-2.1,0.3-3,0.8c-1,0.5-1.6,1.3-2.3,2.3c-0.6,1-0.8,1.9-0.8,3c0,0.9,0.2,1.6,0.4,2.4C1,56.2,1.5,56.8,2,57.3
			s1.2,1.1,1.9,1.3C4.7,58.9,5.4,59,6.3,59c0.8,0,1.4-0.1,2-0.4c0.6-0.2,1.2-0.6,1.7-1.1c0.5-0.4,1-1,1.3-1.6s0.5-1.3,0.6-2H6.8
			L7.1,54.6L7.1,54.6z"/>
		<path class="st0" d="M16.2,51c-0.9,0.1-1.5,0.4-1.9,1.1v-1h-0.8v7.6h0.8h0.3h0.1h0.1v-4.6c0-0.5,0.1-0.9,0.3-1.2s0.5-0.5,1-0.5
			v-0.2v-0.3V51H16.2z"/>
		<path class="st0" d="M23.5,56.5l-0.2-0.1c-0.5,0.8-1.3,1.2-2.1,1.2c-0.7,0-1.3-0.2-1.7-0.6s-0.8-1-1-1.5c0,0,0-0.2,0-0.3H25
			c0-0.5-0.1-1-0.1-1.3c-0.1-0.3-0.2-0.8-0.4-1.1c-0.3-0.5-0.9-1.1-1.5-1.4c-0.6-0.3-1.3-0.5-1.9-0.5c-0.8,0-1.4,0.2-2,0.5
			c-0.7,0.3-1.1,0.9-1.4,1.4c-0.3,0.7-0.5,1.3-0.5,2c0,0.8,0.2,1.4,0.5,2s0.9,1.1,1.4,1.5c0.6,0.3,1.3,0.5,2,0.5
			c0.6,0,1.3-0.2,1.9-0.4c0.7-0.3,1.1-0.8,1.4-1.3l-0.6-0.4L23.5,56.5z M19.6,52.7c0.4-0.3,0.9-0.4,1.4-0.4s1,0.1,1.4,0.4
			c0.4,0.2,0.8,0.6,1,1.1l0.1,0.1h-4.8C18.9,53.3,19.2,53,19.6,52.7z"/>
		<path class="st0" d="M32.5,56.5l-0.2-0.1c-0.5,0.8-1.3,1.2-2.2,1.2c-0.6,0-1.3-0.2-1.7-0.6s-0.8-1-1-1.5c0,0,0-0.2,0-0.3H34
			c0-0.5-0.1-1-0.1-1.3c-0.1-0.3-0.2-0.8-0.4-1.1c-0.3-0.5-0.9-1.1-1.5-1.4c-0.6-0.3-1.3-0.5-1.9-0.5c-0.8,0-1.4,0.2-2,0.5
			s-1.1,0.9-1.4,1.4c-0.3,0.7-0.5,1.3-0.5,2c0,0.8,0.2,1.4,0.5,2s0.9,1.1,1.5,1.5c0.7,0.3,1.3,0.5,2,0.5s1.3-0.2,1.9-0.4
			c0.6-0.3,1.1-0.8,1.4-1.3l-0.8-0.4L32.5,56.5z M28.7,52.7c0.4-0.3,0.9-0.4,1.4-0.4s1,0.1,1.4,0.4c0.4,0.2,0.8,0.6,1,1.1l0.1,0.1
			h-4.8C27.9,53.3,28.2,53,28.7,52.7z"/>
		<path class="st0" d="M40.3,51.3c-0.4-0.2-1-0.3-1.6-0.3c-1,0-1.8,0.3-2.4,1.1v-1h-0.8v7.6h0.8h0.3h0.2v-4.6c0-0.4,0.1-0.6,0.2-1
			c0.1-0.3,0.3-0.5,0.6-0.6c0.3-0.2,0.5-0.2,1-0.2s1,0.1,1.3,0.4c0.3,0.3,0.4,0.8,0.4,1.3v0.1v4.6h0.2h0.3h0.8V54v-0.1
			c0-0.5-0.1-1.1-0.3-1.5C41.1,51.9,40.7,51.6,40.3,51.3z"/>
		<path class="st0" d="M53.4,48.6c-0.3-0.5-0.8-1-1.3-1.2c-0.2-0.1-0.4-0.2-0.6-0.2c-0.2-0.1-0.4-0.1-0.6-0.1h-3.7v11.7h1.4v-5.2
			h1.6c1.1,0,1.9-0.3,2.7-1c0.7-0.7,1.1-1.4,1.1-2.4C53.9,49.8,53.7,49.1,53.4,48.6z M52.3,51.2c-0.2,0.3-0.3,0.5-0.6,0.6
			c-0.4,0.2-1,0.4-1.6,0.4h-1.4v-3.9h1.2c0.4,0,0.8,0,1,0.1c0.2,0,0.4,0.1,0.6,0.2c0.2,0.1,0.4,0.2,0.5,0.4s0.3,0.3,0.3,0.5
			c0.1,0.2,0.1,0.4,0.1,0.6C52.5,50.6,52.4,51,52.3,51.2z"/>
		<path class="st0" d="M61.1,53c-0.3-0.6-0.9-1.1-1.4-1.4c-0.6-0.3-1.3-0.5-2-0.5s-1.4,0.2-2,0.5c-0.7,0.3-1.1,0.9-1.4,1.4
			c-0.3,0.6-0.5,1.3-0.5,2s0.2,1.4,0.5,2c0.3,0.7,0.9,1.1,1.4,1.4c0.6,0.3,1.3,0.5,2,0.5s1.4-0.2,2-0.5c0.7-0.3,1.1-0.9,1.4-1.4
			c0.3-0.6,0.5-1.3,0.5-2S61.5,53.5,61.1,53z M60.2,56c-0.1,0.3-0.3,0.6-0.5,0.9c-0.2,0.2-0.5,0.4-0.9,0.5c-0.3,0.1-0.6,0.2-1,0.2
			c-0.8,0-1.4-0.3-1.8-0.8c-0.5-0.5-0.8-1.2-0.8-1.9c0-0.8,0.2-1.4,0.8-1.9c0.5-0.5,1.2-0.8,1.8-0.8c0.3,0,0.6,0.1,1,0.2
			c0.3,0.1,0.6,0.3,0.9,0.5c0.2,0.2,0.4,0.5,0.5,0.9c0.1,0.3,0.2,0.6,0.2,1.1C60.3,55.4,60.3,55.7,60.2,56z"/>
		<path class="st0" d="M78.2,56.5L78,56.4c-0.5,0.8-1.3,1.2-2.2,1.2c-0.6,0-1.3-0.2-1.7-0.6s-0.8-1-1-1.5c0,0,0-0.2,0-0.3h6.6
			c0-0.5-0.1-1-0.1-1.3c-0.1-0.3-0.2-0.8-0.4-1.1c-0.3-0.5-0.9-1.1-1.5-1.4c-0.6-0.3-1.3-0.5-1.9-0.5c-0.8,0-1.4,0.2-2,0.5
			s-1.1,0.9-1.4,1.4c-0.3,0.7-0.5,1.3-0.5,2c0,0.8,0.2,1.4,0.5,2s0.8,1.1,1.4,1.5c0.6,0.3,1.3,0.5,2,0.5s1.3-0.2,1.9-0.4
			c0.6-0.3,1.1-0.8,1.4-1.3l-0.7-0.4L78.2,56.5z M74.3,52.7c0.4-0.3,0.9-0.4,1.4-0.4s1,0.1,1.4,0.4c0.4,0.2,0.8,0.6,1,1.1l0.1,0.1
			h-4.8C73.6,53.3,73.9,53,74.3,52.7z"/>
		<path class="st0" d="M83.9,51c-0.9,0.1-1.5,0.4-1.9,1.1v-1h-0.8v7.6H82h0.3h0.1h0.1v-4.6c0-0.5,0.1-0.9,0.3-1.2
			c0.2-0.3,0.5-0.5,1-0.5v-0.2v-0.3L83.9,51L83.9,51z"/>
		<path class="st0" d="M106.8,53c-0.3-0.6-0.9-1.1-1.4-1.4c-0.6-0.3-1.3-0.5-2-0.5c-0.8,0-1.4,0.2-2,0.5s-1.1,0.9-1.4,1.4
			c-0.3,0.6-0.5,1.3-0.5,2s0.2,1.4,0.5,2c0.3,0.7,0.9,1.1,1.4,1.4c0.6,0.3,1.3,0.5,2,0.5c0.8,0,1.4-0.2,2-0.5s1.1-0.9,1.4-1.4
			c0.3-0.6,0.5-1.3,0.5-2S107.1,53.5,106.8,53z M105.8,56c-0.1,0.3-0.3,0.6-0.5,0.9c-0.3,0.2-0.5,0.4-0.9,0.5
			c-0.3,0.1-0.6,0.2-1,0.2c-0.8,0-1.4-0.3-1.8-0.8c-0.5-0.5-0.8-1.2-0.8-1.9c0-0.8,0.2-1.4,0.8-1.9c0.5-0.5,1.2-0.8,1.8-0.8
			c0.3,0,0.7,0.1,1,0.2s0.7,0.3,0.9,0.5s0.4,0.5,0.5,0.9c0.1,0.3,0.2,0.6,0.2,1.1S106,55.7,105.8,56z"/>
		<path class="st0" d="M118.5,51.4c-0.4-0.2-1-0.4-1.5-0.4s-1.1,0.1-1.5,0.4c-0.4,0.2-0.8,0.6-1.1,1.1c-0.1-0.3-0.3-0.5-0.6-0.8
			c-0.2-0.2-0.5-0.4-0.9-0.5s-0.6-0.2-1.1-0.2c-0.8,0-1.4,0.2-1.8,0.6v-0.5h-1.2l0,0v7.6h0.8h0.3h0.1h0.2v-4.6c0-0.5,0.2-1,0.4-1.3
			c0.3-0.3,0.8-0.5,1.2-0.5s0.9,0.1,1.2,0.4c0.3,0.3,0.4,0.8,0.4,1.2V54v4.7h0.2h0.3h0.8h0.3h0.2v-4.6c0-0.5,0.2-1,0.4-1.3
			c0.3-0.3,0.8-0.5,1.2-0.5c0.5,0,1,0.1,1.2,0.4c0.3,0.3,0.4,0.8,0.4,1.3v4.7h0.2h0.3h0.9V54c0-0.8-0.1-1.3-0.4-1.7
			C119.3,51.9,119,51.6,118.5,51.4z"/>
		<path class="st0" d="M129.6,52.9c-0.3-0.5-0.8-1.1-1.4-1.4c-0.6-0.3-1.3-0.5-2-0.5c-1.3,0-2.4,0.5-3.1,1.5v-1.4h-1.4v11.7h1.3
			v-5.5c0.9,1.1,1.9,1.5,3.1,1.5c0.8,0,1.4-0.2,1.9-0.5s1.1-0.9,1.4-1.4c0.3-0.7,0.5-1.3,0.5-2C130.1,54.2,129.9,53.5,129.6,52.9z
			 M128.6,56c-0.1,0.3-0.3,0.6-0.5,0.9c-0.2,0.2-0.5,0.4-0.9,0.5c-0.3,0.1-0.6,0.2-1,0.2s-1-0.1-1.3-0.3c-0.4-0.2-0.8-0.5-1-1
			c-0.2-0.4-0.3-0.9-0.3-1.3s0.1-1,0.3-1.3c0.2-0.4,0.5-0.8,1-1c0.4-0.2,0.9-0.3,1.3-0.3c0.3,0,0.6,0.1,1,0.2
			c0.3,0.1,0.6,0.3,0.9,0.5c0.2,0.2,0.4,0.5,0.5,0.9c0.1,0.3,0.2,0.7,0.2,1S128.7,55.7,128.6,56z"/>
		<path class="st0" d="M146.4,51.3c-0.4-0.2-1-0.3-1.6-0.3c-1,0-1.8,0.3-2.4,1.1v-1h-0.8v7.6h0.8l0,0l0,0h0.3l0,0h0.2v-4.6
			c0-0.4,0.1-0.6,0.2-1s0.3-0.5,0.6-0.6c0.3-0.2,0.5-0.2,1-0.2s1,0.1,1.3,0.4c0.3,0.3,0.4,0.8,0.4,1.3v0.1v4.6h0.2l0,0l0,0h0.3l0,0
			h0.8V54v-0.1c0-0.5-0.1-1.1-0.3-1.5C147.2,51.9,146.9,51.6,146.4,51.3z"/>
		<polygon class="st0" points="155.6,51.2 155.3,51.2 154.4,51.2 152.3,56.1 152.2,55.7 152.2,55.7 150.2,51.2 149.9,51.2 
			149.6,51.2 148.7,51.2 151.5,57.8 149.5,62.8 150.3,62.8 150.7,62.8 150.9,62.8 155.9,51.2 		"/>
		<polygon class="st0" points="70.6,51.2 70.4,51.2 68.9,55.3 67.3,51.2 67,51.2 66.4,51.2 66.2,51.2 64.7,55.3 63.2,51.2 
			62.8,51.2 62.6,51.2 61.7,51.2 64.7,59.1 66.7,53.4 68.9,59.1 71.8,51.2 70.9,51.2 		"/>
		<path class="st0" d="M98,56.8l-0.1-0.2l-0.2-0.2c-0.4,0.4-1,0.8-1.5,1s-1.1,0.3-1.7,0.3c-0.9,0-1.6-0.2-2.4-0.6
			c-0.8-0.4-1.3-1-1.7-1.7s-0.6-1.5-0.6-2.4s0.2-1.6,0.6-2.4c0.4-0.8,1-1.3,1.7-1.7c0.8-0.4,1.5-0.6,2.4-0.6c0.5,0,1.1,0.1,1.6,0.3
			s1,0.4,1.4,0.9l0.3-0.4l0.5-0.6c-0.3-0.3-0.8-0.5-1.2-0.8c-0.4-0.2-0.9-0.3-1.4-0.4c-0.4-0.1-1-0.2-1.4-0.2c-1.1,0-2.1,0.3-3,0.9
			c-1,0.5-1.6,1.3-2.3,2.3c-0.5,1-0.9,1.9-0.9,3s0.3,2.1,0.8,3c0.5,1,1.3,1.6,2.3,2.3c1,0.5,1.9,0.9,3,0.9c1.6,0,3-0.5,4.1-1.6
			L98,56.8z"/>
		<path class="st0" d="M138.4,51.2v1.4c-0.4-0.5-0.9-0.9-1.4-1.2s-1.2-0.4-1.7-0.4c-0.8,0-1.4,0.2-2,0.5s-1.1,0.9-1.4,1.4
			c-0.3,0.7-0.5,1.3-0.5,2c0,0.8,0.2,1.4,0.5,2s0.9,1.1,1.4,1.4c0.7,0.3,1.3,0.5,2,0.5c1.3,0,2.4-0.5,3.1-1.5v1.4h1.4v-7.6
			L138.4,51.2L138.4,51.2z M137.7,56c-0.1,0.3-0.3,0.6-0.5,0.9c-0.2,0.2-0.5,0.4-0.9,0.5c-0.3,0.1-0.6,0.2-1.1,0.2
			c-0.8,0-1.4-0.3-1.8-0.8c-0.5-0.5-0.8-1.2-0.8-1.9c0-0.8,0.2-1.4,0.8-1.9c0.5-0.5,1.2-0.8,1.8-0.8c0.3,0,0.6,0.1,1.1,0.2
			c0.3,0.1,0.7,0.3,0.9,0.5s0.4,0.5,0.5,0.9c0.1,0.3,0.2,0.6,0.2,1C137.9,55.4,137.8,55.7,137.7,56z"/>
	</g>
</g>
</svg>
