<?xml version="1.0" encoding="utf-8"?>
<!-- Generator: Adobe Illustrator 22.0.0, SVG Export Plug-In . SVG Version: 6.00 Build 0)  -->
<svg version="1.1" id="Layer_1" xmlns="http://www.w3.org/2000/svg" xmlns:xlink="http://www.w3.org/1999/xlink" x="0px" y="0px"
	 viewBox="0 0 226 63" style="enable-background:new 0 0 226 63;" xml:space="preserve">
<style type="text/css">
	.st0{fill:#FFFFFF;}
</style>
<g>
	<g>
		<path class="st0" d="M114.1,25.5L114.1,25.5v2l0,0V28h10l-0.3,0.6c-0.8,1.4-1.7,2.6-2.9,3.5c-1.2,1.1-2.6,1.8-4.1,2.4
			c-1.5,0.5-3,0.9-4.6,0.9c-2.6,0-5.1-0.6-7.2-1.9c-2.3-1.3-4-3.1-5.3-5.4s-1.9-4.6-1.9-7.3s0.6-5.1,1.9-7.3c1.3-2.3,3-4,5.3-5.4
			c2.3-1.3,4.6-1.9,7.3-1.9c2.1,0,4.1,0.4,6,1.2c1.8,0.8,3.4,1.9,4.7,3.4l0.5-0.5l0,0l0.6-0.6l0,0l1.8-1.8c-3.8-4-8.3-6-13.8-6
			c-3.4,0-6.6,0.9-9.5,2.5c-2.9,1.6-5.2,4-6.9,6.8c-1.7,2.9-2.5,6-2.5,9.4c0,2.6,0.4,4.9,1.5,7.2c1,2.3,2.4,4.3,4.1,6
			c1.8,1.8,3.8,3.1,6,4.1c2.3,1,4.6,1.4,7.2,1.4c2.3,0,4.3-0.4,6.3-1.2c2-0.8,3.8-1.9,5.4-3.3c1.6-1.4,2.9-3.1,3.9-5.1
			c1-1.9,1.6-4.1,1.8-6.3h-15.6V25.5L114.1,25.5z"/>
		<path class="st0" d="M153.8,7.7c-1.1-1.6-2.4-2.9-4.1-3.6c-0.7-0.3-1.3-0.5-1.9-0.7c-0.6-0.2-1.3-0.3-2-0.3C145,3,144.2,3,143.2,3
			h-8.5v36.1h4.3v-16h4.9c3.3,0,6.1-1,8.2-2.8c2.2-1.8,3.1-4.3,3.1-7.3C155.3,11.1,154.8,9.4,153.8,7.7z M150.3,15.7
			c-0.4,0.9-1.1,1.6-1.8,2c-1.2,0.8-2.9,1.2-5.2,1.2h-4.2V7h3.7c1.4,0,2.5,0.1,3.1,0.1c0.6,0.1,1.3,0.3,2,0.6
			c0.7,0.3,1.2,0.7,1.7,1.2c0.4,0.5,0.9,1.1,1.1,1.8c0.3,0.8,0.4,1.5,0.4,2.3C151,14,150.7,14.8,150.3,15.7z"/>
		<path class="st0" d="M189.8,34L189.8,34L188,32l0,0l-0.4-0.4c-1.4,1.3-2.9,2.3-4.6,2.9s-3.4,1.1-5.3,1.1c-2.6,0-5.1-0.6-7.2-1.9
			c-2.3-1.3-4-3.1-5.3-5.4s-1.9-4.6-1.9-7.3c0-2.6,0.6-5.1,1.9-7.3s3-4,5.3-5.4c2.3-1.3,4.6-1.9,7.2-1.9c1.7,0,3.4,0.3,5.1,0.9
			s3,1.4,4.3,2.6l0.4-0.5l0,0l0.5-0.6l0,0l1.7-2c-1.1-1-2.3-1.7-3.7-2.4c-1.3-0.6-2.7-1.2-4.2-1.5c-1.5-0.3-2.9-0.5-4.3-0.5
			c-3.3,0-6.6,0.9-9.4,2.5c-2.8,1.6-5.2,4-6.9,6.9c-1.7,2.9-2.5,6-2.5,9.4c0,3.4,0.9,6.6,2.5,9.5s4,5.2,6.9,6.9
			c2.9,1.7,6,2.5,9.5,2.5c4.8,0,9.1-1.7,12.8-5.1L189.8,34z"/>
	</g>
	<g>
		<g>
			<g>
				<g>
					<path class="st0" d="M56.5,1.4c-1.1-0.4-2.1-0.8-3.2-1.2h-5.8c-1.9,0.8-4.1,1.2-5.8,2.5c-3.5,2.7-5.8,6.1-6.5,10.6
						c-0.7,4.8,0.9,9,4.1,12.5c2.5,2.7,5.8,4.3,9.6,4.6c0.2,0.1,0.3,0,0.4,0c0.1,0,0.1,0,0.2,0l-0.1,0.1c0.8-0.1,1.3-0.5,1.9-1.1
						c0.8-0.6,1.3-1.5,1.8-2.4c0,0,0,0,0.1-0.1c0,0,0-0.1,0-0.1c0,0,0-0.1,0.1-0.1v0c0.5-0.8,0.9-1.8,1.5-2.6
						c1.4-2.1,3.1-4.1,4.5-6.2c0,0,0,0,0,0c0-0.1,0.1-0.1,0.1-0.2v0c0.2-0.3,0.4-0.6,0.6-1.1c1-2,2.3-3.8,4-5.3
						c0.1-0.1,0.1-0.1,0.2-0.2c0.2-0.2,0.3-0.3,0.5-0.4c0,0,0,0,0.1,0V9.9C63,6,60.4,3,56.5,1.4z M54.1,12.9C57.2,8.7,61,8.8,61,8.8
						s-0.9,4.5-3.4,8.1c-3.1,4.4-6.4,4.8-6.4,4.8S50.2,18.1,54.1,12.9z M50.1,4.1c0,0,1.6,3,1.7,6.2c0.1,3.9-1.6,5.7-1.6,5.7
						s-2-1.7-2.1-6.5C48.1,5.8,50.1,4.1,50.1,4.1z M41.5,18.6c-3.1-5.6-1.4-9.8-1.4-9.8s4.7,3.2,7.5,7.8c3.4,5.7,2.4,9.7,2.4,9.7
						S45.5,25.5,41.5,18.6z"/>
				</g>
			</g>
		</g>
	</g>
	<g>
		<path class="st0" d="M90.6,1.6l-0.9,0.3l0,0c-0.2,0.1-0.4,0.2-0.6,0.2l-0.6,0.2c-0.1,0-0.2,0.1-0.3,0.1c-0.4,0.1-0.6,0.3-0.9,0.8
			C86,6,84.8,8.9,83.6,11.7c0,0.1-0.1,0.2-0.1,0.4c1-0.3,1.9-0.4,2.8-0.8c1.3-0.5,2.1-1.4,2.6-2.7c0.1-0.9,0.5-1.6,0.9-2.5
			c0.3-0.9,0.6-1.6,1.1-2.5l0,0l0.6-1.4C91.5,1.8,91.1,1.4,90.6,1.6z"/>
		<g>
			<path class="st0" d="M68.9,10.6c0.1-0.1,0.2-0.2,0.2-0.4L68.9,10.6z"/>
			<path class="st0" d="M66.4,14.5c-0.1,0.1-0.1,0.2-0.1,0.2l0.3-0.5C66.6,14.3,66.5,14.4,66.4,14.5z"/>
			<path class="st0" d="M68.3,11.5L68.3,11.5l0.5-1C68.6,10.9,68.4,11.2,68.3,11.5z"/>
			<path class="st0" d="M80,24.3c-0.6,0.1-1.2,0.1-1.8,0.2c-0.3,0-0.4,0.1-0.5,0.4c-2.1,4.9-4.4,10-6.7,14.9c0,0.1,0,0.1-0.1,0.2
				c0.2,0,0.3,0,0.4,0.1c0.6,0.1,1.3,0.2,1.9,0.2c0.1,0,0.2,0,0.2,0c0.3-0.1,0.5-0.1,0.8-0.2c1.4-0.5,2.4-1.5,3-3
				c1-2.5,1.9-4.8,2.9-7.3c0.4-1.2,1-2.4,1.4-3.5C82.2,25.2,81.4,24.2,80,24.3z"/>
			<path class="st0" d="M77.2,24.6c-1.3,0.1-2.5,0.2-3.7,0.4c-0.1,0-0.3,0.2-0.3,0.3c-2,4.1-4,8.3-6,12.4c-0.3,0.6-0.6,1.3-1,2
				c0.3,0,0.5,0.1,0.8,0.1c1,0.1,2,0.2,3,0.3c0.3,0,0.4-0.1,0.5-0.3c2.1-4.7,4.2-9.5,6.3-14.2C77,25.3,77.1,24.9,77.2,24.6z"/>
			<path class="st0" d="M72.8,25.1c-0.4,0.1-0.9,0.1-1.2,0.1c-1.6,0.1-2.8,1-3.5,2.4c-1.6,3-3.2,6.1-4.7,9.1
				c-0.2,0.4-0.3,0.9-0.4,1.3c-0.1,0.8,0.3,1.3,1.2,1.4c0.4,0.1,0.8,0.1,1.2,0.1c0.3,0.1,0.5-0.1,0.6-0.3c1.8-3.7,3.5-7.3,5.4-11
				C71.7,27.2,72.3,26.2,72.8,25.1z"/>
			<path class="st0" d="M86.1,11.7c-0.3,0-0.5,0-0.9,0.1c-0.5,0.1-1.2,0.3-1.7,0.4c-0.3,0.1-0.4,0.2-0.6,0.5
				c-1.3,2.9-2.5,5.7-3.8,8.6c-0.4,1-0.9,1.9-1.3,2.9c0.8-0.1,1.5-0.1,2.3-0.2c1.7-0.3,2.9-1.2,3.5-2.8c0.6-1.7,1.4-3.3,2-5.1
				c0.4-1.1,0.9-2,1.2-3C87.2,12.4,86.9,11.8,86.1,11.7z"/>
			<path class="st0" d="M67.9,27.5c0.1-0.3,0.2-0.6,0.3-1c0.1-0.5-0.3-1-0.9-1c-0.4,0-0.9,0.1-1.4,0.1c-0.3,0-0.5,0.2-0.6,0.4
				c-1.8,3.2-3.5,6.4-5.4,9.7c-0.5,1.1-1.2,2-1.7,3.1c0.4,0,0.8,0.1,1.1,0.1c0.9,0.2,1.5-0.1,2.3-0.5c0.6-0.4,1.2-1.1,1.5-1.7
				C64.7,33.6,66.4,30.6,67.9,27.5z"/>
			<path class="st0" d="M77.5,23.9c1.1-2.4,2.1-4.8,3.2-7.2c0.6-1.4,1.3-2.8,1.9-4.3c-1.2,0.3-2.3,0.5-3.3,0.8
				c-0.2,0.1-0.4,0.2-0.5,0.4c-1.6,3.2-3.1,6.6-4.7,9.9c-0.2,0.4-0.3,0.8-0.5,1.2c1.2-0.1,2.4-0.2,3.5-0.3
				C77.3,24.3,77.4,24.2,77.5,23.9z"/>
			<path class="st0" d="M65.2,25.8c-0.9,0.1-1.7,0.2-2.5,0.2c-0.3,0-0.4,0.1-0.5,0.3c-1.9,3.3-4,6.8-5.9,10.1
				c-0.4,0.6-0.8,1.3-1.2,2c0.9,0.1,1.7,0.1,2.5,0.2c0.3,0,0.4-0.1,0.5-0.3c2-3.8,4.1-7.4,6.2-11.1C64.5,26.9,64.9,26.4,65.2,25.8z"
				/>
			<path class="st0" d="M71.2,24.9c0.5,0,1.1-0.1,1.5-0.2c0.1,0,0.3-0.2,0.4-0.3c1.5-3.1,3-6.1,4.5-9.2c0.3-0.5,0.5-1.2,0.9-1.8
				c-0.6,0.1-1.2,0.2-1.7,0.4c-1.1,0.3-2,1-2.6,2c-1.3,2.4-2.6,4.8-3.8,7.3c-0.1,0.2-0.2,0.3-0.2,0.5C70,24.5,70.4,24.9,71.2,24.9z"
				/>
			<path class="st0" d="M70.4,22.7c0.6-1.3,1.3-2.5,1.9-3.8c0.5-1,1.1-1.9,1.5-2.9c0.2-0.3,0.4-0.8,0.1-1.1
				c-0.3-0.3-0.6-0.2-1.1-0.2c-0.3,0.1-0.8,0.2-1.1,0.2c-0.3,0.1-0.4,0.2-0.6,0.4c-1.6,3-3.3,6-4.9,9c-0.2,0.3-0.3,0.6-0.5,1.1
				c0.2,0,0.4,0,0.5,0C68.3,25.4,69.6,24.4,70.4,22.7z"/>
			<path class="st0" d="M61.9,26.2c-1.1,0-2,0.2-2.8,1c-0.3,0.3-0.6,0.8-1,1.2c-0.6,1.1-1.3,2.1-1.9,3.1c-1,1.5-1.9,3.1-2.8,4.6
				c-0.3,0.4-0.4,1.1-0.5,1.5c-0.1,0.5,0.2,0.8,0.6,0.9c0.2,0,0.4,0,0.8,0.1c0.3,0.1,0.4-0.1,0.6-0.3c1.8-3,3.7-6.1,5.4-9.1
				C60.8,28.1,61.3,27.2,61.9,26.2z"/>
			<path class="st0" d="M79.1,13c0.1,0,0.1,0,0.2,0c1.1-0.2,2.1-0.5,3.2-0.8c0.2,0,0.3-0.2,0.4-0.4c1-2.1,1.9-4.2,2.9-6.3
				c0.4-0.9,0.8-1.7,1.2-2.6c-1.2,0.4-2.1,0.6-3.2,1.1c-0.2,0.1-0.3,0.2-0.4,0.4c-1.1,2.1-2.1,4.3-3.1,6.4
				C79.9,11.5,79.5,12.3,79.1,13z"/>
			<path class="st0" d="M58,28.2c0.2-0.3,0.3-0.5,0.3-0.9c0.1-0.5-0.2-0.8-0.6-0.8c-0.2,0-0.5,0.1-0.8,0.1c-0.3,0-0.5,0.1-0.6,0.4
				c-0.8,1.3-1.6,2.6-2.5,3.9c-1.5,2.4-3,4.7-4.5,7c1.1,0.3,2,0.2,2.8-0.5c0.3-0.3,0.6-0.6,1-1.1C54.6,33.6,56.4,31,58,28.2z"/>
			<path class="st0" d="M65.5,25.2c1.4-2.5,2.8-5.1,4.2-7.5c0.4-0.8,1-1.6,1.4-2.5c-0.9,0.2-1.6,0.3-2.5,0.5
				c-0.2,0.1-0.4,0.2-0.5,0.4c-1.5,2.5-2.9,4.9-4.4,7.4c-0.4,0.8-0.9,1.4-1.3,2.3c0.9-0.1,1.6-0.2,2.5-0.2
				C65.2,25.6,65.4,25.5,65.5,25.2z"/>
			<path class="st0" d="M78.2,8.2c-0.8,1.4-1.5,2.9-2.3,4.3c-0.4,0.8-0.1,1.2,0.8,1.2c0.5-0.1,1.1-0.2,1.5-0.3
				c0.2-0.1,0.4-0.2,0.4-0.3c1-1.9,1.9-3.9,2.9-5.9c0.4-1,0.9-1.8,1.4-2.8c-0.5,0.2-1.1,0.3-1.5,0.5c-1.2,0.4-2.1,1.2-2.7,2.3
				C78.7,7.4,78.4,7.7,78.2,8.2z"/>
			<path class="st0" d="M56.1,26.8c-0.6,0.1-1.2,0.1-1.7,0.2c-0.3,0-0.5,0.1-0.6,0.4c-1.8,2.8-3.7,5.6-5.5,8.4
				c-0.4,0.6-1,1.4-1.4,2.1c0.6,0.1,1.2,0.1,1.7,0.2c0.3,0,0.4-0.1,0.5-0.3c2.3-3.5,4.5-7.1,6.8-10.7C56,27,56,26.9,56.1,26.8z"/>
			<path class="st0" d="M71.7,14.7L71.7,14.7c0.6-0.1,1.4-0.2,2-0.4c0.9-0.3,1.6-1,2-1.8c1.1-1.9,2-3.9,3-5.8c0.1-0.2,0.1-0.5,0-0.6
				c-0.1-0.1-0.4-0.2-0.6-0.2c-0.5,0.1-1,0.3-1.4,0.4c-0.3,0-0.5,0.1-0.6,0.4c-0.8,1.5-1.6,2.9-2.4,4.4C73,12.3,72.4,13.6,71.7,14.7
				z"/>
			<path class="st0" d="M60.9,26c0.3,0,0.5-0.1,0.8-0.1c0.3,0,0.5-0.1,0.8-0.4c1.1-1.9,2.3-3.9,3.4-5.8c0.8-1.2,1.4-2.5,2.1-3.8
				c-1.6,0.2-2.8,0.8-3.5,2.1c-1.3,2.1-2.6,4.2-3.9,6.3c-0.1,0.2-0.3,0.5-0.3,0.8C60,25.7,60.3,26,60.9,26z"/>
			<path class="st0" d="M60.2,24.5c1.3-2.1,2.6-4.3,4-6.4c0.1-0.2,0.2-0.4,0.3-0.6c0.1-0.4-0.1-0.6-0.5-0.5c-0.3,0-0.6,0.1-1,0.2
				c-0.3,0.1-0.5,0.2-0.8,0.5c-1.4,2.1-2.8,4.4-4.2,6.6c-0.4,0.8-1,1.5-1.4,2.3c0.8-0.1,1.4-0.1,2-0.4
				C59.4,25.6,59.9,25.2,60.2,24.5z"/>
			<path class="st0" d="M53.7,27c-0.6,1-1.2,1.8-1.8,2.8c-0.2,0.3-0.3,0.5-0.5,0.9c-1.5,2.3-3,4.6-4.5,6.9c-0.2,0.2-0.3,0.3-0.6,0.3
				c-1-0.1-1.3-0.3-0.8-1.3s1.2-1.9,1.8-2.9c0.6-1,1.3-1.9,1.9-3c0,0,0.1-0.1,0.1-0.2l0,0l0.1-0.1c0.3-0.5,0.6-1,1.1-1.5
				c0.4-0.5,1-1.1,1.5-1.5l0.1-0.1c0.2-0.1,0.5-0.2,0.9-0.2C53.2,27,53.5,27,53.7,27z"/>
			<path class="st0" d="M68.5,15.6c1-0.2,1.7-0.4,2.6-0.6c0.1,0,0.2-0.2,0.3-0.3c0.5-1,1.1-1.9,1.6-2.9c1-1.7,1.9-3.4,2.9-5.2
				c0,0,0-0.1-0.1-0.1c-0.6,0.2-1.4,0.4-2,0.6c-0.4,0.1-0.6,0.3-0.9,0.6c-1.4,2.5-2.9,4.9-4.3,7.4C68.6,15.4,68.5,15.5,68.5,15.6z"
				/>
			<path class="st0" d="M62.3,17.2c-0.6,0.2-1.2,0.3-1.8,0.4c-0.3,0.1-0.5,0.2-0.6,0.4c-1.8,2.8-3.7,5.5-5.5,8.3
				c-0.1,0.1-0.1,0.2-0.2,0.3c0.6-0.1,1.2-0.1,1.8-0.2c0.3,0,0.4-0.1,0.6-0.3c1.4-2.3,2.9-4.5,4.3-6.7
				C61.3,18.7,61.7,18.1,62.3,17.2z"/>
			<path class="st0" d="M69.2,10.3c-0.1,0.1-0.1,0.2-0.2,0.4l-2.1,3.5c-0.2,0.3-0.4,0.5-0.5,1c-0.1,0.2-0.1,0.5,0,0.6
				c0.1,0.1,0.4,0.2,0.6,0.1c0.3,0,0.5-0.1,0.9-0.2c0.3,0,0.4-0.2,0.5-0.4c1.5-2.5,2.9-5.1,4.4-7.5c0.1-0.1,0.1-0.2,0.1-0.3
				C71.3,7.9,70,8.6,69.3,10c0,0.1-0.1,0.1-0.1,0.2l0,0V10.3z"/>
			<path class="st0" d="M62.8,16.9c1.5-0.2,2.7-0.9,3.4-2l0,0c0.1-0.1,0.1-0.2,0.1-0.2c0.1-0.1,0.1-0.2,0.2-0.3l1.6-2.7l0,0
				c0.2-0.3,0.4-0.6,0.5-1v-0.1c0.2-0.3,0.4-0.6,0.5-1c0.1-0.2,0.1-0.4,0-0.5c-0.1-0.1-0.4-0.1-0.5-0.1C68.3,9,68,9.1,67.5,9.4
				c-0.1,0.1-0.2,0.2-0.3,0.2c-1.5,2.5-3.1,4.8-4.6,7.3C62.8,16.8,62.8,16.9,62.8,16.9z"/>
			<path class="st0" d="M53.4,26.8c0.1,0,0.2,0,0.3,0c0.1-0.1,0.3-0.1,0.4-0.3c1.7-2.6,3.4-5.3,5.3-7.8c0.1-0.2,0.3-0.4,0.4-0.8
				c-1.4,0.1-2.4,0.8-3,1.8c-0.8,1.1-1.4,2-2.1,3.1c-0.6,1-1.3,1.9-1.9,2.9c-0.2,0.2-0.2,0.6-0.1,1C52.7,27,53.1,26.8,53.4,26.8z"/>
			<path class="st0" d="M60.2,17.5c0.6-0.2,1.3-0.3,1.9-0.4c0.2-0.1,0.4-0.2,0.5-0.4c1.1-1.7,2.3-3.4,3.3-5.2c0.4-0.8,1-1.4,1.4-2.1
				c0,0-0.1,0-0.1-0.1c-0.6,0.2-1.3,0.4-1.9,0.6c-0.1,0-0.2,0.2-0.3,0.3c-1.2,1.7-2.4,3.5-3.4,5.3C61.1,16.2,60.7,16.8,60.2,17.5z"
				/>
			<path class="st0" d="M58.6,17.9c0.3,0.1,1.3-0.2,1.5-0.5c1.3-1.9,2.6-3.9,3.9-5.9c0.3-0.4,0.5-0.9,0.9-1.3
				c-1.3,0.3-2.1,0.9-2.9,1.8c-1.1,1.6-2.1,3.1-3.2,4.7c-0.1,0.2-0.2,0.4-0.3,0.8C58.4,17.5,58.5,17.7,58.6,17.9z"/>
			<path class="st0" d="M69.3,10.1L69.3,10.1c0,0.1-0.1,0.1-0.1,0.1L69.3,10.1z"/>
			<path class="st0" d="M68.8,10.4L68.8,10.4C68.8,10.5,68.8,10.5,68.8,10.4z"/>
			<path class="st0" d="M66.2,14.8L66.2,14.8L66.2,14.8z"/>
		</g>
	</g>
	<g>
		<path class="st0" d="M42.1,54.6v0.3v0.2h3.2l-0.1,0.2c-0.2,0.4-0.5,0.9-1,1.2s-0.9,0.5-1.3,0.8c-0.4,0.2-1,0.3-1.5,0.3
			c-0.9,0-1.6-0.2-2.4-0.6c-0.8-0.4-1.3-1-1.7-1.7c-0.4-0.8-0.6-1.5-0.6-2.4c0-0.9,0.2-1.6,0.6-2.4c0.4-0.8,1-1.3,1.7-1.7
			c0.8-0.4,1.5-0.6,2.4-0.6c0.6,0,1.3,0.1,1.9,0.4c0.6,0.2,1.1,0.6,1.5,1.1l0.2-0.2l0.2-0.2l0.6-0.5c-1.2-1.3-2.7-1.9-4.4-1.9
			c-1.1,0-2.1,0.3-3,0.8c-1,0.5-1.6,1.3-2.3,2.3c-0.6,1-0.8,1.9-0.8,3c0,0.9,0.2,1.6,0.4,2.4c0.3,0.8,0.8,1.4,1.3,1.9
			s1.2,1.1,1.9,1.3c0.8,0.3,1.5,0.4,2.4,0.4c0.8,0,1.4-0.1,2-0.4c0.6-0.2,1.2-0.6,1.7-1.1c0.5-0.4,1-1,1.3-1.6
			c0.3-0.6,0.5-1.3,0.6-2h-5.1L42.1,54.6L42.1,54.6z"/>
		<path class="st0" d="M51.2,51c-0.9,0.1-1.5,0.4-1.9,1.1v-1h-0.8v7.6h0.8h0.3h0.1h0.1v-4.6c0-0.5,0.1-0.9,0.3-1.2
			c0.2-0.3,0.5-0.5,1-0.5v-0.2v-0.3V51H51.2z"/>
		<path class="st0" d="M58.5,56.5l-0.2-0.1c-0.5,0.8-1.3,1.2-2.1,1.2c-0.7,0-1.3-0.2-1.7-0.6s-0.8-1-1-1.5c0,0,0-0.2,0-0.3H60
			c0-0.5-0.1-1-0.1-1.3c-0.1-0.3-0.2-0.8-0.4-1.1c-0.3-0.5-0.9-1.1-1.5-1.4c-0.6-0.3-1.3-0.5-1.9-0.5c-0.8,0-1.4,0.2-2,0.5
			c-0.7,0.3-1.1,0.9-1.4,1.4c-0.3,0.7-0.5,1.3-0.5,2c0,0.8,0.2,1.4,0.5,2c0.3,0.6,0.9,1.1,1.4,1.5c0.6,0.3,1.3,0.5,2,0.5
			c0.6,0,1.3-0.2,1.9-0.4c0.7-0.3,1.1-0.8,1.4-1.3l-0.6-0.4L58.5,56.5z M54.6,52.7c0.4-0.3,0.9-0.4,1.4-0.4c0.5,0,1,0.1,1.4,0.4
			c0.4,0.2,0.8,0.6,1,1.1l0.1,0.1h-4.8C53.9,53.3,54.2,53,54.6,52.7z"/>
		<path class="st0" d="M67.5,56.5l-0.2-0.1c-0.5,0.8-1.3,1.2-2.2,1.2c-0.6,0-1.3-0.2-1.7-0.6s-0.8-1-1-1.5c0,0,0-0.2,0-0.3H69
			c0-0.5-0.1-1-0.1-1.3c-0.1-0.3-0.2-0.8-0.4-1.1c-0.3-0.5-0.9-1.1-1.5-1.4c-0.6-0.3-1.3-0.5-1.9-0.5c-0.8,0-1.4,0.2-2,0.5
			c-0.6,0.3-1.1,0.9-1.4,1.4c-0.3,0.7-0.5,1.3-0.5,2c0,0.8,0.2,1.4,0.5,2c0.3,0.6,0.9,1.1,1.5,1.5c0.7,0.3,1.3,0.5,2,0.5
			c0.7,0,1.3-0.2,1.9-0.4c0.6-0.3,1.1-0.8,1.4-1.3l-0.8-0.4L67.5,56.5z M63.7,52.7c0.4-0.3,0.9-0.4,1.4-0.4c0.5,0,1,0.1,1.4,0.4
			c0.4,0.2,0.8,0.6,1,1.1l0.1,0.1h-4.8C62.9,53.3,63.2,53,63.7,52.7z"/>
		<path class="st0" d="M75.3,51.3c-0.4-0.2-1-0.3-1.6-0.3c-1,0-1.8,0.3-2.4,1.1v-1h-0.8v7.6h0.8h0.3h0.2v-4.6c0-0.4,0.1-0.6,0.2-1
			c0.1-0.3,0.3-0.5,0.6-0.6c0.3-0.2,0.5-0.2,1-0.2c0.5,0,1,0.1,1.3,0.4c0.3,0.3,0.4,0.8,0.4,1.3v0.1v4.6h0.2h0.3h0.8V54v-0.1
			c0-0.5-0.1-1.1-0.3-1.5C76.1,51.9,75.7,51.6,75.3,51.3z"/>
		<path class="st0" d="M88.4,48.6c-0.3-0.5-0.8-1-1.3-1.2c-0.2-0.1-0.4-0.2-0.6-0.2c-0.2-0.1-0.4-0.1-0.6-0.1h-3.7v11.7h1.4v-5.2
			h1.6c1.1,0,1.9-0.3,2.7-1c0.7-0.7,1.1-1.4,1.1-2.4C88.9,49.8,88.7,49.1,88.4,48.6z M87.3,51.2c-0.2,0.3-0.3,0.5-0.6,0.6
			c-0.4,0.2-1,0.4-1.6,0.4h-1.4v-3.9h1.2c0.4,0,0.8,0,1,0.1c0.2,0,0.4,0.1,0.6,0.2c0.2,0.1,0.4,0.2,0.5,0.4c0.1,0.2,0.3,0.3,0.3,0.5
			c0.1,0.2,0.1,0.4,0.1,0.6C87.5,50.6,87.4,51,87.3,51.2z"/>
		<path class="st0" d="M96.1,53c-0.3-0.6-0.9-1.1-1.4-1.4c-0.6-0.3-1.3-0.5-2-0.5s-1.4,0.2-2,0.5c-0.7,0.3-1.1,0.9-1.4,1.4
			c-0.3,0.6-0.5,1.3-0.5,2s0.2,1.4,0.5,2c0.3,0.7,0.9,1.1,1.4,1.4c0.6,0.3,1.3,0.5,2,0.5s1.4-0.2,2-0.5c0.7-0.3,1.1-0.9,1.4-1.4
			c0.3-0.6,0.5-1.3,0.5-2S96.5,53.5,96.1,53z M95.2,56c-0.1,0.3-0.3,0.6-0.5,0.9c-0.2,0.2-0.5,0.4-0.9,0.5c-0.3,0.1-0.6,0.2-1,0.2
			c-0.8,0-1.4-0.3-1.8-0.8c-0.5-0.5-0.8-1.2-0.8-1.9c0-0.8,0.2-1.4,0.8-1.9c0.5-0.5,1.2-0.8,1.8-0.8c0.3,0,0.6,0.1,1,0.2
			c0.3,0.1,0.6,0.3,0.9,0.5c0.2,0.2,0.4,0.5,0.5,0.9c0.1,0.3,0.2,0.6,0.2,1.1C95.3,55.4,95.3,55.7,95.2,56z"/>
		<path class="st0" d="M113.2,56.5l-0.2-0.1c-0.5,0.8-1.3,1.2-2.2,1.2c-0.6,0-1.3-0.2-1.7-0.6s-0.8-1-1-1.5c0,0,0-0.2,0-0.3h6.6
			c0-0.5-0.1-1-0.1-1.3c-0.1-0.3-0.2-0.8-0.4-1.1c-0.3-0.5-0.9-1.1-1.5-1.4c-0.6-0.3-1.3-0.5-1.9-0.5c-0.8,0-1.4,0.2-2,0.5
			c-0.6,0.3-1.1,0.9-1.4,1.4c-0.3,0.7-0.5,1.3-0.5,2c0,0.8,0.2,1.4,0.5,2c0.3,0.6,0.8,1.1,1.4,1.5c0.6,0.3,1.3,0.5,2,0.5
			c0.7,0,1.3-0.2,1.9-0.4c0.6-0.3,1.1-0.8,1.4-1.3l-0.7-0.4L113.2,56.5z M109.3,52.7c0.4-0.3,0.9-0.4,1.4-0.4c0.5,0,1,0.1,1.4,0.4
			c0.4,0.2,0.8,0.6,1,1.1l0.1,0.1h-4.8C108.6,53.3,108.9,53,109.3,52.7z"/>
		<path class="st0" d="M118.9,51c-0.9,0.1-1.5,0.4-1.9,1.1v-1h-0.8v7.6h0.8h0.3h0.1h0.1v-4.6c0-0.5,0.1-0.9,0.3-1.2
			c0.2-0.3,0.5-0.5,1-0.5v-0.2v-0.3L118.9,51L118.9,51z"/>
		<path class="st0" d="M141.8,53c-0.3-0.6-0.9-1.1-1.4-1.4c-0.6-0.3-1.3-0.5-2-0.5c-0.8,0-1.4,0.2-2,0.5c-0.6,0.3-1.1,0.9-1.4,1.4
			c-0.3,0.6-0.5,1.3-0.5,2s0.2,1.4,0.5,2c0.3,0.7,0.9,1.1,1.4,1.4c0.6,0.3,1.3,0.5,2,0.5c0.8,0,1.4-0.2,2-0.5
			c0.6-0.3,1.1-0.9,1.4-1.4c0.3-0.6,0.5-1.3,0.5-2S142.1,53.5,141.8,53z M140.8,56c-0.1,0.3-0.3,0.6-0.5,0.9
			c-0.3,0.2-0.5,0.4-0.9,0.5c-0.3,0.1-0.6,0.2-1,0.2c-0.8,0-1.4-0.3-1.8-0.8c-0.5-0.5-0.8-1.2-0.8-1.9c0-0.8,0.2-1.4,0.8-1.9
			c0.5-0.5,1.2-0.8,1.8-0.8c0.3,0,0.7,0.1,1,0.2s0.7,0.3,0.9,0.5c0.2,0.2,0.4,0.5,0.5,0.9c0.1,0.3,0.2,0.6,0.2,1.1
			C141,55.4,141,55.7,140.8,56z"/>
		<path class="st0" d="M153.5,51.4c-0.4-0.2-1-0.4-1.5-0.4s-1.1,0.1-1.5,0.4c-0.4,0.2-0.8,0.6-1.1,1.1c-0.1-0.3-0.3-0.5-0.6-0.8
			c-0.2-0.2-0.5-0.4-0.9-0.5s-0.6-0.2-1.1-0.2c-0.8,0-1.4,0.2-1.8,0.6v-0.5h-1.2l0,0v7.6h0.8h0.3h0.1h0.2v-4.6c0-0.5,0.2-1,0.4-1.3
			c0.3-0.3,0.8-0.5,1.2-0.5s0.9,0.1,1.2,0.4c0.3,0.3,0.4,0.8,0.4,1.2V54v4.7h0.2h0.3h0.8h0.3h0.2v-4.6c0-0.5,0.2-1,0.4-1.3
			c0.3-0.3,0.8-0.5,1.2-0.5c0.5,0,1,0.1,1.2,0.4c0.3,0.3,0.4,0.8,0.4,1.3v4.7h0.2h0.3h0.9V54c0-0.8-0.1-1.3-0.4-1.7
			C154.3,51.9,154,51.6,153.5,51.4z"/>
		<path class="st0" d="M164.6,52.9c-0.3-0.5-0.8-1.1-1.4-1.4c-0.6-0.3-1.3-0.5-2-0.5c-1.3,0-2.4,0.5-3.1,1.5v-1.4h-1.4v11.7h1.3
			v-5.5c0.9,1.1,1.9,1.5,3.1,1.5c0.8,0,1.4-0.2,1.9-0.5c0.5-0.3,1.1-0.9,1.4-1.4c0.3-0.7,0.5-1.3,0.5-2
			C165.1,54.2,164.9,53.5,164.6,52.9z M163.6,56c-0.1,0.3-0.3,0.6-0.5,0.9c-0.2,0.2-0.5,0.4-0.9,0.5c-0.3,0.1-0.6,0.2-1,0.2
			c-0.4,0-1-0.1-1.3-0.3c-0.4-0.2-0.8-0.5-1-1c-0.2-0.4-0.3-0.9-0.3-1.3s0.1-1,0.3-1.3c0.2-0.4,0.5-0.8,1-1c0.4-0.2,0.9-0.3,1.3-0.3
			c0.3,0,0.6,0.1,1,0.2c0.3,0.1,0.6,0.3,0.9,0.5c0.2,0.2,0.4,0.5,0.5,0.9c0.1,0.3,0.2,0.7,0.2,1S163.7,55.7,163.6,56z"/>
		<path class="st0" d="M181.4,51.3c-0.4-0.2-1-0.3-1.6-0.3c-1,0-1.8,0.3-2.4,1.1v-1h-0.8v7.6h0.8l0,0l0,0h0.3l0,0h0.2v-4.6
			c0-0.4,0.1-0.6,0.2-1s0.3-0.5,0.6-0.6c0.3-0.2,0.5-0.2,1-0.2c0.5,0,1,0.1,1.3,0.4c0.3,0.3,0.4,0.8,0.4,1.3v0.1v4.6h0.2l0,0l0,0
			h0.3l0,0h0.8V54v-0.1c0-0.5-0.1-1.1-0.3-1.5C182.2,51.9,181.9,51.6,181.4,51.3z"/>
		<polygon class="st0" points="190.6,51.2 190.3,51.2 189.4,51.2 187.3,56.1 187.2,55.7 187.2,55.7 185.2,51.2 184.9,51.2 
			184.6,51.2 183.7,51.2 186.5,57.8 184.5,62.8 185.3,62.8 185.7,62.8 185.9,62.8 190.9,51.2 		"/>
		<polygon class="st0" points="105.6,51.2 105.4,51.2 103.9,55.3 102.3,51.2 102,51.2 101.4,51.2 101.2,51.2 99.7,55.3 98.2,51.2 
			97.8,51.2 97.6,51.2 96.7,51.2 99.7,59.1 101.7,53.4 103.9,59.1 106.8,51.2 105.9,51.2 		"/>
		<path class="st0" d="M133,56.8l-0.1-0.2l-0.2-0.2c-0.4,0.4-1,0.8-1.5,1c-0.5,0.2-1.1,0.3-1.7,0.3c-0.9,0-1.6-0.2-2.4-0.6
			c-0.8-0.4-1.3-1-1.7-1.7s-0.6-1.5-0.6-2.4c0-0.9,0.2-1.6,0.6-2.4c0.4-0.8,1-1.3,1.7-1.7c0.8-0.4,1.5-0.6,2.4-0.6
			c0.5,0,1.1,0.1,1.6,0.3c0.5,0.2,1,0.4,1.4,0.9l0.3-0.4l0.5-0.6c-0.3-0.3-0.8-0.5-1.2-0.8c-0.4-0.2-0.9-0.3-1.4-0.4
			c-0.4-0.1-1-0.2-1.4-0.2c-1.1,0-2.1,0.3-3,0.9c-1,0.5-1.6,1.3-2.3,2.3c-0.5,1-0.9,1.9-0.9,3c0,1.1,0.3,2.1,0.8,3
			c0.5,1,1.3,1.6,2.3,2.3c1,0.5,1.9,0.9,3,0.9c1.6,0,3-0.5,4.1-1.6L133,56.8z"/>
		<path class="st0" d="M173.4,51.2v1.4c-0.4-0.5-0.9-0.9-1.4-1.2c-0.5-0.3-1.2-0.4-1.7-0.4c-0.8,0-1.4,0.2-2,0.5
			c-0.6,0.3-1.1,0.9-1.4,1.4c-0.3,0.7-0.5,1.3-0.5,2c0,0.8,0.2,1.4,0.5,2c0.3,0.6,0.9,1.1,1.4,1.4c0.7,0.3,1.3,0.5,2,0.5
			c1.3,0,2.4-0.5,3.1-1.5v1.4h1.4v-7.6H173.4z M172.7,56c-0.1,0.3-0.3,0.6-0.5,0.9c-0.2,0.2-0.5,0.4-0.9,0.5
			c-0.3,0.1-0.6,0.2-1.1,0.2c-0.8,0-1.4-0.3-1.8-0.8c-0.5-0.5-0.8-1.2-0.8-1.9c0-0.8,0.2-1.4,0.8-1.9c0.5-0.5,1.2-0.8,1.8-0.8
			c0.3,0,0.6,0.1,1.1,0.2c0.3,0.1,0.7,0.3,0.9,0.5c0.2,0.2,0.4,0.5,0.5,0.9c0.1,0.3,0.2,0.6,0.2,1C172.9,55.4,172.8,55.7,172.7,56z"
			/>
	</g>
</g>
</svg>
