<?xml version="1.0" encoding="utf-8"?>
<!-- Generator: Adobe Illustrator 26.0.3, SVG Export Plug-In . SVG Version: 6.00 Build 0)  -->
<svg version="1.1" id="Calque_1" xmlns="http://www.w3.org/2000/svg" xmlns:xlink="http://www.w3.org/1999/xlink" x="0px" y="0px"
	 viewBox="0 0 383.3 384.1" style="enable-background:new 0 0 383.3 384.1;" xml:space="preserve">
<style type="text/css">
	.st0{fill:#0A9642;stroke:#0A9642;stroke-width:2;stroke-miterlimit:10;}
</style>
<g>
	<path class="st0" d="M219.2,227.3c-14.6-5.9-29.8-6.2-45.2-6c-6.7,0.1-6.5,0-8.5-6.5c-0.9-2.8-0.5-4.3,2-6
		c13.6-10,21.7-23.5,23.7-40.3c1.3-11.2,0.5-22.5,0.5-33.7c0-3.8,0.9-5,4.8-4.8c6.6,0.2,11.6-4,13.5-10.5c1.8-6.1-0.4-12.6-5.7-16
		c-2-1.2-2.6-2.6-2.8-4.7c-2.8-30.7-29.6-58-60.2-61.4C102.5,33.2,68,61.1,64.1,99.8c-0.1,1.2-0.3,2.2-1.5,3.1
		c-6.7,4.7-8.8,10.3-6.7,17.1c2.1,6.8,6.8,10.1,15.3,10.1c2.5,0,2.8,0.9,2.8,3c-0.1,9.8-0.2,19.5,0,29.4c0.5,17.9,7.3,33,21.4,44.1
		c4.9,3.9,6,7,3.7,12.4c-0.8,1.8-1.3,2.8-3.5,2.7c-5.8-0.2-11.6-0.1-17.5,0c-14.4,0.2-28.2,3.4-40.9,10.2
		c-16.5,8.6-28.6,21-33.6,39.4c-0.7,2.5-0.5,5.1-1.9,7.3v2.2v63.9c0.2,0,0.5,0.1,0.7,0.1c1.2,3.5,4.1,3.5,6.9,3.5
		c82.2,0,164.4,0,246.7,0c6,0,7.5-1.6,7.5-7.4c0-18.3,0-36.6,0-54.9c0-5-0.5-9.9-1.9-14.7C255.3,249,239.8,235.6,219.2,227.3z
		 M250.5,337.9c-5.4-0.2-10.6-0.2-16,0c-2.3,0.1-2.9-0.6-2.9-2.9c0.1-14,0.1-28,0-41.9c0-3.5-2.1-5.7-5.1-5.5c-3.2,0.2-5,2-5.1,5.3
		c0,1,0,2,0,3c0,12.9-0.1,25.7,0.1,38.6c0,2.6-0.3,3.9-3.4,3.5c-3.5-0.5-8.2,1.5-10.2-0.8c-1.8-2-0.6-6.5-0.6-10
		c0-6.3-0.1-12.6,0-18.9c0-3.2-1.1-5.4-4.4-5.9c-1.8-0.2-1.8-1.1-1.8-2.5c0-21.5,0-43,0-64.6c0-1.3-0.2-2.5,1.9-2.1
		c21.3,4,42.3,18.3,48.5,39.7c1.1,4,1.7,7.9,1.6,12.1c0,7.8,0,15.6,0,23.4c0,8.9-0.1,17.9,0.1,26.7
		C253.4,337.3,252.8,338,250.5,337.9z M12.1,282.6c0.5-16.8,9.7-28.9,23-38.2c7.7-5.5,16.5-8.8,25.7-11c2.8-0.7,3.3,0.2,3.2,2.8
		c-0.1,10.5,0,21,0,31.5c0,10.5,0,21,0,31.5c0,1.8-0.1,2.9-2.3,3.2c-2.9,0.5-3.8,2.7-3.8,5.6c0.1,8.7-0.1,17.6,0.1,26.4
		c0.1,3.1-0.9,3.8-3.7,3.6c-2.6-0.2-5.2-0.2-7.7,0c-2.3,0.2-2.9-0.6-2.9-2.9c0.1-13.2,0.1-26.5,0-39.7c0-1.2,0-2.5-0.2-3.7
		c-0.4-2.8-2.4-4.1-5-4.1c-2.8,0.1-4.8,1.6-4.9,4.6c-0.2,3.6-0.1,7.1-0.1,10.8c0,10.6-0.1,21.3,0.1,31.9c0,2.4-0.5,3.2-3,3.1
		c-5.4-0.2-10.6-0.1-16,0c-2,0-2.8-0.3-2.8-2.6C12,317.8,11.6,300.2,12.1,282.6z M89,234.6c0-2.3,0.5-2.9,3-3.2
		c5.4-0.7,7.9,1.5,10.1,6.3c8,17.2,16.7,34.1,25,51.2c1.2,2.5,2.5,5,5.8,5c3.1-0.1,4.3-2.4,5.5-4.9c8.9-18.1,17.8-36.3,26.8-54.4
		c0.5-1.1,0.6-3,2.3-3c2.8-0.1,5.7-0.1,8.5,0.2c1,0.1,0.6,1.5,0.6,2.3c0,21.7,0,43.5,0.1,65.3c0,2.6-1,2.8-3.1,2.7
		c-13.6-0.1-27.2,0-40.8,0c-13.4,0-26.7-0.1-40.1,0.1c-2.6,0-3.7-0.3-3.6-3.3C89.1,277.5,89.1,256.1,89,234.6z M65.2,115.9
		c-0.2-2,0.5-3.8,2.6-4.5c1.3-0.4,2.7-0.5,4-0.5c40.7,0,81.3,0,122,0c0.8,0,1.5,0,2.2,0c2.8,0.3,4.3,2,4.3,4.7
		c0,2.8-1.7,4.3-4.5,4.3c-6.9,0-13.9,0-20.7,0c-14.2,0-28.4,0-42.6,0c-20,0-40.1,0-60,0c-1.2,0-2.5,0-3.7-0.2
		C66.3,119.4,65.4,117.9,65.2,115.9z M191.1,98.6c0.6,2.2-0.4,2.5-2.3,2.4c-8.9-0.1-17.8-0.1-26.7,0c-2,0-2.5-0.6-2.5-2.5
		c0.1-14.7,0-29.4,0-44.8c15.2,8.7,25,20.8,29.7,37C190.1,93.2,190.4,95.9,191.1,98.6z M149.6,52c-0.1,15.5-0.1,30.9,0,46.3
		c0,2.2-0.7,2.7-2.8,2.7c-9.4-0.1-18.7-0.1-28.2,0c-2.3,0-2.9-0.7-2.9-2.9c0.1-7.8,0-15.6,0-23.4c0-7.5,0.1-15.1-0.1-22.6
		c0-2.2,0.7-2.9,2.7-3.4c9.5-2.4,19-2.2,28.6,0C149,49.2,149.6,50,149.6,52z M96.8,59.5c2.6-2.1,5.3-4,8.8-5.7c0,15.4,0,30.1,0,45
		c0,1.6-0.5,2.2-2.1,2.1c-9-0.1-18-0.1-27.1,0c-4,0-2.1-2.8-1.9-4.1C77.3,81.7,84.7,69.2,96.8,59.5z M83.9,132.9
		c-0.1-2.7,0.9-3,3.2-2.9c15.4,0.1,30.6,0,46,0c15,0,29.9,0.1,44.8-0.1c3,0,3.6,0.9,3.6,3.7c-0.2,9.5,0,19-0.1,28.6
		c-0.5,27.5-23.6,49.2-51.1,47.9c-25.2-1.2-45.8-22.3-46.2-47.5C83.8,152.6,84.1,142.8,83.9,132.9z M155,232.5
		c-7.2,13.6-13.7,27.6-20.5,41.4c-0.5,1.1-1.1,2.2-1.9,3.6c-8.3-16.9-16.5-33.4-24.6-50c-0.6-1.3,1.1-10.2,2-11
		c0.7-0.7,1.4-0.1,2,0.1c13.8,4.9,27.6,5,41.3-0.1c1.8-0.6,2.1,0.1,2.6,1.4C157.7,222.8,157.8,227.3,155,232.5z M163.9,312.3
		c10.1,0,20.2,0.1,30.4-0.1c2.6,0,3.3,0.7,3.3,3.3c-0.2,6.2-0.2,12.6,0,18.9c0.1,2.7-0.5,3.5-3.4,3.5c-20.5-0.1-41.1-0.1-61.6-0.1
		c-20.4,0-40.8-0.1-61.2,0.1c-2.9,0-3.9-0.6-3.7-3.6c0.3-6,0.3-11.9,0-17.8c-0.2-3.3,0.7-4.4,4.2-4.4
		C102.6,312.3,133.3,312.3,163.9,312.3z M188.6,231.6c2.9,0,2.8,1.3,2.8,3.4c0,21.3,0,42.7,0,64.1c0,1.6,0.5,3.2-2.2,3.2
		c-2.6,0.1-2.8-1-2.8-3.1c0.1-10.9,0-21.7,0-32.6c0-10.5,0-21,0-31.5C186.5,233.7,185.4,231.6,188.6,231.6z M78.8,299.2
		c0,1.7,0.2,3.1-2.4,3c-2.5,0-2.5-1.2-2.5-3c0-10.7,0-21.5,0-32.2c0-10.8,0-21.5,0-32.2c0-1.9,0-3.2,2.6-3.2c2.8,0,2.2,1.6,2.2,3.1
		C78.8,256.2,78.8,277.7,78.8,299.2z"/>
	<path class="st0" d="M345.9,254c-2.2-1.3-2.9-2.7-2.9-5.2c0.1-31.5,0.1-63.1,0-94.6c0-2.5,0.5-3.8,3-5c22.9-11.3,34.9-29.9,35-55.2
		c0.1-25.5-11.9-44.3-34.9-55.6c-6-3-9.1-1-9.1,5.9c0,13.9-0.1,27.7,0,41.6c0,2.5-0.7,3.1-3.1,3.1c-9.2-0.1-18.5-0.2-27.9,0
		c-2.4,0-2.9-0.8-2.8-3c0.1-7,0.1-14.1,0.1-21.1c0-6.9,0-13.9,0-20.8c0-6.2-3.3-8.4-8.8-5.8c-23.1,11.2-35.3,29.8-35.4,55.3
		c0,25.5,12,44.2,34.9,55.7c2.4,1.2,3.1,2.5,3.1,5c-0.1,31.5-0.1,63.1,0,94.6c0,2.7-0.7,4.1-3.1,5.5c-20.9,12.4-29.8,38.2-21.4,60.9
		c8.4,22.7,32.2,36.5,55.9,32.3c20.4-3.6,37.3-19.8,41.2-39.8C373.8,286,364.6,265.1,345.9,254z M271.3,108.7
		c-6.8-22.4,2.4-47.6,21.9-58.3v40.8c0,6.2,1.4,7.6,7.5,7.6c13.1,0,26.2,0,39.3,0c5.3,0,6.8-1.6,6.8-6.8c0-13.7,0-27.4,0-41.2
		c13.9,4.3,26.1,28.6,24.2,48c-2.3,24-22,43.3-46.9,45.8C300.7,147.1,278.5,131.9,271.3,108.7z M333,245.5c0,2.5-0.7,2.9-3,2.3
		c-6.5-1.5-13.3-1.6-19.8,0c-2.9,0.7-3-0.4-3-2.7c0.1-14.7,0-29.4,0-44.1c0-14.8,0.1-29.5-0.1-44.1c0-2.7,0.5-3.2,3.3-2.7
		c6.4,1.3,13,1.3,19.5,0c2.3-0.5,3-0.3,3,2.3C332.9,186.2,332.9,215.8,333,245.5z M320,337.8c-22.3,0-40.5-18.2-40.4-40.7
		c0.1-22.2,18.1-40.3,40.3-40.3c22.2,0,40.6,18.1,40.7,40.1C360.7,319.5,342.4,337.9,320,337.8z"/>
	<path class="st0" d="M344.7,279.3c-7.1-4.1-14.3-8.2-21.5-12.3c-2.2-1.2-4.2-1.3-6.2,0c-7.1,4.2-14.3,8.2-21.4,12.4
		c-2.1,1.2-3.3,2.9-3.3,5.4c0,8.5,0,17.1,0,25.6c0,2.2,0.9,3.8,2.8,4.9c7.2,4.3,14.3,8.7,21.8,12.5c2.3,1.2,4.3,1.1,6.5-0.1
		c7.4-3.7,14.4-8.1,21.5-12.3c2.2-1.3,3.2-3.3,3.2-5.9c-0.1-4,0-7.9,0-11.9c0-4.1,0-8.1,0-12.2C348.2,282.5,347.1,280.6,344.7,279.3
		z M329.3,312.9c-6.6,4.1-11.4,4.4-18.3,0.2c-6.6-4-9.1-7.9-9.1-15.7c0-7.7,2.3-11.8,9-15.7c6.8-4,11.7-4,18.3,0.1
		c6.5,3.9,10.9,7.6,8.1,15.7C340.1,305.5,335.7,309,329.3,312.9z"/>
	<path class="st0" d="M325.2,181.5c0-4.3-1.7-6.2-5.2-6.1c-3.2,0-5,2.1-5,6c0,13.3,0,26.7,0,40c0,3.9,1.9,6,5,6
		c3.3,0,5.2-2.2,5.2-6.2c0-6.5,0-13.1,0-19.6C325.2,194.8,325.2,188.1,325.2,181.5z"/>
</g>
</svg>
