<?xml version="1.0" encoding="utf-8"?>
<!-- Generator: Adobe Illustrator 26.0.3, SVG Export Plug-In . SVG Version: 6.00 Build 0)  -->
<svg version="1.1" id="Calque_1" xmlns="http://www.w3.org/2000/svg" xmlns:xlink="http://www.w3.org/1999/xlink" x="0px" y="0px"
	 viewBox="0 0 384.4 384.1" style="enable-background:new 0 0 384.4 384.1;" xml:space="preserve">
<style type="text/css">
	.st0{fill:#0A9642;}
</style>
<g>
	<path class="st0" d="M347.6,233.7c-7.9-3.5-16.7-2.1-23,4.1c-10.3,10.1-20.4,20.4-30.6,30.5c-0.8,0.8-1.7,1.6-2.9,2.7
		c0-5.3,0-10.1,0-14.7c0-3.8-1.9-6.1-4.9-6.1c-3,0-4.9,2.3-5,6c0,7.4-0.1,14.6,0,22c0,2.2-0.8,3.6-2.1,5.2c-2.2,2.5-4.6,3.5-8,3.2
		c-3.5-0.3-7-0.1-10.5-0.1H250c0.1-0.7,0-1,0.1-1.1c6-10.9,0.9-24.7-10.5-29.3c-0.8-0.4-1.5-1.9-1.5-3c-0.1-7-0.3-14,0-20.9
		c0.3-7.9-1.3-15.1-6.3-21.5c-0.2-0.2,0-0.6,0-1c10.5,0,20.8-0.3,31.2,0.1c9.4,0.4,16.3,6.7,17.9,15.8c0.4,2.1,0.2,4.4,0.4,6.6
		c0.2,3.1,2.1,5.1,4.9,5c2.6,0,4.6-1.9,4.9-4.7c1.4-13.2-6.1-25.7-18.4-30.5c-1.5-0.6-3.1-1.1-5-1.7c7.2-8.1,10.2-17.2,8.2-27.7
		c-1.9-10.6-8.3-18-17.8-22.9c1-1.6,1.8-2.8,2.5-4.1c15-27,15.3-54.1,0.2-81c-3.3-6-8.3-11.1-12.8-16.5c-2-2.4-5-2.2-7-0.3
		c-2,1.9-2,4.6,0,7.1c0.6,0.8,1.4,1.4,2,2.1c22.7,23.8,25.3,61.4,6.1,88c-0.8,1.1-2.5,1.9-3.9,2c-10.4,0.3-18.7,4.4-25.2,12.5
		c-0.4,0.6-1,1.1-1.2,1.4c-3.7-3.4-7.2-6.8-10.7-10.2c0.6-1.8,1.2-3.8,1.8-5.8c0.6-1.9,1.3-3.9,2-6c3.2,0.7,6.2,1.4,9.2,2
		c5.8,1.2,10.3-0.7,13.4-5.8c1.8-2.9,3.4-5.9,5.1-8.8c3.1-5.5,2.5-10.3-1.8-15c-2-2.3-4.1-4.5-6.1-6.7c5.3-6.4,13.6-11.5,8.1-21.3
		c-2.8-5-4.6-10.8-9.8-14c-6-3.7-12.1,0.4-18.1,0.7c-3-7.4-2.9-17.3-14.2-17.4c-5.7,0-11.6-1.5-17.1,1.5c-6.3,3.4-5.7,10.6-8.5,16
		c-7.9-1.1-16.4-6.1-22.1,3.5c-2.9,4.9-7.1,9.4-7.3,15.5c-0.3,7.2,6.3,10.3,9.7,15.5c-1.8,2-3.9,3.9-5.5,6.1
		c-1.6,2.3-3.4,4.7-3.9,7.3c-0.4,2.5,0.2,5.6,1.5,7.8c2.8,4.8,4.5,10.6,9.6,13.8c6,3.8,12.1-0.4,18.2-0.7c1.3,4,2.5,8,3.7,11.5
		c-3.7,3.5-7.2,6.8-10.8,10.2c-6.3-8.8-14.9-13.8-26-13.8c-2.4,0-3.5-0.8-4.7-2.6c-10.6-15.8-14.4-33.2-11.3-52.1
		c4.9-30.5,32.3-55.2,63-57.3c12.6-0.9,24.5,1.2,36,6.5c1.8,0.8,4.5,1,6,0.2c3.7-1.8,2.9-6.6-1.3-8.7c-14-7-28.8-9.5-44.2-7.6
		c-58.2,7.3-89.1,71.8-58.1,121.8c0.5,0.8,0.9,1.7,1.4,2.5c-18.4,9.2-25.1,32.7-9.8,50.5c-0.2,0.2-0.4,0.4-0.5,0.4
		c-0.4,0.2-0.8,0.3-1.2,0.4c-11.9,3.7-19.1,11.6-20.8,23.9c-0.8,5.3-0.4,10.7-0.4,16c-0.1,4.6,0,9.1,0,13.7H76.8
		c-0.1-1.1-0.2-1.8-0.2-2.7c-0.1-6.4-1.3-7.6-7.7-7.6c-12.5,0-25.1,0.1-37.6-0.1c-3.1,0-5.3,0.7-6.9,3.3v112.7h47.8
		c5.4-1.8,4.2-6.6,4.6-10.9c1.5,0,2.7-0.1,3.9,0c22.7,1.1,45.3,2.3,68,3.4c3.5,0.2,7,0.4,10.5,0.6c3.3,0.2,5.6-1.6,5.9-4.4
		c0.4-2.8-1.6-4.9-4.9-5.3c-0.9-0.1-1.8-0.2-2.6-0.3c-12.3-0.8-24.6-1.5-36.9-2.3c-6.7-0.4-13.2-0.9-20.1-1.4v-3.8
		c0-20.4,0-40.9,0-61.3c0-4.2-1.1-9.2,0.6-12.5c1.9-3.6,6.6-5.9,10.2-8.5c15.4-11.2,36-12,52.1-1.8c5,3.2,9.3,7.3,14.1,10.6
		c1.6,1.1,3.7,1.9,5.6,2c11.8,0.2,23.5,0.1,35.4,0.1c4.5,0,8.9-0.1,13.4,0c6.1,0.2,10.7,4.6,10.9,10.3c0.3,6.1-3.9,10.8-10.1,11.6
		c-1.2,0.1-2.4,0.1-3.6,0.1c-17.3,0-34.7,0-52.1,0.1c-1.8,0-3.9,0.3-5.2,1.3c-2.7,2.1-5.2,4.7-7.4,7.4c-1.8,2.1-1.7,4.6,0.3,6.5
		c1.9,2,4.3,2,6.5,0.4c1.2-0.9,2.4-2,3.2-3.2c1.7-2.1,3.7-2.6,6.3-2.6c31.2,0.1,62.4,0,93.7,0.1c3.9,0,6.7-1.1,9.5-3.9
		c15.4-15.7,31-31.1,46.5-46.7c2.9-2.9,6-4.7,10.2-4.1c4.4,0.6,7.4,3.1,8.9,7.3c1.7,4.6,0.3,8.6-3.2,11.9
		c-17.9,17.9-35.5,35.8-53.6,53.4c-2.9,2.9-6.9,5-10.9,6.3c-12.6,4.3-25.4,8-38.1,11.9c-8.3,2.5-16.7,4.9-24.9,7.8
		c-11.4,3.9-22.9,6.2-35,4.6c-3.2-0.4-5.3,1.5-5.5,4.3c-0.3,2.8,1.5,5.2,4.5,5.4c9.2,0.8,18.3,1.3,27.3-1.5
		c25.6-7.8,51.1-15.6,76.5-23.7c4.4-1.4,8.8-4,12.2-7.3c18.6-18,36.8-36.5,55-54.8c3.8-3.8,5.9-8.4,6.1-13.7
		C360.2,245.1,355.4,237.2,347.6,233.7z M66.7,349.8H34.5v-95.6h32.2V349.8z M90.4,339.2H76.9v-74.6h13.5V339.2z M169.5,129.5
		c-2.7,0.6-5.3,1.5-8,1.7c-1.1,0.1-3-0.6-3.6-1.6c-6.1-9.4-6.1-9.5,1.4-17.7c6.5-7.1,6.5-7.4,0-14.4c-1.8-1.9-3.5-3.9-5.3-5.8
		c-1.6-1.5-1.5-2.8-0.5-4.6c5.3-9.6,5.3-9.6,15.9-7.3c9.4,2.1,9.7,1.8,12.5-7.1c0.8-2.5,1.7-5,2.3-7.5c0.5-2.1,1.7-2.8,3.8-2.7
		c3.6,0.2,8-1,10.5,0.7c2.4,1.6,2.6,6.1,3.8,9.4c0.2,0.6,0.4,1.2,0.6,1.8c2,6.4,3.4,7.3,10.1,5.8c3.2-0.7,6.4-1.3,9.5-2.2
		c2.1-0.6,3.2,0.1,4.2,1.8c5.7,9.5,5.7,9.5-1.7,17.5c-0.7,0.7-1.3,1.5-2,2.2c-3.7,4-3.7,6,0,10.1c2.4,2.5,4.6,5.3,7.1,7.7
		c1.6,1.6,1.9,3,0.7,4.9c-1.6,2.5-2.9,5.2-4.5,7.6c-0.5,0.8-1.5,1.3-1.9,1.8c-4.8-1.1-9-2-13.3-2.9c-3.9-0.9-6.3,0.4-7.5,4.3
		c-1.2,3.8-2.5,7.4-3.5,11.3c-0.5,2-1.7,2.7-3.8,2.8c-10.9,0.3-10.9,0.4-14.3-10.2C179.2,127.7,178.8,127.5,169.5,129.5z
		 M192.4,156.8c11.8,0.1,21.4,9.7,21.4,21.4c0,11.9-9.7,21.5-21.7,21.5c-11.8-0.1-21.4-9.7-21.4-21.4
		C170.6,166.3,180.4,156.6,192.4,156.8z M146.4,235.2c-15.9-1.6-30.2,2.1-43.3,12.2c0-3.7,0-6.7,0-9.8c0-3.9-0.3-7.7,0.3-11.5
		c1.1-9.2,8.3-15.9,17.7-16.4c10.4-0.4,20.9-0.1,32.4-0.1C146.9,217.3,145.6,225.8,146.4,235.2z M139.1,199.8
		c-11.8,0-21.4-9.6-21.4-21.4c-0.1-11.9,9.8-21.6,21.7-21.5c12,0.1,21.5,9.7,21.4,21.8C160.7,190.3,151.1,199.8,139.1,199.8z
		 M228.3,254.6c-13.2,0-25.9-0.2-38.7,0.1c-4.4,0.1-7.9-1-11.2-3.9c-6-5.5-12.9-10-20.7-12.7c-0.6-0.2-1.5-1.1-1.5-1.8
		c0-3.9-0.3-8,0.4-11.7c1.7-8.8,8.9-14.8,18.2-15c11.6-0.3,23.1-0.3,34.7,0c11,0.3,18.7,8.3,18.8,19.4
		C228.3,237.4,228.3,245.8,228.3,254.6z M223.6,178.5c-0.1-12.1,9.4-21.7,21.4-21.8c11.9-0.1,21.8,9.6,21.7,21.5
		c0,11.8-9.6,21.4-21.4,21.4C233.3,199.8,223.7,190.3,223.6,178.5z"/>
	<path class="st0" d="M192.3,89.1c-8.4-0.1-15.4,6.7-15.7,15.2c-0.2,8.5,6.9,15.8,15.4,15.8c8.5,0.1,15.7-7.1,15.7-15.6
		C207.7,96.2,200.8,89.2,192.3,89.1z M192.1,110.3c-3,0-5.6-2.6-5.6-5.6c0-3.2,2.7-5.8,5.9-5.7c3.1,0.1,5.5,2.7,5.4,5.8
		C197.8,107.8,195.1,110.4,192.1,110.3z"/>
	<path class="st0" d="M55.8,270.4c-0.1,2.8-2.6,5.2-5.4,5.1c-2.9-0.1-5.1-2.5-5.1-5.3c0-3.1,2.4-5.3,5.5-5.2
		C53.7,265.1,55.9,267.5,55.8,270.4z"/>
	<path class="st0" d="M55.8,291.3c0.1,3-2.5,5.4-5.4,5.3c-2.9-0.1-5.1-2.4-5.1-5.3c0-2.9,2.4-5.2,5.3-5.2
		C53.4,286.1,55.8,288.5,55.8,291.3z"/>
</g>
</svg>
