<?xml version="1.0" encoding="utf-8"?>
<!-- Generator: Adobe Illustrator 26.0.3, SVG Export Plug-In . SVG Version: 6.00 Build 0)  -->
<svg version="1.1" id="Calque_1" xmlns="http://www.w3.org/2000/svg" xmlns:xlink="http://www.w3.org/1999/xlink" x="0px" y="0px"
	 viewBox="0 0 384.7 384.1" style="enable-background:new 0 0 384.7 384.1;" xml:space="preserve">
<style type="text/css">
	.st0{fill:#0A9642;}
</style>
<g>
	<path class="st0" d="M228.3,331c0-4.6-2.3-6.8-7-6.9c-3.6-0.1-7.1,0-11,0v-50.9c0-2.6,0.1-5.2-0.1-7.8c-0.2-3.6-2.6-5.9-6-5.8
		c-3.3,0-5.7,2.4-5.9,6c-0.1,1,0,2,0,3v55.4H42.8V204.3h21.7c9.1,0,18.2,0.1,27.3,0c4.8,0,7.7-3.7,6.3-7.9c-1.1-3.2-3.6-4.1-6.8-4.1
		c-17.3,0-34.7,0-52,0c-6.9,0-8.6,1.7-8.6,8.6v123.1c-3.9,0-7.2,0-10.6,0c-5.2,0-7.3,2.1-7.4,7.2c0,3.7-0.1,7.5,0,11.2
		c0.3,14.4,10.4,26.3,24.5,28.9c2,0.4,4,0.6,5.9,0.6c51.5,0,103,0,154.5,0c15.8,0,28.1-10.5,30.2-26.1
		C228.6,341,228.3,336,228.3,331z M186.5,359.7c-0.6-4.7,1.5-11.4-6.7-11.5c-4-0.1-5.2,2.6-5.6,11.5H66.7
		c-0.6-4.6,1.5-11.7-6.5-11.4c-7.1,0.3-5.3,6.8-5.7,11.7c-4.8,0-9.1,0.3-13.5,0c-8.8-0.6-15.8-8-16.3-16.7c-0.1-2.2,0-4.5,0-6.9
		h191.2C218.1,349.5,212.2,363.3,186.5,359.7z"/>
	<path class="st0" d="M245.9,222.8c-1.9-3.4-3.8-6.7-5.8-10c-7.5-13-14.9-25.9-22.4-38.8c-2.2-3.8-4.7-5-7.9-3.9
		c-3.8,1.3-5,5.4-2.6,9.6c7.9,13.7,15.8,27.4,23.7,41.1c0.7,1.1,1.3,2.3,2,3.7c-14.5,5.4-28.7,10.5-42.7,16
		c-27.1,10.6-55.4,18.3-79.9,34.8c-0.2,0.1-0.4,0.2-0.7,0.3c-5.8,2.7-12,1.1-15.4-4.3c-4.2-6.9-8.3-13.9-12.2-21
		c-2.8-5.1-1.7-11.6,3.1-14.8c7-4.7,14.5-8.7,22-13.1c4.8,8.2,9.3,16.1,13.9,23.9c2.7,4.6,5.9,6.1,9.3,4.2c3.4-1.9,3.9-5.4,1.2-10.1
		c-2.9-5-5.8-9.9-8.6-14.9c-1.9-3.3-3.8-6.6-5.7-10c25.1-20.7,49.9-41.2,75-61.9c1,1.6,1.6,2.7,2.3,3.7c2.2,3.5,5.6,4.4,8.6,2.5
		c2.9-1.8,3.6-5.1,1.8-8.5c-1.5-2.9-3.2-5.6-4.9-8.4c-3.1-5.3-6.5-5.8-11.3-1.9c-13.2,10.9-26.3,21.8-39.5,32.6
		c-22.1,18-42.9,37.8-68.9,50.4c-0.5,0.3-1,0.7-1.5,1c-7.1,5.4-10.7,12.7-9.6,21.5c0.5,3.8-0.5,5.5-3.7,6.8
		c-0.7,0.3-1.3,0.7-1.9,1.1c-8.4,5.4-11.2,15.7-6.4,24.2c4.8,8.4,15.1,11.5,24,7.1c2.2-1.1,4.4-2.4,6.6-3.6
		c4.8,4.3,10.2,7.6,16.6,6.7c6-0.8,11.8-3.1,18.1-4.8c3.5,6,7.3,12.8,11.3,19.5c4.8,8,14,11.1,22.3,7.7c9.9-4,14-15.6,8.8-25.3
		c-3.5-6.4-7.2-12.7-10.9-19.2c5-1.9,9.7-3.7,14.3-5.4c24.6-9.2,49.2-18.5,73.8-27.7C247.8,231.4,249,228.2,245.9,222.8z
		 M67.4,272.8c-2.3-4-0.4-7,7.5-11c1.9,3.2,3.8,6.5,5.8,10C73.7,276.5,69.8,276.7,67.4,272.8z M154.5,292.1c1.6,2.9,0.3,6.3-2.3,7.8
		c-2.8,1.5-6.1,0.9-7.9-1.9c-4.1-6.8-8-13.7-12.2-20.9c3.4-2,6.6-3.8,10.3-5.9C146.6,278.3,150.7,285.1,154.5,292.1z"/>
	<path class="st0" d="M372,101.6c0,11.2-7.6,18.8-18.8,18.9c-23.4,0-46.9,0-70.3,0c-11,0-18.6-7.7-18.7-18.6
		c-0.1-11.2,0-22.5,0-33.7c0-4.8,2.1-7.5,5.9-7.6c3.8-0.1,6.1,2.7,6.1,7.7c0,10.9,0,21.7,0,32.5c0,5.6,2.1,7.6,7.7,7.6
		c22.8,0,45.6,0,68.5,0c5.6,0,7.6-2.1,7.6-7.7c0-22.8,0-45.6,0-68.5c0-5.6-2-7.6-7.7-7.6c-22.8,0-45.6,0-68.5,0
		c-5.6,0-7.6,2-7.7,7.7c0,3.2,0.1,6.5,0,9.7c-0.1,4-2.7,6.6-6.2,6.5c-3.4-0.1-5.7-2.6-5.8-6.5c-0.1-3.9-0.1-7.7,0-11.6
		c0.2-10,7.9-17.7,18-17.8c12-0.1,24,0,35.9,0c11.6,0,23.2,0,34.8,0c11.5,0,19,7.5,19.1,18.9C372,55,372,78.3,372,101.6z"/>
	<path class="st0" d="M371.9,289.2c-0.4,9.1-7.9,16.7-16.9,16.8c-24.6,0.2-49.1,0.2-73.7,0c-9.5-0.1-17-8.1-17-17.9
		c-0.1-12,0-24,0-35.9c0-11.6,0-23.2,0-34.8c0-11.6,7.5-19.1,19.3-19.1c23.1,0,46.1,0,69.2,0c11.7,0,19.2,7.4,19.3,19.1
		c0,11.1,0,22.2,0,33.3c0,4.7-2.3,7.5-6,7.5c-3.7,0-6-2.8-6-7.5c0-11,0-22,0-32.9c0-5.4-2.1-7.5-7.5-7.5c-23,0-45.9,0-68.8,0
		c-5.4,0-7.5,2.1-7.5,7.5c0,23,0,45.9,0,68.9c0,5.4,2.1,7.5,7.4,7.5c22.9,0,45.9,0,68.8,0c5.4,0,7.5-2.1,7.5-7.4
		c0-3.4-0.1-6.7,0-10.1c0.1-3.8,2.5-6.4,5.9-6.4c3.4,0,5.9,2.5,6,6.3C372.1,280.8,372.1,285,371.9,289.2z"/>
	<path class="st0" d="M88.7,66.6c-22.7,0-45.4,0-68.1,0c-5.9,0-7.9,2-7.9,7.8c0,30.7,0,61.4,0,92.1c0,5.9,2,7.9,7.9,7.9
		c22.7,0,45.4,0,68.1,0c5.9,0,7.9-2,7.9-7.9c0-15.2,0-30.4,0-45.7c0-15.5,0-30.9,0-46.4C96.5,68.6,94.5,66.6,88.7,66.6z M84.4,162.2
		H25V78.9h59.4V162.2z"/>
	<path class="st0" d="M162.7,6.8c-29.8-0.2-54,23.9-54.2,53.8c-0.1,29.4,23.9,53.8,53.2,54c29.9,0.2,54.4-23.8,54.5-53.4
		C216.4,31.2,192.5,6.9,162.7,6.8z M162.2,102.5c-22.8,0-41.7-18.9-41.7-41.7c0-23.3,18.7-42.1,42-42.1c23,0,41.8,18.8,41.9,41.9
		C204.3,83.8,185.5,102.6,162.2,102.5z"/>
	<path class="st0" d="M317.9,228.3c-13.2,0.1-23.8,11-23.7,24.2c0.1,13,10.9,23.7,24,23.7c13.2,0,24-10.8,23.9-24.1
		C342,238.9,331.1,228.2,317.9,228.3z M318.3,264.2c-6.7,0.1-12.2-5.3-12.2-12c0-6.5,5.4-11.9,11.9-11.9c6.5,0,11.9,5.4,12,11.8
		C330.1,258.7,324.8,264.1,318.3,264.2z"/>
	<path class="st0" d="M342,42.8c-0.1,3.5-2.7,5.8-6.8,5.9c-3,0.1-6,0-9,0c-6.3,0-8.1,1.9-8.1,8.3v3.5c9.3,0.5,11.8,1.8,11.9,6
		c0.1,4.3-2.5,5.7-11.9,6.3c0,5.6,0,11.3,0,17c0,3.4-1.5,5.8-4.9,6.6c-3.7,0.9-7-2-7.1-6.2c-0.1-5.7,0-11.4,0-17.3
		c-4.9-0.7-11.9,1.4-11.8-6.4c0.1-7.5,6.8-5.4,11.8-6c0-2.3-0.1-4.4,0-6.5c0.4-9.4,7.9-17,17.3-17.3c4-0.1,8-0.1,12,0
		C339.5,36.8,342.1,39.2,342,42.8z"/>
	<path class="st0" d="M288.2,180.6c-9.3,1.9-18.5,3.8-27.8,5.7c-0.7,0.1-1.5,0.1-1.8,0.2c-4,0-6.6-2.2-6.9-5.4
		c-0.4-3.1,1.8-5.8,5.4-6.5c9.6-2,19.3-3.9,28.9-5.8c4.3-0.8,7.4,0.9,8.2,4.5C294.9,176.8,292.8,179.6,288.2,180.6z"/>
	<path class="st0" d="M244.6,112.7c-5.7,7.7-11.4,15.3-17.2,23c-1.8,2.4-4.4,3.8-7.1,2.2c-1.9-1.1-3.2-3.3-4.6-4.9
		c1-2.2,1.5-3.5,2.2-4.5c5.7-7.7,11.4-15.4,17.2-23c2.5-3.3,5.9-3.9,8.8-1.7C246.7,105.9,247.1,109.3,244.6,112.7z"/>
	<path class="st0" d="M267.5,143.5c-7.7,5.9-15.5,11.7-23.3,17.4c-3.3,2.4-6.8,1.9-8.9-1c-2-2.8-1.4-6.1,1.7-8.5
		c5-3.9,10.1-7.6,15.2-11.4c2.6-1.9,5.1-3.9,7.8-5.8c1.2-0.8,2.6-1.3,4.8-2.4c1.6,1.6,3.8,2.9,4.8,4.8
		C271.1,139.2,269.8,141.7,267.5,143.5z"/>
	<path class="st0" d="M72.6,120.4c0.1,3.5-2.5,6-6.6,6.1c-3.9,0.1-7.7,0-11.6,0c-3.7,0-7.5,0.1-11.2,0c-3.9-0.1-6.4-2.5-6.5-5.8
		c-0.1-3.5,2.5-6,6.6-6.1c7.6-0.1,15.2-0.1,22.8,0C69.9,114.6,72.5,117,72.6,120.4z"/>
	<path class="st0" d="M72.6,144.5c0,3.5-2.6,5.8-6.8,5.9c-3.7,0.1-7.5,0-11.2,0c-3.7,0-7.5,0.1-11.2,0c-4.1-0.1-6.7-2.5-6.6-6
		c0-3.5,2.6-5.9,6.8-5.9c7.5-0.1,15-0.1,22.5,0C70,138.5,72.6,141,72.6,144.5z"/>
	<path class="st0" d="M72.6,96.4c0.1,3.2-2.3,5.8-5.8,6.1c-1.5,0.1-2.9,0.1-4.4,0c-0.6,0-1.3,0-1.9,0c-1.2,0-2.4,0-3.7,0
		c-0.8,0-1.6,0-2.3-0.1c-3.3-0.2-5.6-2.7-5.7-5.8c-0.1-3.3,2.3-5.9,5.8-6.1c4.1-0.2,8.2-0.2,12.3,0C70.2,90.8,72.5,93.3,72.6,96.4z"
		/>
	<path class="st0" d="M192.1,60.6c-0.5-2.1-2.2-4.6-4.1-5.6c-11.2-5.9-22.6-11.5-34-17.1c-5.4-2.6-9.5-0.1-9.6,5.9
		c-0.1,5.6,0,11.2,0,16.8c0,5.7-0.1,11.5,0,17.2c0.1,5.7,4.2,8.3,9.4,5.8c11.4-5.6,22.7-11.3,34.1-17
		C190.5,65.3,192.8,63.4,192.1,60.6z M156.5,68.9V52.4c5.4,2.7,10.5,5.3,16.4,8.2C167.2,63.5,162.1,66,156.5,68.9z"/>
</g>
</svg>
