<?xml version="1.0" encoding="utf-8"?>
<!-- Generator: Adobe Illustrator 26.0.3, SVG Export Plug-In . SVG Version: 6.00 Build 0)  -->
<svg version="1.1" id="Calque_1" xmlns="http://www.w3.org/2000/svg" xmlns:xlink="http://www.w3.org/1999/xlink" x="0px" y="0px"
	 viewBox="0 0 396 398" style="enable-background:new 0 0 396 398;" xml:space="preserve">
<style type="text/css">
	.st0{fill:#9CBC73;}
	.st1{fill:#BDCFDF;}
	.st2{fill:#64B4F5;}
	.st3{fill:#C5D5E4;}
	.st4{fill:#FEE545;}
	.st5{fill:#A1C877;}
	.st6{fill:#FEB838;}
	.st7{fill:#ADC1D3;}
	.st8{fill:#F4D50C;}
	.st9{fill:#DBE9F6;}
	.st10{fill:#284EB7;}
	.st11{fill:#365DC9;}
	.st12{fill:#5EAEE5;}
	.st13{fill:#F7DA22;}
	.st14{fill:#72AEFD;}
	.st15{fill:#FEEA69;}
	.st16{fill:#FBE135;}
	.st17{fill:#E7F3FE;}
	.st18{fill:#FEDF4C;}
	.st19{fill:#FED262;}
	.st20{fill:#EEC65A;}
</style>
<g>
	<path class="st0" d="M389.9,110.7v4.5c-3.2,5.3-6.3,10.7-9.5,16c-2.6,4.4-5.1,5.4-10,3.7c-4-1.4-8-2.7-11.9-4.2
		c-1.6-0.6-2.7-0.5-4,0.7c-4.9,4.1-10.2,7.6-16.2,9.8c-2.3,0.8-2.5,2.6-2.9,4.3c-0.9,4.2-1.6,8.5-2.4,12.8c-0.8,4.4-3.2,6.3-7.8,6.4
		c-4.9,0-9.7,0-14.6,0c-7.6,0-9.7-2.1-9.9-9.7c0.2-0.2,0.4-0.5,0.6-0.7c1.4-1.4,3.3-2,5-3c19.3-12.5,31.3-29.9,35.5-52.5
		c0.3-1.4,0.6-2.9,0.7-4.3c0.1-0.7,0.1-1.4,0-2.1c0-0.3,0-0.7-0.1-1c0-3.5-0.1-7,0-10.5c0-0.4,0-0.7,0-1.1c0-0.9,0-1.8-0.1-2.7
		c0,0,0,0,0,0c-0.5-8-2.9-15.5-6.2-22.8c-7-15.9-18.3-28-33.5-36.4c-1-0.5-2-1-2.7-1.8c-0.3-0.3-0.5-0.6-0.7-1
		c-0.4-3.6,1.8-5.7,4.4-7.5h23.2c3.2,0.7,4.6,3,5.3,6.1c0.8,3.8,1.5,7.6,2.1,11.4c0.3,2.3,1.4,3.9,3.7,4.7c5.3,1.8,9.9,4.7,14.3,8
		c1.9,1.4,3.8,1.6,5.9,0.7c3.7-1.6,7.5-2.7,11.3-4c4.5-1.6,7.7-0.6,10.3,3.4c3.1,4.7,5.8,9.6,8.4,14.5c2.4,4.5,1.4,8.7-2.4,12.1
		c-2.8,2.5-5.7,4.8-8.5,7.3c-1.4,1.3-2,2.7-1.7,4.6c0.9,5.7,1.3,11.4,0.2,17.1c-0.4,2,0.4,3.6,2,4.9c2.8,2.3,5.4,4.8,8.2,7.1
		C387.9,106.7,389.3,108.4,389.9,110.7z"/>
	<path class="st1" d="M178.7,79.4c-1.7,11-8.1,18.8-17.5,24.3c-5.8,3.4-11.9,5.8-18.4,7.1c-3.3,0.7-4.4,2.4-4.4,5.7
		c0.1,15.1,0.1,30.1,0,45.2c0,1.5,0.5,3.3-0.7,4.5c-0.3,0.2-0.6,0.5-1,0.7c0-17.2-0.2-34.4,0-51.5c0-3.5-1.2-4.5-4.3-5.4
		c-14.7-3.8-26-11.6-29.9-27.1c-2.6-10.6-1.5-21.2,1.6-31.6c4-13.3,10.6-25.2,20.1-35.3c2.9-3.1,6.2-5.6,9.4-8.4h0.8
		c1.4,1.6,1.1,3.5,1.1,5.3c0,13.3,0,26.6,0,39.9c0,8.5,3.5,11.9,12.1,12c6,0.1,12-0.1,17.9,0c4.7,0.1,8.6-1.1,11.2-5.3
		c0.4-0.6,0.9-1.2,1.8-1.3c0,0,0.1,0,0.1,0.1c0,0,0,0,0,0c1.4,1.2,1.1,2.9,1.1,4.4C179.9,68.3,179.5,73.9,178.7,79.4z"/>
	<path class="st2" d="M67.7,196.6c-0.2,0.3-0.5,0.6-0.9,0.7c-0.2,0.1-0.4,0.2-0.7,0.2c-5.7,0.4-11.4,0.3-16.3,0.1
		c4.5,2.5,6.9,7.1,6.6,12.9c-0.3,5.7-3,9.7-7.5,12.2c-0.5,0.3-1,0.6-1.6,0.8c-0.5,0.2-1.1,0.5-1.6,0.7c-0.9,0.2-1.8,0.2-2.7,0
		c-1.1-0.3-2.1-0.4-3.2-0.4c-0.1,0-0.3,0-0.4,0c-1.4,0-2.8,0-4.2,0.1c-4.1,0.1-8.1,0-12.1-0.3c-0.3,0-0.5,0-0.8-0.1
		c-0.1,0-0.2,0-0.4,0c-1.9-0.2-3.7-0.4-5.6-0.6c-5.6-0.6-7.8-5-10.3-9v-7.5c3.4-7.9,9.5-11.2,18-10.4c1.5,0.1,3-0.1,4.4-0.1
		c0.2-0.2,0.4-0.3,0.6-0.4c0.9-0.5,1.8-0.6,2.8-0.7c6.9-0.1,13.9-0.1,20.8,0c1,0,2,0.1,2.9,0.6c0.2,0.1,0.4,0.2,0.6,0.4v0h0
		C60.1,196.5,64,195.2,67.7,196.6z"/>
	<path class="st1" d="M71.3,7.4c0,7,0,13.9-0.1,20.9c-0.3,0.3-0.7,0.6-1,0.7c-1,0.5-2.1,0.5-3.1,0.5c-8.3,0-16.6,0.1-25-0.1h0
		c-0.2,0-0.5,0-0.7,0c-7.9,0.2-15.7,0-23.6,0c-1.1,0-2.2-0.1-3.2-0.5c-0.4-0.2-0.7-0.4-1-0.7c0-6.7,0-13.4,0-20.1c0.1,0,0.3,0,0.4,0
		h0c7.4-0.8,14.8-0.1,22.2-0.3c3-0.1,5.9,0.5,8.8-0.4H71.3z"/>
	<path class="st3" d="M45.1,7.4c-1.1,1.2-2.5,0.7-3.9,0.7c-9,0-18.1,0-27.1,0h-0.4c0-0.3,0-0.5-0.1-0.8H45.1z"/>
	<path class="st4" d="M343.5,363.6c-2.4,1.7-5.2,2.3-8.1,2.5c-9.8,0.6-19.6,1.5-29.1,4.4c-6.6,2.1-12.8,4.8-18.9,8
		c-7.3,3.8-14.9,7-22.8,9.3c-2.8,0.8-5.5,1.3-8.3,1.6c-2.9,0.4-5.7,0.6-8.6,0.9c-0.8,0-1.6,0-2.4,0c-1.5-0.5-2.9-0.4-4.4,0
		c-18-0.1-35.9,0.9-53.9-0.6c-12.9-1.1-24.9-5-36.2-11.1c-15.1-8.1-30.9-13.1-48.2-13.1c-6.4,0-11.8-2.2-15.2-7.8
		c-6.2-10.1,0.8-22.5,13.2-23.5c0.3-0.2,0.5-0.3,0.8-0.4c0,0,0.1,0,0.1,0c0.2-0.1,0.3-0.1,0.5-0.2h0c1.8-0.5,3.7-0.1,5.6-0.3
		c6.5,0,13,0,19.5,0h0.7c10.1-0.2,20.2-0.2,30.3,0h0.5c5.5,0.1,11,0,16.5,0c10.4,0,20.8,0,31.1,0h0.3c0.1,0,0.2,0,0.3,0
		c7.1,0,14.3,0.2,21.4-0.1c0.1,0,0.2-0.1,0.4-0.1s0.3,0,0.4,0c0.2,0,0.4,0,0.6,0c10.1,0.4,20.2,0.4,30.3,0h0.2c0.1,0,0.2,0,0.3,0
		c0.3,0,0.6,0,0.9,0.1c15.5,0.4,31,0.1,46.4,0.2h2.1c8.1,0,16.1,0,24.2,0h0.3c0.1,0,0.2,0,0.4,0c0.2,0,0.4,0,0.6,0
		c0.6,0,1.2,0,1.8,0.1c0.4,0,0.7,0.1,1.1,0.2c0.4,0.1,0.8,0.2,1.2,0.4c0.1,0,0.2,0.1,0.4,0.1c0.2,0.1,0.4,0.2,0.6,0.2c0,0,0,0,0.1,0
		c6.1,2.4,10,6.9,10.9,13.5C351.8,354.5,348.9,359.7,343.5,363.6z"/>
	<path class="st5" d="M290.6,77.9c-4.2,13.4,3.2,28.4,16.4,33.1c13.3,4.8,27.9-1.6,33.5-14.8c0.6-1.4,0.6-3.2,1.9-4.1
		c0.2-0.2,0.5-0.3,0.9-0.4c-0.4,11.9-4.3,22.9-10.2,33c-6.8,11.6-16.1,21-27.8,27.9c-1.3,0.8-2.6,1.6-4,2c-0.2,0-0.5,0.1-0.7,0.1
		c-0.7-3.2-1.5-6.5-2.1-9.8c-0.3-1.7-0.8-2.6-2.5-3.2c-6-2.1-11.7-5.1-16.6-9.2c-1.4-1.2-2.8-1.2-4.5-0.6c-4.3,1.6-8.7,3.2-13,4.6
		c-3.9,1.3-6.6,0.5-8.7-2.9c-3.2-5.2-6.2-10.5-9.1-15.9c-1.8-3.3-1-6.2,1.8-8.7c0.5-0.4,1-0.8,1.4-1.2c3.3-2.8,7.5-5.1,9.7-8.7
		c2.2-3.5-0.5-8.1-0.4-12.2c0.1-3.2,0.3-6.5,0.7-9.7c0.3-1.8-0.3-2.8-1.5-3.8c-3.5-3-7-6-10.5-9c-3.6-3.1-4-5.7-1.7-9.9
		c2.7-4.8,5.5-9.5,8.2-14.2c2.5-4.2,4.9-5.1,9.7-3.5c4,1.3,8,2.7,12,4.2c1.5,0.6,2.7,0.6,4.1-0.5c4.9-4.3,10.5-7.7,16.6-10
		c1.9-0.7,2.2-2.1,2.6-3.7c0.8-4,1.6-8,2.4-12.1c0.3,0.1,0.5,0.3,0.8,0.4c18.8,9.4,31.8,24.1,39.2,43.8c2.5,6.7,4.5,13.7,4.2,21
		c-0.4,0-0.8-0.2-1-0.4c-0.8-0.6-0.8-1.8-1.1-2.7c-3.9-10.9-14.2-17.9-26-17.7C304.4,59.5,294,67.4,290.6,77.9z"/>
	<path class="st6" d="M308.7,207.1c-0.1,6.1,0.1,12.1-0.1,18.2v1.5c-0.1,33.6,0,67.3,0,100.9c0,1.3,0.2,2.7-0.1,4.1
		c-0.1,0.5-0.3,1-0.5,1.4c-0.1,0.1-0.1,0.2-0.2,0.3c-0.1,0-0.1,0.1-0.2,0.1c-0.1,0-0.2,0.1-0.2,0.1c-0.9,0.3-1.9,0.1-2.9,0.1
		c-13.6,0-27.2,0-40.8,0c-1.1,0-2.2,0.3-3.3-0.3l-0.1-0.1c-0.1-0.2-0.3-0.4-0.4-0.5c-1.8-2.8-1.5-6-1.5-9.1c0-28.9,0-57.8,0-86.7
		c0-19.2,0-38.4,0-57.5c0-1.7-0.3-3.5,0.5-5c0.2-0.4,0.4-0.7,0.7-1c0.2,0.3,0.4,0.6,0.5,1c0.7,7.3,0.7,7.3,7.5,9.2
		c13.4,3.7,25.6,9.6,37,17.4c1.1,0.8,2.3,1.4,3.5,2.1c0.1,0.1,0.2,0.2,0.3,0.4C309,204.7,308.7,205.9,308.7,207.1z"/>
	<path class="st6" d="M206.6,333.3c0,0.1-0.1,0.1-0.1,0.2c-0.1,0-0.1,0.1-0.2,0.1c0,0,0,0,0,0c-1.8,0.8-3.8,0.3-5.6,0.3
		c-8.6,0.1-17.1,0-25.7,0h-0.1c-0.1,0-0.2,0-0.3,0c-5.4-0.2-10.8,0.4-16.2-0.3h0l-0.2,0c-0.1-0.1-0.2-0.2-0.3-0.4
		c-0.8-1.3-0.8-2.8-0.8-4.3c0-40.4,0-80.8,0-121.1c0-1,0-2,0.2-3c0.1-0.6,0.2-1.3,0.7-1.7c0,0,0,0,0,0c0,0,0.1-0.1,0.1-0.1
		c5-4.5,10.5-8.3,17.1-10.2c0.1,0,0.2-0.1,0.3-0.1c8.2-3.9,16.6-7.4,25.5-9.6c1.2-0.3,2.4-0.5,3.7-0.7c0.5-0.2,0.9-0.2,1.3-0.1
		c0.8,0.2,1,1.2,1.2,2c0.4,1.3,0.3,2.7,0.3,4.1c0,46.4,0,92.9,0,139.3C207.5,329.6,207.7,331.6,206.6,333.3z"/>
	<path class="st7" d="M202.6,97.8c-6.3,6.9-14.3,10.6-23.2,12.6c-3.1,0.7-4,1.8-3.9,4.9c0.1,25.8,0.1,51.6,0.1,77.3
		c-0.1,0-0.2,0.1-0.3,0.1c-5.8,3.2-11.5,6.7-17,10.5c-0.1-0.1-0.2-0.1-0.3-0.2c-5-3.3-5-3.2-10.1,0.9c-2.7,2.2-5.1,4.6-7.6,7
		c-0.9,0.9-1.6,2.1-3,2.2c-0.2,0-0.4,0-0.6-0.1c0-15.5,0-30.9,0-46.3c1.1-1.2,0.6-2.6,0.7-3.9c0-15.9,0.1-31.8-0.1-47.8
		c0-0.9,0.1-1.6,0.2-2.3c0.5-1.7,1.7-2.4,3.9-2.9c9.5-2,18.4-5.4,25.8-11.9c5.8-5.1,9.6-11.4,10.6-19c0.9-6.9,1-13.8,0.7-20.8v0
		c0-16.6,0-33.1,0.1-49.7V8.2c6.4,2.8,10.7,8,14.8,13.2c9.9,12.5,16.1,26.7,17.9,42.4C212.7,76,211.5,88,202.6,97.8z"/>
	<path class="st8" d="M260.2,333.5c-0.9,0.5-1.8,0.8-2.8,0.8c-8.6,0-17.2,0-25.7,0c-1,0-1.9-0.5-2.8-0.7c-0.2-0.2-0.3-0.3-0.4-0.5
		c-1.3-1.9-0.8-4.2-0.8-6.3c0-47.9,0-95.9,0-143.9c0-1.4-0.1-2.8,0-4.1c0.3-3.5-1.3-5.6-4.6-6.7c-1.2-0.4-2.3-0.9-3.3-1.7
		c-0.4-0.3-0.6-0.6-0.6-0.8c-0.1-0.4,0.1-0.8,0.8-1.2c13.9-3.1,27.2-2,39.8,5.2v7.1c0,48.7,0,97.5,0,146.2c0,2,0.4,4.1,0.6,6.1
		C260.1,333.2,260.1,333.3,260.2,333.5z"/>
	<path class="st9" d="M71.3,63.8c0,2.1-0.9,3.8-1.9,5.6c-3.9,6.6-7.8,13.3-11.8,19.9c-1,1.6-1.4,3.4-1.4,5.3c0,33.7,0,67.5,0,101.2
		v0h-0.4c-9,0-18,0-27,0h-0.4c-0.9-35.1-0.7-70.3-0.7-105.4c0.1-0.3,0.2-0.7,0.2-1c1-3.8,3.4-7,5.6-10.2c5.8-8.3,8.4-17.1,7.5-27.3
		C40.5,45.7,41,39.4,41,33c0-1.2-0.1-2.4,0.4-3.5c0.1-0.4,0.4-0.8,0.7-1.1c9.4,0,18.8-0.1,28.1-0.1h1C71.2,40.2,71.2,52,71.3,63.8z"
		/>
	<path class="st8" d="M158.5,334.1c-0.1,0.1-0.2,0.2-0.3,0.2h-30.6c-0.2-0.2-0.4-0.4-0.5-0.7c0,0,0,0,0,0c-0.1-0.1-0.1-0.2-0.2-0.3
		c0-0.1-0.1-0.1-0.1-0.2c-0.6-1.7-0.4-3.4-0.5-5.2c0-32.1,0-64.2,0-96.3c0-1.6,0.1-3.2,0.4-4.7c0.2-0.9,0.4-1.7,0.8-2.6
		c2.5-4.1,6.1-7.4,9.1-11.2c0.3-0.3,0.6-0.5,0.8-0.8c3.8-3.5,7.6-7,11.5-10.4c3.8-3.3,6.2-3,9.1,1.1c0.1,0.1,0.1,0.2,0.2,0.3
		c0,43.3,0,86.6,0,129.9v0.3c0,0,0,0,0,0C158.6,333.8,158.6,334,158.5,334.1z"/>
	<path class="st8" d="M365.6,331.8c0,0.7-0.1,1.2-0.4,1.7c-0.2,0.3-0.4,0.5-0.7,0.7c-0.1,0-0.1,0.1-0.2,0.1
		c-0.4,0.2-0.9,0.3-1.5,0.3c-7.6,0-15.1,0.5-22.7-0.2c0,0-0.1,0-0.1,0c-0.3,0-0.6,0-0.9-0.1c-0.8-0.1-1.7-0.2-2.5-0.3
		c-0.8-0.1-1.3-0.3-1.7-0.7c-0.3-0.2-0.5-0.5-0.6-0.9c-0.2-0.7-0.2-1.5-0.2-2.3c-0.1-6.3,0-12.7-0.1-19c0-3.6,0.3-7.2-0.2-10.8
		c0-0.1,0-0.1,0-0.2c-0.6-7.3-1.3-14.7-2.8-21.9c-3.6-18.2-11-34.7-21.6-49.9c-0.2-0.2-0.3-0.4-0.5-0.6c-0.2-0.2-0.4-0.5-0.5-0.8
		c-0.1-0.2-0.2-0.4-0.3-0.7c0,0,0-0.1-0.1-0.1c-0.2-0.4-0.4-0.7-0.7-1c0.3-7.1-0.7-14.3,0.5-21.4c0-0.2,0-0.3,0.1-0.5
		c2.4-4.2,4.8-4.7,8.7-1.6c20.1,16.3,34.2,36.7,42.4,61.1c3.7,11.2,6.2,22.8,6.2,34.7C365.9,308.9,365.3,320.3,365.6,331.8z"/>
	<path class="st4" d="M228.7,205.9v127.7l0,0c-7.3,0.8-14.6,0.2-21.8,0.3c-0.2-0.1-0.4-0.2-0.6-0.3l0,0v-0.3c0-48.9,0-97.9,0-146.8
		c0-1.2,0.7-2.9-0.8-3.7c-0.2-0.1-0.4-0.2-0.7-0.3c2.6-1.3,1.5-3.8,1.4-5.7c-0.1-2.5,0.7-3.9,3-4.8c3.5-1.3,6.9-2.9,10.6-3.6
		c-0.3,0.5-0.3,0.8-0.2,1c0.1,0.2,0.4,0.4,0.9,0.5c1.7,0.5,3.2,1.3,4.9,1.9c2.6,0.9,3.5,2.5,3.5,5.3
		C228.6,186.7,228.7,196.3,228.7,205.9z"/>
	<path class="st10" d="M63.3,307.7c0,0.1,0,0.2,0,0.2c0,0,0,0,0,0c0,0,0-0.1-0.1,0.2c0,12.7,0.2,25.4-0.2,38
		c-0.5,15.6-18,24.7-31.4,16.4c-0.2-0.5-0.3-0.9-0.3-1.3c0.1-1.2,1.1-2,1.9-2.8c3.9-4.3,5.4-9.3,5.4-15.1c0-37.6,0-75.2,0-112.8
		c0-2.2-0.4-4.5,0.8-6.6c0,0,0,0,0,0c0,0,0.1-0.1,0.1-0.1c0,0,0,0,0,0c1.2-0.8,2.6-0.5,3.9-0.2c0.8,0,1.5,0,2.3,0
		c1-0.4,2.1-0.6,3.1-0.8c3.7-0.6,7.5-0.3,11.3-0.2c1.5,0,2.6,0.5,3,1.8c0.1,0.4,0.2,0.8,0.2,1.3C63.3,253,63.6,280.4,63.3,307.7z"/>
	<path class="st11" d="M39.9,342.6c0,7-1.7,13-7,17.7c-0.4,0.4-0.8,0.8-1,1.2c-0.1,0.3-0.2,0.6-0.2,0.9c-7-4.7-10-11.3-10-19.7
		c0.1-39.7,0.1-79.5,0.2-119.2c0.1,0,0.2,0,0.2,0c0.1,0,0.2,0,0.3,0c5.8-0.5,11.5-0.7,17.2,0.1c0.1,0,0.2,0,0.2,0v0.1
		C39.8,263.5,39.8,303,39.9,342.6z"/>
	<path class="st4" d="M127.5,224.3v109.3c-0.1,0-0.3,0-0.4,0c-6.5,0.7-13,0.1-19.5,0.3c-0.1,0-0.2,0-0.3,0c-2-0.1-4,0.3-6-0.2
		c0,0-0.1,0-0.1,0c-0.2,0-0.4-0.1-0.6-0.2c0.2-16.3-1-32.6,1.3-48.8C105.2,262.4,113.7,242.3,127.5,224.3z"/>
	<path class="st8" d="M381.1,349c0.3,8.5-5.3,15.3-13.8,16.1c-9.9,0.9-19.9,1.3-29.5,4.3c-6.9,2.2-13.6,4.8-20,8.2
		c-16.1,8.7-33.2,13.3-51.5,12.9c-6.2-0.2-12.5-0.1-18.7-0.1c1.3-0.4,2.7-0.7,4-1c4.7-1,9.5-1.6,14.1-3c6.8-2.1,13.3-4.8,19.6-8.1
		c9.7-5.1,19.8-9.2,30.7-11.3c6.1-1.2,12.3-1.8,18.5-1.8c8.1,0,14.2-5.8,15.7-13.3c1.3-7.1-3.4-14.2-11.1-16.8c0-0.4,0-0.6,0.2-0.8
		c0.1-0.1,0.1-0.1,0.2-0.2c0.2-0.1,0.4-0.1,0.7-0.1c8.1,0.1,16.3-0.3,24.4,0.1c0.4,0,0.7,0,1.1,0.1c0.2,0,0.3,0,0.5,0
		C374.6,334.8,380.8,340.9,381.1,349z"/>
	<path class="st12" d="M78.8,209.6c0.1,7.1-4.5,13.1-11.6,13.8c-3.5,0.4-3.5,1.8-3.5,4.4c0,25.3-0.1,50.6-0.1,75.9
		c0,1.4,0.3,2.9-0.3,4.2c0,0,0,0,0,0c0,0,0,0.1-0.1,0.2c-0.1-3.6-0.2-7.2-0.2-10.8c0-23.2,0-46.5,0.1-69.7c0-0.9,0-1.6-0.2-2.2
		c-0.4-1.4-1.4-2-3.7-1.8c-4,0.2-7.9,0-11.9,0c-0.5,0-1,0-1.5,0c4.6-2.5,8.4-5.6,9.6-11.1c1.3-5.9-1.5-11.3-8.5-15.9h20.8
		C74.3,197.6,78.7,202.8,78.8,209.6z"/>
	<path class="st13" d="M366.1,334.2h-0.5c-0.4,0-0.9,0-1.3,0c-7.2,0-14.3,0-21.5,0.1c-0.9,0-1.8-0.2-2.7,0c0,0,0,0,0,0
		c-0.4,0.1-0.8,0.3-1.1,0.7c-1.4-0.8-3-0.8-4.5-0.7c-0.2-0.2-0.4-0.5-0.5-0.7c0-0.1-0.1-0.2-0.2-0.3h0c0-0.1-0.1-0.1-0.1-0.2v0
		c-1-8.5-0.3-17.1-0.4-25.6c0-2.4-0.6-5,0.6-7.3c0.2-0.3,0.4-0.6,0.6-0.9c1.2,1.1,0.7,2.6,0.7,3.9c0,9,0.2,17.9,0,26.9
		c0,2.1,0.4,3.1,1.7,3.5c0.3,0.1,0.7,0.1,1.1,0.2c0.3,0,0.7,0,1.1,0c7.5-0.2,15-0.2,22.4,0c2,0.1,3.1-0.3,3.6-1.5
		c0.2-0.5,0.3-1.3,0.3-2.2c-0.1-10.8,0-21.6,0.1-32.5c1,2.6,0.5,5.4,0.5,8.1C366,315.1,366,324.7,366.1,334.2z"/>
	<path class="st14" d="M43.5,223.5c-1.2,0.1-2.5,0.2-3.7,0.2h-0.3c-5.5,0-11-0.1-16.4-0.1c-0.4,0-0.7,0-1.1,0h-0.3
		c-1.8-0.2-3.7,0.5-5.4-0.7c1.5,0,3,0,4.6,0c6.7,0,13.4,0,20.1-0.1C41.9,222.9,42.8,222.8,43.5,223.5z"/>
	<path class="st15" d="M107.6,333.9c0,0,0,0.1,0,0.1c-0.1,0.2-0.2,0.2-0.2,0.2c-2.1,0-4.3-0.1-6.4-0.1c-0.2,0-0.3,0-0.5,0
		c0-0.2,0.1-0.5,0.2-0.7h1.2c1.8,0,3.7,0,5.5,0C107.5,333.7,107.6,333.8,107.6,333.9z"/>
	<path class="st16" d="M245.2,390.3c-1.5,0-2.9,0-4.4,0C242.2,389.3,243.7,389.3,245.2,390.3z"/>
	<path class="st17" d="M41.4,67.9c-4.5,7.3-8.2,15-13.1,22c-0.1,0.2-0.3,0.4-0.4,0.6c-4.6-7.7-9.1-15.4-13.7-23.1
		c-0.6-0.9-0.6-1.9-0.6-2.9c0-12.1,0-24.2,0.1-36.2h1c9.1,0,18.3,0.1,27.4,0.1v1.1c0,11.3,0,22.7,0,34C42.1,65,42.2,66.5,41.4,67.9z
		"/>
	<path class="st18" d="M334.4,333.6c0,0.2,0,0.5,0,0.7c-9,0-18,0-27,0c-0.3-0.2-0.3-0.3-0.3-0.5c0.1-0.2,0.2-0.2,0.3-0.2
		c0-36.2,0-72.3,0-108.5c0.2,0,0.5,0,0.7,0.1c1.2,2.4,1.2,5,1.2,7.6c0,31,0,62,0,92.9c0,6.6,0,6.6,6.6,6.6c4.5,0,9,0,13.5,0
		C331.2,332.4,333,332.3,334.4,333.6z"/>
	<path class="st19" d="M307.5,333.6c0,0.2,0,0.5,0,0.7c-14.4,0-28.9,0-43.3,0c-1.3,0-2.8,0.5-3.9-0.7
		C276,333.6,291.7,333.6,307.5,333.6z"/>
	<path class="st19" d="M174.8,333.6c10.5,0,21,0,31.5,0c0,0,0,0,0,0c0.2,0.2,0.3,0.3,0.2,0.5c-0.1,0.2-0.2,0.2-0.3,0.2
		c-10.5,0-21,0-31.5,0c-0.2-0.2-0.3-0.3-0.2-0.5C174.6,333.7,174.7,333.6,174.8,333.6z"/>
	<path class="st18" d="M206.2,334.3c0-0.2,0-0.5,0-0.7c7.5,0,15,0,22.5,0c-1.8,1.4-3.8,0.6-5.7,0.7
		C217.4,334.4,211.8,334.3,206.2,334.3z"/>
	<path class="st18" d="M107.3,334.3c0-0.2,0-0.5,0-0.7c6.7,0,13.5,0,20.2,0c0,0.2,0.1,0.5,0.1,0.7
		C120.8,334.3,114.1,334.3,107.3,334.3z"/>
	<path class="st20" d="M174.8,333.6c0,0.2,0,0.5,0,0.7c-5.5,0-11,0-16.6,0c0-0.2,0-0.5,0.1-0.7C163.8,333.6,169.3,333.6,174.8,333.6
		z"/>
	<path class="st4" d="M334.4,333.6c-7.4,0-14.7-0.2-22.1,0.1c-3.3,0.1-4.2-0.8-4.2-4.2c0.1-34.8,0.1-69.5,0.1-104.3
		c12.4,15.8,20.1,33.7,24,53.4c1.3,6.8,2.5,13.6,2.3,20.6C334.5,310.6,334.4,322.1,334.4,333.6z"/>
</g>
</svg>
