<?xml version="1.0" encoding="utf-8"?>
<!-- Generator: Adobe Illustrator 26.0.3, SVG Export Plug-In . SVG Version: 6.00 Build 0)  -->
<svg version="1.1" id="Calque_1" xmlns="http://www.w3.org/2000/svg" xmlns:xlink="http://www.w3.org/1999/xlink" x="0px" y="0px"
	 viewBox="0 0 402 394" style="enable-background:new 0 0 402 394;" xml:space="preserve">
<style type="text/css">
	.st0{fill:#FFFFFF;}
</style>
<g>
	<path class="st0" d="M369,150.2c0-8.5-4.8-13.3-13.2-13.3c-3.4,0-6.8-0.2-10.1,0c-2.5,0.1-4-0.6-5.5-2.8
		c-5.8-8.7-11.7-17.4-17.8-26c-1.4-1.9-3.4-3.7-5.5-4.8c-11.8-6-23.8-11.6-35.6-17.5c-2.4-1.2-4.7-2.9-6.5-4.8
		c-9.7-10.2-19.2-20.4-28.6-30.7c-2.9-3.2-5.8-3.9-10-2.4c-17.6,6.4-35.3,12.5-52.9,18.9c-2.4,0.9-4,0.6-5.9-1.2
		c-5.8-5.5-11.8-10.9-17.8-16c-1.6-1.3-4-2.6-5.9-2.5c-9.2,0.8-18.4,2.1-27.5,3.5c-1.5,0.2-3.5,1.4-4.2,2.7c-5,9.2-9.7,18.6-14.3,28
		c-1.5,3-0.1,6.2,2.7,7.7c2.8,1.5,5.9,0.6,7.8-2.2c0.6-0.9,1.1-2,1.6-3c3.3-6.5,6.5-13,9.9-19.3c0.7-1.2,2.4-2.5,3.8-2.7
		c5.5-1,11.1-1.6,16.7-2.1c1.3-0.1,3,0.4,4,1.2c5.4,4.6,10.7,9.4,15.9,14.3c0.9,0.9,1.5,2.9,1.2,4.1c-1.7,7.7-3.6,15.3-5.5,22.9
		c-0.5,1.8-1,3.6-2,5.2c-5.5,9.1-11,18.1-16.8,27.1c-0.8,1.2-2.6,2.3-4,2.4c-23,0.1-46,0.1-69,0.1c-0.6,0-1.2-0.1-2.1-0.2
		c2.1-5.6,4.4-10.8,6.2-16.2c2.3-6.8,5-13,12.3-15.8c0.2-0.1,0.4-0.3,0.6-0.4c2.6-2.2,3.2-5.3,1.5-8c-1.7-2.7-4.9-3.6-7.9-2
		c-2.6,1.4-5.1,3.1-7.7,4.6c-3.1,1.7-5,4.2-6.3,7.6c-3.4,9.4-7.2,18.6-10.8,28c-0.7,1.9-1.7,2.7-3.8,2.6c-3.7-0.2-7.5-0.1-11.2,0
		c-6.8,0.2-11.8,5.2-11.9,12c-0.1,6-0.1,12,0,18c0.1,6,4.1,10.9,10,11.8c2.5,0.4,3.1,1.3,3.6,3.6c6.3,34.6,12.7,69.2,19,103.9
		c0.3,1.6,0.1,3.5-0.5,5.1c-6.5,19.1,1.8,40.4,19.6,50.6c16.8,9.6,38.7,5.6,51.8-9.4c5.4-6.2,8.4-13.4,9.9-21.2h108.9
		c0.1,0.6,0.2,1,0.3,1.3c5.1,24.5,28.6,39.3,52.2,33c21.7-5.7,37.4-31.2,28.7-54.8c-0.6-1.5-0.5-3.4-0.2-5.1
		c4.3-23.8,8.7-47.6,13.1-71.5c2.1-11.7,4.3-23.3,6.4-34.9c10.2-2,13.1-5.5,13.1-15.9C369,159,369,154.6,369,150.2z M173.1,115.2
		c1.9-3.3,3.4-6.9,4.4-10.6c2.1-7.3,3.8-14.8,5.4-22.2c0.5-2.2,1.4-3.4,3.6-4.1c16.4-5.7,32.7-11.5,49-17.4c2.3-0.8,3.6-0.5,5.2,1.2
		c6.7,7.4,13.6,14.7,20.4,22c0.6,0.6,1,1.3,1.8,2.3c-6.6,2.2-12.8,4.1-19,6.3c-1.9,0.7-3.9,1.8-5.3,3.3c-4.3,4.7-8.4,9.6-12.5,14.4
		c-2.7,3.2-2.7,6.7-0.1,9c2.8,2.5,6.1,2.1,9.2-1.2c0.3-0.4,0.8-0.7,1-1.1c7.8-14.3,22.6-16.8,36.3-21.1c1-0.3,2.4,0.1,3.5,0.7
		c11.3,5.5,22.7,11,34,16.6c0.9,0.4,2,0.8,2.5,1.5c5,7.1,9.9,14.3,15.2,21.9H159.9C164.5,129.2,169,122.3,173.1,115.2z M105,334.9
		c-16.4,0-30-13.5-30-29.7c0-17,12.8-30,29.8-30.1c17-0.1,30.2,12.9,30.2,30.1C135,321.4,121.4,334.9,105,334.9z M296.8,334.9
		c-16.3-0.1-29.9-13.8-29.7-30c0.2-17,13.1-29.9,30-29.8c17.1,0.1,30,13.2,29.9,30.4C326.9,321.6,313.2,335,296.8,334.9z
		 M356.7,166.9h-4.6c-9.9,0-19.8,0-29.6,0c-4.7,0-7.5,2.3-7.4,6c0,3.7,2.8,5.9,7.5,5.9c6.8,0,13.5,0,20.2,0.1c0.1,0,0.2,0.1,0.9,0.4
		c-5.8,31.4-11.6,63-17.5,95.1c-12.8-11.4-27.1-14.5-42.7-9.1c-15.6,5.4-25.2,16.5-28.1,33.2H146.7c-3.3-16.1-12.2-27.9-27.9-33.4
		c-15.7-5.5-30-1.8-43,9.2c-5.9-32.1-11.7-63.7-17.6-95.7h229.4c1.4,0,2.8,0.1,4.1-0.1c3.3-0.5,5.1-2.7,5.1-5.9
		c0-3.3-1.8-5.4-5.1-5.9c-1.4-0.2-2.7-0.1-4.1-0.1c-79.2,0-158.5,0-237.7,0h-4.6v-17.9h311.4V166.9z"/>
	<path class="st0" d="M110.9,304.8c0.1,3.3-2.5,6-5.8,6.1c-3.3,0.1-6-2.5-6-5.9c-0.1-3.4,2.5-6,5.8-6.1
		C108.3,298.9,110.9,301.4,110.9,304.8z"/>
	<path class="st0" d="M302.9,304.7c0.1,3.3-2.4,6-5.8,6.1c-3.3,0.1-6-2.5-6.1-5.8c-0.1-3.4,2.4-6,5.8-6.1
		C300.2,298.8,302.8,301.4,302.9,304.7z"/>
</g>
</svg>
