<?xml version="1.0" encoding="utf-8"?>
<!-- Generator: Adobe Illustrator 26.0.3, SVG Export Plug-In . SVG Version: 6.00 Build 0)  -->
<svg version="1.1" id="Calque_1" xmlns="http://www.w3.org/2000/svg" xmlns:xlink="http://www.w3.org/1999/xlink" x="0px" y="0px"
	 viewBox="0 0 512.7 512.1" style="enable-background:new 0 0 512.7 512.1;" xml:space="preserve">
<style type="text/css">
	.st0{fill:#FFFFFF;}
</style>
<g>
	<path class="st0" d="M511.8,235.7c-1.5-18.8-5-37.3-10.7-55.3c-1.9-6.1-6.3-9.3-12-9.6c-7.9-0.4-15.5,7.3-12,18.7
		c15.1,50.5,14.1,100.9-5.8,149.8c-32.9,80.9-93.3,129.5-179.2,144.4c-52.7,9.1-103.4,0-149.2-27.5C59.8,406.3,21,331.8,27.3,235.3
		C30.8,182,53,135.6,90,97c42.3-44.1,94.5-67.6,155.6-71c26.7-1.5,52.8,1.9,78.4,9.7c8.3,2.5,15.3-0.8,17.5-7.8
		c2.3-7.4-1.7-14.4-10.1-16.6C321.3,8.5,311.1,6,300.8,4c-9.3-1.8-18.7-2.7-28.1-4h-32c-9.4,1.3-18.8,2.4-28.1,3.9
		C113,20.6,30.8,97.8,7.9,196.8c-3,12.8-4.2,25.9-6.3,38.9c-0.2,1.5-0.6,2.9-0.9,4.4v32c1.3,9.4,2.4,18.8,3.9,28.1
		c16.9,101.1,97,184.8,197.3,205.8c11.7,2.5,23.7,3.5,35.5,5.3c1.1,0.2,2.2,0.5,3.3,0.8h32c9.4-1.3,18.8-2.4,28.1-3.9
		c101.2-16.7,185.6-97.8,205.9-198.2c2.4-11.7,3.5-23.7,5.2-35.5c0.2-1.5,0.5-2.9,0.8-4.3v-28C512.4,239.9,512,237.8,511.8,235.7z"
		/>
	<path class="st0" d="M281.3,87.2c-1.8-6-6.7-10.1-13.9-10.1c-11.5,0-23.1-0.3-34.4,1.2C133.2,92.2,64.8,185.7,81.6,284.9
		c14.6,86,89.1,149,176.2,149.8c12.8-1.7,26-2.2,38.5-5.4c74.9-19.2,120.9-67,136.7-142.7c3-14.1,2.3-29.1,2.3-43.7
		c0-8-6.8-13.1-14-12.3c-7.4,0.9-11.6,6.9-11.5,14.9c0.1,10.6,0.4,21.4-1,31.8c-11.5,83-90.1,141.8-172.7,129.4
		c-69.9-10.5-122.8-65.2-130.6-135c-6.9-61.9,25-122.6,79.9-151.5c25.8-13.6,53.1-20,82.4-17.4C277.2,103.6,283.8,95.8,281.3,87.2z"
		/>
	<path class="st0" d="M334,117.2c0.1,6.5,0,13,0,19.5c0,6.2-0.2,12.3,0.1,18.5c0.2,4-1.2,6.8-4.1,9.6
		c-26.2,26.1-52.4,52.2-78.5,78.4c-1.4,1.4-2.9,2.8-4.1,4.4c-3.9,5.1-3.6,11.8,0.7,16.4c4.4,4.7,11.4,5.4,16.8,1.5
		c1.6-1.2,3-2.6,4.4-4c26.4-26.4,52.8-52.7,79.1-79.2c2.6-2.6,5.1-3.6,8.8-3.6c12.8,0.2,25.6,0,38.5,0.1c5,0,9-1.5,12.5-5.1
		c24.6-24.7,49.2-49.3,73.8-73.9c4.4-4.4,6.3-9.4,3.9-15.4c-2.4-5.8-7.3-7.8-13.3-7.7c-10,0.1-20,0-30,0c-6.6,0-6.6,0-6.6-6.3
		c0-10-0.1-20,0-30c0.1-6.2-1.8-11.3-7.9-13.7c-6-2.4-10.9-0.3-15.3,4.1c-24.5,24.6-49,49.1-73.5,73.5
		C335.6,108,333.9,112.1,334,117.2z M359.8,121.4c0-1,0.8-2.1,1.6-2.9c15.9-15.9,31.8-31.8,47.7-47.7c0.2-0.2,0.6-0.2,1.6-0.6
		c0,6.3-0.1,12.1,0,17.9c0.1,8.8,5.1,13.8,14,13.9c5.7,0.1,11.3,0.1,17,0.2c0.1,0,0.2,0.2,0.7,0.6c-0.9,1-1.7,2.2-2.7,3.2
		c-14.7,14.8-29.4,29.5-44.3,44.1c-1.7,1.6-4.5,2.8-6.8,2.9c-9.5,0.3-18.9,0.1-29,0.1C359.7,142.2,359.6,131.8,359.8,121.4z"/>
	<path class="st0" d="M229.5,184.2c8.7-3.3,18.4-4.1,27.7-5.4c8.1-1.2,13.4-6.4,13-13.6c-0.5-7.2-6-12.2-13.9-12
		c-5.6,0.2-11.3,0.7-16.9,1.7c-51.9,9.3-87.9,56.4-83.6,109.1c4.3,52.4,48.7,93.1,101.6,93.1c54.5,0,99.2-42.4,102.1-96.9
		c0.6-10.9-3.9-17.4-12.2-17.7c-8.1-0.3-12.9,5.5-13.4,16.3c-2,45.3-43.2,79.1-88.1,72.1c-33.2-5.2-60.4-32.8-64.1-65.2
		C177.6,229.5,196.5,196.7,229.5,184.2z"/>
</g>
</svg>
