<?xml version="1.0" encoding="utf-8"?>
<!-- Generator: Adobe Illustrator 26.0.3, SVG Export Plug-In . SVG Version: 6.00 Build 0)  -->
<svg version="1.1" id="Calque_1" xmlns="http://www.w3.org/2000/svg" xmlns:xlink="http://www.w3.org/1999/xlink" x="0px" y="0px"
	 viewBox="0 0 383.3 384" style="enable-background:new 0 0 383.3 384;" xml:space="preserve">
<style type="text/css">
	.st0{fill:#0A9642;}
</style>
<g>
	<path class="st0" d="M353.4,224.9c-9-15.5-18-31-26.8-46.6c-1.6-2.8-3.6-4.5-6.6-5.6c-18.8-7.2-37.5-14.6-56.3-21.8
		c-2.3-0.9-3-1.7-2.4-4.2c10.8-43.9-19.8-85.9-64.9-89.2c-48.3-3.5-86.5,42-74.6,88.9c0.6,2.5,0.3,3.6-2.3,4.6
		c-18.9,7.2-37.8,14.6-56.6,21.9c-2.4,0.9-4.3,2.2-5.7,4.5c-9.2,16.1-18.5,32.1-27.8,48.2c-2.9,5.1-1.7,8.2,3.9,10.4
		c6.8,2.7,13.6,5.5,20.5,7.9c2.5,0.9,3.3,2.2,3.2,4.8c-0.1,25.7,0,51.4-0.1,77.1c0,4,1.4,6.5,5.2,8c36.2,14,72.3,28,108.4,42.1
		c6.5,2.6,13.3,4.5,19.4,8.1h1.5c1.3-1.3,3.1-1,4.7-1.6c41.2-16.1,82.4-32.1,123.6-48.2c5.5-2.1,6.2-3.3,6.2-9.1
		c0-25.4,0-50.9-0.1-76.3c0-2.7,0.8-3.9,3.3-4.8c6.7-2.4,13.2-5,19.8-7.6C355.7,233.8,356.8,230.8,353.4,224.9z M338.2,227.7
		c-37.4,14.5-74.8,29.1-112.2,43.6c-1.4,0.5-2.6,1.2-3.7-0.7c-7.3-12.8-14.6-25.4-22.1-38.4c14-5.4,27.7-10.7,41.5-16.1
		c24.1-9.4,48.2-18.7,72.2-28.2c2.7-1.1,4-0.7,5.5,1.9c6.5,11.6,13.2,23.1,19.9,34.6C340.5,226.3,340.4,226.9,338.2,227.7z
		 M310.8,324.9c-35.2,13.6-70.4,27.3-105.6,41c-2.4,0.9-4.8,1.8-7.5,2.8v-117c1.6,2.8,2.7,4.7,3.8,6.7c4.2,7.3,8.5,14.6,12.7,22
		c3.4,5.9,5.1,6.5,11.5,3.9c28.2-11,56.5-22,84.8-32.9c1.1-0.4,2.3-0.8,3.7-1.3v48.9c0,7-0.2,14,0.1,20.9
		C314.4,322.7,313.3,323.9,310.8,324.9z M191.6,69.2c33.2,0,60,27,60,60.2c-0.1,33.2-27.2,60-60.3,59.9
		c-32.9-0.2-59.7-27.2-59.6-60.2C131.8,96,158.6,69.2,191.6,69.2z M185.5,368.8c-14-5.5-27.6-10.8-41.3-16.1
		c-24-9.3-47.9-18.6-71.9-27.8c-2.5-1-3.3-2.2-3.3-4.8c0.1-23.2,0.1-46.4,0.1-70.1c7,2.7,13.8,5.3,20.6,8
		c22.6,8.8,45.1,17.6,67.7,26.4c6.6,2.6,8.3,2,11.8-4.1c4.8-8.3,9.6-16.6,14.3-24.9c0.5-0.9,1.1-1.8,2-3.4V368.8z M181.4,234.8
		c-6.7,11.6-13.5,23.2-20.1,34.9c-1.1,2-2,2.4-4.3,1.5c-37.1-14.5-74.3-29-111.5-43.3c-2.4-0.9-2.9-1.6-1.4-4
		c6.8-11.4,13.4-23,20-34.5c1.2-2.2,2.2-2.6,4.6-1.6c37.1,14.5,74.3,29,111.4,43.4c0.9,0.4,2.2,0.3,2.5,1.6
		C182.2,233.5,181.8,234.2,181.4,234.8z M189.4,221.9c-36.3-14.2-72.7-28.3-109.8-42.7c11.3-4.5,21.9-8.7,32.5-12.9
		c4-1.6,8.2-3,12.1-4.8c2.1-1,2.9-0.4,4,1.5c11.2,20.3,28.1,32.8,51,37.1c29.9,5.7,61-9.2,75.5-36.3c1.4-2.7,2.6-3.1,5.4-2
		c13.5,5.5,27,10.8,40.5,16.2c0.9,0.4,2,0.5,2.6,1.6c-25.2,9.8-50.5,19.6-75.7,29.4c-11,4.3-22,8.5-33,12.8
		C192.7,222.4,191.2,222.6,189.4,221.9z"/>
	<path class="st0" d="M191.6,41.2c3.5,0,5.9-2.6,6-6.7c0.1-4.4,0-8.7,0-13.1c0-4.5,0-9,0-13.5c-0.1-4.1-2.4-6.6-6-6.6
		c-3.6,0-5.9,2.5-6,6.6c-0.1,8.9-0.1,17.7,0,26.6C185.7,38.6,188.1,41.2,191.6,41.2z"/>
	<path class="st0" d="M139.1,49.7c1.2,2.1,3.1,3.1,5.3,3.3c4.7-0.2,7.4-4.9,5.2-9c-4.5-8.1-9.2-16.2-14-24.2c-1.9-3.1-5.2-4-8-2.4
		c-3,1.6-4,5.1-2.2,8.3C129.8,33.9,134.5,41.8,139.1,49.7z"/>
	<path class="st0" d="M238.6,54.6c1.9-0.2,3.7-0.9,4.8-2.8c4.8-8.2,9.7-16.5,14.3-24.8c1.6-2.9,0.5-6.2-2.2-7.8
		c-2.7-1.6-6.2-1.1-7.9,1.8c-5,8.3-9.9,16.6-14.5,25.1C231,50,234.1,54.6,238.6,54.6z"/>
	<path class="st0" d="M82.6,72.3c7.7,4.5,15.4,9,23.2,13.4c3.6,2,7,1.2,8.8-1.8c1.9-3.2,0.8-6.5-3-8.7c-7.5-4.4-15-8.7-22.6-13
		c-1.2-0.7-2.4-1.2-3.9-1.3c-2.6,0.3-4.8,1.5-5.6,4.2C78.6,68.1,79.7,70.6,82.6,72.3z"/>
	<path class="st0" d="M272.8,89.6c0.8-0.3,2-0.6,3.1-1.2c7.8-4.4,15.5-8.9,23.2-13.4c3.4-2,4.3-5.2,2.7-8.2
		c-1.7-3.2-5.1-4.1-8.7-2.1c-3.8,2.1-7.5,4.3-11.3,6.5c-4.2,2.4-8.4,4.8-12.5,7.3c-2.7,1.6-3.6,4.2-2.6,7.1
		C267.5,88.2,269.7,89.4,272.8,89.6z"/>
	<path class="st0" d="M284.5,124.9c-3.9,0.1-6.3,2.4-6.4,5.8c0,3.5,2.3,6,6.2,6.1c9.2,0.1,18.5,0.1,27.7,0c3.7-0.1,6.2-2.9,6-6.3
		c-0.2-3.2-2.6-5.5-6.2-5.6c-4.5-0.1-9,0-13.5,0C293.8,124.9,289.1,124.8,284.5,124.9z"/>
	<path class="st0" d="M68.8,133.7c4.3,0.1,8.7,0,13.1,0c4.5,0,9,0.1,13.5,0c4.2-0.1,6.6-2.4,6.6-6c0-3.6-2.4-5.9-6.7-5.9
		c-8.8-0.1-17.7-0.1-26.5,0c-4.2,0-6.6,2.3-6.6,5.9C62.1,131.3,64.5,133.5,68.8,133.7z"/>
	<path class="st0" d="M144.9,137.6c6.5,8.1,12.8,16.2,19.3,24.3c6.4,7.9,16.5,8.6,23.8,1.3c15.4-15.2,30.7-30.6,46-46
		c2.6-2.6,4.3-5.8,4.7-9.5c0.6-6.9-2.8-13-8.9-15.8c-6.1-2.8-12.8-1.6-17.8,3.4c-10.7,10.6-21.4,21.3-32,32
		c-1.7,1.7-2.5,1.8-3.9-0.2c-2.6-3.5-5.3-7-8.2-10.2c-4.4-4.9-11.1-6.3-17.1-3.8c-6,2.4-9.6,7.8-9.7,15.1
		C141.1,131.2,142.5,134.5,144.9,137.6z M154.4,124.8c2.4-2,4.3-0.7,6,1.4c3.7,4.7,7.4,9.4,11.1,14c4,5,7.2,5.2,11.7,0.7
		c11.9-11.9,23.8-23.8,35.7-35.7c0.8-0.8,1.6-1.6,2.5-2.3c1.2-0.9,2.6-0.9,3.9-0.2c1.1,0.6,1.8,1.7,1.6,3.1c0.1,1.4-0.8,2.3-1.7,3.2
		c-15.1,15.1-30.1,30.1-45.2,45.2c-2.6,2.6-4.4,2.4-6.8-0.6c-6.1-7.7-12.2-15.4-18.4-23.1C153.2,128.8,152.3,126.7,154.4,124.8z"/>
</g>
</svg>
