<?xml version="1.0" encoding="utf-8"?>
<!-- Generator: Adobe Illustrator 26.0.3, SVG Export Plug-In . SVG Version: 6.00 Build 0)  -->
<svg version="1.1" id="Calque_1" xmlns="http://www.w3.org/2000/svg" xmlns:xlink="http://www.w3.org/1999/xlink" x="0px" y="0px"
	 viewBox="0 0 328.7 328.1" style="enable-background:new 0 0 328.7 328.1;" xml:space="preserve">
<style type="text/css">
	.st0{fill:#0A9642;}
</style>
<g>
	<g>
		<path class="st0" d="M278.3,255.9c-4.2-0.9-6.4-3.2-7.2-7.3l-0.3-1.5l1.5-0.3c0.7-0.2,1.4-0.3,2.1-0.4c1.4-0.3,2.7-0.5,4-0.8
			c14.3-3.4,25.4-16.2,25.8-29.8c0.6-18.6,0.5-35.2-0.1-50.7c-0.4-10.5-5.9-19.4-15.9-25.6c-1.5-0.9-3.9-1.4-4.8-1
			c-1.7,0.8-3.5,2.8-4.2,4.7c-1,2.5,1,4.5,2.9,5.8c7.2,4.7,10.8,11.2,10.9,19.2l0,5c0.1,13.1,0.2,26.7-0.1,40
			c-0.1,6.6-3,12.6-8,16.8c-5.1,4.3-11.8,6.2-18.5,5.2c-1.2-0.2-2.9-1-3.5-2.2c-1.6-3-3.2-6.1-4.8-9.3c-0.6-1.2-1.2-2.4-1.8-3.6
			l-1.1-2.2l6.2,0c2.2,0,4.1,0,6,0c6.9,0,8.3-1.5,8.3-8.5c0-4,0-7.9,0-11.9c0-8.7-0.1-17.6,0.1-26.4c0.1-4.4-1.4-6.9-5.4-9
			c-17.9-9.4-36-19.2-53.5-28.6l-14.3-7.7c-1.2-0.7-2.5-1.4-3.8-2.1l-2.6-1.5l8.2-15.2l12.8,6.9c12.7,6.8,24.7,13.2,37,19.7l0.5,0.3
			c1.1,0.6,3.3,1.8,4,1.5c2.1-0.8,4.8-2.4,5.7-4.2c1.7-3.6-2-6-3.1-6.6c-4.2-2.2-8.3-4.5-12.5-6.7c-4.2-2.2-8.3-4.5-12.5-6.7
			c-5-2.7-9.9-5.3-14.9-8L209.8,97l0.8-1.3c3.4-6.1,3.7-11.5,0.7-17c-0.7-1.2-0.7-3.1-0.1-4.3c1.7-3.3,3.4-6.6,4.9-9.2
			c0.4-0.7,0.8-1.4,1.1-2l0.4-0.7l0.8-0.1c1.5-0.1,2.9-0.1,4.1-0.2c2.3,0,4.1,0,5.4-0.7c1.7-0.8,2.6-2.3,2.7-4
			c0.1-2.3-1.4-4.6-3.8-5.9c-8.2-4.5-16.6-9-24.7-13.3c-3.4-1.8-6.8-3.6-10.1-5.4c-1.3-0.7-2.6-1.4-3.9-2.1c-3.6-2-7.4-4-11.2-5.9
			c-3.1-1.5-6.2-0.7-7.7,2.1c-1.5,2.6-0.7,5.5,2,7.5c0.5,0.3,0.9,0.7,1.4,1c0.3,0.2,0.6,0.4,0.9,0.6l1.1,0.8l-0.6,1.2
			c-0.6,1.1-1.2,2.2-1.8,3.4c-1.4,2.7-2.9,5.5-4.5,8.2c-1,1.6-3.1,3-5,3.3c-5.5,0.9-9.3,3.6-11.8,8c-2.4,4.2-4.6,8.5-6.8,12.6
			c-1.9,3.7-1.3,6.9,1.6,8.6c1.3,0.8,2.7,1,4.1,0.6c1.7-0.5,3.2-1.8,4.4-3.8c2.3-4.1,4.3-7.8,6.2-11.4c0.8-1.6,1.8-2.6,3-2.9
			c1.2-0.4,2.5-0.2,4.1,0.7c10.7,5.8,21.5,11.5,31.7,17c1.5,0.8,2.4,1.7,2.7,2.9c0.3,1.2,0.1,2.4-0.6,3.9
			c-7.3,13.4-14.6,27.2-21.7,40.4c-0.8,1.5-1.7,2.3-2.9,2.7c-1.2,0.4-2.5,0.1-3.9-0.6c-3.2-1.7-6.4-3.5-9.6-5.2
			c-7.4-4-15-8.1-22.4-12.2c-2.1-1.2-2.1-5.2-2.1-5.6c0-1.1,0.5-2,1-2.8c0.3-0.5,0.5-0.9,0.6-1.2c0.8-2.8-0.1-5-2.5-6.4
			c-2.7-1.6-5.3-1.2-7,1c-4.5,5.9-5.7,10.5-3.7,14.7c3,6.3,0.8,10.9-1.9,15.4c-0.8,1.3-1.5,2.7-2.1,3.8c-4,8.2-1.6,16.4,6.3,20.8
			c5.8,3.3,11.5,6.4,17,9.1c7.7,3.8,16.1,1.2,20.6-6.3c0.9-1.6,1.8-3.3,2.7-4.9c0.8-1.5,1.6-3,2.5-4.5c0.9-1.6,1.9-3.1,3.4-3.2
			c6.5-0.4,11.3-3.7,14.8-10.1l0.7-1.3l20.1,10.8c12.9,6.9,25.7,13.8,38.5,20.7c1.2,0.7,2.6,1.3,4,1.9c3.8,1.7,7.8,3.4,9.7,6.6
			c1.9,3.2,1.5,7.4,1.2,11.5c-0.1,1.7-0.2,3.2-0.2,4.7c0,3.8,0,7.6,0,11.5v6.3h-1.5c-0.9,0-1.7,0-2.4,0c-1.4,0-2.5-0.1-3.5,0.1
			c-5.5,0.7-8.8-1.2-10.5-6.2c-0.3-0.8-1.1-3.4-6.2-3.3c-5,0-10.2,0-15.1,0c-3.4,0-6.7,0-10.1,0c-6.6,0-8.2,1.6-8.3,8.1
			c0,10.4,0,20.8,0,31.2l0,18.3h-11.4c-9.9,0-19.6,0-29.3,0c-0.9,0-1.8-0.1-2.7-0.2c-0.4,0-0.8-0.1-1.1-0.1l-1.4-0.1v-16l1-0.3
			c0.1,0,0.3-0.1,0.4-0.2c0.3-0.1,0.7-0.3,1.1-0.4c6.4-1.2,7-4.1,6.8-6.2c-0.1-2.2-1.1-5.2-8-5.2c-5.8,0-11.6,0-17.4,0l-8.7,0l-12,0
			h-11.9c-7.9,0-15.9,0-23.8,0c-3.8,0-6,1.8-6.3,5c-0.3,3.3,1.5,5.4,5.2,6.2c0.5,0.1,1,0.2,1.6,0.3c0.4,0.1,0.8,0.1,1.2,0.2l1.2,0.2
			v1.3c0,1.1,0,2.3,0,3.4c0,2.7-0.1,5.2,0.1,7.8c0.2,3.6-1.6,4.9-4.3,5.8c-14.5,4.9-22.7,15.2-24.4,30.4c-0.5,4.8,0.7,9.2,3.6,12.5
			c2.8,3.2,7,5.1,11.8,5.2c5.9,0.1,11.8,0.1,17.5,0c4.7,0,7-1.9,7-5.6c0-4.9-4.3-5.7-6.9-5.8c-5-0.1-10.4-0.2-15.7,0
			c-2.3,0.1-3.9-0.4-4.9-1.5c-1.3-1.5-1.2-3.7-1-5.4c1.9-12.1,11.4-19.9,24.3-19.9c28.7,0,57.8,0,86,0h28.3c5.2,0,10.5,0,15.7,0
			c13.5,0,27.3,0,41,0c11.2,0.1,19.9,6.6,22.8,17.1c1,3.6,1.3,6,0,7.7c-1.3,1.7-3.6,2-7.1,2H130.4c-0.4,0-0.8,0-1.2,0
			c-1.1,0-2.1,0-3.1,0.1c-3.4,0.4-5.8,2.8-5.8,5.8c0.1,3.1,2.4,5.3,6,5.5c1,0.1,2.1,0.1,3.2,0c0.4,0,0.8,0,1.2,0h117.5
			c3.9,0,7.8,0,11.7,0c9.6,0,19.5,0,29.2-0.1c4.5-0.1,8.4-1.6,11.2-4.4c2.8-2.9,4.3-6.9,4.2-11.7
			C304.2,272.8,293.2,259.2,278.3,255.9z M201.1,68.9l-0.7,1.3l-23.8-12.7l0.7-1.3c2.3-4.3,4.4-8,6.6-12.1l1-1.9l1.3,0.7
			c7.1,3.8,13.9,7.5,21.1,11.4l1.3,0.7l-2.3,4.3C204.5,62.5,202.8,65.6,201.1,68.9z M162.2,140.3c-0.1,0.2-0.1,0.4-0.1,0.6
			c-0.1,0.4-0.2,0.8-0.4,1.2v0c-3.1,6.1-4.7,9.1-7.4,10c-0.5,0.1-1,0.2-1.5,0.2c-2.4,0-5.4-1.6-10.3-4.3c-1.6-0.9-2.9-1.6-4-2.1
			c-3.4-1.7-5.1-2.6-5.6-4.3c-0.5-1.7,0.4-3.4,2.2-6.7c0.6-1.1,1.4-2.6,2.3-4.3c0.3-0.6,0.6-1.1,1-1.6c0.2-0.3,0.5-0.7,0.7-1
			l0.8-1.2l1.2,0.7c3.4,1.8,6.6,3.6,9.8,5.3c3.6,2,7.2,3.9,10.8,5.8l1,0.6L162.2,140.3z M148.8,254.1H103v-16.5h45.7V254.1z
			 M218.4,254.5v-46h1.5c1.4,0,2.8,0,4.1,0c3.9,0,7.6,0,11.3,0.1c1.4,0,3,1.3,3.6,2.4c5.2,10.2,10.2,20.3,15.5,30.9l6.3,12.5H218.4z
			"/>
	</g>
	<g>
		<path class="st0" d="M110.9,195.5c-0.7-2.6-1.4-5.4-1.9-8.2c-0.4-2.4-0.3-5.1,0.5-7.2c6.4-16.9,2.3-35.6-10.6-47.5
			c-13.8-12.9-29.8-15.9-47.6-9c-16.1,6.3-27,22.6-27,40.5c0,13.4,5.8,25.9,16,34.3c9.8,8.1,22.5,11.3,35,8.9c5.2-1,10-1.5,14.5-1.5
			c5.3,0,10.3,0.7,15.4,2.1c2.1,0.6,4,0.2,5.3-1.1c1.6-1.5,2.1-3.9,1.5-6.4C111.7,198.8,111.3,197.1,110.9,195.5z M99.1,174.5
			c-0.3,1-0.5,1.9-0.7,2.7c-1.6,6.1-1.8,6.8-0.2,15.8l0.6,3.3l-2.8-1.7c-5.8-3.5-10.8-1.8-16,0c-1.3,0.5-2.7,0.9-4,1.3
			c-2.7,0.8-5.4,1.1-8.2,1.1c-5.4,0-10.7-1.4-15.6-4.3c-7.7-4.5-13.4-12.1-15.6-20.9c-0.6-2.5-0.9-5.1-0.9-7.7
			c0-5.8,1.6-11.7,4.8-16.9c4.6-7.6,11.8-12.8,20.3-14.9c8.7-2.1,18-0.5,25.6,4.4c7.2,4.7,12.1,11.7,13.6,19.8
			C101,162,100.6,168.3,99.1,174.5z"/>
	</g>
	<g>
		<path class="st0" d="M83.8,173.9c0,1.3-0.6,2.6-2.2,4.2c-2,2.1-3.8,2.8-12.4-4.5l-1-0.8l-1,0.8c-0.7,0.6-1.3,1.2-2,1.8
			c-4.1,3.9-6.6,6-10.8,2c-2-1.8-2.7-3.6,4.5-12.2l0.8-1l-0.8-1c-7.2-8.4-6.3-10.5-4.2-12.6c1-0.9,1.8-1.6,3-1.6
			c1.9,0,4.5,1.5,9.7,5.7l0.9,0.7l0.9-0.7c0.9-0.7,1.8-1.5,2.6-2.3c3.8-3.6,6.2-5.4,10.3-1.5c2.4,2.3,2.6,4-4.5,12.2l-0.8,0.9l0.7,1
			c0.7,1,1.6,1.9,2.4,2.8C82.3,170.2,83.8,172,83.8,173.9z"/>
	</g>
</g>
</svg>
