<?xml version="1.0" encoding="utf-8"?>
<!-- Generator: Adobe Illustrator 26.0.3, SVG Export Plug-In . SVG Version: 6.00 Build 0)  -->
<svg version="1.1" id="Calque_1" xmlns="http://www.w3.org/2000/svg" xmlns:xlink="http://www.w3.org/1999/xlink" x="0px" y="0px"
	 viewBox="0 0 409.9 410.1" style="enable-background:new 0 0 409.9 410.1;" xml:space="preserve">
<style type="text/css">
	.st0{fill:#FFFFFF;stroke:#FFFFFF;stroke-width:4;stroke-miterlimit:10;}
</style>
<g>
	<g>
		<path class="st0" d="M378.6,320.8c0,7.8,0,15.8-0.1,24.1c0,5.7-4.2,10-9.6,10h0c-5.4,0-9.5-4.2-9.6-10.1c-0.1-2.4-0.1-4.8,0-7.5
			c0-1.3,0-2.7,0-4.1V328l-3.5,3.9c-1,1.1-1.9,2.1-2.8,3.1c-1.7,1.9-3.2,3.6-4.8,5.2c-30.8,32.1-68.4,52.1-111.7,59.6
			c-4.5,0.8-9.2,1.3-13.8,1.9c-2.1,0.2-4.3,0.5-6.4,0.8h-23.1l-2.4-0.3c-2-0.2-4-0.5-5.9-0.7c-33.1-3.7-63-14.4-88.8-32
			c-5.1-3.5-10-7.1-14.7-10.8c-1.3-1.1-2.6-2.2-3.9-3.2c-2.6-2.2-5.1-4.4-7.6-6.7c-1.8-1.7-3.6-3.5-5.4-5.2
			c-0.6-0.6-1.2-1.2-1.8-1.8c-1.2-1.2-2.3-2.4-3.4-3.6c-4.2-4.5-8.1-9.2-11.8-14c-9.2-12-16.9-25.1-23-39.1c-0.7-1.5-1.3-3-1.9-4.5
			c-0.6-1.5-1.2-3.1-1.8-4.6c-0.3-0.8-0.6-1.5-0.9-2.3c-0.6-1.6-1.1-3.1-1.7-4.7c-0.5-1.6-1-3.2-1.5-4.8c-0.5-1.6-1-3.2-1.4-4.9
			c-1.9-6.5-3.4-13.2-4.7-20.1c-0.4-2.1-0.7-4.3-1-6.4c-0.1-0.9-0.2-1.8-0.4-2.7c0-0.2,0-0.3-0.1-0.5c-0.2-1.9-0.5-3.8-0.7-5.7
			c-0.1-1.2-0.3-2.3-0.4-3.5c-0.2-1.2-0.3-2.4-0.5-3.6v-13.8c0.2-0.2,0.4-0.4,0.5-0.7c2.6-5.1,6.6-7.5,11.2-6.4
			c4.7,1.1,7.3,4.7,7.8,10.9c0.2,2.8,0.4,5.7,0.6,8.5c0.6,8.9,1.2,18.1,3.4,26.9c9.1,37.2,25.4,67.6,48.3,90.5
			c23.4,23.4,53.9,39,90.7,46.5c35,7.1,67.8,4.9,97.7-6.6c29-11.2,55.5-31.3,78.6-59.8c0.4-0.5,0.8-1.1,1.2-1.8
			c0.2-0.3,0.4-0.7,0.7-1.1l2.2-3.3l-11.4,0.7c-3.4,0.2-6.8,0.4-10.1,0.6c-0.7,0-1.3,0.1-2,0.1c-1.5,0.1-3,0.2-4.4,0.2
			c-5.4-0.1-9.5-4-9.8-9.2c-0.2-5.2,3.5-9.6,8.5-9.9c16.8-1.3,32.3-2.2,47.3-3c2.8-0.1,5.3,0.7,7.1,2.5c1.9,1.8,3,4.4,3,7.3
			C378.6,304,378.6,312.2,378.6,320.8z"/>
		<path class="st0" d="M8.4,223.9c-0.1-1.2-0.3-2.4-0.4-3.6c0.1,1.2,0.3,2.3,0.4,3.5c0.2,1.9,0.5,3.8,0.7,5.7
			C8.9,227.7,8.6,225.8,8.4,223.9z M8.4,223.9c-0.1-1.2-0.3-2.4-0.4-3.6c0.1,1.2,0.3,2.3,0.4,3.5c0.2,1.9,0.5,3.8,0.7,5.7
			C8.9,227.7,8.6,225.8,8.4,223.9z"/>
	</g>
	<g>
		<g>
			<path class="st0" d="M284.3,203c-0.8-3.3-3.8-6-8.4-7.6c-9.4-3.2-18.8-6.3-28.2-9.4c-5.5-1.8-10.9-3.6-16.4-5.4
				c-2.5-0.8-4.9-1.7-7.6-2.6l-5.2-1.8l1.7-3.6c0.6-1.3,1.2-2.4,1.7-3.5c8.8-17.7,17.7-35.4,26.5-53.1L259,95
				c1.7-3.5,2.6-6.2,1.6-9.3c-1.1-3.5-3.5-5.8-6.5-6.5c-0.7-0.2-1.3-0.2-2-0.2c-3,0-6.3,1.5-9,4.2c-37.9,37.9-75.8,75.7-113.6,113.6
				c-3.5,3.5-5,7.3-4.2,10.6c0.8,3.3,3.8,6.1,8.6,7.6c11.5,3.9,23,7.7,34.4,11.5l16.4,5.5c0.9,0.3,1.8,0.6,2.8,1l3.4,1.3l-0.9,2
				c-0.3,0.6-0.5,1.2-0.8,1.7c-0.5,1.1-1,2.2-1.5,3.2c-6.2,12.5-12.5,25-18.7,37.5c-6.1,12.2-12.2,24.4-18.3,36.5
				c-1.7,3.5-2.6,6.2-1.8,9.4c0.9,3.1,3.6,5.7,6.8,6.6c3.6,0.9,7.4-0.4,10.7-3.8c23.7-23.8,47.8-47.9,71.1-71.2
				c14.2-14.2,28.5-28.5,42.7-42.7C283.6,210,285,206.3,284.3,203z M197.1,267.5l3.6-9c0.3-0.8,0.6-1.5,0.9-2.2c1.5-3,3-5.9,4.4-8.9
				c2.2-4.3,4.3-8.7,6.5-13c1.9-3.8,2.3-7,1.2-9.7c-1.1-2.7-3.7-4.7-7.9-6.1c-9.2-3.1-18.5-6.2-27.7-9.3c-6.2-2.1-12.5-4.2-18.7-6.2
				c-0.7-0.2-1.3-0.5-1.9-0.7c-0.3-0.1-0.7-0.2-0.9-0.3l-3-1l19.2-19.2c11-11,22-22,33-33l7.5-7.5l-4.6,10.5
				c-0.3,0.8-0.7,1.6-1.1,2.5c-1.5,3-3,6-4.5,9c-1.9,3.8-3.8,7.7-5.7,11.5c-2.2,4.3-2.7,7.9-1.6,10.5c1.1,2.6,3.9,4.7,8.5,6.2
				c11.5,3.9,23,7.7,34.3,11.5l17.1,5.7L197.1,267.5z"/>
		</g>
	</g>
	<g>
		<path class="st0" d="M399.4,211.8c-0.9,1-1.9,1.7-3.1,2.2c-1.2,0.5-2.5,0.8-3.9,0.8h-0.2c-5.7,0-9.6-4.3-9.7-10.7
			c-0.6-41.6-13.8-78.6-39.2-110c-30.8-38-70.1-60-116.7-65.2c-7.9-0.9-15.7-1.3-23.3-1.3c-55.2,0-102.1,23.2-139.5,69.2
			c-0.7,0.9-1.4,1.9-2,2.7c-0.4,0.7-0.4,1.4-0.3,1.8c0,0.1,0,0.2,0,0.3v2.1l7.5-0.5c3.8-0.2,7.7-0.5,11.5-0.7c0.6,0,1.2-0.1,1.8-0.1
			c1.6-0.1,3.1-0.2,4.6-0.2c5.4,0.1,9.5,4.1,9.7,9.3c0.2,5.2-3.6,9.5-8.7,9.8c-17.3,1.3-32.8,2.2-47.3,3c-2.7,0.1-5.2-0.7-7-2.4
			c-1.9-1.8-3-4.5-3-7.5c-0.1-15.8-0.1-31.8,0-49c0-2.8,1.1-5.4,2.9-7.2c1.8-1.8,4.2-2.7,6.8-2.7c5.4,0.1,9.4,4.2,9.5,9.9
			c0.1,2.4,0.1,4.8,0,7.5c0,1.3,0,2.8,0,4.3v5l3.5-3.7c0.6-0.6,1.1-1.2,1.5-1.6c0.7-0.7,1.2-1.3,1.8-1.9
			c31.9-35.5,71-57.1,116.2-64.3c59.7-9.4,113.5,5.8,159.8,45.1c33.8,28.7,55.6,65.4,64.6,109.2c2.2,10.4,3,21.4,3.7,32
			c0.2,2.4,0.3,4.7,0.5,7.1C402.1,207.1,401.2,209.8,399.4,211.8z"/>
	</g>
</g>
</svg>
