<?xml version="1.0" encoding="utf-8"?>
<!-- Generator: Adobe Illustrator 26.0.3, SVG Export Plug-In . SVG Version: 6.00 Build 0)  -->
<svg version="1.1" id="Calque_1" xmlns="http://www.w3.org/2000/svg" xmlns:xlink="http://www.w3.org/1999/xlink" x="0px" y="0px"
	 viewBox="0 0 383.3 384.1" style="enable-background:new 0 0 383.3 384.1;" xml:space="preserve">
<style type="text/css">
	.st0{fill:#0A9642;stroke:#0A9642;stroke-width:3;stroke-miterlimit:10;}
</style>
<g>
	<path class="st0" d="M327.7,301.1c0-0.5-0.1-1.1-0.2-1.6c-0.6-2.7-2.4-4.2-5.1-4.1c-2.7,0.1-4.3,1.6-4.7,4.4
		c-0.2,1.2-0.1,2.4-0.1,3.7c-0.1,9.7,0.3,19.5-0.4,29.2c-0.8,12.8-11.9,22.9-24.6,23c-42.1,0.1-84.3,0.1-126.4,0
		c-6.2,0-11.4-2.4-15.9-6.5c-5.9-5.5-8.2-12.4-8.2-20.4c0.1-57.6,0-115.2,0-172.8c0-1.1-0.2-2.4,0.2-3.3c1-2.9,1.5-6.3,3.4-8.6
		c12.5-15.5,25.2-30.8,37.8-46.1c3.8-4.5,8.6-6.6,14.6-6.6c21,0.1,42,0,63,0c1.2,0,2.4,0.1,3.6,0.2c-1.4,9.7-12.3,21.8-21.4,24.2
		c-0.8-0.9-1.5-1.9-2.4-2.7c-6.6-6.5-17.1-6.1-23.2,0.9c-5.9,6.8-4.9,17.4,2.3,22.9c7.2,5.7,18.7,4.4,22.6-3.8
		c2.8-6.1,7.2-8.8,12.4-11.6c1-0.5,1.9-1.3,2.8-2c7.6-5.8,12.9-13.3,16.7-23.1c0.8,1.3,1.3,2,1.9,2.7c12,14.7,24.1,29.3,36.2,43.9
		c3.6,4.3,5.1,9.1,5.1,14.7c-0.1,38.7-0.1,77.5,0,116.2c0,5.5,1.5,8,5,8c3.5,0,5.2-2.4,5.2-8c0-38.8-0.1-77.7,0-116.6
		c0-8.1-2.4-14.9-7.6-21.2c-8.6-10.3-17-20.8-25.7-31.1c-5.4-6.4-11.3-12.6-16.8-18.9c-0.5-0.6-0.8-1.5-0.8-2.4
		c0-19.1,0.1-38.2,0.1-57.2c0-1.4,0.3-3.3-0.5-4.3c-1.3-1.4-3.3-3.3-4.9-3.2c-1.6,0.1-3.3,2.1-4.4,3.7c-0.6,0.9-0.3,2.6-0.3,4
		c0,16.8,0,33.7,0,50.5c0,1.3-0.1,2.6-0.2,3.9c-23.3,0-46.1-0.1-68.8,0.1c-4.2,0-8.6,0.9-12.4,2.7c-17.1,8-33.9,16.4-50.9,24.6
		c-6.8,3.3-11.6,8.4-14.3,15.5c-6.3,16.2-12.8,32.3-19.1,48.5c-0.5,1.2-0.9,2.4-0.9,3.5c-0.1,2.4,1.1,4.5,3.4,4.7
		c1.7,0.2,3.8-0.7,5.3-1.6c0.9-0.5,1.2-2.1,1.6-3.3c6.3-15.9,12.5-32,19-47.8c1.4-3.2,3.4-6.8,6.2-8.4c8.6-5,17.7-9.1,26.7-13.6
		c-0.2,1.2-0.6,1.9-1.2,2.5c-6.9,8.3-13.6,16.9-20.7,25.1c-6.3,7.1-8.9,15-8.8,24.4c0.2,56.2,0.1,112.5,0.1,168.8v8.9
		c-0.6-0.2-1.3-0.4-1.8-0.6c-16.6-7.3-33.2-14.7-49.8-22.1c-12.3-5.6-17.3-18.3-12.4-30.8c5.2-13.1,10.5-26.2,15.8-39.2
		c5.7-14.1,11.4-28.2,17-42.4c1.6-4.1,0.3-7.3-3.3-8c-3.4-0.6-5.1,1.4-6.2,4.4c-10.8,26.8-21.5,53.5-32.3,80.4
		c-7.7,19.2-0.3,37.2,18.6,45.6c18.4,8.1,36.7,16.3,55,24.4c3.1,1.4,5.5,3.1,7.6,5.8c5.1,6.4,11.9,10.3,19.9,12
		c0.6,0.1,1.3,0.5,1.8,0.6h134.9c0.5-0.2,1-0.5,1.5-0.6c16.4-3.3,28.2-16.3,29.2-33C328,322,327.6,311.6,327.7,301.1z M229.7,130
		c-3.2-0.1-5.6-2.6-5.6-5.9c0.1-3.1,2.5-5.5,5.6-5.5c3.2,0,5.8,2.5,5.8,5.7C235.5,127.4,232.7,130,229.7,130z"/>
	<path class="st0" d="M275.7,201.3c-0.5,0.5-0.9,1-1.4,1.4c-27.8,27.8-55.6,55.6-83.4,83.3c-1.4,1.4-3.3,2.4-5.3,4.1
		c-1.7-1.4-3.5-2.4-4.2-3.7c-0.6-1.4-0.3-3.4,0.2-5.1c0.3-0.9,1.4-1.7,2.3-2.4c27.7-27.7,55.4-55.4,83.1-83.1
		c0.5-0.5,1.1-1.2,1.7-1.6c2.4-2.2,5.2-2.3,7.2-0.3C278,195.9,278,198.8,275.7,201.3z"/>
	<path class="st0" d="M196.1,191.7c-12.4,0-22.3,9.7-22.3,22c0,12.3,9.8,22,22.2,22.1c12.6,0.1,22.6-9.9,22.5-22.2
		C218.4,201.3,208.6,191.7,196.1,191.7z M196.2,225.6c-6.9,0-12.1-5.2-12.1-11.9s5.3-11.9,12.1-11.9c6.9,0,12.2,5.2,12.2,11.9
		C208.4,220.3,203,225.6,196.2,225.6z"/>
	<path class="st0" d="M262.6,245.2c-12.4,0-22.3,9.7-22.3,22s9.8,22,22.2,22.1c12.6,0.1,22.6-9.9,22.5-22.2
		C284.9,254.9,275,245.2,262.6,245.2z M262.6,279.1c-6.9,0-12.1-5.1-12.2-11.8c0-6.7,5.3-11.9,12-12c6.9,0,12.2,5.2,12.2,11.8
		C274.8,273.8,269.5,279.1,262.6,279.1z"/>
</g>
</svg>
