<?xml version="1.0" encoding="utf-8"?>
<!-- Generator: Adobe Illustrator 26.0.3, SVG Export Plug-In . SVG Version: 6.00 Build 0)  -->
<svg version="1.1" id="Calque_1" xmlns="http://www.w3.org/2000/svg" xmlns:xlink="http://www.w3.org/1999/xlink" x="0px" y="0px"
	 viewBox="0 0 494 494" style="enable-background:new 0 0 494 494;" xml:space="preserve">
<style type="text/css">
	.st0{fill:#FFFFFF;}
</style>
<g>
	<path class="st0" d="M400.4,421.4c-15.6-5.5-31.2-11.1-46.8-16.8c-2.8-1-4-0.7-5.5,2.1c-7.3,13.8-14.9,27.4-22.4,41.2
		c-1.3,2.5-2.9,4.7-5,6.5c2.8-5.3,5.9-10.4,8.8-15.7c5.7-10.6,11.4-21.1,17.3-31.6c2.6-4.5,3-4.8,8.1-3
		c14.4,5.1,28.7,10.4,43.2,15.4c3,1,6.2,2.7,9-0.4c2.7-3,1-6.1-0.2-9.1c-14.5-37.8-28.8-75.7-43.3-113.5c-2.3-6-2.1-6.3,2.9-10.6
		c11.7-10,16.1-22.7,13.2-37.8c-2.3-11.7,0.1-21.7,9.2-29.7c7.7-6.8,12.7-15,13.8-25.3c1.2-10.9-1.7-20.6-8.8-28.9
		c-1.6-1.9-3.3-3.5-5.2-5.2c-8.9-8-11.5-17.9-9-29.4c1.9-9.3,0.9-18.3-3.8-26.6c-6.5-11.6-16.5-18.5-29.7-20
		c-12.8-1.4-21.8-7.3-27.3-19.1c-9.8-20.9-33.4-28.8-54.1-18.5c-4.1,2-8.1,4.2-12.7,5.1c-6.4,1.1-12.3,0.1-18.1-2.7
		c-5.2-2.5-10.3-5.4-16.2-6.3c-18.3-2.9-35.2,5.7-42.9,22.6c-5.3,11.6-14.2,17.5-26.7,18.8c-22.8,2.3-38.5,23.3-34.3,45.8
		c0.8,4.3,1.4,8.5,0.8,12.9c-0.9,6.4-3.7,11.8-8.4,16.2c-5.4,5.1-10.6,10.3-13.1,17.7c-5,14.9-2.4,28.2,8.4,39.7
		c4.3,4.5,9.2,8.4,11.4,14.5c2.2,6,2.3,12.1,1,18.3c-2,9.5-0.6,18.5,4,27c2.6,4.7,6.1,8.6,10.4,11.7c3.1,2.2,3.7,4.5,2.4,7.9
		c-4.9,12.7-9.7,25.5-14.6,38.2c-10.1,26.3-20,52.8-30.2,79.1c-1,2.7-1.4,5.3,0.9,7.5c2.2,2.1,4.7,1.6,7.2,0.7
		c14.5-5.2,29-10.3,43.5-15.6c6.1-2.2,6.5-2.3,9.6,3.3c7.5,13.3,14.7,26.7,21.9,40.1c1.2,2.2,3.4,3.8,3.8,6.5
		c-2.2-1.8-3.7-4.1-5-6.5c-7.5-13.9-15.1-27.6-22.6-41.5c-1.3-2.3-2.4-2.8-4.9-1.8c-15.2,5.6-30.4,11-45.6,16.5
		c-3.2,1.1-6.3,2-9-0.8c-2.7-2.8-1.9-5.8-0.7-9c14.9-39,29.7-77.9,44.6-116.9c1.1-2.9,1-4.4-1.8-6.5c-12.9-9.9-18.4-23.1-15.2-39.1
		c2.5-12.4-0.5-22.3-10.2-30.8c-17.6-15.4-17.5-42.9,0-58.3c9.7-8.5,12.8-18.4,10.1-30.8c-4.8-22.6,11.8-44.9,34.9-47
		c12.5-1.1,21-7,26.3-18.5c10.2-22,36.1-30.1,57.1-18.1c10.6,6.1,20.8,6,31.4,0c21.3-12,46.9-4,57.2,18.1
		c5.3,11.4,13.8,17.4,26.3,18.5c23.1,2.1,39.7,24.3,34.9,47c-2.6,12.4,0.4,22.3,10.1,30.8c17.6,15.4,17.6,42.8,0.1,58.3
		c-9.6,8.5-12.7,18.3-10.2,30.7c3.2,16.2-2.4,29.5-15.5,39.5c-2.5,1.9-2.6,3.3-1.6,5.9c14.8,38.6,29.5,77.1,44.2,115.7
		c0.7,1.8,1.5,3.5,1.8,5.4C410.4,419.9,405.6,423.2,400.4,421.4z"/>
	<path class="st0" d="M303.7,171.3c-1.2-3.3-4-4-7.1-4.5c-9-1.3-17.9-2.7-26.8-3.9c-2.2-0.3-3.2-1.2-4.2-3.1
		c-3.9-8.1-8-16.1-11.9-24.2c-1.4-2.9-3.4-5-6.7-5c-3.4,0-5.3,2.1-6.7,5c-3.9,8.1-8,16.1-11.9,24.2c-0.9,1.9-2,2.8-4.2,3
		c-9.1,1.2-18.2,2.6-27.3,3.9c-2.9,0.4-5.6,1.3-6.6,4.5c-1.1,3.2,0.2,5.7,2.5,7.9c6.5,6.1,12.7,12.5,19.2,18.6
		c2,1.8,2.6,3.5,2.1,6.3c-1.9,9.4-3.3,18.8-4.9,28.3c-0.4,5.5,4.8,8.7,10,6.1c8.4-4.3,16.8-8.6,25-13.1c2-1.1,3.6-1.1,5.6,0
		c8.2,4.4,16.4,8.7,24.6,13c2.6,1.4,5.1,1.7,7.6-0.1c2.4-1.8,3-4.2,2.5-7.2c-1.6-9.1-3.1-18.3-4.8-27.5c-0.4-2.3,0-3.7,1.7-5.3
		c6.6-6.2,13-12.6,19.5-18.8C303.4,177.3,304.8,174.7,303.7,171.3z M269.3,192c-2.7,2.7-4,5.4-3.1,9.3c1.4,6.4,2.2,12.9,3.4,19.8
		c-6.2-3.3-12.1-6.2-17.8-9.4c-3.3-1.8-6.2-1.8-9.5,0c-5.7,3.2-11.6,6.1-17.9,9.4c1.2-7.3,2.2-14,3.5-20.6c0.7-3.3-0.4-5.7-2.6-8
		c-4.6-4.9-9.1-9.8-13.6-14.6c6-0.9,12.8-2,19.5-2.9c3.2-0.4,5.2-2,6.5-4.7c2.9-6,5.9-12,9.3-18.8c2.9,5.8,5.8,10.8,8,16.2
		c2.1,5.4,5.8,7.5,11.4,7.9c5.6,0.4,11.2,1.5,16.2,2.2C278.2,182.7,273.9,187.5,269.3,192z"/>
	<path class="st0" d="M247,91.5c-53.8,0-97.4,43.6-97.4,97.3c0,53.5,43.7,97.1,97.1,97.1c54,0,97.7-43.6,97.6-97.5
		C344.3,135,300.5,91.5,247,91.5z M247.5,272.9c-46.4,0.2-84.8-37.3-85-83.1c-0.2-47.5,37.2-85.1,84.8-85.3
		c45.9-0.2,83.8,37.8,84,84.1C331.5,234.7,293.7,272.7,247.5,272.9z"/>
	<path class="st0" d="M409.8,415c-0.2-1.8-1.1-3.6-1.8-5.4c-14.7-38.6-29.4-77.2-44.2-115.7c-1-2.6-0.9-4,1.6-5.9
		c13.1-9.9,18.7-23.2,15.5-39.5c-2.5-12.4,0.6-22.2,10.2-30.7c17.6-15.5,17.5-42.9-0.1-58.3c-9.7-8.5-12.7-18.4-10.1-30.8
		c4.8-22.7-11.8-44.9-34.9-47c-12.5-1.1-21-7-26.3-18.5c-10.2-22-35.9-30.1-57.2-18.1c-10.6,6-20.8,6-31.4,0
		c-21-12-47-3.9-57.1,18.1c-5.3,11.4-13.8,17.3-26.3,18.5c-23.1,2.1-39.7,24.4-34.9,47c2.6,12.4-0.5,22.3-10.1,30.8
		c-17.6,15.4-17.6,42.9,0,58.3c9.6,8.5,12.7,18.3,10.2,30.8c-3.2,16,2.3,29.3,15.2,39.1c2.8,2.1,2.9,3.6,1.8,6.5
		c-14.9,38.9-29.7,77.9-44.6,116.9c-1.2,3.2-2,6.2,0.7,9c2.7,2.8,5.9,1.9,9,0.8c15.2-5.5,30.4-10.9,45.6-16.5
		c2.5-0.9,3.6-0.5,4.9,1.8c7.4,13.9,15.1,27.7,22.6,41.5c1.3,2.5,2.8,4.7,5,6.5h4.9c2.7-0.7,4.2-2.6,5.2-5.1
		c2.8-7.3,5.6-14.6,8.4-21.9c11-28.9,22-57.8,33-86.6c0.7-1.9,1.2-4.1,3-5.2c4.7-2.6,9.3-5.5,14.8-6.4c6.5-1,12.4,0.4,18.4,3.2
		c4.9,2.3,7.9,5.5,9.6,10.6c4.4,12.6,9.4,25,14.2,37.5c8.7,22.8,17.4,45.7,26.1,68.5c1,2.7,2.3,4.8,5.3,5.5h4.9c2.1-1.9,3.7-4,5-6.5
		c7.4-13.7,15-27.4,22.4-41.2c1.5-2.7,2.7-3.1,5.5-2.1c15.6,5.7,31.2,11.3,46.8,16.8C405.6,423.2,410.4,419.9,409.8,415z
		 M125.7,250.4c3.6-16.5-0.9-30.3-13.6-41.5c-12.7-11.2-12.7-29.2,0.1-40.5c12.7-11.2,17.1-25,13.5-41.5
		c-3.4-15.6,7.3-30.6,23.3-32.2c17.4-1.8,29.6-10.2,37-26.1c7-15.1,24.2-20.4,39-12c12.6,7.1,25.4,8.3,38.8,2.6
		c1.7-0.7,3.4-1.7,5-2.6c15.4-8.4,32.4-3,39.7,13c5.9,12.7,15.4,20.8,29.1,24c2.5,0.6,5.1,0.8,7.6,1.1c13.4,1.7,23.5,13,23.7,26.6
		c-0.3,2-0.4,4-0.8,6c-3.5,16.3,0.9,30,13.5,41.1c10.4,9.2,12.5,23.1,5.5,34.4c-1.5,2.4-3.4,4.5-5.6,6.4c-12.7,11-17,24.8-13.5,41.1
		c2.9,13.5-4.2,26.3-17.1,31.1c-2.4,0.9-4.9,1.3-7.5,1.6c-16.8,1.7-28.5,10.3-35.5,25.7c-4.9,10.8-15.1,16.7-26.7,16.1
		c-4.5-0.2-8.7-1.7-12.6-3.9c-14.5-8.3-28.9-8.2-43.5-0.1c-15.6,8.7-32.4,3.1-40-13c-6.7-14.4-17.8-22.5-33.6-24.6
		c-14.5-1.9-23-9-26-21.1C124.8,258.1,124.9,254.3,125.7,250.4z M174.5,432.4c-6.4-11.6-12.4-22.7-18.4-33.8
		c-6.1-11.2-6.1-11.2-18-6.9c-11.8,4.2-23.6,8.4-35.4,12.7c-0.7-1.2,0-2.1,0.3-3c13.1-34.4,26.2-68.9,39.3-103.3
		c0.8-2.1,1.6-2.8,4.2-2.7c13.7,0.8,22.6,7.5,28.3,20c6.4,13.7,18.1,20.6,33,22.2c0.7,0.1,1.3,0.1,2,0.2c0.1,0,0.3,0.1,0.7,0.3
		C198.6,369.3,186.7,400.5,174.5,432.4z M319.4,432.3c-12.1-31.7-24-62.9-36-94.5c9.4-0.6,17.9-3.3,25.1-9.1
		c4.8-3.9,8.8-8.5,11.1-14.2c5.4-13.1,15.6-18.5,29.1-19.3c2.7-0.2,2.3,1.8,2.8,3c9.5,24.7,18.9,49.5,28.4,74.2
		c4,10.4,7.9,20.8,12.2,32.1c-12-4.3-23.1-8.2-34.2-12.2c-2.5-0.9-5-1.9-7.6-2.8c-4.7-1.6-7.3-0.7-9.7,3.7
		c-6.5,11.9-13,23.9-19.6,35.8C320.7,430.1,320.2,430.9,319.4,432.3z"/>
	<path class="st0" d="M315.9,454.4c-3-0.7-4.3-2.9-5.3-5.5c-8.7-22.8-17.4-45.7-26.1-68.5c-4.8-12.5-9.8-24.9-14.2-37.5
		c-1.8-5.1-4.7-8.3-9.6-10.6c-6-2.8-11.9-4.2-18.4-3.2c-5.5,0.9-10.1,3.8-14.8,6.4c-1.9,1-2.3,3.3-3,5.2c-11,28.9-22.1,57.7-33,86.6
		c-2.8,7.3-5.6,14.6-8.4,21.9c-1,2.6-2.4,4.5-5.2,5.1c2.4-1.8,3.8-4.3,4.8-7.1c13.3-35.2,26.8-70.3,40-105.6
		c1.7-4.5,4.1-7.5,8.5-9.7c6.5-3.2,12.9-5.1,20.2-4c6.1,0.9,10.9,4.5,16.3,6.9c1.3,0.5,1.3,2.3,1.8,3.5
		c13.8,36.3,27.7,72.6,41.5,108.9C312.2,450.1,313.5,452.5,315.9,454.4z"/>
	<path class="st0" d="M303.7,171.3c-1.2-3.3-4-4-7.1-4.5c-9-1.3-17.9-2.7-26.8-3.9c-2.2-0.3-3.2-1.2-4.2-3.1
		c-3.9-8.1-8-16.1-11.9-24.2c-1.4-2.9-3.4-5-6.7-5c-3.4,0-5.3,2.1-6.7,5c-3.9,8.1-8,16.1-11.9,24.2c-0.9,1.9-2,2.8-4.2,3
		c-9.1,1.2-18.2,2.6-27.3,3.9c-2.9,0.4-5.6,1.3-6.6,4.5c-1.1,3.2,0.2,5.7,2.5,7.9c6.5,6.1,12.7,12.5,19.2,18.6
		c2,1.8,2.6,3.5,2.1,6.3c-1.9,9.4-3.3,18.8-4.9,28.3c-0.4,5.5,4.8,8.7,10,6.1c8.4-4.3,16.8-8.6,25-13.1c2-1.1,3.6-1.1,5.6,0
		c8.2,4.4,16.4,8.7,24.6,13c2.6,1.4,5.1,1.7,7.6-0.1c2.4-1.8,3-4.2,2.5-7.2c-1.6-9.1-3.1-18.3-4.8-27.5c-0.4-2.3,0-3.7,1.7-5.3
		c6.6-6.2,13-12.6,19.5-18.8C303.4,177.3,304.8,174.7,303.7,171.3z M269.3,192c-2.7,2.7-4,5.4-3.1,9.3c1.4,6.4,2.2,12.9,3.4,19.8
		c-6.2-3.3-12.1-6.2-17.8-9.4c-3.3-1.8-6.2-1.8-9.5,0c-5.7,3.2-11.6,6.1-17.9,9.4c1.2-7.3,2.2-14,3.5-20.6c0.7-3.3-0.4-5.7-2.6-8
		c-4.6-4.9-9.1-9.8-13.6-14.6c6-0.9,12.8-2,19.5-2.9c3.2-0.4,5.2-2,6.5-4.7c2.9-6,5.9-12,9.3-18.8c2.9,5.8,5.8,10.8,8,16.2
		c2.1,5.4,5.8,7.5,11.4,7.9c5.6,0.4,11.2,1.5,16.2,2.2C278.2,182.7,273.9,187.5,269.3,192z"/>
	<path class="st0" d="M247,91.5c-53.8,0-97.4,43.6-97.4,97.3c0,53.5,43.7,97.1,97.1,97.1c54,0,97.7-43.6,97.6-97.5
		C344.3,135,300.5,91.5,247,91.5z M247.5,272.9c-46.4,0.2-84.8-37.3-85-83.1c-0.2-47.5,37.2-85.1,84.8-85.3
		c45.9-0.2,83.8,37.8,84,84.1C331.5,234.7,293.7,272.7,247.5,272.9z"/>
	<path class="st0" d="M303.7,171.3c-1.2-3.3-4-4-7.1-4.5c-9-1.3-17.9-2.7-26.8-3.9c-2.2-0.3-3.2-1.2-4.2-3.1
		c-3.9-8.1-8-16.1-11.9-24.2c-1.4-2.9-3.4-5-6.7-5c-3.4,0-5.3,2.1-6.7,5c-3.9,8.1-8,16.1-11.9,24.2c-0.9,1.9-2,2.8-4.2,3
		c-9.1,1.2-18.2,2.6-27.3,3.9c-2.9,0.4-5.6,1.3-6.6,4.5c-1.1,3.2,0.2,5.7,2.5,7.9c6.5,6.1,12.7,12.5,19.2,18.6
		c2,1.8,2.6,3.5,2.1,6.3c-1.9,9.4-3.3,18.8-4.9,28.3c-0.4,5.5,4.8,8.7,10,6.1c8.4-4.3,16.8-8.6,25-13.1c2-1.1,3.6-1.1,5.6,0
		c8.2,4.4,16.4,8.7,24.6,13c2.6,1.4,5.1,1.7,7.6-0.1c2.4-1.8,3-4.2,2.5-7.2c-1.6-9.1-3.1-18.3-4.8-27.5c-0.4-2.3,0-3.7,1.7-5.3
		c6.6-6.2,13-12.6,19.5-18.8C303.4,177.3,304.8,174.7,303.7,171.3z M269.3,192c-2.7,2.7-4,5.4-3.1,9.3c1.4,6.4,2.2,12.9,3.4,19.8
		c-6.2-3.3-12.1-6.2-17.8-9.4c-3.3-1.8-6.2-1.8-9.5,0c-5.7,3.2-11.6,6.1-17.9,9.4c1.2-7.3,2.2-14,3.5-20.6c0.7-3.3-0.4-5.7-2.6-8
		c-4.6-4.9-9.1-9.8-13.6-14.6c6-0.9,12.8-2,19.5-2.9c3.2-0.4,5.2-2,6.5-4.7c2.9-6,5.9-12,9.3-18.8c2.9,5.8,5.8,10.8,8,16.2
		c2.1,5.4,5.8,7.5,11.4,7.9c5.6,0.4,11.2,1.5,16.2,2.2C278.2,182.7,273.9,187.5,269.3,192z"/>
	<path class="st0" d="M247,91.5c-53.8,0-97.4,43.6-97.4,97.3c0,53.5,43.7,97.1,97.1,97.1c54,0,97.7-43.6,97.6-97.5
		C344.3,135,300.5,91.5,247,91.5z M247.5,272.9c-46.4,0.2-84.8-37.3-85-83.1c-0.2-47.5,37.2-85.1,84.8-85.3
		c45.9-0.2,83.8,37.8,84,84.1C331.5,234.7,293.7,272.7,247.5,272.9z"/>
	<path class="st0" d="M303.7,171.3c-1.2-3.3-4-4-7.1-4.5c-9-1.3-17.9-2.7-26.8-3.9c-2.2-0.3-3.2-1.2-4.2-3.1
		c-3.9-8.1-8-16.1-11.9-24.2c-1.4-2.9-3.4-5-6.7-5c-3.4,0-5.3,2.1-6.7,5c-3.9,8.1-8,16.1-11.9,24.2c-0.9,1.9-2,2.8-4.2,3
		c-9.1,1.2-18.2,2.6-27.3,3.9c-2.9,0.4-5.6,1.3-6.6,4.5c-1.1,3.2,0.2,5.7,2.5,7.9c6.5,6.1,12.7,12.5,19.2,18.6
		c2,1.8,2.6,3.5,2.1,6.3c-1.9,9.4-3.3,18.8-4.9,28.3c-0.4,5.5,4.8,8.7,10,6.1c8.4-4.3,16.8-8.6,25-13.1c2-1.1,3.6-1.1,5.6,0
		c8.2,4.4,16.4,8.7,24.6,13c2.6,1.4,5.1,1.7,7.6-0.1c2.4-1.8,3-4.2,2.5-7.2c-1.6-9.1-3.1-18.3-4.8-27.5c-0.4-2.3,0-3.7,1.7-5.3
		c6.6-6.2,13-12.6,19.5-18.8C303.4,177.3,304.8,174.7,303.7,171.3z M269.3,192c-2.7,2.7-4,5.4-3.1,9.3c1.4,6.4,2.2,12.9,3.4,19.8
		c-6.2-3.3-12.1-6.2-17.8-9.4c-3.3-1.8-6.2-1.8-9.5,0c-5.7,3.2-11.6,6.1-17.9,9.4c1.2-7.3,2.2-14,3.5-20.6c0.7-3.3-0.4-5.7-2.6-8
		c-4.6-4.9-9.1-9.8-13.6-14.6c6-0.9,12.8-2,19.5-2.9c3.2-0.4,5.2-2,6.5-4.7c2.9-6,5.9-12,9.3-18.8c2.9,5.8,5.8,10.8,8,16.2
		c2.1,5.4,5.8,7.5,11.4,7.9c5.6,0.4,11.2,1.5,16.2,2.2C278.2,182.7,273.9,187.5,269.3,192z"/>
	<path class="st0" d="M303.7,171.3c-1.2-3.3-4-4-7.1-4.5c-9-1.3-17.9-2.7-26.8-3.9c-2.2-0.3-3.2-1.2-4.2-3.1
		c-3.9-8.1-8-16.1-11.9-24.2c-1.4-2.9-3.4-5-6.7-5c-3.4,0-5.3,2.1-6.7,5c-3.9,8.1-8,16.1-11.9,24.2c-0.9,1.9-2,2.8-4.2,3
		c-9.1,1.2-18.2,2.6-27.3,3.9c-2.9,0.4-5.6,1.3-6.6,4.5c-1.1,3.2,0.2,5.7,2.5,7.9c6.5,6.1,12.7,12.5,19.2,18.6
		c2,1.8,2.6,3.5,2.1,6.3c-1.9,9.4-3.3,18.8-4.9,28.3c-0.4,5.5,4.8,8.7,10,6.1c8.4-4.3,16.8-8.6,25-13.1c2-1.1,3.6-1.1,5.6,0
		c8.2,4.4,16.4,8.7,24.6,13c2.6,1.4,5.1,1.7,7.6-0.1c2.4-1.8,3-4.2,2.5-7.2c-1.6-9.1-3.1-18.3-4.8-27.5c-0.4-2.3,0-3.7,1.7-5.3
		c6.6-6.2,13-12.6,19.5-18.8C303.4,177.3,304.8,174.7,303.7,171.3z M269.3,192c-2.7,2.7-4,5.4-3.1,9.3c1.4,6.4,2.2,12.9,3.4,19.8
		c-6.2-3.3-12.1-6.2-17.8-9.4c-3.3-1.8-6.2-1.8-9.5,0c-5.7,3.2-11.6,6.1-17.9,9.4c1.2-7.3,2.2-14,3.5-20.6c0.7-3.3-0.4-5.7-2.6-8
		c-4.6-4.9-9.1-9.8-13.6-14.6c6-0.9,12.8-2,19.5-2.9c3.2-0.4,5.2-2,6.5-4.7c2.9-6,5.9-12,9.3-18.8c2.9,5.8,5.8,10.8,8,16.2
		c2.1,5.4,5.8,7.5,11.4,7.9c5.6,0.4,11.2,1.5,16.2,2.2C278.2,182.7,273.9,187.5,269.3,192z"/>
</g>
</svg>
