<?xml version="1.0" encoding="utf-8"?>
<!-- Generator: Adobe Illustrator 26.0.3, SVG Export Plug-In . SVG Version: 6.00 Build 0)  -->
<svg version="1.1" id="Calque_1" xmlns="http://www.w3.org/2000/svg" xmlns:xlink="http://www.w3.org/1999/xlink" x="0px" y="0px"
	 viewBox="0 0 494 494" style="enable-background:new 0 0 494 494;" xml:space="preserve">
<style type="text/css">
	.st0{fill:#FEFEFE;}
	.st1{fill:#FFC552;}
	.st2{fill:#F5C8A3;}
	.st3{fill:#A1C877;}
	.st4{fill:#EFB88F;}
	.st5{fill:#8C9BA7;}
	.st6{fill:#F0BA92;}
	.st7{fill:#F0BB93;}
	.st8{fill:#F2C09A;}
	.st9{fill:#F2C099;}
	.st10{fill:#F3C19A;}
	.st11{fill:#F3C29C;}
	.st12{fill:#F1BE96;}
	.st13{fill:#EFB990;}
</style>
<g>
	<path class="st0" d="M146.1,229.2c0.2-59.4,48.6-107.4,108-107.2c59.2,0.2,106.9,48.5,106.8,107.8
		c-0.1,59.5-48.4,107.6-107.7,107.4C193.9,337.1,145.9,288.7,146.1,229.2z"/>
	<path class="st0" d="M451.8,386.7c-46,29.7-91.9,59.6-138,89.1c-8.8,5.6-19.3,7.3-29.6,9.1c-20.4,3.4-39.2-3.1-58.3-8.4
		c-25-7.1-50.1-14-75.2-20.8c-11.2-3-21,1.3-30.5,6.7c-4.6,2.6-9.3,5-14,7.4c-0.1,0.8-0.2,1.6-0.2,2.3c-0.2,9.1-0.2,9.1-9.5,8.9
		c-16.3-0.4-32.6-0.9-48.9-1.2c-3.9-0.1-5.2-1.1-5-5.3c1.4-43.3,2.6-86.6,3.7-129.9c0.1-2.9,0.8-3.7,3.7-3.6
		c18.8,0.7,37.6,1.2,56.3,1.6c2.7,0.1,3.5,1,3.3,3.6c-0.3,4.8-0.3,9.6-0.4,14.4c16.1-10.2,33.7-15.3,52.6-15.9h0
		c2.3-1.2,4.5-1.2,6.8,0c17.7,0.6,34,5.8,49.5,14.2c6.7,3.6,13.7,6.1,21.3,6.5c0,0,0,0,0.1,0c0,0,0,0-0.1,0c2.8,0.1,5.8-0.7,8.5,0.7
		c6.5-0.1,12.9-0.1,19.4,1c5.1-1.5,10.1-1.2,15.2,0c5.8,0,11.7-0.3,17.5,1c2.6-1.5,5.1-1.1,7.7,0c7.6,1.3,14.9,3.5,21.3,8
		c8.9,6.3,15.6,14.3,19.7,24.5c0,0,0,0,0,0c0,0,0,0,0,0c3.9,0.1,7-2.3,10.3-3.8c18-8.3,35.9-16.9,53.9-25.4
		c13.7-6.5,31.8-1.7,39.8,10.5C454,384.1,454.2,385.1,451.8,386.7z"/>
	<path class="st1" d="M360.9,229.8c-0.1,59.5-48.4,107.6-107.7,107.4c-59.3-0.2-107.3-48.6-107.1-108.1
		c0.2-59.4,48.6-107.4,108-107.2C313.2,122.2,361,170.5,360.9,229.8z"/>
	<path class="st2" d="M451.8,386.7c-46,29.7-91.9,59.6-138,89.1c-8.8,5.6-19.3,7.3-29.6,9.1c-20.4,3.4-39.2-3.1-58.3-8.4
		c-25-7.1-50.1-14-75.2-20.8c-11.2-3-21,1.3-30.5,6.7c-4.6,2.6-9.3,5-14,7.4c-2.9-3.5-1.9-7.8-1.5-11.6c1-9,0.1-18,0.8-26.9
		c1.3-16.1,0-32.2,1.8-48.2c0.1-1.2,0.2-2.5,0.5-3.7c0.3-0.4,0.7-0.7,1-1.1c0,0,0,0,0,0c3.8-3.7,8.7-5.7,13.2-8.2
		c12.4-6.9,25.7-10.8,40.1-10.8c2.3,0.1,4.6,0.1,6.9,0c12.4,0.7,24.2,3.4,35.4,9c6.5,3.3,13,6.7,20,8.9c5.2,1.6,10.5,2.5,16,3
		c2.3,0.7,4.7,0.5,7.1,0.4c7.1,0.1,14.2-0.4,21.4,0.3c3.5,1.1,7.2,0.7,10.8,0.6c5.4,0.1,10.7-0.4,16,0.3c2.8,1,5.8,0.7,8.7,0.7
		c13.5,0.7,25.9,10,30.3,22.5c1.8,5.2,0.7,6.9-4.7,7.1c-2.6,0.1-5.3,0.2-7.9-0.4c-3.7-0.9-7.5-0.4-11.3-0.4
		c-7.2-0.1-14.4,0.4-21.5-0.4c-3.8-1.2-7.7-0.6-11.5-0.6c-8.1,0-16.1,0-24.2,0c-1.4,0-2.8,0-4.2,0.1c-3.4,0.3-6,1.8-6.4,5.5
		c-0.4,3.3,2.2,6.5,5.9,7.2c2.5,0.5,5,0.2,7.4,0.3c4.6,0.1,9.3-0.3,13.9,0.4c4.4,1.1,8.8,0.5,13.2,0.5c6.7,0.1,13.3-0.4,19.9,0.4
		c4.4,1.2,9,0.6,13.5,0.6c5.6,0.1,11.2-0.3,16.8,0.3c3.6,1,7.3,1,11,0.4c3.1-0.7,4.8-2.7,5.8-5.5c0.8-2.7,0.6-5.3-0.1-8
		c-0.5-4-2.6-7.8-1.8-12.1c0,0,0,0,0,0c3.9,0.1,7-2.3,10.3-3.8c18-8.3,35.9-16.9,53.9-25.4c13.7-6.5,31.8-1.7,39.8,10.5
		C454,384.1,454.2,385.1,451.8,386.7z"/>
	<path class="st3" d="M108.9,378.3C108.9,378.4,108.9,378.4,108.9,378.3c-0.9,30.6-1.8,61-2.7,91.5c-0.1,0.8-0.2,1.6-0.2,2.3
		c-0.2,9.1-0.2,9.1-9.5,8.9c-16.3-0.4-32.6-0.9-48.9-1.2c-3.9-0.1-5.2-1.1-5-5.3c1.4-43.3,2.6-86.6,3.7-129.9
		c0.1-2.9,0.8-3.7,3.7-3.6c18.8,0.7,37.6,1.2,56.3,1.6c2.7,0.1,3.5,1,3.3,3.6c-0.3,4.8-0.3,9.6-0.4,14.4
		C110.8,366.6,111.2,372.5,108.9,378.3z"/>
	<path class="st4" d="M351.4,421.4c-0.8,2.9-2.3,5.2-5.6,5.6c-3.7,0.7-7.5,0.7-11.2,0c-5.9,0-11.8,0-17.7,0
		c-4.3-1.3-8.8,0.3-13.1-0.9c-6.8,0-13.7,0-20.5,0c-4.3-1.3-8.8,0.3-13.1-0.9c-6.5,0-13,0-19.5,0c-5.6,0-9.5-3.8-9.4-8.7
		c0.2-4.8,3.3-7.2,9.4-7.2c9,0,18,0,27,0c3.7,1.3,7.5-0.3,11.2,0.9c7.5,0,14.9,0,22.4,0c3.6,1.3,7.5-0.3,11.2,0.9c3.1,0,6.2,0,9.3,0
		c2.7,0.1,3.2-1.2,2.5-3.5c-4-12.4-14.8-22.6-29.5-23.5c-2.7-1.3-5.7,0.3-8.4-0.9c-5.6,0-11.2,0-16.8,0c-3.3-1.3-6.9,0.3-10.3-0.9
		c-7.5,0-14.9,0-22.4,0c-2.1-1.2-4.5,0.3-6.5-0.9c-9.2,0.4-17.7-2.6-25.8-6.5c-10.6-5-20.9-10.8-32.7-12.5c-4.1-0.6-8.2-1-12.4-1.5
		c-2.5-0.8-5-0.8-7.4,0c-16.7,0.1-31.7,5.4-45.6,14.3c-2.3,1.5-4.6,3-7.5,3.4v-0.1c0.1-5.9,0.2-11.8,0.3-17.7
		c16.1-10.2,33.7-15.3,52.6-15.9h0c2.3-0.6,4.5-0.6,6.8,0c17.7,0.6,34,5.8,49.5,14.2c6.7,3.6,13.7,6.1,21.3,6.5c0,0,0,0,0.1,0
		c2.8,1,5.7-0.3,8.4,0.7c6.5-0.1,12.9-0.1,19.4,1c5.1-0.6,10.1-0.6,15.2,0c5.8,0,11.7-0.3,17.5,1c2.6-0.6,5.1-0.6,7.7,0
		c7.6,1.3,14.9,3.5,21.3,8c8.9,6.3,15.6,14.3,19.7,24.5c0,0,0,0,0,0c1.6,3.9,2.4,8,2.8,12.2C352.1,415.8,352.1,418.6,351.4,421.4z"
		/>
	<g>
		<path class="st5" d="M256.2,8.1h-5.6c-4,2.6-5.1,6.4-5.1,11.1c0.2,23.1,0.1,46.3,0.1,69.4c0,1.4,0,2.8,0.2,4.2
			c0.6,4.1,3,6.4,7.1,6.7c4.1,0.3,6.9-1.6,8.1-5.6c0.5-1.7,0.6-3.7,0.6-5.5c0-23-0.1-46,0.1-69C261.7,14.6,260.5,10.7,256.2,8.1z"/>
		<path class="st5" d="M201.8,57c-0.2-5.6-3.2-8.9-8-8.9c-4.9,0-7.8,3.2-7.9,8.9c-0.1,11.2-0.1,22.3,0,33.5c0,5.8,2.9,9,7.6,9.2
			c4.9,0.1,8.1-3.3,8.3-9.2c0.1-5.6,0-11.1,0-16.7S202,62.5,201.8,57z"/>
		<path class="st5" d="M321.3,56.7c-0.1-5.5-3.5-8.8-8.3-8.6c-4.7,0.2-7.5,3.3-7.6,8.7c-0.1,5.6,0,11.2,0,16.7
			c0,5.7-0.1,11.5,0,17.2c0.1,5.5,2.8,8.7,7.4,8.9c4.8,0.2,8.3-3.1,8.4-8.5C321.4,79.6,321.4,68.1,321.3,56.7z"/>
	</g>
	<path class="st2" d="M282.5,367.2c-5.1,0-10.1,0-15.2,0C272.4,365.7,277.4,366,282.5,367.2z"/>
	<path class="st2" d="M248,366.2c-2.8-0.1-5.8,0.9-8.4-0.7c0,0,0,0-0.1,0C242.3,365.6,245.2,364.8,248,366.2z"/>
	<path class="st2" d="M307.7,368.1c-2.6,0-5.1,0-7.7,0C302.5,366.7,305.1,367,307.7,368.1z"/>
	<path class="st2" d="M168.7,344.8h-6.8C164.2,343.6,166.4,343.6,168.7,344.8z"/>
	<path class="st5" d="M219.7,256.4c-0.1-5.5,2.9-9.1,7.6-9.3c4.7-0.2,7.8,3.3,8.3,9.3c0.9,9.6,8,16.4,17.4,16.7
		c9.5,0.2,17-6,18.5-15.5c1.5-9.2-4.8-18-14.1-20.1c-4-0.9-8-0.4-12-1.5c-14-3.7-24.5-15.5-25.6-29.2c-1.3-15.7,6.6-29.4,20.7-35.1
		c3.1-1.3,4.4-2.7,4-6c-0.2-1.5,0-3.1,0.3-4.6c0.8-4,3.3-6.2,7.4-6.4c4-0.2,8.1,2.4,7.8,6.3c-0.5,7.4,3.5,9.5,9.2,12.2
		c11.3,5.4,17.2,15.3,18.1,27.9c0.4,5.6-2.3,9.3-7,9.7c-4.9,0.4-8-2.4-8.8-8.1c-1.8-12.2-9.4-18.7-20.3-17.6
		c-9.2,1-15.9,8.7-15.7,18.3c0.1,9.1,7.1,16.8,16.1,17.5c3.6,0.3,7.1,0.5,10.6,1.4c14.7,4,24.7,16.8,25.2,32.1
		c0.5,14.5-8.8,28-23,32.7c-3.4,1.1-4.3,2.8-4,5.9c0.1,1.4,0,2.8-0.3,4.2c-0.8,4.3-3.5,6.5-7.8,6.6c-3.9,0.1-7.8-2.7-7.5-6.7
		c0.6-7.3-3.1-10.1-9-13.1C225.8,278.7,219.8,267.5,219.7,256.4z"/>
	<path class="st6" d="M270.2,425.1c4.3,0.4,8.8-1,13.1,0.9C278.9,425.6,274.5,427,270.2,425.1z"/>
	<path class="st7" d="M303.8,426c4.3,0.4,8.8-1,13.1,0.9C312.5,426.5,308,428,303.8,426z"/>
	<path class="st8" d="M288.9,410.1c-3.7-0.4-7.6,1-11.2-0.9C281.4,409.7,285.3,408.3,288.9,410.1z"/>
	<path class="st9" d="M322.5,411.1c-3.7-0.4-7.6,1-11.2-0.9C315,410.6,318.9,409.2,322.5,411.1z"/>
	<path class="st10" d="M334.6,427c3.7,0,7.5,0,11.2,0C342.1,428.4,338.3,428.4,334.6,427z"/>
	<path class="st7" d="M269.3,382.2c3.4,0.5,7-1.1,10.3,0.9C276.2,382.6,272.6,384.1,269.3,382.2z"/>
	<path class="st11" d="M296.4,383.1c2.8,0.4,5.8-0.9,8.4,0.9C302,383.6,299,385,296.4,383.1z"/>
	<path class="st12" d="M351.4,421.4c0-2.8,0-5.6,0-8.4C352.9,415.8,352.9,418.6,351.4,421.4z"/>
	<path class="st13" d="M162,360.7c2.5-1.4,5-1.4,7.5,0C167,360.7,164.5,360.7,162,360.7z"/>
	<path class="st6" d="M240.4,381.3c2.2,0.3,4.6-0.9,6.5,0.9C244.7,381.8,242.3,383,240.4,381.3z"/>
</g>
</svg>
