<?xml version="1.0" encoding="utf-8"?>
<!-- Generator: Adobe Illustrator 26.0.3, SVG Export Plug-In . SVG Version: 6.00 Build 0)  -->
<svg version="1.1" id="Calque_1" xmlns="http://www.w3.org/2000/svg" xmlns:xlink="http://www.w3.org/1999/xlink" x="0px" y="0px"
	 viewBox="0 0 384.7 384.1" style="enable-background:new 0 0 384.7 384.1;" xml:space="preserve">
<style type="text/css">
	.st0{fill:#0A9642;}
</style>
<g>
	<g>
		<path class="st0" d="M221.9,116.8c0,10.3-6.4,19.2-16.5,22.9c-4.9,1.8-7.1,4.9-6.9,10c0.1,2.3-0.6,4.2-1.8,5.5
			c-1,1.1-2.5,1.7-4.3,1.7s-3.3-0.6-4.4-1.7c-1.2-1.3-1.8-3.1-1.8-5.4c0.2-6.6-3.6-8.9-7-10.2c-9-3.6-14.3-9.3-16.2-17.7
			c-0.9-3.9,0.9-7.3,4.3-8.2c0.6-0.2,1.2-0.2,1.7-0.2c2.8,0,5.1,2,6,5.3c1.1,3.9,3.4,6.7,7,8.5c3.3,1.6,6.8,2.4,10.3,2.4
			c3.1,0,6.2-0.6,9.2-1.8c4.8-1.9,7.7-5.8,7.8-10.7c0.1-3.4-1.1-8.2-7.5-11.2c-3.6-1.7-7.3-1.9-10.6-2H191c-4.3-0.1-8-0.8-11.3-2
			c-10.5-3.8-17-12.6-17.1-22.9c-0.1-10.5,6.2-19.4,16.5-23.2c4.8-1.8,7-4.9,6.9-10c0-2.3,0.6-4.2,1.8-5.5c1.1-1.1,2.6-1.7,4.3-1.7
			c1.8,0,3.3,0.6,4.4,1.7c1.2,1.2,1.8,3.1,1.8,5.4c-0.2,6.5,3.6,8.9,7,10.2c9,3.6,14.3,9.4,16.1,17.7c0.9,3.8-1,7-4.6,8
			c-0.5,0.1-1,0.2-1.6,0.2c-2.6,0-4.9-2-5.9-5c-2.2-6.9-8.4-11-16.7-11c-0.3,0-0.6,0-0.9,0h-0.1h-0.1c-2.8,0.2-5.9,0.3-8.9,1.7
			c-5.1,2.4-7.7,6-7.8,10.9c0,3.5,1.3,8.3,8,11.3c2.9,1.3,5.8,1.5,8.3,1.6h0.1c5.2,0.3,9.5,0.7,13.5,2.3
			C215.6,97.6,221.9,106.2,221.9,116.8z"/>
	</g>
	<g>
		<path class="st0" d="M257.8,33.3c-17.2-17.5-39.9-27.3-64-27.5H193c-24.7,0-47.9,9.4-65.2,26.6c-17.4,17.1-27,40.1-27.2,64.8
			c-0.4,50.4,40.3,91.9,90.7,92.4h0.9c24.5,0,47.5-9.5,64.8-26.7c17.3-17.2,26.9-40.3,27.1-65C284.3,73.7,275,50.8,257.8,33.3z
			 M192.8,177.1H192c-21.2-0.2-41.1-8.6-56-23.7c-15-15-23.1-34.9-22.9-55.8c0.5-44.5,35.6-79.4,79.9-79.4h0.9
			c20.8,0.2,40.3,8.7,55.1,23.8c14.9,15.3,23,35.3,22.7,56.4C271.2,141.8,235.8,177.1,192.8,177.1z"/>
	</g>
	<g>
		<path class="st0" d="M172.4,308.8c0-3.4-2.5-5.8-6.1-6h-0.7c-0.6,0-1.1,0-1.6,0c-0.4,0-0.8,0-1.1,0.1c-0.5,0.1-1,0.1-1.4,0.1
			c-2.6,0-4.2-1.1-5.1-2c-2.1-2.2-1.9-5.1-1.9-6.2c0.2-4.5,0.4-9.2,0.5-13.7c0.2-4.8,0.3-9.8,0.6-14.7c0.9-16.8-4.4-30.5-16.2-42
			c-4.6-4.5-9.2-9.1-13.6-13.6c-8.4-8.4-17.2-17.2-26-25.4c-8.2-7.7-12.4-15.7-13.4-25.9c-1.3-13.7-3.2-27.7-5-41.2
			C79.7,106,78,93.2,76.7,80.5C75.2,64.8,68.6,55.1,55.3,49c-1.8-0.8-3.7-1.3-5.6-1.3c-5.6,0-10,3.7-11.1,9.2
			c-1.5,7.8-2.9,15.8-4.3,23.4c-0.6,3.1-1.1,6.1-1.7,9.2c-1.7,9.2-3.3,18.4-5,27.6c-5.6,30.7-11.3,62.4-17.1,93.6
			c-0.8,4.1-0.2,7.1,2,10.3c14.5,21,29.1,42.4,43.2,63.1l4.9,7.2c0.1,0.1,0.1,0.2,0.2,0.3c0.8,1,2.7,3.2,2.3,6.5v4.7H49.7
			c-3.5,0-5.8,0.6-6.9,1.8c-1.2,1.2-1.8,3.6-1.8,7.1c0,5.4,0,10.8,0,16.2c0,13.5,0.1,27.4-0.1,41.1c-0.1,5.9,1.6,8.3,4.5,9.9H168
			c3.7-2.1,4.5-3.9,4.5-6.2c0-5.8,0-11.6,0-17.4C172.5,340.1,172.5,324.3,172.4,308.8z M57.6,264.8c-10.3-15.1-21-30.8-31.6-46.2
			c-2.3-3.3-3-6.7-2.3-10.7c2.6-13.9,5.1-28,7.6-41.7c1.7-9.4,3.4-18.7,5.1-28.1c2.9-15.8,5.8-31.7,8.7-47.6L49.2,68l1.3-7l6.2,3.6
			c5.7,3.3,6.5,9.2,6.8,11.5c1.8,13.4,3.6,27.1,5.3,40.3l0.6,5c0.7,5.2,1.3,10.3,2,15.5c1.4,11.2,2.9,22.8,4.4,34.1
			c0.4,3.1,0.5,7.2-2.9,11.4c-8.3,10.3-9.4,20.8-3.5,33c6.4,13.2,12.6,26.8,18.6,40c1.5,3.4,3.1,6.8,4.6,10.2
			c1.8,3.9,3.8,4.6,5.6,4.8c0.2,0,0.5,0,0.7,0c2.1,0,3.9-1,5-2.7c1.2-1.9,1.3-4.2,0.3-6.5c-3.9-8.7-8-17.5-12-26
			c-1.7-3.7-3.5-7.5-5.2-11.2c-1.5-3.2-3-6.4-4.5-9.6l-3-6.6c-2.5-5.4-1.9-10.6,1.7-16l3.4-5l4.3,4.3c4.3,4.4,8.6,8.7,12.9,13
			c10.5,10.6,21.4,21.5,31.8,32.4c6.6,6.8,9.7,15.8,9.5,26.6c-0.1,5.6-0.3,11.2-0.6,16.7c-0.2,5.1-0.4,10.3-0.5,15.4
			c-0.1,4.8-2.9,7.5-7.7,7.5h-0.1c-7.5,0-15.4-0.1-24.1-0.1c-7.1,0-14.8,0-24.1,0h-0.1c-5.2,0-7.2-3.2-7.9-5.9
			c-0.9-3.2-2.8-6.1-5-9.3C68,280,62.8,272.5,57.6,264.8z M158.1,364.5c-2,2-4.6,2-5.9,2h-0.1c-6.6,0-13.6-0.1-22.8-0.1h-11.4
			c-3.8,0-7.6,0-11.4,0c-3.9,0-7.8,0-11.6,0c-3.9,0-7.8,0-11.6,0c-8.6,0-15.3,0-21.5,0.1h-0.2c-1.9,0-4.2-0.2-6.1-2.1
			c-2.1-2.1-2.1-5.1-2.1-6.2c0.2-12.6,0.1-24.8,0-35c0-1.2,0-3.9,2-5.9c1.8-1.8,4.2-2.1,5.8-2.1c15.4,0.1,31.3,0.1,48.5,0.1
			c13.3,0,27.3,0,42.7,0h0.1c1,0,3.7,0,5.7,2s2,4.8,2,5.7c-0.1,14-0.1,25.4,0,35.8C160.1,359.6,160.1,362.4,158.1,364.5z"/>
	</g>
	<g>
		<path class="st0" d="M321.7,294.9c0-0.1,0.1-0.2,0.2-0.2l0.6-0.9c0.7-1,1.2-1.9,1.8-2.7c3.7-5.5,7.5-11,11.2-16.5
			c12-17.7,24.5-35.9,36.8-53.8c2.1-3,2.6-5.8,1.9-9.6c-3.3-18-6.7-36.3-9.9-54.1c-1.3-7.4-2.7-14.9-4.1-22.3
			c-1.1-6.2-2.3-12.5-3.4-18.7c-3.5-19.4-7.2-39.4-10.8-59.1c-1-5.4-5.5-9.4-10.5-9.4c-1,0-2.1,0.2-3.1,0.5
			c-13.7,4.8-21,12.3-23,23.6c-1.6,9.3-2.8,19-4,28.3c-0.4,3.2-0.8,6.4-1.2,9.6c-1.6,12.2-3.1,24.6-4.7,36.5c-1,8.1-2,16.2-3.1,24.2
			c-0.3,2.5-1.4,4.7-3.2,6.5c-19.2,18.9-35,34.4-49.5,48.9c-8.7,8.6-13.6,18.9-14.6,30.6c-0.7,8.1-0.3,16.2,0.2,24.7
			c0.2,3.8,0.4,7.8,0.5,11.8v0.3c0.1,3,0.1,5.6-1.9,7.8c-2.1,2.1-4.7,2.1-8,2.1c-5.8,0-7.9,2.1-7.9,7.8c0,5.8,0,11.6,0,17.4
			c0,13.5,0.1,27.6-0.1,41.4c-0.1,5.6,1.7,7.9,4.6,9.5H339c3.8-2.2,4.5-4.2,4.5-6.6c0-9.5,0-19,0-28.6c0-11.2,0-22.9,0-34.3
			c0-4.2-2.5-6.6-6.9-6.6c-1.3,0-2.7,0-4,0h-3.1c-1.1,0-2.3,0-3.5,0h-10L321.7,294.9L321.7,294.9z M323.2,315.2h0.2l0,0
			c1.2,0,3.9,0,5.9,2.1c2.1,2.1,2,5,2,6c-0.2,11.7-0.2,23.6,0,35.4c0,1.6-0.2,4-2,5.8c-2,2-4.7,2-5.9,2h-0.1c-15.1,0-30.3,0-45.4,0
			s-30.3,0-45.4,0h-0.1c-1.2,0-3.8,0-5.9-2.1c-1.8-1.8-2-4.2-2-5.8c0.1-12.1,0.1-24,0-35.4c0-1,0-3.8,2-5.9c2.1-2.1,4.8-2.1,6-2.1
			h0.1c8.7,0,17.4,0.1,23.9,0.1c3.5,0,7.1,0,10.6,0H278c3.8,0,7.5,0,11.3,0h11.3C309.7,315.3,316.7,315.3,323.2,315.2z M311.2,288
			c-2,3-3.9,5.9-4.7,9c-1,3.9-3.7,5.9-8.1,5.9c-9.9,0-20,0-29.7,0c-6.2,0-12.4,0-18.6,0c-0.1,0-0.1,0-0.2,0c-0.2,0-0.6,0-1,0
			c-3.7,0-6.3-2.7-6.4-6.5c-0.1-4.1-0.3-8.2-0.5-12.3c-0.4-8.8-0.8-17.9-0.3-27c0.5-7.8,3.4-14.7,8.6-20
			c10.6-10.9,21.6-22,32.3-32.6c4.3-4.3,8.7-8.7,13.1-13.1l4.2-4.3l3.4,5c4.8,6.9,2.8,13.1,0.9,17.2c-4.8,10.3-9.6,20.8-14.3,30.9
			c-3.1,6.6-6.1,13.2-9.2,19.8c-1.2,2.6-1.5,4.2-1,5.8c0.8,2.8,2.5,4.2,5.3,4.6c0.3,0,0.6,0.1,0.9,0.1c2.2,0,4.1-1.3,5.2-3.5
			c2-4,3.9-8.2,5.8-12.2c0.8-1.9,1.7-3.7,2.6-5.6c1.7-3.7,3.4-7.3,5.1-11c3.9-8.2,7.8-16.8,11.6-25.2c4.5-10.1,3.6-19.6-2.8-28.2
			c-3.8-5.2-5.2-10.3-4.3-16.6c3-21.6,5.8-43.5,8.5-64.8c1.1-9,2.3-18,3.5-27c0.4-3.3,1.6-8.1,6.4-11.7L334,60l1.4,7.9
			c2.6,14.4,5.2,28.4,7.7,42.4l3.1,17.1c4.8,26.2,9.7,53.2,14.6,79.8c0.8,4.5,0.1,8.1-2.4,11.7c-11.2,16.2-22.4,32.7-33.3,48.7
			C320.5,274.4,315.9,281.2,311.2,288z"/>
	</g>
	<g>
		<path class="st0" d="M221.9,116.8c0,10.3-6.4,19.2-16.5,22.9c-4.9,1.8-7.1,4.9-6.9,10c0.1,2.3-0.6,4.2-1.8,5.5
			c-1,1.1-2.5,1.7-4.3,1.7s-3.3-0.6-4.4-1.7c-1.2-1.3-1.8-3.1-1.8-5.4c0.2-6.6-3.6-8.9-7-10.2c-9-3.6-14.3-9.3-16.2-17.7
			c-0.9-3.9,0.9-7.3,4.3-8.2c0.6-0.2,1.2-0.2,1.7-0.2c2.8,0,5.1,2,6,5.3c1.1,3.9,3.4,6.7,7,8.5c3.3,1.6,6.8,2.4,10.3,2.4
			c3.1,0,6.2-0.6,9.2-1.8c4.8-1.9,7.7-5.8,7.8-10.7c0.1-3.4-1.1-8.2-7.5-11.2c-3.6-1.7-7.3-1.9-10.6-2H191c-4.3-0.1-8-0.8-11.3-2
			c-10.5-3.8-17-12.6-17.1-22.9c-0.1-10.5,6.2-19.4,16.5-23.2c4.8-1.8,7-4.9,6.9-10c0-2.3,0.6-4.2,1.8-5.5c1.1-1.1,2.6-1.7,4.3-1.7
			c1.8,0,3.3,0.6,4.4,1.7c1.2,1.2,1.8,3.1,1.8,5.4c-0.2,6.5,3.6,8.9,7,10.2c9,3.6,14.3,9.4,16.1,17.7c0.9,3.8-1,7-4.6,8
			c-0.5,0.1-1,0.2-1.6,0.2c-2.6,0-4.9-2-5.9-5c-2.2-6.9-8.4-11-16.7-11c-0.3,0-0.6,0-0.9,0h-0.1h-0.1c-2.8,0.2-5.9,0.3-8.9,1.7
			c-5.1,2.4-7.7,6-7.8,10.9c0,3.5,1.3,8.3,8,11.3c2.9,1.3,5.8,1.5,8.3,1.6h0.1c5.2,0.3,9.5,0.7,13.5,2.3
			C215.6,97.6,221.9,106.2,221.9,116.8z"/>
	</g>
	<g>
		<path class="st0" d="M257.8,33.3c-17.2-17.5-39.9-27.3-64-27.5H193c-24.7,0-47.9,9.4-65.2,26.6c-17.4,17.1-27,40.1-27.2,64.8
			c-0.4,50.4,40.3,91.9,90.7,92.4h0.9c24.5,0,47.5-9.5,64.8-26.7c17.3-17.2,26.9-40.3,27.1-65C284.3,73.7,275,50.8,257.8,33.3z
			 M192.8,177.1H192c-21.2-0.2-41.1-8.6-56-23.7c-15-15-23.1-34.9-22.9-55.8c0.5-44.5,35.6-79.4,79.9-79.4h0.9
			c20.8,0.2,40.3,8.7,55.1,23.8c14.9,15.3,23,35.3,22.7,56.4C271.2,141.8,235.8,177.1,192.8,177.1z"/>
	</g>
	<g>
		<path class="st0" d="M221.9,116.8c0,10.3-6.4,19.2-16.5,22.9c-4.9,1.8-7.1,4.9-6.9,10c0.1,2.3-0.6,4.2-1.8,5.5
			c-1,1.1-2.5,1.7-4.3,1.7s-3.3-0.6-4.4-1.7c-1.2-1.3-1.8-3.1-1.8-5.4c0.2-6.6-3.6-8.9-7-10.2c-9-3.6-14.3-9.3-16.2-17.7
			c-0.9-3.9,0.9-7.3,4.3-8.2c0.6-0.2,1.2-0.2,1.7-0.2c2.8,0,5.1,2,6,5.3c1.1,3.9,3.4,6.7,7,8.5c3.3,1.6,6.8,2.4,10.3,2.4
			c3.1,0,6.2-0.6,9.2-1.8c4.8-1.9,7.7-5.8,7.8-10.7c0.1-3.4-1.1-8.2-7.5-11.2c-3.6-1.7-7.3-1.9-10.6-2H191c-4.3-0.1-8-0.8-11.3-2
			c-10.5-3.8-17-12.6-17.1-22.9c-0.1-10.5,6.2-19.4,16.5-23.2c4.8-1.8,7-4.9,6.9-10c0-2.3,0.6-4.2,1.8-5.5c1.1-1.1,2.6-1.7,4.3-1.7
			c1.8,0,3.3,0.6,4.4,1.7c1.2,1.2,1.8,3.1,1.8,5.4c-0.2,6.5,3.6,8.9,7,10.2c9,3.6,14.3,9.4,16.1,17.7c0.9,3.8-1,7-4.6,8
			c-0.5,0.1-1,0.2-1.6,0.2c-2.6,0-4.9-2-5.9-5c-2.2-6.9-8.4-11-16.7-11c-0.3,0-0.6,0-0.9,0h-0.1h-0.1c-2.8,0.2-5.9,0.3-8.9,1.7
			c-5.1,2.4-7.7,6-7.8,10.9c0,3.5,1.3,8.3,8,11.3c2.9,1.3,5.8,1.5,8.3,1.6h0.1c5.2,0.3,9.5,0.7,13.5,2.3
			C215.6,97.6,221.9,106.2,221.9,116.8z"/>
	</g>
	<g>
		<path class="st0" d="M221.9,116.8c0,10.3-6.4,19.2-16.5,22.9c-4.9,1.8-7.1,4.9-6.9,10c0.1,2.3-0.6,4.2-1.8,5.5
			c-1,1.1-2.5,1.7-4.3,1.7s-3.3-0.6-4.4-1.7c-1.2-1.3-1.8-3.1-1.8-5.4c0.2-6.6-3.6-8.9-7-10.2c-9-3.6-14.3-9.3-16.2-17.7
			c-0.9-3.9,0.9-7.3,4.3-8.2c0.6-0.2,1.2-0.2,1.7-0.2c2.8,0,5.1,2,6,5.3c1.1,3.9,3.4,6.7,7,8.5c3.3,1.6,6.8,2.4,10.3,2.4
			c3.1,0,6.2-0.6,9.2-1.8c4.8-1.9,7.7-5.8,7.8-10.7c0.1-3.4-1.1-8.2-7.5-11.2c-3.6-1.7-7.3-1.9-10.6-2H191c-4.3-0.1-8-0.8-11.3-2
			c-10.5-3.8-17-12.6-17.1-22.9c-0.1-10.5,6.2-19.4,16.5-23.2c4.8-1.8,7-4.9,6.9-10c0-2.3,0.6-4.2,1.8-5.5c1.1-1.1,2.6-1.7,4.3-1.7
			c1.8,0,3.3,0.6,4.4,1.7c1.2,1.2,1.8,3.1,1.8,5.4c-0.2,6.5,3.6,8.9,7,10.2c9,3.6,14.3,9.4,16.1,17.7c0.9,3.8-1,7-4.6,8
			c-0.5,0.1-1,0.2-1.6,0.2c-2.6,0-4.9-2-5.9-5c-2.2-6.9-8.4-11-16.7-11c-0.3,0-0.6,0-0.9,0h-0.1h-0.1c-2.8,0.2-5.9,0.3-8.9,1.7
			c-5.1,2.4-7.7,6-7.8,10.9c0,3.5,1.3,8.3,8,11.3c2.9,1.3,5.8,1.5,8.3,1.6h0.1c5.2,0.3,9.5,0.7,13.5,2.3
			C215.6,97.6,221.9,106.2,221.9,116.8z"/>
	</g>
</g>
</svg>
