<?xml version="1.0" encoding="utf-8"?>
<!-- Generator: Adobe Illustrator 26.0.3, SVG Export Plug-In . SVG Version: 6.00 Build 0)  -->
<svg version="1.1" id="Calque_1" xmlns="http://www.w3.org/2000/svg" xmlns:xlink="http://www.w3.org/1999/xlink" x="0px" y="0px"
	 viewBox="0 0 243.6 385.1" style="enable-background:new 0 0 243.6 385.1;" xml:space="preserve">
<style type="text/css">
	.st0{fill:#FFFFFF;stroke:#000000;stroke-miterlimit:10;}
</style>
<g>
	<path class="st0" d="M232.1,26.9c0-11.2-6.5-20.7-16.5-24.5c-1.7-0.7-3.5-1.2-5.2-1.8h-177c-17.7,5-22,17.4-21.9,32
		c0.3,81.3,0.2,162.6,0.2,244c0,27.2,0,54.5,0,81.7c0,11.1,6.4,20.6,16.5,24.5c1.7,0.7,3.5,1.2,5.2,1.8h177
		c17.4-6.7,21.8-13.1,21.8-32V94.7C232.1,72.1,232.1,49.5,232.1,26.9z M121.8,365.1c-11.2,0-20.2-9.1-20.2-20.2
		c0.1-10.9,9.1-20,20-20.1c11-0.1,20.3,9.1,20.4,20.2C142,356,132.9,365.1,121.8,365.1z M140.2,38.8c-6.1,0-12.2,0-18.4,0
		c-6.1,0-12.2,0-18.4,0c-4.5,0-7.1-2.2-7.1-5.9c0-3.7,2.5-6.1,7-6.1c12.4-0.1,24.8-0.1,37.1,0c4.4,0,7,2.4,6.9,6.1
		C147.3,36.6,144.7,38.8,140.2,38.8z"/>
	<path class="st0" d="M232.1,26.9c0-11.2-6.5-20.7-16.5-24.5c-1.7-0.7-3.5-1.2-5.2-1.8h-177c-17.7,5-22,17.4-21.9,32
		c0.3,81.3,0.2,162.6,0.2,244c0,27.2,0,54.5,0,81.7c0,11.1,6.4,20.6,16.5,24.5c1.7,0.7,3.5,1.2,5.2,1.8h177
		c17.4-6.7,21.8-13.1,21.8-32V94.7C232.1,72.1,232.1,49.5,232.1,26.9z M220.1,356c0,11.2-5.3,16.5-16.5,16.5H40.1
		c-11.2,0-16.5-5.3-16.5-16.5v-327c0-11.2,5.3-16.5,16.5-16.5h163.5c11.2,0,16.5,5.3,16.5,16.5V356z"/>
</g>
</svg>
