<?xml version="1.0" encoding="utf-8"?>
<!-- Generator: Adobe Illustrator 26.0.3, SVG Export Plug-In . SVG Version: 6.00 Build 0)  -->
<svg version="1.1" id="Layer_1" xmlns="http://www.w3.org/2000/svg" xmlns:xlink="http://www.w3.org/1999/xlink" x="0px" y="0px"
	 viewBox="0 0 248.7 123.9" style="enable-background:new 0 0 248.7 123.9;" xml:space="preserve">
<style type="text/css">
	.st0{fill:none;stroke:#009EDB;stroke-width:3;stroke-miterlimit:10;}
	.st1{fill:#009EDB;}
</style>
<g>
	<g>
		<circle class="st0" cx="72.2" cy="53.9" r="8"/>
		<circle class="st0" cx="72.2" cy="53.9" r="15.6"/>
		<circle class="st0" cx="72.2" cy="53.9" r="23.6"/>
		<circle class="st0" cx="72.2" cy="53.9" r="31.1"/>
		<circle class="st0" cx="72.2" cy="53.9" r="39.3"/>
		<line class="st0" x1="72.2" y1="46" x2="72.2" y2="14.3"/>
		<line class="st0" x1="72.2" y1="93.2" x2="72.2" y2="61.6"/>
		<line class="st0" x1="80.2" y1="53.9" x2="111.8" y2="53.9"/>
		<line class="st0" x1="32.6" y1="53.9" x2="64.3" y2="53.9"/>
		<line class="st0" x1="77.6" y1="48.4" x2="100" y2="26"/>
		<line class="st0" x1="66.7" y1="48.4" x2="44.3" y2="26"/>
		<line class="st0" x1="66.7" y1="59.3" x2="44.3" y2="81.7"/>
		<line class="st0" x1="77.6" y1="59.3" x2="100" y2="81.7"/>
		<path id="Laurel" class="st1" d="M42.6,17.9c-4,1.5-8.3,3.1-10.8,7.3c-1.5,2.4-1.7,5.2-2.9,7.7c2.2-2.1,4.8-3.6,6.6-6.1
			C37.6,23.8,39.7,20.6,42.6,17.9z M101.8,17.9c2.9,2.5,4.9,5.9,7.2,8.8c1.8,2.4,4.5,4,6.6,6.1c-1.2-2.4-1.4-5.3-2.9-7.7
			C110.1,21.1,105.9,19.4,101.8,17.9z M31.8,23.3c-2,0.5-3.8,1.8-5.2,3.5c-3.1,3.5-2.9,8.7-2.4,13.4c0.1,1.4,0.1,2.8-0.1,4.1
			c1-2.1,2.5-3.8,4.5-5.2c4.2-3.1,8.7-7.2,8.7-12.5c-1.5,3.9-5.7,5.5-8.5,8.1c-1.4,1.3-2.5,3-3.2,4.8l-0.1-0.2
			c0.3-1.5,1-2.9,1.4-4.5C28.1,30.9,27.8,26.1,31.8,23.3L31.8,23.3z M112.6,23.3c4,2.7,3.8,7.6,5,11.6c0.4,1.5,1,2.9,1.4,4.5
			l-0.1,0.1c-0.7-1.8-1.8-3.4-3.2-4.8c-2.8-2.6-6.9-4.2-8.3-8c0.1,5.3,4.6,9.4,8.7,12.5c1.8,1.4,3.3,3.2,4.5,5.2
			c-0.2-1.4-0.2-2.8-0.1-4.1c0.4-4.7,0.7-9.9-2.4-13.4C116.4,25.2,114.7,23.9,112.6,23.3L112.6,23.3z M23.4,30.6
			c-0.1,0-0.2,0.1-0.3,0.1c-2.8,3.5-4.6,7.3-4.6,12.2c0,5.9,3.3,9.9,3.8,15.4c0.9-5.8,5.7-9.8,8.1-14.9c1-2,1.6-4.1,1.8-6.4
			c-0.3,1-1,1.7-1.7,2.4c-3.2,3.1-7,6.1-7.8,10.5c-0.1,0.7-0.2,1.2-0.3,1.8c-0.2,0.1-0.2-0.1-0.2-0.2l0.3-5.3
			C23.1,41,20.3,35.2,23.4,30.6L23.4,30.6z M121.1,30.6c3,4.6,0.3,10.4,0.6,15.6l0.4,5.3c-0.1,0.1-0.1,0.2-0.2,0.2
			c-0.2-0.6-0.3-1.2-0.3-1.8c-0.7-4.4-4.5-7.3-7.7-10.4c-0.7-0.7-1.3-1.5-1.7-2.4c0.3,2.2,0.9,4.4,1.8,6.4c2.4,5,7.3,9.1,8.1,14.8
			c0.4-5.5,3.8-9.5,3.8-15.4c0-4.7-1.8-8.6-4.6-12.2C121.3,30.7,121.2,30.6,121.1,30.6L121.1,30.6z M17.5,45.1
			c-0.5,1.4-1,2.9-1.2,4.4c-0.7,3.8,0,7.9,1,11.4c1.3,4.4,5.6,7.5,7.7,11.5l0.3,0.3c-0.3-2.2-0.5-4.5,0.2-6.6c1-3.3,2.1-6.6,2.7-10
			c0.5-2.6,1-5.7,0.7-8.3c-0.3,1.4-0.8,2.7-1.5,4c-2.8,4.5-5.9,9.8-3.8,15.6c-0.1,0.1-0.1,0.2-0.2,0.1c-0.9-1.8-1-4.1-1.5-6.1
			C20.4,55.8,16.3,51.3,17.5,45.1L17.5,45.1z M126.9,45.1c1.2,6.3-2.9,10.7-4.4,16.1c-0.5,2-0.7,4.2-1.5,6.1
			c-0.1,0.1-0.2-0.1-0.2-0.1c2-5.8-1-11.1-3.8-15.6c-0.7-1.2-1.2-2.5-1.5-4c-0.3,2.5,0.3,5.6,0.7,8.3c0.6,3.4,1.7,6.7,2.7,10
			c0.6,2.1,0.4,4.5,0.2,6.6l0.3-0.3c2.2-4,6.5-7.2,7.8-11.5c1-3.5,1.7-7.5,1-11.4C127.9,48,127.5,46.5,126.9,45.1L126.9,45.1z
			 M28.2,60.7c0.5,3.6-0.9,6.7-1.2,10.1c-0.3,2.6,0.2,5.3,1.3,7.8c0.3,0.7,0.9,1.3,1,2c-1-1-1.8-2.1-2.4-3.2
			c-3.4-5.5-10.4-9-10.8-15.6c-0.3,2.9,0.1,5.9,1,8.7c1.3,3.6,4,6.4,7,8.7c3.1,2.4,6.8,4.4,9.6,6.6c-0.5-1.4-1.4-2.6-1.7-4.2
			C30.2,74.7,31.1,66.9,28.2,60.7L28.2,60.7z M116.2,60.7c-2.9,6.3-2,14.1-3.6,20.8c-0.4,1.5-1.3,2.8-1.8,4.2
			c2.8-2.2,6.6-4.1,9.6-6.6c3-2.4,5.7-5.2,7-8.7c1-2.8,1.3-5.8,1-8.7c-0.5,6.6-7.5,10.1-10.8,15.6c-0.6,1.2-1.5,2.3-2.4,3.2
			c0.2-0.7,0.7-1.3,1-2c1-2.4,1.5-5.2,1.3-7.8C117.1,67.3,115.7,64.2,116.2,60.7L116.2,60.7z M31.9,72c2.4,4.9,1.4,11.2,4.5,15.7
			c1,1.4,2.3,2.8,3.7,4v0.1c-1.2-0.6-2.3-1.3-3.2-2.2c-5.6-4.7-13.9-5.2-17.2-12.8c0.9,5.5,5.2,10.3,10,13.5
			c4.5,2.9,10.2,2.6,15.2,4.3c-4.7-3.8-5.4-9.3-7.4-14.2C36.2,77.3,34.1,74.7,31.9,72L31.9,72z M112.6,72c-2.2,2.6-4.4,5.4-5.6,8.4
			c-2,4.9-2.7,10.4-7.3,14.2c5-1.7,10.7-1.3,15.2-4.3c4.7-3.1,9.1-8,10-13.5c-3.3,7.5-11.6,8-17.1,12.7c-1,0.9-2.1,1.6-3.2,2.2
			l-0.1-0.1c1.3-1.2,2.5-2.5,3.7-4C111.2,83.1,110.1,76.8,112.6,72L112.6,72z M39.9,83.8c3,4.1,3.8,9.9,9.4,12c1,0.3,2.1,0.4,2.9,1
			c-1,0.2-2-0.2-3-0.4c-7.1-1.5-15.7,0.4-21.1-5.6c2,4,6.1,7.1,10.1,8.4c6.2,2,12.7-0.3,18.4-1.7c0.9-0.2,1.8-0.2,2.6-0.4
			c-3.2-0.6-6.4-1.7-8.8-3.9C46.9,89.9,43.6,86.4,39.9,83.8L39.9,83.8z M104.6,83.8c-3.8,2.5-7.1,6-10.6,9.4
			c-2.4,2.3-5.6,3.2-8.8,3.9c0.8,0.3,1.7,0.2,2.6,0.4c5.8,1.4,12.2,3.8,18.4,1.7c4-1.3,8.1-4.5,10.1-8.4c-5.3,6-14,4.1-21.1,5.6
			c-1,0.2-1.9,0.5-3,0.4c0.9-0.5,2-0.6,2.9-1C100.7,93.8,101.6,87.9,104.6,83.8L104.6,83.8z M66.4,97c-5.5,0-10.3,2.6-15,4.6
			c-4.4,1.7-10.1,1.4-13.9-1.2c1.8,2.4,4.5,3.8,7.1,4.8c4.9,1.9,10.5,0.4,14.7-2.2c3-1.8,5.6-4.6,9.1-4.6c0.6,0,1.2,0.1,1.8,0.2
			c-5,2-9.5,5.5-13,8.8c0.7,0.7,1.5,1.4,2.3,2.1c4-4.1,8.4-8.5,12.9-10.3c4.5,1.8,8.9,6.3,12.9,10.3c0.8-0.6,1.6-1.3,2.3-2.1
			c-3.5-3.3-8-6.9-13-8.8c0.6-0.2,1.2-0.2,1.8-0.2c3.6,0,6.1,2.7,9.1,4.6c4.1,2.6,9.8,4.1,14.7,2.2c2.6-1,5.2-2.4,7.1-4.8
			c-3.8,2.6-9.5,3-13.9,1.2c-4.8-2-9.6-4.6-15-4.6c-2,0-4,0.3-5.9,0.9C70.3,97.3,68.4,97,66.4,97L66.4,97z"/>
		<path class="st1" d="M79.7,25.4l-0.3-0.2c0,0-0.4-0.1-0.4-0.2l0,0l0,0c0,0-0.3,0.3-0.4,0.4c0.2,0.1,0.4,0.3,0.4,0.3
			c0.3,0,0.4,0.2,0.5,0.3c0,0.1,0.4,0.1,0.4,0.1l0.1-0.3L79.7,25.4z"/>
		<path class="st1" d="M93.8,41.8L93.8,41.8L93.8,41.8L93.8,41.8z"/>
		<path class="st1" d="M78.5,25.4C78.6,25.5,78.6,25.5,78.5,25.4C78.4,25.4,78.3,25.3,78.5,25.4z"/>
		<polygon class="st1" points="78.2,26.8 78.2,26.8 78.2,27.1 78.6,27.2 78.5,26.8 		"/>
		<polygon class="st1" points="77.7,25.4 77.6,25.4 77.3,25.3 77.3,25.5 77.5,25.6 77.9,26 78.1,25.8 		"/>
		<path class="st1" d="M82.7,30.7c-0.2,0-0.5-0.3-0.5-0.4c0.1-0.2-0.7-0.3-0.7-0.3s-0.7-0.6-0.4-0.6c0.3,0.1,0.1-0.3,0.1-0.3
			c-0.2,0.1-0.4,0.1-0.6,0.1c-0.1-0.1-0.1-0.4-0.1-0.4c-0.2-0.1-0.3-0.1-0.4-0.1l0,0c-0.1,0-0.1,0-0.1,0.1c0,0.1,0.2,0.1,0.3,0.3
			c0.1,0.3,0.1,0.6,0.4,0.7c0.3,0.1,0.4,0.2,0.5,0.3s0.5,0.2,0.5,0.2l0.3,0.2l1,0.8V31C83,31,83,30.7,82.7,30.7z"/>
		<path class="st1" d="M90.6,25.1l0.6,0.2c0,0,0.7,0.9,0.7,0.4c-0.1-1.2-0.6-1.2-0.9-1.5c-0.1-0.1-0.2-0.1-0.3-0.1l0,0
			c-0.3,0-0.8,0.2-0.7,0.4C90.1,24.8,90.4,25,90.6,25.1z"/>
		<path class="st1" d="M93.8,41.8L93.8,41.8L93.8,41.8z"/>
		<path class="st1" d="M92.8,38.9c-0.1,0.2,0,0.3,0.2,0.3c0.1,0,0.1,0,0.1,0c0.2,0,0.3,0.1,0.4,0.2c0.2,0.1,0.3,0.2,0.4,0.3l0.4-0.1
			c0,0,0.1-0.4-0.1-0.3c-0.2,0.1-0.3-0.3-0.4-0.3c-0.2,0.1-0.3-0.2-0.4-0.3c-0.2-0.2-0.1-0.3-0.3-0.3c-0.1-0.1-0.2-0.1-0.3-0.1l0,0
			c-0.1,0-0.1,0.1-0.1,0.1C92.8,38.6,92.9,38.6,92.8,38.9z"/>
		<polygon class="st1" points="78.5,24.7 78.2,24.7 78.2,24.7 78.1,25 78.3,25.1 		"/>
		<path class="st1" d="M94,40.1L94,40.1h-0.4c0.1,0.2,0.3,0.3,0.3,0.4c0,0.2-0.1,0.3,0.2,0.3c0.2,0,0.4-0.1,0.5,0.2
			c0.1,0.3,0.1,0.4,0.1,0.7c-0.1,0.2,0.1,0.4,0.3,0.4s0.3,0.1,0.3,0.2c0,0.1,0.3-0.4,0.3-0.4c-0.2-0.2-0.3-0.3-0.3-0.5l-0.2-0.6
			c0,0-0.3-0.2-0.4-0.2C94.2,40.5,94.1,40.3,94,40.1z"/>
		<polygon class="st1" points="91.2,37.2 91.2,36.7 91.2,36.7 90.9,36.8 90.9,37.2 		"/>
		<polygon class="st1" points="96.3,49.9 96.5,50 96.7,49.7 96.4,49.7 		"/>
		<path class="st1" d="M95.4,43.2c-0.1,0.1-0.2,0.3-0.3,0.3c-0.1,0.1,0.3,0.3,0.3,0.4c0,0.1,0.1,0.7,0.1,0.7s0.3,0.1,0.3,0.3
			c0,0.2,0,0.5,0.1,0.5c0.1,0.1,0.3,0.2,0.3,0.3C96,46,96,46.2,96,46.3l0.2,0.3l0.3,0.2c0,0,0.1-1-0.1-1s-0.1-0.6-0.1-0.6
			s0.2-0.8-0.1-0.8s-0.1-0.4-0.3-0.5c-0.2-0.2-0.1-0.7-0.2-0.9c-0.1-0.2-0.1-0.3-0.3-0.5h-0.1l0,0C95.2,42.8,95.5,43.2,95.4,43.2z"
			/>
		<polygon class="st1" points="96.8,48.5 96.6,48.5 96.6,48.5 96.6,48.9 96.8,49 		"/>
		<path class="st1" d="M89.4,41.1c0,0-0.1,0.7-0.3,1h-0.5c0.1,0.1,0.2,0.3,0.3,0.3s0.4,0.3,0.1,0.5c-0.3,0.2,0.1,0.1,0.1,0.1
			s-0.1,0.9-0.4,0.7c-0.3-0.1-0.5,0.4-0.5,0.6c0,0.2,1.4,0.2,1.2,0c-0.1-0.1,0.2-0.4,0.2-0.4s1,0.1,1.1,0.1s0.3-0.1,0.3-0.3
			c-0.1-0.2-0.5-0.2-0.5-0.2c-0.3,0.1-0.6,0-0.9-0.1c-0.4-0.3,0.1-0.3,0.2-0.3c0.1,0,0.4-0.3,0.3-0.5c-0.2-0.2,0-0.6,0-0.4
			c0,0.2,0.4,0.3,0.5,0.1c0.1-0.2,0-0.4-0.2-0.6c-0.2-0.1,0.3-0.2,0.2-0.4c-0.1-0.2-0.2-0.3-0.3-0.4l0,0
			C90,41.2,89.7,41.2,89.4,41.1z"/>
		<path class="st1" d="M96,70.6l-0.1,0.3c0.1,0,0.1,0,0.1,0.1l0.1,0.2L96,71.2l0.2,0.2c0.1-0.1,0.2-0.3,0.2-0.4
			C96.2,70.7,96.2,70.6,96,70.6z"/>
		<path class="st1" d="M96,70.8"/>
		<polygon class="st1" points="96.3,70 96.7,70 96.7,69.7 96.3,69.7 		"/>
		<path class="st1" d="M96.3,69.7"/>
		<path class="st1" d="M93.8,58c0.2,0.1,0.3,0.1,0.2-0.3c-0.1-0.2-0.2-0.3-0.3-0.2l0,0c-0.3,0-0.7,0.2-0.6,0.4
			C93.3,58.1,93.6,57.9,93.8,58z"/>
		<rect x="88.9" y="65.6" class="st1" width="0.3" height="0.8"/>
		<path class="st1" d="M67.9,26.8c0,0,0.6,0.1,0.6,0.2c0,0.1,0.4,0.2,0.5,0.1c0.1-0.1,0.2-0.3-0.2-0.3c-0.3,0-0.3-0.2-0.4-0.3
			c-0.1-0.1-0.3-0.1-0.5-0.1c-0.2,0.1-0.4,0.1-0.4,0.1C67.7,26.6,67.9,26.8,67.9,26.8z"/>
		<polygon class="st1" points="54.9,19.1 54.5,18.3 54.5,18.3 		"/>
		<polygon class="st1" points="58,28.9 57.9,29.1 58.1,29.3 58.3,29.2 		"/>
		<path class="st1" d="M58.6,26.3l-0.4-0.8l0,0L58.6,26.3z"/>
		<polygon class="st1" points="85.2,43.5 85.2,43.7 85.7,43.7 85.7,43.5 		"/>
		<polygon class="st1" points="93.9,52.5 94.2,52.5 94.3,52.3 93.9,52.3 		"/>
		<rect x="90.9" y="42.2" class="st1" width="0.3" height="0.3"/>
		<polygon class="st1" points="91.7,42.5 91.5,42.4 91.5,42.4 91.4,42.6 91.6,42.8 		"/>
		<polygon class="st1" points="90.3,40.5 90.2,40.2 89.8,40.3 89.8,40.6 		"/>
		<polygon class="st1" points="79,17.2 79.1,17.2 79.6,16.9 79.4,16.7 79.4,16.7 79,17 78.8,16.8 78.7,17.1 78.9,17.2 		"/>
		<rect x="90.5" y="40.6" class="st1" width="0.3" height="0.2"/>
		<path class="st1" d="M85.7,43.5"/>
		<polygon class="st1" points="86.5,44.1 86.3,44.4 86.5,44.5 86.6,44.2 		"/>
		<path class="st1" d="M87.1,44.8c-0.2,0-0.3,0-0.4,0.1c-0.2,0.1-0.2,0.2,0,0.4l0.5-0.1c0,0,0.3-0.2,0.3-0.3
			C87.4,44.7,87.2,44.8,87.1,44.8z"/>
		<polygon class="st1" points="92.8,52.6 92.8,52.6 92.5,52.9 92.2,52.6 92.1,52.9 92.4,53.1 92.5,53.1 92.5,53.1 92.8,53 
			92.8,53.1 93,53 92.9,52.7 		"/>
		<path class="st1" d="M83.4,44.2"/>
		<path class="st1" d="M69.9,59.5L69.9,59.5l-0.3,0.1l0.1,0.6l0.3,0.2l0.4,0.1c0,0,0.6-0.2,0.6-0.6l-1-0.1L69.9,59.5z"/>
		<path class="st1" d="M73.3,56.7c0.2,0.1,0.1-0.6,0.1-0.6l0,0l-0.7,0.5c0.3,0.1,0.4,0.4,0.4,0.6C73.2,57.5,73.2,56.6,73.3,56.7z"/>
		<polygon class="st1" points="75.5,67.8 75.7,67.3 75.5,67.1 75.5,67.1 75.3,67.4 75.4,67.5 		"/>
		<polygon class="st1" points="80.3,65.9 80.2,65.7 79.9,65.9 80,66.2 		"/>
		<path class="st1" d="M75.6,56.7c0.2,0.1,0.5-0.2,0.3-0.3c-0.6-0.4-0.5-1-0.7-1.3c-0.1-0.1-0.1-0.2-0.2-0.2l0,0
			c-0.1,0-0.2,0.1-0.2,0.2v0.5C75.1,56,75.4,56.3,75.6,56.7z"/>
		<path class="st1" d="M78.9,63"/>
		<polygon class="st1" points="69.2,52.1 68.7,52 68.7,52 68.6,52.2 68.5,52.2 68.4,52.5 68.6,52.5 68.7,52.8 68.5,53 68.5,53.2 
			68.2,53.2 67.4,53.9 67.4,54.2 67.1,54.6 67,55.1 66,55.2 65.9,56 66,56.6 66.7,56.8 66.8,56.5 67.1,56.3 67.1,55.9 67.3,55.6 
			67.5,55.3 67.6,55 68,54.7 68.5,54.6 68.7,54.4 68.7,53.9 68.8,53.5 69,53.3 69.4,53.1 69.4,52.3 69.2,52.3 		"/>
		<path class="st1" d="M72.1,46.2"/>
		<path class="st1" d="M55.5,57.9L55.5,57.9c-0.1,0-0.2,0.1-0.2,0.2l0,0l0,0c0,0.1,0.1,0.2,0.2,0.2l0,0c0.1,0,0.2-0.1,0.2-0.2
			C55.7,58,55.6,58,55.5,57.9z"/>
		<path class="st1" d="M57.3,56.4"/>
		<path class="st1" d="M71.2,62.7c0,0-0.2,0.3-0.4,0c0-0.1-0.1-0.1-0.1-0.1l0,0c-0.2,0-0.3,0.6-0.4,0.7c0,0,0.1,0.3,0.3,0.3
			c0.2-0.1,0.3-0.1,0.4-0.2c0.2-0.1,0.2-0.3,0.3-0.5C71.2,62.9,71.2,62.8,71.2,62.7z"/>
		<path class="st1" d="M76.1,77.8"/>
		<path class="st1" d="M90.3,73.4c-0.2-0.1,0.2,0.2,0.3,0.3c0.1,0.1,0.2,0.2,0.3,0.1c0.1,0,0.1-0.1,0.1-0.1c0.1-0.2,0.1-0.3,0.1-0.5
			l-0.3-0.3C90.7,73.4,90.4,73.5,90.3,73.4z"/>
		<path class="st1" d="M94,74l-0.2-0.2l-0.1-1c0.2-0.5-0.8-1.3-0.9-1.1s-0.6,0.1-0.6,0.2s-0.3,1-0.2,1.2c0,0,0,0,0,0.1l-0.3,1
			c-0.1,0.2-0.2,0.4-0.2,0.5l0,0l0.3,0.2l0.1,0.7c0.3,0.3,0.9,0.3,1.3,0.2l0.6-0.7C94,74.5,94,74,94,74z"/>
		<path class="st1" d="M71.4,62.3L71.4,62.3c0,0-0.2,0.4,0,0.4c0.2,0.1,0.2,0.1,0.3,0.3l-0.1,0.2c-0.2-0.2-0.3,0.2-0.2,0.3
			s-0.2,0-0.2,0.2c0,0.2-0.1,0.2,0,0.3c0.1,0.1,0,0.1-0.2,0.2c-0.2,0.1,0.5,0.1,0.5,0.1s-0.1-0.3,0-0.3l0,0l0.1-1.6L71.4,62.3z"/>
		<path class="st1" d="M81.9,42.8c0-0.2-0.4-0.3-0.3-0.1c0.1,0.3-0.3,0.3-0.3,0.3L81,43.2c0,0.1-0.1,0.3,0.2,0.3
			c0.3,0.1,0.7-0.2,0.7,0.1c0,0.1,0,0.2,0.1,0.2l0.7-0.7C82.4,42.9,81.9,42.8,81.9,42.8z"/>
		<path class="st1" d="M84.6,43.9c0-0.2-0.5-0.8-0.7-0.8L84.6,43.9C84.6,43.9,84.6,43.9,84.6,43.9z"/>
		<path class="st1" d="M83.4,44L83.4,44l0.4,0.1l-0.7-0.8L82.4,44h0.2C83,44.1,83.4,44,83.4,44z"/>
		<path class="st1" d="M84.4,44.9"/>
		<path class="st1" d="M68.1,70.1l-0.3,0.1l-0.3,0.3L67,70.7l-0.1,0.9l-0.3,0.2v0.3L66.4,72v0.2l-0.4,0.1l0.3,0.6l0.3,0.2
			c0.5,0.1,0.3,0.8,0.3,0.8L67,74l0.2,0.4l0.3,0.6c0.1,0.5,0.5,0.3,0.6,0.3c0.2,0,0.3,0.5,0.3,0.5l1.6,0.1c0,0-0.1,0.2,0.2,0.3
			c0.4,0.1,0.9,0.1,1.3,0.1l1-0.3c0.2-0.1,0.4-0.2,0.7-0.2c0.3,0,0.4,0.1,0.7,0.2c0.3,0.2,0.7,0.3,1,0.1l0.4,0.5l0.5,0.9l0,0
			l0.3,0.2l0.7,0.2l0.5,0.1l0.2,0.7l0.3,0.1l0.1,0.4c0.4,0.3-0.1,1-0.1,1V81l0.3,0.2l-0.1,0.3l0.5,0.5l0.6,0.1l1,1l1,0.7l0.7,0.2
			l0.2,0.6l0.3-0.1l0.3-0.2l1-0.1l0.5-0.4l0.5-0.1l3.8-3.2l0.3-1.3v-0.4c0.7-0.5,0.8-1.5,0.1-1.5c-0.5-0.1-0.3-0.6,0.2-0.7l0.3-0.1
			v-0.3l0.9-0.9v-0.6l-2-1.7c-0.4-0.2-0.4-0.6-0.3-1.1l1-2.4c-0.1-0.6-0.2-1.1-0.3-1.7h-0.2l0.1-1h-0.4l-0.7,1l-0.1,0.3L86.5,69
			c-0.7,0.3-1.5,0.3-2.3,0.1c-0.3-0.2-0.6-0.3-1-0.5c0,0-0.6-0.5-0.7-0.3c-0.1,0.2-0.7-0.2-0.7-0.1s-0.5-0.3-0.5-0.3l-0.8-0.3
			l0.6-0.1l-0.1-0.4c0,0,0.1,0,0.1-0.1l0,0l1,0.5c0.1,0.2,0.6,0.1,0.6,0.1l0.2,0.2c0.2,0,0.4,0.1,0.5,0.2c0.2,0.3,1.2,0.1,1.2,0.1
			l0.3,0.3l0.4,0.2h0.7l0.6-0.8l0.2-0.2L86.8,67l0.3-0.3v-0.4l0.3-0.1l0.1-0.9l0.2-0.1v-1.9l-0.5-0.4C87,63,86.4,63,86.4,63
			s-0.2,0.3-0.3,0.3s0.2,0.3,0.1,0.6c-0.1,0.3-0.4,0.3-0.4,0.3l-0.6,0.2L85,64.5h-0.6l-0.1-0.3c0.1-0.1,0.1-0.2,0.2-0.3l0.5-0.2
			l0.4-0.2l0.2-0.4c0.1-0.4,0.5-0.3,0.5-0.3s0.9-0.7,1-1.1s0.3-1.4,0.9-1.4h1.1c0.4-0.2,0.3-0.7,0.3-0.7l0.5-0.1l0.1,0.3
			c0,0,0.7,0.1,0.8-0.1c0.1-0.1,0.3-0.4,0.4-0.3c0.2,0.2,0.9-0.3,0.9-0.3c0.1-0.3,1-0.2,1-0.2l0.1-0.3c0,0-0.7-1-0.8-1
			s-0.8-0.6-0.9-0.3c-0.6-0.2-0.6-1-0.6-1l-0.2-0.3c0-0.3-0.6-1-0.7-1c-0.2-0.1-0.3-0.3-0.3-0.5l0,0l0.8-1c0.1-0.1,0.1-0.1,0.1-0.1
			l0.2-0.6l0.7-0.2l0.1-0.5h-0.2c0,0,0.4-0.7,0.6-0.7c0.5,0,1,0,1.7-0.1c0.2-0.3,0.3-0.5,0.3-0.9c0-0.1,0.3-0.2,0.4-0.2
			c0.2-0.2,0.4-0.3,0.5-0.5c0.1-0.2-0.2-1.2-0.3-1c-0.2,0.1-0.3,0.2-0.5,0.3l-0.1,0.4l-0.2,0.2c0.1,0.2,0.1,0.3,0,0.4
			c-0.1,0.3-0.4,0.4-0.4,0.4l-0.2,0.2c-0.3,0.1-0.7,0.1-1,0c-0.2-0.1-0.3-0.3-0.2-0.4c0.1-0.1,0.2-0.2,0.3-0.2
			c0.3,0.1-0.1-0.7-0.1-0.7l0.3-0.1c0,0,0.1-0.7,0.2-0.7s-0.1-0.3-0.2-0.3c-0.2-0.1-0.3-0.5-0.5-0.5c-0.3,0.1-0.5,0.1-0.8,0
			l-0.3,0.2l-0.4,0.1c0,0,0.1,0.3-0.1,0.4c-0.3,0.3-1.1,0.9-0.8-0.1l0.1-0.3v-0.3l-0.7-0.1c0,0-0.3-0.1-0.3-0.3c0-0.1,0-0.3-0.1-0.3
			l-0.9-1l-1-0.1l-0.1-0.2l-0.6-0.1c-0.1-0.1-0.2-0.1-0.3-0.1l-1,0.3c-0.1,0.1-0.1,0.3,0,0.4c0.1,0.6,0.3,0.9-0.1,0.9
			c-0.2,0.1-0.4-0.1-0.5-0.3c0,0-0.3-0.1-0.3,0.1s-0.1,0.5,0,0.6c0.1,0.2-0.2,0.4-0.3,0.3c-0.1-0.2-0.4-0.5-0.3-0.6
			c0.1-0.1-0.5-0.9,0.1-1c0.6-0.1-0.1-0.5,0.2-0.6l0.3-0.2H84l0.2-0.2l0,0l-0.5-0.1l-0.3-0.1L82.8,45c-0.3,0.2-0.6,0.5-0.7,0.9
			c-0.3,0.5-0.9,0-0.9-0.4l-1.4-0.1c-0.2,0-0.3,0-0.4,0c-0.1,0.3-0.7-0.1-0.5-0.3c0.1-0.1,0.2-0.3,0.2-0.4l-0.2-0.1L78.6,45
			c-0.5,0-0.7,0.3-0.6,0.5c0.1,0.2-0.2-0.1-0.3,0.3c-0.1,0.3,0.1,0.3,0.3,0.4c0.3,0.1-0.1,0.1,0.1,0.3c0.2,0.2,0.3,0.1,0.4,0.1
			l-0.3,0.3c-0.2,0.1-0.4,0.1-0.6,0c0,0.1-0.1,0.2-0.1,0.2c-0.6-0.5-1.3-1-2.1-1.3c0.1-0.1,0.3-0.1,0.4-0.3c0.1-0.4,0.2-0.8,0.3-1.2
			c0,0-0.6-0.1-0.7,0.2c-0.1,0.2-0.4,0.3-0.4,0.3s-0.3,0.1-0.2,0.3c0.1,0.2-0.3,0.3-0.3,0.3c0,0.1,0,0.2,0,0.2L72,45.9l0,0l0.1,1
			l-0.4-0.2h-0.1l-0.1-0.3l-0.3-0.1v0.9l0.3,0.2l0.2,0.2l0.4,0.1l0.1,0.5l1,0.1l0.1,0.2l0.6,0.1l1.1,1.2l-0.1,0.3l-0.2,0.1
			c0.1,0.3-0.5,0.1-0.5,0.1v0.4l0.3,0.1l0.3,0.2l0.4-0.7c0.4-0.3,0.6,0.1,0.7,0.3c0.1,0.3-0.2,0.2-0.2,0.2v0.7l0.3,0.1
			c0.2,0.2,0.2,0.5-0.1,0.7c-0.1,0.1-0.1,0.1-0.1,0.1l-0.1,0.4c-0.1,0.3-0.5,0.3-0.5,0.3l-0.3,0.2l-0.5,0.1l1,0.1
			c0.1-0.3,0.3-0.4,0.4-0.3c0.1,0.2,0.1,0.3,0.1,0.4l0.3,0.1l-0.1,0.4l0.3,0.1v1.3l0.3,0.3c0.5-0.2,0.5,0.1,0.3,0.3
			c-0.3,0.2-0.1,0.9-0.1,0.9l-0.2,0.2v0.3l-0.2,0.2v0.4c-0.3-0.2-0.7-0.2-1,0c-0.3-0.3-1.1-0.2-1.1,0.1c0.3,0.3-0.3,0.4-0.3,0.4
			l-0.3,0.3c0.2,0.4-0.2,0.4-0.2,0.4v1l-0.5,0.4v0.7l1.2,0.7l0.1,0.1h0.3V62l-0.3-0.9v-0.9l0.4-0.4h0.1l0,0c0.3,0,0.3,0.9,0.3,1v1
			l0,0c0,0.1,0,0.2,0.1,0.2l0.2,0.1l-0.3,0.3l-0.3,0.3l-0.4-0.1l-0.5-0.1l-0.2-0.3l-0.3,0v0.5L73.2,63l-0.5,0.5
			c0.5,0,0.2,0.3-0.1,0.4l-1,0.3c-0.1,0-0.1,0-0.2-0.1v0.3l-0.3,0.1l0.3,0.3h0.2v0.7c0,0.5-1.3,0.2-1.4,0.1v0.8h-0.3l0.1,0.5
			l-0.1,0.7l0.4-0.1v0.3l1,0.1l0.2-0.2l1-1l0.4-0.4l1-0.2c0.1-0.4,0.5,0.1,0.5,0.1c0.4-0.1,0.5,0.3,0.5,0.3l0.5,0.1
			c0.4,0.1,0.2,0.2,0.2,0.3c0,0.2,0.3,0.2,0.3,0.2l0-0.7l0.3,0.1L76,66.1l-0.4-0.2L75,65.7c-0.3-0.4,0.1-0.3,0.4-0.3H76
			c0.3,0.3,0.4,0.6,0.6,1c0,0.2,0.3,0.3,0.3,0.3l0.3-0.1l0.1,0.3h0.3l0.1,0.3h0.7l0.1-0.4l-0.7-0.1l-0.1-0.4l-0.5-0.1
			c-0.2-0.7,0.1-0.9,0.3-0.6l0.3,0.1L77.6,65l0.3-0.1L77.8,64l-0.3-0.1v-0.4l1,0.1c-0.1-0.3-0.1-0.5,0.1-0.8h0.3l0.1,0.2l1.2,0.1
			h0.1c0.5,0.3,0.3,0.6,0.1,0.7c-0.2,0.1-0.3,0.1-0.4,0.1L79.8,64l-1,0.1l0.1,0.5c-0.3-0.1-0.6,0.2-0.6,0.5c0,0.1,0,0.2,0.1,0.3
			c0.1,0.2,0.1,0.3,0,0.5l0.4,0.2l0.5-0.2c0.1-0.4,0.4-0.5,0.8-0.7c0.3-0.2,0.9,0.4,0.7,0.8c0,0.1,0,0.1-0.1,0.1
			c-0.6,0.4-1.2,0.8-1.9,1.1l0,0c-1,0.5-2.2,0.9-3.3,1.1h-0.1l-0.4-0.1l-0.1-0.6c-0.1-0.4-0.9-0.4-0.8-0.1c0.1,0.3-1.4,0.1-1.4,0.1
			l-1,0.7L71,68.5l-0.3,0.2l-0.1-0.3h-0.3l-0.2,0.3l-1.6,0.7c-0.1,0.1-0.2,0.2-0.1,0.2C68.5,69.9,68.1,70.1,68.1,70.1z M80.7,61.6
			c0-0.3,0.1-0.6,0.1-0.7c0-0.1,0.3-0.3,0.4-0.3l0,0c0.1,0,0.2,0.1,0.2,0.2c-0.1,0.2-0.1,0.3,0,0.5c0.5-0.5,1,0.1,0.9,0.2
			c-0.1,0.1,0.3,0.3,0.5,0.1c0.2-0.2,0.4,0.3,0.3,0.6s-0.8,0.2-0.9-0.1c-0.1-0.3-0.2-0.2-0.3-0.1c-0.2,0.1-0.3,0.2-0.5,0.1L81.3,62
			c0-0.1,0.1-0.1,0-0.2C81.2,62,81.2,62,81.1,62L80.7,61.6z"/>
		<path class="st1" d="M101.5,39.3c0,0-0.5-0.4-0.5-0.6c0-0.2-0.5-0.6-0.5-0.8c0-0.2-0.5-0.5-0.5-0.6s-0.3-0.6-0.3-0.6L99,36.1
			L99,35.8h-0.4l-1-1.2l0.1-0.3l-0.3-0.1v-0.5l-0.4-0.1l-0.4-0.1l-0.9-1L95.6,32h-0.4l0.1-0.7l-0.3-1c-0.2,0.1-0.3,0.1-0.4,0
			c-0.3-0.1,0.1-0.4,0.1-0.4v-0.2l-0.3-0.3c0,0-0.7,0.1-0.7-0.1c-0.1-0.1-0.2-0.6-0.2-0.6V28l-0.3-0.1L93,27.6l-0.4,0.1v-0.5
			l-0.3-0.1L92.1,27l-0.1-0.5l-0.9-0.1l-0.3-0.3l-0.3-0.5l-1-0.1l-0.3-0.3H89l-0.3-0.1l-0.1,0.2l-0.8,0.1l-0.1,0.3
			c-0.4,0.1-1,0.2-1.4,0.1l-0.8,0.7c-0.1,0.2-0.1,0.3-0.2,0.3c-0.2,0-0.1,0.5-0.1,0.5c0.3,0,0.4,0,0.7,0.1c0.2,0.1,0.2,0.4,0.2,0.4
			c0.6-0.1,0.9,0.8,0.7,1c-0.1,0.2,0.3,0.2,0.3,0.2c0,0.3,0,0.5-0.1,0.8c-0.1,0.2,0.5,0.3,0.7,0.5c0.1,0.4,0.1,0.8-0.2,1.1
			c-0.1,0.1,0.3,0.2,0.3,0.3c0,0.2,0.1,0,0.2,0.3c0.1,0.3,0.1,1,0.1,1l0.5,0.1c0.1-0.5,1-0.5,1.3-0.5c0.6,0.3,1,0.9,1.2,1.5
			c0,0.3-0.4,0.3-0.4,0.3v0.1l0.3,1c0.5,0.3,1,1,0.9,1.2c-0.1,0.2,0.5,0.1,0.5,0.1c0.1-0.7,0.8-0.5,0.8-0.3c0,0.3,0.2,0.7,0.2,0.7
			l0.2,0.3l0.3,0.3l0.4-0.1l0.1,0.3l0.5,0.1c0.2,0.2,0.3,0.4,0.5,0.6c0.1,0.1,0.6,0.1,0.8,0.1c0.2,0,0.4,0.2,0.4,0.3
			c0.1,0.2,0.2,0.3,0.3,0.5c0,0,0.5,0.1,0.5,0.3c0,0.2,0.2,0.3,0.3,0.5l0.4,0.3l0.1,0.3l0.4,0.1l0.1,0.5l0.7-0.1l0.4-0.3
			c0.1-0.1,0.3-0.2,0.3-0.2l0.6-0.9c0.1-0.2,0.2-0.4,0.4-0.3C101.8,40.4,101.5,39.3,101.5,39.3z"/>
		<path class="st1" d="M96.1,49.6c-0.1-0.1,0.1-0.7,0.1-0.7c0.1-0.2,0.1-0.4,0-0.6c-0.1-0.3-0.1-0.6,0.2-0.9l-0.3-0.2l-0.3-0.1
			l-0.3,0.1c-0.1-0.3-0.2-0.5-0.3-0.8l0,0l0.2,0.1v-0.3h-0.3c-0.1-0.2-0.1-0.3-0.2-0.5l-0.1-0.9l-0.3-0.2l0.1-0.3l-0.3-0.1l0.2-0.5
			l-0.3-0.6h-0.4c-0.2-0.4-0.4-0.8-0.6-1.1c0.1-0.1,0.1-0.1,0.2-0.1c0.2-0.1,0.3-0.1,0.3-0.1l0,0l-0.1-0.4l-0.3-0.3l-0.1-0.5
			c0,0-0.4,0.1-0.4,0.3c0,0.1-0.1,0.1-0.1,0.1c-0.3-0.4-0.6-0.9-0.9-1.3v-0.1c0.2-0.3,0.1-0.4-0.2-0.5c-0.3-0.1-0.3-0.1-0.3-0.4
			c-0.1-0.2-0.2-0.3-0.4-0.4l-0.1-0.5l-0.3,0.2c-0.2-0.2-0.3-0.3-0.5-0.5l0.2-0.4c-0.2,0-0.3-0.1-0.3-0.2l-0.4-0.9
			c-0.2-0.1-0.3-0.2-0.3-0.1c-0.2,0.1-0.1-0.9-0.1-0.9s0.3-0.3,0.5-0.1c0.2,0.2-1.3-2-1.7-1.8c-0.3,0.2-1-0.2-1-0.6
			s-1.4-1.6-1.4-1.6S85,30.5,85,30.7c-0.1,0.3-0.3,0.4,0,0.5c0.3,0.2,0.2-0.2,0.5,0.1c0.3,0.3,0.8,0.6,0.6,0.9
			c-0.1,0.2-0.3,0.3-0.4,0.3l0.3,0.3h0.4l0.1,0.7c0,0,0.5,0.3,0.6,0.5c0.1,0.2,0.1,0.3,0.1,0.4l-0.4,1.3c0.1,0.2,0.2,0.3,0.3,0.4
			h0.2l0.4,0.3v0.3c0.3,0,0.6,0.2,0.8,0.5l0.7,0.7l0,0c0.2,0.2,0.2,0.2,0.4,0.4c0.1,0.1,0.2,0.1,0.2,0.1c0.1,0.2,0.3,0.3,0.4,0.4
			l-0.1,0.1c0,0.4,0.2,0.3,0.4,0.3c0.1,0.1,0.1,0.2,0.2,0.3c0,0.3,0,0.6,0.4,0.6l0,0c0.5,0.7,1,1.4,1.4,2.1v0.1l0,0
			c0.1,0.1,0.2,0.3,0.2,0.3c-0.1,0.1-0.1,0.1-0.2,0.2L92,43v0.6l-0.3,0l0.1,0.4l0.4-0.1c0,0,0,0.5,0.1,0.3c0.1-0.2,1.1,0.1,1,0.5
			c0,0.2,1,0.7,0.9,1.4c0.1,0,0.2,0.1,0.2,0.1c0.2,0.5,0.3,1.1,0.5,1.7L94.8,48c0.1,0.1,0.1,0.1,0.2,0.1c0.1,0.5,0.3,1,0.3,1.5
			c0,0.4-0.1,0.9-0.3,1c-0.5,0.3,0.1,0.1,0.1,0.1l-0.1,0.9c0.1,0.4,0.3,0.2,0.4,0c0.1-0.1,0.1-0.2,0.2-0.3l0.8-1.5
			C96.2,49.8,96.2,49.7,96.1,49.6z"/>
		<path class="st1" d="M84.1,32.5c-0.1-0.3,0.3-0.4,0.5-0.1l0.4-0.1l0.1-0.3l-0.5-0.4h-0.4c0,0-0.1,0.3-0.3,0.2
			c-0.1-0.1-0.3-0.1-0.3-0.1c-0.2-0.1-0.2,0.4-0.1,0.6l0.9,0.4C84.1,32.7,84.1,32.6,84.1,32.5z"/>
		<path class="st1" d="M72.9,25.8c0.1-0.2,0.1-0.2,0.3-0.3c0.3-0.1-0.1-0.5-0.3-0.5c-0.2,0.1-0.3,0-0.4-0.2v1
			C72.7,26.1,72.8,26,72.9,25.8z"/>
		<path class="st1" d="M67.3,59.5c0.1-0.2,0.3-0.3,0.5-0.3l0.1-0.3l1,0.1c0-0.2,0.2-0.3,0.3-0.3c0.1,0,0.2,0.1,0.3,0.2
			c0,0.2,0.4,0.1,0.4,0.1l0.3-0.4h0.4l0.1-0.5L71,58v-0.7c0.3-0.1,0.6-0.4,0.5-0.9l0.2-0.2l-0.1-0.4c-0.3-0.1-0.2-0.4,0.1-0.3
			c0.3,0.1-0.3-0.3-0.3-0.3c-0.3,0.2-0.4-0.3-0.4-0.3h-0.6v-0.6l-0.1-0.5l-0.6-0.3l-0.4,0.4l-0.1,0.6v0.3l-0.4,0.1l-0.1,1L68.4,56
			l0.1,0.4L68,56.6l-0.4,0.1l-0.1,0.5l-0.3,0.1l-0.2,0.5l-0.2,1.1l0.5,0.4C67.3,59.6,67.2,59.5,67.3,59.5z"/>
		<path class="st1" d="M70.9,48.3c-0.5,0,0-0.3,0-0.3l0.1-0.6h-0.4l-0.1-0.9l-1.2-0.6l-0.1-0.4l0.2-0.1l-0.3-0.1l-0.3,0.3l-0.1,0.3
			l-0.4,0.1v0.2H68v0.2c-0.6,0.3-1.1,0.7-1.7,1.1H65h-0.4c-0.2,0.3-0.5-0.1-0.5-0.1c-0.1-0.3-0.6,0-0.6,0c0,0.4-0.7-0.2-0.7-0.2
			l-1.4-1c-0.8-0.7-2,0.2-2,0.4c0,0.3-0.3,0.3-0.5,0.3l-1-0.2c-0.2,0-0.3,0-0.4,0.2c-0.2,0.3-0.7,0.3-0.7,0.3h0.1h-0.3l-0.2,0.3
			l-0.5,0.1l1.2-0.1c0.3-0.1-0.1,0.7-0.3,0.6l-0.5,0.1l-0.3,0.3h-0.5l-0.3,0.3l-0.7-0.1c0,0-0.4,0.3-0.4,0.5
			c0.1,0.2-0.1,0.5-0.2,0.5c-0.2,0-0.3,0.3-0.3,0.5c0.1,0.2-0.3,0.5-0.3,0.5l-0.1,0.4l-0.3,0.1v1l-0.5,0.3v0.5l-0.2,0.3l-0.4,1v0.2
			l-0.6,0.6l0.1,0.6l-0.4,0.1L50.7,56l-0.1,1l0.4,0.1c0.2-0.1,0.2,0.5,0,0.6c-0.2,0.1-0.6,0.3-0.3,0.4c0.3,0.2-0.6,0.1-0.6-0.1
			c0-0.2-0.5-0.4-0.6-0.3c-0.1,0.1-0.2-0.1-0.3-0.2l-1-0.3c-0.3,0.1-0.6,0.1-0.9,0.2L47.1,58c-0.4,0.1-0.7,0.9-0.7,0.9
			c-0.3,0.1-0.6,0.6-0.5,0.7c0.1,0.1-0.2,0.2-0.2,0.2v0.9l-0.2,0.3l0.1,1c0.3,0,0.2,0.4,0.2,0.4c-0.4,0.1-0.3,0.5-0.3,0.5L44.7,63
			l-0.2,0.3l-1-0.1l-0.3,0.3l0,0l-1-0.3h-1.2L40.8,63l-0.4-0.1l-0.1-0.4l-0.6,0.1v0.3H39c0.1,0.4-0.6,1-0.7,0.9
			c-0.1-0.2-0.5-0.6-0.3-0.7c0.3-0.1,0.5-0.2,0.7-0.2v-0.3l-1.5-0.1l-0.2,0.2l-0.6,0.1v0.6l-0.3,0.1c-0.2,0.1,0.1,0.6,0.1,0.6
			c0.3,0.3-0.1,0.7-0.1,0.7c-0.3,0.3,0.2,0.7,0.2,0.7c0.3,0.1-0.2,0.3-0.2,0.3c0,0.2,0.2,0.4,0.3,0.5c-0.2,0.2-0.1,0.4,0.1,0.5
			l0.1,0.1l0.1,0.7l0.3,0.2v0.4l0.2,0.3h0.6l-0.1-1c-0.5-0.6,0.5-0.9,0.5-0.6c0.1,0.3,0.5,0.3,0.5,0.3c0.1,0.6,0.7,1,1,0.3
			c0.2-0.6,0.3-0.3,0.5,0.1c0.3,0.3,0.5,0.7,0.9,1h0.6l0.1,0.6c0.7-0.1,0.9,0.1,1.1,1c0.2,0.5,0.5,1,1,1.2l0.5-0.1
			c0-0.5,0.5,0.1,0.5,0.3c0,0.3,1,1.2,1,1.2l1.2,0.3l0.2,0.2l1.7,0.6h0.2c0.1-0.2,0.2-0.3,0.3-0.3c0.3,0.1,0.7,0.3,0.9,0.6
			c0.1,0.2,0.2,0.3,0.3,0.3l1,0.3c0.1,0.1,0.1,0.2,0.1,0.3c0.1,0.6,0.3,0.5,0.3,0.5l2.3-0.1l0.8-0.7l2-0.1c1-0.1,0.4-1.5,0.2-1.5
			c-0.1-0.2-0.2-0.3-0.1-0.5l-2-3.1c-0.3-0.3-0.6-0.7-1-1c0.1-0.2,0.2-0.3,0.2-0.5c0.5-0.3-0.1-0.9-0.1-0.9c0-0.4-0.1-0.7-0.3-1
			c-0.4-0.3-0.6-0.9-0.5-1.4v-0.7c-0.6-0.6,0.3-0.6,0.3-0.6c0.2-0.3,0.1-0.6-0.2-0.9l-0.1-0.5l-0.5-0.1l-0.2-1.9l-1.4-2.1
			c-0.3-0.1-0.1-0.6-0.1-0.6c0.3-0.2-0.1-0.7-0.1-0.7L51.4,56l0.9-0.1l0.2-0.3h0.4v-1c0.1-0.2,0.2-0.3,0.3-0.3h0.2
			c0.1,0,0.2,0.1,0.2,0.1l0.5,0.1l0.1-0.1l0.3-1l0,0l-0.3-0.1c-0.5-0.3-0.3-1.3-0.3-1.3c0.2-0.3,0.6-0.6,1-0.7
			c0.3,0,0.4,0.1,0.6,0.2l0.5-0.1c0.2,0.1,0.3,0.2,0.3,0.3c-0.1,0.4-0.1,0.7-0.1,1.1C56,52.9,56,52.9,56,53C56,53.1,56,53.2,56,53.2
			l0.1,1l0.2,1l-0.5,0.4c-0.4,0.3-0.4,0.9,0.1,1c0.3,0.1,0.2,0.9-0.3,0.3c-0.6,0,0.2,0.5,0.2,0.5c0.6,0.3,0.5-0.3,0.5-0.3l0.3-0.3
			l0.9-0.5l0,0c0.3,0.2,0.6,0.4,0.7,0.8c0,0.1,1.6,0.1,1.6,0.1c0.3,0.3,0.5,0.6,0.6,1c0.4-0.6,1.4-0.1,0.7,0.3
			c0.6,0.3,0.6,0.7,0.6,0.7c0.5-0.2,0.5,0.3,0.5,0.3c0.1-0.2,0.2-0.4,0.2-0.6c-0.6-0.4,0.8-0.6,0.4,0.2l-0.3,0.3l0.4,0.3l0.1,1
			c0.9-0.1,0.6-1.2,0.6-1.2l0.4-0.1c0-0.3,0.3-0.2,0.3-0.2c-0.2-1,0.2-1.4,0.4-1.5l0.7-0.7c0.1-0.2,0.1-0.3,0.1-0.5
			c-0.3-0.2-0.2-0.7,0.3-0.3c0.4,0.4-0.3-1-0.3-1l-0.3-0.3l-0.4-0.1L63.7,55l-0.3,0.2V55l-0.2,0.5h-0.7L62.5,55l0.4-0.1l0.2-0.3
			l0.1-0.3h0.4l1-1c0-0.1,0.1-0.1,0.2-0.1l0.3,0.2l0.3,0.3l0.1,0.3l-0.3,0.2l-0.1,0.3l0.1,0.4h0.3c0.1-0.3,0.4-0.6,0.8-0.5
			c0.2,0.1,0.3,0.2,0.4,0.3L67,54c-0.5-0.3,0-0.7,0.2-0.5c0.2,0.2,0.5-0.5,0.5-0.5s0.3,0.3,0-0.1c-0.2-0.3-0.1-0.5,0.2-0.7l0.1-0.1
			c-0.1-0.5,0.5-0.4,0.5-0.4l0.1-0.6L68,51c-0.1,0.6-0.6,0.1-0.3-0.1c0.2-0.1,0.3-0.2,0.5-0.3v-0.4l0.3-0.1l0.1-0.4H69l0.5-0.3
			l0.2-0.2l0.5-0.1L70.9,48.3L70.9,48.3z"/>
		<path class="st1" d="M89,71.3"/>
		<polygon class="st1" points="56.5,56.9 57.3,56.4 57.3,56.4 		"/>
		<polygon class="st1" points="48.9,83.3 48.9,83.3 49.1,83.8 49.2,84.2 49.7,84.3 49.8,84.5 50,84.5 49.8,83.8 49.4,83.4 		"/>
		<polygon class="st1" points="69.4,81.9 69.7,81.7 69.8,81.6 69.6,81.5 69.2,81.3 69.1,81.5 69.3,81.6 69.2,81.7 		"/>
		<polygon class="st1" points="66.3,78.4 66,78.6 65.9,78.7 66.1,78.8 66.4,79 66.4,78.8 66.4,78.7 66.4,78.6 		"/>
		<polygon class="st1" points="38,69.9 38,70.4 38.3,70.4 38.2,69.8 37.9,69.7 37.9,69.4 37.7,69.4 37.7,69.9 		"/>
		<polygon class="st1" points="40.5,72.9 40.9,73.4 41.1,73 40.8,72.4 40.6,72.2 40.3,71.7 39.8,71.3 39.8,71.3 40,72.1 40.1,72.5 
					"/>
		<path class="st1" d="M76.1,77.8"/>
		<path class="st1" d="M106.6,66.4h-0.3l0,0c0,0.2,0,0.4,0.2,0.4l0.1-0.3l0,0C106.6,66.5,106.6,66.4,106.6,66.4z"/>
		<path class="st1" d="M107.9,65.4c0.1,0.1,0.1,0.1,0.2,0l-0.1-0.3c0.1,0,0.1,0,0.1,0.1v-0.1c0-0.1-0.1-0.2-0.1-0.3l0,0l-0.2,0.1
			c0,0.1,0,0.1,0.1,0.2C107.7,65.2,107.8,65.3,107.9,65.4z"/>
		<path class="st1" d="M107.9,65.8c-0.1-0.2-0.1-0.3-0.2-0.5l0,0l-0.3,0.1c0.1,0.3,0.2,0.5,0.2,0.5L107.9,65.8z"/>
		<path class="st1" d="M105.4,61.3c-0.1,0-0.1,0-0.2,0c-0.2,0-0.3,0.1-0.5,0.2l0.2,0.2c0.1-0.1,0.3-0.1,0.4-0.1l0,0l0.3-0.1
			C105.5,61.5,105.5,61.3,105.4,61.3z"/>
		<path class="st1" d="M106.2,66.8L106.2,66.8c-0.1,0.1-0.2,0.1-0.3,0.2c-0.3,0.2-0.2,0.7,0,0.6c0.2-0.2,0.3,0,0.3-0.4
			C106.4,66.9,106.3,66.8,106.2,66.8z"/>
		<polygon class="st1" points="74.5,44.9 74.5,44.7 74.5,44.7 74.2,44.7 74.2,44.9 		"/>
		<polygon class="st1" points="76.8,44.2 76.7,44 76.6,44.1 76.7,44.3 		"/>
		
			<rect x="77.5" y="43.7" transform="matrix(0.9989 -4.641221e-02 4.641221e-02 0.9989 -1.951 3.6624)" class="st1" width="0.9" height="0.3"/>
		<polygon class="st1" points="77.1,44 76.9,43.6 76.9,43.6 76.8,43.6 76.8,44 		"/>
		<polygon class="st1" points="73.1,43.9 72.8,43.8 72.8,43.8 72.8,44.1 73,44.1 		"/>
		<rect x="73.9" y="44.2" class="st1" width="0.3" height="0.3"/>
		<polygon class="st1" points="73.6,44 73.3,43.9 73.3,43.9 73.3,44.2 73.6,44.2 		"/>
		<path class="st1" d="M80,18.5c-0.2,0.1-0.4,0.1-0.6,0.1h-0.7c0-0.2-0.2-0.2-0.3-0.2l0,0c-0.2,0-0.3,0.1-0.3,0.2
			c-0.1,0.2-0.3,0.2-0.3,0.2l-1,0.1c-0.1,0.3-0.5,0.4-0.6,0.3l0,0c-0.1-0.3-0.6,0.4-0.1,0.6c0.3,0.1,0.7,0.1,1,0l0.1-0.3l2,0.1
			c0.1-0.1,0.2-0.3,0.3-0.4c0,0,0.5-0.2,0.7-0.1C80.3,19.2,80.3,18.5,80,18.5z"/>
		<path class="st1" d="M76.3,21.1l-0.5-0.5v-0.4l-0.2-0.2l-0.2-0.6l-0.5-0.2l-0.5,0.2l-0.5,0.3l-0.6,0.1L73,20.1l1.3,0.1l0.3,0.4
			l1,0.1l0.6,0.6C76.5,21.7,76.7,21.4,76.3,21.1L76.3,21.1z"/>
		<polygon class="st1" points="81.2,17.7 81,17.9 80.7,17.8 80.5,17.9 80.8,18.2 80.9,18.3 81,18.3 81.4,17.9 		"/>
		<path class="st1" d="M79.2,44.2c0,0.1,0.3,0.3,0.4,0.3c0.2-0.1,0.4-0.2,0.6-0.3c0,0,0.2-0.6,0.1-0.5c-0.2,0.1-0.5,0.3-0.5,0.1
			c0-0.1-0.2-0.2-0.3-0.2c-0.1,0-0.2,0-0.3,0l-0.6,0.1l-0.1,0.3L79,44C79,44,79.2,44.1,79.2,44.2z"/>
		<path class="st1" d="M79.6,43.5"/>
		<polygon class="st1" points="70.4,44.1 70.1,44 70.1,44.2 70.3,44.3 		"/>
		<path class="st1" d="M55.6,57.5L55.6,57.5C55.5,57.5,55.5,57.5,55.6,57.5z"/>
		<path class="st1" d="M55.4,37.8"/>
		<path class="st1" d="M50.2,32.4"/>
		<path class="st1" d="M74.9,19.2"/>
		<rect x="70.7" y="43.7" class="st1" width="0.3" height="0.3"/>
		<path class="st1" d="M65.1,37.2c0.3,0-0.2-0.3-0.2-0.3s-0.5,0.1-0.4-0.2l0.1,0.4H65.1z"/>
		<path class="st1" d="M64.4,36.7"/>
		<polygon class="st1" points="70.1,44.4 69.8,44.3 69.8,44.5 70.1,44.7 		"/>
		<path class="st1" d="M54.5,58.4c0.1,0.4,0.3-0.3,0.3-0.3v-2.8l-0.7-0.1l0,0l0.1,0.3h0.2c0.3,0.6,0.1,2,0.1,2s-0.5,0.1-0.5-0.2
			c-0.1-0.3-0.3,0.5-0.1,0.6C54,58.1,54.5,58,54.5,58.4z"/>
		<polygon class="st1" points="55,59.9 55.1,59.5 54.7,59.4 54.8,58.8 55.1,58.8 55.1,58.5 55.1,58.5 54.5,58.8 54.1,58.6 
			54.1,59.5 54.7,60.4 		"/>
		<path class="st1" d="M55.5,62.5L55.5,62.5c-0.1,0-0.2,0.1-0.2,0.2l0,0c0,0.1,0.1,0.2,0.2,0.2c0.1,0,0.2-0.1,0.2-0.2
			S55.6,62.5,55.5,62.5z"/>
		<path class="st1" d="M55.4,61.9c0-0.1-0.1-0.2-0.2-0.2s-0.2,0.1-0.2,0.2c0,0.1,0.1,0.2,0.2,0.2C55.3,62,55.4,61.9,55.4,61.9z"/>
		<polygon class="st1" points="55.1,60.9 54.9,61 54.8,61.3 55.1,61.3 		"/>
		<polygon class="st1" points="54.5,63.4 54.7,63.3 54.7,63 54.5,63 		"/>
		<polygon class="st1" points="65.6,36.7 65.4,36.5 65.2,36.7 65.5,36.9 		"/>
		<polygon class="st1" points="69.8,44.9 69.8,44.7 69.5,44.7 69.5,44.9 		"/>
	</g>
	<g>
		<path class="st1" d="M202.1,97.1c0.6-5.8,1.3-11.5,1.9-17.3c0.1-1,0.1-1,1.2-1c1,0,1.8,0,2.9,0c0.4,0,0.4,0.1,0.4,0.4
			c-0.5,3.4-1,6.9-1.7,10.4c-0.7,4.5-1.4,9-2.1,13.4c-0.3,1.6-0.2,1.6-1.8,1.6c-0.9,0-1.7,0-2.6,0c-0.3,0-0.5-0.2-0.5-0.5
			c-0.5-5.2-1.1-10.4-1.7-15.6c-0.1-0.3-0.1-0.7-0.3-1l-0.3,2.9c-0.4,3.3-0.8,6.6-1.1,10c-0.2,1.2-0.3,2.4-0.4,3.7
			c-0.1,0.4-0.2,0.6-0.6,0.6c-1.2-0.1-2.4-0.1-3.7,0c-0.4,0-0.5-0.1-0.5-0.5c-1-6.6-1.9-13-2.9-19.6c-0.3-1.7-0.5-3.6-0.8-5.3
			c-0.1-0.3,0-0.4,0.3-0.4c1.2,0,2.4,0,3.6,0c0.3,0,0.4,0.2,0.4,0.4c0.2,1.8,0.4,3.8,0.6,5.6c0.3,3,0.7,6,1,9
			c0.2,1.3,0.3,2.5,0.5,3.8c0.2-1.5,0.3-3.1,0.5-4.6l1-9.8c0.2-1.3,0.3-2.6,0.4-4c0.1-0.4,0.2-0.5,0.6-0.5c1,0.1,2.1,0,3.2,0
			c0.3,0,0.4,0.1,0.5,0.4c0.4,4.5,0.9,9,1.3,13.5C201.9,94,201.9,95.6,202.1,97.1c0.2,0,0.2,0,0.2,0.1
			C202.1,97.3,202.1,97.2,202.1,97.1z"/>
		<path class="st1" d="M221.7,104.2c-0.3-1.5-0.5-3.1-0.7-4.5c-0.6-4.1-1.3-8.3-2-12.4c-0.4-2.6-0.9-5.2-1.2-7.9
			c-0.1-0.3-0.2-0.5-0.5-0.5c-0.9,0.1-1.7,0-2.4,0s-1.7,0-2.4,0c-0.4,0-0.5,0.2-0.6,0.5c-0.3,1.7-0.5,3.4-0.8,5.2
			c-1,6.6-2.1,13.1-3.1,19.7c-0.1,0.4,0,0.5,0.4,0.5c1,0,2.1-0.1,3.2,0c0.6,0.1,0.8-0.3,0.9-0.8c0.1-1.2,0.3-2.4,0.4-3.7
			c0.1-0.4,0.2-0.6,0.6-0.5c0.9,0.1,1.8,0.1,2.7,0c0.5-0.1,0.7,0.2,0.8,0.7c0.1,1.2,0.3,2.5,0.4,3.8c0.1,0.3,0,0.6,0.4,0.6
			c1.2-0.1,2.4,0,3.8,0C221.7,104.6,221.8,104.6,221.7,104.2z M215.4,95.9c-0.6,0-1.2,0-1.7,0c-0.3,0-0.4-0.2-0.3-0.4
			c0.4-3.7,0.9-7.3,1.2-10.9c0.1-0.7,0.2-1.5,0.3-2.2h0.2c0.2,1.5,0.3,3.1,0.5,4.7c0.3,2.7,0.5,5.3,0.8,8
			C216.3,95.9,216.3,95.9,215.4,95.9z"/>
		<path class="st1" d="M170.9,84.9c0,0.6,0,1.2,0,1.7c0,0.3-0.1,0.5-0.5,0.4c-1,0-2.1,0-3.2,0c-0.4,0-0.4-0.1-0.4-0.5
			c0.1-1,0.1-2-0.1-3c-0.3-1.3-1-1.8-2.4-1.6c-0.8,0.2-1.3,0.9-1.3,1.7c-0.1,1.4,0.5,2.9,1.6,3.8c1.5,1.5,2.9,3.2,4.3,4.8
			c2.1,2.4,2.6,5.3,2,8.4c-0.5,2.3-2.3,3.8-4.6,4.1c-1.3,0.2-2.6,0.1-3.8-0.3c-2.2-0.7-3.6-2.7-3.7-5c-0.1-1,0-2,0-3
			c0-0.3,0.1-0.4,0.4-0.4c1.1,0,2.3,0,3.4,0c0.3,0,0.4,0.1,0.4,0.4c-0.1,1,0,2,0.1,3c0.2,1.1,0.8,1.7,1.8,1.7c1,0,1.7-0.7,1.8-1.7
			c0.2-1.7-0.3-3.4-1.6-4.7c-1.3-1.5-2.6-3-4-4.5c-2.2-2.4-2.7-5.2-2-8.3c0.5-2.3,2.4-3.6,4.9-3.8c1-0.1,1.9,0,2.9,0.2
			c2.2,0.4,3.8,2.3,3.8,4.5C170.9,83.7,170.9,84.2,170.9,84.9L170.9,84.9z"/>
		<g>
			<g id="UN">
				<path class="st1" d="M136.6,21.9v5.6c0,2.1,1,3,2.2,3c1.4,0,2.3-1,2.3-3v-5.6h1.2v5.5c0,2.9-1.5,4.1-3.6,4.1c-1.9,0-3.4-1-3.4-4
					v-5.6C135.3,21.9,136.6,21.9,136.6,21.9z"/>
				<path class="st1" d="M144.5,31.3v-9.4h1.3l3.1,4.8c0.6,1,1.2,2,1.7,3.1h0.1c-0.1-1.3-0.2-2.4-0.2-3.8v-3.9h1.1v9.4h-1.2l-3-4.8
					c-0.6-1-1.2-2.1-1.7-3.1h-0.1c0.1,1.2,0.1,2.3,0.1,3.8v4H144.5z"/>
				<path class="st1" d="M155,21.9v9.4h-1.2v-9.4H155z"/>
				<path class="st1" d="M158.4,22.9h-2.9v-1h7v1h-2.9v8.4h-1.2V22.9z"/>
				<path class="st1" d="M168.5,26.8h-3.7v3.4h4.1v1h-5.2v-9.4h5.2v1H165v3h3.7L168.5,26.8z"/>
				<path class="st1" d="M170.5,21.9c0.9-0.2,1.7-0.2,2.6-0.2c1.7,0,3,0.4,3.8,1.2c1,0.9,1.4,2.1,1.3,3.4c0.1,1.4-0.4,2.7-1.4,3.7
					c-0.9,0.9-2.4,1.4-4.2,1.4c-0.7,0-1.5-0.1-2.2-0.1L170.5,21.9L170.5,21.9z M171.7,30.3c0.4,0.1,0.9,0.1,1.2,0.1c2.6,0,4-1.5,4-4
					c0-2.2-1.2-3.7-3.8-3.7c-0.5,0-1,0.1-1.4,0.2C171.6,22.9,171.6,30.3,171.7,30.3z"/>
				<path class="st1" d="M182.7,31.3v-9.4h1.3l3.1,4.8c0.6,1,1.2,2,1.7,3.1h0.1c-0.1-1.3-0.2-2.4-0.2-3.8v-3.9h1.1v9.4h-1.2l-3-4.8
					c-0.6-1-1.2-2.1-1.7-3.1h-0.1c0.1,1.2,0.1,2.3,0.1,3.8v4H182.7z"/>
				<path class="st1" d="M192.9,28.3l-1,3h-1.3l3.2-9.4h1.5l3.2,9.4h-1.3l-1-3C196.3,28.3,192.9,28.3,192.9,28.3z M196,27.4l-1-2.7
					c-0.2-0.6-0.3-1.2-0.5-1.7h-0.1c-0.2,0.6-0.3,1.1-0.5,1.7l-1,2.8L196,27.4z"/>
				<path class="st1" d="M200.7,22.9h-2.9v-1h7v1h-2.9v8.4h-1.2V22.9L200.7,22.9z"/>
				<path class="st1" d="M207.1,21.9v9.4h-1.2v-9.4H207.1z"/>
				<path class="st1" d="M216.8,26.5c0,3.2-2,5-4.4,5c-2.5,0-4.2-1.9-4.2-4.8c0-3,1.8-5,4.4-5C215.1,21.7,216.8,23.7,216.8,26.5z
					 M209.5,26.6c0,2,1,3.8,3,3.8c1.9,0,3.1-1.7,3.1-3.9c0-1.8-1-3.8-3-3.8S209.5,24.6,209.5,26.6z"/>
				<path class="st1" d="M218.5,31.3v-9.4h1.3l3.1,4.8c0.6,1,1.2,2,1.7,3.1h0.1c-0.1-1.3-0.2-2.4-0.2-3.8v-3.9h1.1v9.4h-1.2l-3-4.8
					c-0.6-1-1.2-2.1-1.7-3.1h-0.1c0.1,1.2,0.1,2.3,0.1,3.8v4H218.5z"/>
				<path class="st1" d="M227.4,29.8c0.6,0.4,1.4,0.6,2.2,0.6c1.2,0,2-0.6,2-1.7c0-1-0.5-1.4-1.7-1.8c-1.5-0.5-2.5-1.3-2.5-2.7
					c0-1.5,1.2-2.5,3.1-2.5c0.7-0.1,1.4,0.2,2.1,0.5l-0.3,1c-0.5-0.3-1.2-0.4-1.8-0.4c-1.3,0-1.7,0.8-1.7,1.4c0,0.9,0.6,1.3,1.8,1.8
					c1.6,0.6,2.4,1.4,2.4,2.8s-1,2.7-3.3,2.7c-0.9,0-1.7-0.2-2.4-0.6L227.4,29.8z"/>
			</g>
			<g id="Arabic">
				<polygon class="st1" points="150.1,44.7 150.1,65.5 149.7,65.5 146.3,65.5 146,65.5 146,44.7 146.3,44.7 149.7,44.7 				"/>
				<polygon class="st1" points="217.8,44.7 217.8,65.5 217.4,65.5 214,65.5 213.7,65.5 213.7,44.7 214,44.7 217.4,44.7 				"/>
				<path class="st1" d="M169.4,44.7h-1v16.6h-5.1V48.8h-10.4v16.6h6.2v6.5h4.1v-6.4h30.9V53H190v8.3h-2.2V53h-4.1v8.3h-2.2V53h-4
					v8.3h-5.1V48.8h21.7v-4.1H169.4L169.4,44.7z M159.1,61.3H157V53h2.1V61.3z"/>
				<polygon class="st1" points="211.2,44.7 211.2,65.5 196.8,65.5 196.8,61.1 199.9,61.1 199.9,48.7 204.1,48.8 204.1,61.1 
					207,61.1 207,44.7 				"/>
			</g>
			<path class="st1" d="M173.5,91.6c0-2.3,0-4.6,0-7c-0.1-1.1,0.2-2.3,0.6-3.3c1-2,2.6-2.9,4.7-3.1c1-0.1,1.9,0,2.8,0.3
				c2.3,0.7,3.8,2.8,3.8,5.2c0.1,1.3,0,2.6,0.1,3.9c0,0.3-0.1,0.4-0.4,0.4c-1.1,0-2.3,0-3.4,0c-0.4,0-0.4-0.2-0.4-0.5
				c0-1.2,0-2.4,0-3.7c0-1.2-0.4-1.8-1.4-2c-0.9-0.2-1.7,0.3-1.8,1.1c0,0.1,0,0.1-0.1,0.2c-0.1,0.3-0.1,0.5-0.1,0.9c0,5,0,10,0,15
				c0,0.3,0,0.5,0.1,0.9c0.1,0.9,0.9,1.4,1.7,1.4h0.1c0.9,0.1,1.5-0.6,1.5-1.4v-0.1c0.1-1.7,0.1-3.2,0.1-4.9c0-0.5,0.2-0.7,0.7-0.7
				c1,0.1,2.1,0,3.2,0c0.2,0,0.4-0.1,0.4,0.3c-0.1,1.8,0.2,3.8-0.1,5.7c-0.4,2.9-2.4,4.5-5.3,4.8c-0.9,0.1-1.8-0.1-2.7-0.3
				c-2.3-0.6-3.8-2.7-3.8-5.1C173.4,97,173.5,94.3,173.5,91.6L173.5,91.6z"/>
		</g>
		<path class="st1" d="M145.9,91.7c0-4.1,0-8.1,0-12.3c0-0.5,0.2-0.6,0.7-0.6c3.1,0,6.1,0,9.2,0c0.4,0,0.6,0.1,0.6,0.6
			c-0.1,1-0.1,1.9,0,2.9c0,0.4-0.1,0.5-0.5,0.5c-1.7,0-3.3,0-5,0c-0.4,0-0.5,0.1-0.5,0.5c0,1.8,0,3.8,0,5.7c0,0.4,0.1,0.5,0.5,0.5
			c1.4,0,2.8,0,4.2,0c0.4,0,0.5,0.1,0.5,0.5c-0.1,1-0.1,2,0,3c0,0.4-0.2,0.5-0.5,0.5c-1.4,0-2.8,0-4.1,0c-0.4,0-0.5,0.2-0.5,0.6
			c0,2.1,0,4.1,0,6.1c0,0.4,0.1,0.6,0.6,0.6c1.7-0.1,3.4,0,5.2,0c0.5,0,0.6,0.2,0.6,0.6c-0.1,1,0,1.9,0,2.9c0,0.3-0.1,0.5-0.4,0.5
			c-3.2,0-6.5,0-9.8,0c-0.4,0-0.4-0.2-0.4-0.5C145.9,100,145.9,95.8,145.9,91.7z"/>
	</g>
</g>
</svg>
