<?xml version="1.0" encoding="utf-8"?>
<!-- Generator: Adobe Illustrator 26.0.3, SVG Export Plug-In . SVG Version: 6.00 Build 0)  -->
<svg version="1.1" id="Layer_1" xmlns="http://www.w3.org/2000/svg" xmlns:xlink="http://www.w3.org/1999/xlink" x="0px" y="0px"
	 viewBox="0 0 248.7 123.9" style="enable-background:new 0 0 248.7 123.9;" xml:space="preserve">
<style type="text/css">
	.st0{fill:#ED1C24;}
	.st1{fill:#FFD400;}
	.st2{fill:none;}
	.st3{fill-rule:evenodd;clip-rule:evenodd;fill:#ED1C24;}
</style>
<g>
	<path class="st0" d="M120.1,79.2h-15.7l-1.6-12.6l-13-9.4c-0.4-1.4-0.6-3-0.6-4.5c0-2.5,0.5-5.1,1.6-7.4l22.8,23.1L91.5,41
		c0.8-3.6,2.8-6.8,5.5-9.2l19.9,34.3L99.3,28.5c2.3-3.1,5.4-5.3,9.1-6.4l12.2,42.6l-8.9-44.4c2.7-1.5,5.8-2.3,8.9-2.3
		c0.7,0,1.4,0.1,1.9,0.2l1.9,46.2l1.9-46.2c0.7-0.1,1.4-0.2,1.9-0.2c3.1,0,6.2,0.8,8.9,2.3l-9,44.4l12.1-42.6
		c3.6,1.1,6.9,3.4,9.1,6.4l-17.6,37.6l19.9-34.3c2.8,2.5,4.7,5.7,5.5,9.2l-22.2,27.4l22.8-23.1c1,2.3,1.6,4.8,1.6,7.4
		c0,1.5-0.2,3.1-0.6,4.5l-12.9,9.4l-1.6,12.6h-15.7l-2.3,1.7c-0.6,0.4-1.3,0.7-1.9,0.7c-0.8,0-1.4-0.2-1.9-0.7 M119.3,86.6H97.8
		l-1.9-16l-13.1-9.5c-0.6-2.8-0.8-5.7-0.8-8.5c0-23.5,19-42.5,42.5-42.5s42.5,19,42.5,42.5c0,2.8-0.3,5.8-0.8,8.5l-13.1,9.5l-1.9,16
		h-21.6l-1.3,0.9c-1.1,0.8-2.4,1.3-3.7,1.3s-2.6-0.4-3.7-1.3L119.3,86.6z"/>
	<path class="st1" d="M120.1,79.2h-15.7l-1.6-12.6l-13-9.4c-0.4-1.4-0.6-3-0.6-4.5c0-2.5,0.5-5.1,1.6-7.4l22.8,23.1L91.5,41
		c0.8-3.6,2.8-6.8,5.5-9.2l19.9,34.3L99.3,28.5c2.3-3.1,5.4-5.3,9.1-6.4l12.2,42.6l-8.9-44.4c2.7-1.5,5.8-2.3,8.9-2.3
		c0.7,0,1.4,0.1,1.9,0.2l1.9,46.2l1.9-46.2c0.7-0.1,1.4-0.2,1.9-0.2c3.1,0,6.2,0.8,8.9,2.3l-9,44.4l12.1-42.6
		c3.6,1.1,6.9,3.4,9.1,6.4l-17.6,37.6l19.9-34.3c2.8,2.5,4.7,5.7,5.5,9.2l-22.2,27.4l22.8-23.1c1,2.3,1.6,4.8,1.6,7.4
		c0,1.5-0.2,3.1-0.6,4.5l-12.9,9.4l-1.6,12.6h-15.7l-2.3,1.7c-0.6,0.4-1.3,0.7-1.9,0.7c-0.8,0-1.4-0.2-1.9-0.7"/>
	<path class="st2" d="M120.1,79.2h-15.7l-1.6-12.6l-13-9.4c-0.4-1.4-0.6-3-0.6-4.5c0-2.5,0.5-5.1,1.6-7.4l22.8,23.1L91.5,41
		c0.8-3.6,2.8-6.8,5.5-9.2l19.9,34.3L99.3,28.5c2.3-3.1,5.4-5.3,9.1-6.4l12.2,42.6l-8.9-44.4c2.7-1.5,5.8-2.3,8.9-2.3
		c0.7,0,1.4,0.1,1.9,0.2l1.9,46.2l1.9-46.2c0.7-0.1,1.4-0.2,1.9-0.2c3.1,0,6.2,0.8,8.9,2.3l-9,44.4l12.1-42.6
		c3.6,1.1,6.9,3.4,9.1,6.4l-17.6,37.6l19.9-34.3c2.8,2.5,4.7,5.7,5.5,9.2l-22.2,27.4l22.8-23.1c1,2.3,1.6,4.8,1.6,7.4
		c0,1.5-0.2,3.1-0.6,4.5l-12.9,9.4l-1.6,12.6h-15.7l-2.3,1.7c-0.6,0.4-1.3,0.7-1.9,0.7c-0.8,0-1.4-0.2-1.9-0.7L120.1,79.2z"/>
	<rect x="161" y="95.1" class="st0" width="5.8" height="18.1"/>
	<rect x="150.1" y="95.1" class="st0" width="5.8" height="18.1"/>
	<path class="st3" d="M140.9,104.6H133c0-0.1,0-0.2,0-0.2v-0.1c0-0.2,0.1-0.3,0.2-0.4c0.1-0.2,0.2-0.3,0.2-0.4
		c0.1-0.2,0.2-0.3,0.3-0.4c0.2-0.2,0.3-0.3,0.4-0.4c0.2-0.2,0.4-0.3,0.7-0.4c0.2-0.2,0.4-0.2,0.8-0.3c0.3-0.1,0.5-0.2,0.8-0.2
		c0.2,0,0.4-0.1,0.7-0.1c0.1,0,0.1,0,0.2,0c0.3,0,0.6,0.1,0.8,0.1c0.3,0.1,0.5,0.2,0.8,0.2c0.2,0.1,0.4,0.2,0.7,0.3
		c0.3,0.2,0.4,0.3,0.6,0.4c0.2,0.2,0.3,0.3,0.4,0.4s0.2,0.3,0.3,0.4c0.1,0.2,0.2,0.3,0.2,0.4c0.1,0.2,0.1,0.3,0.2,0.4v0.1
		C140.9,104.5,140.9,104.5,140.9,104.6 M146.5,107.3h-13.6c0,0.1,0,0.2,0,0.2v0.1c0,0.2,0,0.4,0.1,0.6c0.1,0.2,0.1,0.3,0.2,0.5
		c0.1,0.3,0.2,0.4,0.3,0.7c0.2,0.2,0.3,0.4,0.4,0.5c0.2,0.2,0.4,0.3,0.7,0.4c0.3,0.2,0.5,0.3,0.8,0.3c0.3,0.1,0.5,0.2,0.8,0.2
		c0.3,0.1,0.5,0.1,0.8,0.1l0,0c0.3,0,0.4,0,0.8-0.1c0.3,0,0.4-0.1,0.8-0.2c0.2-0.1,0.4-0.2,0.7-0.3c0.2-0.1,0.4-0.2,0.5-0.3
		c0.1-0.2,0.2-0.2,0.3-0.3c0.1-0.2,0.2-0.3,0.3-0.4c0,0,0-0.1,0.1-0.1c0-0.1,0-0.1,0.1-0.2h5.8c0,0.1-0.1,0.2-0.1,0.3s0,0.1-0.1,0.2
		c-0.1,0.2-0.2,0.4-0.3,0.7c-0.2,0.3-0.3,0.4-0.5,0.7c-0.3,0.3-0.6,0.5-0.8,0.8c-0.3,0.3-0.7,0.4-1,0.7c-0.4,0.3-0.9,0.4-1.4,0.7
		c-0.5,0.2-1.1,0.3-1.6,0.4c-0.5,0.1-1,0.2-1.6,0.2c-0.5,0.1-1,0.1-1.5,0.1c-0.1,0-0.1,0-0.2,0c-0.6,0-1.1-0.1-1.7-0.2
		c-0.5-0.1-1-0.2-1.6-0.3c-0.8-0.2-1.4-0.4-2-0.7c-0.7-0.3-1.3-0.7-1.8-1c-0.4-0.3-0.8-0.8-1.2-1.2c-0.3-0.4-0.6-0.8-0.8-1.4
		c-0.2-0.4-0.3-0.8-0.4-1.3c-0.1-0.4-0.2-0.9-0.2-1.4c0-0.4,0.1-1,0.2-1.4c0.2-0.4,0.3-0.9,0.4-1.4c0.3-0.5,0.5-1,0.9-1.4
		c0.4-0.4,0.8-0.9,1.4-1.3c0.4-0.3,1-0.7,1.5-0.9c0.5-0.3,1.1-0.4,1.6-0.7c0.6-0.2,1.1-0.3,1.7-0.3s1.2-0.2,1.9-0.2
		c0.1,0,0.2,0,0.3,0c0.7,0,1.3,0.1,1.9,0.2c0.6,0.1,1.2,0.2,1.8,0.4c0.7,0.2,1.4,0.4,1.9,0.8c0.5,0.3,1,0.7,1.6,1
		c0.4,0.4,0.9,0.8,1.3,1.4c0.3,0.5,0.6,1,0.8,1.6c0.2,0.4,0.2,0.8,0.3,1.2c0.1,0.4,0.2,0.9,0.2,1.4c0,0.1,0,0.1,0,0.2
		C146.5,107.2,146.5,107.2,146.5,107.3z"/>
	<path class="st0" d="M111.6,95.1v6c0.1-0.1,0.2-0.2,0.3-0.2c0.1-0.1,0.1-0.1,0.2-0.2c0.3-0.2,0.5-0.3,0.8-0.5
		c0.3-0.2,0.7-0.3,1-0.5c0.4-0.2,0.8-0.3,1.2-0.4c0.4-0.1,0.8-0.2,1.1-0.3s0.8-0.2,1-0.2c0.3,0,0.4,0,0.8,0c0.2,0,0.3,0,0.4,0
		c0.4,0,0.8,0.1,1.2,0.2c0.4,0.1,0.8,0.2,1,0.3c0.4,0.2,0.8,0.3,1.2,0.6c0.4,0.3,0.8,0.5,1,0.9c0.3,0.3,0.5,0.7,0.8,1
		c0.2,0.3,0.3,0.7,0.4,1c0.1,0.3,0.2,0.6,0.2,0.9c0.1,0.4,0.1,0.8,0.1,1.2c0,0.2,0,0.3,0,0.5c0,0.3,0,0.5,0,0.8v6.9h-5.7v-7.5
		c0-0.3,0-0.6,0-0.8c0-0.2,0-0.3,0-0.4c0-0.2-0.1-0.4-0.2-0.7c-0.2-0.2-0.3-0.4-0.4-0.6c-0.2-0.2-0.3-0.3-0.5-0.4
		c-0.2-0.2-0.4-0.2-0.6-0.3c-0.2-0.1-0.4-0.2-0.7-0.2s-0.4-0.1-0.6-0.1h-0.1c-0.3,0-0.4,0-0.8,0.1c-0.2,0.1-0.4,0.1-0.6,0.2
		c-0.3,0.1-0.4,0.2-0.8,0.3s-0.4,0.3-0.7,0.5c-0.2,0.3-0.4,0.5-0.6,0.8c-0.2,0.3-0.3,0.5-0.3,0.8c-0.1,0.2-0.1,0.3-0.1,0.5
		c0,0.3-0.1,0.4-0.1,0.8c0,0.2,0,0.3,0,0.4c0,0.2,0,0.4,0,0.6v5.8h-5.8V95h5.8"/>
	<path class="st0" d="M101.8,100.5h-6c0-0.1,0-0.2,0-0.2c0-0.1,0-0.1,0-0.2c0-0.2-0.1-0.3-0.1-0.5c-0.1-0.2-0.1-0.3-0.2-0.4
		c-0.1-0.2-0.2-0.3-0.3-0.4c-0.2-0.2-0.3-0.3-0.4-0.4c-0.2-0.2-0.3-0.3-0.5-0.3c-0.2-0.1-0.4-0.2-0.6-0.3c-0.2-0.1-0.4-0.2-0.8-0.2
		c-0.3-0.1-0.5-0.1-0.8-0.1l0,0c-0.1,0-0.2,0-0.2,0c-0.2,0-0.3,0-0.5,0c-0.2,0-0.4,0-0.6,0c-0.2,0.1-0.4,0.2-0.7,0.2
		c-0.2,0.1-0.4,0.2-0.6,0.3c-0.2,0.2-0.3,0.2-0.4,0.3c-0.2,0.2-0.3,0.3-0.4,0.4c-0.2,0.2-0.2,0.3-0.3,0.4c-0.1,0.2-0.1,0.3-0.1,0.5
		c0,0.2,0,0.3,0.1,0.5c0.1,0.2,0.2,0.3,0.2,0.4c0.2,0.2,0.3,0.3,0.4,0.4c0.2,0.2,0.3,0.2,0.5,0.3c0.2,0.1,0.4,0.2,0.6,0.2
		c0.3,0.1,0.6,0.1,0.8,0.2c0.4,0.1,0.8,0.1,1.2,0.1c0.4,0,0.8,0.1,1.2,0.1l0,0c0.7,0.1,1.4,0.1,1.9,0.2c0.3,0,0.5,0.1,0.8,0.1
		c0.6,0.1,1.2,0.2,1.7,0.3c0.4,0.2,1,0.3,1.4,0.4c0.5,0.2,1,0.4,1.4,0.8c0.4,0.3,0.8,0.8,1,1.3c0.2,0.3,0.3,0.7,0.4,1
		c0.1,0.4,0.2,0.8,0.2,1.2c0,0.4-0.1,0.8-0.2,1.2c-0.1,0.4-0.2,0.8-0.4,1.1c-0.2,0.4-0.4,0.8-0.8,1.2c-0.3,0.3-0.7,0.7-1,0.8
		c-0.5,0.3-1.1,0.7-1.8,0.9c-0.7,0.3-1.4,0.4-1.9,0.6c-0.8,0.2-1.4,0.3-2.1,0.3c-0.8,0.1-1.5,0.2-2.2,0.2c-0.1,0-0.2,0-0.2,0
		c-0.7,0-1.3,0-1.9-0.1c-0.7-0.1-1.4-0.2-2-0.2c-0.6-0.1-1.3-0.3-1.9-0.4c-0.5-0.2-1-0.4-1.5-0.6c-0.3-0.2-0.8-0.4-1-0.7l0,0
		c-0.3-0.3-0.6-0.6-0.8-0.9c-0.2-0.2-0.3-0.4-0.4-0.7c-0.2-0.3-0.2-0.5-0.3-0.8c-0.1-0.2-0.1-0.4-0.2-0.6c0-0.2-0.1-0.4-0.1-0.7
		v-0.1c0-0.1,0-0.2,0-0.2h6c0,0.1,0,0.2,0,0.3c0,0.1,0,0.2,0,0.2c0,0.2,0.1,0.3,0.1,0.4c0.1,0.2,0.2,0.3,0.2,0.4
		c0.2,0.2,0.2,0.3,0.3,0.4c0.2,0.2,0.3,0.3,0.4,0.4c0.2,0.2,0.4,0.3,0.7,0.3c0.3,0.2,0.5,0.2,0.8,0.3c0.3,0.1,0.6,0.2,0.8,0.2
		c0.3,0.1,0.6,0.1,0.8,0.1c0,0,0,0,0.1,0c0.3,0,0.5,0,0.8-0.1c0.3,0,0.6-0.1,0.8-0.2s0.5-0.2,0.8-0.2c0.2-0.1,0.4-0.2,0.6-0.3
		c0.2-0.1,0.3-0.2,0.4-0.3c0.2-0.2,0.3-0.3,0.4-0.5c0.1-0.2,0.2-0.3,0.2-0.4c0.1-0.2,0.1-0.3,0.1-0.5c0-0.2,0-0.3-0.1-0.5
		c-0.1-0.2-0.1-0.3-0.2-0.4c-0.2-0.2-0.3-0.3-0.4-0.4c-0.2-0.2-0.4-0.2-0.6-0.3c-0.2-0.1-0.4-0.2-0.8-0.2c-0.3-0.1-0.6-0.1-0.8-0.2
		l-2.7-0.2c-0.5-0.1-1.1-0.1-1.6-0.2s-1-0.2-1.6-0.2c-0.6-0.1-1.1-0.2-1.6-0.3c-0.4-0.2-0.8-0.3-1.1-0.4c-0.3-0.2-0.6-0.4-0.8-0.7
		c-0.3-0.3-0.5-0.7-0.8-1c-0.2-0.3-0.3-0.8-0.4-1.1c-0.2-0.4-0.2-0.8-0.2-1.3c0-0.4,0.1-0.9,0.2-1.4c0.2-0.4,0.3-0.8,0.4-1.2
		c0.3-0.4,0.7-0.9,1-1.4c0.4-0.4,0.9-0.8,1.4-1s1-0.4,1.6-0.6c0.6-0.2,1.3-0.3,1.9-0.4c0.6-0.1,1.1-0.2,1.7-0.2
		c0.5-0.1,1-0.1,1.6-0.1c0.1,0,0.2,0,0.3,0c0.6,0,1.3,0.1,1.9,0.1c0.6,0.1,1.2,0.2,1.8,0.3c0.6,0.2,1.1,0.3,1.7,0.4
		c0.5,0.2,1,0.4,1.4,0.7c0.3,0.2,0.7,0.4,0.9,0.7s0.5,0.5,0.8,0.8c0.2,0.2,0.3,0.4,0.3,0.7c0.2,0.3,0.2,0.5,0.3,0.8
		c0.1,0.2,0.1,0.3,0.2,0.5c0,0.2,0.1,0.3,0.1,0.4s0,0.1,0,0.2C101.8,100.4,101.8,100.5,101.8,100.5"/>
</g>
</svg>
