<?xml version="1.0" encoding="utf-8"?>
<!-- Generator: Adobe Illustrator 26.0.3, SVG Export Plug-In . SVG Version: 6.00 Build 0)  -->
<svg version="1.1" id="Calque_1" xmlns="http://www.w3.org/2000/svg" xmlns:xlink="http://www.w3.org/1999/xlink" x="0px" y="0px"
	 viewBox="0 0 248.7 123.9" style="enable-background:new 0 0 248.7 123.9;" xml:space="preserve">
<style type="text/css">
	.st0{fill:#FFF001;}
	.st1{fill:none;stroke:#DB0632;stroke-width:0.5;stroke-miterlimit:10;}
	.st2{fill:#DB0632;}
	.st3{font-family:'Calibri';}
	.st4{font-size:8.4318px;}
</style>
<polygon class="st0" points="232,62.8 125,120.4 18,62.8 125,4.7 "/>
<g>
	<path class="st0" d="M56.6,74.5c0.8,5.1,4,7.2,8.7,7.2c4.5,0,6.6-1.8,6.6-5.2c0-3.8-2.2-5.3-10.2-7.5
		c-14.9-4.1-17.9-10.4-17.9-18.2C43.8,41.2,50,33,64.1,33c14.6,0,20.6,8.5,21.3,17.7H71.2c-0.4-3.1-1.8-6.3-7.1-6.3
		c-3.4,0-5.5,1.5-5.5,4.6c0,3.1,1.9,4.4,9.7,6.6C83.9,60.2,87,66.6,87,74.8c0,10.9-7.4,18.4-22.3,18.4c-14.1,0-21.4-7.5-22.5-18.7
		C42.1,74.5,56.6,74.5,56.6,74.5z"/>
	<path class="st0" d="M158.6,92.1V30.9h51.3v61h-51.3V92.1z"/>
</g>
<circle class="st1" cx="218.9" cy="42.5" r="4.2"/>
<g>
	<text transform="matrix(1 0 0 1 216.6016 44.7722)" class="st2 st3 st4">R</text>
</g>
<g>
	<g>
		<path class="st2" d="M61.2,72.9c0.8,4.1,3.7,5.9,8.2,5.9c4.2,0,6.1-1.5,6.1-4.2c0-3.1-2-4.4-9.6-6.1C52,65.1,49.2,59.9,49.2,53.5
			c0-7.9,5.9-14.6,19.1-14.6c13.8,0,19.4,7,20.1,14.5H74.9c-0.4-2.6-1.6-5.2-6.6-5.2c-3.1,0-5.2,1.2-5.2,3.8c0,2.6,1.8,3.5,9,5.3
			C86.8,61,89.8,66.2,89.8,73c0,8.9-6.8,15.2-20.9,15.2c-13.1,0-20.1-6.1-21.2-15.3C47.7,72.9,61.2,72.9,61.2,72.9z"/>
		<path class="st2" d="M89,37.2h13.5v9.4H89V37.2z M89,51.2h13.5v36.2H89V51.2z"/>
		<path class="st2" d="M104.5,87.3V60.2h-4.8v-9h4.8V49c0-7.8,4-12.4,12.8-12.4c1.9,0,4.5,0.1,5.5,0.4v8.9c-0.5-0.1-1.2-0.1-1.8-0.1
			c-2.3,0-3.1,0.8-3.1,3.4V51h5.6v9h-5.6v27.2h-13.4V87.3z"/>
		<path class="st2" d="M156.1,74.8c-1.1,6.6-5.3,13.4-17.7,13.4c-12.7,0-18.3-8.3-18.3-18.7c0-10.9,6.7-19.2,18.8-19.2
			c13.7,0,17.1,9.1,17.3,13.5h-13c-0.4-2.6-1.5-4.5-4.4-4.5c-3.4,0-5.1,3.1-5.1,9.8c0,7.5,1.9,10.2,5.1,10.2c2.7,0,4-2,4.5-4.5
			C143.4,74.8,156.1,74.8,156.1,74.8z"/>
		<path class="st2" d="M191.8,69.2c0,11.3-7.1,19-19.5,19c-12.8,0-19.2-8.5-19.2-18.8c0-10.9,6.7-19.1,19.7-19.1
			C184.5,50.2,191.8,58.2,191.8,69.2z M166.6,69.2c0,6.8,2,10,5.6,10s5.5-3,5.5-9.8c0-7.5-1.9-10-5.6-10
			C169,59.3,166.6,61.7,166.6,69.2z"/>
		<path class="st2" d="M190.7,87.3V37.2h13.5v50h-13.5V87.3z"/>
	</g>
</g>
<g>
	<path d="M145.1,44.2c0,0.7-0.1,1.1-0.4,1.6s-0.7,0.8-1.1,1c-0.4,0.1-1.1,0.3-1.8,0.3s-1.2-0.1-1.8-0.4c-0.5-0.3-0.8-0.5-1.1-1
		s-0.4-1-0.4-1.6v-2.7h1.6v2c0,0.4,0,0.8,0.1,1.1s0.3,0.5,0.5,0.8c0.3,0.3,0.5,0.3,1.1,0.3c0.4,0,0.8-0.1,1-0.3
		c0.1-0.1,0.4-0.4,0.5-0.8c0.1-0.4,0.1-0.7,0.1-1.1v-5.9h1.6v6.7H145.1z"/>
	<path d="M152,43.2c0.1,0,0.1,0,0.3,0s0.1,0.1,0.1,0.3s0,0.3,0,0.5s0,0.4,0,0.5c0,0.1,0,0.1-0.1,0.3c-0.1,0.1-0.1,0-0.3,0h-0.7
		c0,0.5-0.1,1-0.3,1.2c-0.1,0.3-0.4,0.5-0.7,0.8c-0.3,0.3-0.8,0.3-1.4,0.3h-1.8v-1.5h1.6c0.3,0,0.4,0,0.4,0s0.1-0.1,0.1-0.3
		c0-0.1,0-0.3,0-0.5h-3.3V42c0-0.7,0.1-1.2,0.5-1.5c0.4-0.3,0.8-0.5,1.5-0.5h2.9v3.3C151.1,43.2,152,43.2,152,43.2z M148.9,41.5
		c-0.3,0-0.5,0-0.7,0.1c-0.1,0.1-0.1,0.3-0.1,0.5v1.1h1.5v-1.8H148.9z"/>
	<path d="M154.5,39.8h2.7c0.7,0,1.2,0.1,1.6,0.5s0.5,1,0.5,1.6v1.2h0.7c0.1,0,0.1,0,0.3,0c0.1,0,0.1,0.1,0.1,0.3c0,0.1,0,0.3,0,0.5
		s0,0.4,0,0.5s0,0.1-0.1,0.3s-0.1,0-0.3,0H152c-0.1,0-0.3,0-0.3,0s-0.1-0.1-0.1-0.3s0-0.3,0-0.5s0-0.4,0-0.5c0-0.1,0.1-0.1,0.1-0.3
		c0-0.1,0.1,0,0.3,0h5.7v-1c0-0.3,0-0.5-0.1-0.7c-0.1-0.1-0.4-0.1-0.7-0.1h-4.4v-0.7c0-0.3,0-0.5,0.1-0.8s0.1-0.4,0.4-0.5
		c0.3-0.1,0.4-0.4,0.7-0.7l4-2.6v1.8L154.5,39.8z"/>
	<path d="M166.6,43.2c0.1,0,0.1,0,0.3,0c0.1,0,0.1,0.1,0.1,0.3s0,0.3,0,0.5s0,0.4,0,0.5c0,0.1-0.1,0.1-0.1,0.3c0,0.1-0.1,0-0.3,0
		h-6.6c-0.1,0-0.3,0-0.3,0s-0.1-0.1-0.1-0.3c0-0.1,0-0.3,0-0.5s0-0.4,0-0.5s0.1-0.1,0.1-0.3s0.1,0,0.3,0h1V42c0-0.7,0.1-1.2,0.5-1.5
		c0.4-0.3,0.8-0.5,1.5-0.5h2.9v3.3H166.6z M163.5,37.2c0.1,0,0.3,0,0.4,0.1s0.3,0.1,0.3,0.3c0,0.1,0.1,0.3,0.1,0.4s0,0.3-0.1,0.4
		c-0.1,0.1-0.1,0.3-0.3,0.3c-0.1,0-0.3,0.1-0.4,0.1s-0.3,0-0.4-0.1c-0.1-0.1-0.3-0.1-0.3-0.3c0-0.1-0.1-0.3-0.1-0.4s0-0.3,0.1-0.4
		s0.1-0.3,0.3-0.3S163.4,37.2,163.5,37.2z M163.6,41.5c-0.3,0-0.5,0-0.7,0.1c-0.1,0.1-0.1,0.3-0.1,0.5v1.1h1.5v-1.8H163.6z"/>
	<path d="M170.9,43.2c0.1,0,0.1,0,0.3,0c0.1,0,0.1,0.1,0.1,0.3s0,0.3,0,0.5s0,0.4,0,0.4s-0.1,0.1-0.1,0.3s-0.1,0-0.3,0h-4.1
		c-0.1,0-0.3,0-0.3,0s-0.1-0.1-0.1-0.3s0-0.3,0-0.5s0-0.4,0-0.5c0-0.1,0.1-0.1,0.1-0.3c0-0.1,0.1,0,0.3,0h1.6v-3.3h1.6v3.3h0.8V43.2
		z M168,45.4c0.1,0,0.3,0,0.4,0.1s0.3,0.1,0.3,0.3s0.1,0.3,0.1,0.4c0,0.1,0,0.3-0.1,0.4c-0.1,0.1-0.1,0.3-0.3,0.3s-0.3,0.1-0.4,0.1
		s-0.3,0-0.4-0.1c-0.1-0.1-0.3-0.1-0.3-0.3c0-0.1-0.1-0.3-0.1-0.4c0-0.1,0-0.3,0.1-0.4s0.1-0.3,0.3-0.3
		C167.7,45.6,167.9,45.4,168,45.4z M170.1,45.4c0.1,0,0.3,0,0.4,0.1s0.3,0.1,0.3,0.3s0.1,0.3,0.1,0.4c0,0.1,0,0.3-0.1,0.4
		c-0.1,0.1-0.1,0.3-0.3,0.3c-0.1,0-0.3,0.1-0.4,0.1s-0.3,0-0.4-0.1c-0.1-0.1-0.3-0.1-0.3-0.3c0-0.1-0.1-0.3-0.1-0.4
		c0-0.1,0-0.3,0.1-0.4s0.1-0.3,0.3-0.3C169.8,45.6,169.9,45.4,170.1,45.4z"/>
	<path d="M170.9,44.7c-0.1,0-0.3,0-0.3,0s-0.1-0.1-0.1-0.3c0-0.1,0-0.3,0-0.5s0-0.4,0-0.5s0.1-0.1,0.1-0.3s0.1,0,0.3,0h1.1v-3h1.6v3
		h1v-3h1.6v3h1v-3.3h1.6v4.9C178.8,44.7,170.9,44.7,170.9,44.7z"/>
</g>
</svg>
