<?xml version="1.0" encoding="utf-8"?>
<!-- Generator: Adobe Illustrator 26.0.3, SVG Export Plug-In . SVG Version: 6.00 Build 0)  -->
<svg version="1.1" id="Calque_1" xmlns="http://www.w3.org/2000/svg" xmlns:xlink="http://www.w3.org/1999/xlink" x="0px" y="0px"
	 viewBox="0 0 248.7 123.9" style="enable-background:new 0 0 248.7 123.9;" xml:space="preserve">
<style type="text/css">
	.st0{fill:#179C7D;}
	.st1{fill:#FFFFFF;}
</style>
<g>
	<g>
		<path class="st0" d="M5.2,81.1c9.2-4.7,22.7-12.4,38.6-23.6v-3.8C29.8,63,15.5,70.4,5.2,75.3V81.1z"/>
		<path class="st0" d="M5.2,69.9c10.2-4.2,24.5-10.6,38.6-19v-1.9c-13.3,6.6-27,10.7-38.6,13.3V69.9z"/>
		<path class="st0" d="M43.8,81.2V62.3C35,69.7,26.3,76.1,19,81.2H43.8z"/>
		<path class="st0" d="M14.1,81.2C21,77,29.4,71.6,37.8,65.4c2-1.5,4-3,6-4.5v-2.3c-12.4,9.3-25.1,17.1-35,22.7H14.1z"/>
		<path class="st0" d="M5.2,59.6c11.3-2,25.1-5.6,38.6-12v-2.1c-13.6,6.1-27.2,8.7-38.6,9.6V59.6z"/>
		<path class="st0" d="M5.2,42.3v10.8C6,53.1,6.9,53,7.8,53c9.4-0.7,22.2-2.4,36.1-8.4v-2.3H5.2z"/>
		<g>
			<g>
				<path class="st1" d="M5.2,53.1v2c11.4-0.9,25-3.5,38.6-9.6v-0.9C30,50.6,17.2,52.2,7.8,53C6.9,53,6,53.1,5.2,53.1z"/>
			</g>
		</g>
		<g>
			<g>
				<path class="st1" d="M5.2,62.3c11.6-2.6,25.4-6.7,38.6-13.3v-1.5c-13.5,6.4-27.3,10-38.6,12V62.3z"/>
			</g>
		</g>
		<g>
			<g>
				<path class="st1" d="M5.2,75.3C15.5,70.4,29.8,63,43.8,53.8v-2.9c-14.1,8.4-28.4,14.8-38.6,19V75.3z"/>
			</g>
		</g>
		<g>
			<g>
				<path class="st1" d="M14.1,81.2H19c7.3-5,16-11.5,24.8-18.9v-1.5c-2,1.6-4,3.1-6,4.5C29.4,71.6,21,77,14.1,81.2z"/>
			</g>
		</g>
		<g>
			<g>
				<path class="st1" d="M5.2,81.2h3.6c9.9-5.6,22.6-13.4,35-22.7v-0.9C27.8,68.8,14.4,76.4,5.2,81.2L5.2,81.2z"/>
			</g>
		</g>
	</g>
	<path d="M232.3,81.1h5v-7c0-2.7,0-7.8,4-7.8c0.9,0,1.8,0.1,2.2,0.4v-5c-0.5-0.1-1-0.1-1.5-0.1c-3,0-5,3-5.2,4.8h-0.1V62h-4.4
		L232.3,81.1L232.3,81.1z M227.3,76c-1.9,1-3.9,1.9-6.3,1.9c-3.1,0-5.2-1.7-5.5-4.8h13.2c0-6.7-2-11.5-9.1-11.5
		c-5.9,0-8.9,4.6-8.9,10.1c0,6.3,3.7,9.9,10,9.9c2.7,0,4.7-0.5,6.6-1.5L227.3,76L227.3,76z M215.5,69.7c0.2-2.6,1.6-4.5,4.4-4.5
		s3.9,2.1,4,4.5H215.5z M199.6,81.1h5V65.7h4.3V62h-4.3v-2.4c0-1.5,0.5-2.9,2.2-2.9c1.1,0,1.7,0.4,2.1,0.7l0.4-4.1
		c-1-0.2-2.4-0.4-3.6-0.4c-3.9,0-6.1,2.7-6.1,6.5V62H196v3.6h3.7L199.6,81.1L199.6,81.1z M179.9,71.1c0-2.9,1.6-5.7,4.8-5.7
		c3.3,0,4.8,2.7,4.8,5.7c0,3.2-1,6.6-4.8,6.6C180.9,77.7,179.9,74.3,179.9,71.1 M174.7,71.7c0,5.5,3.7,9.9,10,9.9
		c6.3,0,10-4.4,10-9.9c0-6.3-4.3-10.1-10-10.1C179,61.6,174.7,65.4,174.7,71.7 M154,81.1h5v-9.4c0-2.4,0.8-6.3,4.4-6.3
		c3.2,0,3.2,3.2,3.2,5.5v10.2h5V69.1c0-4.3-2-7.5-6.5-7.5c-2.6,0-4.7,1.2-6,3h-0.1V53.3h-5V81.1z M131.3,81.1h5v-9.4
		c0-2.4,0.8-6.3,4.4-6.3c3.2,0,3.2,3.2,3.2,5.5v10.2h5V69.1c0-4.3-2-7.5-6.5-7.5c-2.6,0-4.7,0.9-6.3,3H136V62h-4.7V81.1z M126.2,62
		h-5v9.3c0,2.4-0.8,6.3-4.4,6.3c-3.2,0-3.2-3.2-3.2-5.5V62h-5v12.1c0,4.3,2,7.5,6.5,7.5c2.6,0,4.7-1.2,6.3-3h0.1v2.6h4.7L126.2,62
		L126.2,62z M92.3,75.6c0-2.9,3.3-3.3,5.5-3.3h2.2c0,1.5-0.2,2.9-1,3.9c-0.8,1-2,1.7-3.5,1.7C93.6,77.9,92.3,77.2,92.3,75.6
		 M89.8,67.3c1.7-1.3,3.8-2.1,5.9-2.1c2.9,0,4.3,1,4.3,4.1h-2.7c-2.1,0-4.5,0.2-6.4,1.1c-1.9,0.9-3.3,2.6-3.3,5.5
		c0,3.6,3.3,5.7,6.7,5.7c2.3,0,4.7-1.2,5.9-3.3h0.1c0,0.6,0,1.8,0.2,2.9h4.4c-0.1-1.5-0.2-2.8-0.2-4.3c0-1.4-0.1-2.9-0.1-4.8v-2.4
		c0-5.6-2.4-8-8.2-8c-2.1,0-4.7,0.6-6.6,1.4L89.8,67.3z M74.8,81.1h5v-7c0-2.7,0-7.8,4-7.8c0.9,0,1.8,0.1,2.2,0.4v-5
		c-0.5-0.1-1-0.1-1.5-0.1c-3,0-5,3-5.2,4.8h-0.1V62h-4.4V81.1z M56.9,81.1H62V69.8h8.8v-4.1H62v-6.4h9.2v-4.1H56.9V81.1z"/>
</g>
</svg>
