<?xml version="1.0" encoding="utf-8"?>
<!-- Generator: Adobe Illustrator 26.0.3, SVG Export Plug-In . SVG Version: 6.00 Build 0)  -->
<svg version="1.1"
	 id="svg3689" xmlns:cc="http://creativecommons.org/ns#" xmlns:dc="http://purl.org/dc/elements/1.1/" xmlns:inkscape="http://www.inkscape.org/namespaces/inkscape" xmlns:rdf="http://www.w3.org/1999/02/22-rdf-syntax-ns#" xmlns:sodipodi="http://sodipodi.sourceforge.net/DTD/sodipodi-0.dtd" xmlns:svg="http://www.w3.org/2000/svg"
	 xmlns="http://www.w3.org/2000/svg" xmlns:xlink="http://www.w3.org/1999/xlink" x="0px" y="0px" viewBox="0 0 248.1 124.1"
	 style="enable-background:new 0 0 248.1 124.1;" xml:space="preserve">
<style type="text/css">
	.st0{fill:#DA1C23;}
	.st1{fill:#FFFFFF;}
</style>
<g>
	
		<sodipodi:namedview  bordercolor="#666666" borderopacity="1.0" fit-margin-bottom="0" fit-margin-left="0" fit-margin-right="0" fit-margin-top="0" id="base" inkscape:current-layer="layer1" inkscape:cx="52.694995" inkscape:cy="14.439996" inkscape:document-units="px" inkscape:pageopacity="0.0" inkscape:pageshadow="2" inkscape:window-height="708" inkscape:window-maximized="1" inkscape:window-width="1024" inkscape:window-x="-4" inkscape:window-y="-4" inkscape:zoom="8.6467866" pagecolor="#ffffff" showgrid="false">
		</sodipodi:namedview>
	<g id="layer1" transform="translate(-293.26396,-535.94196)" inkscape:groupmode="layer" inkscape:label="Ebene 1">
		<g id="g290" transform="matrix(1.25,0,0,-1.25,302.31095,556.3896)">
			<path id="path292" inkscape:connector-curvature="0" class="st0" d="M15.3-44.1c-0.2-0.1-0.3-0.3-0.5-0.4h-0.1l-0.1-0.1l-0.1-0.1
				l-0.1-0.1l-0.1-0.1L14.2-45l0-0.1c0,0-0.1,0-0.1-0.1s-0.2,0.1-0.2,0.1s-0.1,0-0.1-0.1s-0.1,0-0.1-0.1c0,0-0.1,0-0.1-0.1
				c0,0-0.1,0-0.1-0.1c0,0-0.1,0-0.1-0.1h-0.1h-0.1h-0.1h0H13h-0.1c-0.5-0.1-1-0.1-1.6-0.1h-0.9c-2.7,0.1-4.8,0.9-6.5,2.6
				s-2.7,3.8-2.8,6.3v9.8c0.1,2.5,1,4.6,2.8,6.3c1.7,1.7,4,2.6,6.5,2.6H11c0.5,0,0.9,0,1.4-0.1h0.1h0.1h0.1h0.1h0.1H13
				c0.1,0,0.1,0,0.1,0c0.1,0,0.1,0,0.1-0.1c0.1,0,0.1,0,0.1-0.1c0.1,0,0.1,0,0.1-0.1c0,0,0.1,0,0.1-0.1s0.1,0,0.1-0.1
				c0,0,0.1,0,0.1-0.1c0,0,0.1,0,0.1-0.1c0,0,0.1,0,0.1-0.1l0,0H14h0.1h0l0,0h0.1h0.1h0.1l0,0l0,0l0,0l0,0l0,0l0,0l0,0l0,0l0,0l0,0
				c0,0,0,0,0.1-0.1h0.1h0.1h0.1h0.1H15c0,0,0.1,0,0.1,0.1c0,0,0.1,0,0.1,0.1s0,0.1,0.1,0.1v0.1v0.1v0.1c0,0.4,0,0.7,0.4,0.9
				c0.2,0.1,0.5,0,0.7,0h2.2h1.2c0.4,0,0.8,0.1,1-0.4c0.1-0.3,0-0.9,0-1.3v-4.6v-10.8v-5.7c0-1.8,0.1-3.8-0.1-5.6
				c-0.6-5.2-3.2-9.7-8.6-10.6c-3.3-0.6-6.6,0.6-9.2,2.8C2.6-53.5,2-53.1,2-52.7c0,0.2,0.1,0.3,0.2,0.5c0,0,2.1,2.2,2.3,2.5
				c0.2,0.2,0.4,0.4,0.6,0.4c0.4,0,0.6-0.3,1.3-0.6c1-0.6,2.1-1.2,3.3-1.4c0.7-0.1,1.6,0,2.3,0.2c2.8,0.9,3.6,4.4,3.7,7.2v0.1
				c0,0,0,0,0,0.1c0,0,0,0,0,0.1c0,0,0,0,0,0.1s0,0,0,0l0,0l0,0l0,0l0,0l0,0l0,0l0,0l0,0l0,0c0,0,0,0-0.1,0c0,0,0,0-0.1,0
				c0,0,0,0-0.1,0c0,0,0,0-0.1,0c0,0,0,0-0.1,0c0,0,0,0-0.1,0C15.4-44,15.4-44,15.3-44.1C15.4-44,15.3-44.1,15.3-44.1L15.3-44.1z
				 M16-36.9v9.9c0,1.3-0.6,2.1-1.5,2.8c-0.9,0.7-1.7,1.1-3,1.1h-0.6c-1.4,0-2.2-0.5-3.1-1.3s-1.4-1.7-1.4-3v-9.2
				c0-1.3,0.5-2.1,1.4-3c0.9-0.8,1.7-1.3,3.1-1.3h0.5c1.3,0,2.1,0.4,3,1.1C15.4-38.9,15.9-38.2,16-36.9L16-36.9z"/>
		</g>
		<g id="g294" transform="matrix(1.25,0,0,-1.25,327.0422,556.9211)">
			<path id="path296" inkscape:connector-curvature="0" class="st0" d="M39-44.7v3.6c0,0.2-0.1,0.4-0.2,0.5
				c-0.1,0.2-0.2,0.2-0.4,0.2h-9.9c-0.3,0-0.4,0-0.6,0.1c-0.1,0.1-0.2,0.2-0.2,0.4s0.1,0.3,0.1,0.5l10.9,20.7c0,0.1,0.1,0.1,0.1,0.2
				s0,0.2,0,0.2c0,0.3-0.3,0.5-0.6,0.5H20.5c-0.4,0-0.6-0.2-0.6-0.6V-22c0-0.4,0.2-0.6,0.6-0.6h9.4c0.2,0,0.4,0,0.5-0.1
				s0.2-0.2,0.2-0.4c0-0.1,0-0.1,0-0.2s-0.1-0.2-0.1-0.2l-11-20.7c0-0.1-0.1-0.1-0.1-0.2s0-0.2,0-0.2c0-0.3,0.3-0.5,0.6-0.5h18.6
				c0.2,0,0.4,0.1,0.5,0.2C39-44.9,39-44.8,39-44.7L39-44.7z"/>
		</g>
		<g id="g298" transform="matrix(1.25,0,0,-1.25,309.4702,539.80247)">
			<path id="path300" inkscape:connector-curvature="0" class="st0" d="M22.2-28.1c0-0.2,0.1-0.4,0.2-0.5s0.3-0.2,0.6-0.2h3.8
				c0.3,0,0.5,0.1,0.6,0.2s0.2,0.3,0.2,0.5v0.1v4.2c0,0.3-0.1,0.5-0.2,0.6s-0.4,0.1-0.7,0.1h-0.4c-0.3,0-0.5-0.1-0.6-0.3l-3.1-3.5
				l-0.2-0.2c-0.2-0.2-0.3-0.4-0.3-0.6v-0.4C22.2-28,22.2-28.1,22.2-28.1L22.2-28.1z"/>
		</g>
		<g id="g302" transform="matrix(1.25,0,0,-1.25,312.41833,542.14472)">
			<path id="path304" inkscape:connector-curvature="0" class="st0" d="M25.1-30.3c0,0.2-0.1,0.4-0.2,0.5s-0.3,0.2-0.5,0.2h-4
				c-0.2,0-0.4-0.1-0.5-0.2s-0.2-0.3-0.2-0.5v-0.1v-14.8v-11.1c0-0.2,0.1-0.4,0.2-0.5s0.3-0.2,0.5-0.2h4c0.2,0,0.4,0.1,0.5,0.2
				c0.1,0.1,0.2,0.3,0.2,0.5V-30.3z"/>
		</g>
		<g id="g306" transform="matrix(1.25,0,0,-1.25,397.65446,553.76548)">
			<path id="path308" inkscape:connector-curvature="0" class="st0" d="M106.7-41.6c0,0.1,0,0.2-0.1,0.3s-0.2,0.1-0.3,0.1
				c-0.1,0-0.2,0-0.3-0.1c-0.1-0.1-0.1-0.2-0.1-0.3v-2.5h-2.3v2.5c0,0.1,0,0.2-0.1,0.3s-0.2,0.1-0.3,0.1c-0.1,0-0.2,0-0.3-0.1
				c-0.1-0.1-0.1-0.2-0.1-0.3v-6c0-0.1,0-0.2,0.1-0.3s0.2-0.1,0.3-0.1s0.2,0,0.3,0.1c0.1,0.1,0.1,0.2,0.1,0.3v2.8h2.3v-2.8
				c0-0.1,0-0.2,0.1-0.3s0.2-0.1,0.3-0.1c0.1,0,0.2,0,0.3,0.1c0.1,0.1,0.1,0.2,0.1,0.3V-41.6z M100.5-46.4c0-0.2-0.1-0.5-0.3-0.6
				c-0.2-0.2-0.4-0.3-0.6-0.3h-0.1c-0.2,0-0.4,0.1-0.6,0.2c-0.2,0.1-0.3,0.3-0.3,0.6v1.7c0,0.2,0.1,0.4,0.3,0.6
				c0.2,0.1,0.4,0.2,0.6,0.2h0.1c0.2,0,0.5-0.1,0.6-0.3c0.2-0.2,0.3-0.4,0.3-0.6V-46.4z M101.2-44.8c0,0.2,0,0.4-0.1,0.6
				c-0.1,0.2-0.2,0.4-0.4,0.5c-0.2,0.2-0.3,0.3-0.5,0.4c-0.2,0.1-0.4,0.1-0.6,0.1h-0.1c-0.2,0-0.4,0-0.5-0.1
				c-0.2-0.1-0.3-0.1-0.4-0.3v1.9c0,0.1,0,0.2-0.1,0.3s-0.2,0.1-0.3,0.1c-0.1,0-0.2,0-0.3-0.1c-0.1-0.1-0.1-0.2-0.1-0.3v-6.1
				c0-0.1,0-0.2,0.1-0.3s0.2-0.1,0.3-0.1c0.1,0,0.2,0,0.2,0.1c0.1,0.1,0.1,0.1,0.1,0.2c0.1-0.1,0.2-0.1,0.3-0.2c0.3,0,0.4,0,0.7,0
				h0.1c0.2,0,0.4,0,0.6,0.1s0.4,0.2,0.5,0.4c0.2,0.1,0.3,0.3,0.4,0.5s0.1,0.4,0.1,0.6V-44.8L101.2-44.8z M96.3-44.8
				c0,0.3,0,0.5-0.1,0.6c-0.1,0.2-0.2,0.4-0.4,0.5c-0.2,0.1-0.3,0.2-0.5,0.3s-0.4,0.1-0.6,0.1h-0.1c-0.3,0-0.5-0.1-0.6-0.2
				c-0.2-0.1-0.4-0.3-0.6-0.4c-0.2,0.2-0.3,0.3-0.6,0.4c-0.2,0.1-0.5,0.2-0.6,0.2h-0.1c-0.2,0-0.3,0-0.5-0.1c-0.2,0-0.4,0-0.5-0.1
				c0,0.1-0.1,0.2-0.1,0.2c-0.1,0.1-0.2,0.1-0.2,0.1c-0.1,0-0.2,0-0.3-0.1c-0.1-0.1-0.1-0.2-0.1-0.3v-4c0-0.1,0-0.2,0.1-0.3
				s0.2-0.1,0.3-0.1s0.2,0,0.3,0.1c0.1,0.1,0.1,0.2,0.1,0.3v2.9c0,0.2,0.1,0.4,0.3,0.6c0.2,0.1,0.4,0.2,0.6,0.2h0.1
				c0.3,0,0.5-0.1,0.6-0.2c0.2-0.2,0.3-0.4,0.3-0.6v-2.8c0-0.1,0-0.2,0.1-0.3s0.2-0.1,0.3-0.1c0.1,0,0.2,0,0.3,0.1
				c0.1,0.1,0.1,0.2,0.1,0.3v2.8c0,0.3,0.1,0.5,0.3,0.6c0.2,0.2,0.4,0.3,0.6,0.3h0.1c0.3,0,0.5-0.1,0.6-0.2c0.2-0.1,0.2-0.4,0.2-0.6
				v-2.8c0-0.1,0-0.2,0.1-0.3s0.2-0.1,0.3-0.1c0.1,0,0.2,0,0.3,0.1c0.1,0.1,0.1,0.2,0.1,0.3C96.3-47.6,96.3-44.8,96.3-44.8z
				 M88.9-44.7c0,0.1,0,0.2-0.1,0.3s-0.2,0.1-0.3,0.1h-1.4c-0.1,0-0.2,0-0.3-0.1c0-0.1,0-0.2,0-0.3s0-0.2,0.1-0.3s0.2-0.1,0.3-0.1h1
				v-1c0-0.2,0-0.3-0.1-0.5C88-46.7,88-46.9,87.8-47c-0.1-0.1-0.2-0.2-0.4-0.3c-0.2-0.1-0.3-0.1-0.5-0.1h-0.1c-0.2,0-0.3,0-0.5,0.1
				c-0.1,0.1-0.3,0.1-0.4,0.3c-0.1,0.1-0.2,0.2-0.3,0.4c-0.1,0.2,0.1,0.4,0.1,0.5v3.1c0,0.2,0,0.3,0.1,0.5c0.1,0.1,0.1,0.3,0.3,0.4
				c0.1,0.1,0.2,0.2,0.4,0.3c0.1,0.1,0.3,0.1,0.5,0.1h0.1c0.3,0,0.6-0.1,0.7-0.3c0.2-0.2,0.3-0.4,0.4-0.6c0-0.1,0.1-0.2,0.1-0.3
				c0.1-0.1,0.2-0.1,0.3-0.1s0.2,0,0.3,0.1c0.1,0.1,0.1,0.2,0.1,0.3v0.1c0,0.2-0.1,0.5-0.2,0.6c-0.1,0.2-0.3,0.4-0.4,0.5
				c-0.2,0.1-0.4,0.3-0.6,0.4c0-0.1-0.3-0.1-0.5-0.1h-0.1c-0.3,0-0.5-0.1-0.7-0.2c-0.2-0.1-0.4-0.2-0.6-0.4s-0.3-0.4-0.4-0.6
				c-0.1-0.2-0.2-0.5-0.2-0.7v-3.1c0-0.3,0.1-0.5,0.2-0.7s0.2-0.4,0.4-0.6c0.2-0.2,0.4-0.3,0.6-0.4c0.2-0.1,0.5-0.2,0.7-0.2h0.1
				c0.3,0,0.5,0.1,0.7,0.2c0.2,0.1,0.5,0.2,0.6,0.4c0.2,0.2,0.3,0.4,0.4,0.6c0.1,0.2,0.2,0.5,0.2,0.7C88.9-46.1,88.9-44.7,88.9-44.7
				z M81.3-43.5c-0.1,0.4-0.2,0.8-0.3,1.1c-0.1,0.4-0.3,0.6-0.5,1c-0.2,0.3-0.4,0.6-0.6,0.7c-0.1,0.1-0.2,0.1-0.3,0.1
				c-0.1,0-0.2,0-0.3-0.1c-0.1-0.1-0.1-0.2-0.1-0.3s0-0.2,0.1-0.3c0.2-0.2,0.4-0.4,0.5-0.6c0.2-0.3,0.3-0.6,0.4-0.8
				c0.1-0.3,0.2-0.6,0.3-1c0.1-0.4,0.1-0.7,0.1-1.1c0-0.4,0-0.8-0.1-1.2s-0.2-0.7-0.3-1c-0.1-0.3-0.3-0.6-0.4-0.8
				c-0.2-0.3-0.3-0.5-0.5-0.6c-0.1-0.1-0.1-0.2-0.1-0.3s0-0.2,0.1-0.3s0.2-0.1,0.3-0.1c0.1,0,0.2,0,0.3,0.1c0.2,0.2,0.4,0.5,0.6,0.7
				c0.2,0.3,0.4,0.6,0.5,0.9c0.1,0.4,0.3,0.7,0.3,1.1c0.1,0.4,0.1,0.8,0.1,1.3C81.4-44.3,81.4-43.9,81.3-43.5L81.3-43.5z M78.1-47.2
				c-0.1,0.1-0.2,0.1-0.3,0.1h-2.4l2.7,5.2c0,0.1,0.1,0.2,0.1,0.3s0,0.2-0.1,0.3s-0.2,0.1-0.3,0.1h-2.7c-0.1,0-0.2,0-0.3-0.1
				c-0.1-0.1-0.1-0.2-0.1-0.3s0-0.2,0.1-0.3S75-42,75.1-42h2.3l-2.7-5.2c0-0.1-0.1-0.2-0.1-0.2c0-0.1,0-0.2,0.1-0.3s0.2-0.2,0.3-0.2
				h2.8c0.1,0,0.2,0,0.3,0.1c0.1,0.1,0.1,0.2,0.1,0.3S78.1-47.3,78.1-47.2L78.1-47.2z M72.8-41.6c0,0.1,0,0.2-0.1,0.3
				s-0.2,0.1-0.3,0.1c-0.1,0-0.2,0-0.3-0.1c0-0.1,0-0.2,0-0.3v-6c0-0.1,0-0.2,0.1-0.3s0.2-0.1,0.3-0.1c0.1,0,0.2,0,0.3,0.1
				c0.1,0.1,0.1,0.2,0.1,0.3v6H72.8z M70.1-44.7c0,0.1,0,0.2-0.1,0.3s-0.2,0.1-0.3,0.1h-1.4c-0.1,0-0.2,0-0.3-0.1
				c-0.1-0.1-0.1-0.2-0.1-0.3s0-0.2,0.1-0.3s0.2-0.1,0.3-0.1h1v-1c0-0.2,0-0.3-0.1-0.5c-0.1-0.1-0.1-0.3-0.3-0.4
				c-0.1-0.1-0.2-0.2-0.4-0.3c-0.1-0.1-0.3-0.1-0.5-0.1h0.1c-0.2,0-0.3,0-0.5,0.1s-0.3,0.1-0.4,0.3c-0.1,0.1-0.2,0.2-0.3,0.4
				c-0.1,0.1-0.1,0.3-0.1,0.5v3.1c0,0.2,0,0.3,0.1,0.5c0.1,0.1,0.1,0.3,0.3,0.4c0.1,0.1,0.2,0.2,0.4,0.3c0.1,0.1,0.3,0.1,0.5,0.1
				h0.1c0.3,0,0.6-0.1,0.7-0.3c0.2-0.2,0.3-0.4,0.4-0.6c0-0.1,0.1-0.2,0.1-0.3c0.1-0.1,0.2-0.1,0.2-0.1c0.1,0,0.2,0,0.3,0.1
				c0.1,0.1,0.1,0.2,0.1,0.3v0.1c0,0.2-0.1,0.5-0.2,0.6c-0.1,0.2-0.3,0.4-0.4,0.5c-0.2,0.1-0.4,0.3-0.6,0.4
				c-0.1-0.1-0.4-0.1-0.6-0.1h-0.1c-0.3,0-0.5-0.1-0.7-0.2c-0.2-0.1-0.5-0.2-0.6-0.4c-0.2-0.2-0.3-0.4-0.4-0.6
				c-0.1-0.2-0.2-0.5-0.2-0.7v-3.1c0-0.3,0.1-0.5,0.2-0.7s0.2-0.4,0.4-0.6c0.2-0.2,0.4-0.3,0.6-0.4c0.2-0.1,0.5-0.2,0.7-0.2h0.1
				c0.3,0,0.5,0.1,0.7,0.2c0.2,0.1,0.5,0.2,0.6,0.4c0.2,0.2,0.3,0.4,0.4,0.6c0.1,0.2,0.2,0.5,0.2,0.7C70.1-46.1,70.1-44.7,70.1-44.7
				z M64.7-47.8c-0.2,0.3-0.3,0.6-0.4,0.8s-0.2,0.6-0.3,1c-0.1,0.4-0.1,0.7-0.1,1.2c0,0.4,0,0.7,0.1,1.1c0.1,0.4,0.2,0.7,0.3,1
				s0.3,0.6,0.4,0.8c0.2,0.3,0.3,0.5,0.5,0.6c0.1,0.1,0.1,0.2,0.1,0.3s0,0.2-0.1,0.3s-0.2,0.1-0.3,0.1c-0.1,0-0.2,0-0.3-0.1
				c-0.2-0.2-0.4-0.5-0.6-0.7c-0.2-0.3-0.4-0.6-0.5-0.9c-0.1-0.4-0.3-0.7-0.3-1.1c-0.1-0.4-0.1-0.8-0.1-1.3s0-0.8,0.1-1.3
				c0.1-0.4,0.2-0.8,0.3-1.1c0.1-0.4,0.3-0.6,0.5-0.9c0.2-0.3,0.4-0.6,0.6-0.7c0.1-0.1,0.2-0.1,0.3-0.1s0.2,0,0.3,0.1
				c0.1,0.1,0.1,0.2,0.1,0.3s0,0.2-0.1,0.3C65.1-48.3,64.9-48.1,64.7-47.8L64.7-47.8z M59.4-47.3c-0.1,0.1-0.2,0.1-0.3,0.1
				c-0.2,0-0.3,0.1-0.4,0.2s-0.2,0.2-0.2,0.4v2.7h0.6c0.1,0,0.2,0,0.3,0.1s0.1,0.2,0.1,0.3s0,0.2-0.1,0.3s-0.2,0.1-0.3,0.1h-0.6v1.7
				c0,0.1,0,0.2-0.1,0.3S58.2-41,58.1-41s-0.2,0-0.3-0.1s-0.1-0.2-0.1-0.3v-1.7h-0.4c-0.1,0-0.2,0-0.3-0.1c0.1-0.3,0.1-0.4,0.1-0.5
				s0-0.2,0.1-0.3s0.2-0.1,0.3-0.1h0.4v-2.7c0-0.2,0-0.4,0.1-0.5c0.1-0.2,0.2-0.3,0.3-0.4c0.1-0.1,0.3-0.2,0.4-0.3
				c0.2-0.1,0.3-0.1,0.5-0.1c0.1,0,0.2,0,0.3,0.1s0.1,0.2,0.1,0.3C59.4-47.4,59.4-47.4,59.4-47.3L59.4-47.3z M55.6-43.6
				c0,0.1,0,0.2-0.1,0.3s-0.2,0.1-0.3,0.1s-0.2,0-0.3-0.1s-0.1-0.2-0.1-0.3v-4c0-0.1,0-0.2,0.1-0.3s0.2-0.1,0.3-0.1s0.2,0,0.3,0.1
				s0.1,0.2,0.1,0.3V-43.6z M55.6-41.6c0,0.1,0,0.2-0.1,0.3s-0.2,0.1-0.3,0.1s-0.2,0-0.3-0.1s-0.1-0.2-0.1-0.3v-0.2
				c0-0.1,0-0.2,0.1-0.3c0.2,0,0.2,0,0.3,0s0.2,0,0.3,0.1s0.1,0.2,0.1,0.3C55.6-41.8,55.6-41.6,55.6-41.6z M52.5-45.2h-1.7v0.5
				c0,0.3,0.1,0.5,0.3,0.6c0.2,0.2,0.4,0.3,0.6,0.3h0.1c0.2,0,0.4-0.1,0.6-0.3c0.2-0.2,0.3-0.4,0.3-0.6
				C52.5-44.8,52.5-45.2,52.5-45.2z M53.2-44.8c0,0.2,0,0.5-0.1,0.6c-0.1,0.2-0.2,0.4-0.4,0.5c-0.2,0.2-0.3,0.3-0.5,0.4
				s-0.4,0.1-0.6,0.1h-0.1c-0.2,0-0.4,0-0.6-0.1c-0.2-0.1-0.4-0.2-0.5-0.4c-0.2-0.2-0.3-0.3-0.4-0.5c0.1-0.1,0.1-0.4,0.1-0.6v-1.7
				c0-0.2,0-0.5,0.1-0.6c0.1-0.2,0.2-0.4,0.4-0.5s0.3-0.3,0.5-0.4c0.2-0.1,0.4-0.1,0.6-0.1h0.1c0.4,0,0.6,0.1,0.8,0.3
				c0.3,0.2,0.5,0.4,0.6,0.6c0,0,0,0.1,0,0.2c0,0.1,0,0.2-0.1,0.3s-0.2,0.1-0.3,0.1s-0.1,0-0.2-0.1c-0.1,0-0.1-0.1-0.1-0.2
				c-0.1-0.1-0.2-0.3-0.3-0.4c-0.1-0.1-0.3-0.2-0.5-0.2h-0.1c-0.2,0-0.4,0.1-0.6,0.3s-0.3,0.4-0.3,0.6v0.5h2.1c0.1,0,0.2,0,0.3,0.1
				s0.1,0.2,0.1,0.3C53.2-45.6,53.2-44.8,53.2-44.8z M47.8-46.4c0-0.2-0.1-0.5-0.3-0.6c-0.2-0.2-0.4-0.3-0.6-0.3h-0.1
				c-0.2,0-0.4,0.1-0.6,0.2c-0.2,0.1-0.3,0.3-0.3,0.6v1.7c0,0.2,0.1,0.4,0.3,0.6c0.2,0.1,0.4,0.2,0.6,0.2h0.1c0.2,0,0.5-0.1,0.6-0.3
				c0.2-0.2,0.3-0.4,0.3-0.6V-46.4z M48.4-44.8c0,0.2,0,0.4-0.1,0.6c-0.1,0.2-0.2,0.4-0.4,0.5c-0.2,0.2-0.3,0.3-0.5,0.4
				s-0.4,0.1-0.6,0.1h-0.1c-0.2,0-0.4,0-0.5-0.1c-0.2-0.1-0.3-0.1-0.4-0.3v1.9c0,0.1,0,0.2-0.1,0.3s-0.2,0.1-0.3,0.1s-0.2,0-0.3-0.1
				S45-41.6,45-41.7v-6.1c0-0.1,0-0.2,0.1-0.3s0.2-0.1,0.3-0.1s0.2,0,0.2,0.1c0.1,0.1,0.1,0.1,0.1,0.2c0.1-0.1,0.2-0.1,0.3-0.2
				c0.1-0.1,0.3-0.1,0.6-0.1h0.1c0.2,0,0.4,0,0.6,0.1c0.2,0.1,0.4,0.2,0.5,0.4c0.2,0.1,0.3,0.3,0.4,0.5c0.1,0.2,0.1,0.4,0.1,0.6
				C48.4-46.4,48.4-44.8,48.4-44.8z M43.7-43.7c-0.1,0.2-0.3,0.3-0.5,0.4c-0.2,0.1-0.4,0.1-0.6,0.1c-0.1,0-0.3,0-0.3,0
				c-0.1,0-0.2,0-0.2-0.1c-0.1,0-0.1-0.1-0.2-0.1c0,0.1-0.1,0.1-0.1,0.2c-0.1,0-0.1,0-0.2,0c-0.1,0-0.2,0-0.3-0.1s-0.1-0.2-0.1-0.3
				v-4c0-0.1,0-0.2,0.1-0.3s0.2-0.1,0.3-0.1s0.2,0,0.3,0.1s0.1,0.2,0.1,0.3v2.9c0,0.1,0,0.2,0,0.3s0,0.2,0.1,0.2
				c0.1,0.1,0.1,0.1,0.2,0.2c0.1,0,0.2,0.1,0.4,0.1c0.1,0,0.2,0,0.3-0.1s0.1-0.1,0.2-0.1c0.1-0.1,0.2-0.1,0.3-0.1s0.2,0,0.3,0.1
				s0.1,0.2,0.1,0.3C43.8-43.8,43.8-43.8,43.7-43.7L43.7-43.7z M38.7-46.4c0-0.2-0.1-0.5-0.3-0.6c-0.2-0.2-0.4-0.3-0.6-0.3h-0.1
				c-0.3,0-0.5,0.1-0.6,0.2c-0.1,0.1-0.2,0.3-0.2,0.5v0.1c0,0.2,0.1,0.3,0.2,0.4c0.1,0.1,0.3,0.2,0.5,0.2c0.2,0.1,0.4,0.1,0.6,0.1
				c0.2,0,0.4,0.1,0.6,0.1C38.7-45.7,38.7-46.4,38.7-46.4z M39.9-47.3c-0.1,0.1-0.1,0.1-0.3,0.1s-0.3,0.1-0.3,0.3v2.2
				c0,0.2,0,0.4-0.1,0.6c-0.1,0.2-0.2,0.4-0.3,0.5s-0.3,0.3-0.5,0.3c-0.2,0.1-0.4,0.1-0.6,0.1h-0.1c-0.1,0-0.3,0-0.4,0
				c-0.1,0-0.3-0.1-0.4-0.2c-0.1-0.1-0.3-0.2-0.4-0.3c-0.1-0.1-0.2-0.3-0.3-0.5c0,0,0-0.1,0-0.2c0-0.1,0-0.2,0.1-0.3
				s0.2-0.1,0.3-0.1s0.1,0,0.2,0c0.1,0,0.1,0.1,0.2,0.2c0.1,0.2,0.2,0.3,0.3,0.4c0.1,0.1,0.3,0.1,0.5,0.1h0.1c0.2,0,0.4-0.1,0.6-0.2
				c0.2-0.1,0.2-0.3,0.2-0.6v-0.2v-0.1c0-0.1-0.1-0.1-0.3-0.1s-0.3-0.1-0.5-0.1s-0.4-0.1-0.6-0.1c-0.2-0.1-0.4-0.1-0.6-0.2
				c-0.2-0.1-0.3-0.2-0.4-0.4s-0.2-0.4-0.2-0.6v-0.1c0-0.2,0-0.5,0.1-0.6c0.1-0.2,0.2-0.3,0.4-0.5c0.2-0.1,0.3-0.2,0.5-0.3
				s0.4-0.1,0.6-0.1h0.1c0.4,0,0.7,0.1,1,0.4c0.1-0.1,0.2-0.2,0.3-0.3s0.3-0.1,0.4-0.1c0,0,0,0,0.1,0s0.2,0,0.3,0.1S40-48,40-47.9
				C40-47.5,39.9-47.4,39.9-47.3L39.9-47.3z M34.7-44.8c0,0.3,0,0.5-0.1,0.6c-0.1,0.2-0.2,0.4-0.4,0.5s-0.3,0.2-0.5,0.3
				s-0.4,0.1-0.6,0.1H33c-0.2,0-0.3,0-0.5-0.1s-0.3-0.1-0.4-0.2c0,0.1-0.1,0.2-0.1,0.2c-0.1,0.1-0.2,0.1-0.2,0.1
				c-0.1,0-0.2,0-0.3-0.1c-0.1-0.1-0.1-0.2-0.1-0.3v-4c0-0.1,0-0.2,0.1-0.3c0.4-0.1,0.5-0.1,0.6-0.1s0.2,0,0.3,0.1s0.1,0.2,0.1,0.3
				v2.8c0,0.2,0.1,0.5,0.3,0.6c0.2,0.2,0.4,0.3,0.6,0.3h0.1c0.2,0,0.5-0.1,0.6-0.3c0.2-0.2,0.3-0.4,0.3-0.6v-2.8
				c0-0.1,0-0.2,0.1-0.3s0.2-0.1,0.3-0.1s0.2,0,0.3,0.1s0.1,0.2,0.1,0.3C34.7-47.6,34.7-44.8,34.7-44.8z M29.3-45.2h-1.7v0.5
				c0,0.3,0.1,0.5,0.3,0.6c0.2,0.2,0.4,0.3,0.6,0.3h0.1c0.2,0,0.4-0.1,0.6-0.3s0.3-0.4,0.3-0.6v-0.5H29.3z M30.1-44.8
				c0,0.2,0,0.5-0.1,0.6s-0.2,0.4-0.4,0.5c-0.2,0.2-0.3,0.3-0.5,0.4s-0.4,0.1-0.6,0.1h-0.1c-0.2,0-0.4,0-0.6-0.1s-0.4-0.2-0.5-0.4
				c-0.2-0.2-0.3-0.3-0.4-0.5s-0.1-0.4-0.1-0.6v-1.7c0-0.2,0-0.5,0.1-0.6s0.2-0.4,0.4-0.5c0.2-0.1,0.3-0.3,0.5-0.4s0.4-0.1,0.6-0.1
				h0.1c0.4,0,0.6,0.1,0.8,0.3c0.3,0.2,0.5,0.4,0.6,0.6c0,0,0,0.1,0,0.2c0,0.1,0,0.2-0.1,0.3s-0.2,0.1-0.3,0.1c-0.1,0-0.1,0-0.2-0.1
				c-0.1,0-0.1-0.1-0.1-0.2c-0.1-0.1-0.2-0.3-0.3-0.4c-0.1-0.1-0.3-0.2-0.5-0.2h-0.1c-0.2,0-0.4,0.1-0.6,0.3s-0.3,0.4-0.3,0.6v0.5
				h2.1c0.1,0,0.2,0,0.3,0.1c0.1,0.1,0.1,0.2,0.1,0.3C30.1-45.6,30.1-44.8,30.1-44.8z M25.3-44.8c0,0.3,0,0.5-0.1,0.6
				s-0.2,0.4-0.4,0.5c-0.2,0.1-0.3,0.2-0.5,0.3s-0.4,0.1-0.6,0.1h-0.1c-0.3,0-0.5-0.1-0.6-0.2c-0.2-0.1-0.4-0.3-0.6-0.4
				c-0.2,0.2-0.3,0.3-0.6,0.4c-0.2,0.1-0.5,0.2-0.6,0.2h-0.1c-0.2,0-0.3,0-0.5-0.1s-0.3-0.1-0.4-0.2c0,0.1-0.1,0.2-0.1,0.2
				c-0.1,0.1-0.2,0.1-0.2,0.1c-0.1,0-0.2,0-0.3-0.1c-0.1-0.1-0.1-0.2-0.1-0.3v-4c0-0.1,0-0.2,0.1-0.3c0.3-0.1,0.4-0.1,0.5-0.1
				s0.2,0,0.3,0.1c0.1,0.1,0.1,0.2,0.1,0.3v2.9c0,0.2,0.1,0.4,0.3,0.6c0.2,0.1,0.4,0.2,0.6,0.2h0.1c0.2,0,0.5-0.1,0.6-0.2
				c0.2-0.2,0.3-0.4,0.3-0.6v-2.8c0-0.1,0-0.2,0.1-0.3s0.2-0.1,0.3-0.1c0.1,0,0.2,0,0.3,0.1c0.1,0.1,0.1,0.2,0.1,0.3v2.8
				c0,0.3,0.1,0.5,0.3,0.6c0.2,0.2,0.4,0.3,0.6,0.3h0.1c0.3,0,0.5-0.1,0.6-0.2c0.2-0.1,0.2-0.4,0.2-0.6v-2.8c0-0.1,0-0.2,0.1-0.3
				s0.2-0.1,0.3-0.1c0.1,0,0.2,0,0.3,0.1c0.1,0.1,0.1,0.2,0.1,0.3C25.3-47.6,25.3-44.8,25.3-44.8z M17.9-44.8c0,0.3,0,0.5-0.1,0.6
				s-0.2,0.4-0.4,0.5c-0.2,0.1-0.3,0.2-0.5,0.3s-0.4,0.1-0.6,0.1h-0.1c-0.3,0-0.5-0.1-0.6-0.2c-0.2-0.1-0.4-0.3-0.6-0.4
				c-0.2,0.2-0.3,0.3-0.6,0.4c-0.2,0.1-0.5,0.2-0.6,0.2h-0.1c-0.2,0-0.4,0-0.5-0.1c-0.2-0.1-0.3-0.1-0.4-0.2c0,0.1-0.1,0.2-0.1,0.2
				c-0.1,0.1-0.2,0.1-0.2,0.1c-0.1,0-0.2,0-0.3-0.1s-0.1-0.2-0.1-0.3v-4c0-0.1,0-0.2,0.1-0.3s0.2-0.1,0.3-0.1s0.2,0,0.3,0.1
				s0.1,0.2,0.1,0.3v2.9c0,0.2,0.1,0.4,0.3,0.6c0.2,0.1,0.4,0.2,0.6,0.2h0.3c0.2,0,0.5-0.1,0.6-0.2c0.2-0.2,0.3-0.4,0.3-0.6v-2.8
				c0-0.1,0-0.2,0.1-0.3s0.2-0.1,0.3-0.1s0.2,0,0.3,0.1s0.1,0.2,0.1,0.3v2.8c0,0.3,0.1,0.5,0.3,0.6c0.2,0.2,0.4,0.3,0.6,0.3h0.1
				c0.3,0,0.5-0.1,0.6-0.2c0.2-0.1,0.2-0.4,0.2-0.6v-2.8c0-0.1,0-0.2,0.1-0.3s0.2-0.1,0.3-0.1c0.1,0,0.2,0,0.3,0.1
				c0.1,0.1,0.1,0.2,0.1,0.3C17.9-47.6,17.9-44.8,17.9-44.8z M9.5-46.4c0-0.2-0.1-0.5-0.3-0.6c-0.2-0.2-0.4-0.3-0.6-0.3h0
				c-0.3,0-0.5,0.1-0.6,0.2c-0.2,0.1-0.2,0.3-0.2,0.5v0.1c0,0.2,0.1,0.3,0.2,0.4c0.1,0.1,0.3,0.2,0.5,0.2c0.2,0.1,0.4,0.1,0.6,0.1
				c0.2,0,0.4,0.1,0.6,0.1C9.5-45.7,9.5-46.4,9.5-46.4z M10.7-47.3c-0.1,0.1-0.1,0.1-0.3,0.1s-0.3,0.1-0.3,0.3v2.2
				c0,0.2,0,0.4-0.1,0.6c-0.1,0.2-0.2,0.4-0.3,0.5s-0.3,0.3-0.5,0.3c-0.2,0.1-0.4,0.1-0.6,0.1h0.1c-0.1,0-0.3,0-0.4,0
				c-0.1,0-0.3-0.1-0.4-0.2c-0.1-0.1-0.3-0.2-0.4-0.3S7.3-44,7.2-44.2c0,0,0-0.1,0-0.2c0-0.1,0-0.2,0.1-0.3s0.2-0.1,0.3-0.1
				c0.1,0,0.1,0,0.2,0s0.1,0.1,0.2,0.2c0.1,0.2,0.2,0.3,0.3,0.4c0.1,0.1,0.3,0.1,0.5,0.1h0.1c0.2,0,0.4-0.1,0.6-0.2
				c0.2-0.1,0.2-0.3,0.2-0.6v-0.2v-0.1c0-0.1-0.1-0.1-0.3-0.1s-0.3-0.1-0.5-0.1s-0.4-0.1-0.6-0.1c-0.2-0.1-0.4-0.1-0.6-0.2
				c-0.2-0.1-0.3-0.2-0.4-0.4s-0.2-0.4-0.2-0.6v-0.1c0-0.2,0-0.5,0.1-0.6c0.1-0.2,0.2-0.3,0.4-0.5c0.2-0.1,0.3-0.2,0.5-0.3
				c0.1,0.2,0.3,0.1,0.5,0.1h0.1c0.4,0,0.7,0.1,1,0.4c0.1-0.1,0.2-0.2,0.3-0.3s0.3-0.1,0.4-0.1c0,0,0,0,0.1,0s0.2,0,0.3,0.1
				s0.1,0.2,0.1,0.3C10.8-47.5,10.8-47.4,10.7-47.3L10.7-47.3z M5.8-46.6c0,0.3-0.1,0.6-0.2,0.7s-0.3,0.3-0.5,0.5
				c-0.2,0.1-0.5,0.2-0.6,0.2c-0.2,0.1-0.4,0.1-0.6,0.2s-0.4,0.1-0.5,0.2c-0.1,0.1-0.2,0.2-0.2,0.4l0,0c0,0.2,0.1,0.3,0.2,0.4
				c0.2,0.1,0.4,0.2,0.6,0.2l0,0c0.2,0,0.4,0,0.5-0.1c0.2-0.2,0.4-0.2,0.5-0.3c0.1,0,0.2-0.1,0.2-0.1c0.1,0,0.2,0,0.3,0.1
				c0.1,0.1,0.1,0.2,0.1,0.3s-0.1,0.2-0.1,0.3c0,0-0.1,0.1-0.2,0.1c-0.1,0.1-0.2,0.2-0.3,0.2s-0.2,0.1-0.4,0.1s-0.3,0-0.5,0l0,0
				c-0.2,0-0.3,0-0.5-0.1c-0.2,0-0.4-0.1-0.5-0.2c-0.2-0.1-0.3-0.2-0.4-0.4s-0.2-0.4-0.2-0.6c0-0.3,0.1-0.6,0.2-0.7s0.3-0.3,0.5-0.4
				s0.4-0.2,0.6-0.2c0.2,0,0.5-0.1,0.6-0.2c0.2-0.1,0.4-0.1,0.5-0.3c0,0,0.1-0.2,0.1-0.4l0,0c0-0.2-0.1-0.3-0.3-0.5
				c-0.1,0.1-0.3,0-0.6,0H4c-0.2,0-0.4,0.1-0.6,0.2c-0.2,0.1-0.4,0.3-0.5,0.5c-0.1,0.1-0.1,0.1-0.2,0.1s-0.1,0-0.2,0s-0.2,0-0.3-0.1
				s-0.1-0.2-0.1-0.3c0,0,0-0.1,0.1-0.2c0.1-0.2,0.2-0.3,0.3-0.4c0.1-0.1,0.3-0.2,0.4-0.3c0.2-0.1,0.3-0.2,0.5-0.2S3.7-48,3.9-48
				h0.2c0.2,0,0.4,0,0.6,0.1s0.4,0.2,0.6,0.3s0.3,0.3,0.4,0.5C5.7-47.1,5.8-46.8,5.8-46.6L5.8-46.6z M0.8-43.6c0,0.1,0,0.2-0.1,0.3
				s-0.2,0.1-0.3,0.1s-0.2,0-0.3-0.1c0-0.1,0-0.2,0-0.3v-2.8c0-0.2-0.1-0.5-0.3-0.6c-0.2-0.2-0.4-0.3-0.6-0.3h-0.1
				c-0.2,0-0.4,0.1-0.6,0.3s-0.3,0.4-0.3,0.6v2.8c0,0.1,0,0.2-0.1,0.3s-0.2,0.1-0.3,0.1s-0.2,0-0.3-0.1c0-0.1,0-0.2,0-0.3v-2.8
				c0-0.3,0-0.5,0.1-0.7s0.2-0.4,0.4-0.5s0.3-0.2,0.5-0.3S-1.1-48-0.9-48h0.1c0.2,0,0.4,0,0.5,0.1c0.2,0.1,0.3,0.1,0.4,0.2
				c0-0.1,0.1-0.2,0.1-0.2c0.1,0,0.2-0.1,0.3-0.1s0.2,0,0.3,0.1s0.1,0.2,0.1,0.3C0.8-47.6,0.8-43.6,0.8-43.6z M-3.8-47.2
				c-0.1,0.1-0.2,0.1-0.3,0.1h-2.4l2.7,5.2c0,0.1,0.1,0.2,0.1,0.3s0,0.2-0.1,0.3c-0.1,0.1-0.2,0.1-0.3,0.1h-2.8
				c-0.1,0-0.2,0-0.3-0.1c-0.1-0.1-0.1-0.2-0.1-0.3s0-0.2,0.1-0.3S-7-42-6.9-42h2.3l-2.7-5.2c0-0.1-0.1-0.2-0.1-0.2
				c0-0.1,0-0.2,0.1-0.3s0.2-0.2,0.3-0.2h2.8c0.1,0,0.2,0,0.3,0.1c0.1,0.1,0.1,0.2,0.1,0.3C-3.7-47.4-3.8-47.3-3.8-47.2L-3.8-47.2z"
				/>
		</g>
		<g id="g310" transform="matrix(1.25,0,0,-1.25,372.7467,549.91372)">
			<path id="path312" inkscape:connector-curvature="0" class="st0" d="M82.9-37.8h-1.8v0.5c0,0.3,0.1,0.5,0.3,0.6
				c0.2,0.2,0.4,0.3,0.6,0.3h0.1c0.2,0,0.4-0.1,0.6-0.3s0.3-0.4,0.3-0.6L82.9-37.8L82.9-37.8z M83.6-37.4c0,0.2,0,0.5-0.1,0.6
				s-0.2,0.4-0.4,0.5c-0.2,0.2-0.3,0.3-0.5,0.4c-0.2,0.1-0.4,0.1-0.6,0.1h-0.1c-0.2,0-0.4,0-0.6-0.1s-0.4-0.2-0.5-0.4
				c-0.2-0.2-0.3-0.3-0.4-0.5s-0.1-0.4-0.1-0.6v-1.7c0-0.2,0-0.5,0.1-0.6c0.1-0.2,0.2-0.4,0.4-0.5c0.2-0.1,0.3-0.3,0.5-0.4
				c0.2-0.1,0.4-0.1,0.6-0.1H82c0.4,0,0.6,0.1,0.8,0.3c0.3,0.2,0.5,0.4,0.6,0.6c0,0,0,0.1,0,0.2s0,0.2-0.1,0.3
				c-0.1,0.2-0.2,0.2-0.3,0.2s-0.1,0-0.2-0.1c-0.1,0-0.1-0.1-0.1-0.2c-0.1-0.1-0.2-0.3-0.3-0.4c-0.1-0.1-0.3-0.2-0.5-0.2h-0.1
				c-0.2,0-0.4,0.1-0.6,0.3c-0.2,0.3-0.3,0.5-0.3,0.6v0.5H83c0.1,0,0.2,0,0.3,0.1c0.1,0.1,0.1,0.2,0.1,0.3
				C83.6-38.2,83.6-37.4,83.6-37.4z M79-40c-0.1,0.1-0.2,0.1-0.3,0.1c-0.2,0-0.3,0.1-0.4,0.2s-0.2,0.2-0.2,0.4v5.1
				c0,0.1,0,0.2-0.1,0.3s-0.2,0.1-0.3,0.1c-0.1,0-0.2,0-0.3-0.1c-0.1-0.1-0.1-0.2-0.1-0.3v-5.1c0-0.2,0-0.4,0.1-0.5
				c0.1-0.2,0.2-0.3,0.3-0.4c0.1-0.1,0.3-0.2,0.4-0.3c0.2-0.1,0.3-0.1,0.5-0.1c0.1,0,0.2,0,0.3,0.1c0.1,0.1,0.1,0.2,0.1,0.3
				C79-40.1,79.1-40.1,79-40L79-40z M74.8-39c0-0.2-0.1-0.5-0.3-0.6c-0.2-0.2-0.4-0.3-0.6-0.3h-0.1c-0.3,0-0.5,0.1-0.6,0.2
				c-0.1,0.1-0.1,0.3-0.1,0.5v0.1c0,0.2,0.1,0.3,0.2,0.4c0.1,0.1,0.3,0.2,0.5,0.2c0.2,0.1,0.4,0.1,0.6,0.1s0.4,0.1,0.6,0.1
				C74.8-38.3,74.8-39,74.8-39z M76-40c-0.1,0.1-0.1,0.1-0.3,0.1c-0.2,0-0.3,0.2-0.3,0.3v2.2c0,0.2,0,0.4-0.1,0.6
				c-0.1,0.2-0.2,0.4-0.3,0.5c-0.1,0.1-0.3,0.3-0.5,0.3c-0.2,0.1-0.4,0.1-0.6,0.1h-0.1c-0.1,0-0.3,0-0.4,0S73.1-36,73-36.1
				c-0.1-0.1-0.3-0.2-0.4-0.3s-0.2-0.3-0.3-0.5c0,0,0-0.1,0-0.2s0-0.2,0.1-0.3c0,0.2,0.1,0.2,0.2,0.2s0.1,0,0.2,0s0.1,0.1,0.2,0.2
				c0.1,0.2,0.2,0.3,0.3,0.4c0.1,0.1,0.3,0.1,0.5,0.1h0.1c0.2,0,0.4-0.1,0.6-0.2c0.2-0.1,0.2-0.3,0.2-0.6v-0.1v-0.1
				c0-0.1-0.1-0.1-0.3-0.1s-0.3-0.1-0.5-0.1s-0.4-0.1-0.6-0.1c-0.2-0.1-0.4-0.1-0.6-0.2c-0.2-0.1-0.3-0.2-0.4-0.4s-0.2-0.4-0.2-0.6
				v-0.1c0-0.2,0-0.5,0.1-0.6c0.1-0.2,0.2-0.3,0.4-0.5c0.2-0.1,0.3-0.2,0.5-0.3s0.4-0.1,0.6-0.1h0.1c0.4,0,0.7,0.1,1,0.4
				c0.1-0.1,0.2-0.2,0.3-0.2c0.1-0.1,0.3-0.1,0.4-0.1c0,0,0,0,0.1,0s0.2,0,0.3,0.1C76.1-40.2,76.1-40.1,76-40
				C76.1-40.1,76-40.1,76-40L76-40z M70.8-37.4c0,0.3,0,0.5-0.1,0.6s-0.2,0.4-0.4,0.5c-0.2,0.1-0.3,0.2-0.5,0.3s-0.4,0.1-0.6,0.1
				h-0.1c-0.2,0-0.3,0-0.5-0.1s-0.3-0.1-0.4-0.2c0,0.1-0.1,0.2-0.1,0.2c-0.1,0.1-0.2,0.1-0.2,0.1c-0.1,0-0.2,0-0.3-0.1
				c-0.1-0.1-0.1-0.2-0.1-0.3v-4c0-0.1,0-0.2,0.1-0.3s0.2-0.1,0.3-0.1s0.2,0,0.3,0.1c0.1,0.1,0.1,0.2,0.1,0.3v2.8
				c0,0.3,0.1,0.5,0.3,0.6c0.2,0.2,0.4,0.3,0.6,0.3h0.1c0.2,0,0.5-0.1,0.6-0.3c0.2-0.2,0.3-0.4,0.3-0.6v-2.8c0-0.1,0-0.2,0.1-0.3
				s0.2-0.1,0.3-0.1c0.1,0,0.2,0,0.3,0.1c0.1,0.1,0.1,0.2,0.1,0.3C70.8-40.2,70.8-37.4,70.8-37.4z M65.3-39c0-0.2-0.1-0.5-0.3-0.6
				c-0.2-0.2-0.4-0.3-0.6-0.3h-0.1c-0.2,0-0.5,0.1-0.6,0.3c-0.2,0.2-0.3,0.4-0.3,0.6v1.7c0,0.2,0.1,0.5,0.3,0.6
				c0.2,0.2,0.4,0.3,0.6,0.3h0.1c0.2,0,0.4-0.1,0.6-0.3s0.3-0.4,0.3-0.6V-39z M66-37.4c0,0.2,0,0.4-0.1,0.6
				c-0.1,0.2-0.2,0.4-0.4,0.5c-0.2,0.2-0.3,0.3-0.5,0.4c-0.2,0.1-0.4,0.1-0.6,0.1h-0.1c-0.2,0-0.4,0-0.6-0.1
				c-0.2-0.1-0.4-0.2-0.5-0.4c-0.2-0.2-0.3-0.3-0.4-0.5c-0.1-0.2-0.1-0.4-0.1-0.6v-1.7c0-0.2,0-0.5,0.1-0.6c0.1-0.2,0.2-0.4,0.4-0.5
				s0.3-0.3,0.5-0.4c0.2-0.1,0.4-0.1,0.6-0.1h0.1c0.2,0,0.4,0,0.6,0.1s0.4,0.2,0.5,0.4c0.2,0.1,0.3,0.3,0.4,0.5s0.1,0.4,0.1,0.6
				V-37.4z M61.2-36.2c0,0.1,0,0.2-0.1,0.3s-0.2,0.1-0.3,0.1s-0.2,0-0.3-0.1s-0.1-0.2-0.1-0.3v-4c0-0.1,0-0.2,0.1-0.3
				s0.2-0.1,0.3-0.1s0.2,0,0.3,0.1s0.1,0.2,0.1,0.3V-36.2z M61.2-34.2c0,0.1,0,0.2-0.1,0.3s-0.2,0.1-0.3,0.1s-0.2,0-0.3-0.1
				s-0.1-0.2-0.1-0.3v-0.3c0-0.1,0-0.2,0.1-0.3s0.2-0.1,0.3-0.1s0.2,0,0.3,0.1s0.1,0.2,0.1,0.3V-34.2z M58.8-40
				c-0.1,0.1-0.2,0.1-0.3,0.1c-0.2,0-0.3,0.1-0.4,0.2c-0.1,0.1-0.2,0.2-0.2,0.4v2.7h0.6c0.1,0,0.2,0,0.3,0.1s0.1,0.2,0.1,0.3
				s0,0.2-0.1,0.3s-0.2,0.1-0.3,0.1h-0.6v1.7c0,0.1,0,0.2-0.1,0.3s-0.2,0.1-0.3,0.1s-0.2,0-0.3-0.1s-0.1-0.2-0.1-0.3v-1.7h-0.4
				c-0.1,0-0.2,0-0.3-0.1s-0.1-0.2-0.1-0.3s0-0.2,0.1-0.3s0.2-0.1,0.3-0.1h0.4v-2.7c0-0.2,0-0.4,0.1-0.5c0.1-0.2,0.2-0.3,0.3-0.4
				c0.1-0.1,0.3-0.2,0.4-0.3c0.2-0.1,0.3-0.1,0.5-0.1c0.1,0,0.2,0,0.3,0.1s0.1,0.2,0.1,0.3C58.8-40.1,58.9-40.1,58.8-40L58.8-40z
				 M54.4-39c0-0.2-0.1-0.5-0.3-0.6c-0.2-0.2-0.4-0.3-0.6-0.3h-0.1c-0.3,0-0.5,0.1-0.6,0.2c-0.2,0.1-0.2,0.3-0.2,0.5v0.1
				c0,0.2,0.1,0.3,0.2,0.4c0.1,0.1,0.3,0.2,0.5,0.2c0.2,0.1,0.4,0.1,0.6,0.1c0.2,0,0.4,0.1,0.6,0.1C54.4-38.3,54.4-39,54.4-39z
				 M55.6-40c-0.1,0.1-0.1,0.1-0.3,0.1S55-39.7,55-39.6v2.2c0,0.2,0,0.4-0.1,0.6c-0.1,0.2-0.2,0.4-0.3,0.5S54.3-36,54.1-36
				c-0.2,0.1-0.4,0.1-0.6,0.1h-0.1c-0.1,0-0.3,0-0.4,0c-0.1,0-0.3-0.1-0.4-0.2c-0.1-0.1-0.3-0.2-0.4-0.3c-0.1-0.1-0.2-0.3-0.3-0.5
				c0,0,0-0.1,0-0.2s0-0.2,0.1-0.3s0.2-0.1,0.3-0.1s0.1,0,0.2,0c0.1,0,0.1,0.1,0.2,0.2c0.1,0.2,0.2,0.3,0.3,0.4
				c0.1,0.1,0.3,0.1,0.5,0.1h-0.1c0.2,0,0.4-0.1,0.6-0.2c0.2-0.1,0.2-0.3,0.2-0.6v-0.1v-0.1c0-0.1-0.1-0.1-0.3-0.1
				c-0.1,0-0.3-0.1-0.5-0.1s-0.2-0.1-0.4-0.1c-0.2-0.1-0.4-0.1-0.6-0.2c-0.2-0.1-0.3-0.2-0.4-0.4c-0.1-0.2-0.2-0.4-0.2-0.6v-0.1
				c0-0.2,0-0.5,0.1-0.6c0.1-0.2,0.2-0.3,0.4-0.5c0.2-0.1,0.3-0.2,0.5-0.3s0.4-0.1,0.6-0.1h0.2c0.4,0,0.7,0.1,1,0.4
				c0.1-0.1,0.2-0.2,0.3-0.2s0.3-0.1,0.4-0.1c0,0,0,0,0.1,0s0.2,0,0.3,0.1s0.1,0.2,0.1,0.3C55.7-40.1,55.6-40.1,55.6-40L55.6-40z
				 M50.4-37.4c0,0.3,0,0.5-0.1,0.6c-0.1,0.2-0.2,0.4-0.4,0.5s-0.3,0.2-0.5,0.3s-0.4,0.1-0.6,0.1h-0.1c-0.2,0-0.4,0-0.5-0.1
				c0-0.1-0.1-0.1-0.2-0.2c0,0.1-0.1,0.2-0.1,0.2c-0.1,0.1-0.2,0.1-0.2,0.1c-0.1,0-0.2,0-0.3-0.1s-0.1-0.2-0.1-0.3v-4
				c0-0.1,0-0.2,0.1-0.3s0.2-0.1,0.3-0.1s0.2,0,0.3,0.1s0.1,0.2,0.1,0.3v2.8c0,0.3,0.1,0.5,0.3,0.6c0.2,0.2,0.4,0.3,0.6,0.3h0.1
				c0.2,0,0.5-0.1,0.6-0.3c0.2-0.2,0.3-0.4,0.3-0.6v-2.8c0-0.1,0-0.2,0.1-0.3s0.2-0.1,0.3-0.1s0.2,0,0.3,0.1s0.1,0.2,0.1,0.3
				C50.4-40.2,50.4-37.4,50.4-37.4z M45.9-36.3c-0.1,0.2-0.3,0.3-0.5,0.4s-0.4,0.1-0.6,0.1c-0.1,0-0.3,0-0.3,0c-0.1,0-0.2,0-0.2-0.1
				c-0.1,0-0.1-0.1-0.2-0.1c0,0.1-0.1,0.1-0.1,0.2c-0.1,0-0.1,0-0.2,0s-0.2,0-0.3-0.1s-0.1-0.2-0.1-0.3v-4c0-0.1,0-0.2,0.1-0.3
				s0.2-0.1,0.3-0.1s0.2,0,0.3,0.1s0.1,0.2,0.1,0.3v2.9c0,0.1,0,0.2,0,0.3s0,0.2,0.1,0.2c0,0.1,0.1,0.1,0.2,0.2
				c0.1,0,0.2,0.1,0.4,0.1c0.1,0,0.2,0,0.3-0.1s0.1-0.1,0.2-0.1c0.1-0.1,0.2-0.1,0.3-0.1s0.2,0,0.3,0.1s0.1,0.2,0.1,0.3
				C46-36.5,46-36.4,45.9-36.3L45.9-36.3z M41.3-37.8h-1.7v0.5c0,0.3,0.1,0.5,0.3,0.6c0.2,0.2,0.4,0.3,0.6,0.3h0.1
				c0.2,0,0.4-0.1,0.6-0.3c0.2-0.2,0.3-0.4,0.3-0.6C41.3-37.4,41.3-37.8,41.3-37.8z M42-37.4c0,0.2,0,0.5-0.1,0.6
				c-0.1,0.2-0.2,0.4-0.4,0.5c-0.2,0.2-0.3,0.3-0.5,0.4s-0.4,0.1-0.6,0.1h-0.1c-0.2,0-0.4,0-0.6-0.1c-0.2-0.1-0.4-0.2-0.5-0.4
				c-0.2-0.2-0.3-0.3-0.4-0.5c-0.2-0.2-0.3-0.5-0.3-0.6v-1.7c0-0.2,0-0.5,0.1-0.6c0.1-0.2,0.2-0.4,0.4-0.5s0.3-0.3,0.5-0.4
				c0.2-0.1,0.4-0.1,0.6-0.1h0.1c0.4,0,0.6,0.1,0.8,0.3c0.3,0.2,0.5,0.4,0.6,0.6c0,0,0,0.1,0,0.2s0,0.2-0.1,0.3
				c0.1,0.2,0,0.2-0.1,0.2c-0.1,0-0.1,0-0.2-0.1c-0.1-0.1-0.1-0.1-0.1-0.2c-0.1-0.1-0.2-0.3-0.3-0.4c-0.1-0.1-0.3-0.2-0.5-0.2h-0.1
				c-0.2,0-0.4,0.1-0.6,0.3c-0.2,0.2-0.3,0.4-0.3,0.6v0.5h2.1c0.1,0,0.2,0,0.3,0.1s0.1,0.2,0.1,0.3C42-38.2,42-37.4,42-37.4z
				 M37.4-40c-0.1,0.1-0.2,0.1-0.3,0.1c-0.2,0-0.3,0.1-0.4,0.2c-0.1,0.1-0.2,0.2-0.2,0.4v2.7h0.6c0.1,0,0.2,0,0.3,0.1
				s0.1,0.2,0.1,0.3s0,0.2-0.1,0.3s-0.2,0.1-0.3,0.1h-0.6v1.7c0,0.1,0,0.2-0.1,0.3s-0.2,0.1-0.3,0.1s-0.2,0-0.3-0.1
				s-0.1-0.2-0.1-0.3v-1.7h-0.4c-0.1,0-0.2,0-0.3-0.1s-0.1-0.2-0.1-0.3s0-0.2,0.1-0.3s0.2-0.1,0.3-0.1h0.4v-2.7c0-0.2,0-0.4,0.1-0.5
				c0.1-0.2,0.2-0.3,0.3-0.4c0.1-0.1,0.3-0.2,0.4-0.3c0.2-0.1,0.3-0.1,0.5-0.1c0.1,0,0.2,0,0.3,0.1s0.1,0.2,0.1,0.3
				C37.4-40.1,37.4-40.1,37.4-40L37.4-40z M33.9-37.4c0,0.3,0,0.5-0.1,0.6c-0.1,0.2-0.2,0.4-0.4,0.5s-0.3,0.2-0.5,0.3
				s-0.4,0.1-0.6,0.1h-0.1c-0.2,0-0.3,0-0.5-0.1s-0.3-0.1-0.4-0.2c0,0.1-0.1,0.2-0.1,0.2c-0.1,0.1-0.2,0.1-0.2,0.1
				c-0.1,0-0.2,0-0.3-0.1c-0.1-0.1-0.1-0.2-0.1-0.3v-4c0-0.1,0-0.2,0.1-0.3s0.2-0.1,0.3-0.1c0.1,0,0.2,0,0.3,0.1
				c0.1,0.1,0.1,0.2,0.1,0.3v2.8c0,0.3,0.1,0.5,0.3,0.6c0.2,0.2,0.4,0.3,0.6,0.3h0.1c0.2,0,0.5-0.1,0.6-0.3c0.2-0.2,0.3-0.4,0.3-0.6
				v-2.8c0-0.1,0-0.2,0.1-0.3s0.2-0.1,0.3-0.1s0.2,0,0.3,0.1s0.1,0.2,0.1,0.3C33.9-40.2,33.9-37.4,33.9-37.4z M28.8-34.2
				c0,0.1,0,0.2-0.1,0.3s-0.2,0.1-0.3,0.1c-0.1,0-0.2,0-0.3-0.1c0-0.1,0-0.2,0-0.3v-6c0-0.1,0-0.2,0.1-0.3s0.2-0.1,0.3-0.1
				c0.1,0,0.2,0,0.3,0.1c0.1,0.1,0.1,0.2,0.1,0.3L28.8-34.2L28.8-34.2z M23.3-36.3c-0.1,0.2-0.3,0.3-0.5,0.4
				c-0.2,0.1-0.4,0.1-0.6,0.1c-0.1,0-0.3,0-0.3,0c-0.1,0-0.2,0-0.2-0.1c-0.1,0-0.1-0.1-0.2-0.1c0,0.1-0.1,0.1-0.1,0.2
				c-0.1,0-0.1,0-0.2,0s-0.2,0-0.3-0.1c-0.1-0.1-0.1-0.2-0.1-0.3v-4c0-0.1,0-0.2,0.1-0.3s0.2-0.1,0.3-0.1c0.1,0,0.2,0,0.3,0.1
				c0.1,0.1,0.1,0.2,0.1,0.3v2.9c0,0.1,0,0.2,0,0.3s0,0.2,0.1,0.2c0,0.1,0.1,0.1,0.2,0.2c0.1,0,0.2,0.1,0.4,0.1c0.1,0,0.2,0,0.3-0.1
				c0.1-0.1,0.1-0.1,0.2-0.1c0.1-0.1,0.2-0.1,0.3-0.1c0.1,0,0.2,0,0.3,0.1c0.1,0.1,0.1,0.2,0.1,0.3C23.4-36.5,23.4-36.4,23.3-36.3
				L23.3-36.3z M19.2-36.2c0,0.1,0,0.2-0.1,0.3s-0.2,0.1-0.3,0.1c-0.1,0-0.2,0-0.3-0.1c-0.1-0.1-0.1-0.2-0.1-0.3V-39
				c0-0.2-0.1-0.4-0.3-0.6c-0.2-0.2-0.4-0.3-0.6-0.3l0,0c-0.2,0-0.5,0.1-0.6,0.3c-0.2,0.2-0.3,0.4-0.3,0.6v2.8c0,0.1,0,0.2-0.1,0.3
				s-0.2,0.1-0.3,0.1c-0.1,0-0.2,0-0.3-0.1c0.2-0.1,0.2-0.2,0.2-0.3V-39c0-0.3,0-0.5,0.1-0.7s0.2-0.4,0.4-0.5
				c0.2-0.1,0.3-0.2,0.5-0.3s0.4-0.1,0.6-0.1h0.1c0.2,0,0.3,0,0.5,0.1s0.3,0.1,0.4,0.2c0-0.1,0.1-0.2,0.1-0.2c0.1,0,0.2-0.1,0.2-0.1
				c0.1,0,0.2,0,0.3,0.1c0.1,0.1,0.1,0.2,0.1,0.3L19.2-36.2L19.2-36.2z M17.1-34.2c0,0.1,0,0.2-0.1,0.3s-0.2,0.1-0.3,0.1
				s-0.2,0-0.3-0.1c-0.1-0.1-0.1-0.2-0.1-0.3v-0.3c0-0.1,0-0.2,0.1-0.3s0.2-0.1,0.3-0.1s0.2,0,0.3,0.1c0.1,0.1,0.1,0.2,0.1,0.3
				V-34.2z M18.9-34.2c0,0.1,0,0.2-0.1,0.3s-0.2,0.1-0.3,0.1c-0.1,0-0.2,0-0.3-0.1c-0.1-0.1-0.1-0.2-0.1-0.3v-0.3
				c0-0.1,0-0.2,0.1-0.3s0.2-0.1,0.3-0.1c0.1,0,0.2,0,0.3,0.1c0.1,0.1,0.1,0.2,0.1,0.3V-34.2z M14.7-34c-0.1,0.1-0.2,0.1-0.3,0.1
				c-0.2,0-0.4,0-0.5-0.1c-0.2-0.1-0.3-0.2-0.4-0.3c-0.1-0.1-0.2-0.3-0.3-0.4c-0.1-0.2-0.1-0.4-0.1-0.5v-0.7h-0.2
				c-0.1,0-0.2,0-0.3-0.1s-0.1-0.2-0.1-0.3s0-0.2,0.1-0.3s0.2-0.1,0.3-0.1h0.2v-3.4c0-0.1,0-0.2,0.1-0.3s0.2-0.1,0.3-0.1
				s0.2,0,0.3,0.1s0.1,0.2,0.1,0.3v3.6h0.5c0.1,0,0.2,0,0.3,0.1s0.1,0.2,0.1,0.3s0,0.2-0.1,0.3s-0.2,0.1-0.3,0.1h-0.5v0.7
				c0,0.2,0.1,0.3,0.2,0.4s0.2,0.2,0.4,0.2c0.1,0,0.2,0,0.3,0.1s0.1,0.2,0.1,0.3C14.7-34.1,14.7-34,14.7-34L14.7-34z"/>
		</g>
		<g id="g314" transform="matrix(1.25,0,0,-1.25,384.26558,545.1686)">
			<path id="path316" inkscape:connector-curvature="0" class="st0" d="M93.9-33.3c-0.1,0.1-0.2,0.1-0.3,0.1c-0.2,0-0.3,0.1-0.4,0.2
				S93-32.8,93-32.6v2.7h0.6c0.1,0,0.2,0,0.3,0.1c0.1,0.1,0.1,0.2,0.1,0.3c0,0.1,0,0.2-0.1,0.3c-0.1,0.1-0.2,0.1-0.3,0.1h-0.5v1.7
				c0,0.1,0,0.2-0.1,0.3C92.9-27,92.8-27,92.7-27c-0.1,0-0.2,0-0.3-0.1c0,0-0.1-0.1-0.1-0.3v-1.7h-0.4c-0.1,0-0.2,0-0.3-0.1
				c-0.1-0.1-0.1-0.2-0.1-0.3s0-0.2,0.1-0.3c0.1-0.1,0.2-0.1,0.3-0.1h0.4v-2.7c0-0.2,0-0.4,0.1-0.5c0.1-0.2,0.2-0.3,0.3-0.4
				c0.1-0.1,0.3-0.2,0.4-0.3c0.2-0.1,0.3-0.1,0.5-0.1c0.1,0,0.2,0,0.3,0.1c0.1,0.1,0.1,0.2,0.1,0.3C93.9-33.4,94-33.4,93.9-33.3
				L93.9-33.3z M90.8-27.3c-0.1,0.1-0.2,0.1-0.3,0.1c-0.2,0-0.4,0-0.5-0.1c-0.2-0.1-0.3-0.2-0.4-0.3c-0.1-0.1-0.2-0.3-0.3-0.4
				c-0.1-0.2-0.1-0.4-0.1-0.5v-0.8h-0.1c-0.1,0-0.2,0-0.3-0.1c-0.1-0.1-0.1-0.2-0.1-0.3s0-0.2,0.1-0.3s0.2-0.1,0.3-0.1h0.2v-3.6
				c0-0.1,0-0.2,0.1-0.3s0.2-0.1,0.3-0.1c0.1,0,0.2,0,0.3,0.1c0.1,0.1,0.1,0.2,0.1,0.3v3.6h0.5c0.1,0,0.2,0,0.3,0.1
				c0.1,0.1,0.1,0.2,0.1,0.3c0,0.1,0,0.2-0.1,0.3c-0.1,0.1-0.2,0.1-0.4,0.1H90v0.7c0,0.2,0.1,0.3,0.2,0.4s0.2,0.2,0.4,0.2
				c0.1,0,0.2,0,0.3,0.1c0.1,0.1,0.1,0.2,0.1,0.3S90.9-27.4,90.8-27.3L90.8-27.3z M86.3-32.4c0-0.2-0.1-0.5-0.3-0.6
				c-0.2-0.2-0.4-0.3-0.6-0.3h-0.1c-0.3,0-0.5,0.1-0.6,0.2c-0.2,0.1-0.2,0.3-0.2,0.5v0.1c0,0.2,0.1,0.3,0.2,0.4
				c0.1,0.1,0.3,0.2,0.5,0.2c0.2,0.1,0.4,0.1,0.6,0.1s0.4,0.1,0.6,0.1C86.3-31.6,86.3-32.4,86.3-32.4z M87.5-33.3
				c-0.1,0.1-0.1,0.1-0.3,0.1c-0.2,0-0.3,0.2-0.3,0.3v2.2c0,0.2,0,0.4-0.1,0.6s-0.2,0.4-0.3,0.5c-0.1,0.1-0.3,0.3-0.5,0.3
				c-0.2,0.1-0.4,0.1-0.6,0.1h-0.1c-0.1,0-0.3,0-0.4,0s-0.3-0.1-0.4-0.2s-0.3-0.2-0.4-0.3c-0.1-0.1-0.2-0.3-0.3-0.5c0,0,0-0.1,0-0.2
				s0-0.2,0.1-0.3c0.1-0.1,0.2-0.1,0.3-0.1c0.1,0,0.1,0,0.2,0s0.1,0.1,0.2,0.2c0.1,0.2,0.2,0.3,0.3,0.4c0.1,0.1,0.3,0.1,0.5,0.1h0.1
				c0.2,0,0.4-0.1,0.6-0.2s0.2-0.3,0.2-0.6v-0.2v-0.1c0-0.1-0.1-0.1-0.3-0.1s-0.3-0.1-0.5-0.1s-0.4-0.1-0.6-0.1
				c-0.2-0.1-0.4-0.1-0.6-0.2s-0.3-0.2-0.4-0.4c-0.1-0.2-0.2-0.4-0.2-0.6v-0.1c0-0.2,0-0.5,0.1-0.6c0.1-0.2,0.2-0.3,0.4-0.5
				c0.2-0.1,0.3-0.2,0.5-0.3s0.4-0.1,0.6-0.1h0.1c0.4,0,0.7,0.1,1,0.4c0.1-0.1,0.2-0.2,0.3-0.3c0.1-0.1,0.3-0.1,0.4-0.1
				c0,0,0,0,0.1,0s0.2,0,0.3,0.1c0.1,0.1,0.1,0.2,0.1,0.3C87.6-33.5,87.6-33.4,87.5-33.3L87.5-33.3z M82.5-30.7c0,0.2,0,0.4-0.1,0.6
				s-0.2,0.4-0.4,0.5c-0.2,0.2-0.3,0.3-0.5,0.4c-0.1,0.1-0.3,0.1-0.6,0.1h-0.1c-0.2,0-0.4,0-0.5-0.1c-0.2-0.1-0.3-0.1-0.4-0.2v1.9
				c0,0.1,0,0.2-0.1,0.3c0,0.1-0.1,0.1-0.2,0.1s-0.2,0-0.3-0.1c-0.1-0.1-0.1-0.2-0.1-0.3v-6c0-0.1,0-0.2,0.1-0.3s0.2-0.1,0.3-0.1
				c0.1,0,0.2,0,0.3,0.1s0.1,0.2,0.1,0.3v2.8c0,0.1,0,0.2,0.1,0.4c0.1,0.1,0.1,0.2,0.2,0.3c0.1,0.1,0.2,0.1,0.3,0.2
				c0.1,0,0.2,0.1,0.3,0.1c0.1,0,0.2,0,0.3-0.1c0.1,0,0.2-0.1,0.3-0.2c0.1-0.1,0.2-0.2,0.2-0.3c0.1-0.1,0.1-0.2,0.1-0.4v-2.8
				c0-0.1,0-0.2,0.1-0.3s0.2-0.1,0.3-0.1c0.1,0,0.2,0,0.3,0.1s0.1,0.2,0.1,0.3C82.5-33.6,82.5-30.7,82.5-30.7z M77.6-32.1
				C77.5-32,77.5-32,77.4-32s-0.2,0-0.3-0.1c-0.1-0.1,0-0.2,0-0.3c0-0.2-0.1-0.5-0.3-0.6c-0.2-0.2-0.4-0.3-0.6-0.3h-0.1
				c-0.2,0-0.5,0.1-0.6,0.3c-0.2,0.2-0.3,0.4-0.3,0.6v1.7c0,0.2,0.1,0.5,0.3,0.6c0.2,0.2,0.4,0.3,0.6,0.3h0.1c0.2,0,0.4-0.1,0.6-0.2
				c0.2-0.2,0.3-0.4,0.3-0.6c0-0.1,0.1-0.2,0.1-0.3c0.1-0.1,0.2-0.1,0.3-0.1c0.1,0,0.2,0,0.3,0.1c0.1,0.1,0.1,0.2,0.1,0.3
				c0,0.2,0,0.4-0.1,0.6s-0.2,0.4-0.4,0.5c-0.2,0.2-0.3,0.3-0.5,0.4c-0.2,0-0.4,0-0.6,0h-0.1c-0.2,0-0.4,0-0.6-0.1s-0.4-0.2-0.5-0.4
				c-0.1-0.1-0.3-0.3-0.4-0.5s-0.1-0.4-0.1-0.6v-1.7c0-0.2,0-0.5,0.1-0.6c0.1-0.2,0.2-0.4,0.4-0.5c0.2-0.1,0.3-0.3,0.5-0.4
				C75.8-34,76-34,76.2-34h0.1c0.2,0,0.4,0,0.6,0.1s0.4,0.2,0.5,0.4c0.2,0.2,0.3,0.3,0.4,0.5s0.1,0.4,0.1,0.6
				C77.7-32.2,77.7-32.1,77.6-32.1L77.6-32.1z M73.1-32.5c0,0.3-0.1,0.6-0.2,0.7c-0.1,0.2-0.3,0.3-0.5,0.5c-0.2,0.1-0.4,0.2-0.6,0.2
				s-0.5,0.1-0.6,0.2c-0.2,0.1-0.4,0.1-0.5,0.2s-0.2,0.2-0.2,0.4l0,0c0,0.2,0.1,0.3,0.2,0.4c0.2,0.1,0.4,0.2,0.6,0.2l0,0
				c0.2,0,0.4,0,0.5-0.1s0.3-0.1,0.4-0.2c0.1,0,0.2-0.1,0.2-0.1c0.1,0,0.2,0,0.3,0.1c0.1,0.1,0.1,0.2,0.1,0.3c0,0.1,0,0.2-0.1,0.3
				c0,0-0.1,0.1-0.2,0.1c-0.1,0.1-0.2,0.1-0.3,0.1c-0.1,0-0.2,0.1-0.4,0.1c-0.1,0-0.3,0.1-0.5,0.1l0,0c-0.2,0-0.3,0-0.5-0.1
				c-0.2,0-0.4-0.1-0.5-0.2c-0.2-0.1-0.3-0.2-0.4-0.4c0.3-0.4,0.2-0.5,0.2-0.7c0-0.3,0.1-0.6,0.2-0.7c0.1-0.2,0.3-0.3,0.5-0.4
				s0.4-0.2,0.6-0.2s0.5-0.1,0.6-0.2c0.2-0.1,0.4-0.1,0.5-0.3c0.1-0.1,0.2-0.3,0.2-0.5l0,0c0-0.2-0.1-0.3-0.3-0.5
				c-0.2-0.1-0.4-0.2-0.6-0.2h-0.1c-0.2,0-0.4,0.1-0.6,0.2s-0.4,0.3-0.5,0.5c0,0.1-0.1,0.1-0.2,0.1s-0.1,0-0.2,0s-0.2,0-0.3-0.1
				c-0.1-0.1-0.1-0.2-0.1-0.3c0,0,0-0.1,0.1-0.2c0.1-0.2,0.2-0.3,0.3-0.4c0.1-0.1,0.3-0.2,0.4-0.3c0.2-0.1,0.3-0.2,0.5-0.2
				s0.3-0.1,0.5-0.1h0.1c0.2,0,0.4,0,0.6,0.1s0.4,0.2,0.6,0.3s0.3,0.3,0.4,0.5C73.1-33,73.1-32.8,73.1-32.5L73.1-32.5z M68.4-33.3
				c-0.1,0.1-0.2,0.1-0.3,0.1c-0.2,0-0.3,0.1-0.4,0.2s-0.2,0.2-0.2,0.4v5.1c0,0.1,0,0.2-0.1,0.3c-0.1,0.1-0.2,0.1-0.3,0.1
				c-0.1,0-0.2,0-0.3-0.1c-0.1-0.1-0.1-0.2-0.1-0.3v-5.1c0-0.2,0-0.4,0.1-0.5c0.1-0.2,0.2-0.3,0.3-0.4c0.1-0.1,0.3-0.2,0.4-0.3
				c0.2-0.1,0.3-0.1,0.5-0.1c0.1,0,0.2,0,0.3,0.1c0.1,0.1,0.1,0.2,0.1,0.3C68.4-33.5,68.5-33.4,68.4-33.3L68.4-33.3z M65.4-33.3
				c-0.1,0.1-0.2,0.1-0.3,0.1c-0.2,0-0.3,0.1-0.4,0.2s-0.2,0.2-0.2,0.4v5.1c0,0.1,0,0.2-0.1,0.3c-0.1,0.1-0.2,0.1-0.3,0.1
				c-0.1,0-0.2,0-0.3-0.1s-0.1-0.2-0.1-0.3v-5.1c0-0.2,0-0.4,0.1-0.5c0.1-0.2,0.2-0.3,0.3-0.4c0.1-0.1,0.3-0.2,0.4-0.3
				c0.2-0.1,0.3-0.1,0.5-0.1c0.1,0,0.2,0,0.3,0.1c0.1,0.1,0.1,0.2,0.1,0.3C65.4-33.5,65.5-33.4,65.4-33.3L65.4-33.3z M61.5-31.2
				h-1.7v0.5c0,0.3,0.1,0.5,0.3,0.6c0.2,0.2,0.4,0.3,0.6,0.3h0.1c0.2,0,0.4-0.1,0.6-0.3c0.2-0.2,0.3-0.4,0.3-0.6v-0.5H61.5z
				 M62.3-30.7c0,0.2,0,0.5-0.1,0.6c-0.1,0.2-0.2,0.4-0.4,0.5c-0.2,0.2-0.3,0.3-0.5,0.4s-0.3,0.1-0.5,0.1h-0.1c-0.2,0-0.4,0-0.6-0.1
				c-0.2-0.1-0.4-0.2-0.5-0.4c-0.2-0.2-0.3-0.3-0.4-0.5s-0.1-0.4-0.1-0.6v-1.7c0-0.2,0-0.5,0.1-0.6c0.1-0.2,0.2-0.4,0.4-0.5
				s0.3-0.3,0.5-0.4s0.4-0.1,0.6-0.1h0.1c0.4,0,0.6,0.1,0.8,0.3c0.3,0.2,0.5,0.4,0.6,0.6c0,0,0,0.1,0,0.2c0,0.1,0,0.2-0.1,0.3
				c-0.1,0.1-0.2,0.1-0.3,0.1s-0.1,0-0.2-0.1c-0.1,0-0.1-0.1-0.1-0.2c-0.1-0.1-0.2-0.3-0.3-0.4c-0.1-0.1-0.3-0.2-0.5-0.2h-0.1
				c-0.2,0-0.4,0.1-0.6,0.3c-0.2,0.2-0.3,0.4-0.3,0.6v0.5h2.1c0.1,0,0.2,0,0.3,0.1s0.1,0.2,0.1,0.3C62.3-31.5,62.3-30.7,62.3-30.7z
				 M57.7-32.5c0,0.3-0.1,0.6-0.2,0.7c-0.1,0.2-0.3,0.3-0.5,0.5c-0.2,0.1-0.4,0.2-0.6,0.2c-0.2,0.1-0.5,0.1-0.6,0.2
				s-0.4,0.1-0.5,0.2s-0.2,0.2-0.2,0.4l0,0c0,0.2,0.1,0.3,0.2,0.4c0.2,0.1,0.4,0.2,0.6,0.2l0,0c0.2,0,0.4,0,0.5-0.1s0.3-0.1,0.4-0.2
				c0.1,0,0.2-0.1,0.2-0.1c0.1,0,0.2,0,0.3,0.1s0.1,0.2,0.1,0.3c0,0.1-0.1,0.2-0.1,0.3c0,0-0.1,0.1-0.2,0.1
				c-0.1,0.1-0.2,0.1-0.3,0.1s-0.2,0.1-0.4,0.1S56.1-29,55.9-29l0,0c-0.2,0-0.3,0-0.5-0.1c-0.2,0-0.4-0.1-0.5-0.2
				c-0.2-0.1-0.3-0.2-0.4-0.4c-0.1-0.2-0.2-0.4-0.2-0.6c0-0.3,0.1-0.6,0.2-0.7c0.1-0.2,0.3-0.3,0.5-0.4s0.4-0.2,0.6-0.2
				c0.2,0,0.5-0.1,0.6-0.2s0.4-0.1,0.5-0.3c0.1-0.2,0.2-0.3,0.2-0.5l0,0c0-0.2-0.1-0.3-0.3-0.5c-0.2-0.1-0.4-0.2-0.6-0.2h-0.1
				c-0.2,0-0.4,0.1-0.6,0.2c-0.2,0.1-0.4,0.3-0.5,0.5c-0.1,0.1-0.1,0.1-0.2,0.1c-0.1,0-0.1,0-0.2,0c-0.1,0-0.2,0-0.3-0.1
				C54-32.7,54-32.8,54-32.9c0,0,0-0.1,0.1-0.2c0.1-0.2,0.2-0.3,0.3-0.4c0.1-0.1,0.3-0.2,0.4-0.3c0.2-0.1,0.3-0.2,0.5-0.2
				s0.3-0.1,0.5-0.1h0.1c0.2,0,0.4,0,0.6,0.1c0.2,0.1,0.4,0.2,0.6,0.3c0.2,0.1,0.3,0.3,0.4,0.5C57.6-33,57.7-32.8,57.7-32.5
				L57.7-32.5z M52.2-31.2h-1.7v0.5c0,0.3,0.1,0.5,0.3,0.6c0.2,0.2,0.4,0.3,0.6,0.3h0.1c0.2,0,0.4-0.1,0.6-0.3
				c0.2-0.2,0.3-0.4,0.3-0.6C52.2-30.7,52.2-31.2,52.2-31.2z M52.9-30.7c0,0.2,0,0.5-0.1,0.6c-0.1,0.2-0.2,0.4-0.4,0.5
				c-0.2,0.2-0.3,0.3-0.5,0.4s-0.3,0.1-0.6,0.1h-0.1c-0.2,0-0.4,0-0.6-0.1c-0.2-0.1-0.4-0.2-0.5-0.4c-0.2-0.2-0.3-0.3-0.4-0.5
				c-0.1-0.2-0.1-0.4-0.1-0.6v-1.7c0-0.2,0-0.5,0.1-0.6c0.1-0.2,0.2-0.4,0.4-0.5s0.3-0.3,0.5-0.4S51-34,51.2-34h0.1
				c0.4,0,0.6,0.1,0.8,0.3c0.3,0.2,0.5,0.4,0.6,0.6c0,0,0,0.1,0,0.2c0,0.1,0,0.2-0.1,0.3c-0.1,0.1-0.2,0.1-0.3,0.1s-0.1,0-0.2-0.1
				c-0.1,0-0.1-0.1-0.1-0.2c-0.1-0.1-0.2-0.3-0.3-0.4c-0.1-0.1-0.3-0.2-0.5-0.2h-0.1c-0.2,0-0.4,0.1-0.6,0.3
				c-0.2,0.2-0.3,0.4-0.3,0.6v0.5h2.1c0.1,0,0.2,0,0.3,0.1s0.1,0.2,0.1,0.3C52.9-31.6,52.9-30.7,52.9-30.7z M48-30.6
				c0,0.1,0,0.2-0.1,0.3c-0.1,0.1-0.2,0.1-0.3,0.1h-1.3c-0.1,0-0.2,0-0.3-0.1s-0.1-0.2-0.1-0.3c0-0.1,0-0.2,0.1-0.3
				c0.1-0.1,0.2-0.1,0.3-0.1h0.9v-1.1c0-0.2,0-0.3-0.1-0.5S47-32.9,46.8-33c-0.1-0.1-0.2-0.2-0.4-0.3c-0.1-0.1-0.3-0.1-0.5-0.1h-0.1
				c-0.2,0-0.3,0-0.5,0.1c-0.1,0.1-0.3,0.1-0.4,0.3c-0.1,0.2-0.2,0.2-0.3,0.4c-0.1,0.1-0.1,0.3-0.1,0.5v3.1c0,0.2,0,0.3,0.1,0.5
				c0.1,0.1,0.1,0.3,0.3,0.4s0.2,0.2,0.4,0.3c0.1,0.1,0.3,0.1,0.5,0.1h0.3c0.3,0,0.6-0.1,0.7-0.3c0.2-0.2,0.3-0.4,0.4-0.6
				c0-0.1,0.1-0.2,0.1-0.3c0.1-0.1,0.2-0.1,0.3-0.1s0.2,0,0.3,0.1s0.1,0.2,0.1,0.3v0.1c0,0.2-0.1,0.5-0.2,0.6s-0.3,0.4-0.4,0.5
				c-0.2,0.1-0.4,0.3-0.6,0.4c-0.2,0.1-0.5,0.1-0.6,0.1h-0.1c-0.3,0-0.5-0.1-0.7-0.2s-0.4-0.2-0.6-0.4c-0.2-0.2-0.3-0.4-0.4-0.6
				c-0.1-0.2-0.2-0.5-0.2-0.7v-3.1c0-0.3,0.1-0.5,0.2-0.7c0.1-0.2,0.2-0.4,0.4-0.6s0.4-0.3,0.6-0.4c0.2-0.1,0.5-0.2,0.7-0.2h0.1
				c0.3,0,0.5,0.1,0.7,0.2c0.3,0.1,0.5,0.2,0.6,0.4c0.2,0.2,0.3,0.4,0.4,0.6s0.2,0.5,0.2,0.7C48-32.1,48-30.6,48-30.6z M38.9-31.2
				h-1.7v0.5c0,0.3,0.1,0.5,0.3,0.6c0.2,0.2,0.4,0.3,0.6,0.3h0c0.2,0,0.4-0.1,0.6-0.3s0.3-0.4,0.3-0.6
				C38.9-30.7,38.9-31.2,38.9-31.2z M39.6-30.7c0,0.2,0,0.5-0.1,0.6c-0.1,0.2-0.2,0.4-0.4,0.5c-0.2,0.2-0.3,0.3-0.5,0.4
				s-0.2,0.1-0.4,0.1h-0.1c-0.2,0-0.4,0-0.6-0.1c-0.2-0.1-0.4-0.2-0.5-0.4c-0.2-0.2-0.3-0.3-0.4-0.5c-0.1-0.2-0.1-0.4-0.1-0.6v-1.7
				c0-0.2,0-0.5,0.1-0.6c0.1-0.2,0.2-0.4,0.4-0.5s0.3-0.3,0.5-0.4s0.4-0.1,0.6-0.1l0,0c0.4,0,0.6,0.1,0.8,0.3
				c0.3,0.2,0.5,0.4,0.6,0.6c0,0,0,0.1,0,0.2c0,0.1,0,0.2-0.1,0.3c-0.1,0.1-0.2,0.1-0.3,0.1s-0.1,0-0.2-0.1c-0.1,0-0.1-0.1-0.1-0.2
				c-0.1-0.1-0.2-0.3-0.3-0.4c-0.1-0.1-0.3-0.2-0.5-0.2h-0.1c-0.2,0-0.4,0.1-0.6,0.3c-0.2,0.2-0.3,0.4-0.3,0.6v0.5h2.1
				c0.1,0,0.2,0,0.3,0.1s0.1,0.2,0.1,0.3C39.6-31.5,39.6-30.7,39.6-30.7z M34.9-30.7c0,0.2,0,0.4-0.1,0.6s-0.2,0.4-0.4,0.5
				c-0.2,0.2-0.3,0.3-0.5,0.4s-0.3,0.1-0.5,0.1h-0.1c-0.2,0-0.4,0-0.5-0.1c-0.2-0.1-0.3-0.1-0.4-0.2v1.9c0,0.1,0,0.2-0.1,0.3
				c0,0.1-0.1,0.1-0.2,0.1s-0.2,0-0.3-0.1s-0.1-0.2-0.1-0.3v-6c0-0.1,0-0.2,0.1-0.3s0.2-0.1,0.3-0.1c0.1,0,0.2,0,0.3,0.1
				s0.1,0.2,0.1,0.3v2.8c0,0.1,0,0.2,0.1,0.4c0.1,0.1,0.1,0.2,0.2,0.3c0.1,0.1,0.2,0.1,0.3,0.2c0.1,0,0.2,0.1,0.3,0.1s0.2,0,0.3-0.1
				c0.1,0,0.2-0.1,0.3-0.2s0.2-0.2,0.2-0.3c0.1-0.1,0.1-0.2,0.1-0.4v-2.8c0-0.1,0-0.2,0.1-0.3s0.2-0.1,0.3-0.1s0.2,0,0.3,0.1
				s0.1,0.2,0.1,0.3C34.9-33.6,34.9-30.7,34.9-30.7z M30-32.1C29.9-32,29.8-32,29.7-32s-0.2,0-0.3-0.1c-0.1-0.1-0.1-0.2-0.1-0.3
				c0-0.2-0.1-0.5-0.3-0.6c-0.2-0.2-0.4-0.3-0.6-0.3h-0.1c-0.2,0-0.5,0.1-0.6,0.3c-0.2,0.2-0.3,0.4-0.3,0.6v1.7
				c0,0.2,0.1,0.5,0.3,0.6c0.2,0.2,0.4,0.3,0.6,0.3h0.1c0.2,0,0.4-0.1,0.6-0.2c0.2-0.2,0.3-0.4,0.3-0.6c0-0.1,0.1-0.2,0.1-0.3
				c0.1-0.1,0.2-0.1,0.3-0.1c0.1,0,0.2,0,0.3,0.1c0.1,0.1,0.1,0.2,0.1,0.3c0,0.2,0,0.4-0.1,0.6s-0.2,0.4-0.4,0.5s-0.3,0.3-0.5,0.4
				c-0.1,0-0.3,0-0.6,0h-0.1c-0.2,0-0.4,0-0.6-0.1s-0.4-0.2-0.5-0.4c-0.1-0.2-0.3-0.3-0.4-0.5s-0.1-0.4-0.1-0.6v-1.7
				c0-0.2,0-0.5,0.1-0.6c0.1-0.1,0.2-0.4,0.4-0.5c0.2-0.1,0.3-0.3,0.5-0.4C28-34,28.2-34,28.4-34h0.1c0.2,0,0.4,0,0.6,0.1
				s0.4,0.2,0.5,0.4c0.2,0.2,0.3,0.3,0.4,0.5s0.1,0.4,0.1,0.6S30.1-32.1,30-32.1L30-32.1z M25.5-32.5c0,0.3-0.1,0.6-0.2,0.7
				c-0.1,0.2-0.3,0.3-0.5,0.5c-0.2,0.1-0.4,0.2-0.6,0.2c-0.1,0-0.4,0-0.5,0.1c-0.2,0.1-0.4,0.1-0.5,0.2s-0.1,0.2-0.1,0.4l0,0
				c0,0.2,0.1,0.3,0.2,0.4c0.2,0.1,0.4,0.2,0.6,0.2l0,0c0.2,0,0.4,0,0.5-0.1s0.3-0.1,0.4-0.2c0.1,0,0.2-0.1,0.2-0.1
				c0.1,0,0.2,0,0.3,0.1c0.1,0.1,0.1,0.2,0.1,0.3c0,0.1-0.1,0.2-0.1,0.3c0,0-0.1,0.1-0.2,0.1s-0.2,0.1-0.3,0.1
				c-0.1,0-0.2,0.1-0.4,0.1c-0.2,0-0.3,0.1-0.5,0.1l0,0c-0.2,0-0.3,0-0.5-0.1c-0.2,0-0.4-0.1-0.5-0.2c-0.2-0.1-0.3-0.2-0.4-0.4
				c-0.1-0.2-0.2-0.4-0.2-0.6c0-0.3,0.1-0.6,0.2-0.7c0.1-0.2,0.3-0.3,0.5-0.4s0.4-0.2,0.6-0.2s0.5-0.1,0.6-0.2s0.4-0.1,0.5-0.3
				c0.1-0.2,0.2-0.3,0.2-0.5l0,0c0-0.2-0.1-0.3-0.3-0.5c-0.2-0.1-0.4-0.2-0.6-0.2h-0.1c-0.2,0-0.4,0.1-0.6,0.2
				c-0.2,0.1-0.4,0.3-0.5,0.5c-0.1,0.1-0.1,0.1-0.2,0.1s-0.1,0-0.2,0s-0.2,0-0.3-0.1C22-32.8,22-32.9,22-33c0,0,0-0.1,0.1-0.2
				c0.1-0.2,0.2-0.3,0.3-0.4c0.1-0.1,0.3-0.2,0.4-0.3c0.2-0.1,0.3-0.2,0.5-0.2s0.3-0.1,0.5-0.1h0.1c0.2,0,0.4,0,0.6,0.1
				s0.4,0.2,0.6,0.3s0.3,0.3,0.4,0.5C25.4-33,25.5-32.8,25.5-32.5L25.5-32.5z M20.8-33.3c-0.1,0.1-0.2,0.1-0.3,0.1
				c-0.2,0-0.3,0.1-0.4,0.2s-0.2,0.2-0.2,0.4v2.7h0.6c0.1,0,0.2,0,0.3,0.1c0.1,0.1,0.1,0.2,0.1,0.3c0,0.1,0,0.2-0.1,0.3
				c-0.1,0.1-0.2,0.1-0.4,0.1h-0.6v1.7c0,0.1,0,0.2-0.1,0.3C19.6-27,19.5-27,19.4-27c-0.1,0-0.2,0-0.3-0.1c0-0.3,0-0.4,0-0.5v-1.7
				h-0.4c-0.1,0-0.2,0-0.3-0.1c-0.1-0.1-0.1-0.2-0.1-0.3s0-0.2,0.1-0.3c0.1-0.1,0.2-0.1,0.3-0.1h0.4v-2.7c0-0.2,0-0.4,0.1-0.5
				c0.1-0.2,0.2-0.3,0.3-0.4c0.1-0.1,0.3-0.2,0.4-0.3c0.2-0.1,0.3-0.1,0.5-0.1c0.1,0,0.2,0,0.3,0.1c0.1,0.1,0.1,0.2,0.1,0.3
				C20.7-33.4,20.8-33.4,20.8-33.3L20.8-33.3z M17-29.5c0,0.1,0,0.2-0.1,0.3c-0.1,0.1-0.1,0.1-0.2,0.1s-0.2,0-0.3-0.1
				s-0.1-0.2-0.1-0.3v-2.8c0-0.2-0.1-0.4-0.3-0.6s-0.4-0.3-0.6-0.3h-0.1c-0.2,0-0.4,0.1-0.6,0.3c-0.2,0.2-0.3,0.4-0.3,0.6v2.8
				c0,0.1,0,0.2-0.1,0.3c0.1,0.1,0,0.1-0.1,0.1s-0.2,0-0.3-0.1s-0.1-0.2-0.1-0.3v-2.8c0-0.3,0-0.5,0.1-0.7s0.2-0.4,0.4-0.5
				s0.3-0.2,0.5-0.3s0.4-0.1,0.6-0.1h0.1c0.2,0,0.3,0,0.5,0.1s0.3,0.1,0.4,0.2c0-0.1,0.1-0.2,0.1-0.2c0.1,0,0.2-0.1,0.2-0.1
				c0.1,0,0.2,0,0.3,0.1s0.1,0.2,0.1,0.3C17-33.6,17-29.5,17-29.5z M11.6-31.2H10v0.5c0,0.3,0.1,0.5,0.3,0.6
				c0.2,0.2,0.4,0.3,0.6,0.3H11c0.2,0,0.4-0.1,0.6-0.3c0.2-0.2,0.3-0.4,0.3-0.6C11.6-30.7,11.6-31.2,11.6-31.2z M12.3-30.7
				c0,0.2,0,0.5-0.1,0.6s-0.2,0.4-0.4,0.5c-0.2,0.2-0.3,0.3-0.5,0.4s-0.2,0.1-0.5,0.1l0,0c-0.2,0-0.4,0-0.6-0.1
				c-0.2-0.1-0.4-0.2-0.5-0.4c-0.2-0.2-0.3-0.3-0.4-0.5c-0.1-0.2-0.1-0.4-0.1-0.6v-1.7c0-0.2,0-0.5,0.1-0.6c0.1-0.2,0.2-0.4,0.4-0.5
				s0.3-0.3,0.5-0.4c0.1,0,0.3-0.1,0.6-0.1h0.1c0.4,0,0.6,0.1,0.8,0.3c0.3,0.2,0.5,0.4,0.6,0.6c0,0,0,0.1,0,0.2c0,0.1,0,0.2-0.1,0.3
				c-0.1,0.1-0.2,0.1-0.3,0.1s-0.1,0-0.2-0.1c-0.1,0-0.1-0.1-0.1-0.2c-0.1-0.1-0.2-0.3-0.3-0.4s-0.3-0.2-0.5-0.2h-0.1
				c-0.2,0-0.4,0.1-0.6,0.3c-0.2,0.2-0.3,0.4-0.3,0.6v0.5h2.3c0.1,0,0.2,0,0.3,0.1s0.1,0.2,0.1,0.3C12.3-31.5,12.3-30.7,12.3-30.7z
				 M6.8-32c0-0.2,0-0.3-0.1-0.5c-0.1-0.1-0.1-0.3-0.3-0.4c0,0-0.1-0.1-0.3-0.2c-0.1-0.1-0.3-0.1-0.5-0.1H4.5v5.1h1.2
				c0.2,0,0.3,0,0.5-0.1c0.1-0.1,0.3-0.1,0.4-0.3c0.1-0.2,0.2-0.2,0.2-0.4c0,0,0.1-0.1,0.1-0.3V-32H6.8z M7.6-29.1
				c0,0.3-0.1,0.5-0.2,0.7S7.2-28,7-27.8c-0.2,0.2-0.4,0.3-0.6,0.4s-0.5,0.2-0.7,0.2H4.2c-0.1,0-0.2,0-0.3-0.1s-0.1-0.2-0.1-0.3
				v-5.9c0-0.1,0-0.2,0.1-0.3s0.2-0.1,0.3-0.1h1.6c0.3,0,0.5,0.1,0.7,0.2c0.3,0.1,0.4,0.2,0.6,0.4s0.3,0.4,0.4,0.6s0.2,0.5,0.2,0.7
				C7.6-32,7.6-29.1,7.6-29.1z"/>
		</g>
	</g>
	<path class="st1" d="M124.1,59L124.1,59c-0.6,0-1.1,0.5-1.1,1.1V64c0,0.6,0.5,1.1,1.1,1.1l0,0c0.6,0,1.1-0.5,1.1-1.1v-3.8
		C125.2,59.5,124.7,59,124.1,59z"/>
	<path class="st1" d="M124.1,59.1L124.1,59.1c-0.6,0-1,0.5-1,1V64c0,0.6,0.5,1,1,1l0,0c0.6,0,1-0.5,1-1v-3.9
		C125.1,59.6,124.6,59.1,124.1,59.1z"/>
</g>
</svg>
