<?xml version="1.0" encoding="utf-8"?>
<!-- Generator: Adobe Illustrator 26.0.3, SVG Export Plug-In . SVG Version: 6.00 Build 0)  -->
<svg version="1.1" id="Calque_1" xmlns="http://www.w3.org/2000/svg" xmlns:xlink="http://www.w3.org/1999/xlink" x="0px" y="0px"
	 viewBox="0 0 248.7 123.9" style="enable-background:new 0 0 248.7 123.9;" xml:space="preserve">
<style type="text/css">
	.st0{fill:#233977;}
	.st1{fill:#80BA27;}
</style>
<g>
	<g>
		<path class="st0" d="M48.9,82.3H55v-6.1c-3-0.3-6.1,0.5-6.1,3.9V82.3z"/>
		<path class="st0" d="M41.1,84.1c-6.4,0.2-9.8,2.2-9.8,8.8V109h6.1V93c0-3,1.2-3.6,3.6-3.6c1.5-0.2,2,0.2,3.4-0.5
			c1.2-0.7,1.7-2.2,1.7-4.4C44.5,84.1,43.1,84,41.1,84.1"/>
		<path class="st0" d="M8.5,89.4v-8.8h8c3.6,0,4.4,1.2,4.4,4.4c0,3.2-1,4.6-4.4,4.6L8.5,89.4L8.5,89.4z M28,99.4
			c0-5.4-2.4-7.3-5.4-8c2.5-1.2,4.4-2.7,4.4-7.3c0-6.4-3-8.8-9.5-8.8H2.1V109h16.3C24.5,109,28,106.7,28,99.4 M8.4,94.5h9
			c3.4,0,4.4,1.4,4.4,4.6s-1,4.7-4.4,4.7H8.5C8.5,103.8,8.5,94.5,8.4,94.5z"/>
		<path class="st0" d="M81.1,82.3h6.1v-6.1c-3-0.3-6.1,0.5-6.1,3.9V82.3z"/>
		<rect x="81.1" y="84.3" class="st0" width="6.3" height="24.6"/>
		<path class="st0" d="M130.4,84.1c-3.2,0-7.5,1.7-10,2.7V74.5c-3-0.3-6.1,0.5-6.1,3.9v30.5h6.1V91.8c2.7-1,5.9-2,8.1-2
			c1.9,0,2.9,1.2,2.9,2.7v16.4h6.1V92.1C137.5,87,135.6,84.1,130.4,84.1"/>
		<rect x="48.9" y="84.3" class="st0" width="6.1" height="24.6"/>
		<path class="st0" d="M69,89.2h4.2c3.2,0,4.4-1.5,4.1-4.9h-8.5v-8.1c-3-0.3-6.1,0.5-6.1,3.9v4.4h-4.6v4.9h4.6v11.2
			c0,6.1,2.5,8.8,9,8.8c2,0,3.6-0.2,5.3-0.3l-0.2-4.9c-1.2,0.2-2.9,0.2-4.2,0.2c-2.4,0-3.6-0.8-3.6-3.4C69,101,69,89.2,69,89.2z"/>
		<path class="st0" d="M96.6,91.3c0-1.5,1.2-2,2.7-2c2.5,0,4.9,0.2,6.4,0.2c2.7,0.2,4.1-1.4,3.9-4.6c-1.9-0.2-6.1-0.5-9.7-0.5
			c-5.4,0-9.5,2-9.5,7.1s3,6.8,8.5,7.6c4.9,0.8,5.9,1.2,5.9,2.9c0,2-2.4,2.4-4.6,2.4c-3.2,0-6.8-0.2-9-0.3l-0.3,5.1
			c2.4,0.2,5.8,0.3,9.5,0.3c6.4,0,10.3-2,10.3-7.3s-2.7-6.6-8-7.6C98.2,93.5,96.6,93.1,96.6,91.3"/>
		<path class="st0" d="M178.8,89.6h-12.7c-0.3,3.7,0.8,5.3,4.1,5.3h2.2v8.5c-1.7,0.3-5.8,0.5-7.5,0.5c-5.1,0-6.9-2-6.9-11.9
			s1.5-11.9,9.5-11.4l5.4,0.3c3.6,0.2,4.9-1.7,4.9-4.9c-2.5-0.3-9-1.2-11.7-1.2c-11.5,0-14.7,3.4-14.7,16.9s3.7,17.3,13.4,17.3
			c3.6,0,10.5-0.8,14.1-1.5L178.8,89.6L178.8,89.6z"/>
		<path class="st0" d="M213.9,91.3c0-1.5,1.2-2,2.7-2c2.5,0,4.9,0.2,6.4,0.2c2.7,0.2,4.1-1.4,4.1-4.6c-1.9-0.2-6.1-0.5-9.7-0.5
			c-5.4,0-9.5,2-9.5,7.1s3,6.8,8.5,7.6c4.9,0.8,5.9,1.2,5.9,2.9c0,2-2.4,2.4-4.6,2.4c-3.2,0-6.8-0.2-9-0.3l-0.3,5.1
			c2.4,0.2,5.8,0.3,9.5,0.3c6.4,0,10.3-2,10.3-7.3s-2.7-6.6-8-7.6C215.4,93.5,213.9,93.1,213.9,91.3"/>
		<path class="st0" d="M204.6,92.1c0-5.1-2.2-7.8-8.5-7.8c-3.9,0-9,0.5-11.4,0.7c0,3,0.8,4.6,3.6,4.6c1.9,0,5.4-0.2,7.5-0.2
			c1.9,0,2.7,0.7,2.7,2.7V93c-2.7,0.2-5.3,0.5-7.6,0.8c-5.4,0.8-8.6,2.4-8.6,7.8c0,4.7,2.4,7.8,7.6,7.8c5.3,0,11.5-0.3,14.7-0.8
			V92.1L204.6,92.1z M198.3,104.5c-1.5,0.2-4.7,0.3-7.3,0.3s-2.9-1.7-2.9-3c0-2.2,1-2.9,3.6-3.4c2-0.3,4.2-0.7,6.6-0.8L198.3,104.5
			L198.3,104.5z"/>
	</g>
	<path class="st0" d="M246.6,14.5L209,26.7c0,0-8.3,2.9-12.9,6.8c-2.9,2.4-4.7,5.6-5.6,9.1c3.2-1.7,6.4-2.9,6.4-2.9l30.2-9.8
		c0,0,1.2,22.9-12.2,33c3.9-0.8,8.5-2.4,13.6-5.4C248.3,46.4,246.6,14.5,246.6,14.5L246.6,14.5L246.6,14.5z"/>
	<path class="st1" d="M209,63.5L209,63.5c-10.3,0-18.8-7.6-18.8-17.1c0-1.2,0.2-2.5,0.3-3.7c-1.4,0.7-2.7,1.7-3.9,2.5
		c-3,2.5-4.7,6.3-4.7,10.3c0,7.6,6.8,13.7,15.1,13.7l0,0c4.1,0.2,9.1-1,15.6-4.7c0.8-0.5,1.5-1,2.4-1.5
		C212.7,63.5,210.7,63.5,209,63.5L209,63.5z"/>
</g>
</svg>
