<?xml version="1.0" encoding="utf-8"?>
<!-- Generator: Adobe Illustrator 26.0.3, SVG Export Plug-In . SVG Version: 6.00 Build 0)  -->
<svg version="1.1" id="Calque_1" xmlns="http://www.w3.org/2000/svg" xmlns:xlink="http://www.w3.org/1999/xlink" x="0px" y="0px"
	 viewBox="0 0 248.7 123.9" style="enable-background:new 0 0 248.7 123.9;" xml:space="preserve">
<style type="text/css">
	.st0{fill:#FEFEFE;}
	.st1{fill:#1C3661;}
</style>
<g>
	<path class="st0" d="M21.2,56.5c3,2.7,4.5,6,4.2,10c-0.1,1.7,0,3.4,0,5c-0.1,4.1-2.1,6.7-6,7.8c-3.1,0.8-6.2,0.8-9.2-0.4
		c-3-1.2-4.7-3.5-4.7-6.8c0-1.3,0-2.5,0-3.8h0c0-1.5,0-2.9,0-4.4c0-0.5,0.1-0.6,0.6-0.6c2.4,0,4.8,0,7.2,0c0.6,0,0.6,0.2,0.6,0.7
		c0,2.3,0,4.7,0,7c0,0.3,0,0.6,0,0.9c0.2,0.8,0.7,1.3,1.5,1.3c0.9,0,1.5-0.4,1.5-1.2c0.1-2.5,0.3-5.1-0.3-7.6
		c-0.3-1.3-1.2-2.2-2.1-3.1c-1.7-1.7-3.5-3.3-5.2-5c-2.5-2.3-3.8-5.2-3.7-8.6c0-1.6,0-3.2,0-4.7c0-3.6,1.8-6,5.1-7.2
		c3.3-1.1,6.6-1.1,9.8,0.1c3,1.1,4.7,3.3,4.8,6.5c0.1,2.2,0,4.4,0.1,6.6c0,0.5-0.2,0.7-0.7,0.7c-2.3,0-4.6,0-6.8,0
		c-0.6,0-0.8-0.2-0.8-0.8c0-1.7,0-3.5,0-5.2c0-0.3,0-0.6-0.1-0.9c-0.1-0.8-0.7-1.3-1.5-1.3c-0.8,0-1.5,0.5-1.5,1.4
		c-0.1,1.5-0.1,3.1,0,4.6c0.2,1.5,0.9,2.7,1.9,3.7C17.6,53.1,19.4,54.9,21.2,56.5z"/>
	<path class="st0" d="M45.1,73.1c-0.4,3-2.2,5-5,6c-2.8,1-5.7,1-8.4-0.2c-2.7-1.2-4.3-3.3-4.4-6.3c-0.1-4.1-0.1-8.2-0.1-12.4
		c0-2.6,0-5.3,0-7.9c0-4.5,2.3-7.3,6.7-8.2c2.6-0.5,5.1-0.2,7.5,1.1c2.3,1.3,3.6,3.4,3.7,6c0.1,1.9,0,3.8,0.1,5.6
		c0,0.6-0.2,0.7-0.7,0.6c-2,0-4,0-6.1,0c-0.6,0-0.7-0.2-0.7-0.7c0-1.8,0-3.6,0-5.4c0-0.8-0.2-1.4-1.1-1.7c-1.1-0.4-2,0.4-2,1.7
		c0,3.5,0,7,0,10.5c0,3.4,0,6.8,0,10.2c0,0.6,0.1,1.2,0.6,1.6c0.5,0.4,1,0.4,1.6,0.2c0.7-0.3,0.9-0.9,0.9-1.5c0-1.9,0-3.8,0-5.6
		c0-1.4-0.2-1.2,1.3-1.2c1.8,0,3.6,0,5.5,0c0.3,0,0.7-0.1,0.7,0.4C45.2,68.3,45.4,70.7,45.1,73.1z"/>
	<path class="st0" d="M65,50.5c0,9.2,0,18.5,0,27.7c0,0.9-0.2,1.1-1.1,1.1c-1.8-0.1-3.6-0.1-5.4,0c-0.8,0-1.1-0.2-1-1
		c0-8.4,0-16.9,0-25.3c0-0.4,0-0.7,0-1.1c-0.1-0.8-0.7-1.4-1.5-1.4c-0.8,0.1-1.4,0.5-1.5,1.3c0,0.4,0,0.7,0,1.1c0,8.4,0,16.9,0,25.3
		c0,0.8-0.2,1.1-1,1.1c-1.8-0.1-3.7,0-5.5,0c-0.6,0-0.9-0.1-0.9-0.8c0-14.1,0-28.2,0-42.3c0-0.7,0.2-0.9,0.9-0.9c1.9,0,3.8,0,5.7,0
		c0.7,0,1,0.2,1,0.9c0,3.1,0,6.2,0,9.3v1.2c1.5-1.9,3.1-3,5.2-2.9c2.6,0.1,4.7,2,5.1,4.7C65,49.2,65,49.9,65,50.5z"/>
	<path class="st0" d="M74.3,36.2c0,5.8,0,11.5,0,17.3c0,8.2,0,16.5,0,24.7c0,0.9-0.2,1.1-1.1,1.1c-1.8-0.1-3.6-0.1-5.5,0
		c-0.8,0-0.9-0.2-0.9-1c0-7,0-14,0-21.1s0-14,0-21.1c0-0.8,0.2-1,1-1c1.9,0.1,3.7,0.1,5.6,0C74.1,35.2,74.3,35.5,74.3,36.2z"/>
	<path class="st0" d="M94.1,44.9c0,11.2,0,22.4,0,33.6c0,0.7-0.2,0.8-0.8,0.7c-1.9,0-3.7,0-5.6,0c-0.6,0-0.9-0.1-0.9-0.8
		c0-0.5-0.1-1-0.2-1.8c-1.1,1.5-2.2,2.5-3.8,2.8c-3.3,0.7-6.3-1.6-6.7-5.1c0-0.5-0.1-1-0.1-1.5c0-9.2,0-18.5,0-27.7
		c0-0.9,0.2-1.1,1.1-1.1c1.8,0.1,3.6,0.1,5.5,0c0.8,0,0.9,0.2,0.9,1c0,8.6,0,17.2,0,25.8c0,1.7,0.5,2.4,1.6,2.4
		c1.1,0,1.6-0.7,1.6-2.4c0-8.5,0-17,0-25.5c0-1,0.3-1.2,1.3-1.2c1.8,0.1,3.6,0,5.5,0C93.9,44.2,94.1,44.4,94.1,44.9z"/>
	<path class="st0" d="M124.5,78.3c0,0.8-0.2,1.1-1,1c-1.8-0.1-3.6-0.1-5.5,0c-0.8,0-1-0.2-1-1c0-8.6,0-17.1,0-25.7
		c0-0.4,0-0.8-0.1-1.2c-0.1-0.8-0.7-1.2-1.5-1.2c-0.9,0-1.3,0.5-1.5,1.3c0,0.3,0,0.7,0,1c0,8.6,0,17.1,0,25.7c0,0.9-0.2,1.1-1.1,1.1
		c-1.8-0.1-3.6-0.1-5.4,0c-0.8,0-1.1-0.2-1.1-1.1c0-8.6,0-17.2,0-25.7c0-1.7-0.4-2.3-1.6-2.3c-1.1,0-1.5,0.6-1.5,2.3
		c0,8.6,0,17.1,0,25.7c0,0.9-0.3,1.1-1.1,1.1c-1.8-0.1-3.6-0.1-5.4,0c-0.8,0-1.1-0.2-1.1-1c0-8.2,0-16.5,0-24.7c0-2.8,0-5.7,0-8.5
		c0-0.6,0.2-0.8,0.8-0.8c1.9,0,3.8,0,5.7,0c0.8,0,1,0.2,1,1c0,0.4,0,0.9,0.1,1.5c3.3-4,7.7-3.8,10.1,0.4c0.2,0,0.2-0.2,0.3-0.3
		c1.6-2.4,4-3.4,6.6-2.8c2.3,0.6,3.9,2.7,4.1,5.6c0,0.5,0,0.9,0,1.4C124.5,60.1,124.4,69.2,124.5,78.3z"/>
	<path class="st0" d="M144.3,50.2c0-0.6-0.1-1.3-0.2-1.9c-1-4.1-5.4-5.8-8.6-3.3c-0.6,0.5-1.1,1-1.6,1.8c0-0.4-0.1-0.5-0.1-0.7
		c0-3.3,0-6.7,0-10c0-0.6-0.2-0.8-0.8-0.8c-1.9,0-3.7,0.1-5.6,0c-0.9,0-1.1,0.2-1.1,1.1c0,13.4,0,26.7,0,40.1c0,0.7,0,1.5,0,2.2
		c0,0.5,0.2,0.7,0.7,0.7c1.5,0,3,0,4.5,0c2.2,0,2.2,0,2.3-2.2c0,0,0.1-0.1,0.2-0.2c0.1,0.1,0.2,0.2,0.2,0.3c2.3,3.4,7,3.2,9.1-0.3
		c0.7-1.2,1-2.6,1-4C144.3,65.4,144.3,57.8,144.3,50.2z M136.8,58v13c0,0.4,0,0.7-0.1,1.1c-0.1,0.8-0.7,1.2-1.5,1.2
		c-0.8,0-1.4-0.4-1.5-1.2c0-0.2,0-0.5,0-0.7c0-6.4,0-12.9,0-19.3c0-0.8,0.1-1.5,1-1.8c1.1-0.4,2,0.3,2,1.6
		C136.9,53.9,136.8,55.9,136.8,58z"/>
	<path class="st0" d="M164.1,66c0-0.6-0.3-0.6-0.8-0.6c-1.9,0-3.9,0-5.9,0c-0.7,0-0.9,0.2-0.9,0.9c0,2,0,4,0,5.9
		c0,0.6-0.2,1.2-0.7,1.5c-1.1,0.6-2.3-0.1-2.3-1.4c0-2.9,0-5.7,0-8.6c0-0.6,0.3-0.7,0.8-0.7c3,0,6,0,8.9,0c0.5,0,0.9,0,0.9-0.7
		c0-3.6,0-7.3,0-10.9c-0.1-3.6-2.1-6.1-5.6-7.2c-1-0.3-2.1-0.5-3.2-0.5c-4.8,0-9.4,2.4-9.2,8.8c0.1,3,0,6.1,0,9.1
		c0,3.4,0,6.7,0,10.1c0,3.6,2,6.2,5.5,7.3c2.3,0.7,4.7,0.7,7,0c3.2-1.1,5.2-3.3,5.4-6.7C164.2,70.3,164.1,68.2,164.1,66z
		 M153.6,51.2c0-1,0.6-1.6,1.5-1.6c0.9,0,1.5,0.6,1.5,1.6c0,1,0,2,0,3.1c0,0,0,0,0,0c0,1,0.1,1.9,0,2.9c-0.2,1.3-1.3,0.4-2,0.6
		c-0.4,0.1-1.1,0.3-1.1-0.6C153.6,55.1,153.6,53.1,153.6,51.2z"/>
	<path class="st0" d="M183.9,58.9c0,1.2,0,2.3,0,3.5c0,0.5-0.2,0.6-0.6,0.6c-2.1,0-4.2,0-6.2,0c-0.7,0-0.6-0.4-0.6-0.8v-9.9
		c0-1.4-0.5-2.1-1.5-2.1c-1.1,0-1.6,0.6-1.6,2.1v25.4c0,1.5,0,1.5-1.6,1.5c-1.7,0-3.4,0-5,0c-0.6,0-0.8-0.1-0.8-0.8
		c0-11.2,0-22.4,0-33.6c0-0.7,0.3-0.7,0.8-0.7c1.9,0,3.8,0,5.7,0c0.7,0,0.9,0.2,0.9,0.9c0,0.5-0.1,1,0.2,1.5c0.4-0.4,0.7-0.8,1-1.1
		c1.6-1.5,3.5-2.2,5.7-1.4c2.2,0.8,3.4,2.5,3.6,4.8C184.1,52.3,183.9,55.6,183.9,58.9z"/>
	<path class="st0" d="M203.7,45.2c0-0.8-0.2-1.1-1-1c-1.3,0.1-2.6,0-4,0c-0.8,0-1.7-0.3-2.2,0.2c-0.5,0.4-0.1,1.4-0.2,2.1
		c0,0,0,0-0.1,0.2c-0.2-0.3-0.4-0.5-0.6-0.7c-1.3-1.5-2.8-2.3-4.8-2.1c-2.9,0.3-4.9,2.5-5,5.4c-0.1,4.6,0,9.1,0,13.7
		c0,2.8,0,5.6,0,8.4c0.1,2.5,1.6,4.6,3.7,5.3c2.2,0.8,4.5,0,6.2-1.9c0.1-0.1,0.2-0.4,0.5-0.2c0,2.4,0,4.9,0,7.4c0,1-0.7,1.6-1.6,1.6
		c-0.9,0-1.5-0.6-1.5-1.6c0-0.7-0.1-1.3,0-2c0.1-0.7-0.1-0.9-0.9-0.9c-1.4,0.1-2.7,0-4.1,0c-2.6,0-2.6,0-2.5,2.6
		c0.1,3.3,1.9,5.7,5.1,6.7c2.2,0.7,4.4,0.8,6.7,0.3c4-0.9,6.1-3.4,6.2-7.5c0-2.6,0-5.1,0-7.7C203.7,64,203.7,54.6,203.7,45.2z
		 M196.3,57.2c0,4,0,8,0,12c0,1.2-0.5,1.9-1.4,2c-1.1,0.1-1.7-0.5-1.7-1.8c0-2.9,0-5.8,0-8.7v-8.5c0-0.9,0.2-1.6,1.1-1.9
		c1.1-0.3,2,0.4,2,1.7C196.3,53.7,196.3,55.5,196.3,57.2z"/>
	<path class="st0" d="M223.5,65.9c0-0.6-0.4-0.5-0.7-0.5c-2,0-3.9,0-5.9,0c-0.7,0-0.9,0.2-0.9,0.9c0,2,0,3.9,0,5.8
		c0,0.6-0.1,1.2-0.7,1.6c-1.1,0.7-2.3-0.1-2.3-1.5c0-2.8,0-5.5,0-8.3c0-0.8,0.3-0.9,1-0.9c2.9,0,5.8,0,8.7,0c0.7,0,0.9-0.2,0.9-0.9
		c0-1.8,0-3.6,0-5.4c0,0,0,0,0,0c0-1.8,0.1-3.6,0-5.3c-0.1-3.1-1.6-5.3-4.4-6.6c-2-1-4.2-1.1-6.4-0.8c-4.3,0.5-7.1,3.5-7.2,7.7
		c-0.1,6.8,0,13.5,0,20.3c0,2.9,1.3,5.2,3.9,6.6c2.3,1.2,4.7,1.4,7.2,1c3.7-0.7,6.2-3,6.7-6.4C223.7,70.7,223.4,68.3,223.5,65.9z
		 M213,54c0-1,0-1.9,0-2.9c0-1,0.6-1.6,1.5-1.6c0.9,0,1.5,0.5,1.5,1.5c0.1,2,0.2,4,0,6c-0.1,1.4-1.4,0.4-2.2,0.6
		c-0.4,0.1-0.9,0.1-0.9-0.6C213,56.1,213,55,213,54z"/>
	<path class="st0" d="M243.3,62.2c0,0.6-0.1,0.9-0.8,0.9c-2,0-3.9,0-5.9,0c-0.7,0-0.8-0.2-0.8-0.8c0-3.4,0-6.9,0-10.3
		c0-1.2-0.7-1.8-1.8-1.7c-0.7,0.1-1.1,0.5-1.2,1.1c-0.1,0.4-0.1,0.9-0.1,1.3c0,8.5,0,17.1,0,25.6c0,0.8-0.2,1.1-1,1
		c-1.9-0.1-3.8,0-5.6,0c-0.6,0-0.8-0.1-0.8-0.7c0-11.2,0-22.4,0-33.6c0-0.6,0.2-0.7,0.7-0.7c1.9,0,3.8,0,5.8,0
		c0.7,0,0.9,0.2,0.9,0.9c0,0.5,0,1,0.1,1.7c1.2-1.5,2.4-2.5,4-2.8c3-0.7,5.8,1.2,6.4,4.4c0.1,0.5,0.2,1.1,0.2,1.7
		C243.3,54,243.3,58.1,243.3,62.2z"/>
	<path class="st1" d="M124.5,78.3c0,0.8-0.2,1.1-1,1c-1.8-0.1-3.6-0.1-5.5,0c-0.8,0-1-0.2-1-1c0-8.6,0-17.1,0-25.7
		c0-0.4,0-0.8-0.1-1.2c-0.1-0.8-0.7-1.2-1.5-1.2c-0.9,0-1.3,0.5-1.5,1.3c0,0.3,0,0.7,0,1c0,8.6,0,17.1,0,25.7c0,0.9-0.2,1.1-1.1,1.1
		c-1.8-0.1-3.6-0.1-5.4,0c-0.8,0-1.1-0.2-1.1-1.1c0-8.6,0-17.2,0-25.7c0-1.7-0.4-2.3-1.6-2.3c-1.1,0-1.5,0.6-1.5,2.3
		c0,8.6,0,17.1,0,25.7c0,0.9-0.3,1.1-1.1,1.1c-1.8-0.1-3.6-0.1-5.4,0c-0.8,0-1.1-0.2-1.1-1c0-8.2,0-16.5,0-24.7c0-2.8,0-5.7,0-8.5
		c0-0.6,0.2-0.8,0.8-0.8c1.9,0,3.8,0,5.7,0c0.8,0,1,0.2,1,1c0,0.4,0,0.9,0.1,1.5c3.3-4,7.7-3.8,10.1,0.4c0.2,0,0.2-0.2,0.3-0.3
		c1.6-2.4,4-3.4,6.6-2.8c2.3,0.6,3.9,2.7,4.1,5.6c0,0.5,0,0.9,0,1.4C124.5,60.1,124.4,69.2,124.5,78.3z"/>
	<path class="st1" d="M203.7,45.2c0-0.8-0.2-1.1-1-1c-1.3,0.1-2.6,0-4,0c-0.8,0-1.7-0.3-2.2,0.2c-0.5,0.4-0.1,1.4-0.2,2.1
		c0,0,0,0-0.1,0.2c-0.2-0.3-0.4-0.5-0.6-0.7c-1.3-1.5-2.8-2.3-4.8-2.1c-2.9,0.3-4.9,2.5-5,5.4c-0.1,4.6,0,9.1,0,13.7
		c0,2.8,0,5.6,0,8.4c0.1,2.5,1.6,4.6,3.7,5.3c2.2,0.8,4.5,0,6.2-1.9c0.1-0.1,0.2-0.4,0.5-0.2c0,2.4,0,4.9,0,7.4c0,1-0.7,1.6-1.6,1.6
		c-0.9,0-1.5-0.6-1.5-1.6c0-0.7-0.1-1.3,0-2c0.1-0.7-0.1-0.9-0.9-0.9c-1.4,0.1-2.7,0-4.1,0c-2.6,0-2.6,0-2.5,2.6
		c0.1,3.3,1.9,5.7,5.1,6.7c2.2,0.7,4.4,0.8,6.7,0.3c4-0.9,6.1-3.4,6.2-7.5c0-2.6,0-5.1,0-7.7C203.7,64,203.7,54.6,203.7,45.2z
		 M196.3,57.2c0,4,0,8,0,12c0,1.2-0.5,1.9-1.4,2c-1.1,0.1-1.7-0.5-1.7-1.8c0-2.9,0-5.8,0-8.7v-8.5c0-0.9,0.2-1.6,1.1-1.9
		c1.1-0.3,2,0.4,2,1.7C196.3,53.7,196.3,55.5,196.3,57.2z"/>
	<path class="st1" d="M25.4,66.6c-0.1,1.7,0,3.4,0,5c-0.1,4.1-2.1,6.7-6,7.8c-3.1,0.8-6.2,0.8-9.2-0.4c-3-1.2-4.7-3.5-4.7-6.8
		c0-1.3,0-2.5,0-3.8h0c0-1.5,0-2.9,0-4.4c0-0.5,0.1-0.6,0.6-0.6c2.4,0,4.8,0,7.2,0c0.6,0,0.6,0.2,0.6,0.7c0,2.3,0,4.7,0,7
		c0,0.3,0,0.6,0,0.9c0.2,0.8,0.7,1.3,1.5,1.3c0.9,0,1.5-0.4,1.5-1.2c0.1-2.5,0.3-5.1-0.3-7.6c-0.3-1.3-1.2-2.2-2.1-3.1
		c-1.7-1.7-3.5-3.3-5.2-5c-2.5-2.3-3.8-5.2-3.7-8.6c0-1.6,0-3.2,0-4.7c0-3.6,1.8-6,5.1-7.2c3.3-1.1,6.6-1.1,9.8,0.1
		c3,1.1,4.7,3.3,4.8,6.5c0.1,2.2,0,4.4,0.1,6.6c0,0.5-0.2,0.7-0.7,0.7c-2.3,0-4.6,0-6.8,0c-0.6,0-0.8-0.2-0.8-0.8c0-1.7,0-3.5,0-5.2
		c0-0.3,0-0.6-0.1-0.9c-0.1-0.8-0.7-1.3-1.5-1.3c-0.8,0-1.5,0.5-1.5,1.4c-0.1,1.5-0.1,3.1,0,4.6c0.2,1.5,0.9,2.7,1.9,3.7
		c1.8,1.8,3.5,3.5,5.3,5.2C24.2,59.3,25.7,62.5,25.4,66.6z"/>
	<path class="st1" d="M144.3,50.2c0-0.6-0.1-1.3-0.2-1.9c-1-4.1-5.4-5.8-8.6-3.3c-0.6,0.5-1.1,1-1.6,1.8c0-0.4-0.1-0.5-0.1-0.7
		c0-3.3,0-6.7,0-10c0-0.6-0.2-0.8-0.8-0.8c-1.9,0-3.7,0.1-5.6,0c-0.9,0-1.1,0.2-1.1,1.1c0,13.4,0,26.7,0,40.1c0,0.7,0,1.5,0,2.2
		c0,0.5,0.2,0.7,0.7,0.7c1.5,0,3,0,4.5,0c2.2,0,2.2,0,2.3-2.2c0,0,0.1-0.1,0.2-0.2c0.1,0.1,0.2,0.2,0.2,0.3c2.3,3.4,7,3.2,9.1-0.3
		c0.7-1.2,1-2.6,1-4C144.3,65.4,144.3,57.8,144.3,50.2z M136.8,58v13c0,0.4,0,0.7-0.1,1.1c-0.1,0.8-0.7,1.2-1.5,1.2
		c-0.8,0-1.4-0.4-1.5-1.2c0-0.2,0-0.5,0-0.7c0-6.4,0-12.9,0-19.3c0-0.8,0.1-1.5,1-1.8c1.1-0.4,2,0.3,2,1.6
		C136.9,53.9,136.8,55.9,136.8,58z"/>
	<path class="st1" d="M65.1,78.2c0,0.9-0.2,1.1-1.1,1.1c-1.8-0.1-3.6-0.1-5.4,0c-0.8,0-1.1-0.2-1-1c0-8.4,0-16.9,0-25.3
		c0-0.4,0-0.7,0-1.1c-0.1-0.8-0.7-1.4-1.5-1.4c-0.8,0.1-1.4,0.5-1.5,1.3c0,0.4,0,0.7,0,1.1c0,8.4,0,16.9,0,25.3c0,0.8-0.2,1.1-1,1.1
		c-1.8-0.1-3.7,0-5.5,0c-0.6,0-0.9-0.1-0.9-0.8c0-14.1,0-28.2,0-42.3c0-0.7,0.2-0.9,0.9-0.9c1.9,0,3.8,0,5.7,0c0.7,0,1,0.2,1,0.9
		c0,3.1,0,6.2,0,9.3v1.2c1.5-1.9,3.1-3,5.2-2.9c2.6,0.1,4.7,2,5.1,4.7c0.1,0.7,0.2,1.4,0.2,2.1C65,59.8,65,69,65.1,78.2z"/>
	<path class="st1" d="M94.1,78.6c0,0.7-0.2,0.8-0.8,0.7c-1.9,0-3.7,0-5.6,0c-0.6,0-0.9-0.1-0.9-0.8c0-0.5-0.1-1-0.2-1.8
		c-1.1,1.5-2.2,2.5-3.8,2.8c-3.3,0.7-6.3-1.6-6.7-5.1c0-0.5-0.1-1-0.1-1.5c0-9.2,0-18.5,0-27.7c0-0.9,0.2-1.1,1.1-1.1
		c1.8,0.1,3.6,0.1,5.5,0c0.8,0,0.9,0.2,0.9,1c0,8.6,0,17.2,0,25.8c0,1.7,0.5,2.4,1.6,2.4c1.1,0,1.6-0.7,1.6-2.4c0-8.5,0-17,0-25.5
		c0-1,0.3-1.2,1.3-1.2c1.8,0.1,3.6,0,5.5,0c0.6,0,0.7,0.2,0.7,0.7C94.1,56.1,94.1,67.4,94.1,78.6z"/>
	<path class="st1" d="M164.1,66c0-0.6-0.3-0.6-0.8-0.6c-1.9,0-3.9,0-5.9,0c-0.7,0-0.9,0.2-0.9,0.9c0,2,0,4,0,5.9
		c0,0.6-0.2,1.2-0.7,1.5c-1.1,0.6-2.3-0.1-2.3-1.4c0-2.9,0-5.7,0-8.6c0-0.6,0.3-0.7,0.8-0.7c3,0,6,0,8.9,0c0.5,0,0.9,0,0.9-0.7
		c0-3.6,0-7.3,0-10.9c-0.1-3.6-2.1-6.1-5.6-7.2c-1-0.3-2.1-0.5-3.2-0.5c-4.8,0-9.4,2.4-9.2,8.8c0.1,3,0,6.1,0,9.1
		c0,3.4,0,6.7,0,10.1c0,3.6,2,6.2,5.5,7.3c2.3,0.7,4.7,0.7,7,0c3.2-1.1,5.2-3.3,5.4-6.7C164.2,70.3,164.1,68.2,164.1,66z
		 M153.6,51.2c0-1,0.6-1.6,1.5-1.6c0.9,0,1.5,0.6,1.5,1.6c0,1,0,2,0,3.1c0,0,0,0,0,0c0,1,0.1,1.9,0,2.9c-0.2,1.3-1.3,0.4-2,0.6
		c-0.4,0.1-1.1,0.3-1.1-0.6C153.6,55.1,153.6,53.1,153.6,51.2z"/>
	<path class="st1" d="M223.5,65.9c0-0.6-0.4-0.5-0.7-0.5c-2,0-3.9,0-5.9,0c-0.7,0-0.9,0.2-0.9,0.9c0,2,0,3.9,0,5.8
		c0,0.6-0.1,1.2-0.7,1.6c-1.1,0.7-2.3-0.1-2.3-1.5c0-2.8,0-5.5,0-8.3c0-0.8,0.3-0.9,1-0.9c2.9,0,5.8,0,8.7,0c0.7,0,0.9-0.2,0.9-0.9
		c0-1.8,0-3.6,0-5.4c0,0,0,0,0,0c0-1.8,0.1-3.6,0-5.3c-0.1-3.1-1.6-5.3-4.4-6.6c-2-1-4.2-1.1-6.4-0.8c-4.3,0.5-7.1,3.5-7.2,7.7
		c-0.1,6.8,0,13.5,0,20.3c0,2.9,1.3,5.2,3.9,6.6c2.3,1.2,4.7,1.4,7.2,1c3.7-0.7,6.2-3,6.7-6.4C223.7,70.7,223.4,68.3,223.5,65.9z
		 M213,54c0-1,0-1.9,0-2.9c0-1,0.6-1.6,1.5-1.6c0.9,0,1.5,0.5,1.5,1.5c0.1,2,0.2,4,0,6c-0.1,1.4-1.4,0.4-2.2,0.6
		c-0.4,0.1-0.9,0.1-0.9-0.6C213,56.1,213,55,213,54z"/>
	<path class="st1" d="M45.1,73.1c-0.4,3-2.2,5-5,6c-2.8,1-5.7,1-8.4-0.2c-2.7-1.2-4.3-3.3-4.4-6.3c-0.1-4.1-0.1-8.2-0.1-12.4
		c0-2.6,0-5.3,0-7.9c0-4.5,2.3-7.3,6.7-8.2c2.6-0.5,5.1-0.2,7.5,1.1c2.3,1.3,3.6,3.4,3.7,6c0.1,1.9,0,3.8,0.1,5.6
		c0,0.6-0.2,0.7-0.7,0.6c-2,0-4,0-6.1,0c-0.6,0-0.7-0.2-0.7-0.7c0-1.8,0-3.6,0-5.4c0-0.8-0.2-1.4-1.1-1.7c-1.1-0.4-2,0.4-2,1.7
		c0,3.5,0,7,0,10.5c0,3.4,0,6.8,0,10.2c0,0.6,0.1,1.2,0.6,1.6c0.5,0.4,1,0.4,1.6,0.2c0.7-0.3,0.9-0.9,0.9-1.5c0-1.9,0-3.8,0-5.6
		c0-1.4-0.2-1.2,1.3-1.2c1.8,0,3.6,0,5.5,0c0.3,0,0.7-0.1,0.7,0.4C45.2,68.3,45.4,70.7,45.1,73.1z"/>
	<path class="st1" d="M243.3,62.2c0,0.6-0.1,0.9-0.8,0.9c-2,0-3.9,0-5.9,0c-0.7,0-0.8-0.2-0.8-0.8c0-3.4,0-6.9,0-10.3
		c0-1.2-0.7-1.8-1.8-1.7c-0.7,0.1-1.1,0.5-1.2,1.1c-0.1,0.4-0.1,0.9-0.1,1.3c0,8.5,0,17.1,0,25.6c0,0.8-0.2,1.1-1,1
		c-1.9-0.1-3.8,0-5.6,0c-0.6,0-0.8-0.1-0.8-0.7c0-11.2,0-22.4,0-33.6c0-0.6,0.2-0.7,0.7-0.7c1.9,0,3.8,0,5.8,0
		c0.7,0,0.9,0.2,0.9,0.9c0,0.5,0,1,0.1,1.7c1.2-1.5,2.4-2.5,4-2.8c3-0.7,5.8,1.2,6.4,4.4c0.1,0.5,0.2,1.1,0.2,1.7
		C243.3,54,243.3,58.1,243.3,62.2z"/>
	<path class="st1" d="M184,62.4c0,0.5-0.2,0.6-0.6,0.6c-2.1,0-4.2,0-6.2,0c-0.7,0-0.6-0.4-0.6-0.8v-9.9c0-1.4-0.5-2.1-1.5-2.1
		c-1.1,0-1.6,0.6-1.6,2.1v25.4c0,1.5,0,1.5-1.6,1.5c-1.7,0-3.4,0-5,0c-0.6,0-0.8-0.1-0.8-0.8c0-11.2,0-22.4,0-33.6
		c0-0.7,0.3-0.7,0.8-0.7c1.9,0,3.8,0,5.7,0c0.7,0,0.9,0.2,0.9,0.9c0,0.5-0.1,1,0.2,1.5c0.4-0.4,0.7-0.8,1-1.1
		c1.6-1.5,3.5-2.2,5.7-1.4c2.2,0.8,3.4,2.5,3.6,4.8c0.3,3.3,0.1,6.7,0.1,10C184,60.1,183.9,61.2,184,62.4z"/>
	<path class="st1" d="M74.3,78.2c0,0.9-0.2,1.1-1.1,1.1c-1.8-0.1-3.6-0.1-5.5,0c-0.8,0-0.9-0.2-0.9-1c0-7,0-14,0-21.1s0-14,0-21.1
		c0-0.8,0.2-1,1-1c1.9,0.1,3.7,0.1,5.6,0c0.8,0,0.9,0.2,0.9,0.9c0,5.8,0,11.5,0,17.3C74.3,61.7,74.3,70,74.3,78.2z"/>
</g>
</svg>
