<?xml version="1.0" encoding="utf-8"?>
<!-- Generator: Adobe Illustrator 26.0.3, SVG Export Plug-In . SVG Version: 6.00 Build 0)  -->
<svg version="1.1" id="Calque_1" xmlns="http://www.w3.org/2000/svg" xmlns:xlink="http://www.w3.org/1999/xlink" x="0px" y="0px"
	 viewBox="0 0 248.7 123.9" style="enable-background:new 0 0 248.7 123.9;" xml:space="preserve">
<style type="text/css">
	.st0{fill:#233977;}
	.st1{fill:#80BA27;}
</style>
<g>
	<g>
		<path class="st0" d="M59.1,79.6h5.3v-5.3c-2.6-0.3-5.3,0.4-5.3,3.4V79.6z"/>
		<path class="st0" d="M52.3,81.1c-5.5,0.2-8.5,1.9-8.5,7.6v13.9h5.3V88.8c0-2.6,1-3.1,3.1-3.1c1.3-0.2,1.7,0.2,2.9-0.4
			c1-0.6,1.5-1.9,1.5-3.8C55.2,81.1,54,81,52.3,81.1"/>
		<path class="st0" d="M24.1,85.7v-7.6H31c3.1,0,3.8,1,3.8,3.8c0,2.8-0.9,4-3.8,4L24.1,85.7L24.1,85.7z M41,94.4
			c0-4.7-2.1-6.3-4.7-6.9c2.2-1,3.8-2.3,3.8-6.3c0-5.5-2.6-7.6-8.2-7.6H18.5v29.2h14.1C37.9,102.7,41,100.7,41,94.4 M24,90.1h7.8
			c2.9,0,3.8,1.2,3.8,4c0,2.8-0.9,4.1-3.8,4.1h-7.7C24.1,98.2,24.1,90.1,24,90.1z"/>
		<path class="st0" d="M86.9,79.6h5.3v-5.3c-2.6-0.3-5.3,0.4-5.3,3.4V79.6z"/>
		<rect x="86.9" y="81.3" class="st0" width="5.5" height="21.3"/>
		<path class="st0" d="M129.6,81.1c-2.8,0-6.5,1.5-8.7,2.3V72.8c-2.6-0.3-5.3,0.4-5.3,3.4v26.4h5.3V87.8c2.3-0.9,5.1-1.7,7-1.7
			c1.6,0,2.5,1,2.5,2.3v14.2h5.3V88.1C135.7,83.6,134.1,81.1,129.6,81.1"/>
		<rect x="59.1" y="81.3" class="st0" width="5.3" height="21.3"/>
		<path class="st0" d="M76.4,85.5h3.6c2.8,0,3.8-1.3,3.5-4.2h-7.4v-7C73.7,74,71,74.7,71,77.7v3.8h-4v4.2h4v9.7
			c0,5.3,2.2,7.6,7.8,7.6c1.7,0,3.1-0.2,4.6-0.3l-0.2-4.2c-1,0.2-2.5,0.2-3.6,0.2c-2.1,0-3.1-0.7-3.1-2.9
			C76.4,95.8,76.4,85.5,76.4,85.5z"/>
		<path class="st0" d="M100.3,87.4c0-1.3,1-1.7,2.3-1.7c2.2,0,4.2,0.2,5.5,0.2c2.3,0.2,3.5-1.2,3.4-4c-1.6-0.2-5.3-0.4-8.4-0.4
			c-4.7,0-8.2,1.7-8.2,6.1s2.6,5.9,7.4,6.6c4.2,0.7,5.1,1,5.1,2.5c0,1.7-2.1,2.1-4,2.1c-2.8,0-5.9-0.2-7.8-0.3l-0.3,4.4
			c2.1,0.2,5,0.3,8.2,0.3c5.5,0,8.9-1.7,8.9-6.3c0-4.6-2.3-5.7-6.9-6.6C101.7,89.3,100.3,88.9,100.3,87.4"/>
		<path class="st0" d="M171.5,85.9h-11c-0.3,3.2,0.7,4.6,3.5,4.6h1.9v7.4c-1.5,0.3-5,0.4-6.5,0.4c-4.4,0-6-1.7-6-10.3
			s1.3-10.3,8.2-9.9l4.7,0.3c3.1,0.2,4.2-1.5,4.2-4.2c-2.2-0.3-7.8-1-10.1-1c-10,0-12.7,2.9-12.7,14.6s3.2,15,11.6,15
			c3.1,0,9.1-0.7,12.2-1.3L171.5,85.9L171.5,85.9z"/>
		<path class="st0" d="M201.9,87.4c0-1.3,1-1.7,2.3-1.7c2.2,0,4.2,0.2,5.5,0.2c2.3,0.2,3.5-1.2,3.5-4c-1.6-0.2-5.3-0.4-8.4-0.4
			c-4.7,0-8.2,1.7-8.2,6.1s2.6,5.9,7.4,6.6c4.2,0.7,5.1,1,5.1,2.5c0,1.7-2.1,2.1-4,2.1c-2.8,0-5.9-0.2-7.8-0.3l-0.3,4.4
			c2.1,0.2,5,0.3,8.2,0.3c5.5,0,8.9-1.7,8.9-6.3c0-4.6-2.3-5.7-6.9-6.6C203.2,89.3,201.9,88.9,201.9,87.4"/>
		<path class="st0" d="M193.8,88.1c0-4.4-1.9-6.8-7.4-6.8c-3.4,0-7.8,0.4-9.9,0.6c0,2.6,0.7,4,3.1,4c1.6,0,4.7-0.2,6.5-0.2
			c1.6,0,2.3,0.6,2.3,2.3v0.8c-2.3,0.2-4.6,0.4-6.6,0.7c-4.7,0.7-7.4,2.1-7.4,6.8c0,4.1,2.1,6.8,6.6,6.8c4.6,0,10-0.3,12.7-0.7V88.1
			L193.8,88.1z M188.4,98.8c-1.3,0.2-4.1,0.3-6.3,0.3s-2.5-1.5-2.5-2.6c0-1.9,0.9-2.5,3.1-2.9c1.7-0.3,3.6-0.6,5.7-0.7V98.8
			L188.4,98.8z"/>
	</g>
	<path class="st0" d="M230.2,20.9l-32.5,10.6c0,0-7.2,2.5-11.2,5.9c-2.5,2.1-4.1,4.8-4.8,7.9c2.8-1.5,5.5-2.5,5.5-2.5l26.1-8.5
		c0,0,1,19.8-10.6,28.6c3.4-0.7,7.4-2.1,11.8-4.7C231.6,48.5,230.2,20.9,230.2,20.9L230.2,20.9L230.2,20.9z"/>
	<path class="st1" d="M197.6,63.3L197.6,63.3c-8.9,0-16.3-6.6-16.3-14.8c0-1,0.2-2.2,0.3-3.2c-1.2,0.6-2.3,1.5-3.4,2.2
		c-2.6,2.2-4.1,5.5-4.1,8.9c0,6.6,5.9,11.9,13.1,11.9l0,0c3.5,0.2,7.9-0.9,13.5-4.1c0.7-0.4,1.3-0.9,2.1-1.3
		C200.8,63.3,199.1,63.3,197.6,63.3L197.6,63.3z"/>
</g>
</svg>
