<?xml version="1.0" encoding="utf-8"?>
<!-- Generator: Adobe Illustrator 26.0.3, SVG Export Plug-In . SVG Version: 6.00 Build 0)  -->
<svg version="1.1" id="Calque_1" xmlns="http://www.w3.org/2000/svg" xmlns:xlink="http://www.w3.org/1999/xlink" x="0px" y="0px"
	 viewBox="0 0 248.7 123.9" style="enable-background:new 0 0 248.7 123.9;" xml:space="preserve">
<style type="text/css">
	.st0{fill:#243E8F;}
	.st1{fill:#243E90;}
	.st2{fill:#253E90;}
	.st3{fill:#253F90;}
	.st4{fill:#FECC05;}
</style>
<g>
	<path class="st0" d="M83,39.6C83,55,83,70.5,83,86c0,0.5-0.1,0.5-0.7,0.5c-11.6,0-23.3,0-34.8,0H12.6c-0.7,0-0.7,0.1-0.7-0.5
		c0-15.4,0-30.9,0-46.3c0-0.5,0.1-0.7,0.7-0.7c23.3,0,46.6,0,69.9,0C82.8,39.1,83,39.2,83,39.6z"/>
	<path class="st0" d="M173.1,85.8c-0.4-0.3-0.8-0.7-1.2-0.9c-0.3-0.1-0.3-0.3,0-0.4c0.8-0.9,1.3-2,1.4-3.1c0-0.3,0.1-0.5-0.3-0.7
		c-0.7-0.1-0.9,0-0.9,0.4c-0.1,0.9-0.5,1.7-1.2,2.5c-0.1,0.3-0.3,0.3-0.4,0c-0.5-0.5-1-1-1.4-1.7c-0.4-0.5-0.4-0.5,0.1-0.9
		c0.1-0.1,0.3-0.1,0.4-0.3c0.9-0.8,1-2.1,0.4-2.9c-0.8-0.8-2.4-0.8-3.1,0c-0.7,0.7-0.8,1.7-0.1,2.6c0.3,0.4,0.1,0.5-0.1,0.7
		c-0.9,0.7-1.6,1.4-1.6,2.5c0,1.3,0.5,2.2,1.7,2.5c1.3,0.4,2.6,0.1,3.8-0.5c0.3-0.1,0.4-0.1,0.7,0c0.5,0.4,1,0.8,1.6,1
		c0.5,0.3,0.7-0.1,0.8-0.4C173.4,86.2,173.4,86,173.1,85.8z M167.9,78.6c0.3-0.1,0.7,0,0.8,0.3c0.3,0.3,0.3,0.7,0,0.9c0,0,0,0,0,0.1
		c-0.3,0.3-0.5,0.7-0.8,0.5c-0.4-0.1-0.4-0.7-0.5-0.9C167.5,79,167.6,78.6,167.9,78.6z M169.2,84.9c-0.5,0.3-1,0.4-1.6,0.4
		c-0.7,0-1.2-0.1-1.4-0.8c-0.3-0.7-0.1-1.3,0.4-1.8l0.1-0.1c0.7-0.5,0.7-0.5,1,0.1c0.5,0.7,1,1.3,1.6,1.8
		C169.6,84.6,169.5,84.7,169.2,84.9z"/>
	<path class="st0" d="M115.3,85.8c-0.4-0.9-0.9-2-1.4-2.9c-0.1-0.3-0.1-0.4,0.1-0.5c1-0.5,1.4-1.7,1.2-2.9c-0.3-1-0.9-1.7-2-1.8
		c-1.2-0.1-2.4,0-3.5-0.1c-0.3,0-0.4,0.3-0.4,0.5v7.3c0,1,0,1,1,1c0.4,0,0.4-0.1,0.4-0.4c0-0.8,0-1.6,0-2.4s0-0.8,0.8-0.8
		c0.4,0,0.7,0.1,0.8,0.5c0.3,0.7,0.7,1.3,0.9,2c0.7,1.3,0.3,1,1.7,1C115.4,86.3,115.5,86.2,115.3,85.8z M112.3,81.5
		c-0.5,0-1,0.1-1.4,0c-0.3-0.3,0-0.8-0.1-1.3c0-0.1,0-0.3,0-0.4c0-0.9,0-0.9,0.9-0.9h0.5c0.9,0,1.3,0.4,1.3,1.2
		C113.7,80.9,113.2,81.5,112.3,81.5z"/>
	<path class="st0" d="M224.9,65.9c0-0.4-0.1-0.7-0.5-0.8c-0.9-0.3-1.7-0.3-2.6-0.3c-1.4,0-2.2,0.8-2.5,2c-0.1,0.9-0.1,1.7,0,2.6
		c0.3,1.4,1,2.1,2.5,2.1c0.5,0,0.9-0.1,1.4-0.3c0.1,0,0.3-0.1,0.3,0.1c0.1,0.5-0.3,1.3-0.8,1.3c-0.8,0.1-1.6,0-2.2,0
		c-0.4,0-0.5,0-0.7,0.4c0,0.4-0.1,0.7,0.4,0.8c1,0.3,2.1,0.4,3,0.1c1.2-0.3,1.7-0.8,1.7-2.1c0-1,0-2,0-3l0,0
		C224.9,67.8,224.9,66.9,224.9,65.9z M223.5,68.2c0,0.5,0,1,0,1.6c0,0.3-0.1,0.4-0.4,0.4c-0.4,0.1-0.9,0.1-1.3,0.1
		c-0.5,0-0.8-0.3-0.9-0.8c-0.3-0.8-0.3-1.7,0-2.5c0.1-0.5,0.5-0.8,1-0.8c1.6-0.1,1.6-0.1,1.6,1.4V68.2z"/>
	<path class="st1" d="M95.5,56.2c0,0.4-0.1,0.5-0.5,0.5c-1.2,0-1,0.1-1-1c0-0.8,0-1.7,0-2.5c0-0.3,0-0.4-0.4-0.4c-0.8,0-1.7,0-2.5,0
		c-0.4,0-0.4,0.1-0.4,0.4c0,1,0,2,0,3c0,0.4-0.1,0.5-0.5,0.5c-1.2,0-1,0.1-1-1s0-2.4,0-3.4c0-1.3,0-2.6,0-3.9c0-0.4,0.1-0.5,0.5-0.5
		c1.3,0,1-0.3,1,1c0,0.7,0,1.3,0,2.1c0,0.3,0.1,0.4,0.4,0.4c0.8,0,1.6,0,2.5,0c0.4,0,0.4-0.1,0.4-0.4c0-0.9,0-1.7,0-2.6
		c0-0.4,0.1-0.5,0.5-0.5c1,0,1,0,1,1C95.5,51.4,95.5,53.8,95.5,56.2z"/>
	<path class="st0" d="M150,51.6c0-0.9-0.1-1.7-0.7-2.5c-0.8-1.3-2.1-1.3-3.4-1.2s-2,1-2.4,2.2c-0.4,1.4-0.4,3,0,4.6
		c0.4,1.4,1.3,2.2,2.7,2.2c1.7,0.1,2.9-0.5,3.4-2c0.3-0.8,0.4-1.7,0.4-2.6C150.1,52,150.1,51.8,150,51.6z M148.3,54.2
		c-0.3,0.9-0.8,1.3-1.7,1.2c-0.8,0-1.3-0.4-1.4-1.3c-0.3-1.3-0.3-2.5,0-3.8c0.3-0.9,0.8-1.3,1.6-1.3c0.9,0,1.4,0.4,1.7,1.3
		c0,0.1,0,0.3,0,0.3c0,0.5,0.1,1,0.1,1.4C148.5,52.9,148.4,53.6,148.3,54.2z"/>
	<path class="st0" d="M165.1,50.3c-0.4-1.6-1.3-2.5-2.9-2.5c-1.8,0-2.9,0.7-3.4,2.4c-0.3,0.8-0.3,1.4-0.3,2.1c0,0.7,0,1.3,0.1,1.8
		c0.3,1.6,1.3,2.6,2.7,2.6c2,0.1,3-0.7,3.5-2.4C165.4,53.1,165.4,51.8,165.1,50.3z M163.4,54.4c-0.3,0.9-0.8,1.2-1.7,1.2
		c-0.8,0-1.3-0.4-1.4-1.3c-0.1-0.7-0.1-1.3-0.1-2.1c0-0.5,0-1.2,0.3-2c0.3-0.8,0.8-1.2,1.6-1.2c0.8,0,1.4,0.4,1.6,1.2
		C163.8,51.6,163.8,52.9,163.4,54.4z"/>
	<path class="st1" d="M153.1,63.8c0,1.6,0,3.3,0,5c0,2-1.4,3-3.4,3c-2.1,0-3.1-1.2-3.3-3.3c0-1.7,0-3.4,0-5.2c0-0.4,0.1-0.5,0.5-0.5
		c1.2,0,1-0.1,1,1c0,1.4,0,3,0,4.4c0,0.3,0,0.5,0.1,0.8c0.1,0.8,0.8,1.3,1.7,1.3c0.9,0,1.6-0.4,1.7-1.3c0.3-1,0-2.1,0.1-3
		c0-1.2,0-2,0-2.9c0-0.3,0.1-0.4,0.4-0.4C153.4,62.7,153.1,62.5,153.1,63.8z"/>
	<path class="st1" d="M207,62.1c-0.1,0-0.3,0-0.4,0c-0.4,0-0.7,0.1-0.5,0.5c0,0.8,0,1.6,0,2.4c-0.4-0.1-0.8-0.1-1.2-0.3
		c-1.4-0.3-2.5,0.3-2.9,1.4c-0.4,1.3-0.4,2.7,0,4.2c0.3,0.8,0.8,1.2,1.6,1.2c0.9,0.1,1.6-0.3,2.5-0.8c-0.1,0.7,0.1,0.8,0.7,0.7
		c0.1,0,0.3,0,0.3,0c0.4,0,0.5-0.1,0.5-0.5c0-2.7,0-5.5,0-8.2C207.7,62.2,207.5,62.1,207,62.1z M206.1,67.7c0,0.1,0,0.3,0,0.4v0.8
		c0,0.8,0,0.8-0.8,1.2c-1.4,0.5-2,0.3-2-1.3c0-0.7,0-1.2,0.1-1.8c0.1-0.5,0.4-0.8,0.9-0.8s1.2-0.1,1.6,0.3
		C206.4,66.7,206.1,67.3,206.1,67.7z"/>
	<path class="st0" d="M94.6,71.1c0,0.3,0,0.4-0.4,0.4c-1.6,0-3.1,0-4.7,0c-0.4,0-0.4-0.1-0.4-0.5c0-1.3,0-2.6,0-3.9
		c0-1.3,0-2.6,0-3.9c0-0.4,0.1-0.5,0.5-0.5c1.4,0,2.9,0,4.4,0c0.5,0,0.5,0.3,0.5,0.7c0,0.4,0.1,0.8-0.5,0.7c-1,0-2,0-3,0
		c-0.3,0-0.4,0.1-0.4,0.4c0,0.5,0,1,0,1.4c0,0.3,0.1,0.4,0.4,0.4c0.9,0,1.7,0,2.6,0c0.4,0,0.5,0.1,0.5,0.5c0,0.9,0.1,0.8-0.8,0.8
		c-0.8,0-1.6,0-2.2,0c-0.3,0-0.4,0-0.4,0.4c0,0.7,0,1.3,0,1.8c0,0.3,0.1,0.4,0.4,0.4c1,0,2,0,3,0c0.4,0,0.7,0.1,0.5,0.5
		C94.6,70.9,94.6,71,94.6,71.1z"/>
	<path class="st1" d="M120.4,66.8c-0.3-1.6-1.4-2.2-3-1.7c-0.4,0.1-0.8,0.4-1.2,0.5c0.1-0.7-0.3-0.7-0.8-0.7l0,0
		c-0.7,0-0.7,0-0.7,0.7c0,2.5,0,5,0,7.3c0,1.2-0.3,0.9,1,1c0.4,0,0.5-0.1,0.4-0.4c0-0.5,0-1.2,0-1.7c0-0.3,0-0.4,0.4-0.3
		c0.5,0.1,1,0.1,1.7,0.1c1.2,0,1.8-0.7,2.1-1.7C120.7,68.9,120.7,67.8,120.4,66.8z M119,69.4c-0.1,0.7-0.5,0.9-1,0.9
		c-1.4,0-1.6,0-1.6-1.4v-1.3c0-0.8,0-0.8,0.8-1.2h0.1c1.3-0.5,1.8-0.1,1.8,1.3C119.1,68.2,119.1,68.9,119,69.4z"/>
	<path class="st1" d="M142,55.9c0,0.1,0,0.3,0,0.4c0,0.4-0.1,0.5-0.5,0.5c-1.7,0-3.4,0-5.1,0c-0.4,0-0.5-0.1-0.5-0.5
		c0-0.5,0.1-0.9,0.5-1.3c1-1,2.2-2.1,3.3-3.1c0.3-0.3,0.5-0.7,0.7-1c0.3-0.9-0.1-1.4-1.2-1.6c-0.9,0-1.7,0-2.6,0.1
		c-0.3,0-0.5,0-0.5-0.3c0-0.4-0.3-0.8,0.3-0.9c1.3-0.4,2.6-0.5,3.9-0.1c1.3,0.3,1.8,1.3,1.6,2.7c-0.1,0.7-0.4,1.3-0.9,1.8
		c-0.9,0.9-1.8,1.8-2.7,2.6c0,0-0.1,0.1-0.3,0.3h1.8c0.5,0,1.2,0,1.7,0C141.9,55.4,142,55.5,142,55.9z"/>
	<path class="st1" d="M157.2,56.2c0,0.4,0,0.7-0.5,0.7c-1.7,0-3.4,0-5.1,0c-0.4,0-0.5-0.1-0.5-0.5c0-0.5,0.1-0.9,0.5-1.3
		c1.2-1,2.2-2.1,3.3-3.1c0.4-0.4,0.7-0.8,0.7-1.3c0-0.9-0.3-1.2-1.2-1.3c-0.9,0-1.7,0-2.5,0.1c-0.3,0-0.5,0-0.5-0.3
		s-0.4-0.8,0.3-0.9c1.4-0.4,2.9-0.5,4.2,0c1,0.4,1.6,1.4,1.3,2.9c-0.1,0.5-0.4,1-0.8,1.6c-0.9,0.9-1.8,1.8-2.7,2.7l-0.1,0.1v0.1
		c1.2,0,2.2,0,3.4,0C157.3,55.4,157.2,55.8,157.2,56.2z"/>
	<path class="st1" d="M159.8,84.5c0,0.4,0,0.9,0,1.3c0,0.3-0.1,0.4-0.4,0.4c-1,0-1,0-1-1s0.1-2.2,0-3.3c-0.1-0.8-0.5-1-1.3-0.8
		c-1.4,0.3-1.4,0.4-1.4,1.7c0,1,0,2,0,3c0,0.4-0.1,0.5-0.5,0.5c-0.9,0-0.9,0-0.9-1c0-2.6,0-5.2,0-7.9c0-0.4,0.1-0.5,0.5-0.5
		c1,0,0.9-0.1,0.9,0.9v2.5c0.9-0.4,1.7-0.8,2.5-0.7c0.9,0.1,1.4,0.5,1.6,1.4C159.9,82.2,159.8,83.4,159.8,84.5z"/>
	<path class="st1" d="M215,85.2c-0.3,0-0.4-0.3-0.4-0.5c0-0.5,0-1,0-1.4c0-0.7,0-1.3,0-2c-0.1-0.8-0.5-1.3-1.3-1.4
		c-1.2-0.3-2.4-0.1-3.5,0.1c-0.3,0.1-0.4,0.3-0.4,0.7c0.1,0.3,0.1,0.5,0.5,0.5c0.8-0.1,1.4-0.3,2.2-0.1c0.7,0.1,0.9,0.4,0.8,1
		c0,0.3-0.1,0.3-0.3,0.3c-0.5,0-1,0-1.6,0c-2.1,0-2.5,1.2-2.2,2.9c0.1,0.7,0.7,1,1.3,1.2c0.9,0.1,1.8-0.1,2.6-0.7
		c0.1,0,0.1-0.3,0.4,0c0.5,0.7,0.9,0.8,1.7,0.7c0.4-0.1,0.4-0.3,0.4-0.5C215.4,85.5,215.4,85.2,215,85.2z M213.2,84.3
		c0,0.1-0.1,0.3-0.1,0.3c-0.5,0.3-1,0.5-1.6,0.5c-0.4,0-0.8,0-0.9-0.5c-0.1-0.7,0.1-1,0.7-1.2c0.4-0.1,0.7,0,0.9,0h0.1
		C213.2,83.3,213.3,83.4,213.2,84.3z"/>
	<path class="st0" d="M134.4,70.5c-0.4,0-0.4-0.3-0.4-0.5v-1.7l0,0c0-0.5,0-1.2,0-1.7c0-0.9-0.5-1.3-1.3-1.6
		c-1.2-0.3-2.4-0.1-3.5,0.1c-0.4,0.1-0.4,0.3-0.3,0.7c0,0.3,0.1,0.5,0.5,0.4c0.7-0.1,1.3-0.1,2.1-0.1c0.8,0,1,0.3,1,1
		c0,0.3-0.1,0.4-0.4,0.4c-0.5,0-1,0-1.7,0c-1.2,0-2,0.7-2.1,1.6c0,0.4-0.1,0.8,0,1.2c0.1,0.8,0.7,1.3,1.4,1.3
		c0.9,0.1,1.7-0.1,2.5-0.7c0.1,0,0.1-0.3,0.4,0c0.4,0.7,1.2,0.8,1.8,0.5c0.3-0.1,0.3-0.4,0.3-0.7C134.8,70.6,134.7,70.5,134.4,70.5z
		 M131.9,70.1c-0.4,0.1-0.8,0.3-1.2,0.3c-0.5,0-0.8-0.1-0.9-0.5c-0.1-0.7,0.1-1.2,0.7-1.3c0.7-0.1,1.3-0.1,2,0c0.4,0,0,0.4,0.1,0.7
		C132.7,69.7,132.3,69.9,131.9,70.1z"/>
	<path class="st1" d="M142.1,85.2c-0.5,0-0.5-0.3-0.5-0.7c0-1,0-2.1,0-3.1c0-0.7-0.3-1.3-0.9-1.6c-1.3-0.5-2.6-0.3-3.9,0
		c-0.4,0.1-0.3,0.4-0.3,0.7s0.1,0.4,0.5,0.4c0.8,0,1.6-0.3,2.4,0c0.7,0.1,0.8,0.4,0.8,1c0,0.3-0.1,0.4-0.4,0.4c-0.5,0-1,0-1.6,0
		c-1.4,0-2.1,0.7-2.2,2c-0.1,1.4,0.7,2.2,2.1,2.1c0.8,0,1.4-0.4,2.1-0.8c0.4,0.8,1,0.9,1.8,0.7c0.4-0.1,0.3-0.3,0.3-0.5
		C142.4,85.5,142.5,85.2,142.1,85.2z M140.1,84.5c0,0.1-0.1,0.3-0.1,0.3c-0.5,0.3-1,0.5-1.7,0.5c-0.4,0-0.8,0-0.8-0.5
		c-0.1-0.7,0.1-1.2,0.5-1.3c0.4-0.1,0.8,0,1-0.1h0.1C140.1,83.3,140.3,83.4,140.1,84.5z"/>
	<path class="st0" d="M125,64.8c-1.7-0.1-3,0.5-3.3,2.4c-0.1,0.8-0.1,1.6,0,2.4c0.1,0.8,0.5,1.4,1.3,1.8c1.2,0.5,2.5,0.3,3.7,0
		c0.4-0.1,0.3-0.5,0.1-0.8c0-0.3-0.1-0.4-0.4-0.4c-0.7,0-1.3,0.1-2,0.1c-0.9,0-1.3-0.5-1.3-1.3c0-0.3,0-0.3,0.3-0.3c0.5,0,1,0,1.6,0
		h1.6c0.4,0,0.5-0.1,0.7-0.5C127.6,66.5,126.7,65.1,125,64.8z M125.5,67.6c-0.4,0-0.7,0-1,0h-0.7c-0.7,0-0.7,0-0.5-0.7
		c0.1-0.7,0.7-1,1.6-0.8c0.5,0.1,0.9,0.7,0.9,1.2C125.8,67.6,125.6,67.6,125.5,67.6z"/>
	<path class="st1" d="M177.6,71.1c0,0.3-0.1,0.4-0.4,0.4c-1.3,0-1.2,0.1-1.2-1c0-1,0-2,0-3c0-1-0.5-1.4-1.4-1
		c-1.2,0.4-1.2,0.4-1.2,1.6c0,1,0,2.1,0,3.1c0,0.4-0.1,0.5-0.5,0.5c-1.2,0-1,0.3-1-1c0-1.6,0-3.3,0-5c0-0.5,0.1-0.7,0.7-0.7
		c0.1,0,0.1,0,0.3,0c0.4,0,0.8,0,0.7,0.7c0.7-0.4,1.3-0.7,2-0.8c1.3-0.3,2.2,0.4,2.4,1.7C177.7,68.1,177.6,69.7,177.6,71.1z"/>
	<path class="st0" d="M119.5,79.6c-0.3,0-0.5,0-0.8,0c-1,0.1-1.7,0.7-2,1.6c-0.4,1-0.4,2.1-0.1,3.3c0.3,1,0.8,1.6,1.8,1.8
		c1,0.3,2.1,0.1,3-0.3c0.4-0.1,0.3-0.4,0.3-0.8c0-0.4-0.3-0.4-0.5-0.4c-0.5,0.1-1.2,0.1-1.8,0.1c-0.9,0-1.3-0.4-1.4-1.3
		c0-0.3,0-0.4,0.4-0.4c0.5,0,1,0,1.6,0h1.6c0.3,0,0.5-0.1,0.7-0.4C122.5,81.1,121.3,79.6,119.5,79.6z M120.3,82.4h-1.7
		c-0.7,0-0.7,0-0.5-0.7c0.1-0.7,0.7-1,1.4-0.9c0.7,0.1,1,0.7,1,1.3C120.5,82.4,120.4,82.4,120.3,82.4z"/>
	<path class="st0" d="M131.1,83.4h2.6c1.2,0,1.2-0.1,1.2-1.3l0,0c-0.1-1.3-0.8-2.2-2-2.5c-0.4-0.1-0.9-0.1-1.3,0
		c-1,0.1-1.8,0.8-2.1,1.8s-0.3,2.1,0,3.1c0.3,0.9,0.9,1.6,1.8,1.7c0.9,0.1,2,0,2.9-0.1c0.4-0.1,0.4-0.4,0.4-0.8
		c0-0.4-0.3-0.4-0.7-0.4c-0.7,0.1-1.3,0.1-2,0.1c-0.8-0.1-1.2-0.7-1.2-1.4C130.9,83.4,131,83.4,131.1,83.4z M132,80.8
		c0.9,0,1.4,0.4,1.4,1.3c0,0.3-0.1,0.3-0.3,0.3c-0.3,0-0.7,0-0.9,0H131c-0.1,0-0.3,0-0.3-0.3C130.7,81.5,131.3,80.9,132,80.8z"/>
	<path class="st1" d="M97.2,79.8c-0.5-0.1-1-0.1-1.6,0c-1,0.1-1.7,0.7-2,1.7c-0.3,0.9-0.3,1.8-0.1,2.7c0.3,1.6,0.9,2.1,2.5,2.4
		c0.4,0,0.8,0,1,0c1-0.1,1.7-0.7,2-1.7c0.1-0.5,0.1-1,0.1-1.6c0-0.3,0-0.4,0-0.7C99.2,80.8,98.5,80,97.2,79.8z M97.6,84.2
		c-0.3,0.7-0.5,0.8-1.3,0.8c-0.7,0-1-0.3-1.2-0.8c-0.3-0.8-0.3-1.7,0-2.5c0.1-0.7,0.5-0.8,1.3-0.8c0.7,0,1,0.3,1.2,0.9
		c0.1,0.4,0.1,0.8,0.1,1.2C97.8,83.4,97.8,83.8,97.6,84.2z"/>
	<path class="st0" d="M113.5,67.2c-0.3-1.6-0.9-2.1-2.4-2.4c-1.7-0.3-2.9,0.5-3.3,2.1c-0.1,0.4-0.1,0.9-0.1,1.3c0,0.1,0,0.4,0,0.7
		c0.1,1.6,0.8,2.4,2.1,2.6c0.7,0.1,1.2,0.1,1.7,0c0.9-0.3,1.4-0.8,1.7-1.6C113.6,69,113.6,68.1,113.5,67.2z M111.9,69.4
		c-0.1,0.7-0.7,0.9-1.3,0.9c-0.7,0-1.2-0.3-1.3-0.9c-0.1-0.8-0.1-1.6,0-2.4c0.1-0.7,0.5-0.9,1.2-0.9c0.8,0,1.2,0.3,1.3,0.9
		c0.1,0.4,0.1,0.8,0.1,1.2C112,68.6,112,69,111.9,69.4z"/>
	<path class="st1" d="M230,82c-0.1-1.3-0.8-2.1-2-2.4c-0.5-0.1-1-0.1-1.6,0c-1.2,0.1-1.8,0.8-2.1,1.8c-0.3,1-0.3,2.1,0,3.1
		c0.3,0.9,0.9,1.4,2,1.7c0.5,0.1,1,0.1,1.4,0c1-0.1,1.8-0.8,2.1-1.8c0.1-0.5,0.1-0.9,0.1-1.4C230,82.6,230,82.4,230,82z M228.5,84.2
		c-0.1,0.7-0.5,0.9-1.3,0.9c-0.7,0-1-0.3-1.3-0.8c-0.1-0.4-0.1-0.8-0.1-1.2c0-0.4,0-0.9,0.1-1.3c0.3-0.7,0.5-0.8,1.3-0.8
		c0.7,0,1,0.3,1.2,0.9C228.6,82.6,228.6,83.4,228.5,84.2z"/>
	<path class="st0" d="M201.4,81.8c-0.1-1.2-0.9-2.1-2.1-2.2c-0.5,0-1-0.1-1.4,0c-0.9,0.1-1.6,0.7-2,1.6c-0.3,0.8-0.3,1.6-0.3,2.5
		c0.1,1.8,0.9,2.6,2.7,2.7c1.7,0.1,2.9-0.8,3-2.6c0-0.3,0-0.7,0-0.9C201.5,82.6,201.5,82.2,201.4,81.8z M199.9,84.1
		c-0.1,0.8-0.5,1-1.3,1c-0.8,0-1-0.3-1.3-1c-0.1-0.8-0.1-1.4,0-2.2c0.1-0.7,0.5-0.9,1.2-0.9c0.8,0,1.2,0.3,1.3,0.9
		c0.1,0.4,0.1,0.8,0.1,1.2C199.9,83.4,199.9,83.7,199.9,84.1z"/>
	<path class="st1" d="M168.3,64.8c-1.8-0.3-3,0.7-3.3,2.4c-0.1,0.8-0.1,1.6,0,2.5c0.1,0.9,0.7,1.6,1.6,1.8c0.8,0.3,1.6,0.3,2.4,0
		s1.3-0.8,1.6-1.4c0.1-0.5,0.3-1.2,0.3-1.7c0-0.3,0-0.5,0-0.8C170.6,65.9,169.9,65.1,168.3,64.8z M169.1,69.3c-0.1,0.7-0.7,1-1.3,1
		s-1.2-0.4-1.3-1c0-0.4-0.1-0.7-0.1-1c0-0.3,0-0.5,0.1-0.8c0.1-1,0.5-1.3,1.6-1.3c0.7,0,1,0.4,1,1C169.2,67.8,169.2,68.6,169.1,69.3
		z"/>
	<path class="st0" d="M100.6,50.2c-0.4,0-0.9,0-1.3,0c-1,0.1-1.8,0.8-2.1,1.8c-0.3,1-0.3,2.2,0,3.3c0.3,0.8,0.8,1.3,1.7,1.6
		c0.5,0.1,0.9,0.1,1.4,0.1c1.4-0.1,2.1-0.8,2.4-2.2c0.1-0.4,0-0.8,0-1.2c0-0.3,0-0.5,0-0.8C102.7,51.2,101.9,50.3,100.6,50.2z
		 M101.3,54.4c-0.1,0.8-0.5,1.2-1.4,1.2c-0.8,0-1.2-0.4-1.3-1.2c-0.1-0.7-0.1-1.2,0-1.8c0.1-0.8,0.5-1.2,1.3-1.2s1.3,0.4,1.3,1.2
		c0,0.3,0,0.7,0.1,0.9C101.3,53.8,101.3,54.1,101.3,54.4z"/>
	<path class="st0" d="M123.8,52.5c-0.1-1.2-0.7-2-1.7-2.4c-0.7-0.3-1.3-0.3-2-0.1c-1,0.1-1.7,0.8-2,1.8c-0.3,1-0.3,2.1,0,3.1
		c0.3,0.9,0.8,1.4,1.7,1.7c0.5,0.1,0.9,0.1,1.3,0.1c1.3-0.1,2.1-0.8,2.4-2.1c0.1-0.4,0.1-0.8,0.1-1.3
		C123.8,53.2,123.8,52.9,123.8,52.5z M122.2,54.5c-0.1,0.8-0.5,1-1.3,1s-1.2-0.3-1.3-1c-0.1-0.8-0.1-1.6,0-2.4
		c0.1-0.7,0.7-0.9,1.3-0.8c0.7,0,1,0.3,1.2,0.9c0.1,0.4,0.1,0.8,0.1,1.2C122.4,53.8,122.4,54.1,122.2,54.5z"/>
	<path class="st1" d="M187.4,85.9V86c-0.4,0.3-0.8,0.1-1.3,0.1c-0.3,0-0.3-0.3-0.3-0.4v-3.5c0-0.1,0-0.4,0-0.5
		c-0.1-0.5-0.4-0.8-0.9-0.8s-1,0.3-1.6,0.5c-0.3,0.1-0.1,0.3-0.1,0.5c0,1.3,0,2.5,0,3.7c0,0.4-0.1,0.7-0.5,0.5c-0.9,0-0.9,0-0.9-0.9
		c0-1.7,0-3.3,0-5c0-0.5,0.1-0.7,0.5-0.7c0.1,0,0.1,0,0.3,0c0.4,0,0.8,0,0.7,0.7c0.9-0.5,1.7-0.8,2.6-0.8c0.9,0.1,1.4,0.5,1.6,1.4
		C187.5,82.8,187.4,84.3,187.4,85.9z"/>
	<path class="st1" d="M141.3,71.2c0,0.3-0.1,0.4-0.3,0.3l0,0c-1.3,0-1,0.3-1.2-1c0-1,0.1-2.2,0-3.3c-0.1-0.8-0.4-1-1.3-0.9
		c-1.4,0.3-1.4,0.4-1.4,1.8c0,0.9,0,2,0,2.9c0,0.4-0.1,0.5-0.5,0.5c-0.9,0-0.9,0-0.9-0.9c0-1.7,0-3.4,0-5.1c0-0.4,0.1-0.5,0.5-0.5
		c0.1,0,0.3,0,0.3,0c0.4-0.1,0.8,0.1,0.7,0.7c0.9-0.5,1.7-0.9,2.7-0.8c0.8,0.1,1.3,0.5,1.3,1.3C141.5,67.8,141.3,69.5,141.3,71.2z"
		/>
	<path class="st1" d="M200.6,71.2c0,0.1,0,0.3-0.3,0.3c-0.4,0-0.7,0-1,0c-0.3,0-0.3-0.3-0.3-0.5c0-1,0-2.1,0-3.3
		c0-0.3,0-0.5-0.1-0.8c-0.1-0.5-0.5-0.8-1-0.7c0,0,0,0-0.1,0c-1.4,0.3-1.6,0.4-1.6,1.8c0,1,0,2,0,2.9c0,0.4-0.1,0.5-0.5,0.5
		c-1,0-1,0-1-0.9c0-1.7,0-3.4,0-5.1c0-0.4,0.1-0.5,0.5-0.5c0.1,0,0.3,0,0.4,0c0.4,0,0.7,0,0.5,0.7c0.7-0.4,1.3-0.7,2-0.8
		c1.4-0.1,2.2,0.4,2.4,1.7C200.7,68.1,200.6,69.7,200.6,71.2z"/>
	<path class="st1" d="M101.7,71c0,0.4-0.1,0.7-0.5,0.5c-0.1,0-0.3,0-0.4,0c-0.4,0-0.7-0.1-0.5-0.7c-0.8,0.5-1.6,0.8-2.5,0.8
		c-1,0-1.7-0.7-1.7-1.7c0-1.6,0-3,0-4.6c0-0.3,0.1-0.4,0.4-0.4c1.2-0.1,1.2-0.1,1.2,1v3.1c0,0.9,0.4,1.3,1.4,1
		c1.2-0.3,1.3-0.4,1.3-1.7c0-1,0-2.1,0-3.1c0-0.4,0.1-0.5,0.4-0.4c1.2,0,1-0.1,1,0.9C101.7,67.6,101.5,69.3,101.7,71z"/>
	<path class="st0" d="M193.5,71c0,0.5-0.1,0.7-0.7,0.5c-0.1,0-0.3,0-0.3,0c-0.4,0-0.8,0-0.5-0.7c-0.8,0.5-1.6,0.8-2.4,0.8
		c-1.2,0-1.8-0.5-1.8-1.7c-0.1-1.6,0-3.1,0-4.7c0-0.1,0-0.3,0.3-0.3c0.4,0,0.7,0,1,0c0.3,0,0.3,0.3,0.3,0.4v3.3c0,1.6,0.5,1.8,2,1.3
		c0.1,0,0.1-0.1,0.3-0.1c0.5-0.1,0.7-0.4,0.7-0.9c0-1.2,0-2.4,0-3.5c0-0.4,0.1-0.5,0.5-0.5c1.3,0,1,0,1,1
		C193.5,67.6,193.5,69.3,193.5,71z"/>
	<path class="st1" d="M130.7,56.5c0,0.1,0,0.3-0.1,0.3c-0.4,0-0.8,0-1.2,0c-0.3,0-0.1-0.3-0.1-0.4c0-1.2,0-2.4,0-3.5
		c0-0.3,0-0.4,0-0.5c-0.1-0.7-0.5-0.9-1.2-0.8c-0.4,0.1-0.8,0.3-1.2,0.4c-0.3,0.1-0.4,0.3-0.4,0.5c0,1.3,0,2.5,0,3.8
		c0,0.4-0.1,0.5-0.5,0.5c-1,0-0.9,0.1-0.9-0.9c0-1.7,0-3.4,0-5.1c0-0.4,0.1-0.7,0.5-0.5c0.1,0,0.3,0,0.3,0c0.5,0,0.8,0.1,0.7,0.7
		c0.8-0.5,1.6-0.8,2.4-0.8c1,0,1.7,0.5,1.8,1.6C130.9,53.3,130.7,54.9,130.7,56.5z"/>
	<path class="st0" d="M160.4,71.1c0,0.3-0.1,0.4-0.4,0.4c-1,0-1,0-1-1v-3c0-1-0.5-1.4-1.6-1.2c-1.2,0.4-1.2,0.4-1.2,1.6
		c0,1,0,2.1,0,3.1c0,0.3-0.1,0.4-0.4,0.4c-1,0-1,0-1-1c0-1.7,0-3.3,0-5c0-0.4,0.1-0.5,0.5-0.5h0.3c0.5,0,0.9,0,0.7,0.7
		c0.7-0.4,1.2-0.7,1.8-0.8c1.4-0.3,2.4,0.4,2.4,1.8C160.4,68.2,160.4,69.7,160.4,71.1z"/>
	<path class="st0" d="M217.9,71.2c0,0.1,0,0.3-0.3,0.3c-0.4,0-0.7,0-1,0c-0.3,0-0.1-0.3-0.1-0.4c0-1.2,0-2.5,0-3.7
		c0-0.8-0.3-1-0.8-1.2c-0.7,0-1.3,0.3-1.8,0.5c-0.1,0.1-0.1,0.3-0.1,0.4c0,1.3,0,2.6,0,3.8c0,0.4-0.1,0.5-0.5,0.5
		c-0.9,0-0.9,0-0.9-1c0-1.7,0-3.4,0-5.1c0-0.4,0.1-0.5,0.5-0.5h0.3c0.4,0,0.8,0,0.7,0.7c0.7-0.4,1.3-0.7,2-0.8
		c1.3-0.3,2.2,0.4,2.2,1.7C218,68.1,217.9,69.7,217.9,71.2z"/>
	<path class="st0" d="M183.6,64.3c0,0.5,0,1.2,0,1.7c0,0.3,0.1,0.3,0.3,0.3c0.9,0,1.7,0,2.6,0c0.5,0,0.7,0.3,0.7,0.7
		c0,0.4-0.1,0.7-0.7,0.7c-0.8,0-1.6,0-2.5,0c-0.4,0-0.5,0.1-0.5,0.5c0,1,0,2.1,0,3c0,0.5-0.1,0.7-0.7,0.7c-0.7,0-0.8,0-0.8-0.5
		c0-1.3,0-2.6,0-4.1c0-1.3,0-2.6,0-3.9c0-0.4,0.1-0.7,0.7-0.7c1.3,0,2.7,0,4.1,0c0.5,0,0.7,0.3,0.7,0.7c0,0.7-0.1,0.7-0.7,0.7
		c-1,0-2,0-2.9,0C183.6,63.8,183.6,63.9,183.6,64.3z"/>
	<path class="st1" d="M237,84.1c0,0.5,0,1.2,0,1.7c0,0.3-0.1,0.4-0.4,0.4c-1.2,0-1.2,0-1.2-1s0-2,0-3c0-1-0.5-1.4-1.6-1.2
		c-1.2,0.4-1.2,0.4-1.2,1.6c0,1,0,2.1,0,3.1c0,0.3-0.1,0.4-0.4,0.4c-1.3,0-1,0.1-1-1c0-1.6,0-3.3,0-4.8c0-0.7,0-0.7,0.7-0.7h0.1
		c0.7,0,0.7,0,0.7,0.7c0.8-0.5,1.6-0.8,2.6-0.8c0.9,0.1,1.3,0.5,1.4,1.4C237.1,82.1,237,83.2,237,84.1z"/>
	<path class="st0" d="M194.5,85.9c0,0.3-0.1,0.4-0.4,0.4c-1.2,0.1-1.2,0.1-1.2-1c0-0.9,0-2,0-2.9c0-1.2-0.5-1.6-1.6-1.2
		c-1.2,0.4-1.2,0.4-1.2,1.6c0,1,0,2.1,0,3.1c0,0.4-0.1,0.5-0.5,0.5c-1,0-1,0-1-0.9c0-1.7,0-3.4,0-5.1c0-0.4,0.1-0.5,0.5-0.5h0.3
		c0.4,0,0.8,0,0.7,0.7c0.7-0.4,1.3-0.7,2-0.8c1.4-0.1,2.2,0.5,2.2,2C194.5,83,194.5,84.5,194.5,85.9z"/>
	<path class="st1" d="M93.7,77.8c0,0.4-0.3,0.4-0.5,0.4c-0.4,0-0.8-0.1-1-0.1c-0.8,0-1.3,0.7-1,1.4c0,0.1,0.1,0.1,0.3,0.1
		c0.4,0,0.8,0,1.2,0c0.3,0,0.4,0.1,0.4,0.4c0,0.1,0,0.3,0,0.5s-0.1,0.3-0.4,0.3s-0.5,0-0.7,0c-0.8,0-0.8,0-0.8,0.8
		c0,1.3,0,2.6,0,4.1c0,0.4-0.1,0.5-0.5,0.5c-0.9,0-0.9,0-0.9-0.9v-1.8c0-0.8,0-1.4,0-2.2c0-0.3-0.1-0.4-0.4-0.4
		c-0.4,0.1-0.5-0.1-0.5-0.5s0-0.8,0.5-0.7c0.3,0,0.4-0.1,0.4-0.4c-0.3-2.4,1.6-2.9,3.7-2.4C93.8,77.1,93.8,77.1,93.7,77.8z"/>
	<path class="st1" d="M128.1,84.3c0,1-0.7,1.7-1.8,2c-0.9,0.1-1.8,0.1-2.7-0.1c-0.4-0.1-0.4-0.4-0.4-0.8c0.1-0.4,0.3-0.4,0.7-0.4
		c0.7,0.1,1.3,0.1,2,0.1s0.9-0.4,0.9-0.9c0-0.3-0.1-0.5-0.5-0.5c-0.4-0.1-0.9-0.1-1.4-0.3c-1.2-0.3-1.6-0.8-1.6-1.8s0.7-1.7,1.6-1.8
		c0.3-0.1,0.7-0.1,0.8-0.1c0.7,0,1.3,0.1,2,0.3c0.4,0.1,0.4,0.4,0.3,0.8c-0.1,0.4-0.3,0.4-0.5,0.4c-0.5,0-1-0.1-1.6-0.1
		c-0.3,0-0.4,0-0.7,0c-0.4,0.1-0.5,0.3-0.5,0.7c0,0.3,0.1,0.5,0.4,0.7c0.4,0.1,0.9,0.1,1.3,0.3C127.7,82.6,128.2,83.2,128.1,84.3z"
		/>
	<path class="st1" d="M117.1,55.9c0,0.8,0,0.8-0.8,0.8c-1.3,0-2.6,0-3.9,0c-0.4,0-0.5-0.1-0.5-0.4c0-0.4,0.1-0.8,0.4-1.2
		c0.9-1.2,1.8-2.4,2.9-3.5c-0.1-0.1-0.3-0.1-0.4-0.1c-0.7,0-1.4,0-2.1,0c-0.5,0-0.7-0.1-0.7-0.7c0-0.7,0-0.7,0.7-0.7
		c1.3,0,2.5,0,3.8,0c0.4,0,0.5,0.1,0.5,0.5s-0.1,0.8-0.4,1.2c-0.9,1-1.7,2.2-2.6,3.3c0,0.1-0.1,0.1-0.3,0.4c1,0,1.8,0,2.7,0
		C117,55.5,117.1,55.5,117.1,55.9z"/>
	<path class="st1" d="M219.6,86.3c-0.5,0.1-0.9,0.1-1.4,0.1c-0.8-0.1-1.2-0.5-1.2-1.3c0-0.1,0-0.1,0-0.3v-1.7l0,0c0-0.7,0-1.2,0-1.8
		c0-0.3,0-0.4-0.4-0.4c-0.5,0.1-0.7-0.1-0.7-0.5s0.1-0.7,0.7-0.7c0.3,0,0.4,0,0.4-0.4c0-0.1,0-0.1,0-0.3c0-1.2-0.3-0.9,1-1.3
		c0.4-0.1,0.5,0,0.5,0.4c0,0.4,0,0.8,0,1.2c0,0.3,0,0.4,0.4,0.4c0.3,0,0.4,0,0.7,0c0.7,0,0.9,0.5,0.7,1c-0.1,0.1-0.3,0.1-0.3,0.1
		c-0.4,0-0.7,0-1,0c-0.3,0-0.3,0.1-0.3,0.3c0,1,0,2.1,0,3.1c0,0.4,0.3,0.5,0.5,0.5c0.4,0,0.7,0,1,0c0.3,0,0.4,0,0.4,0.3
		C220.5,86,220.5,86.2,219.6,86.3z"/>
	<path class="st1" d="M208.2,80.3c-0.5,1.3-1,2.7-1.6,4.2c-0.3,0.5-0.4,1-0.7,1.6c-0.1,0.3-0.3,0.4-0.5,0.4c-1,0-1,0-1.4-0.9
		c-0.7-1.7-1.3-3.4-2-5c-0.1-0.5-0.1-0.5,0.4-0.5c1.3,0,0.9-0.3,1.3,1c0.4,1.3,0.9,2.5,1.3,3.8c0.5-1.4,0.9-2.7,1.4-4.1
		c0.1-0.3,0-0.7,0.4-0.7c0.4-0.1,0.8-0.1,1.2,0C208.3,79.8,208.2,80,208.2,80.3z"/>
	<path class="st1" d="M152.8,86c-1.2,0.4-2.5,0.5-3.7,0c-0.9-0.4-1.2-1.3-1.2-2.4c0-0.3,0-0.5,0-0.7c0-0.5,0-1,0.1-1.4
		c0.3-1.2,0.9-2,2.2-2.1c0.8-0.1,1.6,0,2.5,0.3c0.4,0.1,0.4,0.4,0.4,0.7s-0.1,0.5-0.5,0.5c-0.5,0-1-0.1-1.6-0.1
		c-0.8,0-1.2,0.3-1.3,1c-0.1,0.7-0.1,1.4,0,2.2c0.1,0.5,0.5,0.8,1,0.9c0.7,0,1.2,0,1.8-0.1c0.3,0,0.5,0,0.5,0.3
		C153.1,85.5,153.2,85.9,152.8,86z"/>
	<path class="st1" d="M180.1,78.4V82c0,1.3,0,2.6,0,3.9c0,0.4-0.1,0.5-0.5,0.5c-1,0-1,0-1-1c0-2.4,0-4.8,0-7.2
		c0-0.4,0.1-0.7,0.5-0.5C180.2,77.4,180.1,77.3,180.1,78.4z"/>
	<path class="st1" d="M107.4,51.8c-0.5,0.1-1.2,0.1-1.4,0.5c-0.3,0.4-0.1,0.9-0.1,1.4c0,0.8,0,1.7,0,2.5c0,0.4-0.1,0.5-0.5,0.5
		c-1,0-1,0.1-1-1V51c0-0.8,0-0.8,0.8-0.8c0.7,0,0.7,0,0.8,0.8c0.5-0.4,1-0.7,1.7-0.8c0.4-0.1,0.5,0,0.5,0.4
		C108.4,51.5,108.4,51.5,107.4,51.8z"/>
	<path class="st2" d="M106.5,66.4c-0.7,0.1-1.3,0.1-1.7,0.7c-0.3,0.4-0.1,1.2-0.1,1.7c0,0.8,0,1.6,0,2.4c0,0.4-0.1,0.5-0.5,0.5
		c-1,0-1,0-1-1c0-1.7,0-3.3,0-5c0-0.4,0.1-0.7,0.5-0.5h0.1c0.8,0,0.8,0,0.9,0.8c0.5-0.4,1-0.7,1.7-0.8c0.4-0.1,0.7-0.1,0.7,0.4
		c0,0.1,0,0.1,0,0.3C107.2,66.3,107.2,66.3,106.5,66.4z"/>
	<path class="st2" d="M103.8,81.3c-1.6,0.4-1.6,0.4-1.6,2c0,0.9,0,1.7,0,2.6c0,0.3-0.1,0.5-0.4,0.4c-1.3,0-1,0.1-1-1
		c0-1.6,0-3.3,0-5c0-0.4,0.1-0.7,0.7-0.5l0,0c0.8,0,0.8,0,0.9,0.8c0.5-0.4,1.2-0.7,1.8-0.8c0.3-0.1,0.5,0,0.5,0.4
		C104.8,81.1,104.8,81.1,103.8,81.3z"/>
	<path class="st1" d="M146.7,81.2c-0.5,0.1-1.2,0.1-1.6,0.5c-0.3,0.4-0.1,1-0.1,1.4c0,0.8,0,1.7,0,2.5c0,0.4,0,0.5-0.4,0.5
		c-1,0-1,0-1-1c0-1.7,0-3.3,0-5c0-0.4,0.1-0.7,0.5-0.5h0.1c0.8,0,0.8,0,0.8,0.8c0.5-0.4,1.2-0.7,1.8-0.9c0.3-0.1,0.5,0,0.5,0.3v0.1
		C147.5,81.1,147.5,81.1,146.7,81.2z"/>
	<path class="st1" d="M110.6,56.2c0,0.4-0.1,0.5-0.5,0.5c-1.2,0-1,0.1-1-1c0-1.7,0-3.3,0-5c0-0.5,0.1-0.7,0.7-0.7c1,0,0.9,0,0.9,0.9
		c0,0.8,0,1.6,0,2.4C110.6,54.4,110.6,55.3,110.6,56.2z"/>
	<path class="st1" d="M163.4,71.1c0,0.4-0.1,0.4-0.4,0.4c-1.2,0-1,0.1-1-1c0-1.7,0-3.3,0-5c0-0.4,0.1-0.5,0.5-0.5c1.2,0,0.9,0,1,0.9
		c0,0.8,0,1.6,0,2.4C163.4,69.2,163.4,70.2,163.4,71.1z"/>
	<path class="st0" d="M210.7,65.9c0,1.7,0,3.4,0,5.1c0,0.4-0.1,0.5-0.5,0.5c-1.2,0-0.9,0.1-1-1v-2.4c0-0.9,0-1.8,0-2.7
		c0-0.4,0.1-0.5,0.4-0.4C210.9,65,210.7,65,210.7,65.9z"/>
	<path class="st0" d="M222.7,80.7c0,0.8,0,1.6,0,2.4c0,0.9,0,2,0,2.9c0,0.3-0.1,0.4-0.4,0.4c-1.3,0-1,0.1-1-1c0-1.6,0-3.3,0-5
		c0-0.4,0.1-0.7,0.5-0.7C223,79.8,222.7,79.6,222.7,80.7z"/>
	<path class="st3" d="M163.4,63.3c0,0.5-0.3,0.8-0.8,0.8s-0.8-0.3-0.8-0.8c0-0.5,0.3-0.8,0.8-0.8C163.2,62.5,163.6,62.7,163.4,63.3z
		"/>
	<path class="st3" d="M110.7,48.5c0,0.5-0.3,0.8-0.8,0.8s-0.8-0.3-0.8-0.8s0.3-0.8,0.8-0.8S110.7,48,110.7,48.5z"/>
	<path class="st3" d="M210.8,63.3c0,0.5-0.3,0.8-0.8,0.8c-0.5,0-0.8-0.1-0.8-0.8c0-0.5,0.3-0.8,0.8-0.8
		C210.5,62.5,210.8,62.7,210.8,63.3z"/>
	<path class="st1" d="M222.8,78.1c0,0.5-0.3,0.8-0.8,0.8c-0.7,0-0.8-0.1-0.8-0.8c0-0.5,0.3-0.8,0.8-0.8
		C222.6,77.3,222.8,77.5,222.8,78.1z"/>
	<path class="st4" d="M47.6,43.6c0.3,0.7,0.4,1.3,0.7,2c0.1,0.3,0.1,0.4,0.4,0.3c0.7,0,1.3,0,2.1,0c-0.7,0.5-1.2,0.9-1.7,1.3
		c-0.3,0.1-0.3,0.4-0.3,0.7c0.3,0.7,0.4,1.3,0.7,2.1c-0.7-0.5-1.2-0.8-1.7-1.3c-0.3-0.3-0.4-0.3-0.7,0c-0.5,0.4-1,0.8-1.7,1.3
		c0.3-0.8,0.4-1.4,0.7-2.1c0.1-0.3,0-0.4-0.1-0.7c-0.5-0.4-1-0.8-1.7-1.3c0.8,0,1.4,0,2,0c0.4,0,0.5-0.1,0.5-0.4
		C47.1,44.8,47.2,44.2,47.6,43.6C47.5,43.6,47.5,43.6,47.6,43.6z"/>
	<path class="st4" d="M36.3,48c0.8,0,1.4,0,2.1,0c0.4,0,0.5-0.1,0.7-0.4c0.1-0.7,0.4-1.2,0.7-1.8c0.3,0.7,0.4,1.2,0.5,1.8
		c0.1,0.4,0.3,0.5,0.7,0.5c0.7,0,1.2,0,2,0c-0.7,0.5-1.2,0.9-1.7,1.2c-0.3,0.3-0.4,0.4-0.3,0.8c0.3,0.7,0.4,1.2,0.7,2
		c-0.7-0.4-1.2-0.8-1.7-1.2c-0.3-0.3-0.4-0.3-0.7,0c-0.5,0.4-1,0.8-1.6,1.2c0.3-0.8,0.4-1.4,0.7-2c0.1-0.3,0.1-0.4-0.1-0.7
		C37.4,48.9,36.9,48.5,36.3,48z"/>
	<path class="st4" d="M59.3,57.6c0.3-0.8,0.4-1.4,0.7-2.1c0.1-0.3,0-0.4-0.1-0.5c-0.5-0.4-1-0.8-1.7-1.3c0.8,0,1.3,0,2,0
		c0.5,0,0.7-0.1,0.8-0.5c0.1-0.5,0.4-1,0.5-1.7c0.3,0.7,0.4,1.3,0.7,1.8c0.1,0.3,0.3,0.5,0.7,0.4c0.7,0,1.3,0,2.1,0
		c-0.7,0.5-1.2,0.9-1.7,1.2c-0.3,0.1-0.4,0.4-0.3,0.7c0.1,0.5,0.4,1.2,0.5,1.8c-0.7-0.4-1-0.8-1.6-1.2c-0.3-0.1-0.4-0.1-0.7,0
		C60.5,56.9,59.9,57.2,59.3,57.6z"/>
	<path class="st4" d="M29.8,65.5c0.3-0.8,0.4-1.4,0.7-2c0.1-0.3,0-0.4-0.1-0.7c-0.5-0.4-1-0.8-1.6-1.3c0.7,0,1.3,0,2,0
		c0.3,0,0.4-0.1,0.5-0.4c0.1-0.7,0.4-1.2,0.7-2c0.3,0.7,0.4,1,0.5,1.6s0.4,0.8,0.9,0.7c0.5,0,1,0,1.7,0.1c-0.5,0.4-0.9,0.8-1.4,1.2
		c-0.4,0.3-0.4,0.4-0.3,0.8c0.3,0.5,0.4,1,0.5,1.8c-0.7-0.4-1.2-0.8-1.6-1.2c-0.3-0.3-0.4-0.1-0.7,0C31,64.7,30.4,65.1,29.8,65.5z"
		/>
	<path class="st4" d="M52.2,48c0.8,0,1.4,0,2.1,0c0.3,0,0.4-0.1,0.5-0.4c0.1-0.7,0.4-1.2,0.7-2c0.3,0.7,0.4,1.3,0.7,2
		c0.1,0.3,0.3,0.4,0.5,0.4c0.7,0,1.3,0,2.1,0c-0.5,0.4-1,0.8-1.6,1.2c-0.4,0.3-0.5,0.5-0.3,0.9c0.3,0.5,0.4,1,0.5,1.7
		c-0.5-0.3-0.9-0.5-1.2-0.8c-0.8-0.5-0.7-0.5-1.4,0c-0.4,0.3-0.8,0.5-1.3,0.9c0.3-0.8,0.4-1.4,0.7-2.1c0.1-0.3,0-0.4-0.1-0.5
		C53.4,48.9,52.9,48.5,52.2,48z"/>
	<path class="st4" d="M58.2,69.7c0.7,0,1.3,0,2,0c0.3,0,0.4-0.1,0.5-0.4c0.1-0.7,0.4-1.2,0.7-2c0.3,0.7,0.4,1.3,0.7,2
		c0.1,0.3,0.3,0.4,0.5,0.4c0.7,0,1.3,0,2,0.1c-0.5,0.4-1,0.8-1.6,1.2c-0.3,0.1-0.4,0.4-0.3,0.7c0.3,0.5,0.4,1.2,0.5,1.7
		c0,0-0.1,0-0.1,0.1c-0.5-0.4-1-0.7-1.4-1c-0.3-0.1-0.4-0.3-0.7,0c-0.5,0.4-1,0.8-1.7,1.3c0.3-0.8,0.4-1.3,0.7-2
		c0.1-0.3,0.1-0.5-0.3-0.8C59.2,70.6,58.6,70.2,58.2,69.7L58.2,69.7z"/>
	<path class="st4" d="M65.3,65.5c-0.5-0.4-1-0.7-1.4-1c-0.4-0.3-0.7-0.3-1,0c-0.4,0.4-0.9,0.7-1.4,1c0.3-0.8,0.4-1.3,0.7-2
		c0.1-0.3,0-0.5-0.3-0.7c-0.5-0.4-1-0.8-1.7-1.3c0.8,0,1.4,0,2.1,0c0.3,0,0.4-0.1,0.5-0.4c0.1-0.7,0.4-1.2,0.7-1.8
		c0.1,0.7,0.4,1.2,0.5,1.8c0.1,0.3,0.3,0.4,0.5,0.4c0.7,0,1.3,0,2.1,0c-0.5,0.4-1,0.8-1.6,1.2c-0.4,0.3-0.4,0.5-0.3,0.8
		C65,64.2,65.2,64.7,65.3,65.5z"/>
	<path class="st4" d="M49.6,81.3c-0.7-0.5-1.2-0.8-1.7-1.2c-0.3-0.1-0.4-0.3-0.7,0c-0.4,0.4-0.8,0.7-1.3,0.9
		c-0.1,0.1-0.1,0.3-0.4,0.1c0.1-0.5,0.4-1.2,0.5-1.7c0.1-0.4,0-0.5-0.3-0.8c-0.5-0.4-1-0.8-1.6-1.2c0.7,0,1.2,0,1.8,0
		c0.5,0.1,0.8-0.1,0.9-0.7c0.1-0.5,0.3-1,0.5-1.4c0.1,0.5,0.4,1.2,0.5,1.7c0.1,0.3,0.3,0.5,0.7,0.4c0.7,0,1.3,0,2.1,0
		c-0.7,0.5-1.2,0.9-1.7,1.3c-0.3,0.1-0.3,0.3-0.1,0.7C49.2,80,49.3,80.7,49.6,81.3z"/>
	<path class="st4" d="M37.7,79.1c0.3-0.7,0.4-1.2,0.7-1.8c0.1-0.3,0-0.5-0.3-0.7c-0.5-0.4-1-0.8-1.7-1.2c0.8,0,1.3,0,1.8,0
		c0.5,0,0.7-0.1,0.8-0.5c0.1-0.5,0.4-1,0.5-1.8c0.3,0.7,0.4,1.3,0.7,2c0.1,0.3,0.1,0.4,0.5,0.4c0.7,0,1.3,0,2.1,0
		c-0.7,0.5-1,0.9-1.6,1.2C41,76.9,41,77,41,77.3c0.3,0.5,0.4,1.2,0.5,1.8c-0.5-0.4-1-0.7-1.4-1c-0.3-0.3-0.4-0.3-0.7,0
		C38.7,78.4,38.2,78.8,37.7,79.1C37.7,79.2,37.7,79.1,37.7,79.1z"/>
	<path class="st4" d="M30.9,53.8c0.7,0,1.3,0,2,0c0.3,0,0.4-0.1,0.5-0.4c0.1-0.7,0.4-1.2,0.7-2c0.3,0.8,0.4,1.3,0.7,2
		c0.1,0.3,0.3,0.4,0.5,0.4c0.7,0,1.3,0,2,0.1c-0.4,0.4-0.8,0.7-1.3,0.9c-0.4,0.3-0.5,0.5-0.4,1c0.3,0.5,0.4,1,0.5,1.7
		c-0.7-0.5-1.2-0.9-1.7-1.3c-0.3-0.1-0.4-0.1-0.5,0c-0.5,0.4-1,0.8-1.7,1.3c0.3-0.8,0.4-1.3,0.7-2c0.1-0.4,0.1-0.5-0.3-0.8
		C31.8,54.6,31.3,54.2,30.9,53.8L30.9,53.8z"/>
	<path class="st4" d="M35.9,73.6c-0.7-0.5-1.2-0.8-1.7-1.2c-0.3-0.3-0.4-0.1-0.7,0c-0.5,0.4-1,0.8-1.7,1.2c0.3-0.8,0.5-1.4,0.7-2.1
		c0.1-0.3,0-0.4-0.1-0.5c-0.5-0.4-1-0.8-1.6-1.3c0.5,0,1,0,1.6,0s0.8-0.1,0.9-0.7c0.1-0.5,0.4-1,0.5-1.7c0.3,0.8,0.5,1.3,0.7,2
		c0.1,0.3,0.1,0.4,0.4,0.4c0.7,0,1.3,0,2.1,0c-0.7,0.5-1.2,0.9-1.7,1.3c-0.3,0.1-0.3,0.3-0.1,0.5C35.5,72.2,35.6,72.8,35.9,73.6z"/>
	<path class="st4" d="M52.3,75.4c0.5,0,1,0,1.6,0c0.8,0,0.8,0,1-0.8c0.1-0.5,0.3-0.9,0.5-1.6c0.3,0.7,0.4,1.3,0.7,2
		c0.1,0.3,0.3,0.4,0.5,0.4c0.7,0,1.3,0,2,0.1c-0.5,0.4-0.9,0.8-1.4,1.2c-0.3,0.3-0.4,0.4-0.3,0.8c0.3,0.5,0.4,1.2,0.5,1.8
		c-0.5-0.4-1-0.7-1.4-1c-0.3-0.3-0.4-0.3-0.7,0c-0.4,0.3-0.7,0.5-1,0.8c-0.1,0.1-0.3,0.3-0.5,0.1c0.1-0.5,0.3-1,0.5-1.6
		c0.3-0.5,0.1-0.8-0.3-1C53.3,76.2,52.9,75.8,52.3,75.4L52.3,75.4z"/>
</g>
</svg>
