<?xml version="1.0" encoding="utf-8"?>
<!-- Generator: Adobe Illustrator 26.0.3, SVG Export Plug-In . SVG Version: 6.00 Build 0)  -->
<svg version="1.1" id="Calque_1" xmlns="http://www.w3.org/2000/svg" xmlns:xlink="http://www.w3.org/1999/xlink" x="0px" y="0px"
	 viewBox="0 0 248.7 123.9" style="enable-background:new 0 0 248.7 123.9;" xml:space="preserve">
<style type="text/css">
	.st0{fill:#FEFEFE;}
	.st1{fill:#1C3661;}
</style>
<g>
	<path class="st0" d="M32.1,57.1c2.7,2.4,4,5.4,3.8,8.9c-0.1,1.5,0,3,0,4.5c-0.1,3.7-1.9,6-5.4,7c-2.8,0.7-5.5,0.7-8.2-0.4
		S18.1,74,18.1,71c0-1.2,0-2.2,0-3.4l0,0c0-1.3,0-2.6,0-3.9c0-0.4,0.1-0.5,0.5-0.5c2.1,0,4.3,0,6.4,0c0.5,0,0.5,0.2,0.5,0.6
		c0,2.1,0,4.2,0,6.3c0,0.3,0,0.5,0,0.8c0.2,0.7,0.6,1.2,1.3,1.2c0.8,0,1.3-0.4,1.3-1.1c0.1-2.2,0.3-4.6-0.3-6.8
		c-0.3-1.2-1.1-2-1.9-2.8c-1.5-1.5-3.1-3-4.6-4.5c-2.2-2.1-3.4-4.6-3.3-7.7c0-1.4,0-2.9,0-4.2c0-3.2,1.6-5.4,4.6-6.4
		c3-1,5.9-1,8.8,0.1c2.7,1,4.2,3,4.3,5.8c0.1,2,0,3.9,0.1,5.9c0,0.4-0.2,0.6-0.6,0.6c-2.1,0-4.1,0-6.1,0c-0.5,0-0.7-0.2-0.7-0.7
		c0-1.5,0-3.1,0-4.6c0-0.3,0-0.5-0.1-0.8c-0.1-0.7-0.6-1.2-1.3-1.2c-0.7,0-1.3,0.4-1.3,1.3c-0.1,1.3-0.1,2.8,0,4.1
		c0.2,1.3,0.8,2.4,1.7,3.3C28.9,54,30.5,55.7,32.1,57.1z"/>
	<path class="st0" d="M53.5,71.9c-0.4,2.7-2,4.5-4.5,5.4c-2.5,0.9-5.1,0.9-7.5-0.2c-2.4-1.1-3.8-3-3.9-5.6
		c-0.1-3.7-0.1-7.3-0.1-11.1c0-2.3,0-4.7,0-7.1c0-4,2.1-6.5,6-7.3c2.3-0.4,4.6-0.2,6.7,1c2.1,1.2,3.2,3,3.3,5.4c0.1,1.7,0,3.4,0.1,5
		c0,0.5-0.2,0.6-0.6,0.5c-1.8,0-3.6,0-5.5,0c-0.5,0-0.6-0.2-0.6-0.6c0-1.6,0-3.2,0-4.8c0-0.7-0.2-1.3-1-1.5c-1-0.4-1.8,0.4-1.8,1.5
		c0,3.1,0,6.3,0,9.4c0,3,0,6.1,0,9.1c0,0.5,0.1,1.1,0.5,1.4c0.4,0.4,0.9,0.4,1.4,0.2c0.6-0.3,0.8-0.8,0.8-1.3c0-1.7,0-3.4,0-5
		c0-1.3-0.2-1.1,1.2-1.1c1.6,0,3.2,0,4.9,0c0.3,0,0.6-0.1,0.6,0.4C53.6,67.6,53.8,69.8,53.5,71.9z"/>
	<path class="st0" d="M71.3,51.7c0,8.2,0,16.5,0,24.8c0,0.8-0.2,1-1,1c-1.6-0.1-3.2-0.1-4.8,0c-0.7,0-1-0.2-0.9-0.9
		c0-7.5,0-15.1,0-22.6c0-0.4,0-0.6,0-1c-0.1-0.7-0.6-1.3-1.3-1.3c-0.7,0.1-1.3,0.4-1.3,1.2c0,0.4,0,0.6,0,1c0,7.5,0,15.1,0,22.6
		c0,0.7-0.2,1-0.9,1c-1.6-0.1-3.3,0-4.9,0c-0.5,0-0.8-0.1-0.8-0.7c0-12.6,0-25.2,0-37.8c0-0.6,0.2-0.8,0.8-0.8c1.7,0,3.4,0,5.1,0
		c0.6,0,0.9,0.2,0.9,0.8c0,2.8,0,5.5,0,8.3v1.1c1.3-1.7,2.8-2.7,4.6-2.6c2.3,0.1,4.2,1.8,4.6,4.2C71.3,50.6,71.3,51.2,71.3,51.7z"/>
	<path class="st0" d="M79.6,38.9c0,5.2,0,10.3,0,15.5c0,7.3,0,14.8,0,22.1c0,0.8-0.2,1-1,1c-1.6-0.1-3.2-0.1-4.9,0
		c-0.7,0-0.8-0.2-0.8-0.9c0-6.3,0-12.5,0-18.9s0-12.5,0-18.9c0-0.7,0.2-0.9,0.9-0.9c1.7,0.1,3.3,0.1,5,0
		C79.4,38,79.6,38.3,79.6,38.9z"/>
	<path class="st0" d="M97.3,46.7c0,10,0,20,0,30c0,0.6-0.2,0.7-0.7,0.6c-1.7,0-3.3,0-5,0c-0.5,0-0.8-0.1-0.8-0.7
		c0-0.4-0.1-0.9-0.2-1.6c-1,1.3-2,2.2-3.4,2.5c-3,0.6-5.6-1.4-6-4.6c0-0.4-0.1-0.9-0.1-1.3c0-8.2,0-16.5,0-24.8c0-0.8,0.2-1,1-1
		c1.6,0.1,3.2,0.1,4.9,0c0.7,0,0.8,0.2,0.8,0.9c0,7.7,0,15.4,0,23.1c0,1.5,0.4,2.1,1.4,2.1c1,0,1.4-0.6,1.4-2.1c0-7.6,0-15.2,0-22.8
		c0-0.9,0.3-1.1,1.2-1.1c1.6,0.1,3.2,0,4.9,0C97.1,46.1,97.3,46.3,97.3,46.7z"/>
	<path class="st0" d="M124.5,76.6c0,0.7-0.2,1-0.9,0.9c-1.6-0.1-3.2-0.1-4.9,0c-0.7,0-0.9-0.2-0.9-0.9c0-7.7,0-15.3,0-23
		c0-0.4,0-0.7-0.1-1.1c-0.1-0.7-0.6-1.1-1.3-1.1c-0.8,0-1.2,0.4-1.3,1.2c0,0.3,0,0.6,0,0.9c0,7.7,0,15.3,0,23c0,0.8-0.2,1-1,1
		c-1.6-0.1-3.2-0.1-4.8,0c-0.7,0-1-0.2-1-1c0-7.7,0-15.4,0-23c0-1.5-0.4-2.1-1.4-2.1c-1,0-1.3,0.5-1.3,2.1c0,7.7,0,15.3,0,23
		c0,0.8-0.3,1-1,1c-1.6-0.1-3.2-0.1-4.8,0c-0.7,0-1-0.2-1-0.9c0-7.3,0-14.8,0-22.1c0-2.5,0-5.1,0-7.6c0-0.5,0.2-0.7,0.7-0.7
		c1.7,0,3.4,0,5.1,0c0.7,0,0.9,0.2,0.9,0.9c0,0.4,0,0.8,0.1,1.3c3-3.6,6.9-3.4,9,0.4c0.2,0,0.2-0.2,0.3-0.3c1.4-2.1,3.6-3,5.9-2.5
		c2.1,0.5,3.5,2.4,3.7,5c0,0.4,0,0.8,0,1.3C124.5,60.3,124.4,68.4,124.5,76.6z"/>
	<path class="st0" d="M142.2,51.5c0-0.5-0.1-1.2-0.2-1.7c-0.9-3.7-4.8-5.2-7.7-3c-0.5,0.4-1,0.9-1.4,1.6c0-0.4-0.1-0.4-0.1-0.6
		c0-3,0-6,0-8.9c0-0.5-0.2-0.7-0.7-0.7c-1.7,0-3.3,0.1-5,0c-0.8,0-1,0.2-1,1c0,12,0,23.9,0,35.9c0,0.6,0,1.3,0,2
		c0,0.4,0.2,0.6,0.6,0.6c1.3,0,2.7,0,4,0c2,0,2,0,2.1-2c0,0,0.1-0.1,0.2-0.2c0.1,0.1,0.2,0.2,0.2,0.3c2.1,3,6.3,2.9,8.1-0.3
		c0.6-1.1,0.9-2.3,0.9-3.6C142.2,65,142.2,58.2,142.2,51.5z M135.5,58.4V70c0,0.4,0,0.6-0.1,1c-0.1,0.7-0.6,1.1-1.3,1.1
		s-1.3-0.4-1.3-1.1c0-0.2,0-0.4,0-0.6c0-5.7,0-11.5,0-17.3c0-0.7,0.1-1.3,0.9-1.6c1-0.4,1.8,0.3,1.8,1.4
		C135.6,54.8,135.5,56.5,135.5,58.4z"/>
	<path class="st0" d="M159.9,65.6c0-0.5-0.3-0.5-0.7-0.5c-1.7,0-3.5,0-5.3,0c-0.6,0-0.8,0.2-0.8,0.8c0,1.8,0,3.6,0,5.3
		c0,0.5-0.2,1.1-0.6,1.3c-1,0.5-2.1-0.1-2.1-1.3c0-2.6,0-5.1,0-7.7c0-0.5,0.3-0.6,0.7-0.6c2.7,0,5.4,0,8,0c0.4,0,0.8,0,0.8-0.6
		c0-3.2,0-6.5,0-9.7c-0.1-3.2-1.9-5.5-5-6.4c-0.9-0.3-1.9-0.4-2.9-0.4c-4.3,0-8.4,2.1-8.2,7.9c0.1,2.7,0,5.5,0,8.1c0,3,0,6,0,9
		c0,3.2,1.8,5.5,4.9,6.5c2.1,0.6,4.2,0.6,6.3,0c2.9-1,4.6-3,4.8-6C160,69.4,159.9,67.5,159.9,65.6z M150.5,52.3
		c0-0.9,0.5-1.4,1.3-1.4c0.8,0,1.3,0.5,1.3,1.4s0,1.8,0,2.8l0,0c0,0.9,0.1,1.7,0,2.6c-0.2,1.2-1.2,0.4-1.8,0.5c-0.4,0.1-1,0.3-1-0.5
		C150.5,55.8,150.5,54,150.5,52.3z"/>
	<path class="st0" d="M177.6,59.2c0,1.1,0,2.1,0,3.1c0,0.4-0.2,0.5-0.5,0.5c-1.9,0-3.8,0-5.5,0c-0.6,0-0.5-0.4-0.5-0.7v-8.9
		c0-1.3-0.4-1.9-1.3-1.9c-1,0-1.4,0.5-1.4,1.9V76c0,1.3,0,1.3-1.4,1.3c-1.5,0-3,0-4.5,0c-0.5,0-0.7-0.1-0.7-0.7c0-10,0-20,0-30
		c0-0.6,0.3-0.6,0.7-0.6c1.7,0,3.4,0,5.1,0c0.6,0,0.8,0.2,0.8,0.8c0,0.4-0.1,0.9,0.2,1.3c0.4-0.4,0.6-0.7,0.9-1
		c1.4-1.3,3.1-2,5.1-1.3c2,0.7,3,2.2,3.2,4.3C177.8,53.3,177.6,56.3,177.6,59.2z"/>
	<path class="st0" d="M195.3,47c0-0.7-0.2-1-0.9-0.9c-1.2,0.1-2.3,0-3.6,0c-0.7,0-1.5-0.3-2,0.2c-0.4,0.4-0.1,1.3-0.2,1.9
		c0,0,0,0-0.1,0.2c-0.2-0.3-0.4-0.4-0.5-0.6c-1.2-1.3-2.5-2.1-4.3-1.9c-2.6,0.3-4.4,2.2-4.5,4.8c-0.1,4.1,0,8.1,0,12.2
		c0,2.5,0,5,0,7.5c0.1,2.2,1.4,4.1,3.3,4.7c2,0.7,4,0,5.5-1.7c0.1-0.1,0.2-0.4,0.4-0.2c0,2.1,0,4.4,0,6.6c0,0.9-0.6,1.4-1.4,1.4
		s-1.3-0.5-1.3-1.4c0-0.6-0.1-1.2,0-1.8c0.1-0.6-0.1-0.8-0.8-0.8c-1.3,0.1-2.4,0-3.7,0c-2.3,0-2.3,0-2.2,2.3c0.1,3,1.7,5.1,4.6,6
		c2,0.6,3.9,0.7,6,0.3c3.6-0.8,5.5-3,5.5-6.7c0-2.3,0-4.6,0-6.9C195.3,63.8,195.3,55.4,195.3,47z M188.7,57.7c0,3.6,0,7.2,0,10.7
		c0,1.1-0.4,1.7-1.3,1.8c-1,0.1-1.5-0.4-1.5-1.6c0-2.6,0-5.2,0-7.8v-7.6c0-0.8,0.2-1.4,1-1.7c1-0.3,1.8,0.4,1.8,1.5
		C188.7,54.6,188.7,56.2,188.7,57.7z"/>
	<path class="st0" d="M213,65.5c0-0.5-0.4-0.4-0.6-0.4c-1.8,0-3.5,0-5.3,0c-0.6,0-0.8,0.2-0.8,0.8c0,1.8,0,3.5,0,5.2
		c0,0.5-0.1,1.1-0.6,1.4c-1,0.6-2.1-0.1-2.1-1.3c0-2.5,0-4.9,0-7.4c0-0.7,0.3-0.8,0.9-0.8c2.6,0,5.2,0,7.8,0c0.6,0,0.8-0.2,0.8-0.8
		c0-1.6,0-3.2,0-4.8l0,0c0-1.6,0.1-3.2,0-4.7c-0.1-2.8-1.4-4.7-3.9-5.9c-1.8-0.9-3.8-1-5.7-0.7c-3.8,0.4-6.3,3.1-6.4,6.9
		c-0.1,6.1,0,12.1,0,18.1c0,2.6,1.2,4.6,3.5,5.9c2.1,1.1,4.2,1.3,6.4,0.9c3.3-0.6,5.5-2.7,6-5.7C213.2,69.8,212.9,67.6,213,65.5z
		 M203.6,54.8c0-0.9,0-1.7,0-2.6c0-0.9,0.5-1.4,1.3-1.4c0.8,0,1.3,0.4,1.3,1.3c0.1,1.8,0.2,3.6,0,5.4c-0.1,1.3-1.3,0.4-2,0.5
		c-0.4,0.1-0.8,0.1-0.8-0.5C203.6,56.7,203.6,55.7,203.6,54.8z"/>
	<path class="st0" d="M230.7,62.2c0,0.5-0.1,0.8-0.7,0.8c-1.8,0-3.5,0-5.3,0c-0.6,0-0.7-0.2-0.7-0.7c0-3,0-6.2,0-9.2
		c0-1.1-0.6-1.6-1.6-1.5c-0.6,0.1-1,0.4-1.1,1c-0.1,0.4-0.1,0.8-0.1,1.2c0,7.6,0,15.3,0,22.9c0,0.7-0.2,1-0.9,0.9
		c-1.7-0.1-3.4,0-5,0c-0.5,0-0.7-0.1-0.7-0.6c0-10,0-20,0-30c0-0.5,0.2-0.6,0.6-0.6c1.7,0,3.4,0,5.2,0c0.6,0,0.8,0.2,0.8,0.8
		c0,0.4,0,0.9,0.1,1.5c1.1-1.3,2.1-2.2,3.6-2.5c2.7-0.6,5.2,1.1,5.7,3.9c0.1,0.4,0.2,1,0.2,1.5C230.7,54.8,230.7,58.5,230.7,62.2z"
		/>
	<path class="st1" d="M124.5,76.6c0,0.7-0.2,1-0.9,0.9c-1.6-0.1-3.2-0.1-4.9,0c-0.7,0-0.9-0.2-0.9-0.9c0-7.7,0-15.3,0-23
		c0-0.4,0-0.7-0.1-1.1c-0.1-0.7-0.6-1.1-1.3-1.1c-0.8,0-1.2,0.4-1.3,1.2c0,0.3,0,0.6,0,0.9c0,7.7,0,15.3,0,23c0,0.8-0.2,1-1,1
		c-1.6-0.1-3.2-0.1-4.8,0c-0.7,0-1-0.2-1-1c0-7.7,0-15.4,0-23c0-1.5-0.4-2.1-1.4-2.1c-1,0-1.3,0.5-1.3,2.1c0,7.7,0,15.3,0,23
		c0,0.8-0.3,1-1,1c-1.6-0.1-3.2-0.1-4.8,0c-0.7,0-1-0.2-1-0.9c0-7.3,0-14.8,0-22.1c0-2.5,0-5.1,0-7.6c0-0.5,0.2-0.7,0.7-0.7
		c1.7,0,3.4,0,5.1,0c0.7,0,0.9,0.2,0.9,0.9c0,0.4,0,0.8,0.1,1.3c3-3.6,6.9-3.4,9,0.4c0.2,0,0.2-0.2,0.3-0.3c1.4-2.1,3.6-3,5.9-2.5
		c2.1,0.5,3.5,2.4,3.7,5c0,0.4,0,0.8,0,1.3C124.5,60.3,124.4,68.4,124.5,76.6z"/>
	<path class="st1" d="M195.3,47c0-0.7-0.2-1-0.9-0.9c-1.2,0.1-2.3,0-3.6,0c-0.7,0-1.5-0.3-2,0.2c-0.4,0.4-0.1,1.3-0.2,1.9
		c0,0,0,0-0.1,0.2c-0.2-0.3-0.4-0.4-0.5-0.6c-1.2-1.3-2.5-2.1-4.3-1.9c-2.6,0.3-4.4,2.2-4.5,4.8c-0.1,4.1,0,8.1,0,12.2
		c0,2.5,0,5,0,7.5c0.1,2.2,1.4,4.1,3.3,4.7c2,0.7,4,0,5.5-1.7c0.1-0.1,0.2-0.4,0.4-0.2c0,2.1,0,4.4,0,6.6c0,0.9-0.6,1.4-1.4,1.4
		s-1.3-0.5-1.3-1.4c0-0.6-0.1-1.2,0-1.8c0.1-0.6-0.1-0.8-0.8-0.8c-1.3,0.1-2.4,0-3.7,0c-2.3,0-2.3,0-2.2,2.3c0.1,3,1.7,5.1,4.6,6
		c2,0.6,3.9,0.7,6,0.3c3.6-0.8,5.5-3,5.5-6.7c0-2.3,0-4.6,0-6.9C195.3,63.8,195.3,55.4,195.3,47z M188.7,57.7c0,3.6,0,7.2,0,10.7
		c0,1.1-0.4,1.7-1.3,1.8c-1,0.1-1.5-0.4-1.5-1.6c0-2.6,0-5.2,0-7.8v-7.6c0-0.8,0.2-1.4,1-1.7c1-0.3,1.8,0.4,1.8,1.5
		C188.7,54.6,188.7,56.2,188.7,57.7z"/>
	<path class="st1" d="M35.9,66.1c-0.1,1.5,0,3,0,4.5c-0.1,3.7-1.9,6-5.4,7c-2.8,0.7-5.5,0.7-8.2-0.4s-4.2-3.1-4.2-6.1
		c0-1.2,0-2.2,0-3.4l0,0c0-1.3,0-2.6,0-3.9c0-0.4,0.1-0.5,0.5-0.5c2.1,0,4.3,0,6.4,0c0.5,0,0.5,0.2,0.5,0.6c0,2.1,0,4.2,0,6.3
		c0,0.3,0,0.5,0,0.8c0.2,0.7,0.6,1.2,1.3,1.2c0.8,0,1.3-0.4,1.3-1.1c0.1-2.2,0.3-4.6-0.3-6.8c-0.3-1.2-1.1-2-1.9-2.8
		c-1.5-1.5-3.1-3-4.6-4.5c-2.2-2.1-3.4-4.6-3.3-7.7c0-1.4,0-2.9,0-4.2c0-3.2,1.6-5.4,4.6-6.4c3-1,5.9-1,8.8,0.1c2.7,1,4.2,3,4.3,5.8
		c0.1,2,0,3.9,0.1,5.9c0,0.4-0.2,0.6-0.6,0.6c-2.1,0-4.1,0-6.1,0c-0.5,0-0.7-0.2-0.7-0.7c0-1.5,0-3.1,0-4.6c0-0.3,0-0.5-0.1-0.8
		c-0.1-0.7-0.6-1.2-1.3-1.2s-1.3,0.4-1.3,1.3c-0.1,1.3-0.1,2.8,0,4.1c0.2,1.3,0.8,2.4,1.7,3.3c1.6,1.6,3.1,3.1,4.7,4.6
		C34.8,59.6,36.2,62.4,35.9,66.1z"/>
	<path class="st1" d="M142.2,51.5c0-0.5-0.1-1.2-0.2-1.7c-0.9-3.7-4.8-5.2-7.7-3c-0.5,0.4-1,0.9-1.4,1.6c0-0.4-0.1-0.4-0.1-0.6
		c0-3,0-6,0-8.9c0-0.5-0.2-0.7-0.7-0.7c-1.7,0-3.3,0.1-5,0c-0.8,0-1,0.2-1,1c0,12,0,23.9,0,35.9c0,0.6,0,1.3,0,2
		c0,0.4,0.2,0.6,0.6,0.6c1.3,0,2.7,0,4,0c2,0,2,0,2.1-2c0,0,0.1-0.1,0.2-0.2c0.1,0.1,0.2,0.2,0.2,0.3c2.1,3,6.3,2.9,8.1-0.3
		c0.6-1.1,0.9-2.3,0.9-3.6C142.2,65,142.2,58.2,142.2,51.5z M135.5,58.4V70c0,0.4,0,0.6-0.1,1c-0.1,0.7-0.6,1.1-1.3,1.1
		s-1.3-0.4-1.3-1.1c0-0.2,0-0.4,0-0.6c0-5.7,0-11.5,0-17.3c0-0.7,0.1-1.3,0.9-1.6c1-0.4,1.8,0.3,1.8,1.4
		C135.6,54.8,135.5,56.5,135.5,58.4z"/>
	<path class="st1" d="M71.4,76.5c0,0.8-0.2,1-1,1c-1.6-0.1-3.2-0.1-4.8,0c-0.7,0-1-0.2-0.9-0.9c0-7.5,0-15.1,0-22.6c0-0.4,0-0.6,0-1
		c-0.1-0.7-0.6-1.3-1.3-1.3c-0.7,0.1-1.3,0.4-1.3,1.2c0,0.4,0,0.6,0,1c0,7.5,0,15.1,0,22.6c0,0.7-0.2,1-0.9,1c-1.6-0.1-3.3,0-4.9,0
		c-0.5,0-0.8-0.1-0.8-0.7c0-12.6,0-25.2,0-37.8c0-0.6,0.2-0.8,0.8-0.8c1.7,0,3.4,0,5.1,0c0.6,0,0.9,0.2,0.9,0.8c0,2.8,0,5.5,0,8.3
		v1.1c1.3-1.7,2.8-2.7,4.6-2.6c2.3,0.1,4.2,1.8,4.6,4.2c0.1,0.6,0.2,1.3,0.2,1.9C71.3,60,71.3,68.3,71.4,76.5z"/>
	<path class="st1" d="M97.3,76.8c0,0.6-0.2,0.7-0.7,0.6c-1.7,0-3.3,0-5,0c-0.5,0-0.8-0.1-0.8-0.7c0-0.4-0.1-0.9-0.2-1.6
		c-1,1.3-2,2.2-3.4,2.5c-3,0.6-5.6-1.4-6-4.6c0-0.4-0.1-0.9-0.1-1.3c0-8.2,0-16.5,0-24.8c0-0.8,0.2-1,1-1c1.6,0.1,3.2,0.1,4.9,0
		c0.7,0,0.8,0.2,0.8,0.9c0,7.7,0,15.4,0,23.1c0,1.5,0.4,2.1,1.4,2.1c1,0,1.4-0.6,1.4-2.1c0-7.6,0-15.2,0-22.8c0-0.9,0.3-1.1,1.2-1.1
		c1.6,0.1,3.2,0,4.9,0c0.5,0,0.6,0.2,0.6,0.6C97.3,56.7,97.3,66.8,97.3,76.8z"/>
	<path class="st1" d="M159.9,65.6c0-0.5-0.3-0.5-0.7-0.5c-1.7,0-3.5,0-5.3,0c-0.6,0-0.8,0.2-0.8,0.8c0,1.8,0,3.6,0,5.3
		c0,0.5-0.2,1.1-0.6,1.3c-1,0.5-2.1-0.1-2.1-1.3c0-2.6,0-5.1,0-7.7c0-0.5,0.3-0.6,0.7-0.6c2.7,0,5.4,0,8,0c0.4,0,0.8,0,0.8-0.6
		c0-3.2,0-6.5,0-9.7c-0.1-3.2-1.9-5.5-5-6.4c-0.9-0.3-1.9-0.4-2.9-0.4c-4.3,0-8.4,2.1-8.2,7.9c0.1,2.7,0,5.5,0,8.1c0,3,0,6,0,9
		c0,3.2,1.8,5.5,4.9,6.5c2.1,0.6,4.2,0.6,6.3,0c2.9-1,4.6-3,4.8-6C160,69.4,159.9,67.5,159.9,65.6z M150.5,52.3
		c0-0.9,0.5-1.4,1.3-1.4c0.8,0,1.3,0.5,1.3,1.4s0,1.8,0,2.8l0,0c0,0.9,0.1,1.7,0,2.6c-0.2,1.2-1.2,0.4-1.8,0.5c-0.4,0.1-1,0.3-1-0.5
		C150.5,55.8,150.5,54,150.5,52.3z"/>
	<path class="st1" d="M213,65.5c0-0.5-0.4-0.4-0.6-0.4c-1.8,0-3.5,0-5.3,0c-0.6,0-0.8,0.2-0.8,0.8c0,1.8,0,3.5,0,5.2
		c0,0.5-0.1,1.1-0.6,1.4c-1,0.6-2.1-0.1-2.1-1.3c0-2.5,0-4.9,0-7.4c0-0.7,0.3-0.8,0.9-0.8c2.6,0,5.2,0,7.8,0c0.6,0,0.8-0.2,0.8-0.8
		c0-1.6,0-3.2,0-4.8l0,0c0-1.6,0.1-3.2,0-4.7c-0.1-2.8-1.4-4.7-3.9-5.9c-1.8-0.9-3.8-1-5.7-0.7c-3.8,0.4-6.3,3.1-6.4,6.9
		c-0.1,6.1,0,12.1,0,18.1c0,2.6,1.2,4.6,3.5,5.9c2.1,1.1,4.2,1.3,6.4,0.9c3.3-0.6,5.5-2.7,6-5.7C213.2,69.8,212.9,67.6,213,65.5z
		 M203.6,54.8c0-0.9,0-1.7,0-2.6c0-0.9,0.5-1.4,1.3-1.4c0.8,0,1.3,0.4,1.3,1.3c0.1,1.8,0.2,3.6,0,5.4c-0.1,1.3-1.3,0.4-2,0.5
		c-0.4,0.1-0.8,0.1-0.8-0.5C203.6,56.7,203.6,55.7,203.6,54.8z"/>
	<path class="st1" d="M53.5,71.9c-0.4,2.7-2,4.5-4.5,5.4c-2.5,0.9-5.1,0.9-7.5-0.2c-2.4-1.1-3.8-3-3.9-5.6
		c-0.1-3.7-0.1-7.3-0.1-11.1c0-2.3,0-4.7,0-7.1c0-4,2.1-6.5,6-7.3c2.3-0.4,4.6-0.2,6.7,1c2.1,1.2,3.2,3,3.3,5.4c0.1,1.7,0,3.4,0.1,5
		c0,0.5-0.2,0.6-0.6,0.5c-1.8,0-3.6,0-5.5,0c-0.5,0-0.6-0.2-0.6-0.6c0-1.6,0-3.2,0-4.8c0-0.7-0.2-1.3-1-1.5c-1-0.4-1.8,0.4-1.8,1.5
		c0,3.1,0,6.3,0,9.4c0,3,0,6.1,0,9.1c0,0.5,0.1,1.1,0.5,1.4c0.4,0.4,0.9,0.4,1.4,0.2c0.6-0.3,0.8-0.8,0.8-1.3c0-1.7,0-3.4,0-5
		c0-1.3-0.2-1.1,1.2-1.1c1.6,0,3.2,0,4.9,0c0.3,0,0.6-0.1,0.6,0.4C53.6,67.6,53.8,69.8,53.5,71.9z"/>
	<path class="st1" d="M230.7,62.2c0,0.5-0.1,0.8-0.7,0.8c-1.8,0-3.5,0-5.3,0c-0.6,0-0.7-0.2-0.7-0.7c0-3,0-6.2,0-9.2
		c0-1.1-0.6-1.6-1.6-1.5c-0.6,0.1-1,0.4-1.1,1c-0.1,0.4-0.1,0.8-0.1,1.2c0,7.6,0,15.3,0,22.9c0,0.7-0.2,1-0.9,0.9
		c-1.7-0.1-3.4,0-5,0c-0.5,0-0.7-0.1-0.7-0.6c0-10,0-20,0-30c0-0.5,0.2-0.6,0.6-0.6c1.7,0,3.4,0,5.2,0c0.6,0,0.8,0.2,0.8,0.8
		c0,0.4,0,0.9,0.1,1.5c1.1-1.3,2.1-2.2,3.6-2.5c2.7-0.6,5.2,1.1,5.7,3.9c0.1,0.4,0.2,1,0.2,1.5C230.7,54.8,230.7,58.5,230.7,62.2z"
		/>
	<path class="st1" d="M177.7,62.4c0,0.4-0.2,0.5-0.5,0.5c-1.9,0-3.8,0-5.5,0c-0.6,0-0.5-0.4-0.5-0.7v-8.9c0-1.3-0.4-1.9-1.3-1.9
		c-1,0-1.4,0.5-1.4,1.9V76c0,1.3,0,1.3-1.4,1.3c-1.5,0-3,0-4.5,0c-0.5,0-0.7-0.1-0.7-0.7c0-10,0-20,0-30c0-0.6,0.3-0.6,0.7-0.6
		c1.7,0,3.4,0,5.1,0c0.6,0,0.8,0.2,0.8,0.8c0,0.4-0.1,0.9,0.2,1.3c0.4-0.4,0.6-0.7,0.9-1c1.4-1.3,3.1-2,5.1-1.3c2,0.7,3,2.2,3.2,4.3
		c0.3,3,0.1,6,0.1,8.9C177.7,60.3,177.6,61.3,177.7,62.4z"/>
	<path class="st1" d="M79.6,76.5c0,0.8-0.2,1-1,1c-1.6-0.1-3.2-0.1-4.9,0c-0.7,0-0.8-0.2-0.8-0.9c0-6.3,0-12.5,0-18.9s0-12.5,0-18.9
		c0-0.7,0.2-0.9,0.9-0.9c1.7,0.1,3.3,0.1,5,0c0.7,0,0.8,0.2,0.8,0.8c0,5.2,0,10.3,0,15.5C79.6,61.7,79.6,69.2,79.6,76.5z"/>
</g>
</svg>
