<?xml version="1.0" encoding="utf-8"?>
<!-- Generator: Adobe Illustrator 26.0.3, SVG Export Plug-In . SVG Version: 6.00 Build 0)  -->
<svg version="1.1" id="Calque_1" xmlns="http://www.w3.org/2000/svg" xmlns:xlink="http://www.w3.org/1999/xlink" x="0px" y="0px"
	 viewBox="0 0 341.6 179.2" style="enable-background:new 0 0 341.6 179.2;" xml:space="preserve">
<style type="text/css">
	.st0{fill:#FFFFFF;}
	.st1{font-family:'BauhausITCbyBT-Medium';}
	.st2{font-size:50.4628px;}
	.st3{fill:none;stroke:#DBDADA;stroke-miterlimit:10;}
	.st4{fill-rule:evenodd;clip-rule:evenodd;fill:url(#SVGID_1_);}
</style>
<rect y="0" width="341.6" height="179.2"/>
<image style="overflow:visible;enable-background:new    ;" width="190" height="120" xlink:href="F:\Amina\Logos\partenaires\logo.png"  transform="matrix(1.675 0 0 1.675 59.9953 274.8)">
</image>
<text transform="matrix(1 0 0 1 111.9068 104.5706)" class="st0 st1 st2">Bestoplast</text>
<g>
	<path class="st0" d="M76.3,27.8c-1.2-0.2-2.5-0.3-3.7-0.3H36.2c-2.7,0-5.1,1.1-6.8,2.8s-2.8,4.2-2.8,6.8c0,5.3,4.3,9.6,9.6,9.6h0.4
		v47.6c0,0.1,0,0.2,0,0.3c0.1,2.5,1.1,4.8,2.8,6.5c1.5,1.5,3.6,2.5,5.8,2.8c0.3,0,0.6,0,1,0s0.7,0,1,0c4.8-0.5,8.5-4.4,8.6-9.3
		c0-0.1,0-0.2,0-0.3V80.9h17.5c12,0,21.7-9.7,21.7-21.7v-9.4C94.9,38.7,86.9,29.5,76.3,27.8z M70.5,66H55.9V46.8h14.6
		c2.7,0,5.1,1.1,6.8,2.8s2.8,4.1,2.8,6.8C80.1,61.7,75.8,66,70.5,66z"/>
	<path class="st0" d="M35,120.7V142c-8.4-3.2-15.7-8.7-21-15.8c-1.1-1.5-2.2-3.1-3.1-4.8c-1.9-3.3-2.8-7-2.8-10.8
		c0-4.3,0.6-8.5,1.7-12.5s2.7-7.7,4.8-11.2c0.6-1,1.2-1.9,1.9-2.9c0.2-0.3,0.5-0.7,0.7-1c1.8-2.1,4.5-3.5,7.6-3.5
		c4.1,0,7.6,2.4,9,5.7c0.4,1,0.7,2.1,0.7,3.3c0,1.2-0.2,2.3-0.7,3.3v0.6c-0.3,0.4-0.7,0.8-1,1.2c-0.1,0.2-0.2,0.3-0.3,0.5
		c-0.4,0.5-0.7,0.9-1,1.4c-1.3,1.9-2.3,4-3,6.2s-1.1,4.5-1.1,6.9c0,2.1,0.6,4.1,1.8,6c0.6,0.9,1.2,1.8,1.9,2.6
		C32.3,118.3,33.6,119.5,35,120.7z"/>
	<path class="st0" d="M104.2,108.6c-0.3,1.8-0.5,3.5-0.8,5.2c-1,2.9-2.3,5.7-3.9,8.3c-7.7,13-21.7,22-37.7,22.7v-17.7
		c9.5-0.7,17.6-5.5,22.2-12.4c1-1.4,1.8-3,2.4-4.6c0.2-1,0.3-1.9,0.5-2.9c-0.2-5.3-2.3-10.2-5.6-14.2c-2.8-3.4-3.6-6.2-7.9-8l0,0
		c7.5,0,11.7-2.5,15.6-8.3c2.4,2.2,4.2,3.4,6.1,6C100.5,90.1,103.9,99,104.2,108.6z"/>
	<ellipse class="st3" cx="46.1" cy="94.9" rx="9.6" ry="9"/>
	<path class="st3" d="M34.5,88.4c0,1.2-0.2,2.3-0.7,3.3c-0.3,0.6-0.6,1.2-1,1.8c-0.1,0.2-0.2,0.3-0.3,0.5c-1.8,2.1-4.5,3.5-7.7,3.5
		c-5.3,0-9.6-4-9.6-9c0-1.6,0.5-3.2,1.3-4.5c0.2-0.3,0.5-0.7,0.7-1c1.8-2.1,4.5-3.5,7.6-3.5c4.1,0,7.6,2.4,9,5.7
		C34.2,86.2,34.5,87.3,34.5,88.4z"/>
	<g>
		
			<radialGradient id="SVGID_1_" cx="44.1003" cy="54.0398" r="21.4478" gradientTransform="matrix(1 0 0 -1 0 179.8898)" gradientUnits="userSpaceOnUse">
			<stop  offset="0" style="stop-color:#9BC8D9"/>
			<stop  offset="1" style="stop-color:#56A1D1"/>
		</radialGradient>
		<path class="st4" d="M28.3,133.7c1.1-15.6,9.8-16.7,15.9-33.7c6,17,14.8,18.2,15.9,33.7C61.6,157.6,26.6,157.6,28.3,133.7z"/>
	</g>
</g>
</svg>
