<?xml version="1.0" encoding="utf-8"?>
<!-- Generator: Adobe Illustrator 26.0.3, SVG Export Plug-In . SVG Version: 6.00 Build 0)  -->
<svg version="1.1" id="Calque_1" xmlns="http://www.w3.org/2000/svg" xmlns:xlink="http://www.w3.org/1999/xlink" x="0px" y="0px"
	 viewBox="0 0 248.7 123.9" style="enable-background:new 0 0 248.7 123.9;" xml:space="preserve">
<style type="text/css">
	.st0{fill:#005B96;}
	.st1{fill:none;}
	.st2{fill:#FFD600;}
</style>
<g>
	<path class="st0" d="M138.4,42.9c0-1.7,1.6-2.5,2.8-2.5c1.3,0,3,0.9,3,4.1v1.2C140.4,45.8,138.4,44.9,138.4,42.9 M166.2,48
		c2.8,0,5-1.3,5-4.1V32.4h-2.5v11.2c0,1.4-0.8,2.1-2.9,2.1c-0.8,0-1.6-0.1-2.2-0.3c0.1-0.4,0.3-0.9,0.3-1.4c0-1.2-0.3-2.9-0.5-4.2
		l-2.4,0.1c0.3,1.7,0.5,2.9,0.5,3.7c0,1.7-0.9,2.1-2,2.1c-0.7,0-1.3-0.1-1.7-0.3c0-0.3,0.1-0.5,0.1-0.8v-3.7h-2.5v3
		c0,1.2-0.5,1.8-1.7,1.8c-1.2,0-1.7-0.5-1.8-1.8v-3h-2.5v2.9c-0.1,1.4-0.7,1.8-1.7,1.8h-0.9v-1.6c0-4.3-2.9-5.9-5.3-5.9
		c-2,0-5.4,1.1-5.4,4.7c0,3.5,3,4.9,8,5c-0.3,1.1-2,1.8-5,1.8c-1.8,0-3.2-0.3-4.1-0.8l-1.1,2c1.2,0.7,3.7,1.1,5.5,1.1
		c3.8,0,6.4-1.4,7.2-4.1c0.4,0,0.8,0,1.1,0c1.3,0,2.2-0.3,2.9-0.8c0.8,0.5,1.8,0.8,3,0.8c0.9,0,1.8-0.1,2.5-0.5
		c0.9,0.3,2.6,0.5,3.7,0.5c0.8,0,1.7-0.1,2.4-0.5C163.1,47.8,164.9,48,166.2,48 M127.1,48c2.9,0,5-1.3,5-4.1c0-1.1-0.3-2.9-0.5-4.1
		l-2.4,0.1c0.3,1.7,0.5,2.9,0.5,3.5c0,1.4-0.8,2.1-3,2.1c-0.9,0-2-0.1-2.5-0.3c0.1-0.4,0.1-0.8,0.1-1.4c0-1.8-0.8-4.9-2.8-7.5
		l-2.4,0.8c2,2.8,2.5,5.1,2.5,6.3c0,1.1-0.4,2-2.6,2h-3.4l0.1,2.2h2.9c1.6,0,2.6-0.1,3.5-0.5C123.3,47.8,125.5,48,127.1,48
		 M175.3,47.9h2.5V32.4h-2.5V47.9z"/>
	<rect x="123.6" y="49.1" class="st0" width="2.6" height="2.5"/>
	<rect x="127.8" y="49.1" class="st0" width="2.6" height="2.5"/>
	<path class="st0" d="M121.1,71.9c-3-1.1-5.3-2.8-5.3-6.2c0-4.6,3.8-7.2,8.7-7.2c4.9,0,8.1,2.9,8.3,7.5l-3.8,0.8
		c-0.4-3.3-2-4.7-4.5-4.7c-2.2,0-4.2,1.1-4.2,3.3c0,2.1,2.1,2.9,3.8,3.5l3.9,1.4c3.4,1.2,5.8,2.9,5.8,6.6c0,4.7-4.1,7.4-9.1,7.4
		c-5.5,0-9.5-3-9.5-8.1l3.8-0.7c0.5,3.3,2.2,5.3,5.6,5.3c2.4,0,4.9-0.9,4.9-3.4c0-2.4-2.1-3-4.5-3.8L121.1,71.9z"/>
	<path class="st0" d="M165.2,73.2c-0.5-3.3-2.6-3.8-4.2-3.8c-1.8,0-3.9,0.9-4.6,3.8H165.2z M156.2,76.3c0.5,3.7,2.8,4.5,4.6,4.5
		s3.4-0.7,4.6-2.2l3.5,0.8c-1.1,3-4.1,5-8,5c-4.6,0-8.9-2.5-8.9-9.2c0-6.8,4.5-9.3,8.8-9.3s8.7,2.5,8.7,9.2v1.2h-13.3V76.3z"/>
	<path class="st0" d="M190.1,63.7c-1.6,0-2.8-1.2-2.8-2.6c0-1.4,1.2-2.6,2.8-2.6c1.6,0,2.8,1.2,2.8,2.6
		C193,62.5,191.7,63.7,190.1,63.7 M184.2,84v-3.4h3.9V69.4h-3.9V66h8v14.6h3.9V84H184.2z"/>
	<path class="st0" d="M210.1,73.8c-0.5-3.2-2.5-4.5-4.7-4.5c-1.8,0-4.3,1.1-4.3,5.6s2.5,5.6,4.5,5.6c1.8,0,4.1-0.8,4.6-3.7
		L210.1,73.8L210.1,73.8z M210.1,82.4c-1.8,1.4-3.3,1.8-4.7,1.8c-3.9,0-8.5-2.5-8.5-9.2c0-6.7,4.6-9.2,8.4-9.2c1.7,0,3.2,0.5,5,1.8
		l0.1-1.7h3.9v18c0,4.3-3.3,7.5-8.5,7.5c-4.1,0-7-1.8-8-5l3.5-0.8c1.2,1.6,2.8,2.2,4.6,2.2c2.8,0,4.3-1.6,4.3-3.9v-1.6H210.1z"/>
	<rect x="14.5" y="32.4" class="st1" width="219.7" height="59.1"/>
	<path class="st0" d="M229.9,73.2c-0.5-3.3-2.6-3.8-4.2-3.8c-1.8,0-3.9,0.9-4.6,3.8H229.9z M221,76.3c0.5,3.7,2.8,4.5,4.6,4.5
		s3.4-0.7,4.6-2.2l3.5,0.8c-1.1,3-4.1,5-8,5c-4.6,0-8.9-2.5-8.9-9.2c0-6.8,4.5-9.3,8.8-9.3s8.7,2.5,8.7,9.2v1.2H221V76.3z"/>
	<path class="st0" d="M182.5,66c-0.8-0.1-1.4-0.3-1.8-0.3c-1.6,0-3.3,0.9-4.7,2.2l-0.1-2.1H172v18h4.1V73.5c0.5-2.9,2.5-3.8,4.2-3.8
		c0.5,0,1.3,0.1,2.2,0.3C182.5,70,182.5,66,182.5,66z"/>
	<polygon class="st0" points="141,84 134.1,66 138.3,66 143,78.9 147.7,66 152,66 145.1,84 	"/>
	<polygon class="st2" points="42.6,32.4 42.6,53 14.5,53 14.5,63.4 42.6,63.4 42.6,84 53.9,84 53.9,63.4 104.5,63.4 104.5,53 
		53.9,53 53.9,32.4 	"/>
	<rect x="14.5" y="32.4" class="st0" width="28.1" height="20.6"/>
	<rect x="53.9" y="32.4" class="st0" width="50.7" height="20.6"/>
	<rect x="14.5" y="63.4" class="st0" width="28.1" height="20.6"/>
	<rect x="53.9" y="63.4" class="st0" width="50.7" height="20.6"/>
</g>
</svg>
