<?xml version="1.0" encoding="utf-8"?>
<!-- Generator: Adobe Illustrator 26.0.3, SVG Export Plug-In . SVG Version: 6.00 Build 0)  -->
<svg version="1.1" id="Layer_1" xmlns="http://www.w3.org/2000/svg" xmlns:xlink="http://www.w3.org/1999/xlink" x="0px" y="0px"
	 viewBox="0 0 248.7 123.9" style="enable-background:new 0 0 248.7 123.9;" xml:space="preserve">
<style type="text/css">
	.st0{fill:none;stroke:#009EDB;stroke-width:3;stroke-miterlimit:10;}
	.st1{fill:#009EDB;}
</style>
<g>
	<g>
		<circle class="st0" cx="64.7" cy="52.7" r="9.2"/>
		<circle class="st0" cx="64.7" cy="52.7" r="17.8"/>
		<circle class="st0" cx="64.7" cy="52.7" r="27"/>
		<circle class="st0" cx="64.7" cy="52.7" r="35.6"/>
		<circle class="st0" cx="64.7" cy="52.7" r="45"/>
		<line class="st0" x1="64.7" y1="43.7" x2="64.7" y2="7.5"/>
		<line class="st0" x1="64.7" y1="97.7" x2="64.7" y2="61.5"/>
		<line class="st0" x1="73.8" y1="52.7" x2="110" y2="52.7"/>
		<line class="st0" x1="19.4" y1="52.7" x2="55.6" y2="52.7"/>
		<line class="st0" x1="70.9" y1="46.4" x2="96.5" y2="20.8"/>
		<line class="st0" x1="58.4" y1="46.4" x2="32.8" y2="20.8"/>
		<line class="st0" x1="58.4" y1="58.9" x2="32.8" y2="84.5"/>
		<line class="st0" x1="70.9" y1="58.9" x2="96.5" y2="84.5"/>
		<path id="Laurel" class="st1" d="M30.8,11.6c-4.6,1.7-9.5,3.5-12.4,8.3c-1.7,2.7-2,6-3.3,8.8c2.5-2.4,5.5-4.1,7.6-7
			C25.1,18.3,27.5,14.6,30.8,11.6z M98.6,11.6c3.3,2.9,5.6,6.8,8.2,10.1c2.1,2.8,5.1,4.6,7.6,7c-1.4-2.8-1.6-6.1-3.3-8.8
			C108,15.2,103.2,13.3,98.6,11.6z M18.5,17.8c-2.3,0.6-4.3,2.1-6,4c-3.6,4-3.3,10-2.8,15.3c0.1,1.6,0.1,3.2-0.1,4.7
			c1.2-2.4,2.9-4.4,5.1-6c4.8-3.5,9.9-8.2,10-14.3C23,26,18.2,27.8,15,30.8c-1.6,1.5-2.9,3.4-3.7,5.5l-0.1-0.2
			c0.4-1.7,1.1-3.3,1.6-5.1C14.2,26.4,13.9,20.9,18.5,17.8L18.5,17.8z M110.9,17.8c4.6,3.1,4.3,8.7,5.7,13.3
			c0.5,1.7,1.2,3.3,1.6,5.1l-0.1,0.1c-0.8-2.1-2.1-3.9-3.7-5.5c-3.2-3-7.9-4.8-9.5-9.2c0.1,6.1,5.3,10.7,10,14.3
			c2.1,1.6,3.8,3.7,5.1,6c-0.2-1.6-0.2-3.2-0.1-4.7c0.5-5.4,0.8-11.3-2.8-15.3C115.2,19.9,113.3,18.4,110.9,17.8L110.9,17.8z
			 M8.9,26.1c-0.1,0-0.2,0.1-0.3,0.1c-3.2,4-5.3,8.4-5.3,13.9c0,6.7,3.8,11.3,4.3,17.6c1-6.6,6.5-11.2,9.3-17
			c1.1-2.3,1.8-4.7,2.1-7.3c-0.4,1.1-1.1,2-1.9,2.8c-3.7,3.5-8,7-8.9,12C8.1,49,8,49.6,7.8,50.3c-0.2,0.1-0.2-0.1-0.2-0.2L8,44
			C8.5,38,5.3,31.4,8.9,26.1L8.9,26.1z M120.6,26.1c3.4,5.3,0.3,11.9,0.7,17.9l0.5,6.1c-0.1,0.1-0.1,0.2-0.2,0.2
			c-0.2-0.7-0.3-1.4-0.4-2.1c-0.8-5-5.2-8.4-8.8-11.9c-0.8-0.8-1.5-1.7-1.9-2.8c0.3,2.5,1,5,2.1,7.3c2.8,5.7,8.3,10.4,9.3,16.9
			c0.5-6.3,4.3-10.9,4.3-17.6c0-5.4-2.1-9.8-5.3-13.9C120.8,26.2,120.7,26.1,120.6,26.1L120.6,26.1z M2.1,42.7
			c-0.6,1.6-1.1,3.3-1.4,5c-0.8,4.4,0,9,1.2,13c1.5,5,6.4,8.6,8.8,13.2l0.3,0.3c-0.3-2.5-0.6-5.2,0.2-7.5c1.1-3.8,2.4-7.5,3.1-11.4
			c0.6-3,1.2-6.5,0.8-9.5c-0.3,1.6-0.9,3.1-1.7,4.6C10.2,55.6,6.7,61.6,9,68.2c-0.1,0.1-0.1,0.2-0.2,0.1c-1-2.1-1.1-4.7-1.7-7
			C5.4,54.9,0.8,49.8,2.1,42.7L2.1,42.7z M127.3,42.7c1.4,7.2-3.3,12.2-5,18.4c-0.6,2.3-0.8,4.8-1.7,7c-0.1,0.1-0.2-0.1-0.2-0.1
			c2.3-6.6-1.1-12.7-4.4-17.8c-0.8-1.4-1.4-2.9-1.7-4.6c-0.3,2.9,0.3,6.4,0.8,9.5c0.7,3.9,2,7.7,3.1,11.4c0.7,2.4,0.5,5.1,0.2,7.5
			l0.3-0.3c2.5-4.6,7.4-8.2,8.9-13.2c1.2-4,2-8.6,1.2-13C128.4,46,128,44.3,127.3,42.7L127.3,42.7z M14.4,60.5
			c0.6,4.1-1,7.7-1.4,11.5c-0.3,3,0.2,6.1,1.5,8.9c0.3,0.8,1,1.5,1.2,2.3c-1.1-1.1-2.1-2.4-2.8-3.7C9,73.2,1,69.2,0.5,61.6
			c-0.3,3.3,0.1,6.8,1.1,9.9c1.5,4.1,4.6,7.3,8,10c3.5,2.8,7.8,5,11,7.5C20,87.4,19,86,18.6,84.2C16.6,76.5,17.7,67.6,14.4,60.5
			L14.4,60.5z M115,60.5c-3.3,7.2-2.3,16.1-4.1,23.8c-0.5,1.7-1.5,3.2-2.1,4.8c3.2-2.5,7.5-4.7,11-7.5c3.4-2.7,6.5-5.9,8-10
			c1.1-3.2,1.5-6.6,1.1-9.9c-0.6,7.5-8.6,11.6-12.4,17.8c-0.7,1.4-1.7,2.6-2.8,3.7c0.2-0.8,0.8-1.5,1.2-2.3c1.2-2.8,1.7-5.9,1.5-8.9
			C116,68.1,114.4,64.5,115,60.5L115,60.5z M18.6,73.4c2.8,5.6,1.6,12.8,5.2,18c1.2,1.6,2.6,3.2,4.2,4.6L28,96.1
			c-1.4-0.7-2.6-1.5-3.7-2.5c-6.4-5.4-15.9-6-19.7-14.6c1,6.3,6,11.8,11.4,15.4c5.1,3.3,11.7,3,17.4,4.9C28,95,27.2,88.7,24.9,83
			C23.5,79.5,21.1,76.5,18.6,73.4L18.6,73.4z M110.9,73.4c-2.5,3-5,6.2-6.4,9.6c-2.3,5.6-3.1,11.9-8.4,16.2
			c5.7-1.9,12.2-1.5,17.4-4.9c5.4-3.5,10.4-9.1,11.4-15.4c-3.8,8.6-13.3,9.2-19.6,14.5c-1.1,1-2.4,1.8-3.7,2.5l-0.1-0.1
			c1.5-1.4,2.9-2.9,4.2-4.6C109.3,86.1,108,78.9,110.9,73.4L110.9,73.4z M27.7,87c3.4,4.7,4.4,11.3,10.7,13.7
			c1.1,0.4,2.4,0.5,3.3,1.1c-1.2,0.2-2.3-0.2-3.4-0.5c-8.1-1.7-18,0.5-24.1-6.4c2.3,4.6,7,8.1,11.6,9.6c7.1,2.3,14.5-0.3,21.1-1.9
			c1-0.2,2.1-0.2,3-0.5c-3.7-0.7-7.3-1.9-10.1-4.5C35.7,93.9,32,89.9,27.7,87L27.7,87z M101.7,87c-4.4,2.9-8.1,6.9-12.1,10.7
			c-2.8,2.6-6.4,3.7-10.1,4.5c0.9,0.3,2,0.2,3,0.5c6.6,1.6,14,4.3,21.1,1.9c4.6-1.5,9.3-5.1,11.6-9.6c-6.1,6.9-16,4.7-24.1,6.4
			c-1.1,0.2-2.2,0.6-3.4,0.5c1-0.6,2.3-0.7,3.3-1.1C97.3,98.4,98.3,91.6,101.7,87L101.7,87z M58,102c-6.3,0-11.8,3-17.2,5.3
			c-5,2-11.5,1.6-15.9-1.4c2.1,2.7,5.1,4.4,8.1,5.5c5.6,2.2,12,0.5,16.8-2.5c3.4-2.1,6.4-5.3,10.4-5.3c0.7,0,1.4,0.1,2.1,0.2
			c-5.7,2.3-10.9,6.3-14.9,10.1c0.8,0.8,1.7,1.6,2.6,2.4c4.6-4.7,9.6-9.7,14.8-11.8c5.1,2.1,10.2,7.2,14.8,11.8
			c0.9-0.7,1.8-1.5,2.6-2.4c-4-3.8-9.2-7.9-14.9-10.1c0.7-0.2,1.4-0.2,2.1-0.2c4.1,0,7,3.1,10.4,5.3c4.7,3,11.2,4.7,16.8,2.5
			c3-1.1,5.9-2.8,8.1-5.5c-4.4,3-10.9,3.4-15.9,1.4c-5.5-2.3-11-5.3-17.2-5.3c-2.3,0-4.6,0.3-6.7,1C62.5,102.4,60.3,102,58,102
			L58,102z"/>
		<path class="st1" d="M73.3,20.2L73,20c0,0-0.5-0.1-0.5-0.2l0,0l0,0c0,0-0.3,0.3-0.5,0.5c0.2,0.1,0.5,0.3,0.5,0.3
			c0.3,0,0.5,0.2,0.6,0.4c0,0.1,0.5,0.1,0.5,0.1l0.1-0.3L73.3,20.2z"/>
		<path class="st1" d="M89.4,38.9L89.4,38.9L89.4,38.9C89.4,38.9,89.4,38.9,89.4,38.9z"/>
		<path class="st1" d="M71.9,20.2c0.1,0.1,0.1,0.1,0.1,0C71.8,20.1,71.7,20,71.9,20.2z"/>
		<polygon class="st1" points="71.6,21.7 71.6,21.7 71.6,22.1 72,22.2 71.9,21.7 		"/>
		<polygon class="st1" points="71,20.1 70.9,20.1 70.5,20 70.5,20.3 70.8,20.4 71.2,20.8 71.4,20.6 71,20.1 		"/>
		<path class="st1" d="M76.7,26.2c-0.2,0-0.6-0.3-0.6-0.5c0.1-0.2-0.8-0.3-0.8-0.3s-0.8-0.7-0.5-0.7c0.3,0.1,0.1-0.3,0.1-0.3
			c-0.2,0.1-0.5,0.1-0.7,0.1c-0.1-0.1-0.1-0.5-0.1-0.5c-0.2-0.1-0.3-0.1-0.5-0.1l0,0c-0.1,0-0.1,0-0.1,0.1c0,0.1,0.2,0.1,0.3,0.4
			c0.1,0.3,0.1,0.7,0.5,0.8c0.4,0.1,0.5,0.2,0.6,0.3s0.6,0.2,0.6,0.2l0.3,0.2l1.1,0.9v-0.3C77.1,26.5,77,26.2,76.7,26.2z"/>
		<path class="st1" d="M85.7,19.8l0.7,0.2c0,0,0.8,1,0.8,0.5c-0.1-1.4-0.7-1.4-1-1.7c-0.1-0.1-0.2-0.1-0.3-0.1l0,0
			c-0.3,0-0.9,0.2-0.8,0.5C85.2,19.5,85.5,19.7,85.7,19.8z"/>
		<path class="st1" d="M89.4,38.9L89.4,38.9L89.4,38.9z"/>
		<path class="st1" d="M88.3,35.6c-0.1,0.2,0,0.3,0.2,0.4c0.1,0,0.1,0,0.1,0c0.2,0,0.3,0.1,0.5,0.2c0.2,0.1,0.3,0.2,0.5,0.4l0.5-0.1
			c0,0,0.1-0.5-0.1-0.3c-0.2,0.1-0.3-0.3-0.5-0.3c-0.2,0.1-0.3-0.2-0.5-0.4c-0.2-0.2-0.1-0.3-0.3-0.4c-0.1-0.1-0.2-0.1-0.3-0.1l0,0
			c-0.1,0-0.1,0.1-0.1,0.1C88.2,35.3,88.4,35.3,88.3,35.6z"/>
		<polygon class="st1" points="71.9,19.4 71.6,19.3 71.6,19.3 71.4,19.7 71.7,19.8 		"/>
		<path class="st1" d="M89.6,37L89.6,37L89.1,37c0.1,0.2,0.4,0.3,0.4,0.5c0,0.2-0.1,0.3,0.2,0.3c0.2,0,0.5-0.1,0.6,0.2
			c0.1,0.3,0.1,0.5,0.1,0.8c-0.1,0.2,0.1,0.5,0.3,0.5s0.3,0.1,0.3,0.2c0,0.1,0.3-0.5,0.3-0.5c-0.2-0.2-0.3-0.4-0.4-0.6
			c0,0-0.2-0.7-0.2-0.7s-0.3-0.2-0.5-0.2C89.9,37.4,89.7,37.2,89.6,37z"/>
		<polygon class="st1" points="86.4,33.6 86.4,33.1 86.4,33.1 86.1,33.2 86.1,33.6 		"/>
		<polygon class="st1" points="92.3,48.2 92.5,48.3 92.7,48 92.4,47.9 		"/>
		<path class="st1" d="M91.2,40.5c-0.1,0.1-0.2,0.3-0.3,0.4c-0.1,0.1,0.3,0.3,0.3,0.5c0,0.1,0.1,0.8,0.1,0.8s0.3,0.1,0.3,0.3
			s0,0.6,0.1,0.6c0.1,0.1,0.4,0.2,0.3,0.4c-0.1,0.2-0.1,0.4-0.1,0.6l0.2,0.4l0.3,0.2c0,0,0.1-1.1-0.1-1.1s-0.1-0.7-0.1-0.7
			s0.2-0.9-0.1-0.9c-0.3,0-0.1-0.5-0.3-0.6c-0.2-0.2-0.1-0.8-0.2-1c-0.1-0.2-0.1-0.4-0.3-0.6h-0.1l0,0C91,40,91.3,40.5,91.2,40.5z"
			/>
		<polygon class="st1" points="92.8,46.6 92.6,46.6 92.6,46.6 92.6,47 92.8,47.1 		"/>
		<path class="st1" d="M84.4,38.1c0,0-0.1,0.8-0.3,1.1h-0.6c0.1,0.1,0.2,0.3,0.3,0.4c0.1,0.1,0.5,0.4,0.1,0.6
			c-0.3,0.2,0.1,0.1,0.1,0.1s-0.1,1-0.5,0.8c-0.4-0.1-0.6,0.5-0.6,0.7c0,0.2,1.6,0.2,1.4,0c-0.1-0.1,0.2-0.5,0.2-0.5
			s1.1,0.1,1.3,0.1c0.2,0,0.4-0.1,0.3-0.3c-0.1-0.2-0.6-0.2-0.6-0.2c-0.3,0.1-0.7,0-1-0.1c-0.5-0.3,0.1-0.3,0.2-0.3
			c0.1,0,0.5-0.3,0.3-0.6c-0.2-0.2,0-0.7,0-0.5s0.5,0.3,0.6,0.1c0.1-0.2,0-0.5-0.2-0.7c-0.2-0.1,0.4-0.2,0.2-0.5
			c-0.1-0.2-0.2-0.3-0.3-0.5l0,0C85,38.2,84.7,38.2,84.4,38.1z"/>
		<path class="st1" d="M91.9,71.8l-0.1,0.3c0.1,0,0.1,0,0.1,0.1l0.1,0.2l-0.1,0.1l0.2,0.2c0.1-0.1,0.2-0.3,0.2-0.5
			C92.2,72,92.1,71.9,91.9,71.8z"/>
		<path class="st1" d="M91.9,72.1"/>
		<polygon class="st1" points="92.3,71.2 92.7,71.2 92.7,70.8 92.3,70.8 		"/>
		<path class="st1" d="M92.3,70.8"/>
		<path class="st1" d="M89.4,57.4c0.2,0.1,0.3,0.1,0.2-0.4c-0.1-0.2-0.2-0.3-0.4-0.2l0,0c-0.4,0-0.8,0.2-0.7,0.5
			C88.8,57.5,89.2,57.3,89.4,57.4z"/>
		<rect x="83.8" y="66.1" class="st1" width="0.3" height="0.9"/>
		<path class="st1" d="M59.8,21.8c0,0,0.7,0.1,0.7,0.2s0.5,0.2,0.6,0.1c0.1-0.1,0.2-0.4-0.2-0.4s-0.3-0.2-0.5-0.4
			c-0.1-0.1-0.3-0.1-0.6-0.1c-0.2,0.1-0.5,0.1-0.5,0.1C59.5,21.5,59.8,21.8,59.8,21.8z"/>
		<polygon class="st1" points="44.9,12.9 44.4,12 44.4,12 		"/>
		<polygon class="st1" points="48.5,24.2 48.3,24.4 48.6,24.6 48.8,24.5 		"/>
		<path class="st1" d="M49.1,21.2l-0.5-0.9l0,0L49.1,21.2z"/>
		<polygon class="st1" points="79.6,40.9 79.6,41.1 80.1,41.1 80.1,40.8 		"/>
		<polygon class="st1" points="89.5,51.2 89.9,51.2 90,50.9 89.5,50.9 		"/>
		<rect x="86.1" y="39.4" class="st1" width="0.3" height="0.3"/>
		<polygon class="st1" points="87,39.7 86.8,39.6 86.8,39.6 86.6,39.8 86.9,40 		"/>
		<polygon class="st1" points="85.4,37.4 85.3,37.1 84.8,37.2 84.8,37.5 		"/>
		<polygon class="st1" points="72.5,10.8 72.6,10.8 73.1,10.4 72.9,10.2 72.9,10.2 72.5,10.5 72.2,10.3 72.1,10.6 72.4,10.8 		"/>
		<rect x="85.6" y="37.5" class="st1" width="0.3" height="0.2"/>
		<path class="st1" d="M80.1,40.8"/>
		<polygon class="st1" points="81,41.5 80.8,41.9 81.1,42 81.2,41.6 		"/>
		<path class="st1" d="M81.7,42.3c-0.2,0-0.3,0-0.5,0.1c-0.2,0.1-0.2,0.2,0,0.5l0.6-0.1c0,0,0.4-0.2,0.3-0.3
			C82.1,42.2,81.9,42.3,81.7,42.3z"/>
		<polygon class="st1" points="88.3,51.3 88.2,51.3 87.9,51.6 87.6,51.3 87.4,51.6 87.8,51.8 87.9,51.8 87.9,51.8 88.2,51.7 
			88.2,51.8 88.5,51.7 88.4,51.4 		"/>
		<path class="st1" d="M77.5,41.6"/>
		<path class="st1" d="M62.1,59.1L62.1,59.1l-0.4,0.1l0.1,0.7l0.3,0.2l0.5,0.1c0,0,0.7-0.2,0.7-0.7l-1.1-0.1L62.1,59.1z"/>
		<path class="st1" d="M66,55.9c0.2,0.1,0.1-0.7,0.1-0.7l0,0l-0.8,0.6c0.4,0.1,0.5,0.5,0.5,0.7C65.8,56.9,65.8,55.8,66,55.9z"/>
		<polygon class="st1" points="68.5,68.6 68.7,68.1 68.5,67.9 68.5,67.9 68.2,68.2 68.3,68.3 		"/>
		<polygon class="st1" points="74,66.5 73.8,66.3 73.5,66.5 73.6,66.8 		"/>
		<path class="st1" d="M68.6,55.9c0.2,0.1,0.6-0.2,0.3-0.3c-0.7-0.5-0.6-1.1-0.8-1.5c-0.1-0.1-0.1-0.2-0.2-0.2l0,0
			c-0.1,0-0.2,0.1-0.2,0.2v0.6C68,55.1,68.3,55.5,68.6,55.9z"/>
		<path class="st1" d="M72.3,63.2"/>
		<polygon class="st1" points="61.2,50.7 60.7,50.6 60.7,50.6 60.6,50.8 60.4,50.8 60.3,51.2 60.6,51.2 60.7,51.5 60.5,51.7 
			60.4,51.9 60.1,52 59.2,52.8 59.2,53.1 58.9,53.5 58.7,54.1 57.6,54.2 57.5,55.1 57.6,55.8 58.4,56.1 58.5,55.7 58.8,55.5 
			58.9,55 59.1,54.7 59.3,54.3 59.4,54 59.9,53.7 60.5,53.6 60.7,53.3 60.7,52.8 60.8,52.3 61,52.1 61.5,51.8 61.5,50.9 61.2,50.9 
					"/>
		<path class="st1" d="M64.6,43.9"/>
		<path class="st1" d="M45.6,57.3L45.6,57.3c-0.1,0-0.2,0.1-0.2,0.2l0,0l0,0c0,0.1,0.1,0.2,0.2,0.2l0,0c0.1,0,0.2-0.1,0.2-0.2
			C45.8,57.4,45.7,57.4,45.6,57.3z"/>
		<path class="st1" d="M47.7,55.6"/>
		<path class="st1" d="M63.5,62.8c0,0-0.2,0.3-0.5,0c0-0.1-0.1-0.1-0.1-0.1l0,0c-0.2,0-0.4,0.7-0.5,0.8c0,0,0.1,0.4,0.3,0.3
			c0.2-0.1,0.3-0.1,0.5-0.2c0.2-0.1,0.2-0.3,0.3-0.6C63.6,63.1,63.6,62.9,63.5,62.8z"/>
		<path class="st1" d="M69.1,80.1"/>
		<path class="st1" d="M85.4,75c-0.2-0.1,0.2,0.2,0.3,0.4c0.1,0.1,0.2,0.2,0.3,0.1c0.1,0,0.1-0.1,0.1-0.1c0.1-0.2,0.1-0.4,0.1-0.6
			l-0.3-0.3C85.8,75,85.5,75.2,85.4,75z"/>
		<path class="st1" d="M89.6,75.7l-0.2-0.2l-0.1-1.1c0.2-0.6-0.9-1.5-1-1.3c-0.1,0.2-0.7,0.1-0.7,0.2s-0.3,1.1-0.2,1.4
			c0,0,0,0,0,0.1l-0.4,1.1c-0.1,0.2-0.2,0.5-0.2,0.6l0,0l0.4,0.2l0.1,0.8c0.3,0.3,1,0.3,1.5,0.2l0.7-0.8
			C89.6,76.3,89.6,75.7,89.6,75.7z"/>
		<path class="st1" d="M63.8,62.4L63.8,62.4c0,0-0.2,0.5,0,0.5C64,63,64,63,64.1,63.2L64,63.4c-0.2-0.2-0.3,0.2-0.2,0.3
			s-0.2,0-0.2,0.2c0,0.2-0.1,0.2,0,0.3c0.1,0.1,0,0.1-0.2,0.2c-0.2,0.1,0.6,0.1,0.6,0.1s-0.1-0.3,0-0.3H64l0.1-1.8L63.8,62.4z"/>
		<path class="st1" d="M75.8,40c0-0.2-0.5-0.4-0.4-0.1S75,40.2,75,40.2s-0.3,0.3-0.3,0.3c0,0.1-0.1,0.3,0.2,0.4
			c0.3,0.1,0.8-0.2,0.8,0.1c0,0.1,0,0.2,0.1,0.2l0.8-0.8C76.3,40.2,75.8,40.1,75.8,40z"/>
		<path class="st1" d="M78.9,41.3c0-0.2-0.6-0.9-0.8-0.9l0.8,1C78.9,41.3,78.9,41.3,78.9,41.3z"/>
		<path class="st1" d="M77.5,41.4L77.5,41.4l0.5,0.1l-0.8-0.9l-0.8,0.8h0.2C77,41.5,77.5,41.4,77.5,41.4z"/>
		<path class="st1" d="M78.7,42.5"/>
		<path class="st1" d="M60,71.3l-0.4,0.1l-0.3,0.4l-0.6,0.2l-0.1,1l-0.3,0.2v0.4L58,73.5v0.2l-0.5,0.1l0.3,0.7l0.3,0.2
			c0.6,0.1,0.3,0.9,0.3,0.9l0.3,0.1l0.2,0.5l0.3,0.7c0.1,0.6,0.6,0.4,0.7,0.4c0.2,0,0.3,0.6,0.3,0.6l1.8,0.1c0,0-0.1,0.2,0.2,0.3
			c0.5,0.1,1,0.1,1.5,0.1l1.1-0.3c0.2-0.1,0.5-0.2,0.8-0.2c0.3,0,0.5,0.1,0.8,0.2c0.3,0.2,0.8,0.3,1.2,0.1l0.5,0.6l0.6,1l0,0L69,80
			l0.8,0.2l0.6,0.1l0.2,0.8l0.4,0.1l0.1,0.5c0.5,0.3-0.1,1.1-0.1,1.1v1l0.3,0.2l-0.1,0.4l0.6,0.6l0.7,0.1l1.1,1.2l1.2,0.8l0.8,0.2
			l0.2,0.7l0.3-0.1l0.3-0.2l1.1-0.1l0.6-0.5l0.6-0.1l4.3-3.7l0.3-1.5v-0.5c0.8-0.6,0.9-1.7,0.1-1.7c-0.6-0.1-0.3-0.7,0.2-0.8
			l0.3-0.1v-0.4l1-1v-0.7l-2.3-1.9c-0.5-0.2-0.5-0.7-0.3-1.3l1.2-2.7c-0.1-0.7-0.2-1.3-0.3-2L83,68.7l0.1-1.1h-0.5l-0.8,1.1
			l-0.1,0.3l-0.6,1c-0.8,0.3-1.7,0.3-2.6,0.1c-0.3-0.2-0.7-0.4-1.1-0.6c0,0-0.7-0.6-0.8-0.4c-0.1,0.2-0.8-0.2-0.8-0.1
			s-0.6-0.3-0.6-0.3l-0.9-0.3l0.7-0.1l-0.1-0.5c0,0,0.1,0,0.1-0.1l0,0l1.1,0.6c0.1,0.2,0.7,0.1,0.7,0.1l0.2,0.2
			c0.2,0,0.5,0.1,0.6,0.2c0.2,0.3,1.4,0.1,1.4,0.1l0.3,0.3l0.5,0.2h0.8l0.7-0.9l0.2-0.2l-0.1-0.6l0.3-0.3v-0.5l0.3-0.1l0.1-1
			l0.2-0.1v-2.2L81.7,63c-0.1,0.2-0.8,0.2-0.8,0.2s-0.2,0.3-0.3,0.3s0.2,0.4,0.1,0.7c-0.1,0.3-0.5,0.3-0.5,0.3l-0.7,0.2l-0.2,0.2
			h-0.7l-0.1-0.4c0.1-0.1,0.1-0.2,0.2-0.3l0.6-0.2l0.5-0.2l0.2-0.5c0.1-0.5,0.6-0.4,0.6-0.4s1-0.8,1.1-1.3c0.1-0.5,0.4-1.6,1-1.6H84
			c0.5-0.2,0.3-0.8,0.3-0.8l0.6-0.1l0.1,0.3c0,0,0.8,0.1,0.9-0.1c0.1-0.1,0.3-0.5,0.5-0.3s1-0.3,1-0.3c0.1-0.3,1.2-0.2,1.2-0.2
			l0.1-0.4c0,0-0.8-1.1-0.9-1.1c-0.1,0-0.9-0.7-1-0.4c-0.7-0.2-0.7-1.2-0.7-1.2L85.9,55c0-0.4-0.7-1.1-0.8-1.1
			c-0.2-0.1-0.3-0.4-0.3-0.6l0,0l0.9-1.1c0.1-0.1,0.1-0.1,0.1-0.1l0.2-0.7l0.8-0.2l0.1-0.6h-0.2c0,0,0.5-0.8,0.7-0.8
			c0.6,0,1.2,0,1.9-0.1c0.2-0.3,0.3-0.6,0.4-1c0-0.1,0.3-0.2,0.5-0.2c0.2-0.2,0.5-0.3,0.6-0.6c0.1-0.2-0.2-1.4-0.4-1.1
			c-0.2,0.1-0.4,0.2-0.6,0.3l-0.1,0.5l-0.2,0.2c0.1,0.2,0.1,0.3,0,0.5c-0.1,0.3-0.5,0.5-0.5,0.5l-0.2,0.2c-0.4,0.1-0.8,0.1-1.2,0
			c-0.2-0.1-0.3-0.3-0.2-0.5c0.1-0.1,0.2-0.2,0.3-0.2c0.3,0.1-0.1-0.8-0.1-0.8l0.3-0.1c0,0,0.1-0.8,0.2-0.8c0.1,0-0.1-0.3-0.2-0.4
			c-0.2-0.1-0.4-0.6-0.6-0.6c-0.3,0.1-0.6,0.1-0.9,0L86,45.8l-0.5,0.1c0,0,0.1,0.3-0.1,0.5c-0.3,0.3-1.3,1-0.9-0.1l0.1-0.3v-0.4
			l-0.8-0.1c0,0-0.4-0.1-0.4-0.3c0-0.1,0-0.3-0.1-0.4l-1-1.1l-1.1-0.1l-0.1-0.2l-0.7-0.1c-0.1-0.1-0.2-0.1-0.3-0.1l-1.1,0.3
			c-0.1,0.1-0.1,0.3,0,0.5c0.1,0.7,0.3,1-0.1,1c-0.2,0.1-0.5-0.1-0.6-0.3c0,0-0.3-0.1-0.3,0.1c0,0.2-0.1,0.6,0,0.7
			c0.1,0.2-0.2,0.5-0.3,0.3s-0.5-0.6-0.4-0.7c0.1-0.1-0.6-1,0.1-1.1c0.7-0.1-0.1-0.6,0.2-0.7l0.3-0.2h0.3l0.2-0.2l0,0l-0.6-0.1
			l-0.3-0.1l-0.7-0.1c-0.4,0.2-0.7,0.6-0.8,1c-0.3,0.6-1,0-1-0.5l-1.6-0.1c-0.2,0-0.3,0-0.5,0c-0.1,0.4-0.8-0.1-0.6-0.3
			c0.1-0.1,0.2-0.3,0.2-0.5l-0.2-0.1l-0.3,0.5c-0.6,0-0.8,0.3-0.7,0.6c0.1,0.2-0.2-0.1-0.3,0.3c-0.1,0.3,0.1,0.3,0.3,0.5
			c0.3,0.1-0.1,0.1,0.1,0.3c0.2,0.2,0.4,0.1,0.5,0.1l-0.3,0.3c-0.2,0.1-0.5,0.1-0.7,0c0,0.1-0.1,0.2-0.1,0.2
			c-0.7-0.6-1.5-1.1-2.4-1.5c0.1-0.1,0.4-0.1,0.5-0.4c0.1-0.5,0.2-0.9,0.3-1.4c0,0-0.7-0.1-0.8,0.2c-0.1,0.2-0.5,0.3-0.5,0.3
			s-0.3,0.1-0.2,0.3c0.1,0.2-0.3,0.3-0.3,0.3c0,0.1,0,0.2,0,0.2l-2.9,0.7l0,0l0.1,1.1l-0.5-0.2H64l-0.1-0.3l-0.3-0.1v1l0.3,0.2
			l0.2,0.2l0.5,0.1l0.1,0.6l1.1,0.1l0.1,0.2l0.7,0.1l1.3,1.4l-0.1,0.4l-0.2,0.1c0.1,0.3-0.6,0.1-0.6,0.1v0.5l0.3,0.1l0.3,0.2
			l0.5-0.8c0.5-0.3,0.7,0.1,0.8,0.4c0.1,0.3-0.2,0.2-0.2,0.2V50l0.3,0.1c0.2,0.2,0.2,0.6-0.1,0.8c-0.1,0.1-0.1,0.1-0.1,0.1l-0.1,0.5
			c-0.1,0.4-0.6,0.3-0.6,0.3L67.8,52l-0.6,0.1l1.1,0.1c0.1-0.4,0.4-0.5,0.5-0.3c0.1,0.2,0.1,0.3,0.1,0.5l0.3,0.1L69.1,53l0.3,0.1
			v1.5l0.3,0.3c0.6-0.2,0.6,0.1,0.3,0.3c-0.3,0.2-0.1,1-0.1,1l-0.2,0.2v0.4L69.5,57v0.5c-0.3-0.2-0.8-0.2-1.1,0
			c-0.4-0.3-1.3-0.2-1.3,0.1c0.3,0.3-0.3,0.5-0.3,0.5l-0.3,0.3c0.2,0.5-0.2,0.5-0.2,0.5V60l-0.6,0.5v0.8l1.4,0.8l0.1,0.1h0.4V62
			L67.2,61v-1l0.5-0.5h0.1l0,0c0.4,0,0.3,1,0.3,1.2v1.1l0,0c0,0.1,0,0.2,0.1,0.2l0.2,0.1l-0.4,0.3l-0.3,0.4l-0.5-0.1l-0.6-0.1
			l-0.2-0.3L66,62.3L66,62.9l-0.2,0.3l-0.6,0.6c0.6,0,0.2,0.3-0.1,0.5L64,64.6c-0.1,0-0.1,0-0.2-0.1v0.3l-0.3,0.1l0.3,0.3h0.2v0.8
			c0,0.6-1.5,0.2-1.6,0.1L62.4,67L62.1,67l0.1,0.6l-0.1,0.8l0.5-0.1v0.3l1.2,0.1l0.2-0.2l1.1-1.1l0.5-0.5l1.1-0.2
			c0.1-0.5,0.6,0.1,0.6,0.1c0.5-0.1,0.6,0.3,0.6,0.3l0.6,0.1c0.5,0.1,0.2,0.2,0.2,0.4s0.3,0.2,0.3,0.2L69,67l0.3,0.1L69,66.7
			l-0.5-0.2l-0.6-0.2c-0.3-0.5,0.1-0.4,0.5-0.3H69c0.3,0.3,0.5,0.7,0.7,1.1c0,0.2,0.3,0.3,0.3,0.3l0.4-0.1l0.1,0.3h0.4l0.1,0.3h0.8
			l0.1-0.5l-0.8-0.1l-0.1-0.5l-0.6-0.1c-0.2-0.8,0.1-1,0.3-0.7l0.3,0.1l-0.1-0.7l0.3-0.1l-0.1-1l-0.3-0.1v-0.5l1.1,0.1
			c-0.1-0.3-0.1-0.6,0.1-0.9h0.3l0.1,0.2l1.4,0.1h0.1c0.6,0.3,0.3,0.7,0.1,0.8c-0.2,0.1-0.3,0.1-0.5,0.1l-0.1,0.2l-1.2,0.1L72.3,65
			c-0.3-0.1-0.7,0.2-0.7,0.6c0,0.1,0,0.2,0.1,0.3c0.1,0.2,0.1,0.4,0,0.6l0.5,0.2l0.6-0.2c0.1-0.5,0.5-0.6,0.9-0.8s1,0.5,0.8,0.9
			c0,0.1,0,0.1-0.1,0.1c-0.7,0.5-1.4,0.9-2.2,1.3l0,0c-1.2,0.6-2.5,1-3.8,1.3h-0.1l-0.5-0.1l-0.1-0.7c-0.1-0.5-1-0.5-0.9-0.1
			c0.1,0.3-1.6,0.1-1.6,0.1l-1.1,0.8l-0.8,0.1l-0.3,0.2l-0.1-0.3h-0.3l-0.2,0.3l-1.8,0.8c-0.1,0.1-0.2,0.2-0.1,0.2
			C60.4,71,60,71.3,60,71.3z M74.4,61.6c0-0.3,0.1-0.7,0.1-0.8s0.3-0.3,0.5-0.3l0,0c0.1,0,0.2,0.1,0.2,0.2c-0.1,0.2-0.1,0.4,0,0.6
			c0.6-0.6,1.1,0.1,1,0.2c-0.1,0.1,0.3,0.3,0.6,0.1c0.2-0.2,0.5,0.4,0.4,0.7c-0.1,0.3-0.9,0.2-1-0.1c-0.1-0.3-0.2-0.2-0.3-0.1
			c-0.2,0.1-0.4,0.2-0.6,0.1l-0.2-0.2c0-0.1,0.1-0.1,0-0.2C75,62,75,62,74.9,62L74.4,61.6z"/>
		<path class="st1" d="M98.2,36.1c0,0-0.6-0.5-0.6-0.7S97,34.7,97,34.5c0-0.2-0.6-0.6-0.6-0.7s-0.3-0.7-0.3-0.7l-0.7-0.7L95.3,32
			L94.8,32l-1.1-1.4l0.1-0.4l-0.3-0.1v-0.6L93,29.4l-0.5-0.1l-1-1.1l-0.1-0.5h-0.5l0.1-0.8l-0.3-1.2c-0.2,0.1-0.3,0.1-0.5,0
			c-0.3-0.1,0.1-0.5,0.1-0.5V25L90,24.7c0,0-0.8,0.1-0.8-0.1c-0.1-0.1-0.2-0.7-0.2-0.7L89,23.1L88.6,23l-0.1-0.3l-0.5,0.1v-0.6
			l-0.3-0.1L87.5,22l-0.1-0.6l-1-0.1L86.1,21l-0.3-0.6l-1.1-0.1l-0.3-0.3L83.9,20l-0.3-0.1l-0.1,0.2l-0.9,0.1l-0.1,0.3
			c-0.5,0.1-1.1,0.2-1.6,0.1L80,21.4c-0.1,0.2-0.1,0.3-0.2,0.3c-0.2,0-0.1,0.6-0.1,0.6c0.3,0,0.5,0,0.8,0.1c0.2,0.1,0.2,0.5,0.2,0.5
			c0.7-0.1,1,0.9,0.8,1.1c-0.1,0.2,0.3,0.2,0.3,0.2c0,0.3,0,0.6-0.1,0.9c-0.1,0.2,0.6,0.3,0.8,0.6c0.1,0.5,0.1,0.9-0.2,1.3
			c-0.1,0.1,0.3,0.2,0.3,0.4s0.1,0,0.2,0.4s0.1,1.1,0.1,1.1l0.6,0.1c0.1-0.6,1.2-0.6,1.5-0.6c0.7,0.4,1.2,1,1.4,1.7
			c0,0.3-0.5,0.3-0.5,0.3v0.1l0.3,1.2c0.6,0.4,1.1,1.2,1,1.4c-0.1,0.2,0.6,0.1,0.6,0.1c0.1-0.8,0.9-0.6,0.9-0.3
			c0,0.3,0.2,0.8,0.2,0.8l0.2,0.4l0.3,0.3l0.5-0.1l0.1,0.3l0.6,0.1c0.2,0.2,0.4,0.5,0.6,0.7c0.1,0.1,0.7,0.1,0.9,0.1
			s0.5,0.2,0.5,0.4c0.1,0.2,0.2,0.4,0.3,0.6c0,0,0.6,0.1,0.6,0.3s0.2,0.4,0.3,0.6l0.5,0.4l0.1,0.4l0.5,0.1l0.1,0.6l0.8-0.1l0.5-0.3
			c0.1-0.1,0.3-0.2,0.4-0.2l0.7-1c0.1-0.2,0.2-0.5,0.5-0.4C98.5,37.3,98.2,36.1,98.2,36.1z"/>
		<path class="st1" d="M92,47.8c-0.1-0.1,0.1-0.8,0.1-0.8c0.1-0.2,0.1-0.5,0-0.7c-0.1-0.3-0.1-0.7,0.2-1l-0.3-0.2l-0.3-0.1l-0.3,0.1
			c-0.1-0.3-0.2-0.6-0.3-0.9l0,0l0.2,0.1V44L90.9,44c-0.1-0.2-0.1-0.4-0.2-0.6l-0.1-1l-0.3-0.2l0.1-0.3l-0.3-0.1l0.2-0.6L90,40.5
			h-0.5c-0.2-0.5-0.5-0.9-0.7-1.3c0.1-0.1,0.1-0.1,0.2-0.1c0.2-0.1,0.3-0.1,0.3-0.1l0,0l-0.1-0.5l-0.4-0.3l-0.1-0.6
			c0,0-0.5,0.1-0.5,0.3c0,0.1-0.1,0.1-0.1,0.1c-0.3-0.5-0.7-1-1-1.5v-0.1c0.2-0.3,0.1-0.5-0.2-0.6c-0.3-0.1-0.3-0.1-0.4-0.5
			c-0.1-0.2-0.2-0.4-0.5-0.5l-0.1-0.6l-0.3,0.2c-0.2-0.2-0.3-0.4-0.6-0.6l0.2-0.5c-0.2,0-0.3-0.1-0.3-0.2l-0.5-1
			c-0.2-0.1-0.3-0.2-0.4-0.1c-0.2,0.1-0.1-1-0.1-1s0.4-0.3,0.6-0.1c0.2,0.2-1.5-2.3-1.9-2.1c-0.4,0.2-1.2-0.2-1.1-0.7
			c0.1-0.5-1.6-1.8-1.6-1.8s-0.6-0.3-0.6-0.1c-0.1,0.3-0.3,0.5,0,0.6c0.3,0.2,0.2-0.2,0.6,0.1s0.9,0.7,0.7,1
			c-0.1,0.2-0.3,0.3-0.5,0.3l0.3,0.4h0.5l0.1,0.8c0,0,0.6,0.3,0.7,0.6c0.1,0.2,0.1,0.3,0.1,0.5L81.3,32c0.1,0.2,0.2,0.4,0.4,0.5h0.2
			l0.5,0.3v0.4c0.4,0,0.7,0.2,0.9,0.6l0.8,0.8l0,0c0.2,0.2,0.2,0.2,0.5,0.5c0.1,0.1,0.2,0.1,0.2,0.1c0.1,0.2,0.3,0.3,0.5,0.5
			l-0.1,0.1c0,0.5,0.2,0.4,0.5,0.3c0.1,0.1,0.1,0.2,0.2,0.3c0,0.3,0,0.7,0.5,0.7l0,0c0.6,0.8,1.1,1.6,1.6,2.4v0.1l0,0
			c0.1,0.1,0.2,0.3,0.2,0.4c-0.1,0.1-0.1,0.1-0.2,0.2l-0.7,0.1v0.7L86.9,41l0.1,0.5l0.5-0.1c0,0,0,0.6,0.1,0.3
			c0.1-0.2,1.3,0.1,1.2,0.6c0,0.2,1.1,0.8,1,1.6c0.1,0,0.2,0.1,0.2,0.1c0.2,0.6,0.4,1.3,0.6,1.9L90.5,46c0.1,0.1,0.1,0.1,0.2,0.1
			c0.1,0.6,0.3,1.1,0.3,1.7c0,0.5-0.1,1-0.4,1.1c-0.6,0.3,0.1,0.1,0.1,0.1l-0.1,1c0.1,0.5,0.3,0.2,0.5,0c0.1-0.1,0.1-0.2,0.2-0.3
			l0.9-1.7C92.1,48.1,92.1,47.9,92,47.8z"/>
		<path class="st1" d="M78.3,28.3c-0.1-0.3,0.3-0.5,0.6-0.1l0.5-0.1l0.1-0.4l-0.6-0.5h-0.5c0,0-0.1,0.3-0.3,0.2
			c-0.1-0.1-0.3-0.1-0.4-0.1c-0.2-0.1-0.2,0.5-0.1,0.7l1,0.5C78.3,28.5,78.3,28.4,78.3,28.3z"/>
		<path class="st1" d="M65.5,20.6c0.1-0.2,0.1-0.2,0.3-0.3c0.3-0.1-0.1-0.6-0.3-0.6c-0.2,0.1-0.4,0-0.5-0.2v1.2
			C65.3,20.9,65.4,20.8,65.5,20.6z"/>
		<path class="st1" d="M59.1,59.2c0.1-0.2,0.3-0.3,0.6-0.4l0.1-0.3l1.2,0.1c0-0.2,0.2-0.3,0.4-0.3c0.1,0,0.2,0.1,0.3,0.2
			c0,0.2,0.5,0.1,0.5,0.1l0.3-0.5H63l0.1-0.6l0.2-0.1v-0.8c0.4-0.1,0.7-0.5,0.6-1l0.2-0.2L64,54.9c-0.3-0.1-0.2-0.5,0.1-0.4
			c0.3,0.1-0.3-0.4-0.3-0.4c-0.3,0.2-0.5-0.3-0.5-0.3h-0.7v-0.7l-0.1-0.6l-0.7-0.3l-0.5,0.5l-0.1,0.7v0.4l-0.5,0.1l-0.1,1.2
			l-0.3,0.1l0.1,0.5l-0.5,0.1l-0.5,0.1l-0.1,0.6L59,56.6l-0.2,0.6l-0.2,1.3l0.6,0.5C59.1,59.3,59,59.2,59.1,59.2z"/>
		<path class="st1" d="M63.2,46.3c-0.6,0,0-0.4,0-0.4l0.1-0.7h-0.5l-0.1-1l-1.4-0.7l-0.1-0.5l0.2-0.1l-0.3-0.1l-0.3,0.3l-0.1,0.4
			l-0.5,0.1v0.2h-0.3V44c-0.7,0.3-1.3,0.8-1.9,1.3h-1.5h-0.5c-0.2,0.4-0.6-0.1-0.6-0.1c-0.1-0.3-0.7,0-0.7,0c0,0.5-0.8-0.2-0.8-0.2
			l-1.6-1.1c-0.9-0.8-2.3,0.2-2.3,0.5c0,0.3-0.3,0.3-0.6,0.3l-1.1-0.2c-0.2,0-0.4,0-0.5,0.2c-0.2,0.3-0.8,0.3-0.8,0.3L47.1,45
			L46.7,45l-0.2,0.3l-0.6,0.1l1.4-0.1c0.3-0.1-0.1,0.8-0.3,0.7l-0.6,0.1L46,46.4h-0.6l-0.3,0.4l-0.8-0.1c0,0-0.5,0.4-0.5,0.6
			c0.1,0.2-0.1,0.6-0.2,0.6c-0.2,0-0.4,0.4-0.3,0.6c0.1,0.2-0.3,0.6-0.3,0.6l-0.1,0.5l-0.3,0.1v1.2l-0.6,0.3v0.6l-0.2,0.3l-0.5,1.1
			v0.2l-0.7,0.7l0.1,0.7l-0.5,0.1l-0.1,0.3L40,56.3l0.5,0.1c0.2-0.1,0.2,0.6,0,0.7c-0.2,0.1-0.7,0.3-0.4,0.5
			c0.3,0.2-0.7,0.1-0.7-0.1s-0.6-0.5-0.7-0.4c-0.1,0.1-0.2-0.1-0.3-0.2l-1.1-0.4c-0.3,0.1-0.7,0.1-1,0.2L36,57.4
			c-0.5,0.1-0.8,1-0.8,1c-0.4,0.1-0.7,0.7-0.6,0.8c0.1,0.1-0.2,0.2-0.2,0.2v1l-0.2,0.3l0.1,1.1c0.3,0,0.2,0.5,0.2,0.5
			c-0.5,0.1-0.3,0.6-0.3,0.6l-1,0.3L33,63.5l-1.2-0.1l-0.3,0.3l0,0l-1.2-0.3h-1.4l-0.1-0.2l-0.5-0.1l-0.1-0.5l-0.7,0.1L27.5,63
			L26.7,63c0.1,0.5-0.7,1.1-0.8,1c-0.1-0.2-0.6-0.7-0.3-0.8c0.3-0.1,0.6-0.2,0.8-0.2v-0.3l-1.7-0.1l-0.2,0.2l-0.7,0.1v0.7l-0.3,0.1
			c-0.2,0.1,0.1,0.7,0.1,0.7c0.3,0.3-0.1,0.8-0.1,0.8c-0.3,0.3,0.2,0.8,0.2,0.8c0.3,0.1-0.2,0.3-0.2,0.3c0,0.2,0.2,0.5,0.3,0.6
			c-0.2,0.2-0.1,0.5,0.1,0.6l0.1,0.1l0.1,0.8l0.3,0.2v0.5l0.2,0.3h0.7l-0.1-1.1c-0.6-0.7,0.6-1,0.6-0.7c0.1,0.3,0.6,0.4,0.6,0.4
			c0.1,0.7,0.8,1.1,1.1,0.4c0.2-0.7,0.4-0.3,0.6,0.1c0.3,0.4,0.6,0.8,1,1.1h0.7l0.1,0.7c0.8-0.1,1,0.1,1.3,1.1
			c0.2,0.6,0.6,1.1,1.2,1.4l0.6-0.1c0-0.6,0.6,0.1,0.6,0.4s1.2,1.4,1.2,1.4l1.4,0.3l0.2,0.2l2,0.7h0.2c0.1-0.2,0.2-0.3,0.4-0.3
			c0.4,0.1,0.8,0.3,1,0.7c0.1,0.2,0.2,0.3,0.3,0.3l1.1,0.4c0.1,0.1,0.1,0.2,0.1,0.4c0.1,0.7,0.4,0.6,0.4,0.6l2.6-0.1l0.9-0.8
			l2.3-0.1c1.2-0.1,0.5-1.7,0.2-1.7c-0.1-0.2-0.2-0.3-0.1-0.6l-2.3-3.5c-0.4-0.4-0.7-0.8-1.1-1.2c0.1-0.2,0.2-0.4,0.2-0.6
			c0.6-0.4-0.1-1-0.1-1c0-0.5-0.1-0.8-0.3-1.2c-0.5-0.4-0.7-1-0.6-1.6v-0.8c-0.7-0.7,0.3-0.7,0.3-0.7c0.2-0.3,0.1-0.7-0.2-1
			l-0.1-0.6l-0.6-0.1L42.8,60l-1.6-2.4c-0.3-0.1-0.1-0.7-0.1-0.7c0.4-0.2-0.1-0.8-0.1-0.8l-0.1-1l1-0.1l0.2-0.3h0.5v-1.2
			c0.1-0.2,0.2-0.3,0.3-0.3h0.2c0.1,0,0.2,0.1,0.2,0.1l0.6,0.1l0.1-0.1l0.4-1.1l0,0L44,52.1c-0.6-0.3-0.3-1.5-0.3-1.5
			c0.2-0.4,0.7-0.7,1.1-0.8c0.3,0,0.5,0.1,0.7,0.2l0.6-0.1c0.2,0.1,0.3,0.2,0.3,0.3c-0.1,0.5-0.1,0.8-0.1,1.3
			c-0.1,0.1-0.1,0.1-0.1,0.2c-0.1,0.1-0.1,0.2-0.1,0.3l0.1,1.1l0.2,1.2l-0.6,0.5c-0.5,0.3-0.5,1,0.1,1.1c0.3,0.1,0.2,1-0.3,0.3
			c-0.7,0,0.2,0.6,0.2,0.6c0.7,0.3,0.6-0.4,0.6-0.4l0.4-0.3l1-0.6l0,0c0.3,0.2,0.7,0.5,0.8,0.9c0,0.1,1.8,0.1,1.8,0.1
			c0.3,0.3,0.6,0.7,0.7,1.1c0.5-0.7,1.6-0.1,0.8,0.3c0.7,0.4,0.7,0.8,0.7,0.8c0.6-0.2,0.6,0.3,0.6,0.4c0.1-0.2,0.2-0.5,0.2-0.7
			c-0.7-0.5,0.9-0.7,0.5,0.2l-0.3,0.4l0.5,0.3l0.1,1.1c1-0.1,0.7-1.4,0.7-1.4l0.5-0.1c0-0.4,0.3-0.2,0.3-0.2
			c-0.2-1.1,0.2-1.6,0.5-1.7l0.8-0.8c0.1-0.2,0.1-0.4,0.1-0.6c-0.4-0.2-0.2-0.8,0.3-0.3s-0.3-1.1-0.3-1.1l-0.3-0.3l-0.5-0.1L55,54
			l-0.3,0.2L54.7,54l-0.2,0.6h-0.8L53.6,54l0.5-0.1l0.2-0.3l0.1-0.4h0.5l1.1-1.1C56,52,56.1,52,56.2,52l0.3,0.2l0.4,0.3l0.1,0.3
			L56.7,53l-0.1,0.4l0.1,0.5h0.3c0.1-0.4,0.5-0.7,0.9-0.6c0.2,0.1,0.3,0.2,0.5,0.3l0.3-0.7c-0.6-0.3,0-0.8,0.2-0.6s0.6-0.6,0.6-0.6
			s0.3,0.4,0-0.1c-0.2-0.3-0.1-0.6,0.2-0.8l0.1-0.1c-0.1-0.6,0.6-0.5,0.6-0.5l0.1-0.7l-0.6-0.1c-0.1,0.7-0.7,0.1-0.4-0.1
			c0.2-0.1,0.4-0.2,0.6-0.4v-0.5l0.3-0.1l0.1-0.5H61l0.6-0.3l0.2-0.2l0.6-0.1l0.9-0.8L63.2,46.3z"/>
		<path class="st1" d="M83.9,72.6"/>
		<polygon class="st1" points="46.7,56.2 47.7,55.6 47.7,55.6 		"/>
		<polygon class="st1" points="38,86.4 38,86.4 38.3,87 38.4,87.4 38.9,87.5 39.1,87.8 39.3,87.7 39.1,87 38.6,86.5 		"/>
		<polygon class="st1" points="61.5,84.8 61.8,84.6 61.9,84.4 61.7,84.3 61.2,84.1 61.1,84.3 61.4,84.4 61.3,84.6 		"/>
		<polygon class="st1" points="57.9,80.8 57.6,81 57.5,81.1 57.7,81.2 58,81.5 58.1,81.2 58,81.1 58.1,81 		"/>
		<polygon class="st1" points="25.6,71 25.6,71.6 25.9,71.6 25.8,70.9 25.5,70.8 25.5,70.5 25.2,70.5 25.2,71 		"/>
		<polygon class="st1" points="28.4,74.5 28.9,75 29.1,74.6 28.8,73.9 28.5,73.7 28.2,73.1 27.6,72.7 27.6,72.7 27.8,73.6 28,74 		
			"/>
		<path class="st1" d="M69.1,80.1"/>
		<path class="st1" d="M104,67h-0.3l0,0c0,0.2,0,0.5,0.2,0.5l0.1-0.3l0,0C104,67.2,104,67,104,67z"/>
		<path class="st1" d="M105.5,65.9c0.1,0.1,0.1,0.1,0.2,0l-0.1-0.3c0.1,0,0.1,0,0.1,0.1v-0.1c0-0.1-0.1-0.2-0.1-0.3l0,0l-0.2,0.1
			c0,0.1,0,0.1,0.1,0.2C105.3,65.7,105.4,65.8,105.5,65.9z"/>
		<path class="st1" d="M105.5,66.4c-0.1-0.2-0.1-0.4-0.2-0.6l0,0l-0.3,0.1c0.1,0.3,0.2,0.6,0.2,0.6L105.5,66.4z"/>
		<path class="st1" d="M102.7,61.2c-0.1,0-0.1,0-0.2,0c-0.2,0-0.4,0.1-0.6,0.2l0.2,0.2c0.1-0.1,0.3-0.1,0.5-0.1l0,0l0.3-0.1
			C102.8,61.4,102.8,61.2,102.7,61.2z"/>
		<path class="st1" d="M103.6,67.5L103.6,67.5c-0.1,0.1-0.2,0.1-0.3,0.2c-0.3,0.2-0.2,0.8,0,0.7c0.2-0.2,0.4,0,0.4-0.5
			C103.8,67.6,103.7,67.5,103.6,67.5z"/>
		<polygon class="st1" points="67.3,42.4 67.3,42.2 67.3,42.2 67,42.2 67,42.5 		"/>
		<polygon class="st1" points="69.9,41.7 69.8,41.4 69.7,41.5 69.8,41.8 		"/>
		
			<rect x="70.7" y="41.1" transform="matrix(0.9989 -4.641117e-02 4.641117e-02 0.9989 -1.8366 3.3469)" class="st1" width="1" height="0.3"/>
		<polygon class="st1" points="70.3,41.4 70.1,41 70.1,41 69.9,41 70,41.4 		"/>
		<polygon class="st1" points="65.7,41.3 65.4,41.2 65.4,41.2 65.4,41.5 65.6,41.5 		"/>
		<rect x="66.6" y="41.7" class="st1" width="0.3" height="0.3"/>
		<polygon class="st1" points="66.3,41.4 66,41.3 66,41.3 65.9,41.6 66.3,41.6 		"/>
		<path class="st1" d="M73.6,12.3c-0.2,0.1-0.5,0.1-0.7,0.1h-0.8c0-0.2-0.2-0.2-0.4-0.2l0,0c-0.2,0-0.4,0.1-0.4,0.2
			c-0.1,0.2-0.3,0.2-0.3,0.2l-1.1,0.1c-0.1,0.3-0.6,0.5-0.7,0.3l0,0c-0.1-0.4-0.7,0.5-0.1,0.7c0.4,0.1,0.8,0.1,1.2,0l0.1-0.3
			l2.3,0.1c0.1-0.1,0.2-0.3,0.3-0.5c0,0,0.6-0.2,0.8-0.1S73.9,12.2,73.6,12.3z"/>
		<path class="st1" d="M69.4,15.2l-0.6-0.6v-0.5l-0.2-0.2l-0.2-0.7l-0.6-0.2l-0.6,0.2l-0.6,0.4l-0.7,0.1l-0.3,0.4l1.5,0.1l0.3,0.5
			l1.1,0.1l0.7,0.7C69.6,15.9,69.8,15.6,69.4,15.2L69.4,15.2z"/>
		<polygon class="st1" points="75,11.3 74.7,11.6 74.4,11.4 74.2,11.6 74.5,11.9 74.6,12 74.7,12 75.2,11.6 		"/>
		<path class="st1" d="M72.7,41.6c0,0.1,0.3,0.3,0.5,0.3c0.2-0.1,0.5-0.2,0.7-0.3c0,0,0.2-0.7,0.1-0.6c-0.2,0.1-0.6,0.3-0.6,0.1
			c0-0.1-0.2-0.2-0.3-0.2c-0.1,0-0.2,0-0.3,0L72.1,41L72,41.3l0.5,0.1C72.5,41.4,72.7,41.5,72.7,41.6z"/>
		<path class="st1" d="M73.1,40.9"/>
		<polygon class="st1" points="62.6,41.5 62.3,41.4 62.3,41.7 62.5,41.8 		"/>
		<path class="st1" d="M45.7,56.9C45.7,56.9,45.7,56.9,45.7,56.9C45.6,56.9,45.6,56.9,45.7,56.9z"/>
		<path class="st1" d="M45.5,34.3"/>
		<path class="st1" d="M39.5,28.2"/>
		<path class="st1" d="M67.8,13.1"/>
		<rect x="63" y="41.1" class="st1" width="0.3" height="0.3"/>
		<path class="st1" d="M56.6,33.6c0.3,0-0.2-0.3-0.2-0.3s-0.6,0.1-0.5-0.2l0.1,0.5H56.6z"/>
		<path class="st1" d="M55.8,33.1"/>
		<polygon class="st1" points="62.3,41.9 62,41.8 61.9,42 62.3,42.2 		"/>
		<path class="st1" d="M44.4,57.9c0.1,0.5,0.4-0.3,0.4-0.3v-3.2L44,54.3l0,0l0.1,0.3h0.2c0.3,0.7,0.1,2.3,0.1,2.3s-0.6,0.1-0.6-0.2
			c-0.1-0.3-0.3,0.6-0.1,0.7S44.4,57.4,44.4,57.9z"/>
		<polygon class="st1" points="45,59.6 45.1,59.2 44.7,59 44.8,58.3 45.1,58.3 45.1,58 45.1,58 44.4,58.4 44,58.1 44,59.2 
			44.7,60.2 		"/>
		<path class="st1" d="M45.6,62.6L45.6,62.6c-0.1,0-0.2,0.1-0.2,0.2l0,0c0,0.1,0.1,0.2,0.2,0.2c0.1,0,0.2-0.1,0.2-0.2
			S45.7,62.6,45.6,62.6z"/>
		<path class="st1" d="M45.5,61.9c0-0.1-0.1-0.2-0.2-0.2c-0.1,0-0.2,0.1-0.2,0.2c0,0.1,0.1,0.2,0.2,0.2C45.4,62,45.5,61.9,45.5,61.9
			z"/>
		<polygon class="st1" points="45.1,60.8 44.9,60.9 44.8,61.2 45.1,61.2 		"/>
		<polygon class="st1" points="44.4,63.6 44.7,63.5 44.7,63.2 44.4,63.2 		"/>
		<polygon class="st1" points="57.1,33.1 56.9,32.9 56.7,33.1 57,33.3 		"/>
		<polygon class="st1" points="61.9,42.4 61.9,42.2 61.6,42.2 61.6,42.4 		"/>
	</g>
	<g>
		<path class="st1" d="M213.3,102.2c0.7-6.6,1.5-13.2,2.2-19.8c0.1-1.2,0.1-1.2,1.4-1.2c1.1,0,2.1,0,3.3,0c0.5,0,0.5,0.1,0.5,0.5
			c-0.6,3.9-1.2,7.9-1.9,11.9c-0.8,5.1-1.6,10.3-2.4,15.3c-0.3,1.8-0.2,1.8-2.1,1.8c-1,0-2,0-3,0c-0.4,0-0.6-0.2-0.6-0.6
			c-0.6-6-1.3-11.9-1.9-17.9c-0.1-0.4-0.1-0.8-0.3-1.1l-0.4,3.3c-0.5,3.8-0.9,7.6-1.3,11.4c-0.2,1.4-0.3,2.8-0.5,4.2
			c-0.1,0.5-0.2,0.7-0.7,0.7c-1.4-0.1-2.8-0.1-4.2,0c-0.5,0-0.6-0.1-0.6-0.6c-1.1-7.5-2.2-14.9-3.3-22.4c-0.3-2-0.6-4.1-0.9-6.1
			c-0.1-0.4,0-0.5,0.4-0.5c1.4,0,2.8,0,4.1,0c0.4,0,0.5,0.2,0.5,0.5c0.2,2.1,0.5,4.3,0.7,6.4c0.4,3.4,0.8,6.9,1.1,10.3
			c0.2,1.5,0.3,2.9,0.6,4.4c0.2-1.7,0.3-3.5,0.6-5.3l1.2-11.2c0.2-1.5,0.3-3,0.5-4.6c0.1-0.5,0.2-0.6,0.7-0.6c1.2,0.1,2.4,0,3.7,0
			c0.4,0,0.5,0.1,0.6,0.5c0.5,5.1,1,10.3,1.5,15.4c0.2,1.7,0.3,3.5,0.6,5.2c0.1,0.1,0.1,0.1,0.1,0.2
			C213.3,102.4,213.3,102.3,213.3,102.2z"/>
		<path class="st1" d="M235.7,110.3c-0.3-1.7-0.6-3.5-0.8-5.2c-0.7-4.7-1.5-9.5-2.3-14.2c-0.5-3-1-6-1.4-9c-0.1-0.4-0.2-0.6-0.6-0.6
			c-1,0.1-1.9,0-2.8,0s-1.9,0-2.8,0c-0.5,0-0.6,0.2-0.7,0.6c-0.3,2-0.6,3.9-0.9,5.9c-1.2,7.5-2.4,15-3.5,22.5
			c-0.1,0.5,0,0.6,0.5,0.6c1.2,0,2.4-0.1,3.7,0c0.7,0.1,0.9-0.3,1-0.9c0.1-1.4,0.3-2.8,0.5-4.2c0.1-0.5,0.2-0.7,0.7-0.6
			c1,0.1,2.1,0.1,3.1,0c0.6-0.1,0.8,0.2,0.9,0.8c0.1,1.4,0.3,2.9,0.5,4.3c0.1,0.3,0,0.7,0.5,0.7c1.4-0.1,2.8,0,4.3,0
			C235.7,110.8,235.8,110.7,235.7,110.3z M228.5,100.8c-0.7,0-1.4,0-2,0c-0.4,0-0.5-0.2-0.4-0.5c0.5-4.2,1-8.3,1.4-12.5
			c0.1-0.8,0.2-1.7,0.3-2.5h0.2c0.2,1.7,0.4,3.5,0.6,5.4c0.3,3.1,0.6,6.1,0.9,9.2C229.5,100.8,229.5,100.8,228.5,100.8z"/>
		<path class="st1" d="M177.6,88.2c0,0.7,0,1.4,0,2c0,0.4-0.1,0.6-0.6,0.5c-1.2,0-2.4,0-3.7,0c-0.5,0-0.5-0.1-0.5-0.6
			c0.1-1.1,0.1-2.3-0.1-3.4c-0.3-1.5-1.2-2.1-2.7-1.8c-0.9,0.2-1.5,1-1.5,1.9c-0.1,1.6,0.6,3.3,1.8,4.3c1.7,1.7,3.3,3.7,4.9,5.5
			c2.4,2.8,3,6.1,2.3,9.6c-0.6,2.6-2.6,4.3-5.3,4.7c-1.5,0.2-3,0.1-4.4-0.4c-2.5-0.8-4.1-3.1-4.2-5.7c-0.1-1.1,0-2.3,0-3.4
			c0-0.3,0.1-0.5,0.5-0.5c1.3,0,2.6,0,3.9,0c0.4,0,0.5,0.1,0.5,0.5c-0.1,1.1,0,2.3,0.1,3.4c0.2,1.3,0.9,2,2.1,2c1.2,0,2-0.8,2.1-2
			c0.2-2-0.4-3.9-1.8-5.4c-1.5-1.7-3-3.4-4.6-5.1c-2.5-2.8-3.1-6-2.3-9.5c0.6-2.6,2.8-4.1,5.6-4.3c1.1-0.1,2.2,0,3.3,0.2
			c2.5,0.5,4.3,2.6,4.4,5.1C177.6,86.8,177.6,87.4,177.6,88.2L177.6,88.2z"/>
		<g>
			<g id="UN">
				<path class="st1" d="M138.4,16.1v6.4c0,2.4,1.1,3.4,2.5,3.4c1.6,0,2.6-1.1,2.6-3.4v-6.4h1.4v6.3c0,3.3-1.7,4.7-4.1,4.7
					c-2.2,0-3.9-1.2-3.9-4.6v-6.4H138.4z"/>
				<path class="st1" d="M147.4,26.9V16.1h1.5l3.5,5.5c0.7,1.1,1.4,2.3,2,3.5h0.1c-0.1-1.5-0.2-2.8-0.2-4.4v-4.5h1.3v10.8h-1.4
					l-3.4-5.5c-0.7-1.2-1.4-2.4-2-3.6h-0.1c0.1,1.4,0.1,2.6,0.1,4.4v4.6L147.4,26.9z"/>
				<path class="st1" d="M159.4,16.1v10.8h-1.4V16.1H159.4z"/>
				<path class="st1" d="M163.3,17.3H160v-1.2h8v1.2h-3.3v9.6h-1.4C163.3,26.9,163.3,17.3,163.3,17.3z"/>
				<path class="st1" d="M174.8,21.8h-4.2v3.9h4.7v1.2h-6V16.1h5.9v1.2h-4.4v3.4h4.2L174.8,21.8z"/>
				<path class="st1" d="M177.1,16.2c1-0.2,2-0.2,3-0.2c2,0,3.4,0.5,4.4,1.4c1.1,1,1.6,2.4,1.5,3.9c0.1,1.6-0.5,3.1-1.6,4.2
					c-1,1-2.7,1.6-4.8,1.6c-0.8,0-1.7-0.1-2.5-0.1V16.2z M178.5,25.8c0.5,0.1,1,0.1,1.4,0.1c3,0,4.6-1.7,4.6-4.6
					c0-2.5-1.4-4.2-4.4-4.2c-0.6,0-1.1,0.1-1.6,0.2C178.4,17.3,178.4,25.8,178.5,25.8z"/>
				<path class="st1" d="M191.1,26.9V16.1h1.5l3.5,5.5c0.7,1.1,1.4,2.3,2,3.5h0.1c-0.1-1.5-0.2-2.8-0.2-4.4v-4.5h1.3v10.8h-1.4
					l-3.4-5.5c-0.7-1.2-1.4-2.4-2-3.6h-0.1c0.1,1.4,0.1,2.6,0.1,4.4v4.6L191.1,26.9z"/>
				<path class="st1" d="M202.8,23.5l-1.1,3.4h-1.5l3.7-10.8h1.7l3.7,10.8h-1.5l-1.1-3.4H202.8z M206.3,22.4l-1.1-3.1
					c-0.2-0.7-0.4-1.4-0.6-2h-0.1c-0.2,0.7-0.3,1.3-0.6,2l-1.1,3.2L206.3,22.4z"/>
				<path class="st1" d="M211.7,17.3h-3.3v-1.2h8v1.2h-3.3v9.6h-1.4L211.7,17.3L211.7,17.3z"/>
				<path class="st1" d="M219,16.1v10.8h-1.4V16.1H219z"/>
				<path class="st1" d="M230.1,21.4c0,3.7-2.3,5.7-5,5.7c-2.9,0-4.8-2.2-4.8-5.5c0-3.4,2.1-5.7,5-5.7
					C228.2,15.9,230.1,18.2,230.1,21.4z M221.8,21.5c0,2.3,1.2,4.4,3.4,4.4s3.5-2,3.5-4.5c0-2.1-1.1-4.4-3.4-4.4
					S221.8,19.2,221.8,21.5z"/>
				<path class="st1" d="M232,26.9V16.1h1.5l3.5,5.5c0.7,1.1,1.4,2.3,2,3.5h0.1c-0.1-1.5-0.2-2.8-0.2-4.4v-4.5h1.3v10.8h-1.4
					l-3.4-5.5c-0.7-1.2-1.4-2.4-2-3.6h-0.1c0.1,1.4,0.1,2.6,0.1,4.4v4.6L232,26.9z"/>
				<path class="st1" d="M242.2,25.2c0.7,0.5,1.6,0.7,2.5,0.7c1.4,0,2.3-0.7,2.3-1.9c0-1.1-0.6-1.6-2-2.1c-1.7-0.6-2.9-1.5-2.9-3.1
					c0-1.7,1.4-2.9,3.5-2.9c0.8-0.1,1.6,0.2,2.4,0.6l-0.4,1.1c-0.6-0.3-1.4-0.5-2.1-0.5c-1.5,0-2,0.9-2,1.6c0,1,0.7,1.5,2.1,2.1
					c1.8,0.7,2.8,1.6,2.8,3.2c0,1.6-1.2,3.1-3.8,3.1c-1,0-1.9-0.2-2.8-0.7L242.2,25.2z"/>
			</g>
			<g id="Arabic">
				<polygon class="st1" points="153.8,42.2 153.8,66 153.3,66 149.4,66 149.1,66 149.1,42.2 149.4,42.2 153.3,42.2 				"/>
				<polygon class="st1" points="231.3,42.2 231.3,66 230.8,66 226.9,66 226.6,66 226.6,42.2 226.9,42.2 230.8,42.2 				"/>
				<path class="st1" d="M175.9,42.2h-1.2v19h-5.8V46.9H157v19h7.1v7.4h4.7V66h35.4V51.7h-4.7v9.5H197v-9.5h-4.7v9.5h-2.5v-9.5h-4.6
					v9.5h-5.8V46.9h24.8v-4.7H175.9L175.9,42.2z M164.1,61.2h-2.4v-9.5h2.4V61.2z"/>
				<polygon class="st1" points="223.7,42.2 223.7,66 207.2,66 207.2,61 210.8,61 210.8,46.8 215.6,46.9 215.6,61 218.9,61 
					218.9,42.2 				"/>
			</g>
			<path class="st1" d="M180.6,95.9c0-2.6,0-5.3,0-8c-0.1-1.3,0.2-2.6,0.7-3.8c1.1-2.3,3-3.3,5.4-3.5c1.1-0.1,2.2,0,3.2,0.3
				c2.6,0.8,4.4,3.2,4.4,5.9c0.1,1.5,0,3,0.1,4.5c0,0.4-0.1,0.5-0.5,0.5c-1.3,0-2.6,0-3.9,0c-0.5,0-0.5-0.2-0.5-0.6
				c0-1.4,0-2.8,0-4.2c0-1.4-0.5-2.1-1.6-2.3c-1-0.2-1.9,0.3-2.1,1.3c0,0.1,0,0.1-0.1,0.2c-0.1,0.3-0.1,0.6-0.1,1
				c0,5.7,0,11.4,0,17.2c0,0.3,0,0.6,0.1,1c0.1,1,1,1.6,1.9,1.6h0.1c1,0.1,1.7-0.7,1.7-1.6v-0.1c0.1-1.9,0.1-3.7,0.1-5.6
				c0-0.6,0.2-0.8,0.8-0.8c1.2,0.1,2.4,0,3.7,0c0.2,0,0.5-0.1,0.5,0.3c-0.1,2.1,0.2,4.3-0.1,6.5c-0.5,3.3-2.8,5.2-6.1,5.5
				c-1,0.1-2.1-0.1-3.1-0.3c-2.6-0.7-4.4-3.1-4.4-5.8C180.5,102.1,180.6,99,180.6,95.9L180.6,95.9z"/>
		</g>
		<path class="st1" d="M149,96c0-4.7,0-9.3,0-14.1c0-0.6,0.2-0.7,0.8-0.7c3.5,0,7,0,10.5,0c0.5,0,0.7,0.1,0.7,0.7
			c-0.1,1.1-0.1,2.2,0,3.3c0,0.5-0.1,0.6-0.6,0.6c-1.9,0-3.8,0-5.7,0c-0.5,0-0.6,0.1-0.6,0.6c0,2.1,0,4.3,0,6.5
			c0,0.5,0.1,0.6,0.6,0.6c1.6,0,3.2,0,4.8,0c0.5,0,0.6,0.1,0.6,0.6c-0.1,1.1-0.1,2.3,0,3.4c0,0.5-0.2,0.6-0.6,0.6
			c-1.6,0-3.2,0-4.7,0c-0.5,0-0.6,0.2-0.6,0.7c0,2.4,0,4.7,0,7c0,0.5,0.1,0.7,0.7,0.7c2-0.1,3.9,0,5.9,0c0.6,0,0.7,0.2,0.7,0.7
			c-0.1,1.1,0,2.2,0,3.3c0,0.4-0.1,0.6-0.5,0.6c-3.7,0-7.4,0-11.2,0c-0.5,0-0.5-0.2-0.5-0.6C149,105.5,149,100.7,149,96z"/>
	</g>
</g>
</svg>
