<?xml version="1.0" encoding="utf-8"?>
<!-- Generator: Adobe Illustrator 26.0.3, SVG Export Plug-In . SVG Version: 6.00 Build 0)  -->
<svg version="1.1" id="Calque_1" xmlns="http://www.w3.org/2000/svg" xmlns:xlink="http://www.w3.org/1999/xlink" x="0px" y="0px"
	 viewBox="0 0 248.7 123.9" style="enable-background:new 0 0 248.7 123.9;" xml:space="preserve">
<style type="text/css">
	.st0{fill:#FEFEFE;}
	.st1{fill:#2C9842;}
	.st2{fill:#5AAF6B;}
	.st3{fill:#58AE69;}
</style>
<g>
	<path class="st0" d="M10.2,65.8c-1.3,0.8-2.7,1.5-4.4,1.4c-0.3,0-0.6-0.1-0.9-0.3c0.3-0.1,0.6,0.1,1,0.1c1.3,0.1,2.4-0.3,3.4-0.9
		c1.7-1,3.2-2.1,4.6-3.5c1.8-1.8,3.5-3.6,5.2-5.4c1.5-1.7,3.3-2.6,5.7-2.1c0.3,0.1,0.6,0.2,0.9,0.3c2.2,0.9,3.8,0.6,5.1-1.3
		c0.3-0.4,0.5-0.7,0.9-0.9c0,0,0,0,0,0.1c-0.2,0.3-0.4,0.6-0.6,0.9c-1.4,1.9-3,2.3-5.2,1.4c-2.1-0.9-4-0.5-5.6,0.9
		c-1.4,1.2-2.5,2.6-3.7,3.9C14.4,62.3,12.5,64.3,10.2,65.8z"/>
	<path class="st0" d="M27.5,36.5c0.4-1.1,1.1-2.1,1.8-3c0.2-0.3,0.5-0.4,0.8-0.4c1.1,0,2.8,1.5,2.8,2.7c0,0.2,0,0.5-0.2,0.7
		c-0.4,0.7-0.9,1.4-1.5,2c-0.4,0.4-0.9,0.5-1.4,0.2c-0.6-0.4-1.3-0.8-2-1.2C27.5,37.3,27.4,36.9,27.5,36.5z"/>
	<path class="st0" d="M33.9,78.7c-0.5-4.2-3.2-7.2-7.3-8.3c-2.7-0.7-5.4-0.7-8.1-0.4c-1.1,0.1-2.1,0.3-3.2,0.6
		c-0.9,0.3-1.1,0.6-1.1,1.5c0,2.8,0,5.6,0,8.5c0,2.9,0,5.7,0,8.6c0,1,0.4,1.7,1.4,2.1c0.4,0.2,0.8,0.3,1.2,0.4c3,0.7,6,0.9,9,0.2
		c4-0.9,6.7-3.2,7.8-7.2C34.1,82.8,34.2,80.7,33.9,78.7z M28.3,84.1c-0.7,2.5-2.5,4-5.1,4.3c-1.1,0.1-2.2,0-3.3-0.1
		c-0.4-0.1-0.5-0.2-0.5-0.6c0-2.2,0-4.4,0-6.6c0-2.2,0-4.3,0-6.5c0-0.4,0.1-0.6,0.5-0.6c1.3-0.1,2.6-0.3,3.9,0
		c2.7,0.6,4.2,2.5,4.7,5.1C28.8,80.7,28.8,82.4,28.3,84.1z"/>
	<path class="st0" d="M24.9,42.4c0.4-1.1,1.1-2.2,1.9-3.1c0.3-0.5,0.9-0.4,1.4-0.2c1,0.4,1.7,1.1,2.1,2.3c0.4-0.7,0.7-1.2,1.1-1.7
		c0.4-0.7,1-0.8,1.7-0.5c0.7,0.3,1.3,0.7,1.7,1.3c0.5,0.7,0.6,1.5,0.1,2.3c-0.4,0.6-0.8,1.2-1.3,1.7c-0.4,0.4-0.9,0.6-1.4,0.2
		c-0.7-0.4-1.4-0.8-2.1-1.3c-0.3-0.2-0.4-0.1-0.5,0.1c-0.2,0.4-0.5,0.7-0.9,1.1c-0.4,0.3-0.8,0.4-1.2,0.2c-0.7-0.4-1.4-0.8-2.1-1.2
		C24.9,43.2,24.8,42.8,24.9,42.4z"/>
	<path class="st0" d="M38.9,46.3c-0.5,2-1.3,3.8-2.6,5.3c-1.1,1.3-2.5,1.9-4.2,1.4c0,0-0.1,0-0.1,0c0.3-0.1,0.6-0.1,1,0
		c1.5,0.3,2.6-0.6,3.4-1.7c1.2-1.4,1.9-3.1,2.3-4.9c0-0.2,0.1-0.5-0.1-0.6c-0.2-0.1-0.4,0.1-0.6,0.2c-0.3,0.2-0.4,0.4-0.6,0.7
		C37,47.2,36.6,47.7,36,48c-0.9,0.4-1.5,0.3-2-0.5c-0.1-0.1-0.1-0.2-0.2-0.3c-0.5-0.5-0.9-0.5-1.2,0.1c-0.3,0.7-0.7,1.3-1.1,1.9
		c-0.6,0.8-1.3,0.9-2.2,0.4c-2-1.2-3.9-1.1-5.9,0.1c-1.4,0.9-2.6,2.1-3.8,3.3c-2.5,2.7-4.7,5.8-7.2,8.5c-1.9,2.1-4,3.8-6.7,4.6
		c-0.3,0.1-0.4,0.3-0.7,0.3c0.2-0.2,0.3-0.3,0.6-0.4c2.8-0.8,5-2.6,6.9-4.7c2.1-2.3,4-4.7,6-7.1c1.4-1.6,2.8-3.1,4.5-4.4
		c2.2-1.6,4.4-1.8,6.8-0.3c0.6,0.4,1,0.3,1.5-0.2c0.6-0.6,0.9-1.3,1.3-2c0.2-0.4,0.3-0.8,0.8-0.8c0.4,0,0.7,0.3,0.9,0.7
		c0.6,1,1.3,1.1,2.2,0.4c0.5-0.4,0.9-0.8,1.2-1.3c0.2-0.4,0.5-0.6,0.9-0.8c0.4-0.2,0.5-0.1,0.6,0.3C38.9,46,38.9,46.2,38.9,46.3z"/>
	<path class="st0" d="M42.5,91.2c0,0.4-0.1,0.6-0.6,0.7c-0.9,0.1-1.9,0.2-2.8,0c-0.9-0.1-1.3-0.6-1.5-1.4c-0.1-0.3-0.1-0.7-0.1-1
		c0-4.6,0-9.2,0-13.8c0-0.5,0.1-0.7,0.7-0.8c0.9-0.1,1.9-0.1,2.8,0c1.1,0.1,1.5,0.7,1.5,2c0,2.4,0,4.7,0,7.1
		C42.5,86.4,42.5,88.8,42.5,91.2z"/>
	<path class="st0" d="M42.6,68.6c0.4,0.8,0.3,1.5-0.2,2.1c-0.4,0.6-0.9,1.2-1.4,1.7c-0.5,0.4-0.9,0.5-1.5,0.1
		c-0.5-0.3-1.1-0.7-1.6-1c-0.7-0.5-0.8-0.7-0.4-1.5c0.5-0.9,1.2-1.8,1.8-2.7c0-0.1,0.1-0.1,0.2-0.2c0.2-0.2,0.5-0.3,0.9-0.3
		C41.4,67.2,42.1,67.7,42.6,68.6z"/>
	<path class="st0" d="M57.3,77.5c-0.1,0.3-0.2,0.5-0.6,0.5c-1.7,0.1-3.4,0.4-5.1,0.9c-0.5,0.2-0.7,0.4-0.7,0.9c0,3.8,0,7.6,0,11.4
		c0,0.5,0,0.8-0.7,0.8c-0.5,0-1,0.1-1.5,0.1c-0.4,0-0.9-0.1-1.3-0.1c-0.9-0.1-1.4-0.6-1.5-1.6c0-0.3,0-0.7,0-1.1c0-3.5,0-7,0-10.6
		c0-1.2,0.4-2.1,1.5-2.7c2.5-1.3,5.2-2,8-1.6C57.1,74.8,57.7,75.9,57.3,77.5z"/>
	<path class="st0" d="M51.6,41.7c1.6-0.8,3.2-1.7,4.5-3c-0.3-0.3-0.6-0.4-0.9-0.6c-0.4-0.2-0.6-0.5-0.5-1c0.1-1.4,1.7-2.8,3.1-2.7
		c1,0.1,1.4,0.7,1.2,1.6c-0.1,0.8-0.5,1.5-0.9,2.1c-0.1,0.2-0.2,0.4-0.1,0.7c0.2,0.6,0.1,0.7-0.4,1.3c-0.1-0.1-0.2-0.1-0.2-0.2
		c-0.2-0.3-0.4-0.3-0.8,0C55.2,41.1,53.5,41.7,51.6,41.7z"/>
	<path class="st0" d="M59.6,61.6c-0.4,0.7-0.8,1.3-1.3,1.9c-0.5,0.5-0.9,0.6-1.5,0.2c-0.6-0.4-1.3-0.8-1.9-1.1
		c-0.5-0.2-0.6-0.6-0.4-1.1c0.5-1.1,1.1-2.1,1.8-3c0.2-0.3,0.5-0.4,0.8-0.4c1.1,0,2.8,1.5,2.8,2.7C59.8,61,59.7,61.3,59.6,61.6z"/>
	<path class="st0" d="M43.8,59.4c-2-0.6-3.2-2.2-3.2-4.3c0-5,0-10,0-14.9c0-2.6,1.2-4.9,3-6.7c0.2-0.2,0.4-0.4,0.7-0.3
		c0.3,0.1,0.4,0.4,0.4,0.7c0,0.3,0,0.7,0,1c0,2.7,0,5.4,0,8.1h0c0,2.8,0,5.5,0,8.3c0,2.3,1.4,3.4,3.8,2.8c1.3-0.3,2.5-1,3.5-1.8
		c0.8-0.7,1.6-1.4,2.3-2.2c0.4-0.5,0.9-0.5,1.5-0.2c0,0,0.1,0,0.2,0.1c1.6,1,2.7,1,4.4-0.6c0.9-0.8,1.8-1.6,3-1.8
		c0.4-0.1,0.3-0.4,0.3-0.6c0-2.7,0-5.3,0-8c0-2.7,1.2-5,3-7c0.2-0.2,0.5-0.5,0.8-0.4s0.4,0.5,0.4,0.8c0,0.3,0,0.7,0,1
		c0,4,0,8,0,12.1c0,0.5,0,1-0.1,1.5c-0.1,0.3,0,0.4,0.3,0.5c0.9,0.5,1.8,1.1,2.3,2c0.4,0.8,0.5,1.6,0,2.3c-0.5,0.9-1.1,1.7-1.8,2.4
		c-0.6,0.6-1.1,0.7-1.9,0.2c-0.6-0.3-1.2-0.7-1.8-1.1c-0.8-0.6-1.6-0.5-2.5-0.3c-0.8,0.2-1.5,0.6-2.2,1.1c-0.9,0.6-1.7,1.2-2.7,1.6
		c-0.9,0.4-1.7,0.3-2.6-0.1c-0.8-0.4-1.3-0.4-2,0.3c-0.6,0.6-1.2,1.2-1.8,1.8C49.1,59.8,46.6,60.2,43.8,59.4z"/>
	<path class="st0" d="M74,77c-1.7-1.9-3.9-2.6-6.4-2.6c-0.3,0-0.7,0-1,0c-3.4,0.2-6.1,2.2-7.2,5.2c-0.5,1.4-0.6,2.8-0.5,4.3
		c0.3,3.4,1.7,6,4.9,7.5c1.2,0.5,2.4,0.8,3.7,0.9c2.1,0.1,4.3,0,6.2-1c1.2-0.6,1.6-2.1,0.8-3.1c-0.2-0.3-0.4-0.4-0.8-0.2
		c-1.5,0.7-3.1,1.1-4.8,1c-2.3-0.1-4.3-0.7-5.2-3.2c-0.2-0.5,0-0.5,0.4-0.6c2-0.3,4.1-0.6,6.1-0.9c1.2-0.2,2.3-0.3,3.5-0.5
		c1.2-0.2,1.9-0.8,2-1.8C75.8,80.1,75.3,78.4,74,77z M70.9,81.2c-2.4,0.4-4.8,0.8-7.2,1.2c-0.2,0-0.3,0-0.3-0.3
		c-0.2-2.5,1.6-4.4,4.1-4.4c2,0,3.4,1.2,3.7,3.1C71.2,81,71.2,81.1,70.9,81.2z"/>
	<path class="st0" d="M76.8,34.9c0,3.5,0,6.9,0,10.4v10.2c0,2.8-1.2,5-3,7c-0.2,0.2-0.4,0.5-0.8,0.4c-0.4-0.1-0.4-0.5-0.4-0.8
		c0-0.8-0.1-1.7-0.1-2.5c0-6.4,0-12.8,0-19.2c0-2.7,1.2-5,3.1-7c0.2-0.2,0.4-0.4,0.7-0.3c0.3,0.1,0.4,0.4,0.4,0.7
		C76.7,34.2,76.8,34.6,76.8,34.9z"/>
	<path class="st0" d="M92.2,88.3c0.9,1.1,0.6,2.6-0.7,3.2c-2.2,1.1-4.6,0.9-6.9,0.3c-4.7-1.2-7-5.2-6.4-9.8c0.7-4.9,4-7.6,9.4-7.7
		c1.2-0.1,2.5,0.2,3.6,0.8c1.1,0.6,1.5,2,0.8,3c-0.2,0.3-0.4,0.4-0.8,0.3c-1.4-0.6-2.8-0.7-4.3-0.4c-2,0.5-3.4,2.1-3.7,4.1
		c-0.1,0.9-0.1,1.8,0.1,2.7c0.5,2,2.3,3.5,4.4,3.6c1.2,0.1,2.4,0,3.5-0.5C91.7,87.9,92,88,92.2,88.3z"/>
	<path class="st0" d="M95.3,47.8c0.4-1.2,1.1-2.2,1.9-3.2c0.2-0.2,0.5-0.3,0.8-0.3c1.2,0,2.7,1.6,2.7,2.7c0,0.3,0,0.5-0.2,0.8
		c-0.4,0.7-0.9,1.4-1.4,1.9c-0.4,0.4-0.8,0.5-1.3,0.2c-0.7-0.4-1.3-0.8-2-1.2C95.3,48.5,95.2,48.2,95.3,47.8z"/>
	<path class="st0" d="M98.6,37.2c0.2-0.3,0.2-0.4-0.1-0.5c-0.8-0.3-1.6-0.7-2.6-0.5c0.7-1,1.2-1.9,1.9-2.7c0.1-0.1,0.2-0.1,0.3-0.2
		c1.7-0.4,3.4-0.2,4.9,0.6c0.4,0.2,0.4,0.4,0.2,0.8c-1.2,2.7-3.3,4.1-6.2,4.3c-0.3,0-0.7,0.1-1,0.1c-0.1,0-0.2,0-0.2,0
		C96.9,38.6,97.8,38,98.6,37.2z"/>
	<path class="st0" d="M100.1,80.3c0,2,0,4,0,6c0,1.3,0.9,2.1,2.4,2.3c0.7,0.1,1.5,0.1,2.2-0.1c0.4-0.1,0.6,0.1,0.7,0.4
		c0.5,1.1,0,2.6-1.2,2.9c-2.4,0.8-4.8,0.7-7.1-0.6c-1.5-0.9-1.8-2.5-1.8-4.1c0-2.6,0-5.1,0-7.7h0c0-2.6,0-5.1,0-7.7
		c0-0.2-0.1-0.5,0.3-0.6c1.2-0.2,2.4-0.3,3.6,0.1c0.6,0.2,0.9,0.6,1,1.2c0.2,1.1,0.1,2.3,0.1,3.4c0,0.4,0.1,0.6,0.6,0.6
		c1.4,0,2.7,0,4.1,0c0.4,0,0.6,0.2,0.7,0.6c0,0.2,0.1,0.4,0.1,0.6c0.2,1.9-0.4,2.4-2.1,2.3c-1,0-2,0-2.9,0
		C100.2,79.8,100.1,79.9,100.1,80.3z"/>
	<path class="st0" d="M110.6,52.4c-1.3,4.7-4.4,7.8-8.5,10c-4.1,2.1-8.5,2.9-13,1.6c-3.5-0.9-6-3.1-7.1-6.7c-0.6-2-0.3-3.9,0.3-5.8
		c0.9-3,2.4-5.8,4.4-8.3c0-0.1,0.1-0.1,0.2-0.2c0.3-0.3,0.6-0.8,1-0.5c0.4,0.2,0,0.7-0.2,1c-0.8,2.2-1.6,4.3-1.9,6.6
		c-0.2,1.5,0,2.9,0.5,4.3c0.7,1.8,2,3,3.8,3.5c5.1,1.3,10,0.8,14.4-2.3c1.4-1,2.4-2.2,2.8-3.9c0.1-0.3,0.1-0.6,0.1-0.9
		c0-1.8,0-3.6,0-5.4c0-2.8,1.1-5.1,3-7.1c0.2-0.2,0.5-0.5,0.8-0.4c0.4,0.1,0.4,0.6,0.4,0.9c0,1.4,0,2.8,0,4.6
		C111.9,46.2,111.5,49.3,110.6,52.4z"/>
	<path class="st0" d="M128.4,90.6c-0.1-0.2-0.1-0.4-0.2-0.7c-1.7-5.9-3.3-11.8-5.2-17.7c-0.3-0.8-0.7-1.4-1.6-1.7
		c-2.2-0.7-4.4-0.6-6.6,0.1c-0.4,0.1-0.6,0.3-0.7,0.7c-1.5,4.2-3,8.4-4.4,12.6c-0.6,1.9-1.2,3.8-1.7,5.8c-0.2,1.1,0.1,1.6,1.1,2
		c1.1,0.4,2.2,0.3,3.4,0.1c0.4-0.1,0.5-0.2,0.6-0.6c0.3-1.3,0.6-2.5,1-3.8c0.1-0.4,0.2-0.5,0.6-0.5c2.3,0,4.6,0,6.8,0
		c0.4,0,0.5,0.1,0.6,0.5c0.3,1.1,0.5,2.2,0.9,3.3c0.3,0.8,0.8,1.1,1.6,1.2c0.3,0,0.6,0,0.9,0.1c0.6,0,1.3-0.1,1.9-0.2
		C128.6,91.6,128.7,91.6,128.4,90.6z M121,83.3c-0.9,0-1.9,0-2.8,0c-0.9,0-1.8,0-2.7,0c-0.3,0-0.4,0-0.3-0.4c0.7-2.7,1.7-5.4,2.5-8
		c0.2-0.5,0.6-0.2,0.9-0.3c0.3-0.1,0.5,0,0.5,0.3c0.7,2.7,1.5,5.3,2.2,8C121.4,83.3,121.3,83.3,121,83.3z"/>
	<path class="st0" d="M136,91.3c0,0.5-0.2,0.6-0.6,0.7c-0.9,0.1-1.7,0.1-2.6,0c-1.3-0.2-1.7-0.7-1.8-2c0-2.1,0-4.1,0-6.2v-1.1
		c0-2.4,0-4.8,0-7.2c0-0.4,0.1-0.6,0.5-0.6c1-0.1,1.9-0.1,2.9,0c1,0.1,1.5,0.8,1.6,2c0,0.9,0,1.8,0,2.7C136,83.5,136,87.4,136,91.3z
		"/>
	<path class="st0" d="M136.3,69.6c0,0.3-0.1,0.6-0.3,0.9c-0.5,0.7-1,1.4-1.7,2c-0.4,0.4-0.8,0.5-1.4,0.1c-0.6-0.4-1.2-0.8-1.8-1.1
		c-0.4-0.2-0.5-0.6-0.3-1c0.5-1.2,1.4-2.2,2.2-3.2c0.2-0.2,0.4-0.2,0.7-0.2C134.8,67,136.3,68.5,136.3,69.6z"/>
	<path class="st0" d="M124.9,41c1-0.8,1.5-2,2.8-2.5c4.6-1.6,9.3-3.2,13.9-4.8c0.1,0,0.2-0.1,0.4-0.1c-0.4,0.6-0.7,1.1-1.1,1.6
		c-0.1,0.2-0.3,0.3-0.5,0.4c-5,1.8-10,3.6-15,5.4C125.3,41.1,125.2,41.1,124.9,41z"/>
	<path class="st0" d="M143,54.6c-1.7,0.9-3.5,1.3-5.5,1.1c-1.5-0.2-2.3-0.8-2.7-2.3c-0.5,0.4-0.9,0.7-1.4,1.1
		c-1.8,1.3-3.6,2.4-5.8,2.7c-1.4,0.2-2.7,0.1-4.1,0.1c-0.4,0-0.7,0.1-0.9,0.5c-0.9,1.6-2,3.1-3.3,4.5c-1.2,1.2-2.5,1.9-4.2,2.1
		c-2.4,0.3-4.7,0.4-7.1,0c-0.4-0.1-1,0-1-0.6c0-0.6,0.4-0.9,1-1c1.7-0.5,3.3-1,5-1.6c1.3-0.5,2.6-1.1,3.7-2c0.6-0.4,1.1-0.9,1.5-1.6
		c-0.6-0.2-1.3-0.3-1.9-0.5c-1.3-0.4-1.9-1.3-2-2.6c-0.3-3.5,2-6.6,5.3-7.4c1-0.2,1.8,0,2.4,0.7c1,1,1.5,2.3,1.9,3.7
		c0.1,0.4,0.3,0.6,0.7,0.6c1.5,0,3.1,0.1,4.6-0.2c1.5-0.2,2.6-1.1,3.4-2.4c0.1-0.2,0.1-0.3-0.1-0.4c-1.4-0.8-2.8-1.3-4.4-1
		c-0.5,0.1-0.7-0.2-0.6-0.7c0-0.1,0.1-0.2,0.1-0.3c1.3-1.7,2.6-3.4,4.5-4.5c1.8-1.1,3.6-0.8,5.5-0.4c3.7,0.8,4.3,4.2,3.3,6.4
		c-0.2,0.4-0.4,0.9-0.6,1.4c1.3-0.2,2.6-0.4,3.7-1.1c0.5-0.3,0.7-0.7,0.7-1.3c0-2.8-0.1-5.6-0.1-8.4c0-2.8,1.1-5.1,2.9-7.2
		c0.2-0.2,0.5-0.5,0.8-0.4c0.4,0.1,0.4,0.5,0.4,0.9c0,1.3,0,2.5,0,3.8c0,2.9,0,5.8,0,8.8C148.9,49.4,146.8,52.6,143,54.6z"/>
	<path class="st0" d="M156.8,70.9c0-0.3,0-0.7-0.1-1c-0.2-0.8-0.6-1.2-1.4-1.3c-0.9-0.1-1.9-0.1-2.8,0c-0.5,0-0.6,0.2-0.6,0.7
		c0,1.9,0,3.9,0,5.9c-0.1,0-0.2,0-0.3,0c-1.6-0.8-3.4-0.8-5.1-0.5c-3.4,0.6-5.7,2.5-6.6,5.9c-0.4,1.4-0.4,2.8-0.3,4.2
		c0.3,3.2,1.9,5.7,5,6.9c3.6,1.3,7.2,1.1,10.6-0.7c1.1-0.6,1.7-1.5,1.7-2.8C156.8,82.3,156.8,76.6,156.8,70.9z M151.5,87.9
		c-2,1.5-5.1,0.8-6.3-1.4c-1.1-2-1-4.1-0.1-6.2c1.2-2.6,4.7-2.9,6.4-1.8c0.3,0.2,0.3,0.4,0.3,0.7c0,1.3,0,2.7,0,4h0c0,1.3,0,2.7,0,4
		C151.9,87.6,151.8,87.8,151.5,87.9z"/>
	<path class="st0" d="M156.8,55.5c0,2.8-1.2,5-2.9,7c-0.1,0.1-0.2,0.2-0.3,0.2c-0.5,0.4-0.8,0.3-0.9-0.3c-0.1-0.4-0.1-0.8-0.1-1.2
		c0-7.1-0.1-14.1,0-21.2c0-2.6,1.3-4.8,3-6.6c0.2-0.2,0.4-0.4,0.8-0.3c0.3,0.1,0.3,0.4,0.4,0.7c0,0.3,0,0.7,0,1c0,3.5,0,6.9,0,10.4
		C156.8,48.6,156.8,52,156.8,55.5z"/>
	<path class="st0" d="M243.8,65c-0.3,0.7-0.2,1.4-0.3,2.1c-2.5,15.1-10.8,25.6-25,31.4c-14.7,5-28.1,2.6-39.9-7.5
		c-7.2-6.2-11.3-14.2-12.7-23.6c-2.9-19.9,10.3-39.1,30-43.5c20-4.5,39.9,6.9,46,26.3c0.9,2.8,1.4,5.6,1.7,8.6
		c0,0.1-0.1,0.3,0.1,0.4c-0.4-0.1-0.3-0.4-0.3-0.6c-0.2-2.1-0.5-4.1-1.1-6.1c-1.5-6.1-4.4-11.6-8.6-16.3
		c-6.3-7.1-14.2-11.3-23.6-12.8c-2-0.3-4.1-0.5-6.1-0.4c-8.1,0.3-15.6,2.6-22.2,7.4c-7.2,5.2-12,12.2-14.6,20.7
		c-0.8,2.8-1.3,5.6-1.5,8.6c-0.4,6.3,0.8,12.4,3.3,18.2c1.6,3.7,3.8,7.1,6.6,10.1c3.4,3.8,7.4,6.7,11.9,9c3.9,1.9,8,3.1,12.3,3.6
		c1.5,0.2,3,0.3,4.5,0.3c9.4-0.1,17.8-2.9,25.1-8.9c4-3.3,7.2-7.2,9.6-11.8c2.1-3.9,3.4-8.1,4.2-12.4c0.1-0.8,0.2-1.6,0.3-2.3
		C243.5,65.3,243.5,65,243.8,65z"/>
	<path class="st1" d="M243.8,59.1c-0.2-0.1-0.1-0.3-0.1-0.4c-0.3-2.9-0.8-5.8-1.7-8.6c-6.2-19.4-26.1-30.8-46-26.3
		c-19.7,4.4-32.9,23.6-30,43.5c1.4,9.4,5.5,17.4,12.7,23.6c11.8,10.2,25.2,12.5,39.9,7.5c14.2-5.8,22.5-16.3,25-31.4
		c0.1-0.7,0-1.4,0.3-2.1v-1.2c-0.1-0.2-0.1-0.5,0-0.7v-2c-0.1-0.2-0.1-0.5,0-0.7V59.1z M205.2,58.5c-0.2,0.4-0.4,0.4-0.8,0.2
		c-6.1-3.4-8.1-11.8-4.3-17.7c0.2-0.4,0.4-0.3,0.7-0.1c4,2.5,6.1,6.1,6.2,9.9C207.1,54.2,206.5,56.5,205.2,58.5z M218.4,66.3
		c0.4,0.2,0.4,0.4,0.2,0.8c-2.5,4-6.2,6-10.5,6.2c-2.8,0-5-0.7-7.1-1.9c-0.4-0.2-0.4-0.4-0.2-0.8C204.3,64.5,212.5,62.5,218.4,66.3z
		 M200.6,62.2c0,2.8-0.7,5-1.9,7.1c-0.2,0.4-0.4,0.4-0.8,0.2c-6.1-3.5-8.1-11.7-4.3-17.6c0.2-0.4,0.4-0.4,0.8-0.2
		C198.4,54.2,200.4,57.9,200.6,62.2z M187.1,62.7c0.3-0.4,0.5-0.3,0.8-0.1c4,2.5,6,6.2,6.2,9.9c0,3.4-0.7,5.6-1.9,7.6
		c-0.2,0.3-0.3,0.4-0.7,0.2C185.3,76.9,183.3,68.5,187.1,62.7z M190.2,82.4c1.8,0,3.2,1.5,3.2,3.2c0,1.8-1.5,3.3-3.3,3.3
		c-1.8,0-3.2-1.5-3.2-3.3C187,83.9,188.5,82.4,190.2,82.4z M194.3,81.4c3.5-6.1,11.7-8.1,17.6-4.3c0.4,0.2,0.4,0.4,0.2,0.8
		c-2.5,4-6.2,6-10,6.2c-3.3,0-5.6-0.7-7.6-1.9C194.1,81.9,194.1,81.8,194.3,81.4z M225.2,56.3c-3.5,6.1-11.6,8.1-17.6,4.3
		c-0.4-0.2-0.5-0.4-0.2-0.9c2.5-4,6.2-6,9.8-6.1c3.4,0,5.7,0.6,7.7,1.9C225.3,55.7,225.4,55.9,225.2,56.3z M209.1,45.3
		c0.2-4.2,2.3-8,6.6-10.4c0.4-0.2,0.6-0.2,0.8,0.2c3.5,6.1,1.2,14-5,17.3c-0.4,0.2-0.6,0.2-0.8-0.2
		C209.6,50.3,209.1,48.2,209.1,45.3z"/>
	<path class="st1" d="M38.9,46.3c-0.5,2-1.3,3.8-2.6,5.3c-1.1,1.3-2.5,1.9-4.2,1.4c0,0-0.1,0-0.1,0c-0.1,0-0.2,0-0.3,0.1l0,0
		c0,0,0,0,0,0.1c-0.2,0.3-0.4,0.6-0.6,0.9c-1.4,1.9-3,2.3-5.2,1.4c-2.1-0.9-4-0.5-5.6,0.9c-1.4,1.2-2.5,2.6-3.7,3.9
		c-1.9,2-3.8,4-6.2,5.4c-1.3,0.8-2.7,1.5-4.4,1.4c-0.3,0-0.6-0.1-0.9-0.3v-0.4c0.2-0.2,0.3-0.3,0.6-0.4c2.8-0.8,5-2.6,6.9-4.7
		c2.1-2.3,4-4.7,6-7.1c1.4-1.6,2.8-3.1,4.5-4.4c2.2-1.6,4.4-1.8,6.8-0.3c0.6,0.4,1,0.3,1.5-0.2c0.6-0.6,0.9-1.3,1.3-2
		c0.2-0.4,0.3-0.8,0.8-0.8c0.4,0,0.7,0.3,0.9,0.7c0.6,1,1.3,1.1,2.2,0.4c0.5-0.4,0.9-0.8,1.2-1.3c0.2-0.4,0.5-0.6,0.9-0.8
		c0.4-0.2,0.5-0.1,0.6,0.3C38.9,46,38.9,46.2,38.9,46.3z"/>
	<path class="st2" d="M243.8,63.7c-0.2-0.2-0.2-0.5,0-0.7C243.8,63.2,243.8,63.5,243.8,63.7z"/>
	<path class="st3" d="M243.8,61c-0.2-0.2-0.2-0.5,0-0.7C243.8,60.5,243.8,60.8,243.8,61z"/>
	<path class="st1" d="M148.9,45c0,4.4-2.1,7.6-5.9,9.6c-1.7,0.9-3.5,1.3-5.5,1.1c-1.5-0.2-2.3-0.8-2.7-2.3c-0.5,0.4-0.9,0.7-1.4,1.1
		c-1.8,1.3-3.6,2.4-5.8,2.7c-1.4,0.2-2.7,0.1-4.1,0.1c-0.4,0-0.7,0.1-0.9,0.5c-0.9,1.6-2,3.1-3.3,4.5c-1.2,1.2-2.5,1.9-4.2,2.1
		c-2.4,0.3-4.7,0.4-7.1,0c-0.4-0.1-1,0-1-0.6c0-0.6,0.4-0.9,1-1c1.7-0.5,3.3-1,5-1.6c1.3-0.5,2.6-1.1,3.7-2c0.6-0.4,1.1-0.9,1.5-1.6
		c-0.6-0.2-1.3-0.3-1.9-0.5c-1.3-0.4-1.9-1.3-2-2.6c-0.3-3.5,2-6.6,5.3-7.4c1-0.2,1.8,0,2.4,0.7c1,1,1.5,2.3,1.9,3.7
		c0.1,0.4,0.3,0.6,0.7,0.6c1.5,0,3.1,0.1,4.6-0.2c1.5-0.2,2.6-1.1,3.4-2.4c0.1-0.2,0.1-0.3-0.1-0.4c-1.4-0.8-2.8-1.3-4.4-1
		c-0.5,0.1-0.7-0.2-0.6-0.7c0-0.1,0.1-0.2,0.1-0.3c1.3-1.7,2.6-3.4,4.5-4.5c1.8-1.1,3.6-0.8,5.5-0.4c3.7,0.8,4.3,4.2,3.3,6.4
		c-0.2,0.4-0.4,0.9-0.6,1.4c1.3-0.2,2.6-0.4,3.7-1.1c0.5-0.3,0.7-0.7,0.7-1.3c0-2.8-0.1-5.6-0.1-8.4c0-2.8,1.1-5.1,2.9-7.2
		c0.2-0.2,0.5-0.5,0.8-0.4c0.4,0.1,0.4,0.5,0.4,0.9c0,1.3,0,2.5,0,3.8C148.9,39.2,148.9,42.1,148.9,45z"/>
	<path class="st1" d="M70.4,51.9c-0.5,0.9-1.1,1.7-1.8,2.4c-0.6,0.6-1.1,0.7-1.9,0.2c-0.6-0.3-1.2-0.7-1.8-1.1
		c-0.8-0.6-1.6-0.5-2.5-0.3c-0.8,0.2-1.5,0.6-2.2,1.1c-0.9,0.6-1.7,1.2-2.7,1.6c-0.9,0.4-1.7,0.3-2.6-0.1c-0.8-0.4-1.3-0.4-2,0.3
		c-0.6,0.6-1.2,1.2-1.8,1.8c-2.1,2-4.6,2.5-7.4,1.7c-2-0.6-3.2-2.2-3.2-4.3c0-5,0-10,0-14.9c0-2.6,1.2-4.9,3-6.7
		c0.2-0.2,0.4-0.4,0.7-0.3c0.3,0.1,0.4,0.4,0.4,0.7c0,0.3,0,0.7,0,1c0,2.7,0,5.4,0,8.1h0c0,2.8,0,5.5,0,8.3c0,2.3,1.4,3.4,3.8,2.8
		c1.3-0.3,2.5-1,3.5-1.8c0.8-0.7,1.6-1.4,2.3-2.2c0.4-0.5,0.9-0.5,1.5-0.2c0,0,0.1,0,0.2,0.1c1.6,1,2.7,1,4.4-0.6
		c0.9-0.8,1.8-1.6,3-1.8c0.4-0.1,0.3-0.4,0.3-0.6c0-2.7,0-5.3,0-8c0-2.7,1.2-5,3-7c0.2-0.2,0.5-0.5,0.8-0.4c0.3,0.1,0.4,0.5,0.4,0.8
		c0,0.3,0,0.7,0,1c0,4,0,8,0,12.1c0,0.5,0,1-0.1,1.5c-0.1,0.3,0,0.4,0.3,0.5c0.9,0.5,1.8,1.1,2.3,2C70.8,50.3,70.9,51.1,70.4,51.9z"
		/>
	<path class="st1" d="M33.9,78.7c-0.5-4.2-3.2-7.2-7.3-8.3c-2.7-0.7-5.4-0.7-8.1-0.4c-1.1,0.1-2.1,0.3-3.2,0.6
		c-0.9,0.3-1.1,0.6-1.1,1.5c0,2.8,0,5.6,0,8.5c0,2.9,0,5.7,0,8.6c0,1,0.4,1.7,1.4,2.1c0.4,0.2,0.8,0.3,1.2,0.4c3,0.7,6,0.9,9,0.2
		c4-0.9,6.7-3.2,7.8-7.2C34.1,82.8,34.2,80.7,33.9,78.7z M28.3,84.1c-0.7,2.5-2.5,4-5.1,4.3c-1.1,0.1-2.2,0-3.3-0.1
		c-0.4-0.1-0.5-0.2-0.5-0.6c0-2.2,0-4.4,0-6.6c0-2.2,0-4.3,0-6.5c0-0.4,0.1-0.6,0.5-0.6c1.3-0.1,2.6-0.3,3.9,0
		c2.7,0.6,4.2,2.5,4.7,5.1C28.8,80.7,28.8,82.4,28.3,84.1z"/>
	<path class="st1" d="M110.6,52.4c-1.3,4.7-4.4,7.8-8.5,10c-4.1,2.1-8.5,2.9-13,1.6c-3.5-0.9-6-3.1-7.1-6.7c-0.6-2-0.3-3.9,0.3-5.8
		c0.9-3,2.4-5.8,4.4-8.3c0-0.1,0.1-0.1,0.2-0.2c0.3-0.3,0.6-0.8,1-0.5c0.4,0.2,0,0.7-0.2,1c-0.8,2.2-1.6,4.3-1.9,6.6
		c-0.2,1.5,0,2.9,0.5,4.3c0.7,1.8,2,3,3.8,3.5c5.1,1.3,10,0.8,14.4-2.3c1.4-1,2.4-2.2,2.8-3.9c0.1-0.3,0.1-0.6,0.1-0.9
		c0-1.8,0-3.6,0-5.4c0-2.8,1.1-5.1,3-7.1c0.2-0.2,0.5-0.5,0.8-0.4c0.4,0.1,0.4,0.6,0.4,0.9c0,1.4,0,2.8,0,4.6
		C111.9,46.2,111.5,49.3,110.6,52.4z"/>
	<path class="st1" d="M128.4,90.6c-0.1-0.2-0.1-0.4-0.2-0.7c-1.7-5.9-3.3-11.8-5.2-17.7c-0.3-0.8-0.7-1.4-1.6-1.7
		c-2.2-0.7-4.4-0.6-6.6,0.1c-0.4,0.1-0.6,0.3-0.7,0.7c-1.5,4.2-3,8.4-4.4,12.6c-0.6,1.9-1.2,3.8-1.7,5.8c-0.2,1.1,0.1,1.6,1.1,2
		c1.1,0.4,2.2,0.3,3.4,0.1c0.4-0.1,0.5-0.2,0.6-0.6c0.3-1.3,0.6-2.5,1-3.8c0.1-0.4,0.2-0.5,0.6-0.5c2.3,0,4.6,0,6.8,0
		c0.4,0,0.5,0.1,0.6,0.5c0.3,1.1,0.5,2.2,0.9,3.3c0.3,0.8,0.8,1.1,1.6,1.2c0.3,0,0.6,0,0.9,0.1c0.6,0,1.3-0.1,1.9-0.2
		C128.6,91.6,128.7,91.6,128.4,90.6z M121,83.3c-0.9,0-1.9,0-2.8,0c-0.9,0-1.8,0-2.7,0c-0.3,0-0.4,0-0.3-0.4c0.7-2.7,1.7-5.4,2.5-8
		c0.2-0.5,0.6-0.2,0.9-0.3c0.3-0.1,0.5,0,0.5,0.3c0.7,2.7,1.5,5.3,2.2,8C121.4,83.3,121.3,83.3,121,83.3z"/>
	<path class="st1" d="M156.8,70.9c0-0.3,0-0.7-0.1-1c-0.2-0.8-0.6-1.2-1.4-1.3c-0.9-0.1-1.9-0.1-2.8,0c-0.5,0-0.6,0.2-0.6,0.7
		c0,1.9,0,3.9,0,5.9c-0.1,0-0.2,0-0.3,0c-1.6-0.8-3.4-0.8-5.1-0.5c-3.4,0.6-5.7,2.5-6.6,5.9c-0.4,1.4-0.4,2.8-0.3,4.2
		c0.3,3.2,1.9,5.7,5,6.9c3.6,1.3,7.2,1.1,10.6-0.7c1.1-0.6,1.7-1.5,1.7-2.8C156.8,82.3,156.8,76.6,156.8,70.9z M151.5,87.9
		c-2,1.5-5.1,0.8-6.3-1.4c-1.1-2-1-4.1-0.1-6.2c1.2-2.6,4.7-2.9,6.4-1.8c0.3,0.2,0.3,0.4,0.3,0.7c0,1.3,0,2.7,0,4h0c0,1.3,0,2.7,0,4
		C151.9,87.6,151.8,87.8,151.5,87.9z"/>
	<path class="st1" d="M74,77c-1.7-1.9-3.9-2.6-6.4-2.6c-0.3,0-0.7,0-1,0c-3.4,0.2-6.1,2.2-7.2,5.2c-0.5,1.4-0.6,2.8-0.5,4.3
		c0.3,3.4,1.7,6,4.9,7.5c1.2,0.5,2.4,0.8,3.7,0.9c2.1,0.1,4.3,0,6.2-1c1.2-0.6,1.6-2.1,0.8-3.1c-0.2-0.3-0.4-0.4-0.8-0.2
		c-1.5,0.7-3.1,1.1-4.8,1c-2.3-0.1-4.3-0.7-5.2-3.2c-0.2-0.5,0-0.5,0.4-0.6c2-0.3,4.1-0.6,6.1-0.9c1.2-0.2,2.3-0.3,3.5-0.5
		c1.2-0.2,1.9-0.8,2-1.8C75.8,80.1,75.3,78.4,74,77z M70.9,81.2c-2.4,0.4-4.8,0.8-7.2,1.2c-0.2,0-0.3,0-0.3-0.3
		c-0.2-2.5,1.6-4.4,4.1-4.4c2,0,3.4,1.2,3.7,3.1C71.2,81,71.2,81.1,70.9,81.2z"/>
	<path class="st1" d="M105.3,88.9c0.5,1.1,0,2.6-1.2,2.9c-2.4,0.8-4.8,0.7-7.1-0.6c-1.5-0.9-1.8-2.5-1.8-4.1c0-2.6,0-5.1,0-7.7h0
		c0-2.6,0-5.1,0-7.7c0-0.2-0.1-0.5,0.3-0.6c1.2-0.2,2.4-0.3,3.6,0.1c0.6,0.2,0.9,0.6,1,1.2c0.2,1.1,0.1,2.3,0.1,3.4
		c0,0.4,0.1,0.6,0.6,0.6c1.4,0,2.7,0,4.1,0c0.4,0,0.6,0.2,0.7,0.6c0,0.2,0.1,0.4,0.1,0.6c0.2,1.9-0.4,2.4-2.1,2.3c-1,0-2,0-2.9,0
		c-0.3,0-0.5,0.1-0.5,0.5c0,2,0,4,0,6c0,1.3,0.9,2.1,2.4,2.3c0.7,0.1,1.5,0.1,2.2-0.1C105,88.4,105.1,88.6,105.3,88.9z"/>
	<path class="st1" d="M91.5,91.6c-2.2,1.1-4.6,0.9-6.9,0.3c-4.7-1.2-7-5.2-6.4-9.8c0.7-4.9,4-7.6,9.4-7.7c1.2-0.1,2.5,0.2,3.6,0.8
		c1.1,0.6,1.5,2,0.8,3c-0.2,0.3-0.4,0.4-0.8,0.3c-1.4-0.6-2.8-0.7-4.3-0.4c-2,0.5-3.4,2.1-3.7,4.1c-0.1,0.9-0.1,1.8,0.1,2.7
		c0.5,2,2.3,3.5,4.4,3.6c1.2,0.1,2.4,0,3.5-0.5c0.4-0.2,0.6-0.1,0.8,0.2C93.1,89.4,92.8,91,91.5,91.6z"/>
	<path class="st1" d="M76.8,45.3v10.2c0,2.8-1.2,5-3,7c-0.2,0.2-0.4,0.5-0.8,0.4c-0.4-0.1-0.4-0.5-0.4-0.8c0-0.8-0.1-1.7-0.1-2.5
		c0-6.4,0-12.8,0-19.2c0-2.7,1.2-5,3.1-7c0.2-0.2,0.4-0.4,0.7-0.3c0.3,0.1,0.4,0.4,0.4,0.7c0,0.4,0,0.7,0,1.1
		C76.8,38.4,76.8,41.9,76.8,45.3z"/>
	<path class="st1" d="M156.8,55.5c0,2.8-1.2,5-2.9,7c-0.1,0.1-0.2,0.2-0.3,0.2c-0.5,0.4-0.8,0.3-0.9-0.3c-0.1-0.4-0.1-0.8-0.1-1.2
		c0-7.1-0.1-14.1,0-21.2c0-2.6,1.3-4.8,3-6.6c0.2-0.2,0.4-0.4,0.8-0.3c0.3,0.1,0.3,0.4,0.4,0.7c0,0.3,0,0.7,0,1c0,3.5,0,6.9,0,10.4
		C156.8,48.6,156.8,52,156.8,55.5z"/>
	<path class="st1" d="M57.3,77.5c-0.1,0.3-0.2,0.5-0.6,0.5c-1.7,0.1-3.4,0.4-5.1,0.9c-0.5,0.2-0.7,0.4-0.7,0.9c0,3.8,0,7.6,0,11.4
		c0,0.5,0,0.8-0.7,0.8c-0.5,0-1,0.1-1.5,0.1c-0.4,0-0.9-0.1-1.3-0.1c-0.9-0.1-1.4-0.6-1.5-1.6c0-0.3,0-0.7,0-1.1c0-3.5,0-7,0-10.6
		c0-1.2,0.4-2.1,1.5-2.7c2.5-1.3,5.2-2,8-1.6C57.1,74.8,57.7,75.9,57.3,77.5z"/>
	<path class="st1" d="M136,91.3c0,0.5-0.2,0.6-0.6,0.7c-0.9,0.1-1.7,0.1-2.6,0c-1.3-0.2-1.7-0.7-1.8-2c0-2.1,0-4.1,0-6.2v-1.1
		c0-2.4,0-4.8,0-7.2c0-0.4,0.1-0.6,0.5-0.6c1-0.1,1.9-0.1,2.9,0c1,0.1,1.5,0.8,1.6,2c0,0.9,0,1.8,0,2.7C136,83.5,136,87.4,136,91.3z
		"/>
	<path class="st1" d="M42.5,91.2c0,0.4-0.1,0.6-0.6,0.7c-0.9,0.1-1.9,0.2-2.8,0c-0.9-0.1-1.3-0.6-1.5-1.4c-0.1-0.3-0.1-0.7-0.1-1
		c0-4.6,0-9.2,0-13.8c0-0.5,0.1-0.7,0.7-0.8c0.9-0.1,1.9-0.1,2.8,0c1.1,0.1,1.5,0.7,1.5,2c0,2.4,0,4.7,0,7.1
		C42.5,86.4,42.5,88.8,42.5,91.2z"/>
	<path class="st1" d="M34.9,42.7c-0.4,0.6-0.8,1.2-1.3,1.7c-0.4,0.4-0.9,0.6-1.4,0.2c-0.7-0.4-1.4-0.8-2.1-1.3
		c-0.3-0.2-0.4-0.1-0.5,0.1c-0.2,0.4-0.5,0.7-0.9,1.1c-0.4,0.3-0.8,0.4-1.2,0.2c-0.7-0.4-1.4-0.8-2.1-1.2c-0.4-0.2-0.5-0.6-0.4-1
		c0.4-1.1,1.1-2.2,1.9-3.1c0.3-0.5,0.9-0.4,1.4-0.2c1,0.4,1.7,1.1,2.1,2.3c0.4-0.7,0.7-1.2,1.1-1.7c0.4-0.7,1-0.8,1.7-0.5
		c0.7,0.3,1.3,0.7,1.7,1.3C35.3,41.1,35.4,41.9,34.9,42.7z"/>
	<path class="st1" d="M103.3,34.6c-1.2,2.7-3.3,4.1-6.2,4.3c-0.3,0-0.7,0.1-1,0.1c-0.1,0-0.2,0-0.2,0c1-0.5,2-1.1,2.8-1.9
		c0.2-0.3,0.2-0.4-0.1-0.5c-0.8-0.3-1.6-0.7-2.6-0.5c0.7-1,1.2-1.9,1.9-2.7c0.1-0.1,0.2-0.1,0.3-0.2c1.7-0.4,3.4-0.2,4.9,0.6
		C103.4,34.1,103.5,34.3,103.3,34.6z"/>
	<path class="st1" d="M142.1,33.6c-0.4,0.6-0.7,1.1-1.1,1.6c-0.1,0.2-0.3,0.3-0.5,0.4c-5,1.8-10,3.6-15,5.4c-0.1,0-0.2,0.1-0.5,0
		c1-0.8,1.5-2,2.8-2.5c4.6-1.6,9.3-3.2,13.9-4.8C141.7,33.7,141.8,33.7,142.1,33.6z"/>
	<path class="st1" d="M32.8,36.5c-0.4,0.7-0.9,1.4-1.5,2c-0.4,0.4-0.9,0.5-1.4,0.2c-0.6-0.4-1.3-0.8-2-1.2c-0.4-0.2-0.6-0.6-0.4-1
		c0.4-1.1,1.1-2.1,1.8-3c0.2-0.3,0.5-0.4,0.8-0.4c1.1,0,2.8,1.5,2.8,2.7C32.9,36,32.9,36.3,32.8,36.5z"/>
	<path class="st1" d="M59.6,61.6c-0.4,0.7-0.8,1.3-1.3,1.9c-0.5,0.5-0.9,0.6-1.5,0.2c-0.6-0.4-1.3-0.8-1.9-1.1
		c-0.5-0.2-0.6-0.6-0.4-1.1c0.5-1.1,1.1-2.1,1.8-3c0.2-0.3,0.5-0.4,0.8-0.4c1.1,0,2.8,1.5,2.8,2.7C59.8,61,59.7,61.3,59.6,61.6z"/>
	<path class="st1" d="M42.4,70.7c-0.4,0.6-0.9,1.2-1.4,1.7c-0.5,0.4-0.9,0.5-1.5,0.1c-0.5-0.3-1.1-0.7-1.6-1
		c-0.7-0.5-0.8-0.7-0.4-1.5c0.5-0.9,1.2-1.8,1.8-2.7c0-0.1,0.1-0.1,0.2-0.2c0.2-0.2,0.5-0.3,0.9-0.3c1,0.2,1.7,0.8,2.2,1.7
		C43,69.3,42.9,70.1,42.4,70.7z"/>
	<path class="st1" d="M100.5,47.8c-0.4,0.7-0.9,1.4-1.4,1.9c-0.4,0.4-0.8,0.5-1.3,0.2c-0.7-0.4-1.3-0.8-2-1.2
		c-0.4-0.2-0.5-0.5-0.4-0.9c0.4-1.2,1.1-2.2,1.9-3.2c0.2-0.2,0.5-0.3,0.8-0.3c1.2,0,2.7,1.6,2.7,2.7
		C100.8,47.3,100.7,47.5,100.5,47.8z"/>
	<path class="st1" d="M136.3,69.6c0,0.3-0.1,0.6-0.3,0.9c-0.5,0.7-1,1.4-1.7,2c-0.4,0.4-0.8,0.5-1.4,0.1c-0.6-0.4-1.2-0.8-1.8-1.1
		c-0.4-0.2-0.5-0.6-0.3-1c0.5-1.2,1.4-2.2,2.2-3.2c0.2-0.2,0.4-0.2,0.7-0.2C134.8,67,136.3,68.5,136.3,69.6z"/>
	<path class="st1" d="M59,36c-0.1,0.8-0.5,1.5-0.9,2.1c-0.1,0.2-0.2,0.4-0.1,0.7c0.2,0.6,0.1,0.7-0.4,1.3c-0.1-0.1-0.2-0.1-0.2-0.2
		c-0.2-0.3-0.4-0.3-0.8,0c-1.4,1.2-3.1,1.8-5,1.8c1.6-0.8,3.2-1.7,4.5-3c-0.3-0.3-0.6-0.4-0.9-0.6c-0.4-0.2-0.6-0.5-0.5-1
		c0.1-1.4,1.7-2.8,3.1-2.7C58.7,34.5,59.2,35.1,59,36z"/>
</g>
</svg>
