<?xml version="1.0" encoding="utf-8"?>
<!-- Generator: Adobe Illustrator 26.0.3, SVG Export Plug-In . SVG Version: 6.00 Build 0)  -->
<svg version="1.1" id="Layer_1" xmlns="http://www.w3.org/2000/svg" xmlns:xlink="http://www.w3.org/1999/xlink" x="0px" y="0px"
	 viewBox="0 0 248.7 123.9" style="enable-background:new 0 0 248.7 123.9;" xml:space="preserve">
<style type="text/css">
	.st0{fill:#ED1C24;}
	.st1{fill:#FFD400;}
	.st2{fill:none;}
	.st3{fill-rule:evenodd;clip-rule:evenodd;fill:#ED1C24;}
</style>
<g>
	<path class="st0" d="M119.3,82.3h-18.5l-1.9-14.9L83.6,56.3c-0.5-1.7-0.7-3.5-0.7-5.3c0-3,0.6-6,1.9-8.7l26.9,27.2L85.6,37.2
		c1-4.2,3.3-8,6.5-10.9l23.5,40.5L94.8,22.5c2.7-3.6,6.4-6.2,10.7-7.5l14.4,50.3l-10.5-52.4c3.2-1.8,6.8-2.7,10.5-2.7
		c0.8,0,1.6,0.1,2.3,0.2l2.2,54.5l2.2-54.5c0.8-0.1,1.6-0.2,2.3-0.2c3.6,0,7.3,0.9,10.5,2.7l-10.6,52.4L143.1,15
		c4.3,1.3,8.1,4,10.7,7.5L133,66.9l23.5-40.5c3.3,2.9,5.5,6.7,6.5,10.9l-26.2,32.3l26.9-27.2c1.2,2.7,1.9,5.7,1.9,8.7
		c0,1.8-0.2,3.6-0.7,5.3l-15.2,11.1l-1.9,14.9h-18.5l-2.7,2c-0.7,0.5-1.5,0.8-2.3,0.8c-0.9,0-1.7-0.2-2.3-0.8 M118.4,91.1H93
		l-2.3-18.9L75.3,61c-0.7-3.3-1-6.7-1-10c0-27.7,22.4-50.1,50.1-50.1s50.1,22.4,50.1,50.1c0,3.3-0.3,6.8-1,10L158,72.2l-2.3,18.9
		h-25.5l-1.5,1.1c-1.3,0.9-2.8,1.5-4.4,1.5c-1.6,0-3.1-0.5-4.4-1.5L118.4,91.1z"/>
	<path class="st1" d="M119.3,82.3h-18.5l-1.9-14.9L83.6,56.3c-0.5-1.7-0.7-3.5-0.7-5.3c0-3,0.6-6,1.9-8.7l26.9,27.2L85.6,37.2
		c1-4.2,3.3-8,6.5-10.9l23.5,40.5L94.8,22.5c2.7-3.6,6.4-6.2,10.7-7.5l14.4,50.3l-10.5-52.4c3.2-1.8,6.8-2.7,10.5-2.7
		c0.8,0,1.6,0.1,2.3,0.2l2.2,54.5l2.2-54.5c0.8-0.1,1.6-0.2,2.3-0.2c3.6,0,7.3,0.9,10.5,2.7l-10.6,52.4L143.1,15
		c4.3,1.3,8.1,4,10.7,7.5L133,66.9l23.5-40.5c3.3,2.9,5.5,6.7,6.5,10.9l-26.2,32.3l26.9-27.2c1.2,2.7,1.9,5.7,1.9,8.7
		c0,1.8-0.2,3.6-0.7,5.3l-15.2,11.1l-1.9,14.9h-18.5l-2.7,2c-0.7,0.5-1.5,0.8-2.3,0.8c-0.9,0-1.7-0.2-2.3-0.8"/>
	<path class="st2" d="M119.3,82.3h-18.5l-1.9-14.9L83.6,56.3c-0.5-1.7-0.7-3.5-0.7-5.3c0-3,0.6-6,1.9-8.7l26.9,27.2L85.6,37.2
		c1-4.2,3.3-8,6.5-10.9l23.5,40.5L94.8,22.5c2.7-3.6,6.4-6.2,10.7-7.5l14.4,50.3l-10.5-52.4c3.2-1.8,6.8-2.7,10.5-2.7
		c0.8,0,1.6,0.1,2.3,0.2l2.2,54.5l2.2-54.5c0.8-0.1,1.6-0.2,2.3-0.2c3.6,0,7.3,0.9,10.5,2.7l-10.6,52.4L143.1,15
		c4.3,1.3,8.1,4,10.7,7.5L133,66.9l23.5-40.5c3.3,2.9,5.5,6.7,6.5,10.9l-26.2,32.3l26.9-27.2c1.2,2.7,1.9,5.7,1.9,8.7
		c0,1.8-0.2,3.6-0.7,5.3l-15.2,11.1l-1.9,14.9h-18.5l-2.7,2c-0.7,0.5-1.5,0.8-2.3,0.8c-0.9,0-1.7-0.2-2.3-0.8L119.3,82.3z"/>
	<rect x="167.6" y="101.1" class="st0" width="6.8" height="21.3"/>
	<rect x="154.7" y="101.1" class="st0" width="6.8" height="21.3"/>
	<path class="st3" d="M143.9,112.3h-9.3c0-0.1,0-0.2,0-0.2V112c0-0.2,0.1-0.3,0.2-0.5c0.1-0.2,0.2-0.3,0.2-0.5
		c0.1-0.2,0.2-0.4,0.4-0.5c0.2-0.2,0.3-0.4,0.5-0.5c0.2-0.2,0.5-0.4,0.8-0.5c0.2-0.2,0.5-0.2,0.9-0.4c0.3-0.1,0.6-0.2,0.9-0.2
		c0.2,0,0.5-0.1,0.8-0.1c0.1,0,0.1,0,0.2,0c0.3,0,0.7,0.1,1,0.1c0.3,0.1,0.6,0.2,0.9,0.2c0.2,0.1,0.5,0.2,0.8,0.4s0.5,0.3,0.7,0.5
		c0.2,0.2,0.3,0.3,0.5,0.5c0.2,0.2,0.2,0.3,0.3,0.5c0.1,0.2,0.2,0.3,0.2,0.5c0.1,0.2,0.1,0.4,0.2,0.5v0.1
		C143.9,112.2,143.9,112.2,143.9,112.3 M150.5,115.5h-16c0,0.1,0,0.2,0,0.2v0.1c0,0.2,0,0.5,0.1,0.7c0.1,0.2,0.1,0.4,0.2,0.6
		c0.1,0.3,0.2,0.5,0.4,0.8c0.2,0.2,0.3,0.5,0.5,0.6c0.2,0.2,0.5,0.4,0.8,0.5c0.3,0.2,0.6,0.3,0.9,0.4c0.3,0.1,0.6,0.2,0.9,0.2
		c0.3,0.1,0.6,0.1,0.9,0.1l0,0c0.3,0,0.5,0,0.9-0.1c0.3,0,0.5-0.1,0.9-0.2c0.2-0.1,0.5-0.2,0.8-0.3c0.2-0.1,0.5-0.2,0.6-0.4
		s0.2-0.2,0.4-0.4c0.1-0.2,0.2-0.3,0.3-0.5c0,0,0-0.1,0.1-0.1c0-0.1,0-0.1,0.1-0.2h6.8c0,0.1-0.1,0.2-0.1,0.3c0,0.1,0,0.1-0.1,0.2
		c-0.1,0.2-0.2,0.5-0.4,0.8c-0.2,0.3-0.4,0.5-0.6,0.8c-0.3,0.3-0.7,0.6-1,0.9c-0.4,0.3-0.8,0.5-1.2,0.8c-0.5,0.3-1.1,0.5-1.7,0.8
		c-0.6,0.2-1.3,0.4-1.9,0.5c-0.6,0.1-1.2,0.2-1.9,0.2c-0.6,0.1-1.2,0.1-1.8,0.1c-0.1,0-0.1,0-0.2,0c-0.7,0-1.3-0.1-2-0.2
		c-0.6-0.1-1.2-0.2-1.9-0.3c-0.9-0.2-1.6-0.5-2.4-0.8c-0.8-0.3-1.5-0.8-2.1-1.2c-0.5-0.4-1-0.9-1.4-1.4c-0.4-0.5-0.7-1-1-1.6
		c-0.2-0.5-0.4-0.9-0.5-1.5c-0.1-0.5-0.2-1.1-0.2-1.6c0-0.5,0.1-1.2,0.2-1.7c0.2-0.5,0.3-1.1,0.5-1.6c0.3-0.6,0.6-1.2,1.1-1.6
		c0.5-0.5,1-1.1,1.6-1.5c0.5-0.4,1.2-0.8,1.8-1.1c0.6-0.3,1.3-0.5,1.9-0.8c0.7-0.2,1.3-0.3,2-0.4s1.4-0.2,2.2-0.2c0.1,0,0.2,0,0.3,0
		c0.8,0,1.5,0.1,2.3,0.2c0.7,0.1,1.4,0.2,2.1,0.5c0.8,0.2,1.6,0.5,2.3,0.9c0.6,0.3,1.2,0.8,1.9,1.2c0.5,0.5,1.1,1,1.5,1.6
		c0.4,0.6,0.7,1.2,0.9,1.9c0.2,0.5,0.2,0.9,0.3,1.4c0.1,0.5,0.2,1.1,0.2,1.6c0,0.1,0,0.1,0,0.2C150.5,115.3,150.5,115.3,150.5,115.5
		z"/>
	<path class="st0" d="M109.3,101.1v7.1c0.1-0.1,0.2-0.2,0.3-0.2c0.1-0.1,0.1-0.1,0.2-0.2c0.3-0.2,0.6-0.4,0.9-0.6
		c0.4-0.2,0.8-0.4,1.2-0.6c0.5-0.2,0.9-0.4,1.4-0.5s0.9-0.2,1.3-0.3c0.4-0.1,0.9-0.2,1.2-0.2c0.3,0,0.5,0,0.9,0c0.2,0,0.3,0,0.5,0
		c0.5,0,0.9,0.1,1.4,0.2c0.5,0.1,0.9,0.2,1.2,0.3c0.5,0.2,0.9,0.4,1.4,0.7c0.5,0.3,0.9,0.6,1.2,1.1c0.3,0.4,0.6,0.8,0.9,1.2
		c0.2,0.4,0.3,0.8,0.5,1.2c0.1,0.3,0.2,0.7,0.2,1.1c0.1,0.5,0.1,0.9,0.1,1.4c0,0.2,0,0.4,0,0.6c0,0.3,0,0.6,0,0.9v8.1h-6.7v-8.8
		c0-0.3,0-0.7,0-1c0-0.2,0-0.3,0-0.5c0-0.2-0.1-0.5-0.2-0.8c-0.2-0.2-0.3-0.5-0.5-0.7c-0.2-0.2-0.4-0.4-0.6-0.5
		c-0.2-0.2-0.5-0.2-0.7-0.3c-0.2-0.1-0.5-0.2-0.8-0.2s-0.5-0.1-0.7-0.1h-0.1c-0.3,0-0.5,0-0.9,0.1c-0.2,0.1-0.5,0.1-0.7,0.2
		c-0.3,0.1-0.5,0.2-0.9,0.4s-0.5,0.4-0.8,0.6c-0.2,0.3-0.5,0.6-0.7,0.9c-0.2,0.3-0.3,0.6-0.4,0.9c-0.1,0.2-0.1,0.4-0.1,0.6
		c0,0.3-0.1,0.5-0.1,0.9c0,0.2,0,0.4,0,0.5c0,0.2,0,0.5,0,0.7v6.9h-6.8v-21.3h6.8"/>
	<path class="st0" d="M97.8,107.5h-7.1c0-0.1,0-0.2,0-0.2c0-0.1,0-0.1,0-0.2c0-0.2-0.1-0.4-0.1-0.6c-0.1-0.2-0.1-0.4-0.2-0.5
		c-0.1-0.2-0.2-0.4-0.3-0.5c-0.2-0.2-0.3-0.3-0.5-0.5c-0.2-0.2-0.4-0.3-0.6-0.4s-0.5-0.2-0.7-0.3c-0.2-0.1-0.5-0.2-0.9-0.2
		c-0.3-0.1-0.6-0.1-0.9-0.1l0,0c-0.1,0-0.2,0-0.2,0c-0.2,0-0.4,0-0.6,0S85.2,104,85,104c-0.2,0.1-0.5,0.2-0.8,0.2
		c-0.2,0.1-0.5,0.2-0.7,0.3c-0.2,0.2-0.4,0.2-0.5,0.4c-0.2,0.2-0.3,0.3-0.5,0.5c-0.2,0.2-0.2,0.4-0.3,0.5c-0.1,0.2-0.1,0.4-0.1,0.6
		c0,0.2,0,0.4,0.1,0.6c0.1,0.2,0.2,0.3,0.2,0.5c0.2,0.2,0.3,0.4,0.5,0.5c0.2,0.2,0.4,0.2,0.6,0.3c0.2,0.1,0.5,0.2,0.7,0.2
		c0.3,0.1,0.7,0.1,1,0.2c0.5,0.1,0.9,0.1,1.4,0.1s0.9,0.1,1.4,0.1l0,0c0.8,0.1,1.6,0.1,2.3,0.2c0.3,0,0.6,0.1,0.9,0.1
		c0.7,0.1,1.4,0.2,2,0.3c0.5,0.2,1.2,0.3,1.7,0.5c0.6,0.2,1.2,0.5,1.6,1c0.5,0.4,0.9,0.9,1.2,1.5c0.2,0.4,0.3,0.8,0.5,1.2
		c0.1,0.5,0.2,0.9,0.2,1.4c0,0.5-0.1,0.9-0.2,1.4c-0.1,0.5-0.2,0.9-0.5,1.3c-0.2,0.5-0.5,1-0.9,1.4c-0.3,0.4-0.8,0.8-1.2,1
		c-0.6,0.4-1.3,0.8-2.1,1.1s-1.6,0.5-2.3,0.7c-0.9,0.2-1.6,0.3-2.5,0.4c-0.9,0.1-1.8,0.2-2.6,0.2c-0.1,0-0.2,0-0.2,0
		c-0.8,0-1.5,0-2.3-0.1s-1.6-0.2-2.4-0.2c-0.7-0.1-1.5-0.3-2.2-0.5c-0.6-0.2-1.2-0.5-1.8-0.7c-0.4-0.2-0.9-0.5-1.2-0.8l0,0
		c-0.4-0.3-0.7-0.7-0.9-1.1c-0.2-0.2-0.3-0.5-0.5-0.8c-0.2-0.3-0.2-0.6-0.3-1c-0.1-0.2-0.1-0.5-0.2-0.7c0-0.2-0.1-0.5-0.1-0.8v-0.1
		c0-0.1,0-0.2,0-0.2h7.1c0,0.1,0,0.2,0,0.3c0,0.1,0,0.2,0,0.2c0,0.2,0.1,0.4,0.1,0.5c0.1,0.2,0.2,0.3,0.2,0.5
		c0.2,0.2,0.2,0.4,0.4,0.5c0.2,0.2,0.4,0.3,0.5,0.5c0.2,0.2,0.5,0.3,0.8,0.4c0.3,0.2,0.6,0.2,0.9,0.3c0.3,0.1,0.7,0.2,1,0.2
		c0.3,0.1,0.7,0.1,1,0.1c0,0,0,0,0.1,0c0.3,0,0.6,0,0.9-0.1c0.3,0,0.7-0.1,1-0.2c0.3-0.1,0.6-0.2,0.9-0.2c0.2-0.1,0.5-0.2,0.7-0.3
		c0.2-0.1,0.4-0.2,0.5-0.4c0.2-0.2,0.3-0.4,0.5-0.6c0.1-0.2,0.2-0.4,0.2-0.5c0.1-0.2,0.1-0.4,0.1-0.6c0-0.2,0-0.4-0.1-0.6
		c-0.1-0.2-0.1-0.3-0.2-0.5c-0.2-0.2-0.3-0.4-0.5-0.5c-0.2-0.2-0.5-0.2-0.7-0.3c-0.2-0.1-0.5-0.2-0.9-0.2c-0.3-0.1-0.7-0.1-1-0.2
		l-3.2-0.2c-0.6-0.1-1.3-0.1-1.9-0.2c-0.6-0.1-1.2-0.2-1.9-0.2c-0.7-0.1-1.3-0.2-1.9-0.4c-0.5-0.2-0.9-0.3-1.3-0.5
		c-0.4-0.2-0.7-0.5-1-0.8c-0.4-0.4-0.6-0.8-0.9-1.2c-0.2-0.4-0.4-0.9-0.5-1.3c-0.2-0.5-0.2-0.9-0.2-1.5c0-0.5,0.1-1.1,0.2-1.6
		c0.2-0.5,0.3-0.9,0.5-1.4c0.3-0.5,0.8-1.1,1.2-1.6c0.5-0.5,1.1-0.9,1.7-1.2c0.6-0.3,1.2-0.5,1.9-0.7c0.7-0.2,1.5-0.4,2.2-0.5
		c0.7-0.1,1.3-0.2,2-0.2c0.6-0.1,1.2-0.1,1.9-0.1c0.1,0,0.2,0,0.3,0c0.7,0,1.5,0.1,2.2,0.1c0.7,0.1,1.4,0.2,2.1,0.3
		c0.7,0.2,1.3,0.3,2,0.5c0.6,0.2,1.2,0.5,1.7,0.8c0.4,0.2,0.8,0.5,1.1,0.8s0.6,0.6,0.9,1c0.2,0.2,0.3,0.5,0.4,0.8
		c0.2,0.3,0.2,0.6,0.3,0.9c0.1,0.2,0.1,0.4,0.2,0.6c0,0.2,0.1,0.4,0.1,0.5c0,0.1,0,0.1,0,0.2C97.8,107.3,97.8,107.4,97.8,107.5"/>
</g>
</svg>
