<?xml version="1.0" encoding="utf-8"?>
<!-- Generator: Adobe Illustrator 26.0.3, SVG Export Plug-In . SVG Version: 6.00 Build 0)  -->
<svg version="1.1" id="Calque_1" xmlns="http://www.w3.org/2000/svg" xmlns:xlink="http://www.w3.org/1999/xlink" x="0px" y="0px"
	 viewBox="0 0 383.3 384.1" style="enable-background:new 0 0 383.3 384.1;" xml:space="preserve">
<style type="text/css">
	.st0{fill:#0A9642;}
</style>
<g>
	<path class="st0" d="M383,152.2c-1.5-11.2-10.7-19.4-22-19.6c-5.6-0.1-11.2,0-17.3,0h-0.2l0.1-0.1c25.6-25,23.4-60.5,4.3-81.9
		C327.9,28,295,24.1,270.6,41.6c-14.9,10.7-23.2,25.4-24.4,43.8c-1.2,18.2,5.4,33.6,18.6,46.7l0.4,0.4h-0.5h-14.5
		c-8.2,0-16.5-0.1-24.7,0c-4.3,0-7.5,3.1-7.7,7.1c-0.2,3.7,2.5,7.1,6.2,7.7c1.3,0.2,2.7,0.1,4.1,0.1c43.2,0,86.3,0,129.4,0
		c1.4,0,2.8-0.1,4.1,0.1c3.6,0.5,6.3,3.6,6.5,7.1c0.1,3.7-2.6,7-6.4,7.6c-1.2,0.2-2.5,0.1-3.7,0.1h-333c-1.1,0-2.2,0.1-3.4-0.1
		c-3.8-0.5-6.6-3.6-6.7-7.3c-0.1-3.9,2.9-7.1,6.8-7.5c1.2-0.1,2.5-0.1,3.7-0.1c43.6,0,87.3,0,131,0c5.4,0,8.8-2.9,8.8-7.5
		c0-4.5-3.4-7.5-8.8-7.5c-6.5,0-13,0-19.5,0h-18.6h-0.3c0.1-0.1,0.2-0.2,0.2-0.2c25.8-25.5,23-61.5,3.5-82.6
		c-20.5-22.1-53.8-25.4-77.7-7.5C29.7,53.2,21.6,67.9,20.6,86.2c-1,18.1,5.7,33.3,19,46.3c0,0,0,0,0.1,0.1h-0.1
		c-6.4,0-11.9-0.1-17.5,0c-9.4,0.2-17.3,5.9-20.7,14.6c-0.4,1.1-0.2,2.5-1.4,3.3v9c0.2,0.1,0.5,0.3,0.5,0.5
		c4.5,12.6,11.3,17.5,24.5,17.5h153.1h0.3c0,0.1-0.1,0.2-0.2,0.2c-1,1.6-1.7,2.8-2.4,4c-31.2,52.9-62.5,105.9-93.7,158.8
		c-0.8,1.4-1.7,2.8-2.1,4.3c-1.3,5.4,2.5,9.2,9.1,9.2h204.7c0.9,0,1.8,0,2.6,0c5.2-0.6,8.2-5.7,6.1-10.5c-0.5-1.2-1.3-2.4-2-3.6
		C269.4,287,238.2,234,206.9,181.1c-0.7-1.1-1.8-2.1-1.6-3.7h3c50,0,100,0,150,0c3.1,0,6.2-0.1,9.2-1.1
		C377.8,173,384.5,162.6,383,152.2z M261,89.2c0-23.9,19.3-43.4,43.1-43.5c23.9-0.1,43.6,19.4,43.7,43.3
		c0.1,23.7-19.5,43.4-43.2,43.5C280.6,132.6,261.1,113.2,261,89.2z M78.8,132.5c-23.7,0-43.3-19.6-43.3-43.3
		C35.4,65.3,55.1,45.7,79,45.7c23.8,0,43.2,19.5,43.2,43.3C122.2,113,102.8,132.5,78.8,132.5z M191.6,184.7
		c30.5,51.6,60.6,102.7,91,154.2H100.6C131,287.4,161.1,236.3,191.6,184.7z"/>
	<path class="st0" d="M191.5,147.5c4,0.1,7.4-3.2,7.6-7.2c0.2-4.1-3.2-7.7-7.4-7.8c-4-0.1-7.4,3.2-7.6,7.2
		C184,143.8,187.4,147.4,191.5,147.5z"/>
</g>
</svg>
