<?xml version="1.0" encoding="utf-8"?>
<!-- Generator: Adobe Illustrator 26.0.3, SVG Export Plug-In . SVG Version: 6.00 Build 0)  -->
<svg version="1.1" id="Calque_1" xmlns="http://www.w3.org/2000/svg" xmlns:xlink="http://www.w3.org/1999/xlink" x="0px" y="0px"
	 viewBox="0 0 407.3 410.1" style="enable-background:new 0 0 407.3 410.1;" xml:space="preserve">
<style type="text/css">
	.st0{fill:#0A9642;}
</style>
<g>
	<path class="st0" d="M2.4,298.6c3-11,10.9-16.9,20.8-21.1c2.6-1.1,5.1-2.5,8.2-4c-0.2,1.6-2,2.2-3.3,2.9c-3.4,1.8-6.8,3.4-10.2,5.1
		c-6,3.1-10.6,7.5-13,14.1C4.6,296.8,4.4,298.5,2.4,298.6z"/>
	<path class="st0" d="M39.4,332.1c0,4.7,0.1,9.4,0,14.1c-0.1,3.9-2.6,6.5-5.9,6.5c-3.2,0-5.8-2.6-5.8-6.2c-0.1-9.8-0.1-19.6,0-29.4
		c0-3.7,2.6-6,5.9-6c3.3,0,5.7,2.4,5.8,6.1C39.4,322.2,39.4,327.1,39.4,332.1z"/>
	<path class="st0" d="M140,334.2c0,4,0.1,8.1,0,12.1c-0.1,3.7-2.4,6.2-5.5,6.4c-3.2,0.2-6-2.4-6.1-6.2c-0.2-8.1-0.2-16.2,0-24.3
		c0.1-4,2.6-6.4,6-6.3c3.4,0.1,5.6,2.4,5.7,6.6C140.1,326.3,140.1,330.3,140,334.2z"/>
	<path class="st0" d="M10.6,246.2c3.2-7.9,3.1-16.6,3.6-25.1c0.6-9.6,0.2-19.4,2.3-28.9c4.7-20.9,22.2-37.4,42.1-39.6
		c24.6-2.7,46.4,11.8,53.7,35.6c2.6,8.3,2.8,16.7,3.1,25.2c0.3,9,0.7,18,2.3,26.9c0.5,2.8,1.2,5.6,2.4,8.2c1.6,3.5,0.9,6.5-1.5,9.4
		c-5.4,6.8-12.3,11.5-20.1,15.1c3,2.7,5.4,2.5,9.1,1c11.2-4.8,22.8-8.8,34.4-13c2.9-1,4.8-2.2,6.5-5.2c2.2-4,6-7.1,9.3-10.5
		c0.6-0.7,1.2-1.3,1.5-2.1c-1.4,3.9-3.9,7.3-7.7,10.2c-0.2,0.2-0.4,0.4-0.5,0.6c-2.7,6.5-8.7,8-14.5,10.2
		c-10.3,3.8-20.8,7-30.8,11.7c-1.1,0.5-2.3,0.8-3.4,0.5c-1.7-0.4-3.6-1-4-2.8c-0.5-2,1.6-2.5,2.9-3.2c6.1-3,11.2-7.2,15.7-12.2
		c2.3-2.6,3.5-5.5,2.2-9c-3.6-9.3-3.9-19.2-4.6-28.9c-0.4-6.2-0.5-12.5-0.8-18.8c-1.4-26.3-21.6-47.3-47.7-48.2
		c-14.8-0.5-27.3,5.5-37,16.7c-8.8,10.2-12.4,22.4-13,35.8c-0.5,12-0.4,24.1-3,35.9c-0.5,2.2-0.8,4.4-1.8,6.4
		c-1.7,3.6-1,6.7,1.5,9.8c4.2,5.3,9.6,9.2,15.5,12.4c1.3,0.7,3.1,1.1,3.2,2.8c-4.6-2.4-8.9-4.5-12.5-7.6c-1.8-1.5-3.5-3.1-5.2-4.8
		C9.4,256.6,8.1,252.3,10.6,246.2z"/>
	<path class="st0" d="M193.8,287.5c0.8-0.7,1.6-1.6,2.6-1.7c-2.5,2.8-4.9,5.8-7.6,8.5c-6.8,6.7-14.9,5.9-20.3-1.9
		c-4.6-6.8-9.2-13.6-13.6-20.6c-1.3-2-2.4-2.1-4.4-1.4c-11.4,4.2-22.8,8.3-34.1,12.5c-9.3,3.4-14,10-14,20c-0.1,13.6,0,27.2,0,40.8
		c0,1.4,0.1,2.9-0.2,4.3c-0.5,2.8-2.5,4.3-5.1,4.6c-2.7,0.3-4.9-1.1-5.8-3.7c-0.5-1.3-0.6-2.8-0.6-4.2c0-14,0-28,0-42
		c0-5.2,1-10.1,3.2-14.8c0.5-1,2.7-2.4,0.1-3.4c-2-0.7-3.8-3.9-6.5-1.2c-1.5,1.5-3,2.9-4.5,4.3c-10.8,9.9-24.2,10.1-35.3,0.5
		c-2.3-2-4-5.7-7.1-5.6c-2.7,0.1-5.4,2.4-8.1,3.7c-3.3,1.6-6.5,3.3-9.8,4.9c-5.8,2.8-8.5,7.4-8.4,13.8c0.1,13.2,0,26.4,0,39.6
		c0,3.3-0.4,6.3-4,7.7c-3.7,1.4-5.8-1-7.8-3.4c1.2-0.3,1.9,0.7,2.7,1.3c3.7,2.4,7,0.9,7.8-3.4c0.2-1.4,0.2-2.9,0.2-4.3
		c0-12.3,0.1-24.6,0-36.9c-0.1-7.4,3.1-12.5,9.7-15.5c4.3-2,8.4-4.2,12.6-6.3c5.8-2.9,5.8-2.9,10.5,1.5c3.5,3.2,7,6.3,11.7,7.7
		c9,2.5,17.1,0.6,24.1-5.6c1.5-1.3,2.8-2.8,4.3-4.1c2.6-2.1,4.8-2,7.8,0c2.7,1.8,1.6,3.8,0.7,5.8c-2.1,5-3,10.2-3,15.7
		c0,12.7,0,25.4,0,38.1c0,1.8-0.1,3.7,0.7,5.4c1,2.1,2.6,3.4,5,3c2.2-0.3,3.4-1.8,3.7-4c0.2-1.3,0.1-2.6,0.1-3.9
		c0-12.7,0-25.4,0-38.1c0-12.8,4.8-19.6,16.8-24c10.5-3.8,20.9-7.6,31.4-11.4c3.2-1.1,5.2-0.4,7,2.3c3.5,5.3,7,10.5,10.5,15.7
		c1.2,1.8,2.5,3.7,3.9,5.4c4.5,5.3,11.1,5.8,16.3,1.2C189.2,292.2,191.4,289.7,193.8,287.5z"/>
	<path class="st0" d="M209.9,286.2c-0.9,1.5-0.5,2.7-0.5,3.9c0,17.7,0,35.3,0,53c0,1,0.1,2.1,0,3.1c-0.4,3.9-2.8,6.5-6.1,6.4
		c-3.3-0.1-5.6-2.6-5.7-6.7c-0.1-13.6,0-27.2,0-40.8v-18.7c-0.3-0.2-0.7-0.5-1-0.7c0.3,0,0.6,0,0.9,0.2c1.6,0.7,1.4,2.4,1.4,3.8
		c0.1,10.9,0,21.7,0,32.6c0,7.7-0.1,15.4,0,23.2c0,3.5,1.6,5.5,4.1,5.8c2.5,0.2,4.4-1.7,5.1-4.9c0.4-1.8,0.3-3.6,0.3-5.5
		c0-16.5,0-33,0-49.5c0-1.8-0.6-4.2,1.2-5C209.9,286.3,209.9,286.3,209.9,286.2z"/>
	<path class="st0" d="M131,144.1c-4.3-18.4-5.4-37.2,3.3-54.8C143.7,70,159.7,58.8,181,58c30.3-1,60.7-0.4,91-0.4
		c4.1,0,6.6,2.3,6.5,6.3c-0.2,23.7,0.9,47.4-0.6,71c-0.3,4.4-1.1,8.9-3,12.9c-2.7,5.7-2.7,11.6-2.6,17.6c0.3,12.7-1.8,24.9-7.7,36.4
		c-3.8,7.4-8.7,14-14.9,19.5c-0.9,0.8-1.4,1.5-1.8,2.4c1.5-3.5,3.8-6.8,7.2-10.1c9.7-9.4,14-22.2,15.5-35.7c0.1-1.2,0.5-2.4,0.3-3.5
		c-1.3-14.9,4.2-28.8,6.3-43.1c0.3-2,0.4-3.9,0.4-5.9c0-19.1,0-38.2,0-57.3c0-7.8-1.7-9.4-9.5-9.5c-28.1,0-56.2-0.1-84.4,0
		c-27.6,0.1-51.5,22.4-54,49.9c-1.1,12.2-1.5,24.5,2.5,36.1c3.4,9.6,2.9,19.3,3.7,29c1.4,16.5,7.1,31.1,18.8,42.9
		c4.1,4.2,5.5,8.4,5.8,14.2c0.3,4,0,7.7-1,11c0.1-0.5,0.1-1.1,0-1.7c-0.1-0.5-0.1-1.1,0-1.6c1.3-9.7-1.5-17.2-8.6-24.6
		c-11.8-12.5-16.5-28.6-16.5-45.7C134.8,159.9,132.9,152.1,131,144.1z"/>
	<path class="st0" d="M278.6,322c0.2,8.2,0.2,16.4,0,24.6c-0.1,3.6-2.8,6.1-5.9,6.1c-3.3,0-5.7-2.6-5.8-6.6c-0.1-4,0-8.1,0-12.1
		c0-3.9-0.1-7.8,0-11.7c0.1-3.8,2.2-6.2,5.4-6.4C275.8,315.7,278.5,318,278.6,322z"/>
	<path class="st0" d="M379.2,327.9c0,5.9,0,11.8,0,17.6c0,4.5-2.5,7.3-6.1,7.2c-3.5-0.1-5.7-2.8-5.7-7.1c0-11.8,0-23.5,0-35.3
		c0-4.5,2.3-7.2,6-7.1c3.5,0.1,5.7,2.7,5.7,7C379.3,316.2,379.2,322,379.2,327.9z"/>
	<path class="st0" d="M289,203.8c-10.6-22.1,5.4-49.4,29.9-51.2c19.8-1.4,39.7-0.3,59.6-0.5c4.3,0,6.9,2.1,6.9,5.9
		c-0.1,12.3,0.9,24.6-0.6,36.8c-0.4,3.3-1.3,6.4-2.9,9.3c-2.3,4-2.9,8.2-2.7,12.8c0.7,15.8-4.6,28.9-17.3,38.8
		c-3.3,2.6-1.3,6.3-1.4,9.5c0,0.5,0.1,1,0.3,1.3c-2.5-3.2-2.7-8.1,0.2-11.3c1.5-1.7,3.2-3.1,4.7-4.7c8.3-8.1,12.1-18.2,12.2-29.7
		c0-6.6,0.5-12.9,3.5-19c2.3-4.6,3-9.7,2.9-14.9c-0.1-8.5,0-17,0-25.5c0-6.2-2-8.3-8.2-8.4c-16.9-0.1-33.8-0.3-50.6,0
		c-15,0.2-27.3,6-34.6,19.8c-5.1,9.6-6,19.8-1.2,29.8c2.5,5.1,3.6,10.2,3.4,15.8c-0.5,14.1,5.1,25.8,15.5,35c3.6,3.2,3.5,6.8,3,10.7
		c-0.5,3.6-3.7,4.3-6.5,5.5c-7.6,3.2-14.8,2.8-22.3-0.6c-6.3-2.9-13-4.8-19.5-7.2c-2.4-0.9-4.2-2.4-5.6-4.6c-2.4-3.8-5.5-7-8.6-10.2
		c-2.2-2.2-3.3-4.6-3.1-7.7c0-0.1,0-0.2,0-0.2c0,0,0-0.1,0-0.2c-0.6-5.2-0.2-9.9,1.4-14.3c-0.3,0.9-0.4,1.8-0.5,2.9
		c-1.2,10.6,0.7,19.8,10.1,26.3c0.3,0.2,0.7,0.5,0.8,0.9c1.3,5.8,6.6,6.2,10.9,7.9c7.1,2.7,14.2,5.1,21.3,7.8c2.7,1,5.2,1.3,7.9,0.2
		c3.3-1.2,6.7-2.2,10.1-3.1c2.2-0.6,2.6-1.9,2.8-4c0.3-4.4-0.8-7.5-4.4-10.7c-10.3-9.2-14.9-21.2-14.5-35
		C292.1,212.7,291.2,208.3,289,203.8z"/>
	<path class="st0" d="M404.4,345c0,4.9-2.2,7.7-5.9,7.7c-3.7,0-5.8-2.8-5.8-7.8c0-14.8,0-29.6,0-44.3c0-8.9-3.1-13-11.8-15.6
		c-7.5-2.2-15-4.3-22.5-6.6c-1.4-0.4-2.5-0.4-3.5,0.8c-0.2,0.2-0.4,0.4-0.5,0.6c-4.2,4.3-10,7.9-12.2,13c-2.1,4.8-0.6,11.3-0.6,17.1
		c0,11.5,0,23,0,34.5c0,1.4-0.1,2.9-0.5,4.2c-0.9,2.9-3.1,4.3-6,4c-2.9-0.3-4.9-2.1-5.1-5.1c-0.2-2.5-0.1-5-0.1-7.4
		c0-14.5-0.1-29,0-43.6c0-2.7-0.5-4.7-2.6-6.5c-2.8-2.4-5.5-4.9-7.8-7.8c-3.2-4.1-6.6-5.7-11.4-1.8c8.8,8.9,8.6,20.6,8.4,32.2
		c-0.2,11,0,22,0,33c0,2.6-0.7,4.9-3.2,6.3c-2,1.1-4,0.9-5.9-0.3c-2.4-1.6-2.7-4-2.6-6.6c0-13.6,0-27.2,0-40.8
		c0-11.8-4.2-17.7-15.3-21.8c-10.9-4-21.8-7.9-32.7-12c-2.2-0.8-3.4-0.6-4.7,1.5c-4.3,6.8-8.9,13.5-13.4,20.2
		c-5.5,8-13.6,8.8-20.5,1.9c-2.6-2.6-5.2-5.2-7.9-8c1.9-0.6,3.1,1.6,4.5,2.8c1.8,1.7,3.5,3.6,5.3,5.2c5.5,4.9,12.7,4.2,17.1-1.8
		c4.5-6.3,8.6-12.8,12.9-19.2c3.2-4.7,3.7-4.9,9-3c10.4,3.7,20.7,7.4,31,11.2c11.5,4.2,15.9,10.7,15.9,22.8c0,13,0,25.9,0,38.9
		c0,1.7-0.1,3.4,0.5,5c0.7,1.9,2.1,3.1,4.1,3.1c2.2,0.1,3.7-1.2,4.4-3.2c0.6-1.5,0.5-3.1,0.5-4.7c0-13.2,0.1-26.4,0-39.6
		c0-7.1-1.6-13.7-5.7-19.7c-1-1.5-3-3-1.1-5.1c1.6-1.8,5.9-2.6,7.6-1.2c5,4.2,9.7,8.8,13.8,13.9c1.4,1.7,1,4,1,6.1
		c0,14.9,0,29.8,0,44.7c0,1.7-0.1,3.4,0.4,5.1c0.6,1.9,1.7,3.3,3.8,3.5c2,0.2,3.5-0.9,4.5-2.6c1-1.8,0.9-3.8,0.9-5.7
		c0-15,0.1-30.1,0-45.1c0-3.8,1.1-6.8,3.9-9.4c3-2.7,5.8-5.7,8.6-8.6c2-2,4.2-2.8,7.1-1.9c7.2,2.1,14.4,4,21.5,6.2
		c8.7,2.7,12.1,7.4,12.1,16.5c0,14.1,0,28.3,0,42.4c0,1.7-0.1,3.4,0.4,5.1c0.7,2,2.1,3.3,4.3,3.3c2.2,0,3.6-1.3,4.3-3.4
		c0.5-1.4,0.4-2.8,0.4-4.3c0-14.9,0.1-29.8,0-44.7c-0.1-11.3-6.1-19.7-16.9-23.3c-7.1-2.4-14.3-4.2-21.5-6.3
		c-1.5-0.5-2.8-1.3-3.7-2.5c0.8,0.8,2.3,0.9,3.5,1.3c7,2,14.1,4,21,6.1c12,3.7,18.6,12.6,18.7,25C404.4,314.4,404.4,329.7,404.4,345
		z"/>
	<path class="st0" d="M251.1,128.1c-7.9-7.5-17.5-11.6-28-13.9c-19.7-4.3-39.4-3.5-59.2-0.7c-3.8,0.6-6.6,2.7-8.7,6.1
		c-2.4,3.9-1.5,8.1-1.7,12.2c0,2.4-0.2,4.7,0,7.1c0.3,3.9,2.5,6,5.9,6c3.4,0,5.6-2.2,5.8-6.1c0.2-3.5,0.2-7.1,0-10.6
		c-0.1-2.3,0.6-3.1,3-3.4c11.9-1.5,23.9-2.4,35.9-1.4c14.3,1.2,28.2,3.5,39.5,13.7c2.7,2.5,6.3,2,8.4-0.5
		C254.1,134,253.8,130.7,251.1,128.1z M355.6,189.9c-10.4-4.3-21.4-5.4-32.5-6.2c-2.2,0-4.4-0.2-6.6,0c-3.3,0.3-5.3,2.1-5.5,5.5
		c-0.2,3.2,1.8,5.4,5.4,6c1,0.2,2.1,0.2,3.1,0.3c11.1,0.5,22.1,1.4,32.6,5.6c4,1.6,7.8-0.8,8.2-4.7
		C360.5,193,358.5,191.1,355.6,189.9z M251.1,128.1c-7.9-7.5-17.5-11.6-28-13.9c-19.7-4.3-39.4-3.5-59.2-0.7
		c-3.8,0.6-6.6,2.7-8.7,6.1c-2.4,3.9-1.5,8.1-1.7,12.2c0,2.4-0.2,4.7,0,7.1c0.3,3.9,2.5,6,5.9,6c3.4,0,5.6-2.2,5.8-6.1
		c0.2-3.5,0.2-7.1,0-10.6c-0.1-2.3,0.6-3.1,3-3.4c11.9-1.5,23.9-2.4,35.9-1.4c14.3,1.2,28.2,3.5,39.5,13.7c2.7,2.5,6.3,2,8.4-0.5
		C254.1,134,253.8,130.7,251.1,128.1z M355.6,189.9c-10.4-4.3-21.4-5.4-32.5-6.2c-2.2,0-4.4-0.2-6.6,0c-3.3,0.3-5.3,2.1-5.5,5.5
		c-0.2,3.2,1.8,5.4,5.4,6c1,0.2,2.1,0.2,3.1,0.3c11.1,0.5,22.1,1.4,32.6,5.6c4,1.6,7.8-0.8,8.2-4.7
		C360.5,193,358.5,191.1,355.6,189.9z M251.1,128.1c-7.9-7.5-17.5-11.6-28-13.9c-19.7-4.3-39.4-3.5-59.2-0.7
		c-3.8,0.6-6.6,2.7-8.7,6.1c-2.4,3.9-1.5,8.1-1.7,12.2c0,2.4-0.2,4.7,0,7.1c0.3,3.9,2.5,6,5.9,6c3.4,0,5.6-2.2,5.8-6.1
		c0.2-3.5,0.2-7.1,0-10.6c-0.1-2.3,0.6-3.1,3-3.4c11.9-1.5,23.9-2.4,35.9-1.4c14.3,1.2,28.2,3.5,39.5,13.7c2.7,2.5,6.3,2,8.4-0.5
		C254.1,134,253.8,130.7,251.1,128.1z M355.6,189.9c-10.4-4.3-21.4-5.4-32.5-6.2c-2.2,0-4.4-0.2-6.6,0c-3.3,0.3-5.3,2.1-5.5,5.5
		c-0.2,3.2,1.8,5.4,5.4,6c1,0.2,2.1,0.2,3.1,0.3c11.1,0.5,22.1,1.4,32.6,5.6c4,1.6,7.8-0.8,8.2-4.7
		C360.5,193,358.5,191.1,355.6,189.9z M251.1,128.1c-7.9-7.5-17.5-11.6-28-13.9c-19.7-4.3-39.4-3.5-59.2-0.7
		c-3.8,0.6-6.6,2.7-8.7,6.1c-2.4,3.9-1.5,8.1-1.7,12.2c0,2.4-0.2,4.7,0,7.1c0.3,3.9,2.5,6,5.9,6c3.4,0,5.6-2.2,5.8-6.1
		c0.2-3.5,0.2-7.1,0-10.6c-0.1-2.3,0.6-3.1,3-3.4c11.9-1.5,23.9-2.4,35.9-1.4c14.3,1.2,28.2,3.5,39.5,13.7c2.7,2.5,6.3,2,8.4-0.5
		C254.1,134,253.8,130.7,251.1,128.1z M355.6,189.9c-10.4-4.3-21.4-5.4-32.5-6.2c-2.2,0-4.4-0.2-6.6,0c-3.3,0.3-5.3,2.1-5.5,5.5
		c-0.2,3.2,1.8,5.4,5.4,6c1,0.2,2.1,0.2,3.1,0.3c11.1,0.5,22.1,1.4,32.6,5.6c4,1.6,7.8-0.8,8.2-4.7
		C360.5,193,358.5,191.1,355.6,189.9z M251.1,128.1c-7.9-7.5-17.5-11.6-28-13.9c-19.7-4.3-39.4-3.5-59.2-0.7
		c-3.8,0.6-6.6,2.7-8.7,6.1c-2.4,3.9-1.5,8.1-1.7,12.2c0,2.4-0.2,4.7,0,7.1c0.3,3.9,2.5,6,5.9,6c3.4,0,5.6-2.2,5.8-6.1
		c0.2-3.5,0.2-7.1,0-10.6c-0.1-2.3,0.6-3.1,3-3.4c11.9-1.5,23.9-2.4,35.9-1.4c14.3,1.2,28.2,3.5,39.5,13.7c2.7,2.5,6.3,2,8.4-0.5
		C254.1,134,253.8,130.7,251.1,128.1z M355.6,189.9c-10.4-4.3-21.4-5.4-32.5-6.2c-2.2,0-4.4-0.2-6.6,0c-3.3,0.3-5.3,2.1-5.5,5.5
		c-0.2,3.2,1.8,5.4,5.4,6c1,0.2,2.1,0.2,3.1,0.3c11.1,0.5,22.1,1.4,32.6,5.6c4,1.6,7.8-0.8,8.2-4.7
		C360.5,193,358.5,191.1,355.6,189.9z M251.1,128.1c-7.9-7.5-17.5-11.6-28-13.9c-19.7-4.3-39.4-3.5-59.2-0.7
		c-3.8,0.6-6.6,2.7-8.7,6.1c-2.4,3.9-1.5,8.1-1.7,12.2c0,2.4-0.2,4.7,0,7.1c0.3,3.9,2.5,6,5.9,6c3.4,0,5.6-2.2,5.8-6.1
		c0.2-3.5,0.2-7.1,0-10.6c-0.1-2.3,0.6-3.1,3-3.4c11.9-1.5,23.9-2.4,35.9-1.4c14.3,1.2,28.2,3.5,39.5,13.7c2.7,2.5,6.3,2,8.4-0.5
		C254.1,134,253.8,130.7,251.1,128.1z M355.6,189.9c-10.4-4.3-21.4-5.4-32.5-6.2c-2.2,0-4.4-0.2-6.6,0c-3.3,0.3-5.3,2.1-5.5,5.5
		c-0.2,3.2,1.8,5.4,5.4,6c1,0.2,2.1,0.2,3.1,0.3c11.1,0.5,22.1,1.4,32.6,5.6c4,1.6,7.8-0.8,8.2-4.7
		C360.5,193,358.5,191.1,355.6,189.9z M404.3,299.1c-0.1-12.4-6.7-21.3-18.7-25c-7-2.1-14-4.1-21-6.1c-1.2-0.3-2.7-0.5-3.5-1.3
		c-0.1-0.1-0.2-0.2-0.3-0.3c-0.2-0.3-0.4-0.7-0.3-1.3c0.1-3.2-1.9-7,1.4-9.5c12.7-9.9,17.9-23,17.3-38.8c-0.2-4.5,0.4-8.7,2.7-12.8
		c1.6-2.8,2.5-6,2.9-9.3c1.5-12.3,0.5-24.6,0.6-36.8c0-3.8-2.6-5.9-6.9-5.9c-19.9,0.2-39.8-0.9-59.6,0.5
		c-24.4,1.7-40.4,29.1-29.9,51.2c2.2,4.5,3.1,8.9,3,13.9c-0.4,13.8,4.2,25.8,14.5,35c3.6,3.2,4.7,6.3,4.4,10.7
		c-0.2,2.1-0.6,3.4-2.8,4c-3.4,0.9-6.8,1.9-10.1,3.1c-2.8,1-5.2,0.8-7.9-0.2c-7.1-2.7-14.2-5.2-21.3-7.8c-4.3-1.6-9.5-2.1-10.9-7.9
		c-0.1-0.3-0.5-0.6-0.8-0.9c-9.4-6.5-11.3-15.7-10.1-26.3c0.1-1.1,0.3-2,0.5-2.9c0,0,0,0,0,0c0.1-0.1,0.1-0.3,0.2-0.5
		c0-0.1,0.1-0.2,0.1-0.3c0.4-0.8,0.9-1.6,1.8-2.4c6.2-5.5,11.1-12.1,14.9-19.5c5.9-11.4,8-23.7,7.7-36.4c-0.1-6-0.1-11.9,2.6-17.6
		c1.9-4,2.7-8.5,3-12.9c1.5-23.7,0.4-47.3,0.6-71c0-4-2.4-6.3-6.5-6.3c-30.3,0-60.7-0.7-91,0.4c-21.3,0.7-37.3,12-46.8,31.2
		c-8.7,17.7-7.6,36.4-3.3,54.8c1.9,8,3.7,15.8,3.7,24.1c0,17.1,4.7,33.2,16.5,45.7c7.1,7.5,9.9,14.9,8.6,24.6
		c-0.1,0.5-0.1,1.1,0,1.6c0.1,0.6,0.1,1.2,0,1.7c-0.1,0.5-0.2,1-0.5,1.5v0c-0.4,0.7-0.9,1.4-1.5,2.1c-3.3,3.4-7.1,6.5-9.3,10.5
		c-1.7,3-3.6,4.2-6.5,5.2c-11.5,4.2-23.1,8.2-34.4,13c-3.7,1.6-6.2,1.8-9.1-1c7.8-3.6,14.8-8.3,20.1-15.1c2.3-3,3.1-5.9,1.5-9.4
		c-1.2-2.6-1.9-5.4-2.4-8.2c-1.6-8.9-2-17.9-2.3-26.9c-0.3-8.5-0.5-17-3.1-25.2c-7.4-23.8-29.2-38.3-53.7-35.6
		c-19.8,2.2-37.4,18.7-42.1,39.6c-2.1,9.5-1.8,19.2-2.3,28.9c-0.5,8.5-0.4,17.2-3.6,25.1c-2.5,6.2-1.2,10.5,3.1,14.7
		c1.7,1.6,3.4,3.2,5.2,4.8c3.6,3.1,7.9,5.2,12.5,7.6c0.1,0.1,0.2,0.1,0.4,0.2c-0.1,0.1-0.3,0.1-0.4,0.2c-3,1.5-5.5,2.9-8.2,4
		c-9.9,4.2-17.9,10.1-20.8,21.1v50.2c2.1,2.4,4.1,4.8,7.8,3.4c3.6-1.4,4-4.4,4-7.7c0-13.2,0-26.4,0-39.6c0-6.4,2.7-11,8.4-13.8
		c3.3-1.6,6.5-3.3,9.8-4.9c2.7-1.3,5.3-3.6,8.1-3.7c3.1-0.1,4.8,3.6,7.1,5.6c11.1,9.6,24.5,9.5,35.3-0.5c1.5-1.4,3-2.9,4.5-4.3
		c2.7-2.7,4.4,0.5,6.5,1.2c2.5,0.9,0.3,2.4-0.1,3.4c-2.2,4.7-3.2,9.7-3.2,14.8c0,14,0,28,0,42c0,1.4,0.1,2.9,0.6,4.2
		c1,2.6,3.1,4,5.8,3.7c2.7-0.3,4.6-1.8,5.1-4.6c0.3-1.4,0.2-2.9,0.2-4.3c0-13.6,0-27.2,0-40.8c0-10,4.7-16.5,14-20
		c11.4-4.2,22.8-8.3,34.1-12.5c2-0.7,3.1-0.6,4.4,1.4c4.4,7,9,13.8,13.6,20.6c5.3,7.8,13.5,8.6,20.3,1.9c2.7-2.7,5.1-5.6,7.6-8.5
		c0,0,0.1-0.1,0.1-0.1c0,0,0.1,0.1,0.1,0.1c0.3,0.2,0.7,0.5,1,0.7v18.7c0,13.6,0,27.2,0,40.8c0,4.1,2.4,6.6,5.7,6.7
		c3.2,0.1,5.7-2.5,6.1-6.4c0.1-1,0-2.1,0-3.1c0-17.7,0-35.3,0-53c0-1.2-0.4-2.5,0.5-3.9c0,0,0.1-0.1,0.1-0.1l0.1,0.1
		c2.7,2.7,5.3,5.4,7.9,8c7,6.8,15.1,6.1,20.5-1.9c4.6-6.7,9.1-13.4,13.4-20.2c1.3-2.1,2.5-2.3,4.7-1.5c10.9,4.1,21.8,8,32.7,12
		c11.1,4.1,15.3,10,15.3,21.8c0,13.6,0,27.2,0,40.8c0,2.6,0.3,5,2.6,6.6c1.9,1.3,3.9,1.4,5.9,0.3c2.5-1.3,3.2-3.6,3.2-6.3
		c0-11-0.1-22,0-33c0.2-11.7,0.4-23.3-8.4-32.2c4.8-3.9,8.1-2.3,11.4,1.8c2.3,2.9,5,5.4,7.8,7.8c2.1,1.8,2.6,3.8,2.6,6.5
		c-0.1,14.5-0.1,29,0,43.6c0,2.5-0.1,5,0.1,7.4c0.3,3,2.3,4.8,5.1,5.1c2.9,0.3,5.1-1.1,6-4c0.4-1.3,0.5-2.8,0.5-4.2
		c0-11.5,0-23,0-34.5c0-5.8-1.5-12.2,0.6-17.1c2.2-5.1,8-8.8,12.2-13c0.2-0.2,0.4-0.4,0.5-0.6c0.9-1.2,2-1.2,3.5-0.8
		c7.5,2.3,15,4.4,22.5,6.6c8.7,2.5,11.8,6.6,11.8,15.6c0,14.8,0,29.6,0,44.3c0,5,2.1,7.7,5.8,7.8c3.7,0,5.9-2.8,5.9-7.7
		C404.4,329.7,404.4,314.4,404.3,299.1z M345.5,272c-2.9,2.4-5.5,5.2-8,8c-1.6,1.7-2.5,1.5-4-0.1c-2.4-2.6-4.8-5.2-7.5-7.5
		c-3.1-2.6-4.7-5.4-2.9-9.7c10.1,2.4,13.2,2.4,25.1,0.1C349.4,266.5,348.6,269.4,345.5,272z M329.1,252
		c-11.9-2.6-19.5-10.4-23.6-21.8c-1.8-5-2-10.3-1.7-15.5c0.3-5.1-0.7-9.8-3.3-14.2c-7.8-13.3,0.1-31.8,16.8-35.8
		c4.6-1.1,9.4-0.8,14.1-0.8c5.4,0,10.7,0,16.1,0c7.8,0,15.7,0,23.5,0c1.4,0,3-0.4,2.9,2c-0.3,8.9,0.5,17.8-0.5,26.6
		c-0.3,2.4-0.8,4.8-2,6.7c-4.1,6.2-3.8,13.1-3.8,20c0.1,8.5-2.2,16.2-8,22.7C351.2,250.9,340.9,254.5,329.1,252z M225.5,285.1
		c-4.1-4.3-8.5-8.4-13-12.9c9-6.1,17.7-12.1,26.3-18.1c1.2-0.8,1.9-0.6,3,0.4c4.7,4.4,4.8,4.4,1.2,9.7c-4.6,6.8-9.2,13.6-13.6,20.5
		C228,287,227.3,286.9,225.5,285.1z M210.3,227.3c-27.5,2.9-48.7-13-58.1-32.8c-4.3-9.2-5.9-18.9-5.9-28.9c0-7.2-0.5-14-3-21.1
		c-4.8-13-4.6-26.8-1.9-40.3c4.1-20.2,21.7-34.3,42.4-34.7c13.1-0.3,26.2,0,39.2,0c0,0,0,0,0,0c13.5,0,26.9,0.1,40.4-0.1
		c2.6,0,3.6,0.5,3.5,3.4c-0.1,17.7,0,35.3-0.1,53c0,7.9-1.4,15.6-4.6,22.9c-1.2,2.7-1.7,5.4-1.7,8.4c0,9.5,0.5,19.1-2,28.5
		C252.5,207.7,232.4,225,210.3,227.3z M180.8,285.6c-1.3,1.3-1.9,1.2-2.9-0.3c-5.4-8.2-10.8-16.3-16.3-24.4c-0.8-1.2-0.7-1.9,0.2-3
		c4.2-5.1,4.1-5.2,9.7-1.4c7.5,5.1,15,10.3,22.9,15.6C189.7,276.9,185.2,281.2,180.8,285.6z M72.3,281.2c-4.8,2.4-9.2,2.6-14.1,0.3
		c-8.8-4.2-6.3-11.6-6-18.8c8.5,2.4,16.9,2.4,25.4,0C78.2,269.7,80.9,276.9,72.3,281.2z M59.9,252.4c-13-1.7-24.4-13.2-26.3-27.3
		c-0.2-1.6-0.4-3.1-0.6-4.7c-0.2-1.9-1.1-4-2.9-4.3c-4.7-0.7-3.6-3.8-3.6-6.8c0.1-9.5,1.6-18.8,6.7-27c7.3-11.7,18-18.3,31.8-18.3
		c13.9,0,24.6,6.7,31.9,18.6c5.8,9.5,6.5,20.1,6.7,31.6c-13.1-17.2-30.4-23.4-50.4-24.3c-2.2-0.1-4.1,0.6-5.6,2.2
		c-3.3,3.4-6.6,6.7-9.8,10.2c-2.6,2.9-2.5,6.5,0,8.7c2.4,2.1,5.8,1.9,8.5-0.6c1.1-1,2.2-1.9,3-3.1c3.5-5.3,8.3-6,14.2-4.7
		c12.1,2.8,22.6,7.6,30.1,18c2.7,3.8,2.8,7.3,1.2,11.3C89.9,244.9,76.9,254.6,59.9,252.4z M93.9,253.4c5-3.7,8.3-9.1,11.3-15.4
		c1.1,4.6,1.6,8.6,3.1,12.3c0.6,1.6-0.6,2.4-1.5,3.3c-4.7,4.7-10.4,7.6-16.8,10C88.8,259,90.3,256.1,93.9,253.4z M22.4,253
		c-0.8-0.8-1.1-1.5-0.7-2.8c1.1-3.8,2-7.7,3.1-12.1c3.5,7.3,8.2,13.3,14.4,18c1.2,0.9,1.1,1.3,0.6,7.4C33.2,261.4,27.4,258,22.4,253
		z M205.5,262.8c-1.5,1-2.5,1.2-4.1,0.1c-9.3-6.5-18.7-12.8-28.1-19.2c-1.4-1-2.8-10.1-1.7-11.3c0.9-0.9,1.7,0,2.4,0.3
		c11.6,5.6,23.8,7.6,36.5,6.3c8.5-0.9,16.5-3.3,24.5-7.3c0.2,0.6,0.2,0.8,0.2,0.9c1.3,6.9-1,11.5-7.5,15.1
		C220.1,252.1,212.9,257.6,205.5,262.8z M360.2,196.4c0.3-3.3-1.7-5.3-4.6-6.5c-10.4-4.3-21.4-5.4-32.5-6.2c-2.2,0-4.4-0.2-6.6,0
		c-3.3,0.3-5.3,2.1-5.5,5.5c-0.2,3.2,1.8,5.4,5.4,6c1,0.2,2.1,0.2,3.1,0.3c11.1,0.5,22.1,1.4,32.6,5.6
		C356,202.7,359.9,200.3,360.2,196.4z M223.1,114.2c-19.7-4.3-39.4-3.5-59.2-0.7c-3.8,0.6-6.6,2.7-8.7,6.1
		c-2.4,3.9-1.5,8.1-1.7,12.2c0,2.4-0.2,4.7,0,7.1c0.3,3.9,2.5,6,5.9,6c3.4,0,5.6-2.2,5.8-6.1c0.2-3.5,0.2-7.1,0-10.6
		c-0.1-2.3,0.6-3.1,3-3.4c11.9-1.5,23.9-2.4,35.9-1.4c14.3,1.2,28.2,3.5,39.5,13.7c2.7,2.5,6.3,2,8.4-0.5c2.1-2.5,1.8-5.8-0.9-8.4
		C243.2,120.6,233.5,116.5,223.1,114.2z M355.6,189.9c-10.4-4.3-21.4-5.4-32.5-6.2c-2.2,0-4.4-0.2-6.6,0c-3.3,0.3-5.3,2.1-5.5,5.5
		c-0.2,3.2,1.8,5.4,5.4,6c1,0.2,2.1,0.2,3.1,0.3c11.1,0.5,22.1,1.4,32.6,5.6c4,1.6,7.8-0.8,8.2-4.7
		C360.5,193,358.5,191.1,355.6,189.9z M251.1,128.1c-7.9-7.5-17.5-11.6-28-13.9c-19.7-4.3-39.4-3.5-59.2-0.7
		c-3.8,0.6-6.6,2.7-8.7,6.1c-2.4,3.9-1.5,8.1-1.7,12.2c0,2.4-0.2,4.7,0,7.1c0.3,3.9,2.5,6,5.9,6c3.4,0,5.6-2.2,5.8-6.1
		c0.2-3.5,0.2-7.1,0-10.6c-0.1-2.3,0.6-3.1,3-3.4c11.9-1.5,23.9-2.4,35.9-1.4c14.3,1.2,28.2,3.5,39.5,13.7c2.7,2.5,6.3,2,8.4-0.5
		C254.1,134,253.8,130.7,251.1,128.1z M355.6,189.9c-10.4-4.3-21.4-5.4-32.5-6.2c-2.2,0-4.4-0.2-6.6,0c-3.3,0.3-5.3,2.1-5.5,5.5
		c-0.2,3.2,1.8,5.4,5.4,6c1,0.2,2.1,0.2,3.1,0.3c11.1,0.5,22.1,1.4,32.6,5.6c4,1.6,7.8-0.8,8.2-4.7
		C360.5,193,358.5,191.1,355.6,189.9z M251.1,128.1c-7.9-7.5-17.5-11.6-28-13.9c-19.7-4.3-39.4-3.5-59.2-0.7
		c-3.8,0.6-6.6,2.7-8.7,6.1c-2.4,3.9-1.5,8.1-1.7,12.2c0,2.4-0.2,4.7,0,7.1c0.3,3.9,2.5,6,5.9,6c3.4,0,5.6-2.2,5.8-6.1
		c0.2-3.5,0.2-7.1,0-10.6c-0.1-2.3,0.6-3.1,3-3.4c11.9-1.5,23.9-2.4,35.9-1.4c14.3,1.2,28.2,3.5,39.5,13.7c2.7,2.5,6.3,2,8.4-0.5
		C254.1,134,253.8,130.7,251.1,128.1z M355.6,189.9c-10.4-4.3-21.4-5.4-32.5-6.2c-2.2,0-4.4-0.2-6.6,0c-3.3,0.3-5.3,2.1-5.5,5.5
		c-0.2,3.2,1.8,5.4,5.4,6c1,0.2,2.1,0.2,3.1,0.3c11.1,0.5,22.1,1.4,32.6,5.6c4,1.6,7.8-0.8,8.2-4.7
		C360.5,193,358.5,191.1,355.6,189.9z M251.1,128.1c-7.9-7.5-17.5-11.6-28-13.9c-19.7-4.3-39.4-3.5-59.2-0.7
		c-3.8,0.6-6.6,2.7-8.7,6.1c-2.4,3.9-1.5,8.1-1.7,12.2c0,2.4-0.2,4.7,0,7.1c0.3,3.9,2.5,6,5.9,6c3.4,0,5.6-2.2,5.8-6.1
		c0.2-3.5,0.2-7.1,0-10.6c-0.1-2.3,0.6-3.1,3-3.4c11.9-1.5,23.9-2.4,35.9-1.4c14.3,1.2,28.2,3.5,39.5,13.7c2.7,2.5,6.3,2,8.4-0.5
		C254.1,134,253.8,130.7,251.1,128.1z M355.6,189.9c-10.4-4.3-21.4-5.4-32.5-6.2c-2.2,0-4.4-0.2-6.6,0c-3.3,0.3-5.3,2.1-5.5,5.5
		c-0.2,3.2,1.8,5.4,5.4,6c1,0.2,2.1,0.2,3.1,0.3c11.1,0.5,22.1,1.4,32.6,5.6c4,1.6,7.8-0.8,8.2-4.7
		C360.5,193,358.5,191.1,355.6,189.9z M251.1,128.1c-7.9-7.5-17.5-11.6-28-13.9c-19.7-4.3-39.4-3.5-59.2-0.7
		c-3.8,0.6-6.6,2.7-8.7,6.1c-2.4,3.9-1.5,8.1-1.7,12.2c0,2.4-0.2,4.7,0,7.1c0.3,3.9,2.5,6,5.9,6c3.4,0,5.6-2.2,5.8-6.1
		c0.2-3.5,0.2-7.1,0-10.6c-0.1-2.3,0.6-3.1,3-3.4c11.9-1.5,23.9-2.4,35.9-1.4c14.3,1.2,28.2,3.5,39.5,13.7c2.7,2.5,6.3,2,8.4-0.5
		C254.1,134,253.8,130.7,251.1,128.1z M251.1,128.1c-7.9-7.5-17.5-11.6-28-13.9c-19.7-4.3-39.4-3.5-59.2-0.7
		c-3.8,0.6-6.6,2.7-8.7,6.1c-2.4,3.9-1.5,8.1-1.7,12.2c0,2.4-0.2,4.7,0,7.1c0.3,3.9,2.5,6,5.9,6c3.4,0,5.6-2.2,5.8-6.1
		c0.2-3.5,0.2-7.1,0-10.6c-0.1-2.3,0.6-3.1,3-3.4c11.9-1.5,23.9-2.4,35.9-1.4c14.3,1.2,28.2,3.5,39.5,13.7c2.7,2.5,6.3,2,8.4-0.5
		C254.1,134,253.8,130.7,251.1,128.1z M251.1,128.1c-7.9-7.5-17.5-11.6-28-13.9c-19.7-4.3-39.4-3.5-59.2-0.7
		c-3.8,0.6-6.6,2.7-8.7,6.1c-2.4,3.9-1.5,8.1-1.7,12.2c0,2.4-0.2,4.7,0,7.1c0.3,3.9,2.5,6,5.9,6c3.4,0,5.6-2.2,5.8-6.1
		c0.2-3.5,0.2-7.1,0-10.6c-0.1-2.3,0.6-3.1,3-3.4c11.9-1.5,23.9-2.4,35.9-1.4c14.3,1.2,28.2,3.5,39.5,13.7c2.7,2.5,6.3,2,8.4-0.5
		C254.1,134,253.8,130.7,251.1,128.1z"/>
	<path class="st0" d="M379.2,345.5c0,4.5-2.5,7.3-6.1,7.2c-3.5-0.1-5.7-2.8-5.7-7.1c0-11.8,0-23.5,0-35.3c0-4.5,2.3-7.2,6-7.1
		c3.5,0.1,5.7,2.7,5.7,7c0.1,5.9,0,11.8,0,17.6C379.2,333.8,379.3,339.7,379.2,345.5z"/>
	<path class="st0" d="M39.3,346.2c-0.1,3.9-2.6,6.5-5.9,6.5c-3.2,0-5.8-2.6-5.8-6.2c-0.1-9.8-0.1-19.6,0-29.4c0-3.7,2.6-6,5.9-6
		c3.3,0,5.7,2.4,5.8,6.1c0.1,5,0,9.9,0,14.9C39.4,336.8,39.4,341.5,39.3,346.2z"/>
	<path class="st0" d="M278.6,346.6c-0.1,3.6-2.8,6.1-5.9,6.1c-3.3,0-5.7-2.6-5.8-6.6c-0.1-4,0-8.1,0-12.1c0-3.9-0.1-7.8,0-11.7
		c0.1-3.8,2.2-6.2,5.4-6.4c3.4-0.2,6.1,2.2,6.2,6.1C278.8,330.2,278.8,338.4,278.6,346.6z"/>
	<path class="st0" d="M140,334.2c0,4,0.1,8.1,0,12.1c-0.1,3.7-2.4,6.2-5.5,6.4c-3.2,0.2-6-2.4-6.1-6.2c-0.2-8.1-0.2-16.2,0-24.3
		c0.1-4,2.6-6.4,6-6.3c3.4,0.1,5.6,2.4,5.7,6.6C140.1,326.3,140.1,330.3,140,334.2z"/>
	<path class="st0" d="M252,136.5c-2,2.5-5.6,3-8.4,0.5c-11.3-10.2-25.2-12.5-39.5-13.7c-12-1-24-0.1-35.9,1.4
		c-2.3,0.3-3.1,1.1-3,3.4c0.2,3.5,0.2,7.1,0,10.6c-0.2,3.9-2.4,6.1-5.8,6.1c-3.4,0-5.6-2.1-5.9-6c-0.2-2.3,0-4.7,0-7.1
		c0.2-4.1-0.7-8.4,1.7-12.2c2-3.4,4.9-5.5,8.7-6.1c19.8-2.8,39.5-3.6,59.2,0.7c10.5,2.3,20.1,6.4,28,13.9
		C253.8,130.7,254.1,134,252,136.5z"/>
	<path class="st0" d="M360.2,196.4c-0.3,3.9-4.1,6.3-8.2,4.7c-10.5-4.2-21.5-5-32.6-5.6c-1-0.1-2.1-0.1-3.1-0.3
		c-3.6-0.6-5.6-2.8-5.4-6c0.2-3.4,2.3-5.2,5.5-5.5c2.2-0.2,4.4,0,6.6,0c11.1,0.8,22.1,1.9,32.5,6.2
		C358.5,191.1,360.5,193,360.2,196.4z"/>
	<path class="st0" d="M252,136.5c-2,2.5-5.6,3-8.4,0.5c-11.3-10.2-25.2-12.5-39.5-13.7c-12-1-24-0.1-35.9,1.4
		c-2.3,0.3-3.1,1.1-3,3.4c0.2,3.5,0.2,7.1,0,10.6c-0.2,3.9-2.4,6.1-5.8,6.1c-3.4,0-5.6-2.1-5.9-6c-0.2-2.3,0-4.7,0-7.1
		c0.2-4.1-0.7-8.4,1.7-12.2c2-3.4,4.9-5.5,8.7-6.1c19.8-2.8,39.5-3.6,59.2,0.7c10.5,2.3,20.1,6.4,28,13.9
		C253.8,130.7,254.1,134,252,136.5z"/>
	<path class="st0" d="M360.2,196.4c-0.3,3.9-4.1,6.3-8.2,4.7c-10.5-4.2-21.5-5-32.6-5.6c-1-0.1-2.1-0.1-3.1-0.3
		c-3.6-0.6-5.6-2.8-5.4-6c0.2-3.4,2.3-5.2,5.5-5.5c2.2-0.2,4.4,0,6.6,0c11.1,0.8,22.1,1.9,32.5,6.2
		C358.5,191.1,360.5,193,360.2,196.4z"/>
</g>
</svg>
