<?xml version="1.0" encoding="utf-8"?>
<!-- Generator: Adobe Illustrator 26.0.3, SVG Export Plug-In . SVG Version: 6.00 Build 0)  -->
<svg version="1.1" id="Calque_1" xmlns="http://www.w3.org/2000/svg" xmlns:xlink="http://www.w3.org/1999/xlink" x="0px" y="0px"
	 viewBox="0 0 409.6 410.1" style="enable-background:new 0 0 409.6 410.1;" xml:space="preserve">
<style type="text/css">
	.st0{fill:#FFFFFF;}
</style>
<g>
	<path class="st0" d="M147.9,408.2l-0.7-0.5c-2.2-1.7-4.5-3.9-4.8-6.8c-0.3-2.9,1.3-5.4,3-7.5c7.8-9.6,13.7-20.8,17.6-33.2
		c0.4-1.1,0.8-2.2,1.2-3.2c1.6-3.4,4.4-5.4,7.6-5.4c0.9,0,1.9,0.2,2.8,0.5c2.2,0.8,3.9,2.4,4.8,4.3c0.8,1.9,0.9,4.1,0,6.2
		c-3.2,7.8-6.6,15.6-9.9,23.1l-2,4.5c-0.2,0.4-0.4,0.8-0.6,1.2h75c-10.6-16.9-16.9-36.5-20.4-63.4c-0.5-3.5-0.8-7.1-1.1-10.5
		c-0.2-2.1-0.4-4.2-0.6-6.3c-1.3-11.9,1.5-23.2,8.2-33.6c5.1-8,10.3-16.1,15.3-24c1.7-2.7,3.4-5.5,5.2-8.2c-0.9,0.9-1.8,1.8-2.6,2.7
		c-3.5,3.5-7,7.2-10.7,10.7c-2.8,2.7-6,4.1-9.3,4.1c-1.7,0-3.4-0.4-5-1.1c-4.8-2.3-7.2-7-6.5-13.1c1.1-9.2,2.4-18.6,3.6-27.6
		c0.4-3.1,0.8-6.2,1.3-9.3c0-0.3,0.1-0.6,0.2-0.9c0-0.3,0.1-0.6,0.1-0.9c-0.1,0-0.2,0-0.3-0.1c-1.1-0.2-1.9-0.2-2.5-0.2
		c-0.6,0-0.8,0.1-0.8,0.1c0,0-0.2,0.3-0.4,1.7c-2.9,16.8-5.9,33.6-8.8,50.5c0,0.2-0.2,1.2-0.2,1.2c-1,5.8-4.2,9.4-9.3,10.6
		c-0.9,0.2-1.9,0.3-2.7,0.3c-3.7,0-7-1.8-9.9-5.5c-8.2-10.2-16.5-20.3-24.7-30.4l-3.4-4.2c-0.4-0.5-0.9-1.1-1.1-1.1
		c-0.1,0-0.3,0-0.6,0.1c-1.1,0.4-2.6,1-3.3,1.4c0.3,0.8,1.2,2.3,1.7,3.1c2.8,4.7,5.6,9.3,8.4,14c6.2,10.4,12.6,21.1,19,31.6
		c7.3,11.9,9.8,24.1,7.5,37.3c-0.6,3.3-1.1,6.7-1.5,10c-0.3,1.9-0.6,3.9-0.8,5.8c-0.8,5.5-3.9,8.7-8.3,8.7c-0.5,0-1.1-0.1-1.7-0.2
		c-4.8-0.9-7.2-5-6.3-11.1l0.5-3.7c0.9-5.9,1.7-11.9,2.4-17.9c0.7-6.5-1.1-13.1-5.5-19.9c-1.6,0.5-3.1,1-4.7,1.5
		c-4.6,1.5-9.4,3-14.3,3.6c-3.5,0.4-6.9,0.6-10.1,0.6c-20.2,0-35.8-8-46.4-23.8c-3.9-5.8-8-7.8-13.7-9.2c-24.5-6-44-24-52-48.3
		c-8-24.3-3.2-50.3,13-69.7c4.4-5.3,10-9.5,15.5-13.6c1.4-1,2.8-2.1,4.1-3.1c1.4-1.1,1.4-1.1,0.9-2.5c-7.1-20.4-3.9-42.4,8.7-60.2
		c12.5-17.6,32.7-28.2,54-28.2c1.4,0,2.9,0,4.4,0.1c4.4,0.3,8.7,1.2,13,2c1.3,0.3,2.7,0.5,4.1,0.8C155.9,16.2,177,2.5,204.3,2.5
		c27.4,0,48.5,13.7,61.3,39.7c1-0.2,2.1-0.4,3.1-0.6c3.4-0.7,7-1.5,10.5-1.9c2.5-0.3,5.1-0.5,7.7-0.5c23.6,0,47.5,14.2,58.2,34.5
		c2.4,4.6,1.3,9.1-2.7,11.5c-1.3,0.8-2.8,1.2-4.2,1.2c-2.9,0-5.4-1.6-7.2-4.5c-5-8.2-10.3-13.9-16.7-17.9c-8.8-5.6-18-8.4-27.3-8.4
		c-6.2,0-12.6,1.2-19,3.6c-0.5,0.2-1,0.4-1.4,0.6c-0.5,0.2-0.9,0.4-1.4,0.6c-1.7,0.6-3.1,0.9-4.5,0.9c-3.6,0-6.2-2.1-7.7-6.4
		c-2.7-7.5-6.2-13.8-10.8-19.2c-8.8-10.5-23-16.8-37.9-16.8c-12.1,0-23.4,4.1-31.9,11.5c-7.5,6.5-12.6,14-15.7,22.8
		c-1.5,4.2-3.5,8.1-8.2,8.1c-1.7,0-3.7-0.5-6.6-1.7c-6.3-2.6-12.9-3.9-19.7-3.9c-13.4,0-26.5,5.4-35.8,14.9
		c-14.6,14.9-18.6,36.8-10.2,55.9c3.7,8.5,2.7,11.2-6.3,15.8c-15.4,8-26.5,22-30.3,38.5c-3.8,16.3-0.1,33.5,10.2,47.2
		c10,13.5,23.7,21.1,40.7,22.6c4.1,0.4,8.5,1.5,10.6,7.2c4.8,13,15,20.7,31.3,23.4c2.4,0.4,4.8,0.6,7.1,0.6c6.2,0,12.4-1.4,18.5-4.2
		c-0.5-0.8-0.9-1.6-1.4-2.4c-1.9-3.2-3.8-6.3-5.7-9.5c-4.3-7.2-8.7-14.5-13-21.7c-3.1-5.2-3.9-10.2-2.5-14.6
		c1.4-4.3,5-7.9,10.5-10.3c4.6-2,7.7-2.8,10.5-2.8c5.6,0,9.4,3.3,13.8,8.7c4.5,5.5,8.9,11,13.4,16.4c2.8,3.4,5.6,6.9,8.4,10.3
		l0.4-2.2c0.9-4.9,1.7-9.5,2.6-14.2c0.7-3.9,1.3-7.7,2-11.6c0.9-5.4,1.9-10.8,2.8-16.2c1.6-8.9,7.7-14.1,16.7-14.1
		c0.2,0,0.5,0,0.7,0c1.4,0,3,0.2,4.9,0.5c9.1,1.3,14.7,8.2,13.9,17.1c-0.6,6.5-1.5,13-2.4,19.4c-0.4,2.7-0.7,5.3-1.1,8
		c2.8-2.9,5.7-5.9,8.6-8.8c3.3-3.3,7.1-5,11.2-5c1.2,0,2.4,0.1,3.7,0.4c5.1,1.2,9.1,4.5,11,9c2,4.7,1.5,10.2-1.5,15.1
		c-3.4,5.7-7,11.4-10.6,16.8c-1.6,2.6-3.3,5.1-4.9,7.7c-0.5,0.8-1,1.6-1.5,2.4c0,0-0.1,0.1-0.1,0.1c3.6,2.2,7.8,3.7,12.7,4.5
		c3.3,0.5,6.5,0.8,9.5,0.8c12.7,0,22.9-4.5,31.3-13.7c2.1-2.3,4.1-5.6,5.4-9.2c1.9-5,5.2-7.5,10.7-8.1c22.4-2.3,38.5-13.9,47.8-34.4
		c12-26.4,0.2-60-25.7-73.3c0,0-0.9-0.5-1.1-0.6c-9.6-4.9-10.4-7.2-6.1-17.1c2.7-6.1,3.9-12.9,3.8-20.7c0-0.3,0-0.6,0-0.9
		c0-0.6-0.1-1.3,0-2c0.3-4.8,3.5-8.2,7.8-8.4c0.1,0,0.3,0,0.4,0c2.2,0,4.2,0.8,5.8,2.4c1.6,1.6,2.4,3.8,2.4,6.1
		c-0.1,6-0.5,12-1.3,17.8c-0.4,2.8-1.2,5.5-1.9,7.8c-0.1,0.4-0.2,0.7-0.3,1.1c1.7,1.4,3.4,2.8,5.1,4.1c4.5,3.6,9.2,7.3,13,11.7
		c19.4,22.1,24.4,48,14.5,75c-9.7,26.4-29.3,42.3-58.2,47.5c-1.1,0.2-2.3,1-2.4,1.3c-10.6,20.2-28.1,30-53.5,30
		c-9.6,0-18.9-2.5-28.4-7.6c-3.1,5.3-4.4,11.3-3.8,18.1c1.4,16.6,3.5,34.3,9.3,51.6c4.4,12.9,10.2,23.8,17.8,33.1
		c1.8,2.2,3.6,4.8,3.3,7.8c-0.3,2.9-2.6,5.1-4.8,6.8l-0.7,0.5H147.9z"/>
	<path class="st0" d="M204.4,5c28.3,0,48,14.8,59.8,40.1c5.2-1,10.2-2.2,15.3-2.9c2.4-0.3,4.9-0.5,7.3-0.5
		c22.6,0,45.6,13.4,55.9,33.2c1.8,3.4,1.1,6.5-1.8,8.2c-1,0.6-1.9,0.9-2.9,0.9c-1.9,0-3.7-1.1-5.1-3.3c-4.6-7.5-10-14-17.5-18.7
		c-9.3-5.9-18.8-8.8-28.7-8.8c-6.5,0-13.2,1.3-19.9,3.8c-1,0.4-1.9,0.8-2.9,1.2c-1.3,0.5-2.5,0.8-3.6,0.8c-2.5,0-4.2-1.5-5.3-4.7
		c-2.6-7.3-6.2-14-11.2-20c-9.8-11.7-24.8-17.7-39.8-17.7c-12.1,0-24.2,4-33.5,12.1c-7.5,6.6-13.1,14.4-16.4,23.9
		c-1.6,4.5-3.1,6.5-5.8,6.5c-1.5,0-3.3-0.5-5.6-1.5c-6.7-2.8-13.7-4.1-20.7-4.1c-13.9,0-27.5,5.4-37.5,15.6
		c-15.3,15.6-19.5,38.6-10.7,58.7c3.2,7.3,2.7,8.5-5.2,12.6c-33.5,17.4-43.5,59.3-21,89.5c10.5,14.1,24.8,22,42.4,23.6
		c3.9,0.4,6.9,1.3,8.5,5.5c5.6,15.5,17.9,22.4,33.2,25c2.5,0.4,5,0.6,7.5,0.6c7.5,0,14.8-1.9,22-5.6c-1-1.7-1.9-3.2-2.8-4.7
		c-6.2-10.4-12.5-20.8-18.7-31.2c-5.5-9.2-3-17,6.8-21.3c3.9-1.7,6.9-2.6,9.6-2.6c4.3,0,7.5,2.4,11.9,7.8
		c7.4,9.1,14.8,18.2,22.2,27.3c0.8,1,1.7,1.9,3,3.4c1.4-7.6,2.7-14.6,3.9-21.6c1.6-9.3,3.2-18.5,4.8-27.7c1.4-7.7,6.5-12,14.2-12
		c0.2,0,0.4,0,0.6,0c1.6,0,3.1,0.2,4.7,0.4c7.7,1.1,12.5,6.6,11.7,14.4c-0.9,9.3-2.4,18.6-3.6,27.9c-0.2,1.8-0.4,3.5,0.2,5.7
		c4.2-4.3,8.5-8.7,12.8-13c2.7-2.7,5.8-4.2,9.4-4.2c1,0,2,0.1,3.1,0.4c9.2,2.2,13.1,11.8,8,20.3c-5,8.3-10.3,16.3-15.4,24.5
		c-0.9,1.4-1.8,2.9-2.9,4.6c4.8,3.5,10.1,5.3,15.7,6.2c3.4,0.5,6.7,0.8,9.9,0.8c12.6,0,23.9-4.3,33.2-14.5c2.6-2.8,4.6-6.4,5.9-10
		c1.6-4.3,4.2-6,8.6-6.5c23.4-2.4,40.1-14.5,49.8-35.8c12.7-27.9,0.4-62.6-26.8-76.6c-0.4-0.2-0.7-0.4-1-0.5
		c-8.4-4.3-8.7-5.1-4.9-13.9c3-6.9,4.1-14.2,4-21.7c0-0.9-0.1-1.8-0.1-2.7c0.2-3.6,2.4-5.9,5.4-6.1c0.1,0,0.2,0,0.3,0
		c3.1,0,5.7,2.4,5.6,6c-0.1,5.8-0.5,11.7-1.3,17.5c-0.5,3.7-1.9,7.2-2.6,10.1c6.6,5.7,13.7,10.4,19.1,16.5
		c18.7,21.3,23.8,45.9,14,72.5c-9.6,26-29,41-56.3,45.9c-1.5,0.3-3.6,1.3-4.2,2.6c-10.9,20.8-28.9,28.7-51.3,28.7
		c-10.4,0-20-3.1-29.2-8.4c-4.6,6.7-6.1,14-5.5,21.6c1.5,17.7,3.7,35.3,9.5,52.2c4.2,12.3,10,23.8,18.2,33.9c3.9,4.9,3.7,7.2-1.1,11
		H148.8c-4.7-3.7-5.1-6.1-1.4-10.8c8.2-10.2,14.1-21.6,18-34c0.3-1,0.7-2,1.1-2.9c1.2-2.5,3.1-4,5.3-4c0.6,0,1.3,0.1,1.9,0.4
		c3,1.1,4.7,4,3.3,7.3c-3.8,9.3-7.8,18.4-11.9,27.6c-0.7,1.5-1.6,2.9-2.7,4.7h83.7c-0.8-1.4-1.3-2.5-2-3.5
		c-12.1-19.2-17.3-40.6-20.2-62.8c-0.7-5.6-1.1-11.2-1.8-16.7c-1.3-11.6,1.5-22.2,7.8-32c7.4-11.5,14.7-23.1,22-34.7
		c0.5-0.8,1.2-1.5,1.4-2.3c0.3-0.9,0.1-1.9,0.1-2.9c-1,0.2-2.1,0.3-3.1,0.7c-0.8,0.4-1.3,1.2-2,1.9c-5.1,5.1-10,10.3-15.2,15.3
		c-2.4,2.3-4.9,3.4-7.5,3.4c-1.3,0-2.6-0.3-3.9-0.9c-3.7-1.8-5.7-5.4-5-10.5c1.5-12.3,3.2-24.6,4.9-36.8c0.3-2.1,1.2-4.2-2.2-4.7
		c-1.2-0.2-2.1-0.3-2.9-0.3c-2.5,0-3.2,1-3.7,3.9c-2.9,16.8-5.9,33.6-8.8,50.5c-0.1,0.4-0.1,0.8-0.2,1.2c-0.8,4.3-2.9,7.6-7.4,8.6
		c-0.8,0.2-1.5,0.3-2.2,0.3c-3.3,0-5.8-1.8-8-4.5c-9.3-11.5-18.6-22.9-27.9-34.3c-1-1.2-1.8-2.4-3.3-2.4c-0.4,0-0.9,0.1-1.5,0.3
		c-6,2.3-6.2,2.5-2.9,8.1c9.1,15.2,18.1,30.5,27.4,45.6c6.8,11,9.4,22.8,7.2,35.6c-0.9,5.3-1.6,10.6-2.4,15.9
		c-0.7,4.3-2.7,6.6-5.8,6.6c-0.4,0-0.8,0-1.3-0.1c-3.5-0.6-4.9-3.6-4.3-8.3c1-7.2,2.2-14.4,2.9-21.7c0.9-8.7-2.3-16.4-6.9-23.1
		c-6.9,1.9-13.5,4.7-20.4,5.5c-3.3,0.4-6.6,0.6-9.8,0.6c-17.9,0-33.5-6.5-44.3-22.7c-4.1-6.2-8.5-8.6-15.2-10.2
		c-50.4-12.3-70.9-74.1-37.6-114C45.8,142,53,137.2,59.7,132c2.2-1.7,2.7-2.7,1.8-5.3c-14.5-41.6,17.1-85.1,60.3-85.1
		c1.4,0,2.8,0,4.2,0.1c6.2,0.4,12.3,2,18.6,3.1C156.3,19.8,176,5,204.4,5C204.4,5,204.4,5,204.4,5 M204.4,0L204.4,0L204.4,0L204.4,0
		c-27.9,0-49.4,13.6-62.6,39.3c-0.7-0.1-1.5-0.3-2.2-0.4c-4.3-0.9-8.8-1.8-13.3-2c-1.5-0.1-3-0.1-4.5-0.1c-22.1,0-43,10.9-56,29.2
		c-13.1,18.4-16.4,41.1-9.2,62.2c-1.3,1-2.7,2.1-4.1,3.1c-5.6,4.2-11.3,8.5-15.9,14c-16.7,20.1-21.7,47-13.5,72.1
		c8.3,25.1,28.4,43.8,53.7,49.9c6.1,1.5,9.1,3.5,12.3,8.2c11.1,16.5,27.4,24.9,48.4,24.9c3.3,0,6.8-0.2,10.4-0.6
		c5.1-0.6,10.1-2.2,14.8-3.7c0.9-0.3,1.8-0.6,2.8-0.9c3.4,5.8,4.7,11.2,4.2,16.7c-0.6,5.9-1.5,11.9-2.3,17.8
		c-0.2,1.2-0.4,2.5-0.5,3.7c-1.3,8.9,3.5,13.1,8.3,14c0.7,0.1,1.5,0.2,2.2,0.2c4.4,0,9.5-2.9,10.8-10.9c0.3-1.9,0.6-3.9,0.8-5.8
		c0.5-3.3,0.9-6.6,1.5-9.9c2.4-13.6-0.3-26.8-7.8-39c-6.4-10.4-12.8-21.2-19-31.5c-2.6-4.3-5.1-8.6-7.7-12.9l2,2.4
		c8.1,10,16.5,20.3,24.7,30.4c3.4,4.2,7.4,6.4,11.9,6.4c1.1,0,2.2-0.1,3.3-0.4c4.3-1,9.7-4,11.2-12.6c0-0.1,0.1-0.3,0.1-0.5
		c0-0.2,0.1-0.5,0.1-0.7c1.2-7,2.4-13.9,3.6-20.9c-0.3,2.3-0.6,4.6-0.9,6.9c-0.9,7.2,2,12.9,7.9,15.6c1.9,0.9,4,1.4,6,1.4
		c3.1,0,6.1-1,8.8-3c-2.9,4.6-5.9,9.3-8.8,13.9c-7,10.9-9.9,22.8-8.6,35.3c0.2,2.1,0.4,4.2,0.6,6.3c0.3,3.5,0.7,7,1.1,10.6
		c3.3,25.3,9,44.2,18.4,60.6h-66.7c0.3-0.7,0.7-1.5,1-2.2c3.3-7.6,6.8-15.4,9.9-23.2c1.1-2.7,1.1-5.6,0-8.2
		c-1.2-2.6-3.4-4.6-6.2-5.7c-1.2-0.4-2.4-0.7-3.7-0.7c-4.2,0-7.9,2.6-9.8,6.9c-0.5,1.1-1,2.3-1.3,3.5c-3.8,12.1-9.6,23-17.1,32.4
		c-1.9,2.3-4,5.5-3.5,9.3c0.4,3.8,3.1,6.4,5.7,8.5l1.4,1.1h1.7H260h1.7l1.4-1.1c2.6-2.1,5.3-4.7,5.7-8.5c0.4-3.8-1.7-7-3.8-9.6
		c-7.4-9.2-13.1-19.7-17.4-32.4c-5.8-17-7.8-34.6-9.2-51c-0.5-5.4,0.3-10.2,2.4-14.5c9.1,4.5,18.1,6.7,27.3,6.7
		c12.5,0,23.3-2.4,32.3-7.1c9.7-5.1,17.5-13.2,23.2-23.9c0.2-0.1,0.6-0.3,0.9-0.4c14.6-2.6,27-8,37.1-16c10.3-8.3,18-19.4,23-33
		c10.3-27.9,5.1-54.7-14.9-77.5c-4-4.5-8.8-8.3-13.4-12c-1.2-1-2.5-2-3.8-3c0.7-2.3,1.5-4.9,1.9-7.7c0.8-6,1.2-12,1.3-18.1
		c0-3-1-5.9-3.1-7.9c-2-2-4.7-3.1-7.5-3.1c-0.2,0-0.4,0-0.5,0c-5.7,0.3-9.8,4.6-10.2,10.7c-0.1,0.9,0,1.7,0,2.3c0,0.3,0,0.5,0,0.8
		c0.1,7.5-1.1,13.9-3.6,19.7c-1.9,4.5-3.6,8.4-2.2,12.3c1.4,3.9,5.1,5.8,9.5,8c0.2,0.1,0.4,0.2,0.6,0.3c0.1,0.1,0.3,0.2,0.5,0.2l0,0
		l0,0c24.8,12.7,36,44.8,24.5,70.1c-8.9,19.7-24.3,30.7-45.8,32.9c-6.5,0.7-10.6,3.8-12.8,9.7c-1.2,3.3-3,6.2-4.9,8.4
		c-7.9,8.7-17.6,12.9-29.5,12.9c-2.9,0-6-0.3-9.1-0.8c-3.6-0.6-6.8-1.5-9.6-2.9c0.1-0.1,0.1-0.2,0.2-0.3c1.6-2.6,3.3-5.1,4.9-7.7
		c3.5-5.5,7.2-11.2,10.6-16.9c3.3-5.6,3.9-11.9,1.6-17.4c-2.2-5.3-6.9-9.1-12.7-10.4c-1.4-0.3-2.8-0.5-4.2-0.5
		c-4.7,0-9.2,2-12.9,5.7c-1.1,1.1-2.3,2.3-3.4,3.4c0-0.2,0.1-0.4,0.1-0.6c0.9-6.4,1.8-12.9,2.4-19.5c1-10.3-5.5-18.3-16-19.8
		c-2.1-0.3-3.7-0.4-5.2-0.5c-0.3,0-0.5,0-0.8,0c-10.2,0-17.3,6-19.1,16.1c-1,5.4-1.9,10.9-2.8,16.2c-0.7,3.9-1.3,7.7-2,11.6
		c-0.6,3.7-1.3,7.3-2,11.1c-1.6-2-3.3-4-4.9-6c-4.4-5.4-8.9-11-13.4-16.5c-4.7-5.8-9.2-9.6-15.7-9.6c-3.2,0-6.6,0.9-11.5,3
		c-7.8,3.4-10.8,8.3-11.9,11.8c-1.1,3.5-1.6,9.3,2.8,16.6c4.3,7.2,8.7,14.6,13,21.7c1.9,3.1,3.8,6.3,5.7,9.4
		c-4.9,1.9-9.9,2.8-14.9,2.8c-2.2,0-4.5-0.2-6.7-0.6c-15.5-2.6-24.9-9.5-29.3-21.7c-2.9-7.9-10-8.5-12.7-8.8
		c-16.2-1.5-29.3-8.7-38.9-21.6c-9.8-13.1-13.3-29.6-9.7-45.2c3.6-15.8,14.2-29.2,29-36.9c4.3-2.2,7.7-4.2,9.1-7.6
		c1.5-3.7,0.2-7.4-1.6-11.4c-8-18.2-4.2-39,9.7-53.1c8.8-9,21.2-14.1,34-14.1c6.5,0,12.8,1.3,18.7,3.8c3.2,1.3,5.5,1.9,7.6,1.9
		c7.1,0,9.5-6.9,10.6-9.8c2.9-8.4,7.8-15.5,15-21.8c8-7,18.7-10.8,30.2-10.8c14.2,0,27.7,6,36,15.9c4.3,5.2,7.7,11.2,10.3,18.5
		c2.4,6.6,6.8,8,10,8c1.6,0,3.4-0.4,5.3-1.1c0.6-0.2,1.1-0.4,1.6-0.6c0.5-0.2,0.9-0.4,1.3-0.5C275,59.2,281.1,58,287,58
		c8.9,0,17.6,2.7,26,8c6,3.8,11.1,9.3,15.9,17.1c2.2,3.6,5.6,5.7,9.3,5.7c1.9,0,3.7-0.5,5.5-1.6c5.2-3.1,6.7-9,3.7-14.8
		C341.8,62,333.1,53,322,46.5c-10.9-6.4-23.1-9.9-35.1-9.9c-2.7,0-5.4,0.2-8,0.5c-3.6,0.5-7.2,1.2-10.7,2c-0.4,0.1-0.8,0.2-1.2,0.3
		C253.7,13.6,232.1,0,204.4,0L204.4,0z"/>
</g>
</svg>
