<?xml version="1.0" encoding="utf-8"?>
<!-- Generator: Adobe Illustrator 26.0.3, SVG Export Plug-In . SVG Version: 6.00 Build 0)  -->
<svg version="1.1" id="Calque_1" xmlns="http://www.w3.org/2000/svg" xmlns:xlink="http://www.w3.org/1999/xlink" x="0px" y="0px"
	 viewBox="0 0 409.3 408.7" style="enable-background:new 0 0 409.3 408.7;" xml:space="preserve">
<style type="text/css">
	.st0{fill:#FFFFFF;}
</style>
<g>
	<path class="st0" d="M24.7,225.7c-5.7,0.4-11.4,0.2-17.1,0.1c-3.9-0.1-6.1-2.8-7.6-6.1v-4c2.3-4.6,6.2-6.1,11.1-5.8
		c4.2,0.3,8.5,0,12.7,0.1c4.9,0.2,8,3.2,8.2,7.5C32.2,221.9,29.5,225.4,24.7,225.7z"/>
	<path class="st0" d="M361.5,204.7c-13.9-21.6-28-43-41.8-64.7c-4.8-7.4-11.1-10.8-19.9-10.8c-31.7,0.2-63.3,0.1-95,0.1
		c-31.9,0-63.9,0.1-95.8-0.1c-8.7,0-14.9,3.3-19.6,10.6c-13.9,21.7-28.1,43.3-42.1,64.9c-6.1,9.4-5.5,17.3,2,25.8
		c46.6,52.4,93.2,104.7,139.9,157.1c9.4,10.5,21.1,10.5,30.6-0.1c46.7-52.3,93.3-104.7,139.9-157.1
		C367.2,222.1,367.7,214.2,361.5,204.7z M293.4,145.7c-12.5,19.3-24.7,38.2-37.2,57.5c-12.5-19.4-24.7-38.2-37.2-57.5H293.4z
		 M241.4,209.8h-74.1c12.4-19.2,24.5-37.9,37-57.2C216.8,171.8,228.9,190.5,241.4,209.8z M189.8,145.7
		c-12.4,19.2-24.5,37.9-37.1,57.3c-12.4-19.2-24.6-38-37.1-57.3H189.8z M100.7,151.9c12.6,19.4,24.8,38.3,37.5,57.9H63
		C75.7,190.4,88,171.4,100.7,151.9z M187.9,362.3c-40.3-45.2-80.5-90.4-121.3-136.2h80.2c13.9,45.1,27.9,90.5,41.8,135.8
		C188.4,362.1,188.2,362.2,187.9,362.3z M204.9,357.2c-0.3,0-0.6,0.1-0.9,0.2c-13.4-43.6-26.9-87.2-40.4-131.2h81.8
		C231.8,270.1,218.3,313.6,204.9,357.2z M220.9,362.3c-0.2-0.1-0.5-0.3-0.7-0.4c13.9-45.2,27.9-90.5,41.8-135.8h80.2
		C301.5,271.8,261.2,317.1,220.9,362.3z M271,209.7c12.5-19.4,24.7-38.3,37.3-57.7c12.6,19.4,24.8,38.3,37.3,57.7H271z"/>
	<path class="st0" d="M212.5,47.6c0,8.1,0,16.2,0,24.3c0,5.9-3.2,9.5-7.9,9.5c-4.7,0-8-3.7-8-9.5c-0.1-16.4-0.1-32.7,0-49.1
		c0-5.8,3.4-9.4,8.2-9.2c4.7,0.1,7.7,3.5,7.7,9.3C212.6,31.1,212.5,39.4,212.5,47.6z"/>
	<path class="st0" d="M351.3,80.3c-0.7,1.2-1.6,3.5-3.2,5.2c-8.2,8.4-16.5,16.7-24.8,24.9c-4,4-8.7,4.1-12,0.8
		c-3.3-3.3-3.2-8,0.8-12c8.2-8.4,16.5-16.6,24.8-24.8c2.8-2.7,6-4.1,9.8-2.3C349.7,73.3,351.2,75.9,351.3,80.3z"/>
	<path class="st0" d="M100.1,103.8c0.1,7.5-6.2,11.4-11.5,8.5c-1.2-0.7-2.4-1.7-3.4-2.7c-7.9-7.9-15.8-15.8-23.7-23.7
		c-0.8-0.8-1.6-1.8-2.3-2.8c-2-3.2-1.6-7.3,1-9.8c2.6-2.6,6.7-3,9.9-0.9c1,0.7,1.9,1.5,2.7,2.3c7.9,7.9,15.9,15.7,23.7,23.7
		C98.3,100.3,99.4,102.7,100.1,103.8z"/>
	<path class="st0" d="M402,225.5c-6.2,0.5-12.4,0.5-18.6,0c-4.6-0.4-7-4-6.6-8.4c0.4-4,3.3-6.8,7.8-7.1c2.8-0.2,5.6,0,8.4,0
		c2.6,0,5.3-0.1,8,0c4.5,0.3,7.6,3.4,7.9,7.5C409,221.4,406.3,225.2,402,225.5z"/>
	<path class="st0" d="M212.4,100.6c-0.1,4.3-3.8,7.9-8,7.8c-4.2-0.1-7.9-3.9-7.8-8c0.1-4.2,3.8-7.8,8-7.8
		C209,92.7,212.5,96.3,212.4,100.6z"/>
</g>
</svg>
