<?xml version="1.0" encoding="utf-8"?>
<!-- Generator: Adobe Illustrator 26.0.3, SVG Export Plug-In . SVG Version: 6.00 Build 0)  -->
<svg version="1.1" id="Calque_1" xmlns="http://www.w3.org/2000/svg" xmlns:xlink="http://www.w3.org/1999/xlink" x="0px" y="0px"
	 viewBox="0 0 383.3 384.1" style="enable-background:new 0 0 383.3 384.1;" xml:space="preserve">
<style type="text/css">
	.st0{fill:#FFFFFF;stroke:#FFFFFF;stroke-width:3;stroke-miterlimit:10;}
</style>
<path class="st0" d="M371.2,98.9c-12.5-29.5-25-59.1-37.5-88.6c-1.9-4.5-4.7-5.6-9.1-3.7c-13.5,5.7-27.1,11.4-40.6,17.2
	c-4.1,1.7-5.2,4.5-3.5,8.6c1.1,2.8,2.3,5.6,3.6,8.7c-7,3.2-13.8,6.2-20.6,9.3c-65.3,29.2-130.5,58.5-195.8,87.7
	c-5.5,2.5-6.4,4.7-4,10.5c1.1,2.7,2.2,5.3,3.4,8.2c-3.1,1.3-5.8,2.5-8.5,3.7c-2.7,1.1-5.4,2.2-8.3,3.4c-1.5-3.5-2.9-6.8-4.3-10
	c-2.1-4.9-4.7-5.9-9.7-3.8c-6.8,2.8-13.5,5.7-20.3,8.6c-4.5,1.9-5.7,4.7-3.8,9.1c7.4,17.6,14.9,35.2,22.4,52.8
	c1.8,4.2,4.6,5.3,8.9,3.6c7-2.9,14-5.8,21-8.9c4.4-1.9,5.4-4.7,3.6-9.2c-1.4-3.4-2.8-6.7-4.3-10.3c5.8-2.4,11.2-4.7,16.8-7.1
	c1.3,3.1,2.5,5.8,3.7,8.5c2.2,5.1,4.7,6.1,9.9,4.1c9.8-3.9,19.5-7.8,29.3-11.7c8.4-3.3,16.8-6.7,25.1-10c0.3,0.5,0.5,0.7,0.5,0.9
	c0,3.7,0,7.4,0.1,11c0,6.1,1.9,8,7.8,8.1c1.1,0,2.2,0.1,3.6,0.2c-0.6,1.5-1,2.8-1.5,4c-20.1,49.6-40.2,99.2-60.3,148.7
	c-2.5,6.1-5,12.2-7.4,18.4c-1.3,3.3,0.1,6.4,3,7.7c3,1.3,6,0.1,7.6-3.2c0.6-1.2,1-2.5,1.5-3.7c22.8-56.2,45.6-112.3,68.3-168.5
	c1.2-2.9,2.7-3.7,5.7-3.7c8.9,0.2,17.9,0.2,26.9,0c3.2-0.1,4.6,1,5.8,3.9c22.7,56.3,45.6,112.6,68.4,168.8c0.6,1.4,1,2.8,1.8,4
	c1.7,2.5,4.1,3.4,7,2.3c2.8-1.1,4.2-4,3.4-6.9c-0.4-1.4-1-2.8-1.6-4.1c-22.1-54.6-44.3-109.1-66.4-163.7c-0.5-1.3-1-2.6-1.6-4.3
	c2.1,0,3.7,0.1,5.3,0c3.8-0.3,6.1-2.3,6.1-6c0.1-11.9,0.1-23.8,0-35.7c0-4-2.3-5.9-6.4-6c-2.1-0.1-4.2,0-6.3,0
	c0-0.3-0.1-0.6-0.1-0.9c31.5-12.6,63-25.2,94.3-37.7c0.5,0.5,0.6,0.6,0.6,0.7c1.1,2.5,2.2,4.9,3.3,7.4c2,4.5,4.6,5.7,9.1,3.7
	c13.4-5.6,26.8-11.3,40.2-17.1C371.9,106.1,373,103.3,371.2,98.9z M43.4,211.3c-6.2-14.6-12.3-29-18.6-43.8c4.2-1.8,8-3.4,12.1-5.1
	c6.2,14.7,12.3,29.1,18.6,43.8C51.5,207.9,47.6,209.5,43.4,211.3z M59.2,184.9c-1.5-3.5-2.9-6.7-4.4-10.3c5.6-2.4,11.1-4.7,16.8-7.1
	c1.5,3.4,2.8,6.7,4.4,10.3C70.4,180.1,65.1,182.4,59.2,184.9z M220.7,163.4v24.2h-59.9c0-4-0.1-7.7,0.1-11.5c0-0.9,1.2-2,2.1-2.4
	c8-3.3,16.1-6.5,24.1-9.7c0.8-0.3,1.7-0.6,2.5-0.6C199.9,163.4,210.1,163.4,220.7,163.4z M93.4,188.9c-5.9-14-11.7-27.7-17.7-41.7
	c71-31.8,141.7-63.5,212.8-95.3c7.1,16.8,14.2,33.4,21.4,50.4C237.6,131.2,165.6,160,93.4,188.9z M327,112.5
	c-11.4-26.8-22.5-53.2-33.9-79.9c10.6-4.5,20.9-8.9,31.6-13.4c11.3,26.6,22.4,53,33.9,79.9C348.1,103.5,337.8,107.9,327,112.5z"/>
</svg>
