<?xml version="1.0" encoding="utf-8"?>
<!-- Generator: Adobe Illustrator 26.0.3, SVG Export Plug-In . SVG Version: 6.00 Build 0)  -->
<svg version="1.1" id="Calque_1" xmlns="http://www.w3.org/2000/svg" xmlns:xlink="http://www.w3.org/1999/xlink" x="0px" y="0px"
	 viewBox="0 0 396.3 396.3" style="enable-background:new 0 0 396.3 396.3;" xml:space="preserve">
<style type="text/css">
	.st0{fill:#3DB1FE;}
	.st1{fill:#FFC552;}
	.st2{fill:#A1C877;}
	.st3{fill:#FEECD9;}
</style>
<g>
	<path class="st0" d="M327.8,174.6c-5.1,6.6-7,13.3-5.4,21.6c3.4,16.9-1,25.6-16.2,33.7c-0.7,0.3-1.2,0.8-1.8,1.2
		c-7.1,5.2-9.5,12.8-12,20.8c-4,12.3-13.2,18.7-26.1,18.3c-9.5-0.2-16.6,3.2-22,10.8c-3.1,4.3-7.7,7-12.4,9.3
		c-1.2,0.6-2.4,0.7-3.6,0.4c-6,0.9-11.8-0.4-17-3c-8.7-4.3-17-4.6-25.6,0.2c-5.5,3-11.6,3.4-17.8,3.1c-4.8,0.2-8-3.2-11.4-5.7
		c-2-1.5-3.8-3.3-5.2-5.4c-4.9-7-11.8-9.7-20-9.6c-4.2,0.1-8.2-0.6-12.1-2.1c-8.1-2.9-13-9.1-15.2-16.9c-2.3-7.8-4.5-15.3-11.3-20.4
		c-5.5-3.2-11.1-6.1-15.2-11.3c-5-6.4-5.4-13.8-3.8-21c2.1-9.5,0.3-17.3-5.6-25.1c-9-11.8-9.1-21.7,0-33.5c6-7.8,7.5-15.5,5.7-25.1
		c-2.6-14.2,0.4-22.5,14.7-29.8c8.7-4.4,13.4-10.3,15.8-19.7c3.4-13.5,10.8-20,25.4-20.3c9.8-0.2,17.2-3.5,23.5-11.3
		c9.1-11.2,18.8-13.7,32.3-7.5c8.7,4,16.6,4.1,25.3-0.1c13.5-6.6,24.3-3.8,33.7,8.2c5.3,6.8,11.9,10.1,20.6,10.1
		c15.5,0,24.3,6.9,27.8,21.8c2,8.5,6.5,14.4,14.5,18.2c13.8,6.7,18.5,16.5,15.4,31.6c-1.8,8.6-0.3,16,5.3,23.1
		C337.5,151.6,337.4,162.2,327.8,174.6z"/>
	<path class="st1" d="M167.7,291c-17.6,17.7-35.3,35.3-52.9,53c-7.9,8-15.9,15.9-23.8,23.8c-2.1,2.1-4.3,3.8-7.6,2.8
		c-3.3-1-4-3.8-4.5-6.7c-2.3-13.8-4.6-27.5-6.9-41.3c-0.3-1.9-1-2.9-3.2-3.2c-14.4-2.3-28.7-4.9-43.1-7.2c-2.7-0.5-4.8-1.5-5.7-4.1
		c-0.9-2.6,0-4.8,1.9-6.8c23.5-23.4,47-46.9,70.5-70.3c6.1,2.6,8.8,7.8,10.5,13.7c0.8,2.8,1.4,5.6,2.4,8.2
		c4,10.7,12.2,15.6,23.2,16.4c1.6,0.1,3.2,0.1,4.9,0.1c7,0.1,12.9,2.7,17.2,8.3C155,283.8,160.7,288.2,167.7,291z"/>
	<path class="st1" d="M370.7,312.1c-12.4,2.1-24.9,3.8-37.3,6c-10.8,1.9-8.1-0.9-10,9.7c-2.2,12.4-4.1,24.8-6.2,37.3
		c-0.5,2.8-1.6,5-4.5,5.9c-2.9,0.9-5-0.6-6.9-2.5c-25.8-25.9-51.7-51.8-77.6-77.7c6.6-2.3,12.2-6.1,16.5-11.8
		c5-6.7,11.5-9.8,19.9-9.7c16.2,0,24.3-6.5,28.3-22.1c1.8-6.9,4.4-13,11.5-16c4.1,4.2,8.2,8.4,12.3,12.5
		c18.5,18.5,36.9,36.9,55.4,55.4c1,1,2,1.9,2.7,3.1C378,306.6,376.2,311.2,370.7,312.1z"/>
	<path class="st2" d="M198.1,252.9c-52.8,0.1-95.9-42.8-95.9-95.6c-0.1-52.9,42.8-96.1,95.4-96.3c53.4-0.1,96.5,42.9,96.5,96.3
		C294.1,210.1,251.1,252.8,198.1,252.9z"/>
	<path class="st3" d="M168.2,195.3c1.1-6.5,2.2-13.3,3.5-20.2c0.5-2.4,0.1-4.2-1.9-5.9c-4.8-4.4-9.3-9.1-14-13.6
		c-2-1.9-3.4-4.1-2.5-7c1-3,3.4-4.1,6.3-4.5c6.4-0.9,12.8-2.1,19.2-2.7c2.7-0.3,3.9-1.5,4.9-3.7c2.7-5.8,5.6-11.4,8.4-17.1
		c1.3-2.7,3.1-4.7,6.2-4.6c2.9,0.1,4.6,1.9,5.9,4.5c2.8,6,5.9,11.8,8.7,17.8c0.9,1.9,1.9,2.8,4.1,3c6.7,0.8,13.3,1.9,20,2.9
		c2.6,0.4,4.9,1.3,5.9,4c1,2.9,0,5.3-2.2,7.4c-4.9,4.6-9.6,9.4-14.5,14.1c-1.4,1.3-1.9,2.5-1.5,4.6c1.3,6.7,2.3,13.5,3.5,20.3
		c0.5,2.7,0.2,5.3-2.4,7c-2.5,1.7-4.9,1.2-7.4-0.1c-5.9-3.2-11.9-6.2-17.8-9.5c-1.7-1-3-1-4.8,0c-6.1,3.4-12.3,6.6-18.5,9.7
		C172.4,203.9,167.9,200.9,168.2,195.3z"/>
	<path class="st2" d="M182,185.5c0.8-4.9,1.3-9.1,2.2-13.3c0.7-3.3-0.2-5.8-2.5-8.1c-3-3-5.9-6.1-9-9.5c3.6-0.5,7.3-1.2,11-1.6
		c4.4-0.4,7.4-2.2,9.1-6.5c1.4-3.4,3.3-6.7,5.1-10.5c2.6,3.6,4.2,7.2,5.6,10.8c1.7,4.1,4.7,5.8,8.9,6.2c3.7,0.3,7.4,1,11,1.5
		c-2.9,3.2-5.8,6.4-8.8,9.4c-2.5,2.4-3.4,4.9-2.6,8.4c0.9,4,1.4,8.1,2.2,12.9c-4.2-2.2-7.8-4-11.3-6c-3.1-1.8-6-1.9-9.1-0.1
		C190.2,181.4,186.5,183.1,182,185.5z"/>
</g>
</svg>
