<?xml version="1.0" encoding="utf-8"?>
<!-- Generator: Adobe Illustrator 26.0.3, SVG Export Plug-In . SVG Version: 6.00 Build 0)  -->
<svg version="1.1" id="Calque_1" xmlns="http://www.w3.org/2000/svg" xmlns:xlink="http://www.w3.org/1999/xlink" x="0px" y="0px"
	 viewBox="0 0 396.3 396.3" style="enable-background:new 0 0 396.3 396.3;" xml:space="preserve">
<style type="text/css">
	.st0{fill:#FFFFFF;}
</style>
<g>
	<path class="st0" d="M333.9,324.8c-17.1,10.1-35.1,18.2-54.3,23.4c-50.7,13.8-99.7,8-147-13.8c-17.9-8.2-36.4-14.2-55.6-18.2
		c-5-1.1-10-3.1-14.6-5.5c-17.2-8.8-25.2-24.7-20.5-43.5c3.2-12.7,8-25.1,12.8-37.4c14.5-36.7,33.7-71,54.7-104.3
		c11.5-18.2,23.5-36.1,35.5-53.9c10.4-15.3,25.2-23.5,43.6-25.5c13.3-1.5,26.6-3.3,40-5c0.4,0,0.7-0.3,1.1-0.5h8.6
		c3.4,1.1,6.9,1.9,10.1,3.5c8.9,4.5,14.4,11.7,16.4,21.4c1.6,8.1,3.3,16.3,4.3,24.5c2.5,19.9-14.6,35.2-34.3,30.7
		c-9.5-2.1-19-4.4-28.4-6.6c-0.9-0.2-1.8-0.3-3-0.6c-2.1,8.2-4.2,16.2-6.3,24.1c-3.9,15.1-7.8,30.1-11.8,45.2
		c-1.2,4.5-4.2,6.8-8.4,6.7c-3.7-0.2-6.9-2.8-7.3-6.6c-0.2-1.8,0.2-3.7,0.6-5.4c6.3-24.4,12.6-48.8,19-73.1c0.2-0.8,0.3-1.6,0.5-2.4
		c1.3-4.9,5.8-7.2,10.7-6c13,3.2,26,6.5,39.1,9.4c7.9,1.7,15-5.3,13.7-13.3c-1.2-7.7-2.6-15.4-4-23c-1.6-8.1-8.7-13.3-17.2-12.3
		c-8.5,1-17.1,2.1-25.6,3.2c-6.9,0.9-13.9,1.6-20.7,2.8c-11,1.8-20.1,7.2-26.5,16.4c-31.2,44.8-60.6,90.6-82.8,140.6
		c-7,15.8-12.6,32.2-18.4,48.5c-1.3,3.6-1.3,7.9-0.9,11.8c0.9,8.5,6.3,14.1,13.8,17c7.2,2.8,14.8,4.6,22.3,6.4
		c15.2,3.7,29.8,8.8,43.9,15.5c20.8,9.9,42.5,16.5,65.4,19.2c32.8,4,64.6-0.3,95.1-13.1c9.7-4.1,18.9-9.3,28.3-14.1
		c5.5-2.8,11-0.5,12.3,5.1C339,319.4,337.4,322.7,333.9,324.8z"/>
	<path class="st0" d="M355.7,194.4v4.3c-2.1,4.2-5.4,5.8-10.1,5.9c-18.1,0.7-33.8,7.5-46.9,20c-3.6,3.5-7.8,3.3-12-0.2
		c-12.6-10.5-26.8-17.8-42.9-20.7c-20.8-3.8-38.9,2.3-54.8,15.6c-11.6,9.7-20.5,21.7-28.2,34.6c-2.5,4.1-5.6,5.6-9.4,4.6
		c-4.8-1.3-7.7-6.6-5.2-10.9c14.5-24.8,32.1-46.5,60.3-56.5c21.9-7.8,43.4-5.1,64.2,4.5c7.7,3.6,14.8,8.2,21.7,12
		c7.7-4.2,15.3-8.8,23.3-12.6c9.8-4.6,20.3-6.3,31.1-6.5C351.1,188.5,353.8,190.7,355.7,194.4z"/>
	<path class="st0" d="M309.5,287.9c-12,12.8-26.9,20.6-44,23.9c-5.6,1.1-11.4,1.4-17,2.1c-11.7-0.4-23-2.6-34.1-6.4
		c-4.6-1.6-6.9-5.8-5.5-10.2c1.3-4.2,5.8-6.5,10.4-5c8.2,2.7,16.5,4.7,25.2,5c20.7,0.9,38.7-5.3,53.4-20.3c3.7-3.7,8.3-4.1,11.7-1
		C312.9,279.2,313,284.1,309.5,287.9z"/>
</g>
</svg>
