<?xml version="1.0" encoding="utf-8"?>
<!-- Generator: Adobe Illustrator 26.0.3, SVG Export Plug-In . SVG Version: 6.00 Build 0)  -->
<svg version="1.1" id="Calque_1" xmlns="http://www.w3.org/2000/svg" xmlns:xlink="http://www.w3.org/1999/xlink" x="0px" y="0px"
	 viewBox="0 0 383.3 384.1" style="enable-background:new 0 0 383.3 384.1;" xml:space="preserve">
<style type="text/css">
	.st0{fill:#0A9642;stroke:#0A9642;stroke-width:1.5;stroke-miterlimit:10;}
</style>
<g>
	<path class="st0" d="M376.1,268.5c-10.4-4.2-20.7-8.5-30.9-12.9c-1.1-0.5-2.5-1.6-2.7-2.5c-0.4-2.7-0.1-5.3-0.1-7.9
		c15.1-3.5,22.1-12.4,22.1-27.6c0-5,0-9.8,0-14.7v-11.2c9.3-1.3,11.7-4.2,11.7-13.2c0-2.8,0-5.7,0-8.5c-0.1-3.7-1.7-6.9-5.2-8.3
		c-2.3-1-2.9-2.4-3.5-4.6c-4-15-13.7-24.3-28.5-28.4c-1.2-0.4-2.5-1.6-3-2.8c-1.8-4.7-4.8-7.3-9.9-7.4c-3.1-0.1-6.4-0.1-9.5,0
		c-5.1,0.1-8.2,2.7-9.8,7.4c-0.4,1.1-1.6,2.4-2.7,2.7c-15.3,4.1-25.1,13.7-29.1,29.2c-0.4,1.3-1.6,2.7-2.8,3.4
		c-3.5,2.1-5.4,5-5.7,8.9c-0.1,2.4,0,5,0,7.4c0,10,1.8,12.3,11.7,14.3c0,9.2,0,18.4,0,27.6c0,8.2,2.9,15.3,9.5,20.2
		c3.6,2.7,8,4.1,12.6,6.5c0,1.7,0.1,4.4,0,6.9c0,0.7-0.6,1.7-1.2,1.9c-6.3,2.8-12.6,5.3-19.2,8.1c-1.1-4.6-2.1-8.7-3.3-12.8
		c-3.7-12.9-12.6-21.1-25.1-25.4c-2.9-1-5.4,0-6.8,2.8c-1.2,2.7-0.6,5.1,1.8,6.8c1.2,0.8,2.7,1.2,4,1.9c2.4,1.3,4.8,2.7,7.5,4.1
		c-9.7,13.1-12,27.6-11.1,42.7h-49.6c0-10.9,0-21.4,0-31.9c0-0.7,0.2-1.5,0.6-2.1c5.9-9.1,11.8-18.1,17.8-27.2
		c3.1,1.3,6.2,2.5,9.1,3.7c3.5,1.3,6.4,0.4,7.7-2.7c1.3-2.9,0.1-5.9-3.4-7.5c-2.7-1.2-5.4-2.2-8.1-3.5c-0.8-0.4-1.8-1.5-1.8-2.2
		c-0.1-5.1-0.1-10-0.1-15c0.7-0.2,1.1-0.4,1.5-0.4c19.9-4,29.5-15.2,29.9-35.9c0-2.3,0.8-3.1,2.9-3.7c11.8-3.9,19.6-14,19.8-26.1
		c0.2-8.6-3-15.8-9.1-21.9c4.2-5.1,2.9-11.1,2.9-16.8c0.1-9.4-1.9-12.2-10.6-15.1c-4.8-25.5-20.1-40.8-45.6-45.6
		c-1.6-10.9-4.2-13.2-15.1-13.2c-2.7,0-5.4,0.1-8.1,0c-9.1-0.6-14.9,3.7-14.5,12.8c0,0.2-0.2,0.4-0.2,0.4c-24.4,5-39.9,18.9-45,43.5
		c-0.2,1.1-1.6,2.3-2.7,2.7c-4,1.5-7.4,3.7-7.9,8c-1,7.9-2.3,15.8,2.1,23.4c-0.6,0.7-1.2,1.5-1.9,2.2c-13.1,15-7.1,38.6,11.6,45.2
		c3.5,1.2,4.4,2.8,4.2,6.2c-0.2,11.6,4.2,21.3,13.9,27.8c5,3.3,11,5,17.3,7.7c0,3.4-0.1,7.9,0,12.4c0.1,2.2-0.6,3.3-2.7,4.1
		c-11.1,4.5-22.2,9.2-33.4,13.8c-11.4,4.7-18.5,13.1-21.6,24.9c-1.1,3.9-2.1,7.7-3.1,11.8c-6.5-2.7-12.6-5.2-18.7-7.9
		c-0.8-0.4-1.7-1.5-1.7-2.3c-0.2-2.5-0.1-5.1-0.1-7.5c14.9-3.7,22.1-12.7,22.1-26.8c0-6.6,0-13.3,0-19.9v-6.8
		c8.8-1.2,11.7-4.6,11.7-13.1c0-2.7,0.1-5.4,0-8.1c-0.1-4.2-2.1-7.4-6-9.4c-1.1-0.5-2.1-1.9-2.4-3.3c-4-15.5-13.8-25.1-29.1-29.1
		c-1.1-0.2-2.3-1.6-2.7-2.7c-1.5-4.5-4.2-7.1-8.9-7.4c-3.6-0.2-7.4-0.1-11.1,0c-5,0.2-8.1,2.7-9.2,7.5c-0.5,1.9-1.5,2.3-3.1,2.8
		c-3.1,0.8-6.3,2.1-9.3,3.4c-3.4,1.6-4.5,4.7-3,7.6c1.5,2.9,4.4,3.7,8,2.3c2.2-1,4.5-1.7,6.9-2.7v20.8H26.8c0.1-5.3-1.3-7.7-4.8-8.2
		c-3.4-0.4-5.2,1.5-6.6,6.4c-0.4,1.1-1.3,2.2-2.4,2.7c-3.7,2.1-5.7,5-5.8,9.2c0,3.7,0,7.4,0,11.1c0,4.5,2.4,7.4,6.4,9.1
		c1.6,0.7,3.5,1,5.3,1.3c0,9.4-0.1,18.7,0,28.2c0.1,12.2,8,21.9,19.9,24.7c0.7,0.1,1.3,0.4,2.2,0.6c0,1.5-0.2,2.9,0,4.2
		c0.7,3.9-1.1,5.6-4.6,6.9c-9.5,3.6-18.9,7.6-28.3,11.7c-2.1,0.8-3.7,2.5-5.6,3.9v93.1c2.1,2.3,4.4,4.2,7.6,2.8
		c3.4-1.3,3.6-4.4,3.5-7.4c-0.1-2.3,0-4.7,0-7v-12.6h42.8c0,7.4,0,14.5,0,21.6c0,3.6,2.2,5.7,5.3,5.8c3.1,0,5.4-2.2,5.7-5.6
		c0.1-2.5,0-5.2,0-7.7v-14h16.4c-0.2,1-0.4,1.7-0.5,2.4c-1.5,5.9-3,12-4.5,17.9c-0.7,3.3,1,6.2,3.9,6.9c3.1,0.7,5.7-0.7,6.8-4.1
		c0.2-0.8,0.5-1.7,0.7-2.5c8.9-35.5,17.8-71.1,26.7-106.5c0.4-1.5,0.8-2.9,1.5-5c5.3,8.7,7,17.4,7,26.5c0,27.7,0,55.4,0,83
		c0,1.6,0,3.3,0.4,4.7c0.7,2.8,2.8,4,5.6,3.9c2.7-0.1,4.4-1.6,5-4.2c0.2-1.3,0.2-2.7,0.2-4c0-8.9,0-18,0-27c0-1.3,0.1-2.5,0.2-3.7
		h49.3v30.1c0,0.8,0,1.7,0,2.5c0.2,4.1,2.3,6.4,5.7,6.3c3.3-0.1,5.3-2.3,5.3-6.3c0.1-9.4,0-19,0-28.4c0-1.5,0.1-2.9,0.2-4.4h49.3
		v10.9c0,7.4,0,14.7,0,22.1c0,3.9,2.2,6,5.4,6c3.3,0,5.3-2.2,5.6-6c0.1-1.1,0-2.2,0-3.3c0-21.5,0-43,0-64.5c0-8.2-0.1-16.4,0.4-24.7
		c0.4-6.8,2.5-13.1,6.5-19.3c0.6,1.8,1.1,2.9,1.3,4c4.5,17.9,8.9,35.8,13.4,53.7c4.6,18.4,9.2,36.7,13.9,55c0.5,1.9,2.3,4.4,4,5.1
		c4.2,1.7,7.9-2.3,6.6-7c-1.6-6.6-3.3-13.3-5-20.1h16.6v4.1c0,5.9-0.1,11.8,0,17.8c0.1,3.5,2.4,5.7,5.6,5.7c3.1,0,5.2-2.2,5.4-5.8
		c0.1-1.3,0-2.7,0-4.1v-17.8h42.8c0,7.1,0,14.1,0,21.1c0,2.7,0.8,4.8,3.4,5.9c4.1,1.7,7.6-1.2,7.6-6.4c0-28.6,0-57.3,0-86
		C380.8,272,379.3,269.9,376.1,268.5z M77.2,140.3c9.3,0.7,19.8,11.2,19.9,20.2H77.2V140.3z M58.6,130.1h7.1v30.2h-7.1V130.1z
		 M18.6,180.2V172h87.1v8.2H18.6z M30.1,219.9c-0.1-9.3,0-18.6,0-28.3h26.6c0,2.4,0,4.7,0,7c0.1,3.6,2.1,5.8,5.2,5.9
		c3.3,0.1,5.6-2.2,5.8-5.8c0.1-2.2,0-4.4,0-6.9H94c0,10.3,0.5,20.5-0.1,30.6c-0.5,6.9-6.3,11.7-13.4,11.8c-12.2,0.2-24.3,0.2-36.5,0
		C35.7,234.1,30.1,228,30.1,219.9z M71.8,245.6v6.8H52.3v-6.8H71.8z M56.4,329.4H14.1v-12.9h42.2v12.9H56.4z M56.3,304.8H13.9
		c0-8.6,0-16.9,0.1-25.3c0-0.8,1-2.1,1.7-2.3c9.3-4,18.7-7.9,28.4-11.8c4.1,8.3,8.8,16.2,12,24.5C57.5,294.1,56.3,299.6,56.3,304.8z
		 M62.1,276.6c-2.2-4.5-4.2-8.3-6.4-12.8h12.7C66.3,268.2,64.4,272.1,62.1,276.6z M87.3,328.2c-0.1,0.6-1.5,1.3-2.2,1.3
		c-5.7,0.1-11.2,0-17.2,0v-13.2h22.4C89.3,320.5,88.4,324.5,87.3,328.2z M93.5,303.6c-0.1,0.6-1.5,1.5-2.2,1.5
		c-7.7,0.1-15.5,0-23.6,0c0.4-7-1.5-13.8,2.4-20.2c3.7-6.2,6.6-12.8,10-19.6c7.1,3,13.8,5.8,20.8,8.7C98.5,284,96,293.8,93.5,303.6z
		 M207.7,209.2h-32.1v-14.4h32.1V209.2z M262,125.9c0.7,8.1-3.5,15.1-11.4,17.9v-31.5C256.3,113.2,261.3,119.3,262,125.9z
		 M210.6,41.1c7,0.7,12.9,3.4,18.6,7.6c-2.1,1.5-3.7,2.5-5.4,3.7c-2.5,2.1-3,5.1-1.3,7.5c1.7,2.5,4.7,3.1,7.5,1.6
		c2.4-1.5,4.7-3,8-5.2c2.7,6.3,5.1,12.2,7.7,18.6h-35L210.6,41.1L210.6,41.1z M184.4,27.7h14.7v47.3h-14.7V27.7z M145.5,56.4
		c3.1,2.1,5.3,3.6,7.6,5c3,1.8,6,1.3,7.9-1.2c1.8-2.5,1.2-5.7-1.6-7.7c-1.6-1.2-3.3-2.3-5.9-4.1c6.8-2.9,12.7-5.3,19.5-8.2V75h-35
		C140.4,68.4,142.8,62.7,145.5,56.4z M132.8,143.6c-6.4-1.6-11.2-8-11.4-15.1c-0.2-7.7,4.4-14.4,11.4-16.3V143.6z M127.8,99.2V86.5
		h127.9v12.7H127.8z M144.1,159.9c-0.1-15.1,0-30.2,0-45.4c0-1.2,0.1-2.4,0.2-3.7H239c0.1,1.3,0.2,2.7,0.2,3.9c0,14.9,0,29.7,0,44.7
		c0,15.3-9.1,24.2-24.4,24.2c-15.6,0-31.2,0-46.9,0C153.3,183.4,144.3,174.5,144.1,159.9z M134.7,260.8c-1.7-7-5.2-13.5-8.3-21.4
		c13.3-5.7,27.2-11.5,41.3-17.5c6,9.2,12,18.2,17.9,27.3c0.4,0.6,0.6,1.3,0.6,2.1c0,10.5,0,21.1,0,31.9h-48.8
		C136.5,275.5,136.5,267.9,134.7,260.8z M186.2,317.7h-49.3v-23c1.1-0.1,2.1-0.2,2.9-0.2c14.3,0,28.5,0,42.8-0.1
		c2.8,0,3.6,0.7,3.6,3.5C186.1,304.4,186.2,310.9,186.2,317.7z M191.8,238.2c-4-6-7.5-11.5-11.5-17.5h23.1
		C199.4,226.6,195.7,232.1,191.8,238.2z M246.5,317.8h-48.9v-23.1h48.9V317.8z M336.5,140.2c9.5,1.1,18.4,9.9,20.3,20.1h-20.3V140.2
		z M317.8,130.1h7.1v30.2h-7.1V130.1z M306.2,140.1v20.4h-19.8C286.5,151.8,295.6,142.2,306.2,140.1z M277.7,180.2v-8.3h87.3v8.3
		H277.7z M289.4,221.5c-0.5-9.8-0.1-19.6-0.1-29.9h26.5c0,2.3-0.1,4.6,0,6.9c0.1,3.7,2.4,6,5.6,6c3.3,0,5.3-2.3,5.4-6.2
		c0-2.1,0-4.1,0-6.5h26.3c0,10.3,0.4,20.7-0.1,30.8c-0.4,6.5-6.5,11.4-13.3,11.5c-12.3,0.2-24.7,0.2-36.9,0
		C295.6,234.1,289.8,228.8,289.4,221.5z M331,245.7v6.8h-19.5v-6.8H331z M315.6,329.6c-6,0-11.8,0-17.8-0.1c-0.7,0-1.7-1-1.9-1.7
		c-1.1-3.6-1.8-7.4-2.8-11.4h22.5V329.6z M315.5,305.1c-8,0-15.8,0-23.7-0.1c-0.7,0-1.8-1.1-2.1-1.9c-2.5-9.5-5-19.2-7.4-29.1
		c7-2.9,13.7-5.7,20.8-8.7c4.1,8.2,8.9,16.1,12,24.5C316.8,294.3,315.5,299.7,315.5,305.1z M321.4,276.6c-2.3-4.6-4.2-8.5-6.3-12.7
		h12.7C325.7,268.2,323.7,272,321.4,276.6z M369.7,305.1c-2.8,0-5.3-0.1-7.9,0c-3.5,0.1-5.8,2.3-5.9,5.3c-0.1,3,2.2,5.4,5.6,5.7
		c2.5,0.2,5.2,0,8.1,0v13.3h-42.3v-13.2c2.5,0,5.1,0.1,7.6,0c4.1-0.2,6.3-2.3,6.2-5.8c-0.1-3.3-2.2-5.1-6.3-5.2
		c-2.2,0-4.5,0-6.6-0.1c-0.2,0-0.5-0.1-1.1-0.4c0.2-6.5-1.3-13.3,2.5-19.7c3.7-6.2,6.6-12.8,9.9-19.6c9.8,4.1,19.2,8,28.6,12.1
		c0.6,0.2,1.3,1.5,1.3,2.2C369.7,287.9,369.7,296.3,369.7,305.1z"/>
	<path class="st0" d="M208.6,160.7c-3.7,6.5-9.5,9.7-16.9,10c-7.5-0.5-13.2-3.7-16.8-10.3c-1.8-3.3-1-6.4,1.9-8
		c2.7-1.5,5.4-0.6,7.5,2.4c4.4,6.4,10.5,6.4,14.7,0.1c2.2-3.1,5.1-4.1,7.9-2.4C209.6,154.3,210.4,157.5,208.6,160.7z"/>
	<path class="st0" d="M197.2,140.3c-0.1,3.3-2.5,5.4-5.4,5.4s-5.2-2.2-5.4-5.4c-0.2-3,0-6.2,0-9.2c0-2.9-0.1-5.9,0-8.8
		c0.2-3.4,2.4-5.3,5.4-5.3s5.3,1.9,5.4,5.3C197.3,128.2,197.3,134.3,197.2,140.3z"/>
	<path class="st0" d="M334.5,218.6c-2.9,5-7.4,7.4-13.2,7.7c-5.7-0.4-10.3-2.8-13.2-8c-1.7-3-1.1-6.2,1.5-7.9
		c2.7-1.7,5.6-1.1,7.7,1.7c3,3.9,5.1,3.9,8.1,0.1c2.3-2.9,5.1-3.5,7.7-1.9C335.8,212.2,336.4,215.3,334.5,218.6z"/>
	<path class="st0" d="M75.1,218.6c-2.9,5-7.4,7.4-13.2,7.7c-5.7-0.4-10.3-2.8-13.2-8c-1.8-3.1-1.1-6,1.5-7.9
		c2.7-1.7,5.6-1.1,7.7,1.7c3,3.9,5.1,3.9,8.1,0.1c2.2-2.9,5.1-3.5,7.7-1.9C76.5,212.2,77.1,215.5,75.1,218.6z"/>
</g>
</svg>
