<?xml version="1.0" encoding="utf-8"?>
<!-- Generator: Adobe Illustrator 26.0.3, SVG Export Plug-In . SVG Version: 6.00 Build 0)  -->
<svg version="1.1" id="Calque_1" xmlns="http://www.w3.org/2000/svg" xmlns:xlink="http://www.w3.org/1999/xlink" x="0px" y="0px"
	 viewBox="0 0 383.3 384.1" style="enable-background:new 0 0 383.3 384.1;" xml:space="preserve">
<style type="text/css">
	.st0{fill:#0A9642;}
</style>
<g>
	<g>
		<path class="st0" d="M376.1,268.5c-10.4-4.2-20.7-8.5-30.9-12.9c-1.1-0.5-2.5-1.6-2.7-2.5c-0.4-2.7-0.1-5.3-0.1-7.9
			c15.1-3.5,22.1-12.4,22.1-27.6c0-5,0-9.8,0-14.7v-11.2c9.3-1.3,11.7-4.2,11.7-13.2c0-2.8,0-5.7,0-8.5c-0.1-3.7-1.7-6.9-5.2-8.3
			c-2.3-1-2.9-2.4-3.5-4.6c-4-15-13.7-24.3-28.5-28.4c-1.2-0.4-2.5-1.6-3-2.8c-1.8-4.7-4.8-7.3-9.9-7.4c-3.1-0.1-6.4-0.1-9.5,0
			c-5.1,0.1-8.2,2.7-9.8,7.4c-0.4,1.1-1.6,2.4-2.7,2.7c-15.3,4.1-25.1,13.7-29.1,29.2c-0.4,1.3-1.6,2.7-2.8,3.4
			c-3.5,2.1-5.4,5-5.7,8.9c-0.1,2.4,0,5,0,7.4c0,10,1.8,12.3,11.7,14.3c0,9.2,0,18.4,0,27.6c0,8.2,2.9,15.3,9.5,20.2
			c3.6,2.7,8,4.1,12.6,6.5c0,1.7,0.1,4.4,0,6.9c0,0.7-0.6,1.7-1.2,1.9c-6.3,2.8-12.6,5.3-19.2,8.1c-1.1-4.6-2.1-8.7-3.3-12.8
			c-3.7-12.9-12.6-21.1-25.1-25.4c-2.9-1-5.4,0-6.8,2.8c-1.2,2.7-0.6,5.1,1.8,6.8c1.2,0.8,2.7,1.2,4,1.9c2.4,1.3,4.8,2.7,7.5,4.1
			c-9.7,13.1-12,27.6-11.1,42.7h-49.6c0-10.9,0-21.4,0-31.9c0-0.7,0.2-1.5,0.6-2.1c5.9-9.1,11.8-18.1,17.8-27.2
			c3.1,1.3,6.2,2.5,9.1,3.7c3.5,1.3,6.4,0.4,7.7-2.7c1.3-2.9,0.1-5.9-3.4-7.5c-2.7-1.2-5.4-2.2-8.1-3.5c-0.8-0.4-1.8-1.5-1.8-2.2
			c-0.1-5.1-0.1-10-0.1-15c0.7-0.2,1.1-0.4,1.5-0.4c19.9-4,29.5-15.2,29.9-35.9c0-2.3,0.8-3.1,2.9-3.7c11.8-3.9,19.6-14,19.8-26.1
			c0.2-8.6-3-15.8-9.1-21.9c4.2-5.1,2.9-11.1,2.9-16.8c0.1-9.4-1.9-12.2-10.6-15.1c-4.8-25.5-20.1-40.8-45.6-45.6
			c-1.6-10.9-4.2-13.2-15.1-13.2c-2.7,0-5.4,0.1-8.1,0c-9.1-0.6-14.9,3.7-14.5,12.8c0,0.2-0.2,0.4-0.2,0.4
			c-24.4,5-39.9,18.9-45,43.5c-0.2,1.1-1.6,2.3-2.7,2.7c-4,1.5-7.4,3.7-7.9,8c-1,7.9-2.3,15.8,2.1,23.4c-0.6,0.7-1.2,1.5-1.9,2.2
			c-13.1,15-7.1,38.6,11.6,45.2c3.5,1.2,4.4,2.8,4.2,6.2c-0.2,11.6,4.2,21.3,13.9,27.8c5,3.3,11,5,17.3,7.7c0,3.4-0.1,7.9,0,12.4
			c0.1,2.2-0.6,3.3-2.7,4.1c-11.1,4.5-22.2,9.2-33.4,13.8c-11.4,4.7-18.5,13.1-21.6,24.9c-1.1,3.9-2.1,7.7-3.1,11.8
			c-6.5-2.7-12.6-5.2-18.7-7.9c-0.8-0.4-1.7-1.5-1.7-2.3c-0.2-2.5-0.1-5.1-0.1-7.5c14.9-3.7,22.1-12.7,22.1-26.8
			c0-6.6,0-13.3,0-19.9v-6.8c8.8-1.2,11.7-4.6,11.7-13.1c0-2.7,0.1-5.4,0-8.1c-0.1-4.2-2.1-7.4-6-9.4c-1.1-0.5-2.1-1.9-2.4-3.3
			c-4-15.5-13.8-25.1-29.1-29.1c-1.1-0.2-2.3-1.6-2.7-2.7c-1.5-4.5-4.2-7.1-8.9-7.4c-3.6-0.2-7.4-0.1-11.1,0c-5,0.2-8.1,2.7-9.2,7.5
			c-0.5,1.9-1.5,2.3-3.1,2.8c-3.1,0.8-6.3,2.1-9.3,3.4c-3.4,1.6-4.5,4.7-3,7.6c1.5,2.9,4.4,3.7,8,2.3c2.2-1,4.5-1.7,6.9-2.7v20.8
			H26.8c0.1-5.3-1.3-7.7-4.8-8.2c-3.4-0.4-5.2,1.5-6.6,6.4c-0.4,1.1-1.3,2.2-2.4,2.7c-3.7,2.1-5.7,5-5.8,9.2c0,3.7,0,7.4,0,11.1
			c0,4.5,2.4,7.4,6.4,9.1c1.6,0.7,3.5,1,5.3,1.3c0,9.4-0.1,18.7,0,28.2c0.1,12.2,8,21.9,19.9,24.7c0.7,0.1,1.3,0.4,2.2,0.6
			c0,1.5-0.2,2.9,0,4.2c0.7,3.9-1.1,5.6-4.6,6.9c-9.5,3.6-18.9,7.6-28.3,11.7c-2.1,0.8-3.7,2.5-5.6,3.9v93.1
			c2.1,2.3,4.4,4.2,7.6,2.8c3.4-1.3,3.6-4.4,3.5-7.4c-0.1-2.3,0-4.7,0-7V341h42.8c0,7.4,0,14.5,0,21.6c0,3.6,2.2,5.7,5.3,5.8
			c3.1,0,5.4-2.2,5.7-5.6c0.1-2.5,0-5.2,0-7.7v-14h16.4c-0.2,1-0.4,1.7-0.5,2.4c-1.5,5.9-3,12-4.5,17.9c-0.7,3.3,1,6.2,3.9,6.9
			c3.1,0.7,5.7-0.7,6.8-4.1c0.2-0.8,0.5-1.7,0.7-2.5c8.9-35.5,17.8-71.1,26.7-106.5c0.4-1.5,0.8-2.9,1.5-5c5.3,8.7,7,17.4,7,26.5
			c0,27.7,0,55.4,0,83c0,1.6,0,3.3,0.4,4.7c0.7,2.8,2.8,4,5.6,3.9c2.7-0.1,4.4-1.6,5-4.2c0.2-1.3,0.2-2.7,0.2-4c0-8.9,0-18,0-27
			c0-1.3,0.1-2.5,0.2-3.7h49.3v30.1c0,0.8,0,1.7,0,2.5c0.2,4.1,2.3,6.4,5.7,6.3c3.3-0.1,5.3-2.3,5.3-6.3c0.1-9.4,0-19,0-28.4
			c0-1.5,0.1-2.9,0.2-4.4h49.3v10.9c0,7.4,0,14.7,0,22.1c0,3.9,2.2,6,5.4,6c3.3,0,5.3-2.2,5.6-6c0.1-1.1,0-2.2,0-3.3
			c0-21.5,0-43,0-64.5c0-8.2-0.1-16.4,0.4-24.7c0.4-6.8,2.5-13.1,6.5-19.3c0.6,1.8,1.1,2.9,1.3,4c4.5,17.9,8.9,35.8,13.4,53.7
			c4.6,18.4,9.2,36.7,13.9,55c0.5,1.9,2.3,4.4,4,5.1c4.2,1.7,7.9-2.3,6.6-7c-1.6-6.6-3.3-13.3-5-20.1h16.6v4.1
			c0,5.9-0.1,11.8,0,17.8c0.1,3.5,2.4,5.7,5.6,5.7c3.1,0,5.2-2.2,5.4-5.8c0.1-1.3,0-2.7,0-4.1V341h42.8c0,7.1,0,14.1,0,21.1
			c0,2.7,0.8,4.8,3.4,5.9c4.1,1.7,7.6-1.2,7.6-6.4c0-28.6,0-57.3,0-86C380.8,272,379.3,269.9,376.1,268.5z M77.2,140.3
			c9.3,0.7,19.8,11.2,19.9,20.2H77.2V140.3z M58.6,130.1h7.1v30.2h-7.1V130.1z M18.6,180.2V172h87.1v8.2H18.6z M30.1,219.9
			c-0.1-9.3,0-18.6,0-28.3h26.6c0,2.4,0,4.7,0,7c0.1,3.6,2.1,5.8,5.2,5.9c3.3,0.1,5.6-2.2,5.8-5.8c0.1-2.2,0-4.4,0-6.9H94
			c0,10.3,0.5,20.5-0.1,30.6c-0.5,6.9-6.3,11.7-13.4,11.8c-12.2,0.2-24.3,0.2-36.5,0C35.7,234.1,30.1,228,30.1,219.9z M71.8,245.6
			v6.8H52.3v-6.8H71.8z M56.4,329.4H14.1v-12.9h42.2L56.4,329.4L56.4,329.4z M56.3,304.8H13.9c0-8.6,0-16.9,0.1-25.3
			c0-0.8,1-2.1,1.7-2.3c9.3-4,18.7-7.9,28.4-11.8c4.1,8.3,8.8,16.2,12,24.5C57.5,294.1,56.3,299.6,56.3,304.8z M62.1,276.6
			c-2.2-4.5-4.2-8.3-6.4-12.8h12.7C66.3,268.2,64.4,272.1,62.1,276.6z M87.3,328.2c-0.1,0.6-1.5,1.3-2.2,1.3c-5.7,0.1-11.2,0-17.2,0
			v-13.2h22.4C89.3,320.5,88.4,324.5,87.3,328.2z M93.5,303.6c-0.1,0.6-1.5,1.5-2.2,1.5c-7.7,0.1-15.5,0-23.6,0
			c0.4-7-1.5-13.8,2.4-20.2c3.7-6.2,6.6-12.8,10-19.6c7.1,3,13.8,5.8,20.8,8.7C98.5,284,96,293.8,93.5,303.6z M207.7,209.2h-32.1
			v-14.4h32.1L207.7,209.2L207.7,209.2z M262,125.9c0.7,8.1-3.5,15.1-11.4,17.9v-31.5C256.3,113.2,261.3,119.3,262,125.9z
			 M210.6,41.1c7,0.7,12.9,3.4,18.6,7.6c-2.1,1.5-3.7,2.5-5.4,3.7c-2.5,2.1-3,5.1-1.3,7.5c1.7,2.5,4.7,3.1,7.5,1.6
			c2.4-1.5,4.7-3,8-5.2c2.7,6.3,5.1,12.2,7.7,18.6h-35L210.6,41.1L210.6,41.1z M184.4,27.7h14.7V75h-14.7V27.7z M145.5,56.4
			c3.1,2.1,5.3,3.6,7.6,5c3,1.8,6,1.3,7.9-1.2c1.8-2.5,1.2-5.7-1.6-7.7c-1.6-1.2-3.3-2.3-5.9-4.1c6.8-2.9,12.7-5.3,19.5-8.2V75h-35
			C140.4,68.4,142.8,62.7,145.5,56.4z M132.8,143.6c-6.4-1.6-11.2-8-11.4-15.1c-0.2-7.7,4.4-14.4,11.4-16.3V143.6z M127.8,99.2V86.5
			h127.9v12.7H127.8z M144.1,159.9c-0.1-15.1,0-30.2,0-45.4c0-1.2,0.1-2.4,0.2-3.7H239c0.1,1.3,0.2,2.7,0.2,3.9
			c0,14.9,0,29.7,0,44.7c0,15.3-9.1,24.2-24.4,24.2c-15.6,0-31.2,0-46.9,0C153.3,183.4,144.3,174.5,144.1,159.9z M134.7,260.8
			c-1.7-7-5.2-13.5-8.3-21.4c13.3-5.7,27.2-11.5,41.3-17.5c6,9.2,12,18.2,17.9,27.3c0.4,0.6,0.6,1.3,0.6,2.1c0,10.5,0,21.1,0,31.9
			h-48.8C136.5,275.5,136.5,267.9,134.7,260.8z M186.2,317.7h-49.3v-23c1.1-0.1,2.1-0.2,2.9-0.2c14.3,0,28.5,0,42.8-0.1
			c2.8,0,3.6,0.7,3.6,3.5C186.1,304.4,186.2,310.9,186.2,317.7z M191.8,238.2c-4-6-7.5-11.5-11.5-17.5h23.1
			C199.4,226.6,195.7,232.1,191.8,238.2z M246.5,317.8h-48.9v-23.1h48.9V317.8z M336.5,140.2c9.5,1.1,18.4,9.9,20.3,20.1h-20.3
			V140.2z M317.8,130.1h7.1v30.2h-7.1V130.1z M306.2,140.1v20.4h-19.8C286.5,151.8,295.6,142.2,306.2,140.1z M277.7,180.2v-8.3H365
			v8.3H277.7z M289.4,221.5c-0.5-9.8-0.1-19.6-0.1-29.9h26.5c0,2.3-0.1,4.6,0,6.9c0.1,3.7,2.4,6,5.6,6c3.3,0,5.3-2.3,5.4-6.2
			c0-2.1,0-4.1,0-6.5h26.3c0,10.3,0.4,20.7-0.1,30.8c-0.4,6.5-6.5,11.4-13.3,11.5c-12.3,0.2-24.7,0.2-36.9,0
			C295.6,234.1,289.8,228.8,289.4,221.5z M331,245.7v6.8h-19.5v-6.8H331z M315.6,329.6c-6,0-11.8,0-17.8-0.1c-0.7,0-1.7-1-1.9-1.7
			c-1.1-3.6-1.8-7.4-2.8-11.4h22.5L315.6,329.6L315.6,329.6z M315.5,305.1c-8,0-15.8,0-23.7-0.1c-0.7,0-1.8-1.1-2.1-1.9
			c-2.5-9.5-5-19.2-7.4-29.1c7-2.9,13.7-5.7,20.8-8.7c4.1,8.2,8.9,16.1,12,24.5C316.8,294.3,315.5,299.7,315.5,305.1z M321.4,276.6
			c-2.3-4.6-4.2-8.5-6.3-12.7h12.7C325.7,268.2,323.7,272,321.4,276.6z M369.7,305.1c-2.8,0-5.3-0.1-7.9,0c-3.5,0.1-5.8,2.3-5.9,5.3
			s2.2,5.4,5.6,5.7c2.5,0.2,5.2,0,8.1,0v13.3h-42.3v-13.2c2.5,0,5.1,0.1,7.6,0c4.1-0.2,6.3-2.3,6.2-5.8c-0.1-3.3-2.2-5.1-6.3-5.2
			c-2.2,0-4.5,0-6.6-0.1c-0.2,0-0.5-0.1-1.1-0.4c0.2-6.5-1.3-13.3,2.5-19.7c3.7-6.2,6.6-12.8,9.9-19.6c9.8,4.1,19.2,8,28.6,12.1
			c0.6,0.2,1.3,1.5,1.3,2.2C369.7,287.9,369.7,296.3,369.7,305.1z"/>
		<path class="st0" d="M320.9,369.1c-3.5,0-5.9-2.4-6-6.1c-0.1-4,0-8,0-11.9c0-2,0-3.9,0-5.9v-3.7h-15.7l1.2,4.6
			c1.3,5.1,2.5,10.1,3.7,15c0.7,2.5,0.1,5-1.7,6.6c-1.5,1.3-3.5,1.6-5.4,0.9c-1.9-0.8-3.7-3.4-4.2-5.4c-5-19.5-9.8-38.8-13.9-55
			c-2.2-8.9-4.5-17.9-6.7-26.8c-2.2-9-4.4-17.9-6.7-26.8c-0.1-0.7-0.4-1.4-0.7-2.3c-0.1-0.3-0.2-0.6-0.3-0.9
			c-3.7,5.9-5.6,11.9-6,18.5c-0.4,7.1-0.4,14.3-0.4,21.2l0,3.5v64.5c0,0.4,0,0.7,0,1.1c0,0.7,0,1.5,0,2.2c-0.3,4-2.5,6.3-6,6.3
			c-3.6,0-5.8-2.4-5.8-6.4v-32.6h-48.6c-0.1,1.4-0.2,2.7-0.2,4c0,3.1,0,6.3,0,9.4c0,6.2,0,12.7,0,19c0,4.1-2.1,6.6-5.7,6.7
			c-3.6,0.1-5.9-2.4-6.1-6.7l0-32.2h-48.6c-0.1,1.1-0.2,2.2-0.2,3.3v27c0,1.3,0,2.7-0.2,4.1c-0.6,2.8-2.6,4.4-5.4,4.5
			c-3.1,0.1-5.3-1.4-6-4.2c-0.4-1.4-0.4-3.1-0.4-4.8v-83c0-9.9-2.1-18-6.5-25.6c-0.5,1.7-0.9,2.9-1.2,4.2
			c-5.9,23.6-11.9,47.3-17.8,71l-8.9,35.5c-0.1,0.4-0.2,0.8-0.4,1.3c-0.1,0.4-0.2,0.8-0.3,1.2c-1.1,3.5-3.8,5.1-7.2,4.4
			c-3.1-0.8-4.9-3.9-4.2-7.3c0.8-3,1.5-6,2.3-9c0.8-3,1.5-6,2.3-9c0.1-0.4,0.1-0.8,0.3-1.3c0-0.2,0.1-0.4,0.1-0.6H67.8v13.6
			c0,0.8,0,1.7,0,2.5c0,1.7,0,3.5,0,5.2c-0.3,3.6-2.8,6-6.1,6c-3.5-0.1-5.7-2.5-5.7-6.2v-21.2H14v12.2c0,0.8,0,1.5,0,2.3
			c0,1.5,0,3.1,0,4.7c0.1,3-0.1,6.4-3.7,7.8c-3.4,1.5-5.8-0.5-8-2.9l-0.1-0.1v-93.4l0.2-0.1c0.6-0.4,1.1-0.8,1.6-1.3
			c1.3-1.1,2.5-2.1,4.1-2.7c8.4-3.7,18.4-7.9,28.3-11.7c3.2-1.2,5-2.7,4.4-6.5c-0.1-0.9-0.1-1.8-0.1-2.8c0-0.4,0-0.8,0-1.2
			c-0.3-0.1-0.6-0.2-0.8-0.2c-0.4-0.1-0.7-0.2-1.1-0.3c-12.2-2.9-20.1-12.7-20.2-25.1c-0.1-6.3,0-12.7,0-18.8c0-3,0-6,0-9.1
			c-1.7-0.3-3.5-0.6-5.1-1.3c-4.4-1.9-6.6-5-6.6-9.4v-11.1c0.1-4.2,2.1-7.3,6-9.5c1-0.4,1.8-1.4,2.2-2.5c1.5-5.2,3.4-7.1,7-6.6
			c3.6,0.5,5.2,3,5.1,8.2h19.5v-19.9c-0.9,0.4-1.8,0.7-2.6,1c-1.3,0.5-2.6,0.9-3.8,1.5c-3.8,1.5-6.9,0.6-8.5-2.5
			c-0.8-1.5-0.9-3-0.4-4.4c0.5-1.6,1.8-2.9,3.6-3.7c2.8-1.2,6.2-2.6,9.4-3.4c1.5-0.5,2.4-0.8,2.8-2.5c1.1-5,4.3-7.6,9.5-7.8
			c3.7-0.1,7.5-0.2,11.1,0c4.7,0.3,7.6,2.7,9.2,7.7c0.4,1,1.5,2.3,2.4,2.4c15.5,4.1,25.4,13.9,29.4,29.4c0.3,1.3,1.2,2.6,2.2,3.1
			c4,2.1,6.1,5.3,6.2,9.7c0.1,1.8,0,3.6,0,5.4c0,0.9,0,1.8,0,2.7c0,8.6-3.1,12.2-11.7,13.4v26.4c0,14.2-7.4,23.4-22.1,27.1
			c0,0.5,0,1,0,1.5c0,1.9,0,3.8,0.1,5.7c0,0.6,0.8,1.6,1.5,2c5.2,2.3,10.4,4.4,15.9,6.7l2.4,1c1-3.9,1.9-7.6,3-11.4
			c3.2-12,10.5-20.5,21.8-25.1c4.6-1.9,9.2-3.8,13.8-5.7c6.4-2.7,13-5.4,19.6-8.1c1.9-0.7,2.6-1.7,2.5-3.7c-0.1-3.1,0-6.2,0-8.9
			c0-1.1,0-2.2,0-3.2c-1.9-0.8-3.7-1.5-5.5-2.2c-4.2-1.6-8.2-3.1-11.7-5.4c-9.4-6.3-14.3-16-14.1-28.1c0.2-3.4-0.7-4.7-3.9-5.8
			c-9-3.2-15.5-10.3-17.9-19.5s-0.1-19.1,6.2-26.3c0.5-0.5,0.9-1,1.3-1.5c0.1-0.2,0.3-0.3,0.4-0.5c-4.1-7.3-3.1-14.9-2.2-22.2
			l0.2-1.2c0.6-4.9,4.6-7,8.1-8.3c1-0.4,2.3-1.5,2.5-2.4c5-23.9,20.1-38.6,45.2-43.8c0,0,0-0.1,0-0.1c-0.2-4.2,0.9-7.5,3.3-9.8
			c2.6-2.5,6.6-3.7,11.6-3.4c1.8,0.1,3.6,0,5.4,0c0.9,0,1.8,0,2.7,0c11,0,13.8,2.4,15.4,13.3c25.4,4.9,40.7,20.2,45.6,45.6
			c8.7,2.9,10.7,6,10.6,15.4c0,1.1,0,2.2,0.1,3.3c0.2,4.6,0.4,9.3-2.9,13.5c6.2,6.3,9.2,13.5,9,21.9c-0.2,12.1-8.1,22.5-20.1,26.4
			c-2.1,0.6-2.6,1.3-2.6,3.3c-0.4,20.7-10,32.2-30.2,36.3c-0.3,0-0.5,0.1-0.8,0.2c-0.1,0-0.2,0.1-0.4,0.1c0,5,0,9.7,0.1,14.7
			c0,0.5,0.8,1.5,1.6,1.9c1.6,0.8,3.2,1.5,4.8,2.1c1.1,0.5,2.2,0.9,3.3,1.4c3.6,1.7,5,4.8,3.6,8c-1.3,3.2-4.4,4.3-8.2,2.9
			c-1.3-0.5-2.6-1.1-4-1.6c-1.6-0.6-3.2-1.3-4.9-2c-6.7,10.1-12.3,18.7-17.6,26.9c-0.3,0.5-0.5,1.2-0.5,1.9v31.5h48.8
			c-1-17.2,2.5-30.7,10.9-42.2c-1.5-0.8-3-1.6-4.4-2.4c-0.9-0.5-1.8-1-2.7-1.5c-0.5-0.3-1.1-0.5-1.7-0.8c-0.8-0.3-1.6-0.7-2.3-1.2
			c-2.5-1.8-3.2-4.4-1.9-7.3c1.5-2.9,4.2-4.1,7.3-3c13.2,4.6,21.8,13.2,25.3,25.7c1.2,4,2.1,8,3.2,12.4c2.3-1,4.6-1.9,6.8-2.8
			c4.1-1.7,8-3.3,12-5.1c0.5-0.2,1-1,1-1.6c0.1-1.8,0-3.6,0-5.1c0-0.6,0-1.1,0-1.6c-1.5-0.8-3.1-1.5-4.6-2.2
			c-2.8-1.3-5.5-2.5-7.9-4.3c-6.4-4.8-9.7-11.6-9.7-20.5v-27.3c-9.7-2-11.7-4.5-11.7-14.6c0-0.8,0-1.6,0-2.4c0-1.7,0-3.4,0-5
			c0.3-4,2.2-7,5.9-9.2c1.2-0.7,2.3-2,2.6-3.2c4-15.4,13.8-25.3,29.4-29.5c0.9-0.2,2.1-1.4,2.4-2.5c1.7-5,5-7.5,10.1-7.6
			c3.1-0.1,6.4-0.1,9.5,0c5,0.1,8.3,2.5,10.2,7.6c0.4,1.1,1.7,2.2,2.8,2.6c15.1,4.2,24.8,13.8,28.7,28.7c0.5,2,1.1,3.4,3.3,4.4
			c3.4,1.4,5.3,4.4,5.4,8.6v8.5c0,9.2-2.5,12.2-11.7,13.5v25.6c0,15.4-7,24.3-22.1,27.9c0,0.7,0,1.4-0.1,2.1
			c-0.1,1.8-0.1,3.6,0.1,5.5c0.2,0.7,1.4,1.7,2.5,2.2c10.1,4.4,20.5,8.7,30.9,12.9l0,0c3.6,1.6,4.9,4,4.2,7.5l0,85.9
			c0,2.9-1,5.2-2.9,6.4c-1.5,1-3.4,1.1-5.3,0.3c-2.5-1-3.6-3-3.6-6.2v-20.7h-42v17.4c0,0.5,0,0.9,0,1.4c0,0.9,0,1.8,0,2.7
			C326.5,366.7,324.3,369.1,320.9,369.1z M298.2,340.7h17.5v4.5c0,2,0,3.9,0,5.9c0,3.9,0,7.9,0,11.9c0.1,3.2,2.1,5.3,5.2,5.3
			c2.9,0,4.8-2.1,5-5.4c0.1-0.9,0-1.7,0-2.7c0-0.5,0-0.9,0-1.4v-18.2h43.5v21.5c0,2.9,1,4.6,3.2,5.6c1.7,0.7,3.3,0.6,4.6-0.3
			c1.6-1.1,2.5-3.2,2.5-5.8v-86c0.6-3.3-0.5-5.3-3.8-6.8c-10.4-4.2-20.8-8.5-30.9-12.9c-1.1-0.5-2.7-1.7-2.9-2.8
			c-0.3-2-0.2-3.8-0.2-5.7c0-0.8,0.1-1.5,0.1-2.3v-0.3l0.3-0.1c14.9-3.4,21.8-12.1,21.8-27.2v-26.2l0.3,0c9-1.3,11.4-3.9,11.4-12.8
			V170c-0.1-3.9-1.9-6.7-5-8c-2.5-1.1-3.1-2.7-3.7-4.8c-3.9-14.6-13.4-24-28.2-28.1c-1.3-0.4-2.7-1.7-3.2-3
			c-1.8-4.8-4.9-7.1-9.6-7.2c-3.1-0.1-6.4-0.1-9.5,0c-4.8,0.1-7.9,2.4-9.5,7.1c-0.4,1.1-1.7,2.6-3,2.9
			c-15.2,4.1-24.9,13.8-28.8,28.9c-0.4,1.4-1.6,2.9-3,3.6c-3.4,2.1-5.2,4.9-5.5,8.6c-0.1,1.6,0,3.3,0,4.9c0,0.8,0,1.6,0,2.4
			c0,9.9,1.7,12,11.4,13.9l0.3,0.1v27.9c0,8.6,3.1,15.3,9.3,19.9c2.3,1.7,4.9,2.9,7.8,4.2c1.6,0.7,3.2,1.4,4.8,2.3l0.2,0.1v0.2
			c0,0.5,0,1.1,0,1.8c0,1.5,0.1,3.4,0,5.1c0,0.8-0.6,2-1.5,2.2c-3.9,1.8-7.8,3.4-12,5.1c-2.4,1-4.8,2-7.2,3l-0.4,0.2l-0.1-0.4
			c-1.1-4.6-2.1-8.7-3.3-12.8c-3.5-12.2-11.9-20.7-24.9-25.2c-2.7-0.9-5,0-6.3,2.6c-1.1,2.5-0.6,4.7,1.7,6.3
			c0.7,0.4,1.4,0.7,2.2,1.1c0.6,0.2,1.2,0.5,1.8,0.8c0.9,0.5,1.8,1,2.7,1.5c1.5,0.8,3.1,1.7,4.8,2.6l0.4,0.2l-0.3,0.4
			c-8.6,11.6-12.1,25-11,42.5l0,0.4h-50.4v-32.3c0-0.8,0.2-1.7,0.7-2.3c5.4-8.3,11-16.9,17.8-27.2l0.2-0.3l0.3,0.1
			c1.7,0.7,3.4,1.4,5.1,2.1c1.3,0.5,2.7,1.1,4,1.6c3.4,1.3,6,0.3,7.2-2.5c1.3-2.8,0-5.5-3.2-7c-1.1-0.5-2.2-0.9-3.2-1.4
			c-1.6-0.7-3.2-1.3-4.9-2.1c-0.8-0.4-2-1.6-2-2.5c-0.1-5.1-0.1-9.9-0.1-15v-0.3l0.3-0.1c0.2-0.1,0.4-0.1,0.6-0.2
			c0.4-0.1,0.7-0.2,1-0.2c19.7-4,29.1-15.3,29.5-35.5c0-2.4,0.8-3.4,3.2-4.1c11.7-3.9,19.3-14,19.5-25.7c0.2-8.3-2.7-15.4-9-21.6
			l-0.2-0.2l0.2-0.3c3.3-4,3.1-8.7,2.9-13.3c0-1.1-0.1-2.2-0.1-3.3c0.1-9.3-1.7-11.9-10.3-14.7l-0.2-0.1l0-0.2
			c-4.8-25.3-20-40.5-45.3-45.3l-0.3,0l0-0.3c-1.6-10.7-4-12.9-14.7-12.9c-0.9,0-1.8,0-2.7,0c-1.8,0-3.6,0-5.4,0
			c-4.8-0.3-8.6,0.8-11.1,3.1c-2.2,2.1-3.2,5.3-3,9.3c0,0.4-0.3,0.6-0.3,0.7l-0.1,0.1l-0.1,0c-25.1,5.1-39.7,19.3-44.7,43.2
			c-0.2,1.2-1.7,2.5-2.9,3c-4.9,1.8-7.3,4.2-7.7,7.7l-0.2,1.2c-0.9,7.3-1.9,14.9,2.2,22l0.1,0.2l-0.2,0.2c-0.2,0.2-0.4,0.4-0.6,0.7
			c-0.4,0.5-0.9,1.1-1.4,1.6c-6.1,7-8.3,16.6-6,25.6c2.4,9,8.7,15.9,17.4,19c3.5,1.2,4.7,2.9,4.4,6.6c-0.2,12,4.4,21.2,13.7,27.5
			c3.4,2.3,7.3,3.8,11.5,5.4c1.9,0.7,3.8,1.5,5.7,2.3l0.2,0.1v0.2c0,1.1,0,2.2,0,3.5c0,2.7,0,5.8,0,8.9c0.1,2.4-0.7,3.6-2.9,4.5
			c-6.5,2.6-13.1,5.4-19.5,8.1c-4.6,1.9-9.2,3.8-13.8,5.7c-11.1,4.6-18.3,12.9-21.4,24.6c-1.1,4-2.1,7.7-3.1,11.8l-0.1,0.4l-3.2-1.3
			c-5.5-2.3-10.7-4.4-15.9-6.7c-0.9-0.5-1.9-1.7-1.9-2.6c-0.2-1.9-0.1-3.8-0.1-5.7c0-0.6,0-1.2,0-1.8v-0.3l0.3-0.1
			c14.7-3.6,21.8-12.3,21.8-26.4v-27l0.3,0c8.5-1.2,11.4-4.4,11.4-12.7c0-0.9,0-1.8,0-2.7c0-1.8,0-3.6,0-5.4c-0.1-4.1-2-7.2-5.8-9.1
			c-1.2-0.5-2.3-2-2.6-3.6c-3.9-15.1-13.6-24.8-28.8-28.8c-1.2-0.2-2.5-1.7-3-2.9c-1.5-4.6-4.3-6.9-8.6-7.2c-3.6-0.2-7.4-0.1-11.1,0
			c-4.8,0.2-7.8,2.6-8.8,7.2c-0.5,2.1-1.6,2.5-3.4,3.1c-3.2,0.8-6.5,2.2-9.3,3.4c-1.6,0.8-2.7,1.9-3.2,3.3c-0.4,1.2-0.3,2.5,0.4,3.8
			c1.4,2.7,4.1,3.5,7.5,2.1c1.2-0.6,2.5-1,3.8-1.5c1-0.4,2-0.8,3.1-1.2l0.5-0.2v21.7H26.4l0-0.4c0.1-5.1-1.2-7.4-4.5-7.8
			c-3.1-0.4-4.8,1.3-6.2,6.1c-0.5,1.3-1.5,2.4-2.6,2.9c-3.7,2.1-5.5,4.9-5.6,8.9v11.1c0,4.1,2.1,7,6.2,8.8c1.5,0.7,3.3,1,5,1.2
			l0.5,0.1v0.3c0,3.1,0,6.3,0,9.4c0,6.1,0,12.5,0,18.8c0.1,12,7.8,21.6,19.6,24.3c0.4,0.1,0.7,0.2,1.1,0.3c0.3,0.1,0.7,0.2,1.1,0.3
			l0.3,0.1v0.3c0,0.5,0,1,0,1.5c0,0.9-0.1,1.8,0,2.6c0.8,4.5-1.8,6.2-4.8,7.3c-9.9,3.8-19.9,8-28.3,11.7c-1.4,0.5-2.6,1.5-3.9,2.6
			c-0.5,0.4-1,0.8-1.5,1.2v92.8c2.3,2.4,4.3,3.8,7.1,2.6c3.2-1.2,3.4-4.2,3.3-7c-0.1-1.5,0-3.1,0-4.7c0-0.8,0-1.5,0-2.3v-13h43.5v22
			c0,3.2,1.9,5.3,4.9,5.4c2.9,0,5-2.1,5.3-5.3c0.1-1.6,0-3.4,0-5.1c0-0.9,0-1.7,0-2.5v-14.4h17.2l-0.1,0.4c-0.1,0.4-0.2,0.8-0.2,1.1
			c-0.1,0.5-0.2,0.9-0.3,1.3c-0.8,3-1.5,6-2.3,9c-0.8,3-1.5,6-2.3,9c-0.6,3.1,0.9,5.8,3.6,6.4c3,0.7,5.3-0.7,6.4-3.9
			c0.1-0.4,0.2-0.8,0.3-1.2c0.1-0.4,0.2-0.8,0.3-1.2l8.9-35.5c5.9-23.7,11.9-47.4,17.8-71c0.4-1.5,0.8-2.9,1.5-5l0.3-0.8l0.4,0.7
			c4.8,7.9,7.1,16.4,7.1,26.7v83c0,1.6,0,3.2,0.4,4.6c0.8,3.1,3.3,3.7,5.2,3.6c2.5-0.1,4.1-1.4,4.6-3.9c0.2-1.2,0.2-2.6,0.2-3.9v-27
			c0-1.3,0.1-2.5,0.2-3.7l0-0.3l0.3,0h49.7v33c0.2,3.9,2.1,6,5.3,5.9c3.2-0.1,4.9-2.2,4.9-5.9c0.1-6.3,0-12.7,0-19
			c0-3.2,0-6.3,0-9.4c0-1.4,0.1-2.7,0.2-4.1l0-0.6h50v33.4c0,3.5,1.9,5.6,5,5.6c3.1,0,4.9-2,5.2-5.7c0.1-0.7,0-1.5,0-2.2
			c0-0.4,0-0.7,0-1.1l0-68c0-6.9,0-14.1,0.4-21.2c0.4-6.9,2.6-13.3,6.6-19.5l0.4-0.7l0.2,0.7c0.2,0.6,0.4,1.1,0.6,1.6
			c0.3,0.9,0.6,1.7,0.7,2.4c2.2,8.9,4.5,17.9,6.7,26.8c2.2,9,4.4,17.9,6.7,26.8c4.1,16.3,8.9,35.5,13.9,55c0.5,1.7,2.2,4.2,3.8,4.8
			c1.7,0.7,3.4,0.4,4.6-0.7c1.5-1.4,2.1-3.6,1.4-5.8c-1.2-5-2.5-10-3.7-15L298.2,340.7z M316,330h-0.4c-6.1,0-11.8,0-17.8-0.1
			c-0.9,0-2-1.2-2.3-2c-0.7-2.3-1.2-4.6-1.8-7.1c-0.3-1.4-0.6-2.8-1-4.3l-0.1-0.5H316V330z M293.6,316.8c0.3,1.3,0.6,2.6,0.9,3.8
			c0.6,2.5,1.1,4.8,1.8,7.1c0.2,0.6,1.1,1.4,1.5,1.4c5.9,0.1,11.5,0.1,17.4,0.1v-12.4H293.6z M79.5,329.9c-1.8,0-3.7,0-5.6,0
			c-1.9,0-3.9,0-5.9,0h-0.4v-14h23.2l-0.6,2.5c-0.8,3.5-1.6,6.8-2.5,9.9c-0.2,0.9-1.8,1.6-2.6,1.6C83.2,329.9,81.3,329.9,79.5,329.9
			z M68.3,329.1c1.9,0,3.8,0,5.6,0c3.8,0,7.5,0,11.2,0c0.6,0,1.8-0.7,1.8-1l0,0c0.9-3.1,1.7-6.4,2.5-9.8l0.4-1.6H68.3V329.1z
			 M370,329.8h-43v-14h0.4c0.8,0,1.7,0,2.5,0c1.7,0,3.4,0,5.1,0c3.9-0.2,5.9-2.1,5.8-5.4c-0.1-3.1-2.1-4.7-5.9-4.8
			c-2.2,0-4.5,0-6.6-0.1c0,0,0,0,0,0c-0.3,0-0.6-0.1-1.2-0.4l-0.2-0.1l0-0.2c0-1.6,0-3.2-0.1-4.7c-0.2-5-0.3-10.2,2.6-15.1
			c2.8-4.7,5.1-9.6,7.6-14.8c0.7-1.6,1.5-3.2,2.3-4.8l0.2-0.3l4.4,1.8c8.5,3.5,16.4,6.9,24.5,10.4c0.7,0.2,1.5,1.7,1.5,2.5
			c0.3,8.2,0.3,16.6,0.3,25.4v0.4h-0.4c-1,0-1.9,0-2.8,0c-1.8,0-3.4,0-5.1,0c-3.2,0.1-5.4,2.1-5.5,4.9c-0.1,2.8,2.1,5,5.3,5.3
			c1.6,0.1,3.3,0.1,5.2,0c0.9,0,1.9,0,2.9,0h0.4V329.8z M327.7,329h41.5v-12.5c-0.9,0-1.7,0-2.5,0c-1.8,0-3.6,0.1-5.2,0
			c-3.6-0.3-6.1-2.9-5.9-6.1c0.1-3.3,2.6-5.6,6.3-5.7c1.7-0.1,3.4,0,5.1,0c0.8,0,1.6,0,2.4,0c0-8.7,0-16.9-0.3-25
			c0-0.6-0.6-1.7-1-1.9c-8.1-3.5-16.1-6.9-24.6-10.4l-3.7-1.6c-0.7,1.5-1.4,3-2.1,4.4c-2.5,5.2-4.8,10.1-7.6,14.9
			c-2.8,4.8-2.7,9.8-2.5,14.7c0,1.5,0.1,3,0.1,4.5c0.2,0.1,0.6,0.3,0.7,0.3c2.1,0.1,4.4,0.1,6.6,0.1c5.4,0.1,6.6,3.1,6.7,5.6
			c0.1,3.7-2.3,6-6.6,6.2c-1.7,0.1-3.4,0-5.1,0c-0.7,0-1.4,0-2.1,0V329z M56.8,329.8H13.7v-13.7h42.9L56.8,329.8z M14.5,329H56
			l-0.1-12.2H14.5V329z M246.9,318.2h-49.7v-23.8h49.7V318.2z M198,317.4h48.2v-22.3H198V317.4z M186.6,318.1h-50.1v-23.7l0.6-0.1
			c1-0.1,1.9-0.2,2.6-0.2c14,0,28.5,0,42.8-0.1c3,0,4,0.9,4,3.9c-0.1,4.3,0,8.5,0,13c0,2.2,0,4.5,0,6.8V318.1z M137.3,317.3h48.6
			c0-2.2,0-4.3,0-6.4c0-4.5,0-8.7,0-13c0-2.5-0.6-3.1-3.2-3.1c-14.3,0.1-28.8,0.1-42.8,0.1c-0.7,0-1.6,0.1-2.5,0.2V317.3z
			 M83.6,305.5c-2.6,0-5.1,0-7.8,0c-2.7,0-5.4,0-8.1,0h-0.4l0-0.4c0.1-2,0-4,0-5.9c-0.2-5-0.4-9.8,2.5-14.5
			c2.6-4.4,4.8-8.9,7.1-13.7c0.9-1.9,1.9-3.9,2.9-5.8l0.2-0.3l0.3,0.1c6.8,2.9,13.4,5.7,20.8,8.7l0.3,0.1l-0.1,0.3
			c-2.4,10-4.9,20-7.4,29.6c-0.2,0.8-1.8,1.8-2.6,1.8C88.7,305.5,86.2,305.5,83.6,305.5z M68.1,304.7c2.6,0,5.2,0,7.7,0
			c5.3,0,10.4,0,15.5,0c0.6,0,1.8-0.8,1.8-1.2l0,0c2.4-9.5,4.9-19.4,7.3-29.3c-7.1-3-13.6-5.6-20.2-8.4c-0.9,1.9-1.8,3.7-2.7,5.5
			c-2.3,4.8-4.5,9.4-7.2,13.8c-2.7,4.5-2.6,9.1-2.4,14.1C68.1,301,68.2,302.8,68.1,304.7z M315.9,305.5h-0.4c-8.1,0-15.8,0-23.7-0.1
			c-0.9,0-2.1-1.3-2.4-2.1c-3-11.6-5.3-20.5-7.4-29.1l-0.1-0.3l0.3-0.1c7.4-3.1,14-5.8,20.8-8.7l0.3-0.1l0.2,0.3
			c1.2,2.5,2.6,5,3.9,7.4c2.9,5.5,6,11.3,8.2,17.1c1.2,3.2,0.9,6.7,0.7,10.5c-0.1,1.6-0.2,3.3-0.2,4.9V305.5z M282.7,274.2
			c2.1,8.5,4.3,17.4,7.3,28.8c0.3,0.7,1.3,1.6,1.7,1.6c7.8,0.1,15.3,0.1,23.3,0.1c0-1.5,0.1-3.1,0.2-4.6c0.3-3.7,0.5-7.2-0.6-10.2
			c-2.1-5.8-5.2-11.5-8.1-17c-1.2-2.3-2.5-4.7-3.7-7.1C296.3,268.6,289.9,271.3,282.7,274.2z M56.7,305.2H13.5v-0.4
			c0-8.7,0-16.9,0.1-25.3c0-0.9,1.1-2.4,2-2.7c9.1-3.9,18.4-7.8,28.4-11.8l0.3-0.1l0.2,0.3c1.3,2.7,2.7,5.3,4.1,7.9
			c2.8,5.4,5.8,11,7.9,16.6c1,2.9,0.7,6.4,0.5,10c-0.1,1.6-0.2,3.4-0.2,5V305.2z M14.3,304.4h41.7c0-1.6,0.1-3.1,0.2-4.7
			c0.3-3.6,0.5-6.9-0.4-9.7c-2.2-5.6-5-10.9-7.9-16.5c-1.3-2.5-2.6-5-3.9-7.6c-9.8,3.9-19,7.8-28.1,11.7c-0.6,0.2-1.5,1.3-1.5,2
			C14.3,287.8,14.3,295.9,14.3,304.4z M186.6,283.6h-49.5l0-0.3c-0.3-2.5-0.5-5.1-0.7-7.5c-0.4-5.2-0.8-10.1-2-14.8l0,0
			c-1.1-4.6-3.1-9.1-5.1-13.8c-1-2.4-2.1-4.9-3.2-7.5l-0.1-0.3l0.3-0.1c7.6-3.2,15.2-6.5,23.3-9.9c6-2.5,12-5.1,18-7.6l0.3-0.1
			l0.2,0.3c2.6,4.1,5.3,8.1,7.9,12.1c3.3,5,6.7,10.1,10,15.2c0.4,0.7,0.7,1.4,0.7,2.3V283.6z M137.7,282.8h48.1v-31.5
			c0-0.7-0.2-1.4-0.5-1.9c-3.3-5.1-6.7-10.2-10-15.2c-2.6-3.9-5.2-7.8-7.8-11.8c-6,2.5-11.9,5-17.8,7.5c-7.9,3.4-15.4,6.5-22.9,9.7
			c1,2.5,2,4.9,3,7.2c2.1,4.8,4,9.3,5.2,14c1.2,4.8,1.6,9.7,2,15C137.3,278,137.5,280.4,137.7,282.8z M62.1,277.4l-0.3-0.7
			c-1.1-2.2-2.1-4.3-3.2-6.4c-1.1-2.1-2.1-4.2-3.2-6.4l-0.3-0.5H69l-0.3,0.5c-2.4,5.1-4.3,8.8-6.3,12.8L62.1,277.4z M56.3,264.2
			c1,2,2,4,2.9,5.9c0.9,1.9,1.9,3.7,2.9,5.7c1.8-3.6,3.5-7.1,5.7-11.6H56.3z M321.4,277.4l-0.3-0.7c-1.2-2.4-2.2-4.5-3.3-6.6
			c-1-2-2-4-3-6.1l-0.3-0.5h13.9l-0.3,0.5c-1.2,2.5-2.4,4.9-3.7,7.4c-0.9,1.7-1.8,3.5-2.7,5.3L321.4,277.4z M315.7,264.3
			c0.9,1.9,1.8,3.7,2.7,5.5c0.9,1.9,1.9,3.9,3,6c0.8-1.6,1.6-3.2,2.4-4.7c1.2-2.3,2.3-4.5,3.4-6.8H315.7z M331.4,252.9h-20.2v-7.5
			h20.2V252.9z M311.9,252.1h18.8v-6h-18.8V252.1z M72.2,252.8H51.9v-7.6h20.2V252.8z M52.7,252h18.8V246H52.7V252z M191.8,238.9
			l-0.3-0.5c-2-3-3.9-5.9-5.8-8.8c-1.9-2.9-3.7-5.7-5.7-8.7l-0.4-0.6h24.5l-0.4,0.6c-3.7,5.4-7.6,11.2-11.6,17.5L191.8,238.9z
			 M181,221.1c1.9,2.8,3.6,5.5,5.4,8.2c1.8,2.7,3.5,5.4,5.4,8.3c3.8-5.9,7.5-11.4,10.9-16.4H181z M62.2,234.7
			c-6.1,0-12.1-0.1-18.3-0.2c-8.4-0.1-14.3-6.1-14.3-14.7l0,0c-0.1-6.2,0-12.2,0-18.6c0-3.2,0-6.4,0-9.7v-0.4h27.4v7.4
			c0.1,3.4,1.9,5.4,4.8,5.5c3.1,0.1,5.2-2,5.4-5.4c0.1-1.4,0-2.9,0-4.4c0-0.8,0-1.6,0-2.5v-0.4h27v0.4c0,3.2,0,6.5,0.1,9.6
			c0.1,6.9,0.2,14-0.2,21c-0.5,6.9-6.3,12-13.8,12.2C74.4,234.7,68.3,234.7,62.2,234.7z M30.5,192c0,3.1,0,6.2,0,9.3
			c0,6.4,0,12.5,0,18.6v0c0,8.1,5.6,13.8,13.5,13.9c12.3,0.2,24.2,0.2,36.5,0c7.1-0.1,12.6-4.9,13-11.5c0.4-6.9,0.3-14,0.2-20.9
			c0-3-0.1-6.2-0.1-9.3H68.1c0,0.7,0,1.4,0,2.1c0,1.5,0,3,0,4.4c-0.2,3.8-2.7,6.2-6.2,6.2c-3.3-0.1-5.5-2.5-5.6-6.3V192H30.5z
			 M321.2,234.6c-6.2,0-12.3-0.1-18.4-0.2c-7.4,0-13.4-5.6-13.8-13v0c-0.3-6.8-0.3-13.4-0.2-20.5c0-3.1,0.1-6.3,0.1-9.5v-0.4h27.2
			v0.4c0,0.8,0,1.5,0,2.3c0,1.5,0,3.1,0,4.6c0.1,3.4,2.1,5.6,5.2,5.6c3.1,0,4.9-2.1,5-5.8v-6.9h27v0.4c0,3.2,0,6.4,0.1,9.5
			c0.1,7,0.2,14.3-0.2,21.3c-0.4,6.5-6.4,11.8-13.7,11.9C333.6,234.6,327.4,234.6,321.2,234.6z M289.8,221.5c0.4,7,6,12.2,13,12.2
			c12.2,0.2,24.6,0.2,36.9,0c6.9-0.1,12.6-5,12.9-11.1c0.3-7,0.3-14.2,0.2-21.2c0-3.1-0.1-6.1-0.1-9.2h-25.5v6.1
			c-0.1,4.1-2.3,6.6-5.8,6.6c-3.5,0-5.9-2.6-6-6.4c-0.1-1.5,0-3.1,0-4.6c0-0.6,0-1.3,0-1.9h-25.7c0,3.1,0,6.1-0.1,9.1
			C289.5,208.1,289.4,214.7,289.8,221.5L289.8,221.5z M208.1,209.6h-32.9v-15.2h32.9V209.6z M176,208.8h31.4v-13.7H176V208.8z
			 M214.8,184h-46.9c-14.9-0.2-24-9.2-24.2-24.1v0c-0.1-10.1,0-20.3,0-30.2c0-5.1,0-10.1,0-15.2c0-1.1,0.1-2.2,0.2-3.4l0-0.6h95.4
			l0,0.3c0.1,1.3,0.2,2.7,0.2,3.9v44.7C239.6,174.8,230.3,184,214.8,184z M144.5,159.9c0.2,14.4,9,23.1,23.4,23.3h46.9
			c15.3,0,24-8.7,24-23.8v-44.7c0-1.1-0.1-2.3-0.2-3.5h-94c-0.1,1.2-0.2,2.2-0.2,3.3c0,5.1,0,10.1,0,15.2
			C144.4,139.6,144.4,149.8,144.5,159.9L144.5,159.9z M365.4,180.6h-88v-9.1h88V180.6z M278.1,179.8h86.5v-7.6h-86.5V179.8z
			 M106.1,180.6H18.2v-9h87.9V180.6z M19,179.8h86.4v-7.5H19V179.8z M306.6,160.9H286l0-0.4c0.1-9,9.5-18.7,20.1-20.8l0.4-0.1V160.9
			z M286.8,160.1h19v-19.6C295.9,142.7,287.1,151.7,286.8,160.1z M97.5,160.9H76.8v-21l0.4,0c9.5,0.7,20.1,11.5,20.2,20.6
			L97.5,160.9z M77.6,160.1h19.1c-0.4-8.5-10.2-18.5-19.1-19.4V160.1z M357.3,160.7h-21.1v-20.9l0.4,0c9.6,1.1,18.7,10.1,20.6,20.4
			L357.3,160.7z M336.9,159.9h19.5c-2-9.7-10.4-18-19.5-19.3V159.9z M325.3,160.7h-7.9v-30.9h7.9V160.7z M318.2,159.9h6.4v-29.4
			h-6.4V159.9z M66.1,160.7h-7.9v-30.9h7.9V160.7z M59,159.9h6.4v-29.4H59V159.9z M250.2,144.3v-32.5l0.4,0.1
			c5.8,0.9,11,7,11.7,13.9l0,0c0.7,8.5-3.7,15.5-11.6,18.3L250.2,144.3z M251,112.7v30.5c7.3-2.8,11.3-9.4,10.7-17.3
			C261,119.6,256.2,113.8,251,112.7z M133.2,144.1l-0.5-0.1c-6.6-1.6-11.5-8.1-11.7-15.5c-0.2-7.9,4.6-14.8,11.7-16.7l0.5-0.1V144.1
			z M132.4,112.7c-6.5,2-10.8,8.4-10.6,15.8c0.2,6.8,4.6,12.9,10.6,14.6V112.7z M256.1,99.6H127.4V86.1h128.7V99.6z M128.2,98.8
			h127.2v-12H128.2V98.8z M199.5,75.4H184v-48h15.4V75.4z M184.8,74.6h13.9V28.1h-13.9V74.6z M173.4,75.4h-35.9l0.2-0.5
			c2.4-6.7,4.9-12.6,7.5-18.6l0.2-0.4l0.9,0.6c2.8,1.9,4.9,3.3,7.1,4.6c2.8,1.7,5.6,1.3,7.4-1.1c0.8-1.1,1.1-2.3,0.9-3.6
			c-0.2-1.4-1.1-2.6-2.4-3.6c-1.1-0.8-2.1-1.5-3.5-2.5c-0.7-0.5-1.5-1-2.4-1.6l-0.6-0.4l0.6-0.3c3.4-1.5,6.6-2.8,9.8-4.1
			c3.2-1.3,6.3-2.6,9.7-4.1l0.5-0.2V75.4z M138.5,74.6h34.1V40.8c-3.2,1.4-6.2,2.6-9.2,3.9c-3,1.2-6,2.5-9.1,3.8
			c0.7,0.5,1.3,0.9,1.8,1.2c1.4,0.9,2.5,1.7,3.5,2.5c1.5,1.1,2.4,2.5,2.7,4.1c0.2,1.4-0.1,2.9-1,4.1c-2,2.7-5.3,3.2-8.4,1.3
			c-2.2-1.3-4.2-2.7-7.1-4.7l-0.1-0.1C143.2,62.6,140.9,68.3,138.5,74.6z M246.3,75.3h-35.9l-0.1-34.6l0.4,0
			c6.6,0.7,12.6,3.1,18.8,7.7l0.4,0.3l-0.4,0.3c-1.2,0.8-2.2,1.5-3.1,2.2c-0.8,0.5-1.5,1-2.3,1.5c-2.3,1.9-2.8,4.7-1.2,7
			c1.6,2.3,4.3,2.9,7,1.5c2.3-1.4,4.5-2.9,8-5.2l0.4-0.2l0.2,0.4c2.7,6.4,5.2,12.3,7.7,18.6L246.3,75.3z M211.1,74.5h34.1
			c-2.4-6-4.7-11.6-7.3-17.7c-3.2,2.2-5.4,3.6-7.6,5c-3,1.6-6.2,0.9-8-1.7c-1.8-2.6-1.3-5.8,1.4-8c0.8-0.6,1.5-1.1,2.3-1.6
			c0.8-0.6,1.7-1.1,2.7-1.8c-5.8-4.2-11.4-6.5-17.6-7.2L211.1,74.5z"/>
	</g>
	<g>
		<path class="st0" d="M208.6,160.7c-3.7,6.5-9.5,9.7-16.9,10c-7.5-0.5-13.2-3.7-16.8-10.3c-1.8-3.3-1-6.4,1.9-8
			c2.7-1.5,5.4-0.6,7.5,2.4c4.4,6.4,10.5,6.4,14.7,0.1c2.2-3.1,5.1-4.1,7.9-2.4C209.6,154.3,210.4,157.5,208.6,160.7z"/>
		<path class="st0" d="M191.7,171.1c-8-0.5-13.6-4-17.1-10.5c-1.9-3.4-1.1-6.8,2-8.5c2.8-1.6,5.8-0.7,8,2.5c2.1,3,4.6,4.7,7.1,4.7
			c0,0,0,0,0,0c2.5,0,4.9-1.6,6.9-4.5c2.4-3.3,5.5-4.3,8.4-2.5c3,2,3.7,5.4,1.8,8.7l0,0C205.3,167.3,199.5,170.8,191.7,171.1z
			 M179.4,152.1c-0.8,0-1.6,0.2-2.4,0.7c-2.8,1.5-3.4,4.4-1.8,7.5c3.4,6.3,8.8,9.6,16.5,10.1c7.4-0.3,13-3.6,16.5-9.8
			c1.7-2.9,1-6-1.6-7.7c-2.5-1.5-5.2-0.7-7.4,2.3c-2.1,3.1-4.7,4.9-7.5,4.9c0,0,0,0,0,0c-2.8,0-5.6-1.8-7.8-5
			C182.6,153.1,181,152.1,179.4,152.1z"/>
	</g>
	<g>
		<path class="st0" d="M197.2,140.3c-0.1,3.3-2.5,5.4-5.4,5.4s-5.2-2.2-5.4-5.4c-0.2-3,0-6.2,0-9.2c0-2.9-0.1-5.9,0-8.8
			c0.2-3.4,2.4-5.3,5.4-5.3s5.3,1.9,5.4,5.3C197.3,128.2,197.3,134.3,197.2,140.3z"/>
		<path class="st0" d="M191.8,146.1c-3.1,0-5.6-2.4-5.8-5.8c-0.1-2-0.1-4.1,0-6.2c0-1,0-2,0-3c0-1,0-1.9,0-2.9c0-1.9,0-4,0-5.9
			c0.2-3.5,2.4-5.7,5.8-5.7c3.4,0,5.7,2.2,5.8,5.7c0.1,5.9,0.1,12,0,18v0C197.5,143.7,195,146.1,191.8,146.1z M191.8,117.4
			c-2.9,0-4.8,1.9-5,4.9c-0.1,1.9,0,3.9,0,5.9c0,1,0,2,0,2.9c0,1,0,2,0,3c0,2-0.1,4.1,0,6.1c0.2,3,2.3,5.1,5,5.1c2.9,0,4.9-2.1,5-5
			c0.1-6,0.1-12.1,0-18C196.7,119.3,194.8,117.4,191.8,117.4z"/>
	</g>
	<g>
		<path class="st0" d="M334.5,218.6c-2.9,5-7.4,7.4-13.2,7.7c-5.7-0.4-10.3-2.8-13.2-8c-1.7-3-1.1-6.2,1.5-7.9
			c2.7-1.7,5.6-1.1,7.7,1.7c3,3.9,5.1,3.9,8.1,0.1c2.3-2.9,5.1-3.5,7.7-1.9C335.8,212.2,336.4,215.3,334.5,218.6z"/>
		<path class="st0" d="M321.3,226.7c-6.2-0.4-10.8-3.2-13.5-8.2c-1.8-3.2-1.1-6.6,1.6-8.4c2.9-1.8,6-1.1,8.2,1.8
			c1.5,1.9,2.7,2.8,3.8,2.8c0,0,0,0,0,0c1.1,0,2.3-0.9,3.7-2.7c2.4-3,5.4-3.7,8.2-2c2.9,2,3.5,5.4,1.5,8.8l0,0
			C332,223.7,327.4,226.4,321.3,226.7z M312.6,209.8c-0.9,0-1.9,0.3-2.8,0.9c-2.4,1.6-3,4.6-1.4,7.4c2.7,4.8,7,7.4,12.9,7.8
			c5.9-0.3,10.1-2.8,12.8-7.5c1.8-3.1,1.3-6-1.3-7.8c-2.5-1.5-5-0.9-7.2,1.8c-1.6,2.1-3,3-4.3,3c0,0,0,0,0,0c-1.4,0-2.7-1-4.4-3.1
			C315.8,210.7,314.2,209.8,312.6,209.8z"/>
	</g>
	<g>
		<path class="st0" d="M75.1,218.6c-2.9,5-7.4,7.4-13.2,7.7c-5.7-0.4-10.3-2.8-13.2-8c-1.8-3.1-1.1-6,1.5-7.9
			c2.7-1.7,5.6-1.1,7.7,1.7c3,3.9,5.1,3.9,8.1,0.1c2.2-2.9,5.1-3.5,7.7-1.9C76.5,212.2,77.1,215.5,75.1,218.6z"/>
		<path class="st0" d="M61.9,226.7c-6.2-0.4-10.8-3.2-13.5-8.2c-1.8-3.2-1.2-6.3,1.6-8.4c2.9-1.8,6-1.1,8.2,1.8
			c1.5,1.9,2.7,2.8,3.8,2.8c0,0,0,0,0,0c1.1,0,2.3-0.9,3.7-2.7c2.3-3,5.3-3.7,8.2-2c3,2,3.6,5.6,1.5,8.8
			C72.6,223.7,68,226.4,61.9,226.7z M53.2,209.8c-0.9,0-1.9,0.3-2.8,0.9c-2.5,1.8-3,4.5-1.4,7.4c2.7,4.8,7,7.4,12.9,7.8
			c5.9-0.3,10.1-2.8,12.8-7.5l0,0c1.9-2.9,1.4-6-1.3-7.8c-2.5-1.5-5.2-0.8-7.2,1.8c-1.6,2.1-3,3-4.3,3c0,0,0,0,0,0
			c-1.4,0-2.7-1-4.4-3.1C56.4,210.7,54.8,209.8,53.2,209.8z"/>
	</g>
</g>
</svg>
